<svg xmlns="http://www.w3.org/2000/svg" width="100" height="99.999" viewBox="0 0 100 99.999">
  <path id="path11186" d="M-1006.9,1109.839v98.881H-977c-3.659-6.546-7.634-12.93-10.946-19.661-1.966-4.247-3.218-9.58-.777-13.891,2.921-4.787,9.634-6.215,14.5-3.657,2.984,2.031,5.683,4.512,8.556,6.719.2-10.041.563-20.084.669-30.123,0-5.967-.234-11.992.671-17.913,1.367-6.237,8.961-9.959,14.758-7.336a10.036,10.036,0,0,1,6.519,9.077c.56,5.469.044,10.97.173,16.453,2.408-.532,4.982-.938,7.282.231a9.909,9.909,0,0,1,5.041,3.238,6.232,6.232,0,0,1,1.952,3.483c.983,1.163,2.66.146,3.966.263,4.308-.734,8.5,2.344,10.341,6.087.19,1.264,1.541,2.373,2.769,1.608a13.728,13.728,0,0,1,4.621-.281v-54.3h-100v1.118Zm87.495,7.5c.281.923,2.245,2.163.806,2.832-4.09,3.363-8.3,6.682-13.117,8.951-1.893-.244-2.1-2.571-3.144-3.812-1.094-.959.265-1.738,1.094-2.2,4.4-2.455,8.566-5.294,12.856-7.93l1.506,2.162Zm-36.319,12.526c-2.173,1.762-1.638,4.949-1.818,7.428-.54,18.323-.441,36.666-1.129,54.986.326,3.065-4.513,5.223-6.16,2.28-2.153-3.359-3.7-7.1-6.088-10.323-1.923-2.692-4.355-5.287-7.487-6.5-1.99-.73-4.681.838-4.176,3.136.432,5.352,3.95,9.732,6.386,14.319q3.9,6.757,7.8,13.516h61.49v-38.01c-1.707-.591-4.062-.471-5.086,1.169-1.131,5.163-.67,10.486-1,15.726-.116,2.559.11,5.378-1.175,7.666-2.228,2.27-7.022.365-6.513-2.982-.356-8.358.276-16.73-.023-25.085-.122-1.694-.485-3.929-2.5-4.258a4.267,4.267,0,0,0-4.337,1.707c-.908,8.392-.559,16.857-1.009,25.274-.337,1.97.135,4.7-2.048,5.739-2.154,1.17-5.474-.483-5.074-3.128-.156-11.5.651-23.005-.021-34.491-.14-2.623-3.625-3.3-5.524-2.065-1.393.516-.929,2.4-1.314,3.588-.732,9.4-.356,18.857-.846,28.274-.392,2.385.443,5.637-1.754,7.4-1.994,1.63-5.741.165-5.417-2.616-.444-10.326,0-20.669.085-31,.078-9.63.477-19.275.169-28.9a3.676,3.676,0,0,0-3.757-3.538c-.862,0-3.877-1.116-2.111.249l.429.429Zm35.708,8.623-1.106,5.3c-2.13.428-3.834-1.363-5.751-1.972l-8.025-3.751,1.861-3.568,13.021,3.994Z" transform="translate(1006.904 -1108.721)" fill="#54a191"/>
</svg>
