<svg xmlns="http://www.w3.org/2000/svg" width="254" height="180" viewBox="0 0 254 180">
  <path id="path23595" d="M912.747,3739.161v-90h254v180h-254Zm35.858,68.119.083-9.666H929.165v9.536c0,5.245.1,9.631.212,9.747s4.473.175,9.68.13l9.469-.082Zm201.341,0,.083-9.666h-19.524v19.494l9.68-.082,9.68-.082Zm-100.762-37.809c30.227-16.756,54.961-30.534,54.964-30.619,0-.207-109.8-62.6-110.4-62.729-.416-.089-.468,6.792-.468,61.956,0,55.374.051,62.045.472,61.956.258-.056,25.2-13.809,55.431-30.563Zm-100.507,3.246v-9.741H929.164v19.484h19.514Zm201.188,0v-9.587l-9.68-.082-9.68-.082v19.5l9.68-.082,9.68-.082Zm-201.259-34.562-.083-9.665h-19.2l-.083,9.665-.082,9.665h19.532Zm201.341,0-.083-9.665-9.68-.082-9.68-.082v19.493h19.524Zm-201.268-34.562v-9.587H929.164v19.175h19.515Zm201.341,0v-9.587h-19.515v19.175h19.515Zm-201.414-34.562.082-9.665H929.165v9.536c0,5.245.1,9.631.213,9.747s4.472.174,9.68.129l9.469-.082Zm201.259.077v-9.587l-9.68-.082-9.68-.082v19.533l9.68-.1,9.68-.1Z" transform="translate(-912.747 -3649.16)" fill="#fcc954"/>
</svg>
