<svg xmlns="http://www.w3.org/2000/svg" xmlns:xlink="http://www.w3.org/1999/xlink" width="1366" height="300" viewBox="0 0 1366 300">
  <defs>
    <linearGradient id="linear-gradient" x1="-1.191" y1="-26.714" x2="-0.707" y2="-27.159" gradientUnits="objectBoundingBox">
      <stop offset="0" stop-color="#fff" stop-opacity="0"/>
      <stop offset="1" stop-color="#fcc954"/>
    </linearGradient>
  </defs>
  <path id="path5820" d="M239.651,3887.272c-20.515,27.059-37.652,74.483-54.993,151.135,6.412,43.665,46.956,52.094,109.521,46.363q54.423-9.852,107.2-16.3c136.835-24.525,319-59.741,489.267-5.457,122.087,10.133,204.033,70.668,307.6,71.234,26.594,6.808,146.044,7.61,166.244,3.988v-241.1c-1.165.452,1.184-10.365,0-9.867-250.744,243.561-817.741,57.071-961.163,0Zm651,175.745c-141.855-11.771-307.7-16.966-489.267,5.456-40.066,7.181-76.385,13.474-107.2,16.3-64.808,11.73-227.508,27.255-295.341,47.443v49.949c296.608-33.807,796.477-40.742,892.023,5.095h182.486c5.276-20.319,3.672-34.429-2.34-22.751a504.586,504.586,0,0,0-180.358-101.437Z" transform="translate(1.162 -3887.256)" opacity="0.25" fill="url(#linear-gradient)"/>
</svg>
