<svg xmlns="http://www.w3.org/2000/svg" width="100" height="100" viewBox="0 0 100 100">
  <path id="rect11305-7" d="M-1005.752,1301.027v98.882h27.267a14.881,14.881,0,0,1-.666-4.852,11.11,11.11,0,0,1-.316-5.277c-3.545-.724-6.406-4.548-5.238-8.149,1.256-3.73,4.877-5.976,6.624-9.4.97-3.4-.106-7.03.833-10.458a31.031,31.031,0,0,1,14.8-19.947,39.657,39.657,0,0,1,20.05-5.677,35.431,35.431,0,0,1,11.665,1.125c1.907.383,4.9.4,5.4-2,.158-2.052-1.552-3.708-1.469-5.785-.453-8.748,6.529-17.194,15.152-18.574,1.983-.158,3.869-.246,5.878-.248v-10.76h-99.983v1.118Zm96.551,17.691a8.791,8.791,0,0,0-8.712,8.181,10.213,10.213,0,0,0,2.287,7.814c1.1,1.854,3.616,3.475,2.952,5.912-.812,1.371-1.791,3.272-3.605,3.284-4.238-1.843-9.013-1.317-13.488-1.008-4.334.637-9.19,2.138-11.353,6.317-1.394,1.664-.741,1.66.94.819,2.258-1.017,4.609-2.13,7.17-1.8,7.583.638,14.287,5.56,22.049,5.106a12.593,12.593,0,0,0,5.192-1.148c-.068-2.99.133-6.046-.1-9a4.119,4.119,0,0,1,.1-4.6v-19.791c-1.144-.049-2.287-.131-3.432-.1Zm-38.483,29.219c-2.173.867-4.338,1.96-6.55,2.607-1.453-.872-2.49-2.279-3.915-3.2-2.406,2.164-4.678,4.464-6.959,6.758.983,1.435,2.571,2.368,3.412,3.891a14.522,14.522,0,0,1-2.314,4.938c-1.613.575-3.365.12-5.037.19v10.042c1.678.445,3.451.021,5.107.479a27.426,27.426,0,0,1,2.215,5.05c-1.482,1.426-3.071,3.732-1.671,5.747,1.515,1.95,3.471,3.495,5.107,5.339l3.91-3.85,5.144,2.178c.186,1.555.19,3.125.276,4.687,3.313.645,6.692.3,10.04.4.387-1.658-.352-3.509.4-5.054a18.479,18.479,0,0,1,5.074-2.079c1.315,1.04,2.329,2.41,3.7,3.391,2.314-2.294,4.625-4.591,6.8-7.022-.856-1.483-2.46-2.348-3.275-3.833a11.994,11.994,0,0,1,2.3-4.839c1.617-.645,3.413-.423,5.094-.8v-9.766h-5.536c-.578-1.7-1.771-3.34-1.782-5.149a3.767,3.767,0,0,0-2.152-5c-2.794-1.158-6.546-2.035-8.961.37a5.977,5.977,0,0,0-.8,6.738c1.581,2.162,4.113,4.194,3.694,7.182.04,2.216.192,4.621-1.322,6.443a9.863,9.863,0,0,1-8.9,4.459c-6.537.038-11.552-7.85-8.576-13.74a11.956,11.956,0,0,1,6.877-6.03c.034-3.731.106-7.462.182-11.193l-1.588.673Zm39.716,29.318c-1.256,5.908-5.08,10.7-7.934,15.872a11.281,11.281,0,0,0-1.2,6.782h11.327c-.032-7.522.065-15.059-.048-22.571-.369-.8-.429-3.963-1.175-1.889l-.975,1.806Z" transform="translate(1005.753 -1299.909)" fill="#54a191"/>
</svg>
