<svg xmlns="http://www.w3.org/2000/svg" width="100" height="100" viewBox="0 0 100 100">
  <path id="rect11436" d="M-1009.276,1495.693v98.767h52.127c-.359-2.3-.73-5.275,1.209-6.992,1.181-.943,2.742-.975,4.179-1.06-.458-3.121.267-5.91.367-9.046-1.085-3.2-1.1-6.609-1.626-9.915a16.359,16.359,0,0,1-6.036-9.4c-.859-3.522-.609-7.2-.4-10.754-1.044-1.893-3.232-2.9-4.261-4.855-1.8-2.557-1-5.96.9-8.208,3.078-3.53,6.213-7.019,9.358-10.5,2.666-2.959,6.1-5.7,10.271-5.787a9.941,9.941,0,0,1,7.266-10.784c6.565-2.176,14.118,3.81,13.506,10.686-.333,4.149-3.64,7.552-7.515,8.765a117.883,117.883,0,0,1,3.953,12.738,11.877,11.877,0,0,0,2.827,5.534c1.786,2.687,3.662,5.306,5.682,7.821,1.056,1.275,1.459,3.34-.072,4.444a6.889,6.889,0,0,1-8.779.524c-.848-.12-.595,1.955-1.054,2.783a13.987,13.987,0,0,1-8.812,9.315c-1.112,5.116-.807,10.366-1.762,15.33-.049,2.01,2.892,1.726,3.325.086.137-1.418,1.659-.82,2.69-.96,1.537-.038,2.724,0,4.276-.021a83.923,83.923,0,0,1,9.431,1.46c.106,2.242,1.052,4.439.523,6.559-.293,1.438-.458,2.765,1.434,2.231h7v-99.879h-100v1.117Zm74.82,17.209a3.671,3.671,0,0,0-2.177,5.661c1.61,2.778,6.366,3.159,7.85.072,1.362-3.027-1.879-6.293-4.936-5.912-.2.091-.879-.249-.737.179Zm-8.475,11.09c-3.1.032-5.176,2.643-6.695,5.024-1.615,1.739.954.156,1.853-.1.729.1,2.1-1.527,2.234-.92-.188,4.083-3.811,6.632-6.155,9.57-1.232,1.005,1.166,1.9,1.669,2.86,3.451,3.654,7.733,6.711,10.155,11.212,1.12,2.3.55,5.8-2.25,6.523-2.989,1.01-6.1-.441-8.185-2.588q-1.893-1.7-3.783-3.412c.64,3.345.756,7.152,3.07,9.857a8.561,8.561,0,0,0,3.68,1.949,61.2,61.2,0,0,0,.945,9.334c-.076,3.306-.668,6.672-.12,9.952.684.835.295,2.028,1.774,1.9,2.156-.131,2.118-2.846,2.213-4.457.142-4.526-.284-9.122.631-13.584a3.542,3.542,0,0,1,3.1-2.792c3.873-.928,6.062-4.892,6.339-8.63.622-5.973-1.285-11.83-3.313-17.359-.425-3.266,1.789-6.61.144-9.771a7.374,7.374,0,0,0-7.31-4.565Zm-14.564,13.232c-1.177.947-.836,2.491-.553,3.762.919-.608,2-1.093,2.225-2.26.1-.753,1.551-3.625.1-2.514l-1.775,1.011Zm32.756,32.081c1.574.1.568,2.157.893,3.2q.067,3.108.133,6.216c-.937-.4-2.873.826-2.7-.685-.333-2.936-.816-6.035-.969-8.855l2.641.121Zm10.467.865c1.481.531-.067,2.226-.046,3.318l-1.62,6.012c-.787-.651-2.995-.021-2.4-1.414.512-2.926.879-5.887,1.564-8.777l2.5.861Z" transform="translate(1009.276 -1494.577)" fill="#54a191"/>
</svg>
