<svg xmlns="http://www.w3.org/2000/svg" width="100" height="100" viewBox="0 0 100 100">
  <path id="rect11368" d="M-891.972,1301.026V1399.9c26.675-.032,53.351.065,80.026-.049-10.825-5.933-21.719-11.747-32.373-17.987-1.079-1.186-2.343.272-3.055,1.146-2.527,2.743-7.082,3.919-10.217,1.488-2.851-2-4.088-5.6-3.965-8.979,0-2.637-1.9-4.6-3.771-6.2-7.27-7.524-10.565-18.87-7.667-29.026,2.6-9.891,10.238-18.432,20.076-21.5a32.181,32.181,0,0,1,19.857.179c7.9,2.587,13.724,9.237,17.317,16.5,7.944,14.374,15.823,28.783,23.751,43.167q.057-39.365.017-78.729h-100v1.118Zm48.35,23.478c-6.49.1-13.16,2.5-17.414,7.566a27.306,27.306,0,0,0-6.139,13.251c-.118,1.356,1.6,1.8,2.577,2.388,3.076,1.136,6.258,3.009,7.761,6.172,1.759,3.3.9,7.16,1.118,10.733.129,3.019-.065,6.175.953,9.057.771,1.388,2.62.46,2.7-.908.755-3.651.694-7.408,1.089-11.109.315-2.648.148-5.483,1.2-7.964,2.095-2.589,5.827-2.44,8.85-2.563,2.632.083,5.567-.15,7.427-2.265a74,74,0,0,0,10.571-11.442c.654-1.731-1.089-3.124-1.949-4.447a29.894,29.894,0,0,0-9.757-7.233,22.263,22.263,0,0,0-8.984-1.237Zm23.746,21.2Q-833.2,1357.8-845.3,1371.154c-.7,1.626,1.269,2.687,2.357,3.516,3.238,1.734,6.46,4.578,10.383,4.074q14.93-2.057,29.666-5.281c-5.127-9.67-10.354-19.291-15.961-28.692l-1.019.928Zm19.068,35.058a237.768,237.768,0,0,0-24.13,3.944c4.879,2.763,9.762,5.532,14.74,8.11a7.287,7.287,0,0,0,5.3.663c3.886-.511,7.725-1.319,11.541-2.206a56.019,56.019,0,0,0-5.186-9.538,2.551,2.551,0,0,0-2.269-.974Z" transform="translate(891.972 -1299.909)" fill="#54a191"/>
</svg>
