<svg xmlns="http://www.w3.org/2000/svg" width="100" height="100" viewBox="0 0 100 100">
  <path id="rect11208" d="M-780.968,1109.9v98.882h49.745c-.351-2.42,1.183-4.5,1.586-6.819a28.936,28.936,0,0,0,.823-10.3,23.648,23.648,0,0,1-5.936-9.7c-.874-1.3-2.592-1.723-3.325-3.2-2.781-4.03-2.978-9.128-3.329-13.838a7.528,7.528,0,0,1,3.131-5.821c-1.27-5.686-2.757-11.683-1.367-17.483a11.939,11.939,0,0,1,6.028-7.737c4.556-6.39,12.21-9.9,19.875-10.663a45.647,45.647,0,0,1,14.828.679,25.192,25.192,0,0,1,15.657,10.434c.741.341,2.506,2.909,2.26,1.1v-26.654h-99.977v1.118Zm72.394,20.035c-6.53-.07-13.527,1.582-18.141,6.494-1.321,1.664-.2,3.88-.309,5.781.49,6.912-.586,13.631-1.818,20.441a10.63,10.63,0,0,1-1.766,5.592c-.536,1.269.844,2.208.816,3.487.823,4.469,1.255,9.316,4.252,12.977,2.927,3.776,6.9,6.563,10.715,9.361,3.313,1.95,7.886,2.4,11.08-.023a47.69,47.69,0,0,0,11.407-9.876c2.725-3.852,3.135-8.7,3.913-13.207.006-1.056,1.593-1.742,1.206-2.6-1.737-2.082-1.508-4.976-2.141-7.446-1.525-8.028-2.294-16.332-.859-24.43-4.593-5.111-11.8-6.715-18.355-6.547Zm-23.458,8.841c-2.385,1.481-2.675,4.646-3.035,7.183-.237,3.032-.606,6.147.028,9.151.728,1.228,1.43,1.342,2.1.021,1.121-5.157,1-10.581,2.6-15.656.938-2.58-.112-1.2-1.694-.69Zm46.053,6.923a22.5,22.5,0,0,0,.268,4.91,1.252,1.252,0,0,0,2.244-.747,10.749,10.749,0,0,0-1.486-6.75A17.166,17.166,0,0,0-685.979,1145.7Zm3.395,35.292c-1.461.391-1.239,2.3-1.882,3.429-.851,3.129-3.5,5.188-5.472,7.6.017,4.6.48,9.3,2.432,13.519.6.954.108,2.585.608,3.244h5.906v-28.538Zm-39.458,18.512a40.883,40.883,0,0,1-2.491,9.279h30.779a32.965,32.965,0,0,1-2.6-9.2c-.709-1.561-2.568-.662-3.391.3-4.023,3-9.494,3.3-14.234,2.172a23.093,23.093,0,0,1-7.763-4.332Z" transform="translate(780.968 -1108.782)" fill="#54a191"/>
</svg>
