<svg xmlns:dc="http://purl.org/dc/elements/1.1/" xmlns:cc="http://creativecommons.org/ns#" xmlns:rdf="http://www.w3.org/1999/02/22-rdf-syntax-ns#" xmlns:svg="http://www.w3.org/2000/svg" xmlns="http://www.w3.org/2000/svg" xmlns:xlink="http://www.w3.org/1999/xlink" xmlns:sodipodi="http://sodipodi.sourceforge.net/DTD/sodipodi-0.dtd" xmlns:inkscape="http://www.inkscape.org/namespaces/inkscape" width="548.09998mm" height="125.8327mm" viewBox="0 0 548.09998 125.8327" version="1.1" id="svg17178" inkscape:version="1.0.2 (e86c870879, 2021-01-15, custom)" sodipodi:docname="multipage-export-h_wkhlm1.svg">
  <defs id="defs17172">
    <linearGradient inkscape:collect="always" xlink:href="#linearGradient22308" id="linearGradient22239" x1="-1781.0259" y1="-351.40204" x2="-1384.6058" y2="-351.40204" gradientUnits="userSpaceOnUse"/>
    <linearGradient inkscape:collect="always" id="linearGradient22308">
      <stop style="stop-color:#dde9de;stop-opacity:1" offset="0" id="stop22304"/>
      <stop style="stop-color:#dde9de;stop-opacity:1" offset="1" id="stop22306"/>
    </linearGradient>
    <clipPath clipPathUnits="userSpaceOnUse" id="clipPath21386">
      <rect style="opacity:1;fill:#d1ebdc;fill-opacity:0.933333;stroke-width:0" id="rect21388" width="396.42004" height="97.073524" x="1384.6058" y="-399.93881" transform="scale(-1,1)"/>
    </clipPath>
    <linearGradient inkscape:collect="always" xlink:href="#linearGradient22237" id="linearGradient113742" gradientUnits="userSpaceOnUse" x1="-1781.0259" y1="-351.40204" x2="-1384.6058" y2="-351.40204"/>
    <linearGradient inkscape:collect="always" id="linearGradient22237">
      <stop style="stop-color:#a4c7ac;stop-opacity:1" offset="0" id="stop22233"/>
      <stop style="stop-color:#c8dfd2;stop-opacity:1" offset="1" id="stop22235"/>
    </linearGradient>
    <linearGradient inkscape:collect="always" xlink:href="#linearGradient22237" id="linearGradient113740" gradientUnits="userSpaceOnUse" x1="-1781.0259" y1="-351.40204" x2="-1384.6058" y2="-351.40204" gradientTransform="translate(4.5328764e-5,6.0111329)"/>
    <linearGradient inkscape:collect="always" xlink:href="#linearGradient22237" id="linearGradient21290" gradientUnits="userSpaceOnUse" x1="-1781.0259" y1="-351.40204" x2="-1384.6058" y2="-351.40204"/>
    <linearGradient inkscape:collect="always" xlink:href="#linearGradient22237" id="linearGradient21292" gradientUnits="userSpaceOnUse" x1="-1781.0259" y1="-351.40204" x2="-1384.6058" y2="-351.40204"/>
  </defs>
  <sodipodi:namedview id="base" pagecolor="#ffffff" bordercolor="#666666" borderopacity="1.0" inkscape:pageopacity="0.0" inkscape:pageshadow="2" inkscape:zoom="0.24812419" inkscape:cx="913.96537" inkscape:cy="-239.884" inkscape:document-units="mm" inkscape:current-layer="layer1" inkscape:document-rotation="0" showgrid="false" inkscape:window-width="1113" inkscape:window-height="1001" inkscape:window-x="-9" inkscape:window-y="-9" inkscape:window-maximized="0"/>
  <metadata id="metadata17175">
    <rdf:RDF>
      <cc:Work rdf:about="">
        <dc:format>image/svg+xml</dc:format>
        <dc:type rdf:resource="http://purl.org/dc/dcmitype/StillImage"/>
        <dc:title/>
      </cc:Work>
    </rdf:RDF>
  </metadata>
  <g inkscape:label="Layer 1" inkscape:groupmode="layer" id="layer1" transform="translate(27.211859,359.92487)">
    <g id="graphics" transform="matrix(-1.382847,0,0,1.382847,-1941.9982,184.72418)" style="display:inline;opacity:0.247549;mix-blend-mode:normal;fill:url(#linearGradient22239);fill-opacity:1" clip-path="url(#clipPath21386)" inkscape:export-filename="C:\work\misc work\Aaranya\website\drawings\website exports for dev\other pages update\assets other pages\book a demo\book a demo.png" inkscape:export-xdpi="58.939999" inkscape:export-ydpi="58.939999">
      <path style="fill:url(#linearGradient21290);fill-opacity:1;stroke-width:0.264583" d="m -1679.1451,-214.29354 c -0.1404,-0.3694 -0.3954,-1.19246 -0.5667,-1.82902 -0.4408,-1.63858 -0.9182,-2.48496 -2.608,-4.62362 -0.8164,-1.03332 -1.6034,-2.08369 -1.7489,-2.33416 -0.2197,-0.37816 -0.391,-0.40729 -1.0095,-0.17177 -0.4096,0.156 -1.7569,0.28363 -2.994,0.28363 -2.1375,0 -2.367,0.0591 -4.6238,1.19063 -1.3061,0.65484 -2.4299,1.19062 -2.4974,1.19062 -0.068,0 -0.045,-1.18678 0.05,-2.63728 0.1403,-2.14093 0.089,-2.8574 -0.2738,-3.80686 -0.2457,-0.64327 -0.6008,-1.92547 -0.7893,-2.84934 l -0.3426,-1.67976 -1.0785,-0.18411 c -0.5932,-0.10127 -1.8849,-0.50672 -2.8705,-0.90102 -1.6871,-0.67493 -1.9593,-0.70733 -4.6503,-0.55337 l -2.8583,0.16354 1.2053,-2.35461 c 1.0648,-2.08018 1.233,-2.64862 1.4439,-4.87711 0.1312,-1.38737 0.3108,-2.81004 0.399,-3.16149 0.1293,-0.51527 0.041,-0.66905 -0.4551,-0.79423 -0.3386,-0.0854 -1.4837,-0.94821 -2.5449,-1.91738 -1.6873,-1.54112 -2.2102,-1.8525 -4.1694,-2.48254 -1.2321,-0.39622 -2.303,-0.78322 -2.3798,-0.86 -0.077,-0.0768 0.6088,-0.78021 1.5236,-1.56317 2.0872,-1.78639 2.1644,-1.87955 3.1543,-3.80481 0.449,-0.87313 1.1109,-1.97974 1.471,-2.45915 l 0.6547,-0.87166 -0.6305,-0.84814 c -0.3468,-0.46647 -0.9667,-1.62204 -1.3775,-2.56793 -0.8075,-1.85899 -1.6957,-2.93644 -3.6592,-4.43881 -0.6913,-0.52888 -1.2568,-1.04628 -1.2568,-1.14978 0,-0.10351 0.8632,-0.45221 1.9182,-0.77488 2.4887,-0.76116 3.105,-1.08673 4.6427,-2.45239 0.7012,-0.62276 1.7152,-1.40443 2.2534,-1.73706 0.604,-0.37327 0.9046,-0.72272 0.7854,-0.9129 -0.1062,-0.16947 -0.2599,-1.55829 -0.3415,-3.08626 -0.1392,-2.60573 -0.2176,-2.91332 -1.2637,-4.95683 -0.6135,-1.19829 -1.1154,-2.28008 -1.1154,-2.40398 0,-0.1239 1.2346,-0.17037 2.7434,-0.10326 2.3,0.10229 3.0163,0.032 4.4318,-0.43512 0.9286,-0.30643 2.1622,-0.65358 2.7412,-0.77145 0.9775,-0.19896 1.0662,-0.29235 1.239,-1.30459 0.1024,-0.59966 0.508,-1.89492 0.9015,-2.87835 0.6726,-1.68143 0.7048,-1.95108 0.5386,-4.52141 -0.097,-1.50334 -0.1228,-2.73334 -0.057,-2.73334 0.066,0 1.1441,0.53578 2.396,1.19062 1.7186,0.89897 2.5825,1.19536 3.5265,1.20994 1.437,0.0222 3.6919,0.34657 4.3353,0.62361 0.3174,0.13672 0.4927,0.0201 0.6328,-0.42115 0.1065,-0.33563 0.8762,-1.32651 1.7104,-2.20194 1.732,-1.81766 2.2335,-2.69541 3.0259,-5.29587 0.3103,-1.01865 0.6575,-1.82988 0.7714,-1.80274 0.114,0.0271 0.8874,0.86058 1.7187,1.85209 1.1803,1.40773 1.973,2.05008 3.618,2.93163 1.1586,0.62089 2.421,1.35899 2.8053,1.64022 0.6908,0.50552 0.704,0.50549 1.1636,-0.002 0.2557,-0.28252 1.361,-0.93904 2.4563,-1.45893 2.4296,-1.15324 2.8751,-1.49501 4.4185,-3.38966 0.6676,-0.81955 1.3087,-1.49009 1.4248,-1.49009 0.116,0 0.5559,1.03995 0.9776,2.311 0.5877,1.77144 1.0788,2.68259 2.1035,3.9026 0.7353,0.87539 1.6108,2.04241 1.9457,2.59338 0.5048,0.83043 0.6755,0.94653 0.9981,0.67882 0.2205,-0.183 1.6129,-0.39181 3.2136,-0.4819 2.6586,-0.14962 2.9544,-0.22546 5.0347,-1.29086 1.2157,-0.62254 2.2464,-1.0946 2.2905,-1.04903 0.044,0.0456 -0.034,1.15443 -0.1728,2.46412 -0.2415,2.27274 -0.2163,2.50029 0.5538,4.99348 0.4438,1.43672 0.8069,2.82049 0.8069,3.07504 0,0.33711 0.2942,0.50985 1.0832,0.63601 0.5957,0.0953 1.8161,0.48239 2.7119,0.86027 1.5146,0.63888 1.8376,0.67794 4.6054,0.55699 1.6371,-0.0715 2.9766,-0.0956 2.9766,-0.0534 0,0.0421 -0.5358,1.1009 -1.1906,2.3528 -0.862,1.64794 -1.1911,2.58475 -1.1922,3.39418 0,1.09752 -0.3513,3.48296 -0.6729,4.58955 -0.1266,0.43545 -0.025,0.59765 0.4541,0.72419 0.3395,0.0897 1.5432,0.98501 2.6749,1.98962 1.8153,1.61129 2.3241,1.90959 4.3169,2.53093 1.2425,0.3874 2.2216,0.80049 2.1756,0.91799 -0.046,0.1175 -0.8911,0.89592 -1.8782,1.72983 -1.3496,1.14011 -2.016,1.95322 -2.6867,3.27812 -0.4906,0.96907 -1.1886,2.19536 -1.5511,2.7251 -0.5818,0.85032 -0.6132,1.00904 -0.2675,1.35471 0.2153,0.21536 0.947,1.50736 1.626,2.87113 1.0421,2.09328 1.5023,2.70467 2.9542,3.92453 0.9459,0.79473 1.7198,1.55563 1.7198,1.69088 0,0.13525 -0.839,0.51065 -1.8645,0.83423 -2.3811,0.75134 -2.7313,0.946 -4.993,2.77568 -1.0306,0.83372 -2.0709,1.58467 -2.3118,1.66879 -0.3913,0.13665 -0.3996,0.26061 -0.078,1.16305 0.1981,0.55555 0.3654,1.98944 0.3718,3.18643 0.011,2.05541 0.078,2.30281 1.2023,4.45251 0.6548,1.25189 1.1906,2.32524 1.1906,2.38521 0,0.06 -1.2289,0.0338 -2.7308,-0.0581 -2.3767,-0.14542 -2.9538,-0.0929 -4.45,0.405 -0.9455,0.31465 -2.2412,0.66122 -2.8794,0.77016 -1.1184,0.19094 -1.1639,0.23596 -1.2627,1.24962 -0.056,0.57835 -0.3785,1.73085 -0.7158,2.56112 -0.8944,2.20105 -0.969,2.76722 -0.6914,5.24787 0.1379,1.23274 0.2027,2.28936 0.144,2.34805 -0.059,0.0587 -1.2097,-0.43341 -2.5577,-1.09355 -2.1239,-1.04007 -2.7512,-1.22242 -4.7,-1.36634 -1.2369,-0.0913 -2.5529,-0.2337 -2.9245,-0.31635 -0.5339,-0.11873 -0.7357,-0.0184 -0.9621,0.47843 -0.1575,0.34577 -1.046,1.45651 -1.9742,2.4683 -1.5048,1.64014 -1.7723,2.10497 -2.4673,4.287 -0.4286,1.34607 -0.8596,2.4474 -0.9577,2.4474 -0.098,0 -0.3909,-0.32448 -0.6508,-0.72107 -1.1075,-1.69028 -2.9458,-3.31581 -4.8991,-4.33201 -1.1239,-0.58473 -2.2479,-1.289 -2.4977,-1.56504 -0.4436,-0.49017 -0.4767,-0.48405 -1.4161,0.26167 -0.5291,0.41997 -1.7851,1.09862 -2.7912,1.50811 -1.5647,0.63683 -2.0575,1.01265 -3.4069,2.598 -0.8677,1.01941 -1.6772,1.96215 -1.7989,2.09499 -0.1268,0.13834 -0.3304,-0.0454 -0.4767,-0.43013 z m 2.0407,-5.8401 c 0.1553,-0.18709 1.2251,-0.7387 2.3774,-1.22581 2.1455,-0.90696 2.9614,-1.70773 2.9614,-2.90662 0,-0.41796 -0.1661,-0.55449 -0.6747,-0.55449 -0.6541,0 -0.6722,-0.0463 -0.5953,-1.52135 l 0.079,-1.52136 2.9546,-0.0447 2.9547,-0.0447 0.1773,1.28928 c 0.2097,1.52456 0.065,1.84283 -0.8393,1.84283 -0.6035,0 -0.6554,0.0766 -0.4929,0.7276 0.268,1.07383 0.8595,1.60857 2.9185,2.63826 1.0186,0.50943 2.0694,1.11815 2.335,1.35272 0.4526,0.39975 0.543,0.35412 1.4418,-0.72797 0.5274,-0.63495 1.3655,-1.58423 1.8623,-2.10951 1.1064,-1.16974 1.4072,-1.90503 1.2011,-2.93593 -0.138,-0.68985 -0.261,-0.78249 -0.9661,-0.72772 -0.7429,0.0577 -0.8451,-0.0396 -1.2703,-1.21007 -0.4308,-1.18573 -0.4321,-1.28392 -0.02,-1.435 0.2436,-0.0892 1.2763,-0.51003 2.2949,-0.93518 2.8848,-1.20398 2.8798,-1.20414 3.5165,0.11413 l 0.5543,1.14763 -0.6635,0.55281 -0.6635,0.55281 0.914,0.80252 c 0.8184,0.71857 1.1593,0.82206 3.2584,0.9892 1.2893,0.10266 2.5955,0.24564 2.9027,0.31772 0.4744,0.11136 0.5841,-0.021 0.73,-0.88054 0.094,-0.55638 0.4676,-1.72598 0.8294,-2.59911 0.7834,-1.89041 0.8179,-2.69009 0.1534,-3.5546 -0.4762,-0.61951 -0.5209,-0.62732 -1.1669,-0.20401 -0.6614,0.43335 -0.6844,0.42428 -1.4834,-0.58451 -0.4464,-0.56358 -0.8116,-1.11272 -0.8116,-1.2203 0,-0.2754 3.8364,-4.09387 4.1131,-4.09387 0.3588,0 1.9723,1.65506 1.9723,2.02313 0,0.18251 -0.1953,0.44113 -0.434,0.57472 -0.59,0.33019 -0.2759,0.74105 0.851,1.11293 0.8094,0.26713 1.2371,0.21813 3.1051,-0.35574 1.1916,-0.36605 2.5047,-0.73989 2.9182,-0.83075 0.5803,-0.12754 0.7086,-0.26822 0.563,-0.61714 -0.1038,-0.24856 -0.2634,-1.60503 -0.3548,-3.01437 -0.1536,-2.36877 -0.2252,-2.62401 -0.9469,-3.37726 l -0.7808,-0.81483 -0.5447,0.68314 -0.5447,0.68313 -1.2816,-0.54937 c -0.793,-0.3399 -1.2279,-0.67457 -1.1408,-0.87775 0.077,-0.18061 0.5814,-1.39994 1.1198,-2.70963 0.5384,-1.30969 1.0154,-2.42315 1.06,-2.47435 0.095,-0.10866 2.7613,0.75168 2.7613,0.89089 0,0.0516 -0.1116,0.38728 -0.248,0.74597 -0.209,0.54967 -0.1612,0.67486 0.3039,0.7965 1.0605,0.27732 2.0299,-0.16072 4.023,-1.81781 1.1045,-0.91824 2.1566,-1.72146 2.338,-1.78494 0.2426,-0.0849 0.2103,-0.25043 -0.1218,-0.62546 -0.2485,-0.28053 -0.8675,-1.4223 -1.3756,-2.53726 -0.8936,-1.96093 -1.4809,-2.59855 -2.7396,-2.97431 -0.5132,-0.15321 -0.6216,-0.0614 -0.7632,0.6465 -0.1617,0.80834 -0.1925,0.82348 -1.5185,0.74634 l -1.3535,-0.0787 -0.074,-2.94182 -0.075,-2.94182 0.8351,-0.16703 c 1.4662,-0.29324 2.0916,-0.20492 2.096,0.29599 0.01,0.98511 0.3759,1.19392 1.3697,0.77869 0.7651,-0.31967 1.1318,-0.7924 2.1615,-2.7861 0.6821,-1.32061 1.3563,-2.4729 1.4983,-2.56064 0.4212,-0.26034 0.2957,-0.60989 -0.2852,-0.79427 -0.2989,-0.0949 -1.2811,-0.86053 -2.1828,-1.7015 -1.7988,-1.67765 -2.4519,-1.99099 -3.6164,-1.73522 -0.7006,0.15388 -0.7503,0.23349 -0.5213,0.83567 0.3362,0.88423 0.2075,1.03142 -1.215,1.38961 -1.2992,0.32713 -1.7107,0.22838 -1.7107,-0.41046 0,-0.22249 -0.4168,-1.35233 -0.9261,-2.51074 -0.5093,-1.15841 -0.926,-2.15439 -0.926,-2.21329 0,-0.0589 0.5631,-0.35618 1.2513,-0.66061 l 1.2513,-0.55351 0.4998,0.6861 c 0.4832,0.66336 0.5171,0.67043 1.0221,0.21336 0.8348,-0.75548 0.9877,-1.22394 1.2616,-3.86454 0.1422,-1.37162 0.3278,-2.67437 0.4125,-2.895 0.1145,-0.29849 -0.1002,-0.44882 -0.8391,-0.58744 -0.5462,-0.10246 -1.7491,-0.48898 -2.6732,-0.85892 -1.8108,-0.7249 -3.2537,-0.71148 -4.0024,0.0372 -0.3536,0.35362 -0.3432,0.45748 0.094,0.94072 0.483,0.53368 0.4759,0.55938 -0.4003,1.46345 -0.4906,0.50612 -1.0202,0.92023 -1.177,0.92023 -0.1568,0 -1.1972,-0.92274 -2.3122,-2.05052 l -2.0271,-2.05052 0.8891,-1.04748 c 0.8559,-1.0084 0.9155,-1.03334 1.5969,-0.66866 0.6419,0.34354 0.7423,0.33166 1.0781,-0.12757 0.5341,-0.73042 0.459,-1.83914 -0.2872,-4.24171 -0.3616,-1.16417 -0.6593,-2.33305 -0.6614,-2.59752 0,-0.33013 -0.1491,-0.44023 -0.467,-0.35127 -0.2547,0.0713 -1.6458,0.21111 -3.0914,0.31075 -2.4113,0.16621 -2.69,0.24274 -3.3735,0.92624 -0.7991,0.79916 -0.9565,1.31492 -0.4011,1.31492 0.7588,0 0.968,0.57238 0.5634,1.54089 -0.6884,1.6475 -0.7834,1.68364 -2.4504,0.93268 -0.8248,-0.37158 -2.0175,-0.85724 -2.6504,-1.07925 -1.2429,-0.43597 -1.2979,-0.67384 -0.587,-2.53953 0.251,-0.65847 0.3804,-0.72743 1.0776,-0.57429 0.7757,0.17036 0.7925,0.15195 0.7925,-0.86941 0,-0.7984 -0.2192,-1.31596 -0.9334,-2.20383 -0.5134,-0.63821 -1.358,-1.72593 -1.8769,-2.41715 -0.9738,-1.29711 -1.2596,-1.47071 -1.5767,-0.95773 -0.1016,0.16448 -1.1862,0.76833 -2.4102,1.34189 -1.7909,0.83928 -2.3075,1.21521 -2.6464,1.92587 -0.4527,0.94936 -0.2993,1.86508 0.2755,1.6445 0.7607,-0.2919 1.0307,0.23506 0.8381,1.63543 l -0.1864,1.35535 h -3.0311 -3.031 l 0.079,-1.52135 c 0.069,-1.31852 0.1499,-1.52136 0.6085,-1.52136 0.7473,0 0.8074,-0.93375 0.1166,-1.81195 -0.3126,-0.39743 -1.4192,-1.14781 -2.4591,-1.66752 -1.04,-0.5197 -2.1089,-1.13758 -2.3755,-1.37305 -0.4493,-0.39684 -0.5059,-0.39027 -0.7747,0.0899 -0.1594,0.28494 -1.0494,1.32671 -1.9776,2.31504 -1.5884,1.6913 -1.6829,1.86278 -1.6066,2.91601 0.077,1.06813 0.1177,1.11632 0.8863,1.05931 0.7328,-0.0544 0.8456,0.0493 1.2547,1.15308 0.2472,0.66706 0.3939,1.30272 0.326,1.4126 -0.068,0.10988 -1.1087,0.58792 -2.313,1.06231 -1.2043,0.4744 -2.3027,0.96694 -2.4409,1.09454 -0.4516,0.41679 -0.6565,0.25031 -1.3315,-1.08172 l -0.6657,-1.31372 0.5951,-0.30962 c 0.3273,-0.17029 0.6345,-0.34283 0.6827,-0.38342 0.2001,-0.1686 -0.5385,-1.18775 -1.0651,-1.46955 -0.589,-0.31522 -6.0143,-1.03384 -6.3647,-0.84305 -0.1091,0.0594 -0.1984,0.38969 -0.1984,0.73391 0,0.34421 -0.3641,1.53501 -0.809,2.64621 -0.7121,1.77821 -0.7732,2.12899 -0.5099,2.92672 0.3792,1.14897 0.6784,1.32731 1.4942,0.89068 0.6073,-0.32501 0.7191,-0.2812 1.5623,0.61259 0.4995,0.52945 0.9082,1.009 0.9082,1.06565 0,0.0567 -0.9198,1.02285 -2.0441,2.14709 -2.2391,2.2391 -2.4165,2.27588 -3.812,0.79043 -0.5446,-0.57976 -0.5534,-0.64883 -0.1405,-1.10504 0.6146,-0.67914 0.5637,-0.8173 -0.4584,-1.24434 -0.7825,-0.32696 -1.0818,-0.32362 -2.3151,0.0259 -0.779,0.22075 -2.0791,0.58355 -2.8892,0.80622 l -1.4729,0.40486 0.094,2.29476 c 0.1398,3.4117 0.2626,3.90397 1.1632,4.66183 0.8131,0.68416 1.2916,0.68942 1.2916,0.0142 0,-0.64273 0.45,-0.67656 1.7258,-0.1297 1.4129,0.60562 1.4108,0.34725 0.029,3.70157 -0.8371,2.03211 -0.9914,2.24423 -1.5997,2.19991 -0.8513,-0.062 -2.1543,-0.7014 -2.093,-1.02694 0.026,-0.13581 0.1277,-0.45529 0.2268,-0.70995 0.1556,-0.39992 0.015,-0.46302 -1.0352,-0.46302 -1.085,0 -1.3947,0.1521 -2.8874,1.41844 -0.9196,0.78014 -1.9333,1.55824 -2.2525,1.7291 -0.659,0.35265 -0.7487,0.88137 -0.2237,1.31714 0.1963,0.16288 0.6899,1.10019 1.097,2.08292 0.8801,2.12472 1.5732,2.91754 2.6472,3.02803 0.6976,0.0718 0.8041,-0.009 0.8793,-0.66427 0.083,-0.72053 0.1296,-0.74262 1.3799,-0.64855 0.7119,0.0536 1.3771,0.18007 1.4782,0.28115 0.1431,0.1431 0.2313,4.35555 0.1203,5.74354 -0.012,0.14552 -0.6681,0.26458 -1.4588,0.26458 -1.3717,0 -1.4415,-0.0334 -1.5214,-0.7276 -0.064,-0.55766 -0.2073,-0.70864 -0.6129,-0.64639 -0.9995,0.15339 -1.8078,1.0032 -2.8277,2.97289 -0.5619,1.08514 -1.1676,2.19362 -1.3459,2.4633 -0.2719,0.41104 -0.2411,0.53939 0.1899,0.79375 0.2828,0.16689 1.3198,1.04757 2.3046,1.95708 1.3558,1.25219 1.9805,1.65364 2.5731,1.65364 1.2962,0 1.6221,-0.22335 1.3542,-0.92806 -0.1587,-0.41742 -0.1323,-0.69991 0.081,-0.86905 0.4894,-0.38767 2.3159,-0.92174 2.5051,-0.73251 0.1664,0.1664 1.8096,4.07366 2.0935,4.97812 0.1119,0.3564 -0.1476,0.59384 -1.1178,1.02303 l -1.2635,0.55891 -0.4895,-0.62616 -0.4895,-0.62615 -0.7574,0.82569 c -0.6501,0.70869 -0.7831,1.12111 -0.9388,2.91042 -0.1,1.1466 -0.2465,2.46633 -0.3261,2.93274 -0.1307,0.76601 -0.072,0.86335 0.6101,1.00648 0.4152,0.0872 1.5013,0.44967 2.4137,0.80562 1.9932,0.77757 3.2271,0.82106 4.0642,0.14324 l 0.6223,-0.50392 -0.5264,-0.58167 -0.5264,-0.58167 1.0579,-0.89484 c 0.5818,-0.49217 1.1769,-0.88153 1.3225,-0.86526 0.1455,0.0163 1.1506,0.96834 2.2336,2.11571 l 1.969,2.08613 -1.0266,1.05132 c -0.9224,0.94464 -1.0707,1.01146 -1.4607,0.65848 -0.691,-0.62535 -1.0103,-0.46732 -1.3506,0.66839 -0.2835,0.94625 -0.2416,1.28659 0.3863,3.14093 0.3873,1.14383 0.7042,2.37133 0.7042,2.72779 0,0.64561 0.01,0.64773 2.3151,0.553 3.3681,-0.13835 3.8589,-0.25864 4.7161,-1.15584 l 0.774,-0.81004 -0.708,-0.51739 -0.7081,-0.51738 0.5758,-1.18199 c 0.6456,-1.32559 0.9484,-1.40869 2.4127,-0.66218 0.5625,0.28681 1.5983,0.71263 2.3018,0.94627 0.7034,0.23364 1.3389,0.52189 1.4123,0.64055 0.073,0.11866 -0.072,0.76838 -0.3219,1.44382 -0.4166,1.1241 -0.5228,1.22173 -1.2547,1.15309 -0.6944,-0.0651 -0.8103,0.0189 -0.882,0.63953 -0.045,0.39298 0.063,0.9883 0.2398,1.32291 0.4246,0.80153 3.4996,4.69752 3.7129,4.70422 0.091,0.003 0.2931,-0.14785 0.4483,-0.33494 z m 2.4541,-11.70096 c -1.1775,-0.21491 -2.1378,-0.54942 -2.408,-0.83889 -0.8724,-0.93449 -18.8692,-32.50354 -18.8344,-33.03829 0.053,-0.82192 1.4684,-4.1481 1.7677,-4.1554 0.1444,-0.004 3.6866,5.93357 7.8715,13.19354 4.185,7.25998 9.1082,15.78324 10.9404,18.9406 1.8322,3.15736 3.3267,5.83626 3.3211,5.95313 -0.016,0.33831 -0.5669,0.32698 -2.6583,-0.0547 z m 6.6356,0.0574 c 0.1611,-0.64393 21.9692,-38.28715 22.1812,-38.28715 0.1164,0 0.5804,1.01921 1.0311,2.26491 0.6714,1.85532 0.7653,2.36969 0.5197,2.84427 -0.1649,0.31865 -4.4572,7.80108 -9.5384,16.62763 l -9.2385,16.04826 -2.3025,0.42259 c -2.772,0.50876 -2.7599,0.5084 -2.6526,0.0795 z m -17.3025,-4.42173 c -4.0118,-2.67174 -7.9666,-7.63368 -9.7312,-12.20939 -1.0445,-2.70856 -1.8526,-6.44087 -1.8526,-8.55635 0,-1.80652 0.2441,-2.16169 0.7391,-1.07525 0.2598,0.57015 11.4601,20.07699 12.8071,22.30526 0.2859,0.47294 0.4087,0.85989 0.2729,0.85989 -0.1358,0 -1.1417,-0.59587 -2.2353,-1.32416 z m 28.4564,0.94702 c 0.08,-0.20743 1.4807,-2.67798 3.1136,-5.4901 1.6329,-2.81213 4.6464,-8.0221 6.6966,-11.5777 l 3.7277,-6.46474 0.086,1.56995 c 0.4182,7.59143 -4.8394,16.81997 -12.3178,21.62142 -1.269,0.81476 -1.5128,0.87841 -1.3066,0.34117 z m -15.7647,-3.97508 c -1.2733,-2.2376 -2.3151,-4.21054 -2.3151,-4.3843 0,-0.19729 0.1739,-0.24417 0.463,-0.12483 1.8008,0.74321 5.7077,0.88174 8.0118,0.28409 0.7955,-0.20635 1.4825,-0.33901 1.5267,-0.29479 0.1653,0.16525 -4.8447,8.60707 -5.1025,8.59783 -0.1478,-0.005 -1.3106,-1.84041 -2.5839,-4.078 z m -0.463,-7.83691 c -2.5233,-0.72984 -5.1331,-2.59666 -6.4918,-4.64363 -1.8628,-2.8065 -2.4963,-5.78201 -1.8701,-8.78494 0.5622,-2.69673 1.3462,-4.13937 3.3388,-6.14408 1.9864,-1.99852 4.1492,-3.03383 6.9203,-3.31272 9.0382,-0.90965 15.6044,8.4507 11.7136,16.69823 -1.015,2.15166 -3.3172,4.40988 -5.571,5.46456 -1.5614,0.73066 -2.101,0.84123 -4.4454,0.91101 -1.4676,0.0437 -3.0851,-0.0411 -3.5944,-0.18843 z m 6.6439,-3.92678 c 2.9696,-1.52734 4.5901,-4.15472 4.5838,-7.43201 0,-1.74427 -0.1118,-2.18591 -0.8966,-3.65007 -0.935,-1.74455 -1.9904,-2.74979 -3.9811,-3.79202 -1.763,-0.92296 -4.8933,-0.87779 -6.7754,0.0977 -1.7086,0.88568 -3.634,3.01114 -4.1805,4.61489 -0.4858,1.42585 -0.5448,3.59333 -0.1411,5.19198 0.5592,2.21495 2.7228,4.45198 5.1975,5.37382 1.4994,0.55857 4.7315,0.34756 6.1934,-0.40434 z m -21.3627,-14.5746 c -1.3285,-2.31543 -2.3505,-4.27495 -2.271,-4.35448 0.1672,-0.16712 9.846,-0.20042 9.846,-0.0339 0,0.0609 -0.4465,0.60289 -0.9922,1.20442 -1.4387,1.58588 -2.8498,4.00888 -3.3953,5.82998 -0.2613,0.87237 -0.5419,1.58111 -0.6235,1.57498 -0.082,-0.006 -1.2354,-1.90559 -2.564,-4.22103 z m 32.7203,3.59658 c -0.151,-0.39697 -0.2745,-0.86284 -0.2747,-1.03527 -5e-4,-0.70939 -1.6181,-3.59716 -2.8812,-5.14349 -0.7435,-0.91023 -1.3519,-1.71391 -1.3519,-1.78593 0,-0.072 2.2027,-0.13096 4.8948,-0.13096 2.6921,0 4.8948,0.0627 4.8948,0.13944 0,0.179 -4.5096,8.11567 -4.7936,8.43646 -0.1195,0.13499 -0.3349,-0.0768 -0.4882,-0.48025 z m -37.3161,-11.39265 c 0,-0.2018 2.3993,-3.15031 2.9687,-3.64831 0.4936,-0.43168 1.8044,-0.46303 19.3628,-0.46303 h 18.8333 l 1.0723,1.12448 c 1.0633,1.115 2.2129,2.64819 2.2129,2.95126 0,0.0867 -10.0013,0.1576 -22.225,0.1576 -12.2238,0 -22.225,-0.0549 -22.225,-0.122 z m 8.6122,-8.0637 c 0.5037,-0.4974 4.0025,-2.07481 5.8076,-2.61828 4.96,-1.4934 11.0564,-1.49717 15.7427,-0.01 2.1499,0.68239 5.8208,2.35571 5.8208,2.65336 0,0.12257 -6.215,0.22286 -13.8112,0.22286 -8.602,0 -13.7165,-0.0936 -13.5599,-0.2482 z" id="path21954"/>
      <path id="path21952" style="fill:url(#linearGradient113740);fill-opacity:1;stroke-width:0.709815" d="m -1403.127,-393.86017 c -1.8951,2.67813 -2.3885,4.46618 -2.8755,9.13563 -0.1843,1.76811 -0.5608,3.85449 -0.8367,4.63612 l -0.5015,1.42113 2.1317,0.96676 c 1.1725,0.53165 2.215,1.18273 2.3163,1.44688 0.2838,0.73965 -0.6343,1.78747 -1.7641,2.01341 -0.5592,0.11182 -1.3843,0.44414 -1.8336,0.7385 -0.7961,0.52162 -0.8041,0.57077 -0.323,1.93441 0.2715,0.76957 0.6576,2.98557 0.8581,4.92418 0.4318,4.1767 1.4737,7.21826 3.2089,9.36784 0.6821,0.84476 1.3379,1.61126 1.4577,1.70351 0.417,0.3213 0.6263,1.51262 0.3444,1.96148 -0.3139,0.49948 -0.6002,0.51114 -4.7627,0.1929 -3.2305,-0.24696 -5.2256,0.1773 -8.9929,1.91303 -1.181,0.54413 -3.0492,1.24041 -4.1512,1.54683 l -2.0038,0.55691 0.203,2.17141 c 0.3137,3.3594 -0.6238,3.91823 -3.1736,1.8912 -1.7442,-1.38642 -2.0674,-1.43177 -2.7528,-0.38582 -0.2852,0.43528 -1.6988,1.66579 -3.1412,2.73444 -4.9419,3.66131 -6.6534,5.6572 -7.8611,9.16748 -0.8678,2.52208 -1.8499,3.10623 -2.7663,1.64548 h -5e-4 c -0.2603,-0.41507 -0.6493,-1.30996 -0.8642,-1.98852 -0.84,-2.65134 -2.8901,-5.19795 -6.1275,-7.61151 -1.7136,-1.27762 -3.636,-2.86656 -4.2717,-3.531 -0.6358,-0.66442 -1.2993,-1.20812 -1.4748,-1.20812 -0.1753,0 -0.9635,0.52844 -1.7515,1.17409 -0.7879,0.64569 -1.7414,1.17408 -2.1191,1.17408 -1.0297,0 -1.4791,-1.10184 -1.0619,-2.60438 0.6232,-2.2441 0.4939,-2.66177 -0.9056,-2.91733 -0.6918,-0.12626 -2.6166,-0.80507 -4.2769,-1.50842 -1.6604,-0.70332 -3.7408,-1.52231 -4.6235,-1.82004 -1.8022,-0.60789 -5.3671,-0.69622 -7.5727,-0.1877 -2.5407,0.58583 -3.2111,-0.92485 -1.3482,-3.03733 2.4744,-2.80586 3.536,-5.50909 4.0133,-10.22025 0.1875,-1.85017 0.5519,-4.08224 0.8101,-4.96041 0.4507,-1.53316 0.4398,-1.61532 -0.2685,-2.05924 -0.4058,-0.25425 -1.3036,-0.64177 -1.9955,-0.86114 -0.8661,-0.27459 -1.3197,-0.64576 -1.4569,-1.19198 -0.276,-1.09985 -0.048,-1.34619 1.8951,-2.04484 2.2631,-0.81381 2.4374,-1.07989 1.8319,-2.79599 -0.2756,-0.78116 -0.6488,-2.97543 -0.8289,-4.87617 -0.1801,-1.90074 -0.6217,-4.23058 -0.9816,-5.17778 -0.4008,-1.05491 -1.0744,-2.3319 -1.7663,-3.42973 h 3.548 c 0.025,0.0483 0.04,0.0839 0.065,0.13312 0.8902,1.72136 1.7248,5.05421 1.9681,7.85854 0.2231,2.57107 0.7271,5.14067 1.0082,5.14067 0.077,0 0.9775,-1.1305 1.9994,-2.51229 1.0219,-1.38182 1.8581,-2.65963 1.8581,-2.83963 0,-0.70476 -1.2282,-2.88716 -2.2627,-4.02071 -1.1639,-1.27548 -1.2617,-1.57909 -0.7629,-2.36694 0.2488,-0.3928 1.0593,-0.50281 3.6955,-0.50281 2.6352,0 3.4469,-0.11066 3.6973,-0.50324 0.063,-0.0993 0.138,-0.23525 0.2169,-0.38671 h 14.2921 c -0.698,0.25117 -1.3691,0.54445 -2.0047,0.87991 -3.4318,1.81138 -6.3299,4.80237 -8.261,8.52589 -2.6684,5.14524 -2.7575,11.50807 -0.2357,16.84009 3.8632,8.16901 13.4552,12.60618 22.3156,10.32324 v 0 c 6.1799,-1.59229 12.0823,-7.43409 13.5133,-13.37457 2.2151,-9.19553 -1.7167,-18.28203 -9.6506,-22.30244 -0.6731,-0.34104 -1.379,-0.63808 -2.1086,-0.89257 h 14.4217 c 0.3977,0.66977 0.7154,0.8089 1.3661,0.93098 0.6245,0.11714 2.118,0.11195 3.3189,-0.0105 3.4655,-0.35506 3.9405,0.49856 1.8331,3.29312 -0.7085,0.93942 -1.4738,2.18062 -1.7013,2.75845 -0.3959,1.00653 -0.3384,1.15022 1.3718,3.4197 0.982,1.30287 1.9575,2.37728 2.1675,2.38746 0.2101,0.0101 0.471,-0.47241 0.58,-1.07196 v -4.5e-4 c 0.1091,-0.59955 0.3576,-2.51928 0.5521,-4.266 0.3687,-3.30969 0.8748,-5.16917 2.0161,-7.40635 l 0.017,-0.0345 z m -172.9751,0 c 0.01,0.12244 0.018,0.24579 0.031,0.3758 l 0.1702,1.66511 -1.8253,-0.1305 c -1.2056,-0.0863 -2.5233,0.0245 -3.8788,0.32603 -1.1291,0.25119 -2.2898,0.39482 -2.5795,0.31906 -0.4041,-0.10567 -0.6433,0.0875 -1.0283,0.83103 -0.2759,0.53301 -1.1604,1.61462 -1.9654,2.40317 -0.9384,0.91924 -1.6691,1.93962 -2.0361,2.84399 -0.3149,0.77581 -0.6172,1.41066 -0.6718,1.41066 -0.055,0 -0.6278,-0.40373 -1.274,-0.89694 -0.6799,-0.51902 -2.1258,-1.19961 -3.4328,-1.61579 -1.242,-0.39547 -2.3959,-0.88493 -2.5642,-1.08766 -0.3939,-0.47466 -0.887,-0.46888 -1.2884,0.0148 -0.3213,0.38712 -0.7907,0.5645 -3.4708,1.3107 -0.8116,0.22594 -2.0252,0.83042 -2.6965,1.343 -0.6714,0.51259 -1.277,0.93185 -1.3465,0.93185 -0.069,0 -0.3368,-0.55047 -0.5936,-1.22297 v 0 c -0.2569,-0.67252 -1.2099,-2.0966 -2.1177,-3.1648 -0.9078,-1.0682 -1.7276,-2.18473 -1.8218,-2.4813 -0.1405,-0.4429 -0.3956,-0.53947 -1.4281,-0.53947 -0.6914,0 -1.9035,-0.19235 -2.6938,-0.42774 -1.4655,-0.43645 -3.1892,-0.51688 -4.5707,-0.21343 l -0.7708,0.16891 0.1794,-1.68169 c 0.017,-0.16238 0.03,-0.32262 0.039,-0.48186 h 4.9962 c 0.1562,0.042 0.3062,0.0862 0.4391,0.13312 1.4755,0.5206 2.7417,0.56666 3.2804,0.11959 0.1205,-0.0999 0.1944,-0.17718 0.2266,-0.25271 h 4.5265 l -0.3308,0.69311 c -0.4327,0.9074 -0.589,0.95232 -1.7127,0.48971 -0.3716,-0.15296 -0.4631,-0.0543 -0.4631,0.50106 0,0.46906 0.4602,1.19317 1.4285,2.24648 0.7859,0.85476 1.6303,1.8613 1.8764,2.23688 0.4076,0.62205 0.4984,0.64998 1.0187,0.31251 0.3142,-0.20375 1.4016,-0.5777 2.4163,-0.83103 v -4.5e-4 c 2.6213,-0.65441 4.1073,-2.21855 2.1077,-2.21855 -0.9268,0 -0.9407,-0.016 -0.8599,-0.99208 l 0.082,-0.99208 h 2.7781 2.7781 l 0.082,0.99208 c 0.078,0.94828 0.046,0.99209 -0.7276,0.99208 -0.9185,0 -1.0656,0.48018 -0.3465,1.13088 0.2546,0.23044 1.4047,0.72631 2.5559,1.10207 1.1511,0.37575 2.2408,0.80587 2.4215,0.95586 0.2414,0.20029 0.4896,0.0416 0.9349,-0.59795 0.3334,-0.47898 1.0625,-1.2701 1.6202,-1.75765 0.5577,-0.48754 1.189,-1.224 1.4023,-1.63674 0.462,-0.89309 0.2557,-1.68975 -0.3701,-1.43072 -1.0834,0.44843 -1.2487,0.39915 -1.6786,-0.50238 l -0.3304,-0.6931 h 4.7941 c 0.047,0.0529 0.1005,0.11059 0.1707,0.1807 0.4327,0.43268 0.5745,0.43279 2.6724,8.9e-4 0.3138,-0.0646 0.6323,-0.12575 0.9406,-0.18157 z m -111.6248,0 c 0.2043,0.12238 0.4043,0.23485 0.5958,0.33215 l 3.0753,1.56298 -2.0252,2.47082 c -1.1139,1.35893 -2.4273,3.74843 -2.919,5.31002 -0.4915,1.56161 -1.4866,3.87756 -2.2112,5.14635 -1.2856,2.25022 -1.2854,2.36364 0.027,4.61386 0.7362,1.26882 1.6972,3.66841 2.1356,5.33272 0.4381,1.66433 1.7595,4.12235 2.9361,5.46234 l 2.1391,2.43634 -2.3465,1.17323 c -1.2905,0.64513 -4.2756,3.21834 -6.6329,5.71854 l -4.2865,4.54577 0.086,7.27412 c 0.048,4.0007 0.3368,7.99274 0.6429,8.87113 0.5169,1.48393 0.354,1.59701 -2.3019,1.59701 -1.7023,0 -4.6786,0.86123 -7.3584,2.12908 -2.4752,1.17089 -4.8932,2.12917 -5.3737,2.12951 -0.4807,0 -1.089,0.8787 -1.3517,1.9523 -0.2629,1.07359 -1.3867,3.57526 -2.4979,5.5588 -1.3451,2.40136 -2.02,4.62265 -2.02,6.64822 0,2.83717 -0.1076,3.0069 -1.5974,2.5171 -0.8783,-0.28884 -4.7415,-0.72557 -8.5853,-0.97026 l -6.9887,-0.44478 -5.2558,5.14331 c -2.891,2.82866 -5.2555,5.63354 -5.2555,6.23313 0,1.904 -2.0364,1.96018 -4.2267,0.11698 -1.1649,-0.98016 -3.8048,-2.33606 -5.8665,-3.01335 -2.0617,-0.67729 -4.3496,-1.64415 -5.0844,-2.1487 -1.1026,-0.75734 -1.6078,-0.73942 -2.8955,0.10431 -0.858,0.56209 -3.2864,1.53472 -5.3964,2.16135 -2.11,0.62664 -4.7448,1.90336 -5.8543,2.83704 -2.6237,2.20786 -3.061,2.14826 -4.4716,-0.60931 h -0.016 c -0.3654,-0.71443 -1.3013,-1.92394 -2.4547,-3.22983 v -6.36321 c 2.348,2.51556 5.415,5.48234 5.8971,5.49814 0.2696,0.008 0.6637,-0.26381 0.8751,-0.60625 l -0.034,-0.003 c 0.2119,-0.34235 1.9073,-1.00223 3.7684,-1.46607 3.9431,-0.98284 6.803,-2.65164 6.2039,-3.62092 -0.2307,-0.37324 -1.0395,-0.6787 -1.7974,-0.6787 -1.0615,0 -1.3774,-0.49523 -1.3774,-2.15831 v -2.15832 l 5.856,0.20647 c 5.8025,0.20414 5.858,0.22373 6.0804,2.15786 0.1958,1.69484 -0.027,1.95188 -1.656,1.95188 -1.1284,0 -1.7693,0.3348 -1.6022,0.83669 0.351,1.05212 1.2242,1.52319 6.9197,3.73263 3.7165,1.44169 4.6986,1.59933 5.1332,0.82275 0.2954,-0.52817 2.14,-2.18272 4.0993,-3.67677 3.938,-3.0034 4.7878,-5.30163 1.745,-4.71992 -1.7481,0.33416 -2.038,-0.008 -2.7484,-3.2486 -0.027,-0.12101 2.3373,-1.17889 5.2532,-2.35036 4.9814,-2.00137 5.3565,-2.05498 6.2109,-0.88646 1.2384,1.69359 1.1501,2.21329 -0.5298,3.11242 -2.5698,1.37529 -0.7293,2.11918 5.2074,2.10419 l 5.8142,-0.0136 2.3211,-4.77623 c 1.2767,-2.62713 2.3152,-5.33563 2.3071,-6.01884 -0.027,-1.35161 -1.0859,-1.67021 -1.789,-0.53249 -0.7065,1.14303 -2.0739,0.82065 -3.033,-0.71534 -0.7981,-1.27809 -0.4863,-1.82973 3.0177,-5.3336 3.5039,-3.50389 4.0555,-3.8159 5.3336,-3.01771 1.5359,0.95925 1.8584,2.32699 0.7153,3.03342 -0.9993,0.61758 -0.8839,1.77377 0.1772,1.77728 0.488,0 3.2026,-1.03632 6.0324,-2.30672 l 5.1459,-2.31019 0.1126,-4.61343 c 0.1932,-7.87543 -0.2334,-9.26883 -2.0225,-6.60807 -0.9026,1.34198 -1.2875,1.44529 -2.8091,0.75202 -1.9477,-0.88742 -1.9424,-0.94753 0.6669,-7.13616 1.8487,-4.38477 1.8739,-4.40745 4.1638,-3.80859 1.1564,0.30237 1.4125,0.79684 1.1432,2.20676 -0.5602,2.93078 1.0328,2.17561 5.3475,-2.53455 3.7932,-4.14112 3.9407,-4.44158 3.0509,-6.21088 -0.5146,-1.02257 -1.1619,-2.81722 -1.4382,-3.98841 -1.0632,-4.50397 -3.9556,-6.7749 -3.9556,-3.10544 0,1.13567 -0.3962,1.37929 -1.9519,1.20027 -1.948,-0.22428 -1.9519,-0.23614 -1.9519,-5.90317 0,-5.62705 0.027,-5.68017 1.8973,-5.8975 1.5214,-0.17599 1.9429,0.10517 2.1291,1.41938 0.4021,2.83695 1.5768,1.62141 3.9387,-4.07658 l 2.2862,-5.51647 -1.5896,-1.48223 c -0.4567,-0.42573 -1.1189,-1.13962 -1.8053,-1.93135 z m -20.8677,0 c 0.7037,0.5625 1.6081,1.37772 2.5602,2.32985 3.2617,3.26176 3.4354,3.61167 2.5211,5.0704 -0.5403,0.86173 -1.3621,2.76445 -1.8262,4.22846 -0.4641,1.46399 -1.0796,2.66156 -1.3675,2.66156 -0.2875,0 -1.0591,-1.12362 -1.7139,-2.49701 -0.6549,-1.37342 -1.979,-2.85629 -2.9427,-3.29531 l -1.7519,-0.79829 1.3918,-1.76899 c 0.7654,-0.973 1.3915,-2.79078 1.3915,-4.03947 0,-0.70371 0.058,-1.38535 0.1471,-1.8912 z m -3.8069,0 c -0.036,0.23581 -0.067,0.45044 -0.1104,0.72279 -0.6803,4.3027 -0.525,4.01341 -2.4743,4.6108 -1.057,0.3239 -2.025,-0.14161 -3.5048,-1.68606 -1.1243,-1.1736 -2.6872,-2.13387 -3.473,-2.13387 -1.1112,0 -1.2393,-0.18933 -0.577,-0.85198 0.1315,-0.13145 0.2548,-0.36653 0.3662,-0.66168 z m -14.4037,0 c -0.1549,0.0204 -0.3041,0.0199 -0.4527,0 z m -10.7353,0 c 0.6545,0.52259 0.9454,1.2369 0.9454,2.26132 0,2.5954 -1.7358,3.1532 -3.1408,1.00911 -0.9156,-1.39734 -1.265,-2.54485 -1.1235,-3.27043 z m -11.3503,0 c 2.5793,1.90805 4.7952,4.48302 6.396,7.74287 1.6915,3.44438 1.9921,4.9277 1.9741,9.74144 -0.027,6.58961 -1.7692,11.01839 -6.0123,15.2614 -5.3755,5.37546 -14.8468,7.67006 -22.0039,5.33096 -5.8652,-1.91685 -10.3797,-6.27705 -12.8263,-11.58592 v -18.21888 c 1.638,-3.48502 4.0213,-6.24603 6.828,-8.27187 z m 17.3504,0.65775 c 1.6587,0.0839 3.4624,2.42177 3.4624,4.90717 0,2.90836 -2.5174,4.07996 -4.2585,1.98198 -0.4862,-0.58559 -1.3877,-1.06454 -2.0034,-1.06454 -0.8711,0 -0.9308,-0.18959 -0.2684,-0.85197 0.4684,-0.46849 0.8519,-1.57485 0.8519,-2.45904 0,-0.88416 0.5949,-1.92598 1.3216,-2.31501 0.2849,-0.15243 0.5872,-0.21413 0.8944,-0.19859 z m 307.3409,0.73501 c -0.1746,0 0.5096,0.94335 1.5202,2.09633 2.017,2.30093 3.5555,5.07176 4.4755,8.06106 0.6882,2.23619 0.9026,1.97092 1.2539,-1.54901 0.1255,-1.26103 0.5216,-3.06329 0.8795,-4.005 0.3579,-0.9417 0.6166,-1.73314 0.5748,-1.75895 -0.042,-0.0257 -0.9816,-0.24109 -2.0884,-0.47836 -1.107,-0.23725 -2.9768,-0.86692 -4.1552,-1.39887 -1.1785,-0.53197 -2.2858,-0.9672 -2.4603,-0.9672 z m -30.3591,0 c -0.1643,0 -1.0481,0.36162 -1.9641,0.80353 -1.9634,0.94718 -4.9715,1.87985 -6.063,1.87985 h -0.7725 l 0.6525,1.65638 c 0.5123,1.29979 1.35,5.93754 1.35,7.47488 0,0.71028 0.3216,0.042 1.0104,-2.09983 0.8846,-2.75133 2.4269,-5.43288 4.5641,-7.93447 0.8364,-0.97913 1.3868,-1.78034 1.2226,-1.78034 z m -307.1668,1.53941 c -4.655,0.0298 -9.2626,2.24909 -12.1355,6.32785 -1.8914,2.68535 -2.129,3.59758 -2.129,8.16013 0,6.59747 2.0104,9.99606 7.5447,12.75392 4.2568,2.12129 7.9863,2.36094 11.8203,0.75944 5.4224,-2.26507 9.3426,-7.8986 9.3595,-13.4492 0,-4.34002 -2.8783,-9.84292 -6.3946,-12.16992 -2.4626,-1.62963 -5.2724,-2.40009 -8.0654,-2.38222 z m 39.7365,1.01696 c 0.805,-0.0276 1.3706,0.50251 2.5896,1.95754 2.1014,2.50828 2.1337,4.39829 0.1283,7.4967 -1.4548,2.24958 -3.1337,1.98336 -5.7033,-0.90391 v 0 c -1.2204,-1.37119 -1.9808,-2.64025 -1.6892,-2.82043 0.2917,-0.18001 0.7245,-1.29769 0.9616,-2.48348 0.2975,-1.48829 1.0348,-2.38581 2.3813,-2.89769 0.5488,-0.20866 0.9641,-0.33619 1.3299,-0.34873 z m -12.9093,5.72771 c 1.8769,0 3.1267,2.13944 2.1522,3.6842 -0.8872,1.40647 -2.153,1.95363 -2.648,1.1444 -0.1932,-0.31339 -0.4606,-1.5283 -0.5975,-2.69952 -0.1985,-1.70305 0.027,-2.12908 1.0933,-2.12908 z m 21.5134,1.07022 c 1.649,0.005 2.2959,0.58807 3.7937,3.41925 l 1.8052,3.41271 -2.0431,3.32455 c -2.4193,3.93707 -5.0333,4.57099 -6.1995,1.50362 -0.3807,-1.00142 -0.6918,-2.10137 -0.6918,-2.4442 0,-0.34286 -0.646,-1.07559 -1.4355,-1.62845 -1.2931,-0.90571 -1.324,-1.09726 -0.3139,-1.93571 0.6168,-0.51179 1.5659,-1.99414 2.109,-3.294 0.7869,-1.88349 1.391,-2.36252 2.9759,-2.35777 z m 248.8385,1.6638 -1.1125,1.48485 c -0.6119,0.8166 -1.8623,2.05676 -2.779,2.75583 l -1.6668,1.27098 1.1047,0.94538 c 0.6076,0.51996 1.2129,0.95185 1.3452,0.95935 0.1325,0.008 0.875,0.85355 1.6502,1.88029 l 1.4098,1.86676 0.5582,-1.80522 c 0.3072,-0.99286 0.8355,-2.27332 1.1737,-2.84575 v 0 c 0.5962,-1.00933 0.5961,-1.06947 0,-1.98111 -0.3389,-0.51703 -0.856,-1.74816 -1.1492,-2.73575 z m 50.3248,0.0144 -0.4299,1.69828 c -0.2365,0.93388 -0.7149,2.16585 -1.0628,2.73794 l -0.6329,1.04009 0.9746,2.05968 c 0.5359,1.13277 0.9745,2.42753 0.9747,2.87717 2e-4,0.70142 0.3351,0.45409 2.3582,-1.74149 1.2969,-1.4075 2.6614,-2.65522 3.0321,-2.77286 0.6041,-0.19171 0.5381,-0.31261 -0.6342,-1.16187 -0.7195,-0.52121 -2.0443,-1.80021 -2.944,-2.84225 z m -314.5557,1.09334 c 1.07,0.0402 2.259,0.81489 2.8274,2.18712 0.7421,1.79158 0.6975,2.40471 -0.285,3.90417 -1.5742,2.40255 -3.3545,2.23125 -4.8927,-0.47051 -0.7013,-1.23207 -0.9975,-2.42771 -0.6578,-2.65719 0.3393,-0.22938 0.8233,-0.97624 1.0755,-1.65943 0.3401,-0.92215 1.1004,-1.33539 1.9326,-1.30416 z m -5.6225,6.4505 c 1.6636,0 2.5769,3.13887 1.3452,4.62303 -0.9344,1.12604 -2.545,1.40109 -3.0601,0.52288 v 0 c -0.1717,-0.29279 -0.1556,-1.5704 0.038,-2.83919 0.2521,-1.65382 0.7262,-2.30672 1.6765,-2.30672 z m 11.9923,0.0995 c 0.2757,-0.008 0.5784,0.002 0.8956,0.0327 2.0312,0.19584 2.423,0.5893 3.2778,3.2905 0.9456,2.98912 0.9193,3.12196 -1.02,5.14635 -1.9067,1.99013 -3.1654,2.38728 -5.097,1.60793 -0.488,-0.19691 -0.8893,-0.73084 -0.8917,-1.1863 0,-0.45548 -0.4356,-1.65462 -0.9628,-2.66462 -0.8686,-1.66501 -0.8023,-1.98645 0.714,-3.44588 0.9199,-0.88537 1.673,-1.91596 1.673,-2.29013 0,-0.28063 0.5839,-0.46671 1.4111,-0.49058 z m 16.0479,0.46789 c 0.146,0.002 0.2698,0.0919 0.3784,0.26318 0.3289,0.51912 0.603,1.4277 0.6089,2.01909 0,0.59139 0.648,2.26325 1.4263,3.71561 l 1.4155,2.64105 -3.2674,3.02731 c -1.7972,1.66502 -3.5521,3.13371 -3.8998,3.26388 -0.348,0.1301 -0.6324,-1.06787 -0.6324,-2.66199 v 0 c 0,-1.92663 -0.4634,-3.36218 -1.3831,-4.28172 -1.37,-1.37001 -1.37,-1.38726 0,-1.82136 0.7595,-0.24118 2.2256,-1.88027 3.2582,-3.64229 1.0221,-1.74403 1.6596,-2.52854 2.0976,-2.52276 z m 245.1003,1.96496 c -0.059,-9e-4 -0.097,0.0784 -0.097,0.26318 0,1.53531 -0.8306,6.17786 -1.3338,7.45437 l -0.6368,1.61579 1.6738,0.22216 c 0.9209,0.12221 2.8362,0.73965 4.256,1.37225 1.4199,0.63259 2.7061,1.1547 2.8584,1.16011 0.1523,0.005 -0.573,-1.00912 -1.6115,-2.25433 -1.9699,-2.36201 -4.1278,-6.42462 -4.4423,-8.36265 -0.121,-0.74573 -0.4904,-1.46822 -0.6673,-1.47088 z m 43.6376,0.17196 c -0.075,0.004 -0.1445,0.22847 -0.2575,0.70839 -0.5698,2.42104 -3.1368,7.64848 -4.194,8.54072 -0.8424,0.7109 -2.4562,2.67638 -2.1976,2.67638 0.1763,0 1.5267,-0.52645 3.0007,-1.1697 1.4738,-0.64328 3.3968,-1.2665 4.273,-1.3849 0.8763,-0.11841 1.5933,-0.23342 1.5931,-0.25577 -10e-5,-0.0223 -0.2964,-0.82021 -0.6586,-1.77292 -0.362,-0.95271 -0.7616,-2.7636 -0.8874,-4.02463 -0.1255,-1.26103 -0.3339,-2.58604 -0.4626,-2.94439 -0.089,-0.24641 -0.1506,-0.37644 -0.2091,-0.37318 z m 7.9079,0.44869 c -0.3099,0.0307 -1.0464,0.81652 -2.1378,2.28489 -1.8364,2.47087 -1.8999,2.62326 -1.5071,3.62178 0.2254,0.57325 0.9893,1.81073 1.6978,2.75016 1.3442,1.78247 1.5758,2.59525 0.869,3.05086 -0.2306,0.14865 -1.9108,0.27046 -3.7335,0.27104 l -3.3141,0.002 -1.2587,2.85098 c -0.6923,1.56804 -1.199,2.95317 -1.1257,3.07793 0.1883,0.32084 1.5766,-0.12257 4.7405,-1.51364 3.2343,-1.42203 6.1809,-2.23512 8.0994,-2.23512 h 1.3827 l -0.81,-1.59877 c -1.1105,-2.19152 -1.4954,-3.77548 -2.0191,-8.31027 -0.2472,-2.13973 -0.5968,-4.03785 -0.7769,-4.21799 -0.027,-0.0266 -0.062,-0.0376 -0.1065,-0.0332 z m -59.0283,0.0729 c -0.5252,0 -0.6742,0.5943 -1.1518,4.59204 -0.4749,3.97387 -1.3067,6.99744 -2.3722,8.62365 l -0.5709,0.87162 h 1.7027 c 1.8243,0 4.8661,0.90565 9.4398,2.81125 1.5663,0.65257 2.9713,1.0634 3.122,0.91265 0.1507,-0.15076 -0.3386,-1.60038 -1.0876,-3.22154 l -1.3618,-2.94788 -3.3586,0.18506 c -3.0664,0.16896 -3.3879,0.12952 -3.7003,-0.45436 -0.3791,-0.70824 -0.024,-1.61277 1.0972,-2.79859 0.7234,-0.7645 1.9384,-2.97969 1.9384,-3.53449 0,-0.48742 -3.3394,-5.03941 -3.6969,-5.03941 z m -261.4074,3.25689 c 1.1081,-0.0193 1.7728,0.94243 1.9331,2.86059 0.169,2.03504 -0.1285,2.83033 -1.3998,3.72042 -1.8224,1.27635 -2.0542,1.32006 -3.1412,0.5892 -0.4266,-0.28677 -0.9576,-1.47987 -1.1802,-2.65106 -0.3241,-1.70356 -0.059,-2.3874 1.3277,-3.41969 0.971,-0.72309 1.7955,-1.0879 2.4604,-1.09946 z m 14.8952,2.84837 c 1.6121,-0.0179 2.6521,1.79378 2.964,5.35452 0.3198,3.65225 0.2965,3.70275 -2.7017,5.85604 -3.4297,2.4629 -3.7912,2.54114 -5.6064,1.21384 v 0 c -0.9779,-0.71501 -1.2019,-1.49955 -0.8834,-3.09105 0.2723,-1.36127 0.04,-2.68349 -0.6403,-3.65538 -0.9602,-1.37097 -0.9508,-1.52284 0.094,-1.52284 0.6377,0 2.1177,-0.95828 3.2887,-2.1295 1.3455,-1.34543 2.5184,-2.01491 3.4857,-2.02563 z m -22.4063,0.82622 c 0.1,0.007 0.1929,0.0342 0.2767,0.086 1.2888,0.79665 0.9052,3.84006 -0.5844,4.63742 -1.7344,0.92813 -1.8482,0.92185 -2.7354,-0.15234 -0.8295,-1.0043 1.5931,-4.47627 2.9409,-4.57063 0.035,-0.002 0.069,-0.003 0.1022,-4.5e-4 z m 11.3624,4.91633 c 1.7036,-0.009 2.4722,1.44348 2.4722,4.50693 0,3.1945 -0.4007,3.65988 -4.4873,5.21355 -1.4069,0.53496 -2.0177,0.36412 -3.1657,-0.88646 h 0.01 c -1.0884,-1.1854 -1.2745,-1.93739 -0.7922,-3.19968 0.3724,-0.97487 0.3642,-2.14688 -0.027,-2.86455 -0.4902,-0.91544 -0.3581,-1.23156 0.5356,-1.2832 0.6522,-0.0376 2.1982,-0.48585 3.4358,-0.99601 0.7818,-0.32229 1.4534,-0.48759 2.0213,-0.49058 z m 269.6388,2.16135 0.8384,2.22685 c 0.4611,1.22477 0.838,2.80229 0.838,3.50524 0,0.70296 0.087,1.36497 0.1934,1.47132 0.1065,0.10639 0.8232,-0.0846 1.5931,-0.42424 0.77,-0.33967 2.4232,-0.79517 3.6737,-1.01213 l 2.2735,-0.39456 -1.3587,-1.47394 c -0.7473,-0.81066 -1.5219,-1.83122 -1.721,-2.26833 -0.3058,-0.67121 -0.6825,-0.82641 -2.4241,-0.99777 -1.1342,-0.11155 -2.477,-0.29958 -2.9841,-0.41768 z m 34.409,0 c -0.2666,-0.003 -0.8903,0.10776 -1.6123,0.29418 -0.9625,0.24968 -2.321,0.45391 -3.0186,0.45391 -0.8176,0 -1.2683,0.15497 -1.2683,0.43603 0,0.2399 -0.7533,1.28129 -1.6739,2.31412 l -1.6738,1.8781 2.1963,0.38236 c 1.2079,0.21033 2.9045,0.66145 3.7702,1.00255 l 1.5739,0.62022 0.2326,-1.75459 c 0.1282,-0.96506 0.543,-2.57107 0.9222,-3.56852 0.379,-0.99748 0.6895,-1.9047 0.6896,-2.01603 0,-0.0278 -0.049,-0.0413 -0.1379,-0.0423 z m -314.9668,0.31556 c 0.518,-0.0176 1.0512,0.17102 1.5896,0.56478 1.142,0.83513 1.1999,1.26479 0.4675,3.48429 -0.4596,1.39251 -1.2101,2.5362 -1.6678,2.54152 -0.4577,0.005 -1.4711,0.17871 -2.2521,0.38542 -0.9135,0.2417 -1.7087,-0.0946 -2.2308,-0.9432 -0.5467,-0.88867 -0.5854,-1.72297 -0.1183,-2.5577 0.3812,-0.68142 0.5035,-1.73452 0.2711,-2.33988 -0.3034,-0.7907 -0.1046,-0.97902 0.7018,-0.66909 0.6184,0.23717 1.6645,0.14235 2.3251,-0.21125 0.2978,-0.15938 0.6031,-0.24432 0.9139,-0.25489 z m -8.0946,0.68612 c 0.3331,-0.005 0.5883,0.18586 0.8925,0.55255 0.6081,0.73265 0.6188,1.37653 0.04,2.45774 -0.8893,1.66172 -3.9285,1.99331 -4.5048,0.49146 -0.2092,-0.54674 0.5064,-1.62425 1.6337,-2.45774 0.9535,-0.70487 1.5101,-1.0371 1.9384,-1.04401 z m -33.0958,0.21648 c 1.4857,0 4.0911,2.27574 3.7182,3.24775 -0.6084,1.58533 -4.3145,1.27802 -4.8478,-0.402 -0.488,-1.53743 0.032,-2.84575 1.1296,-2.84575 z m 332.459,0.73763 c -0.5725,-0.0539 0.2579,0.78236 2.1299,2.06014 1.1467,0.78261 2.6016,2.06868 3.2333,2.85795 l 1.1488,1.4351 2.0453,-2.01952 c 1.125,-1.11073 2.6811,-2.46174 3.4585,-3.00244 0.7772,-0.54069 1.3546,-1.04177 1.2828,-1.11344 -0.071,-0.0716 -1.0564,0.0519 -2.1884,0.27453 -2.3298,0.45838 -9.0434,0.26166 -10.4852,-0.30727 -0.2859,-0.11278 -0.4929,-0.17261 -0.625,-0.18505 z m -266.1584,2.03305 0.3553,4.82554 0.3548,4.82556 -2.4847,0.76817 c -1.3663,0.42238 -3.5686,1.33275 -4.8946,2.02343 -2.3296,1.21382 -2.3928,1.21205 -1.882,-0.058 1.0787,-2.68304 1.2807,-6.62685 0.3941,-7.6953 -0.7587,-0.91397 -0.5838,-1.07152 1.189,-1.07152 1.1431,0 3.1789,-0.81425 4.5235,-1.80914 z m -56.9463,1.65028 c 0.3361,0.0105 0.7908,0.0886 1.4032,0.21999 2.9236,0.62707 3.3717,0.90192 3.3717,2.06841 0,1.72462 -3.3876,2.39604 -4.8269,0.95672 -0.4683,-0.46849 -0.8515,-1.45204 -0.8515,-2.18581 0,-0.77919 0.1641,-1.0825 0.9035,-1.05931 z m 13.6085,0.21603 c 1.6046,0.0287 2.2284,0.93453 1.3705,2.30326 -0.8883,1.41699 -3.0232,1.86965 -4.4515,0.94362 -1.4728,-0.95477 -0.4718,-2.67227 1.8196,-3.12158 0.4686,-0.0919 0.8911,-0.13189 1.2614,-0.1253 z m -17.617,1.2496 c 0.1835,-0.006 0.2658,0.17071 0.2658,0.53641 0,0.50507 0.5079,1.47977 1.1287,2.16574 0.6997,0.7732 0.9513,1.80579 0.6621,2.71743 -0.6218,1.95934 -4.6187,2.02481 -6.3571,0.10387 -1.6681,-1.84331 -1.1672,-3.89787 1.0244,-4.20228 0.9719,-0.13495 2.1666,-0.5734 2.6546,-0.97417 0.2747,-0.2257 0.4788,-0.34195 0.6215,-0.347 z m 23.0169,0.21779 c 0.1069,0.0143 0.1987,0.09 0.2798,0.2213 0.2629,0.42491 1.2357,0.77254 2.1622,0.77254 2.2582,0 3.0478,2.46632 1.3797,4.30965 -1.5117,1.67041 -5.8376,1.87487 -6.4405,0.30421 v 0 c -0.2253,-0.5856 -0.2011,-1.46388 0.051,-1.95187 1.3626,-2.63571 2.1057,-3.71824 2.5686,-3.65583 z m 315.289,0.65906 c -0.142,0.003 -0.2475,0.0159 -0.3043,0.0375 -0.6108,0.23435 -2.0766,2.57305 -2.7506,4.38865 -0.4841,1.30379 -0.7383,1.58916 -1.4141,1.58916 -0.6908,0 -1.025,-0.40656 -2.0706,-2.51577 -1.7641,-3.55894 -1.9514,-3.67201 -5.2725,-3.19055 -1.4907,0.21608 -2.8077,0.49045 -2.9269,0.60974 -0.3537,0.35364 0.5477,1.21945 3.6083,3.46639 3.0088,2.20895 4.7792,3.95372 5.849,5.76482 0.3457,0.58525 0.6464,1.0641 0.6682,1.0641 0.022,0 0.5978,-0.81037 1.2802,-1.8013 1.2567,-1.82458 3.1686,-3.59665 5.9145,-5.4811 0.8301,-0.56974 1.9429,-1.49343 2.4726,-2.05268 l 0.9633,-1.01697 -1.1309,-0.18595 c -0.6219,-0.10228 -1.9518,-0.32347 -2.9544,-0.49145 -0.7522,-0.12597 -1.5061,-0.19491 -1.9318,-0.18463 z m -289.9605,0.59492 c 0.6596,-0.0416 1.0573,0.29525 1.8161,1.05406 1.3459,1.34596 1.3654,1.61718 0.3784,5.16554 -1.0165,3.65355 -1.1272,3.76698 -4.5418,4.65226 -4.4347,1.14979 -4.1294,1.17279 -5.5711,-0.4203 v 0 c -1.1493,-1.27023 -1.1526,-1.49819 -0.046,-3.64012 0.6498,-1.25679 1.0354,-3.05063 0.8564,-3.98623 -0.2575,-1.35152 -0.078,-1.62199 0.8851,-1.31679 0.6656,0.2114 2.427,-0.12436 3.9138,-0.7455 1.123,-0.46924 1.7945,-0.73059 2.3076,-0.76292 z m -36.9017,0.47749 c 0.065,-0.004 0.1,0.17001 0.1217,0.522 0.029,0.49764 0.855,1.20848 1.831,1.57959 2.4319,0.92465 2.4123,3.74028 -0.032,4.85479 -2.1239,0.96782 -2.3112,0.96592 -4.4026,-0.0428 v 0 c -2.2018,-1.06195 -2.1399,-3.93121 0.1021,-4.78408 0.9353,-0.3555 1.8685,-1.06631 2.0737,-1.57955 0.1453,-0.36307 0.2417,-0.54605 0.3072,-0.55039 z m 21.1615,0.30289 c 1.8589,0.0331 4.4508,0.65309 5.4257,1.62802 1.394,1.39402 1.3936,1.41422 -0.096,4.33495 -1.4023,2.74876 -1.6892,2.93391 -4.5348,2.93391 -1.6709,0 -3.4211,-0.38307 -3.8898,-0.85153 -1.1525,-1.15273 -1.071,-2.41285 0.2911,-4.49165 0.6286,-0.95924 0.984,-2.15704 0.79,-2.66199 -0.2242,-0.58438 0.532,-0.86079 1.6525,-0.8904 0.1167,-0.003 0.2375,-0.004 0.3614,-0.002 z m -40.9067,0.28939 c 0.033,0.11529 0.049,0.26177 0.049,0.44475 0,0.61306 0.5245,1.91509 1.1653,2.89333 0.9313,1.42111 1.0059,2.12939 0.3706,3.524 -0.3992,0.87604 -0.7803,1.32499 -1.5852,1.54685 z m 26.8342,5.46495 c 0.2184,0.011 0.4615,0.0903 0.7415,0.23395 0.6716,0.34443 2.055,0.95325 3.0745,1.35261 2.8834,1.12951 3.0334,3.35721 0.3928,5.83247 -2.5004,2.34375 -2.646,2.37001 -6.1502,1.11167 -2.0153,-0.72366 -2.5256,-1.30484 -2.7021,-3.07925 -0.169,-1.69386 0.1128,-2.29206 1.243,-2.65109 0.8033,-0.25511 1.7894,-1.0775 2.1911,-1.82789 0.3682,-0.68844 0.7288,-0.99656 1.2094,-0.97247 z m -14.6547,0.24923 c 0.5921,0.0101 1.2418,0.54328 2.5511,1.81482 2.8611,2.77891 3.0715,5.0998 0.5487,6.059 -4.2589,1.61915 -4.8833,1.5442 -7.1772,-0.86507 -1.8,-1.89027 -2.1106,-2.64805 -1.6145,-3.93778 0.338,-0.8784 1.2021,-1.59703 1.9209,-1.59703 0.7187,0 1.9059,-0.43789 2.6375,-0.97287 0.4438,-0.32457 0.7782,-0.50706 1.1335,-0.50107 z m 23.6786,3.86357 c 0.1385,-0.005 0.3287,0.10277 0.5831,0.31382 0.4955,0.41136 2.3263,0.84976 4.0683,0.97419 2.6873,0.19207 3.2664,0.50949 3.8212,2.09677 0.5567,1.5924 0.295,2.30305 -1.7611,4.7784 -1.3285,1.59933 -2.5752,2.87659 -2.7702,2.83834 -0.1959,-0.0384 -0.8341,-0.17067 -1.4199,-0.29463 -0.5855,-0.12391 -2.26,-0.42032 -3.7208,-0.65861 -3.7921,-0.61854 -4.379,-3.1692 -1.3212,-5.74211 1.2113,-1.01929 2.2029,-2.50318 2.2029,-3.29705 0,-0.67888 0.087,-1.00063 0.3177,-1.00912 z m -32.5122,0.0147 c 0.211,0.002 0.2527,0.24277 0.2527,0.72411 0,0.59413 0.9625,2.17686 2.1391,3.51703 1.8297,2.08392 2.038,2.70387 1.4373,4.28344 -0.5926,1.55839 -1.1393,1.84713 -3.5009,1.84713 -1.4739,0 -3.0759,0.15218 -3.6741,0.34305 v -9.27528 c 0.7683,-0.0773 1.5018,-0.32656 2.0758,-0.72847 0.6786,-0.47536 1.0591,-0.71287 1.2701,-0.71101 z m 393.3474,1.86458 v 2.86582 l -1.7611,0.8821 v 3.37124 c -0.01,3.26684 0.4828,4.70922 1.0209,3.01378 0.1526,-0.48062 0.4013,-0.74424 0.7402,-0.79218 v 5.98043 c -0.2138,0.53049 -0.3622,0.88478 -0.3902,0.92574 -0.057,0.0839 -0.5956,0.029 -1.1963,-0.12177 -0.8834,-0.22351 -1.0571,-0.46081 -0.8996,-1.28408 0.3006,-1.573 -1.0382,-1.27728 -2.4145,0.53336 -0.6452,0.84885 -1.5876,1.93013 -2.0946,2.40274 l -0.9218,0.8594 1.3256,3.19841 c 1.3695,3.30375 2.0504,4.00878 2.2835,2.36388 0.108,-0.76201 0.3527,-0.92521 1.2348,-0.82317 1.0841,0.12601 1.1003,0.15708 1.1003,3.41969 0,3.2858 0,3.29271 -1.1322,3.42277 -0.902,0.10378 -1.1317,-0.0377 -1.1317,-0.69618 0,-2.12758 -1.6771,-0.81103 -2.2936,1.80043 -0.1602,0.67906 -0.5354,1.71991 -0.8337,2.31282 -0.5159,1.02586 -0.4303,1.19979 1.769,3.60081 2.5017,2.73102 3.4256,3.16889 3.1007,1.46958 -0.1561,-0.81747 -0.01,-1.10438 0.6625,-1.2797 1.0308,-0.26957 1.2747,-0.30546 1.8318,0.87424 v 5.68886 c -0.222,-0.0688 -0.4057,-0.27565 -0.6594,-0.65295 -1.0373,-1.54275 -1.2848,-0.73497 -1.1728,3.83129 l 0.065,2.67509 1.7672,0.79348 v 2.7842 c -1.331,-0.54792 -2.68,-0.90259 -3.5087,-0.90259 -1.5399,0 -1.6344,-0.0658 -1.3347,-0.92619 0.1775,-0.50929 0.3447,-2.82363 0.3727,-5.14329 l 0.05,-4.21754 -2.4852,-2.63582 c -1.3668,-1.44963 -3.0974,-2.94176 -3.8457,-3.31582 l -1.3605,-0.68 1.24,-1.41284 c 0.6822,-0.77694 1.4482,-2.20198 1.7022,-3.16699 0.2542,-0.96496 0.8115,-2.35666 1.2383,-3.09235 0.7611,-1.30468 0.7615,-1.37038 0.016,-2.67508 -0.4201,-0.73564 -0.9973,-2.07823 -1.2823,-2.98366 -0.2851,-0.90543 -1.0468,-2.2909 -1.6926,-3.07883 l -1.1741,-1.43246 1.7834,-0.90655 c 0.9807,-0.4984 2.3085,-1.61289 2.9509,-2.47691 0.6423,-0.86407 1.6181,-1.94801 2.1688,-2.40885 0.9655,-0.80742 0.9945,-0.98738 0.8101,-4.93903 -0.1051,-2.25544 -0.3308,-4.51746 -0.5011,-5.02675 -0.285,-0.85211 -0.1847,-0.92575 1.2553,-0.92575 0.8408,0 2.1439,-0.3935 3.5974,-1.07283 z m -349.4042,0.33433 c 0.1781,0.0186 0.4828,0.18962 0.9502,0.48143 1.0473,0.65405 2.1999,0.67174 4.8081,0.0751 1.8868,-0.43177 3.554,-0.66127 3.7051,-0.51023 0.1502,0.15105 -0.3034,1.15621 -1.0095,2.23383 -0.7062,1.07759 -1.6426,3.17559 -2.0815,4.66186 -0.4389,1.4863 -1.0261,2.47403 -1.3051,2.19499 v 0 c -0.2793,-0.27907 -2.4201,-0.45465 -4.7578,-0.3902 -2.3379,0.0644 -4.2503,-0.0757 -4.2503,-0.31165 0,-0.23608 0.9827,-1.54851 2.184,-2.91688 1.6282,-1.85429 2.0759,-2.92203 1.7572,-4.19225 -0.242,-0.96353 -0.2972,-1.35641 0,-1.32553 z m -27.6112,1.32728 c 0.2446,0.0161 0.5111,0.27628 0.9371,0.78956 0.5339,0.64344 2.0565,1.62322 3.3831,2.17756 2.0161,0.84239 2.3747,1.32365 2.1858,2.93127 -0.1663,1.42451 -1.0745,2.42058 -3.497,3.84003 l -3.2708,1.9165 -3.2949,-2.05094 c -4.3361,-2.69895 -4.5734,-5.13586 -0.6582,-6.77173 1.4506,-0.60605 2.9848,-1.57698 3.4092,-2.15744 0.3386,-0.46303 0.5612,-0.69086 0.8057,-0.67481 z m -9.8261,6.01276 0.4697,1.47915 c 0.2576,0.81336 1.8856,2.30844 3.6165,3.32281 1.7309,1.01437 3.1469,1.95111 3.1469,2.08148 0,0.1304 -1.7403,0.74335 -3.8675,1.36181 -2.1274,0.61843 -4.0631,1.43959 -4.3014,1.82485 -0.7124,1.15297 -1.2745,0.79553 -4.4305,-2.81563 -1.659,-1.89855 -3.0164,-3.64083 -3.0164,-3.87188 0,-0.23098 1.2654,-0.41987 2.8117,-0.41987 1.9365,0 3.2409,-0.46125 4.1914,-1.48136 z m 19.5021,0.17936 1.7694,1.39145 c 0.973,0.76536 2.7907,1.39188 4.0395,1.39188 1.2486,0 2.4337,0.16316 2.6336,0.36314 0.2715,0.27152 -6.2932,7.44478 -6.8132,7.44478 -0.054,0 -0.7259,-0.43369 -1.4962,-0.96371 -0.7699,-0.53007 -2.5977,-1.35345 -4.0617,-1.82966 -1.464,-0.47624 -2.6616,-1.10144 -2.6616,-1.38927 0,-0.28783 1.1235,-1.05909 2.4971,-1.71401 1.3732,-0.65492 2.8563,-1.97911 3.2953,-2.94262 z m -29.3539,8.52679 c 1.7931,0.87882 1.9069,1.34008 1.5407,2.31238 -0.29,0.77012 -0.7891,1.23082 -1.5407,1.41197 z m 396.6933,2.31673 v 3.93036 c -0.255,-0.65901 -0.5596,-1.3232 -0.783,-1.6795 -0.4567,-0.72865 -0.438,-0.98597 0.783,-2.25086 z m 0,12.20003 v 3.92949 l -1.353,-1.25353 0.821,-1.5311 c 0.2039,-0.3805 0.3868,-0.78192 0.532,-1.14486 z"/>
      <path style="fill:url(#linearGradient21292);fill-opacity:1;stroke-width:0.168028" d="m -1496.4781,-245.65098 c 0.09,-0.23459 0.2512,-0.75729 0.3599,-1.16155 0.28,-1.04061 0.5832,-1.57811 1.6564,-2.93631 0.5184,-0.65623 1.0182,-1.32328 1.1106,-1.48236 0.1395,-0.24015 0.2483,-0.25865 0.6411,-0.10909 0.2601,0.0991 1.1158,0.18013 1.9014,0.18013 1.3574,0 1.5032,0.0376 2.9364,0.75613 0.8295,0.41586 1.5432,0.75613 1.586,0.75613 0.043,0 0.029,-0.75369 -0.032,-1.67485 -0.089,-1.35965 -0.057,-1.81465 0.1739,-2.41762 0.156,-0.40852 0.3815,-1.2228 0.5012,-1.80952 l 0.2177,-1.06676 0.6849,-0.11693 c 0.3766,-0.0643 1.197,-0.3218 1.8229,-0.57221 1.0714,-0.42862 1.2442,-0.4492 2.9532,-0.35143 l 1.8153,0.10384 -0.7655,-1.49534 c -0.6762,-1.32105 -0.7831,-1.68205 -0.917,-3.09729 -0.083,-0.88108 -0.1974,-1.78457 -0.2534,-2.00776 -0.082,-0.32724 -0.026,-0.42489 0.2891,-0.50439 0.215,-0.0542 0.9422,-0.60219 1.6161,-1.21767 1.0716,-0.97872 1.4037,-1.17647 2.6479,-1.57658 0.7825,-0.25163 1.4626,-0.4974 1.5113,-0.54617 0.049,-0.0487 -0.3866,-0.49548 -0.9676,-0.99272 -1.3255,-1.13447 -1.3745,-1.19364 -2.0032,-2.4163 -0.2851,-0.5545 -0.7055,-1.25727 -0.9342,-1.56173 l -0.4157,-0.55357 0.4004,-0.53863 c 0.2203,-0.29623 0.6139,-1.0301 0.8748,-1.63081 0.5128,-1.18058 1.0769,-1.86483 2.3238,-2.81894 0.439,-0.33587 0.7982,-0.66445 0.7982,-0.73018 0,-0.0657 -0.5482,-0.28719 -1.2182,-0.49211 -1.5804,-0.48338 -1.9719,-0.69014 -2.9484,-1.55744 -0.4453,-0.39549 -1.0892,-0.8919 -1.4311,-1.10315 -0.3836,-0.23705 -0.5745,-0.45898 -0.4988,-0.57975 0.068,-0.10767 0.1651,-0.98963 0.2169,-1.95999 0.089,-1.65481 0.1382,-1.85016 0.8025,-3.14792 0.3897,-0.76099 0.7084,-1.44801 0.7084,-1.52669 0,-0.0786 -0.7841,-0.10821 -1.7423,-0.0656 -1.4605,0.065 -1.9155,0.0204 -2.8144,-0.27632 -0.5898,-0.1946 -1.3732,-0.41507 -1.7409,-0.48993 -0.6207,-0.12635 -0.6771,-0.18565 -0.7868,-0.8285 -0.065,-0.38083 -0.3227,-1.2034 -0.5725,-1.82794 -0.4272,-1.06782 -0.4476,-1.23908 -0.3421,-2.87141 0.061,-0.95472 0.078,-1.73586 0.036,-1.73586 -0.042,0 -0.7265,0.34026 -1.5216,0.75613 -1.0915,0.57091 -1.6401,0.75914 -2.2396,0.76839 -0.9126,0.0141 -2.3446,0.22009 -2.7531,0.39603 -0.2017,0.0869 -0.313,0.0128 -0.402,-0.26745 -0.068,-0.21315 -0.5564,-0.84243 -1.0862,-1.39839 -1.0999,-1.15433 -1.4184,-1.71176 -1.9216,-3.36323 -0.1971,-0.64692 -0.4176,-1.16209 -0.49,-1.14486 -0.072,0.0172 -0.5635,0.54652 -1.0914,1.1762 -0.7495,0.89401 -1.2531,1.30194 -2.2977,1.86179 -0.7358,0.39431 -1.5375,0.86304 -1.7816,1.04164 -0.4386,0.32105 -0.4471,0.32103 -0.7389,-0.001 -0.1624,-0.17942 -0.8644,-0.59635 -1.5599,-0.92652 -1.543,-0.73239 -1.8259,-0.94943 -2.8061,-2.15267 -0.424,-0.52046 -0.8311,-0.9463 -0.9048,-0.9463 -0.073,0 -0.353,0.66044 -0.6209,1.46765 -0.3732,1.12497 -0.6851,1.70362 -1.3359,2.47841 -0.4669,0.55593 -1.0229,1.29707 -1.2356,1.64697 -0.3206,0.52738 -0.429,0.60111 -0.6338,0.43109 -0.1401,-0.11621 -1.0243,-0.24882 -2.0409,-0.30604 -1.6884,-0.095 -1.8763,-0.14317 -3.1974,-0.81978 -0.772,-0.39535 -1.4266,-0.69514 -1.4546,-0.6662 -0.027,0.0289 0.022,0.73314 0.1098,1.56488 0.1533,1.44335 0.1373,1.58785 -0.3517,3.1712 -0.2819,0.91241 -0.5125,1.79121 -0.5125,1.95286 0,0.21409 -0.1869,0.32379 -0.6879,0.40391 -0.3783,0.0606 -1.1533,0.30635 -1.7222,0.54632 -0.9619,0.40574 -1.1671,0.43055 -2.9248,0.35373 -1.0397,-0.0453 -1.8903,-0.0607 -1.8903,-0.034 0,0.0267 0.3402,0.69914 0.7561,1.49419 0.5474,1.04655 0.7564,1.64149 0.7571,2.15553 0,0.69701 0.2231,2.21192 0.4274,2.91468 0.08,0.27654 0.015,0.37954 -0.2884,0.45991 -0.2156,0.057 -0.9801,0.62555 -1.6987,1.26354 -1.153,1.02329 -1.4761,1.21273 -2.7416,1.60732 -0.7891,0.24602 -1.4109,0.50837 -1.3816,0.58298 0.03,0.0746 0.5658,0.56898 1.1928,1.09857 0.857,0.72404 1.2803,1.24042 1.7061,2.08182 0.3116,0.61543 0.7549,1.39421 0.9851,1.73063 0.3695,0.54001 0.3894,0.64081 0.1699,0.86033 -0.1368,0.13677 -0.6014,0.95727 -1.0326,1.82336 -0.6618,1.32938 -0.954,1.71765 -1.8762,2.49235 -0.6006,0.5047 -1.0921,0.98793 -1.0921,1.07382 0,0.0859 0.5328,0.3243 1.184,0.52979 1.5122,0.47716 1.7347,0.60077 3.1709,1.76275 0.6546,0.52947 1.3152,1.00638 1.4682,1.05979 0.2485,0.0867 0.2538,0.16551 0.049,0.73862 -0.1258,0.35281 -0.232,1.26343 -0.2361,2.0236 -0.011,1.30533 -0.049,1.46244 -0.7635,2.82765 -0.4159,0.79503 -0.7562,1.47668 -0.7562,1.51476 0,0.0381 0.7805,0.0215 1.7343,-0.0369 1.5093,-0.0923 1.8758,-0.059 2.826,0.25721 0.6005,0.19982 1.4233,0.41992 1.8286,0.4891 0.7103,0.12126 0.7392,0.14986 0.802,0.79359 0.035,0.3673 0.2403,1.09921 0.4545,1.62649 0.5681,1.39782 0.6154,1.75738 0.4391,3.33275 -0.088,0.78288 -0.1287,1.4539 -0.091,1.49117 0.037,0.0372 0.7683,-0.27524 1.6244,-0.69448 1.3487,-0.66051 1.7471,-0.77631 2.9848,-0.86771 0.7854,-0.0579 1.6213,-0.14842 1.8572,-0.20091 0.3391,-0.0754 0.4672,-0.0117 0.6111,0.30384 0.1,0.21959 0.6641,0.92498 1.2536,1.56753 0.9557,1.0416 1.1256,1.33681 1.567,2.72255 0.2722,0.85484 0.5459,1.55426 0.6082,1.55426 0.062,0 0.2482,-0.20606 0.4133,-0.45793 0.7033,-1.07344 1.8707,-2.10577 3.1112,-2.75112 0.7138,-0.37134 1.4276,-0.8186 1.5862,-0.99391 0.2817,-0.31129 0.3027,-0.3074 0.8993,0.16618 0.3361,0.26672 1.1337,0.6977 1.7727,0.95775 0.9936,0.40443 1.3066,0.6431 2.1635,1.64992 0.5511,0.64739 1.0652,1.24609 1.1424,1.33045 0.081,0.0878 0.2099,-0.0288 0.3028,-0.27316 z m -1.2959,-3.70885 c -0.099,-0.11882 -0.778,-0.46913 -1.5098,-0.77848 -1.3626,-0.57598 -1.8807,-1.08453 -1.8807,-1.84591 0,-0.26542 0.1051,-0.35213 0.4284,-0.35213 0.4155,0 0.427,-0.0293 0.3781,-0.96616 l -0.05,-0.96617 -1.8764,-0.0284 -1.8765,-0.0284 -0.1126,0.81878 c -0.1332,0.96821 -0.042,1.17033 0.5331,1.17033 0.3832,0 0.4162,0.0486 0.313,0.46207 -0.1702,0.68196 -0.5459,1.02155 -1.8534,1.67548 -0.6469,0.32352 -1.3143,0.7101 -1.483,0.85907 -0.2874,0.25387 -0.3448,0.22489 -0.9155,-0.46232 -0.335,-0.40324 -0.8673,-1.00609 -1.1827,-1.33968 -0.7027,-0.74287 -0.8937,-1.20982 -0.7628,-1.86451 0.088,-0.4381 0.1657,-0.49693 0.6135,-0.46215 0.4718,0.0366 0.5367,-0.0252 0.8068,-0.76848 0.2735,-0.75302 0.2743,-0.81538 0.013,-0.91132 -0.1546,-0.0566 -0.8105,-0.32391 -1.4574,-0.5939 -1.832,-0.76461 -1.8288,-0.76471 -2.2332,0.0725 l -0.3519,0.72882 0.4213,0.35107 0.4214,0.35107 -0.5805,0.50965 c -0.5197,0.45635 -0.7363,0.52207 -2.0693,0.62821 -0.8188,0.0652 -1.6483,0.156 -1.8434,0.20178 -0.3013,0.0708 -0.371,-0.0134 -0.4636,-0.55921 -0.059,-0.35333 -0.297,-1.09611 -0.5267,-1.65061 -0.4975,-1.20053 -0.5194,-1.70839 -0.097,-2.25741 0.3024,-0.39342 0.3308,-0.39839 0.7409,-0.12955 0.4201,0.2752 0.4348,0.26944 0.9421,-0.37121 0.2835,-0.35792 0.5155,-0.70665 0.5155,-0.77498 0,-0.17489 -2.4364,-2.59988 -2.6121,-2.59988 -0.2279,0 -1.2526,1.05107 -1.2526,1.28483 0,0.1159 0.1241,0.28015 0.2757,0.36498 0.3746,0.20969 0.1751,0.47062 -0.5406,0.70679 -0.514,0.16965 -0.7855,0.13852 -1.9718,-0.22592 -0.7568,-0.23247 -1.5907,-0.46989 -1.8533,-0.52759 -0.3686,-0.0809 -0.45,-0.17033 -0.3576,-0.39192 0.066,-0.15786 0.1674,-1.0193 0.2254,-1.91433 0.098,-1.50433 0.143,-1.66643 0.6013,-2.14479 l 0.4959,-0.51747 0.3459,0.43384 0.3459,0.43383 0.8139,-0.34889 c 0.5036,-0.21586 0.7799,-0.42839 0.7245,-0.55743 -0.049,-0.1147 -0.3692,-0.88905 -0.7111,-1.7208 -0.342,-0.83174 -0.6448,-1.53886 -0.6732,-1.57138 -0.06,-0.069 -1.7536,0.47737 -1.7536,0.56578 0,0.0327 0.071,0.24595 0.1575,0.47374 0.1326,0.34907 0.1019,0.42858 -0.193,0.50583 -0.6735,0.17612 -1.2892,-0.10208 -2.5549,-1.15444 -0.7014,-0.58314 -1.3696,-1.09323 -1.4848,-1.13355 -0.1541,-0.0539 -0.1335,-0.15904 0.078,-0.39721 0.1578,-0.17815 0.5509,-0.90325 0.8736,-1.61134 0.5675,-1.24531 0.9404,-1.65025 1.7398,-1.88888 0.3259,-0.0973 0.3948,-0.039 0.4848,0.41057 0.1029,0.51335 0.1222,0.52297 0.9643,0.47398 l 0.8596,-0.0499 0.047,-1.86825 0.047,-1.86826 -0.5304,-0.10603 c -0.9312,-0.18622 -1.3284,-0.13013 -1.3311,0.18798 -0.011,0.62562 -0.2388,0.75822 -0.8699,0.49452 -0.4859,-0.20301 -0.7187,-0.50323 -1.3726,-1.76936 -0.4332,-0.83868 -0.8614,-1.57046 -0.9516,-1.62618 -0.2675,-0.16533 -0.1878,-0.38733 0.1811,-0.50441 0.1898,-0.0602 0.8136,-0.54651 1.3862,-1.08058 1.1424,-1.06542 1.5571,-1.26441 2.2967,-1.10198 0.4449,0.0977 0.4765,0.14828 0.3311,0.53071 -0.2136,0.56155 -0.1318,0.65502 0.7715,0.88249 0.8251,0.20776 1.0864,0.14504 1.0864,-0.26067 0,-0.14129 0.2648,-0.85882 0.5882,-1.59449 0.3235,-0.73567 0.5881,-1.36818 0.5881,-1.40559 0,-0.0375 -0.3576,-0.22619 -0.7946,-0.41952 l -0.7947,-0.35152 -0.3174,0.43571 c -0.3069,0.42129 -0.3284,0.42578 -0.6491,0.1355 -0.5302,-0.47977 -0.6273,-0.77728 -0.8012,-2.45425 -0.09,-0.87106 -0.2082,-1.6984 -0.262,-1.83851 -0.072,-0.18956 0.063,-0.28503 0.5329,-0.37307 0.3468,-0.0651 1.1108,-0.31053 1.6977,-0.54547 1.1499,-0.46036 2.0663,-0.45184 2.5418,0.0237 0.2245,0.22457 0.2179,0.29053 -0.059,0.59743 -0.3068,0.33892 -0.3022,0.35524 0.2542,0.92939 0.3115,0.32142 0.6479,0.58441 0.7475,0.58441 0.1,0 0.7603,-0.586 1.4684,-1.30222 l 1.2873,-1.30222 -0.5646,-0.66522 c -0.5436,-0.64041 -0.5814,-0.65624 -1.0141,-0.42465 -0.4077,0.21817 -0.4714,0.21062 -0.6847,-0.0811 -0.3392,-0.46387 -0.2915,-1.16797 0.1824,-2.69378 0.2297,-0.73932 0.4187,-1.48164 0.42,-1.64959 0,-0.20965 0.094,-0.27958 0.2966,-0.22308 0.1617,0.0452 1.0452,0.13406 1.9632,0.19734 1.5314,0.10559 1.7084,0.15416 2.1425,0.58823 0.5074,0.50752 0.6074,0.83506 0.2546,0.83506 -0.4818,0 -0.6147,0.3635 -0.3577,0.97857 0.4371,1.04628 0.4975,1.06923 1.5561,0.59232 0.5239,-0.23598 1.2813,-0.54441 1.6833,-0.6854 0.7892,-0.27687 0.8242,-0.42793 0.3727,-1.61277 -0.1594,-0.41818 -0.2415,-0.46197 -0.6844,-0.36471 -0.4925,0.10821 -0.5032,0.0965 -0.5032,-0.55214 0,-0.50703 0.1392,-0.83572 0.5927,-1.39959 0.3261,-0.4053 0.8625,-1.09608 1.1919,-1.53504 0.6186,-0.82376 0.8001,-0.934 1.0014,-0.60823 0.065,0.1045 0.7533,0.48794 1.5307,0.85219 1.1373,0.533 1.4654,0.77174 1.6806,1.22305 0.2875,0.60291 0.19,1.18447 -0.1749,1.04438 -0.4832,-0.18538 -0.6546,0.14928 -0.5323,1.03861 l 0.1184,0.86073 h 1.925 1.9248 l -0.05,-0.96615 c -0.044,-0.83735 -0.095,-0.96617 -0.3866,-0.96617 -0.4745,0 -0.5127,-0.593 -0.074,-1.15071 0.1986,-0.2524 0.9014,-0.72894 1.5617,-1.05899 0.6605,-0.33004 1.3394,-0.72244 1.5087,-0.87199 0.2853,-0.25201 0.3213,-0.24784 0.492,0.0571 0.1008,0.18095 0.6664,0.84255 1.2559,1.4702 1.0088,1.07409 1.0688,1.183 1.0203,1.85187 -0.049,0.67833 -0.074,0.70893 -0.5629,0.67274 -0.4654,-0.0345 -0.537,0.0313 -0.7968,0.73228 -0.157,0.42362 -0.2501,0.82732 -0.2071,0.8971 0.043,0.0698 0.7042,0.37337 1.469,0.67463 0.7648,0.30128 1.4624,0.61407 1.5501,0.69512 0.2868,0.26469 0.4169,0.15896 0.8456,-0.68697 l 0.4228,-0.8343 -0.378,-0.19663 c -0.2078,-0.10811 -0.4029,-0.21773 -0.4335,-0.2435 -0.1271,-0.10712 0.3419,-0.7543 0.6765,-0.93326 0.374,-0.20019 3.8194,-0.65656 4.042,-0.5354 0.069,0.0377 0.1259,0.24748 0.1259,0.46608 0,0.21859 0.2312,0.97484 0.5138,1.68053 0.4522,1.12928 0.491,1.35204 0.3238,1.85867 -0.2409,0.72967 -0.4308,0.84292 -0.9489,0.56563 -0.3857,-0.2064 -0.4567,-0.17858 -0.9922,0.38904 -0.3172,0.33624 -0.5768,0.64078 -0.5768,0.67676 0,0.036 0.5841,0.64958 1.2982,1.36354 1.422,1.42198 1.5346,1.44535 2.4209,0.50198 0.3458,-0.36818 0.3514,-0.41205 0.089,-0.70177 -0.3902,-0.4313 -0.3579,-0.51904 0.2912,-0.79024 0.4969,-0.20765 0.6869,-0.20552 1.4702,0.0164 0.4947,0.14019 1.3204,0.37059 1.8348,0.512 l 0.9354,0.25711 -0.06,1.45734 c -0.089,2.16665 -0.1667,2.47927 -0.7387,2.96057 -0.5164,0.43449 -0.8203,0.43783 -0.8203,0.009 0,-0.40817 -0.2857,-0.42965 -1.0959,-0.0824 -0.8974,0.3846 -0.896,0.22053 -0.019,2.35075 0.5316,1.29053 0.6297,1.42523 1.016,1.3971 0.5406,-0.0393 1.368,-0.44544 1.3291,-0.65218 -0.016,-0.0862 -0.081,-0.28914 -0.144,-0.45087 -0.099,-0.25398 -0.011,-0.29405 0.6574,-0.29405 0.689,0 0.8858,0.0966 1.8338,0.9008 0.584,0.49545 1.2277,0.9896 1.4304,1.0981 0.4185,0.22396 0.4755,0.55973 0.1421,0.83647 -0.1247,0.1034 -0.4381,0.6987 -0.6967,1.3228 -0.5589,1.34934 -0.9991,1.85284 -1.6811,1.92301 -0.4431,0.0456 -0.5108,-0.005 -0.5585,-0.42186 -0.053,-0.45759 -0.082,-0.47162 -0.8763,-0.41188 -0.4521,0.0341 -0.8746,0.11436 -0.9387,0.17856 -0.091,0.0909 -0.1469,2.76607 -0.077,3.64754 0.011,0.0924 0.4243,0.16802 0.9265,0.16802 0.8711,0 0.9155,-0.0213 0.9662,-0.46208 0.041,-0.35414 0.1316,-0.45003 0.3892,-0.4105 0.6348,0.0974 1.148,0.6371 1.7958,1.88799 0.3568,0.68913 0.7415,1.3931 0.8547,1.56436 0.1727,0.26104 0.1531,0.34255 -0.1206,0.50409 -0.1796,0.10602 -0.8382,0.66528 -1.4636,1.24287 -0.861,0.79523 -1.2577,1.05018 -1.6341,1.05018 -0.8231,0 -1.0301,-0.14184 -0.86,-0.58938 0.1008,-0.26509 0.084,-0.44449 -0.052,-0.5519 -0.3108,-0.24621 -1.4707,-0.58538 -1.5909,-0.4652 -0.1062,0.1057 -1.1492,2.58705 -1.3296,3.16144 -0.071,0.22635 0.094,0.37714 0.71,0.64969 l 0.8023,0.35496 0.3109,-0.39766 0.3109,-0.39765 0.4809,0.52437 c 0.413,0.45006 0.4974,0.71198 0.5963,1.84832 0.064,0.72817 0.1565,1.56628 0.207,1.86249 0.083,0.48647 0.046,0.54827 -0.3874,0.63917 -0.2636,0.0554 -0.9534,0.28558 -1.5328,0.51163 -1.2659,0.49381 -2.0495,0.52143 -2.5811,0.0909 l -0.3952,-0.32002 0.3343,-0.36941 0.3343,-0.36939 -0.6718,-0.56829 c -0.3695,-0.31255 -0.7474,-0.55983 -0.8399,-0.5495 -0.092,0.011 -0.7308,0.61497 -1.4185,1.34362 l -1.2504,1.32484 0.6519,0.66766 c 0.5858,0.59991 0.68,0.64234 0.9276,0.41818 0.4389,-0.39714 0.6417,-0.29678 0.8578,0.42447 0.18,0.60093 0.1534,0.81707 -0.2454,1.99471 -0.2459,0.7264 -0.4472,1.50595 -0.4472,1.73233 0,0.41001 -0.011,0.41135 -1.4702,0.35119 -2.1389,-0.0879 -2.4507,-0.16425 -2.995,-0.73403 l -0.4916,-0.51443 0.4496,-0.32858 0.4498,-0.32857 -0.3658,-0.75065 c -0.4099,-0.84184 -0.6023,-0.89461 -1.5322,-0.42053 -0.3572,0.18214 -1.015,0.45257 -1.4618,0.60095 -0.4466,0.14837 -0.8503,0.33143 -0.8969,0.40679 -0.046,0.0754 0.046,0.48798 0.2045,0.91692 0.2645,0.71388 0.332,0.77588 0.7968,0.7323 0.441,-0.0413 0.5146,0.012 0.5601,0.40614 0.029,0.24956 -0.041,0.62764 -0.1523,0.84014 -0.2697,0.50902 -2.2225,2.98324 -2.358,2.9875 -0.058,0.002 -0.1861,-0.0939 -0.2847,-0.21271 z m -1.5585,-7.43091 c 0.7477,-0.13649 1.3576,-0.34892 1.5292,-0.53276 0.554,-0.59346 11.9832,-20.64195 11.9612,-20.98155 -0.034,-0.52198 -0.9326,-2.63433 -1.1227,-2.63896 -0.092,-0.002 -2.3412,3.76822 -4.9989,8.37879 -2.6577,4.61058 -5.7844,10.02343 -6.9479,12.02857 -1.1636,2.00514 -2.1126,3.70642 -2.1091,3.78064 0.011,0.21484 0.36,0.20766 1.6882,-0.0347 z m -4.2141,0.0365 c -0.1019,-0.40894 -13.9519,-24.31494 -14.0865,-24.31494 -0.073,0 -0.3687,0.64726 -0.6549,1.43837 -0.4264,1.17826 -0.486,1.50491 -0.33,1.80631 0.1051,0.20236 2.8306,4.95421 6.0576,10.55968 l 5.867,10.19173 1.4622,0.26837 c 1.7605,0.32309 1.7528,0.32287 1.6846,0.0505 z m 10.9883,-2.8081 c 2.5478,-1.69673 5.0593,-4.8479 6.1799,-7.75379 0.6633,-1.72012 1.1766,-4.09039 1.1766,-5.43386 0,-1.14726 -0.155,-1.37282 -0.4693,-0.68286 -0.1651,0.36208 -7.278,12.75025 -8.1334,14.16536 -0.1816,0.30034 -0.2596,0.54608 -0.1734,0.54608 0.086,0 0.7251,-0.37841 1.4196,-0.84093 z m -18.0718,0.60142 c -0.05,-0.13173 -0.9403,-1.7007 -1.9773,-3.48658 -1.037,-1.78589 -2.9508,-5.09458 -4.2528,-7.35263 l -2.3673,-4.10555 -0.055,0.99703 c -0.2655,4.82107 3.0734,10.68182 7.8227,13.73107 0.8059,0.51742 0.9606,0.55785 0.8298,0.21666 z m 10.0117,-2.52444 c 0.8086,-1.42103 1.4702,-2.67398 1.4702,-2.78433 0,-0.12529 -0.1104,-0.15506 -0.294,-0.0793 -1.1436,0.47199 -3.6248,0.55996 -5.088,0.18042 -0.5053,-0.13105 -0.9415,-0.2153 -0.9696,-0.18721 -0.1051,0.10493 3.0767,5.46607 3.2405,5.4602 0.094,-0.003 0.8323,-1.16879 1.6409,-2.5898 z m 0.2941,-4.97697 c 1.6024,-0.4635 3.2598,-1.64906 4.1227,-2.94902 1.183,-1.78232 1.5853,-3.67197 1.1876,-5.57904 -0.357,-1.71261 -0.855,-2.62877 -2.1204,-3.9019 -1.2614,-1.2692 -2.6349,-1.9267 -4.3948,-2.10381 -5.7399,-0.57769 -9.9099,5.36677 -7.439,10.60451 0.6446,1.36646 2.1066,2.80057 3.538,3.47037 0.9916,0.46402 1.3343,0.53424 2.8231,0.57855 0.932,0.0277 1.9593,-0.0261 2.2828,-0.11966 z m -4.2194,-2.49378 c -1.8859,-0.96995 -2.915,-2.63852 -2.9111,-4.71983 0,-1.10772 0.071,-1.3882 0.5695,-2.31803 0.5937,-1.10792 1.2641,-1.74631 2.5283,-2.4082 1.1196,-0.58614 3.1076,-0.55745 4.3028,0.0621 1.0851,0.56246 2.3079,1.91228 2.6549,2.93076 0.3085,0.90552 0.346,2.28201 0.09,3.29726 -0.3551,1.40665 -1.7292,2.82731 -3.3007,3.41275 -0.9523,0.35473 -3.0049,0.22072 -3.9333,-0.25678 z m 13.5668,-9.25586 c 0.8437,-1.47045 1.4927,-2.71488 1.4422,-2.76539 -0.1063,-0.10613 -6.2529,-0.12727 -6.2529,-0.0216 0,0.0387 0.2836,0.38288 0.6301,0.7649 0.9137,1.00713 1.8098,2.5459 2.1563,3.70242 0.1659,0.55402 0.3441,1.00413 0.3959,1.00023 0.053,-0.004 0.7846,-1.21018 1.6284,-2.68064 z m -20.7797,2.28408 c 0.096,-0.25211 0.1744,-0.54796 0.1745,-0.65747 3e-4,-0.45051 1.0276,-2.28445 1.8298,-3.26646 0.4721,-0.57806 0.8585,-1.08845 0.8585,-1.13419 0,-0.0458 -1.3988,-0.0831 -3.1086,-0.0831 -1.7096,0 -3.1084,0.0398 -3.1084,0.0885 0,0.11367 2.8639,5.154 3.0442,5.35772 0.076,0.0858 0.2126,-0.0487 0.31,-0.305 z m 23.6984,-7.23511 c 0,-0.12816 -1.5238,-2.00067 -1.8854,-2.31692 -0.3135,-0.27416 -1.1459,-0.29406 -12.2968,-0.29406 h -11.9604 l -0.6809,0.71412 c -0.6753,0.7081 -1.4054,1.68178 -1.4054,1.87425 0,0.0551 6.3516,0.10011 14.1144,0.10011 7.763,0 14.1145,-0.0348 14.1145,-0.0774 z m -5.4694,-5.121 c -0.3199,-0.31589 -2.5419,-1.31764 -3.6883,-1.66278 -3.1498,-0.94842 -7.0215,-0.95081 -9.9976,-0.007 -1.3654,0.43337 -3.6966,1.49604 -3.6966,1.68506 0,0.0779 3.9469,0.14154 8.7711,0.14154 5.4628,0 8.7108,-0.0595 8.6114,-0.15763 z" id="path21960"/>
      <path style="fill:url(#linearGradient113742);fill-opacity:1;stroke-width:0.194476" d="m -1786.2703,-238.179 c 0.1509,-0.24066 0.3765,-0.75948 0.5011,-1.15293 0.487,-1.53726 1.6757,-3.01381 3.5528,-4.41322 0.9935,-0.74077 2.1081,-1.66205 2.4767,-2.0473 0.3686,-0.38524 0.7534,-0.70043 0.8552,-0.70043 0.1016,0 0.5587,0.3063 1.0155,0.68066 0.4569,0.37438 1.0097,0.68068 1.2287,0.68068 0.597,0 0.8575,-0.63884 0.6156,-1.51003 -0.3613,-1.30116 -0.2861,-1.5433 0.5253,-1.69147 0.4011,-0.0732 1.517,-0.46681 2.4796,-0.87462 0.9627,-0.4078 2.169,-0.8827 2.6808,-1.05534 1.045,-0.35245 3.1119,-0.40368 4.3907,-0.10881 1.4731,0.33967 1.8619,-0.53604 0.7818,-1.76089 -1.4347,-1.62687 -2.0501,-3.19428 -2.3269,-5.92586 -0.1087,-1.07274 -0.32,-2.36705 -0.4697,-2.87622 -0.2614,-0.88894 -0.2552,-0.93641 0.1555,-1.1938 0.2353,-0.14742 0.7559,-0.37211 1.157,-0.4993 0.5022,-0.15921 0.7653,-0.37458 0.8449,-0.69129 0.16,-0.6377 0.028,-0.78047 -1.0988,-1.18556 -1.3122,-0.47185 -1.4132,-0.62603 -1.0621,-1.62104 0.1598,-0.45292 0.3759,-1.7252 0.4804,-2.82726 0.1044,-1.10207 0.3606,-2.45311 0.5693,-3.0023 0.4274,-1.12501 1.389,-2.69893 1.9701,-3.22488 0.479,-0.43346 0.502,-1.18674 0.043,-1.432 -0.2061,-0.11035 -0.6911,-0.11646 -1.2154,-0.0153 -2.2431,0.43268 -4.1516,0.0922 -6.9985,-1.24859 -0.5883,-0.27707 -1.5291,-0.60682 -2.0906,-0.73277 -1.125,-0.25234 -1.1715,-0.35324 -0.8343,-1.80748 0.3595,-1.55012 -0.5277,-1.92999 -1.8376,-0.78688 -0.4267,0.37231 -0.8684,0.67693 -0.9816,0.67693 -0.1131,0 -0.5517,-0.35641 -0.9745,-0.79203 -0.4228,-0.43562 -1.3376,-1.19292 -2.0329,-1.6829 -2.2319,-1.573 -3.4648,-3.15535 -4.0917,-5.25183 -0.3893,-1.30176 -1.3506,-1.34749 -1.7599,-0.0837 -0.7413,2.28912 -1.8438,3.64229 -4.6769,5.73989 -0.8169,0.60487 -1.6284,1.31821 -1.8034,1.58518 -0.4219,0.64403 -0.6725,0.61378 -1.6177,-0.19523 -1.4148,-1.21102 -2.0191,-0.87322 -1.8719,1.04644 l 0.099,1.28728 -1.8138,0.61139 c -0.9976,0.33626 -2.3826,0.85826 -3.0779,1.16 -1.0706,0.46462 -1.532,0.54965 -3.0143,0.55546 -0.9627,0.003 -2.071,-0.0671 -2.463,-0.15753 -0.6398,-0.14757 -0.746,-0.11346 -1.0391,0.33378 -0.3208,0.48957 -0.3113,0.51753 0.5493,1.62296 1.6085,2.06593 1.9386,2.95436 2.2667,6.10037 0.1069,1.02517 0.3252,2.23474 0.4851,2.68794 l 0.2907,0.82401 -1.2361,0.56046 c -0.6798,0.30826 -1.2842,0.68578 -1.3429,0.83893 -0.1646,0.42886 0.3678,1.03653 1.0229,1.16753 0.3242,0.0648 0.8026,0.25756 1.0631,0.42824 0.4616,0.30244 0.4663,0.33095 0.1874,1.1216 -0.1575,0.4462 -0.3813,1.73093 -0.4976,2.85496 -0.2503,2.42169 -0.8544,4.18527 -1.8605,5.4316 -0.3955,0.4898 -0.7758,0.93431 -0.8453,0.9878 -0.2417,0.1863 -0.363,0.87698 -0.1996,1.13723 0.182,0.28962 0.348,0.29635 2.7615,0.11183 1.873,-0.1432 3.0297,0.10288 5.214,1.10927 0.6848,0.31549 1.7679,0.71898 2.4068,0.89664 l 1.1619,0.32301 -0.1176,1.25911 c -0.1819,1.9478 0.3616,2.27162 1.84,1.09633 1.0113,-0.80386 1.1987,-0.83013 1.5961,-0.22368 0.1654,0.25238 0.9849,0.96582 1.8213,1.58544 2.8653,2.12285 3.8578,3.28019 4.558,5.31549 0.5032,1.46233 1.0725,1.80104 1.6038,0.95408 z m -1.3094,-4.10765 c -0.7286,-1.05792 -1.8371,-2.0852 -3.4292,-3.17782 -0.4813,-0.33034 -1.1264,-0.86593 -1.4336,-1.19021 l -0.5586,-0.58959 0.6559,-0.10792 c 0.3606,-0.0593 1.1314,-0.1876 1.7128,-0.28499 0.5815,-0.0974 1.1649,-0.13574 1.2965,-0.0852 0.3541,0.13587 1.2041,1.49187 1.5949,2.54457 0.2807,0.75595 0.4279,0.92143 0.8198,0.92143 0.4005,0 0.5944,-0.23562 1.2006,-1.45857 1.0229,-2.06351 1.1314,-2.12916 3.057,-1.85002 0.8643,0.12529 1.6281,0.28438 1.6972,0.35354 0.2051,0.20505 -0.3175,0.70712 -2.0921,2.00991 -1.7445,1.28078 -2.771,2.29247 -3.3913,3.34256 -0.2004,0.33934 -0.3748,0.61697 -0.3874,0.61697 -0.013,0 -0.3468,-0.47009 -0.7425,-1.04464 z m -2.4098,-8.17959 c -0.4506,-0.3135 -0.7854,-0.604 -0.7437,-0.64556 0.041,-0.0415 0.6125,0.0301 1.2688,0.15924 1.3508,0.26578 5.2434,0.15168 6.0794,-0.17819 0.8841,-0.34881 0.4634,0.17539 -0.8725,1.08719 -0.6648,0.45379 -1.5085,1.19949 -1.8747,1.65712 l -0.6661,0.83206 -1.1858,-1.17092 c -0.6523,-0.64401 -1.5546,-1.42743 -2.0054,-1.74094 z m 9.0393,1.4376 -1.3182,-0.22875 0.7877,-0.85458 c 0.4333,-0.47001 0.8823,-1.06194 0.9977,-1.31538 0.1773,-0.38917 0.3959,-0.47909 1.4057,-0.57845 0.6576,-0.0647 1.4362,-0.17366 1.7302,-0.24214 l 0.5347,-0.12451 -0.486,1.29118 c -0.2674,0.71013 -0.486,1.62464 -0.486,2.03222 0,0.40758 -0.051,0.79152 -0.1122,0.85319 -0.062,0.0617 -0.4773,-0.0491 -0.9237,-0.24596 -0.4465,-0.19694 -1.4049,-0.46102 -2.1299,-0.58682 z m -15.4931,-2.14977 c -0.2198,-0.57834 -0.3997,-1.10435 -0.3998,-1.1689 0,-0.0645 0.4566,0.002 1.0147,0.14585 0.5581,0.14478 1.3458,0.26323 1.7502,0.26323 0.4741,0 0.7356,0.0899 0.7356,0.2529 0,0.13909 0.4367,0.74286 0.9705,1.34171 l 0.9704,1.08881 -1.2733,0.22175 c -0.7004,0.12195 -1.684,0.38356 -2.186,0.58134 l -0.9126,0.3596 -0.135,-1.01738 c -0.074,-0.55956 -0.3149,-1.49057 -0.5347,-2.06891 z m 21.3708,-0.85759 0.7896,-1.70902 1.9472,0.1073 c 1.7779,0.098 1.9644,0.0751 2.1456,-0.26347 0.2198,-0.41064 0.014,-0.93505 -0.6364,-1.6226 -0.4194,-0.44327 -1.1236,-1.72782 -1.1236,-2.0495 0,-0.28261 1.9361,-2.92192 2.1433,-2.92192 0.3046,0 0.3909,0.34456 0.6679,2.66249 0.2753,2.30409 0.7575,4.0572 1.3753,5.0001 l 0.3312,0.50544 h -0.9874 c -1.0577,0 -2.8214,0.52523 -5.4732,1.63012 -0.9082,0.37836 -1.7228,0.61641 -1.8101,0.52901 -0.087,-0.0874 0.1963,-0.92799 0.6306,-1.86795 z m -25.6141,1.00487 c -1.8753,-0.82451 -3.5839,-1.29605 -4.6963,-1.29605 h -0.8017 l 0.4698,-0.92702 c 0.6439,-1.27066 0.867,-2.18899 1.1706,-4.81831 0.1433,-1.24063 0.3461,-2.34116 0.4505,-2.4456 0.1236,-0.12357 0.5782,0.33255 1.3014,1.30555 1.0648,1.43263 1.1015,1.52085 0.8737,2.09981 -0.1307,0.33237 -0.5736,1.04998 -0.9844,1.59467 -0.7794,1.0335 -0.9136,1.50467 -0.5038,1.76884 0.1337,0.0862 1.1079,0.15698 2.1647,0.15733 l 1.9215,5.8e-4 0.7299,1.65305 c 0.4014,0.90917 0.6951,1.71224 0.6526,1.78458 -0.1092,0.18602 -0.914,-0.0709 -2.7485,-0.87749 z m 10.9418,-1.70929 c -3.5832,-0.92322 -7.0055,-4.31044 -7.8352,-7.75479 -1.2843,-5.33165 0.9954,-10.6 5.5955,-12.93107 3.0699,-1.55561 7.3128,-1.55857 10.2519,-0.007 1.9898,1.05025 3.6702,2.78453 4.7898,4.94346 1.5472,2.98326 1.599,6.67243 0.1368,9.76399 -2.2399,4.73647 -7.8014,7.30925 -12.9388,5.98558 z m 12.6367,-2.45529 c 1.1422,-1.36952 2.3936,-3.72508 2.5759,-4.84876 0.094,-0.57651 0.4428,-1.12875 0.4428,-0.70021 0,0.89019 0.4817,3.58191 0.7735,4.32204 l 0.3692,0.93693 -0.9707,0.12877 c -0.534,0.0709 -1.6443,0.42888 -2.4675,0.79567 -0.8233,0.36678 -1.5691,0.66944 -1.6574,0.67258 -0.088,0.003 0.3321,-0.58503 0.9342,-1.30702 z m -20.2233,0.63458 c -0.8545,-0.37298 -1.9695,-0.73431 -2.4775,-0.80296 -0.5081,-0.0686 -0.9238,-0.13543 -0.9237,-0.14839 10e-5,-0.0129 0.1719,-0.47552 0.3819,-1.02791 0.2099,-0.55239 0.4413,-1.60256 0.5143,-2.33372 0.073,-0.73116 0.1937,-1.49937 0.2683,-1.70715 0.1174,-0.32656 0.154,-0.3002 0.2704,0.19448 0.3304,1.40375 1.8188,4.43468 2.4318,4.95201 0.4884,0.41218 1.4243,1.55178 1.2743,1.55178 -0.1022,0 -0.8852,-0.30516 -1.7398,-0.67814 z m 24.1166,-8.41084 c -0.3457,-0.58522 -0.3456,-0.61993 0,-1.14851 0.1965,-0.29978 0.4962,-1.01356 0.6662,-1.58617 l 0.3091,-1.04112 0.645,0.86087 c 0.3548,0.47348 1.0799,1.19252 1.6114,1.59785 l 0.9664,0.73698 -0.6405,0.54815 c -0.3523,0.30148 -0.7033,0.5517 -0.78,0.55605 -0.077,0.005 -0.5074,0.49498 -0.9568,1.09029 l -0.8173,1.0824 -0.3238,-1.04667 c -0.1781,-0.57567 -0.4843,-1.31822 -0.6804,-1.65012 z m -31.2265,-0.34745 c -0.3503,-0.11116 -0.312,-0.18109 0.3677,-0.6735 0.4172,-0.3022 1.1852,-1.04379 1.7069,-1.64798 l 0.9484,-1.09852 0.2494,0.9845 c 0.1371,0.54147 0.4145,1.25589 0.6162,1.58759 l 0.3668,0.60311 -0.565,1.19418 c -0.3107,0.65679 -0.565,1.40748 -0.5651,1.66819 -2e-4,0.40669 -0.1943,0.26326 -1.3674,-1.00976 -0.7519,-0.81608 -1.543,-1.5396 -1.7579,-1.60781 z m 29.7662,-4.18407 c -0.5129,-1.59525 -1.4074,-3.15005 -2.6466,-4.6005 -0.4849,-0.56771 -0.8039,-1.03221 -0.7087,-1.03221 0.095,0 0.6077,0.20965 1.1388,0.46587 1.1384,0.54918 2.8825,1.08995 3.5154,1.08995 h 0.448 l -0.3786,0.96039 c -0.297,0.75363 -0.7826,3.44264 -0.7826,4.33401 0,0.41182 -0.1864,0.0243 -0.5857,-1.21751 z m -25.1613,-0.64158 c -0.073,-0.73116 -0.3023,-1.77612 -0.5099,-2.32213 -0.2075,-0.54601 -0.3574,-1.00499 -0.3332,-1.01996 0.024,-0.0149 0.5691,-0.13975 1.2108,-0.27732 0.6419,-0.13756 1.7261,-0.50248 2.4093,-0.81091 0.6833,-0.30844 1.3252,-0.56081 1.4264,-0.56081 0.1013,0 -0.2955,0.54698 -0.8814,1.21549 -1.1695,1.33409 -2.0614,2.94057 -2.5948,4.67379 -0.3991,1.29656 -0.5235,1.14274 -0.7272,-0.89815 z m 28.9635,0.35888 c -0.5925,-0.8012 -1.0772,-1.5421 -1.0772,-1.64647 0,-0.40862 0.712,-1.67401 1.3118,-2.33125 0.6748,-0.73954 0.7315,-0.91548 0.4423,-1.37229 -0.1443,-0.22774 -0.6141,-0.2917 -2.1426,-0.2917 -1.5279,0 -1.9987,-0.0641 -2.1439,-0.29172 -0.3918,-0.61428 -1.3786,-3.15496 -1.2684,-3.26533 0.064,-0.0637 0.7919,0.17132 1.618,0.52235 2.5978,1.10386 4.0583,1.57485 5.279,1.70244 0.6502,0.068 1.1822,0.1592 1.1822,0.20275 0,0.0436 -0.1423,0.35439 -0.3162,0.69075 -0.5161,0.99806 -1.0001,2.93051 -1.1412,4.55648 -0.1293,1.49073 -0.4214,2.98068 -0.5844,2.98068 -0.045,0 -0.5669,-0.65552 -1.1594,-1.45669 z m -33.4321,0.63016 c -0.063,-0.34763 -0.2072,-1.46068 -0.32,-2.47344 -0.2138,-1.91899 -0.5073,-2.99712 -1.169,-4.29426 l -0.3919,-0.76827 h 0.675 c 1.186,0 2.6834,-0.40558 4.6837,-1.26859 2.3729,-1.02373 3.1197,-1.2377 2.9707,-0.85115 -0.058,0.14972 -0.3965,0.94988 -0.7529,1.77815 -0.5935,1.37897 -0.7036,1.51636 -1.3064,1.62945 -0.3621,0.0679 -1.228,0.0651 -1.9243,-0.006 -2.0093,-0.20587 -2.2848,0.28891 -1.0629,1.90923 0.4108,0.54468 0.8546,1.26446 0.9865,1.59949 0.2296,0.5836 0.1962,0.6668 -0.7954,1.98266 -0.5694,0.75542 -1.1349,1.37833 -1.2567,1.38423 -0.1218,0.006 -0.2732,-0.27368 -0.3364,-0.62131 z m 7.931,-8.96323 c 0.2767,-0.80189 0.5032,-1.78084 0.5032,-2.17542 0,-0.60989 0.051,-0.69528 0.3404,-0.56969 1.0165,0.4413 2.3447,0.85467 2.7712,0.86257 0.2675,0.005 0.6827,0.0617 0.9228,0.126 0.4141,0.111 0.3866,0.17174 -0.5348,1.17988 -0.5343,0.58459 -0.9714,1.1744 -0.9714,1.31071 0,0.16626 -0.4469,0.28531 -1.3578,0.36168 -0.7469,0.0626 -1.5119,0.20001 -1.7001,0.30533 -0.1882,0.10532 -0.3725,0.16122 -0.4094,0.12422 -0.037,-0.037 0.1591,-0.72338 0.4359,-1.52528 z m 17.2967,1.10587 c -1.0098,-0.0994 -1.2284,-0.18928 -1.4057,-0.57844 -0.1154,-0.25344 -0.562,-0.84269 -0.9922,-1.30943 -0.4302,-0.46674 -0.7822,-0.88588 -0.7822,-0.93142 0,-0.0455 0.3582,-0.0971 0.7961,-0.11453 0.8289,-0.0331 2.6297,-0.5498 3.0363,-0.87128 0.3851,-0.30448 0.6406,0.0181 0.6406,0.8087 0,0.40881 0.2221,1.33338 0.4935,2.05461 l 0.4936,1.31134 -0.5422,-0.12595 c -0.2982,-0.0693 -1.0802,-0.1789 -1.7378,-0.2436 z m -7.5625,-1.23443 c -0.9731,0 -2.2754,0.0935 -2.8938,0.20785 -0.6184,0.11432 -1.1584,0.17393 -1.1998,0.13245 -0.041,-0.0415 0.2895,-0.33192 0.7356,-0.64542 0.4461,-0.31352 1.3454,-1.10028 1.9984,-1.74837 l 1.1872,-1.17835 0.8457,0.94752 c 0.4651,0.52113 1.3587,1.30928 1.9857,1.75144 0.627,0.44216 1.1399,0.8614 1.1399,0.93163 0,0.0703 -0.4566,0.009 -1.0148,-0.13552 -0.558,-0.14478 -1.8109,-0.26323 -2.7841,-0.26323 z m 1.5486,-3.9116 c -0.2778,-0.43999 -0.6704,-1.18572 -0.8725,-1.65718 -0.606,-1.4136 -1.4121,-1.38435 -1.8406,0.0667 -0.2292,0.77629 -0.9337,1.94922 -1.3477,2.24369 -0.2232,0.15878 -2.8966,-0.0229 -3.4922,-0.23732 -0.3335,-0.12005 -0.2973,-0.2013 0.356,-0.79858 0.4001,-0.36571 1.0509,-0.88371 1.4462,-1.15112 1.4634,-0.98972 2.5406,-1.99141 3.2514,-3.02362 0.4017,-0.58321 0.7472,-1.06039 0.7678,-1.06039 0.021,0 0.3565,0.4806 0.7465,1.06801 0.4191,0.63126 1.325,1.54701 2.2154,2.23935 2.3096,1.79603 3.1895,2.56162 3.0753,2.67582 -0.1085,0.10845 -2.0773,0.36171 -3.171,0.40795 -0.5384,0.0227 -0.7029,-0.0894 -1.1346,-0.77337 z" id="path21962"/>
    </g>
  </g>
</svg>