<svg xmlns:dc="http://purl.org/dc/elements/1.1/" xmlns:cc="http://creativecommons.org/ns#" xmlns:rdf="http://www.w3.org/1999/02/22-rdf-syntax-ns#" xmlns:svg="http://www.w3.org/2000/svg" xmlns="http://www.w3.org/2000/svg" xmlns:sodipodi="http://sodipodi.sourceforge.net/DTD/sodipodi-0.dtd" xmlns:inkscape="http://www.inkscape.org/namespaces/inkscape" width="16.178394mm" height="20.058355mm" viewBox="0 0 16.178394 20.058355" version="1.1" id="svg3295" sodipodi:docname="multipage-export-4wg07kgw.svg">
  <defs id="defs3289">
    <clipPath clipPathUnits="userSpaceOnUse" id="clipPath9813-7">
      <path style="fill:#fddd94;fill-opacity:1;stroke:none;stroke-width:0.588001;stroke-miterlimit:10;stroke-dasharray:none;stroke-opacity:1" d="m -673.34854,16.438249 c -61.00238,23.071425 -91.89465,36.366813 -95.41402,57.874059 -3.51934,21.50727 58.26509,46.533872 70.38741,40.668262 12.12231,-5.86562 57.092,-30.110153 56.70089,-22.680381 -0.39101,7.429799 -81.33653,29.328071 -14.85944,37.930981 66.47686,8.60291 106.36304,-16.03268 110.66453,-23.46245 18.06129,-14.669231 10.686,-45.314288 17.20582,-67.650097 9.38499,-26.981821 18.37891,-37.148879 10.167,-45.3607435 -8.2118,-8.2118575 -104.79894,-24.2445385 -117.31223,-14.4685195 -12.51339,9.77603 -37.53996,37.148889 -37.53996,37.148889 z" id="path9815-3" sodipodi:nodetypes="cssssccssc"/>
    </clipPath>
    <clipPath clipPathUnits="userSpaceOnUse" id="clipPath7563-5">
      <path style="fill:#ffd64b;fill-opacity:0.413386;stroke:none;stroke-width:0.97368;stroke-miterlimit:10;stroke-dasharray:none;stroke-opacity:1" d="m -1.7543223,238.04606 c 0,-13.9606 4.7693128,-14.49886 4.8475211,-24.1043 0.078747,-9.60542 -26.5784748,-1.61898 -47.7298908,-16.67853 -21.151253,-15.05956 -14.378503,-38.2137 -32.541905,-61.70838 -18.163403,-23.49466 -69.267293,-75.251 -69.267293,-75.251 39.36822,5.884223 271.83555,-1.02152 271.83555,-1.02152 0,0 21.96412,57.81769 19.6225,77.63373 -2.418,71.1294 -72.924245,33.70145 -87.537051,49.31135 -2.828851,4.5047 -10.013312,8.45265 -11.840041,24.00661 -1.826997,15.55397 -10.412159,21.50282 -19.066755,30.19555 -8.654596,8.69275 -27.7068182,0 -27.7068182,0 z" id="path7565-8" sodipodi:nodetypes="ccssccccsscc"/>
    </clipPath>
    <clipPath clipPathUnits="userSpaceOnUse" id="clipPath8789-1">
      <path id="path8791-4" style="display:inline;fill:#efe4a5;fill-opacity:0.633858;stroke:none;stroke-width:3.35361;stroke-opacity:0.448819" d="M 751.1853,521.62742 C 717.16394,459.98384 731.20966,404.04024 770.79474,352.68884 817.29742,292.36371 874.20772,51.601234 954.67924,2.154959 c 72.04936,-44.271283 211.97266,-33.977544 255.76216,-72.256757 246.3573,-76.058602 507.9915,356.516628 378.579,487.678458 -84.0552,85.68768 12.999,97.35161 -10.8027,116.37904 96.778,111.36346 -179.7943,124.84193 -354.8578,60.57978 -66.5277,-19.21589 -155.0098,103.58326 -218.2073,75.09672 C 917.35165,648.97838 798.88478,606.30226 751.1853,521.62742 Z" sodipodi:nodetypes="csscccccc"/>
    </clipPath>
    <clipPath clipPathUnits="userSpaceOnUse" id="clipPath9194-5-1">
      <path id="path9196-8-7" style="display:inline;fill:#659d40;fill-opacity:1;stroke:none;stroke-width:0.571103;stroke-opacity:0.448819" d="m -1036.2332,619.5894 c -1.5244,-6.69685 -9.5198,-11.11949 -12.0158,-17.84107 -3.133,-8.43706 -4.5099,-17.90835 -3.1892,-26.81086 1.5579,-10.50097 5.1402,-21.8009 12.7814,-29.17042 9.8866,-9.53519 24.9163,-12.14266 38.3161,-15.1611 19.65289,-4.42698 42.47003,-13.37752 60.30308,-4.00646 21.8377,11.47546 32.71488,39.46904 37.84639,63.59867 2.86761,13.4843 3.07944,29.79914 -4.85698,41.07135 -6.32267,8.98014 -18.83307,12.0587 -29.49969,14.6745 -22.17677,5.43851 -46.04472,5.52808 -68.4889,1.3271 -6.4267,-1.20293 -13.119,-3.2667 -18.1461,-7.44725 -6.171,-5.13173 -11.1706,-11.97676 -13.0503,-20.23446 z" sodipodi:nodetypes="saaaaaaaaaas"/>
    </clipPath>
    <rect x="-182.28062" y="-155.58829" width="297.40536" height="147.64027" id="rect22825"/>
  </defs>
  <sodipodi:namedview id="base" pagecolor="#ffffff" bordercolor="#666666" borderopacity="1.0" inkscape:pageopacity="0.0" inkscape:pageshadow="2" inkscape:zoom="0.25517133" inkscape:cx="1671.2508" inkscape:cy="148.44944" inkscape:document-units="mm" inkscape:current-layer="layer1" inkscape:document-rotation="0" showgrid="false" inkscape:window-width="1920" inkscape:window-height="1001" inkscape:window-x="-9" inkscape:window-y="-9" inkscape:window-maximized="1"/>
  <metadata id="metadata3292">
    <rdf:RDF>
      <cc:Work rdf:about="">
        <dc:format>image/svg+xml</dc:format>
        <dc:type rdf:resource="http://purl.org/dc/dcmitype/StillImage"/>
      </cc:Work>
    </rdf:RDF>
  </metadata>
  <g inkscape:label="Layer 1" inkscape:groupmode="layer" id="layer1" transform="translate(-135.68779,-161.38934)">
    <g id="g26289" transform="translate(-97.882725,-102.4861)">
      <g id="g16493" transform="matrix(0.97792078,0,0,0.97792078,692.7643,1252.2587)">
        <path id="path16590" style="fill:#c8e9cf;fill-opacity:1;stroke-width:0.0940773;paint-order:markers fill stroke" d="m -454.71791,-990.5359 c -0.12396,0.11417 0.12764,0.18599 0.22006,0.1732 0.44695,-0.29189 0.45695,-0.55442 0.4405,-0.89358 -0.0269,-0.11256 -0.0311,-0.23386 -0.0793,-0.33923 -0.091,0.41915 -0.033,0.86277 -0.58126,1.05961 z" sodipodi:nodetypes="ccccc"/>
      </g>
      <path id="path16488" style="display:inline;fill:#4e8f80;fill-opacity:1;stroke-width:0.264583" d="m 235.28966,263.96552 c -0.8049,0.52758 -1.39518,2.79861 -1.58382,3.66593 -0.47503,3.14079 0.29151,5.72475 2.44333,7.92053 2.47566,2.38865 6.05256,2.80062 9.28324,3.3775 0.73682,0.0496 1.505,0.48837 2.22706,0.21774 0.38428,-0.75788 -0.1798,0.74485 -0.0266,1.14375 -0.0117,0.97618 -0.89765,3.69862 0.55441,3.64195 1.16432,0.024 0.39568,-2.68663 0.30277,-3.25235 -0.20951,-1.25052 0.62469,-2.37205 0.66595,-3.61323 0.28735,-2.51797 0.13643,-4.776 -1.87179,-6.08309 -2.63415,-1.54844 -5.72702,-1.9223 -8.56647,-2.87734 -1.49301,-0.42833 -2.87782,-1.38434 -3.74792,-2.67031 -0.0591,-0.50343 0.58805,-0.26257 0,0 z" sodipodi:nodetypes="cccccccccccccc"/>
      <path style="display:inline;fill:#c8e9cf;fill-opacity:1;stroke-width:0.264583" d="m 248.33075,279.84648 c 0.0845,-0.33681 0.12682,-0.72376 0.094,-0.8599 -0.0329,-0.13613 0.25627,-0.90233 0.6425,-1.70276 1.12008,-2.321 0.86926,-4.18482 -0.82246,-6.11162 -1.07039,-1.21907 -2.51997,-1.90401 -6.01075,-2.84017 -1.60073,-0.42921 -3.35283,-0.97186 -3.89355,-1.20578 -1.26149,-0.54568 -2.85332,-2.1346 -2.85332,-2.84819 0,-0.96364 -0.67844,-0.0949 -1.18587,1.51812 -0.65537,2.08366 -0.4577,4.10473 0.61444,6.28256 1.38739,2.81817 3.36459,4.01104 7.97977,4.81401 1.23692,0.21524 2.58943,0.46725 3.00557,0.55996 0.74025,0.16487 0.7527,0.14913 0.57558,-0.72777 -0.28107,-1.39149 -0.92218,-2.66777 -1.81254,-3.60824 -0.44776,-0.47292 -0.67647,-0.85988 -0.50827,-0.85988 0.34537,0 2.14137,1.86294 2.63666,2.73485 0.55604,0.9789 0.91947,2.61985 0.90211,4.07301 -0.017,1.42338 0.35913,1.88562 0.63616,0.7818 z" id="path16486" sodipodi:nodetypes="sssscsscssssssssss"/>
      <path id="path16546" style="fill:#4e8f80;fill-opacity:1;stroke-width:0.111856" d="m 240.5972,268.12517 -0.006,0.0382 c -0.0477,0.30761 -0.16698,0.65032 -0.26458,0.76171 -0.14084,0.1606 -0.14799,0.22106 -0.0341,0.29147 0.10316,0.0638 0.0391,0.15653 -0.22789,0.32866 -0.35751,0.23072 -0.36241,0.24252 -0.12041,0.30904 0.30782,0.0846 0.32518,0.22815 0.0382,0.31935 -0.11747,0.0373 -0.28078,0.15086 -0.36328,0.25217 -0.13059,0.16076 -0.12356,0.1746 0.0553,0.1075 0.13861,-0.0519 0.18953,-0.0315 0.15813,0.063 -0.0846,0.25419 -0.41961,0.23315 -0.41961,-0.0264 0,-0.13104 -0.05,-0.20759 -0.11162,-0.16949 -0.18259,0.1129 -0.12702,-0.18716 0.0811,-0.4382 0.1062,-0.1279 0.12119,-0.16992 0.0336,-0.093 -0.20387,0.17907 -0.34084,0.17907 -0.29714,0 0.0188,-0.0771 0.0121,-0.0997 -0.0145,-0.0512 -0.0267,0.0488 -0.12909,0.0237 -0.22789,-0.0558 -0.15293,-0.12308 -0.15136,-0.1038 0.0109,0.13179 0.23323,0.33864 0.24399,0.49517 0.0284,0.41235 -0.1089,-0.0415 -0.14133,-0.009 -0.0997,0.0997 0.0353,0.0922 -0.004,0.16296 -0.0899,0.1638 -0.12146,0.001 -0.12295,0.0205 -0.009,0.093 0.1006,0.064 0.1134,0.17121 0.0429,0.36174 -0.0551,0.14891 -0.13195,0.25829 -0.17105,0.24289 -0.0391,-0.0154 -0.15658,-0.0279 -0.26045,-0.0279 -0.15901,0 -0.14972,0.0359 0.0563,0.22789 0.25703,0.23947 0.31972,0.44289 0.13642,0.44289 -0.0596,0 -0.0794,0.0756 -0.0439,0.16793 0.0353,0.0924 0.007,0.16795 -0.0631,0.16795 -0.07,0 -0.15622,-0.0756 -0.19172,-0.16795 -0.0354,-0.0923 -0.13434,-0.16793 -0.22014,-0.16793 -0.21059,0 -0.19718,-0.39222 0.0253,-0.73176 0.17095,-0.26099 0.16933,-0.27607 -0.0279,-0.25837 -0.6068,0.0545 -0.73904,-0.006 -0.66405,-0.30541 0.0471,-0.1874 0.0315,-0.26376 -0.0439,-0.21703 -0.0719,0.0444 -0.11627,-0.0739 -0.11627,-0.30904 0,-0.23873 -0.0835,-0.45598 -0.22376,-0.5829 -0.12304,-0.11136 -0.22376,-0.31774 -0.22376,-0.45839 0,-0.1406 -0.0505,-0.28705 -0.11214,-0.32504 -0.0649,-0.04 -0.11162,0.0681 -0.11162,0.25683 0,0.18955 -0.11305,0.44791 -0.27027,0.61754 -0.18164,0.19605 -0.24962,0.37039 -0.20722,0.53226 0.0546,0.20862 0.029,0.23011 -0.1912,0.1602 -0.17753,-0.0567 -0.23047,-0.0424 -0.17467,0.048 0.0439,0.0708 0.0228,0.19754 -0.047,0.28165 -0.0852,0.10279 -0.0892,0.17658 -0.0119,0.22426 0.15168,0.0938 -0.10245,0.508 -0.31161,0.508 -0.10694,0 -0.1388,0.10134 -0.1049,0.33123 0.0303,0.2072 -0.006,0.35216 -0.0977,0.38706 -0.0979,0.0376 -0.12322,0.16767 -0.0775,0.39585 0.007,0.033 0.007,0.0485 0.0124,0.076 0.302,0.58282 0.63294,1.09545 1.01286,1.54564 0.0476,-0.0996 0.0913,-0.21116 0.1204,-0.3271 0.14224,-0.56492 0.3483,-0.67837 0.3483,-0.19172 0,0.19759 0.10527,0.40682 0.28164,0.56017 0.2146,0.18601 0.26456,0.31166 0.21135,0.52348 -0.0458,0.18262 -0.023,0.27906 0.0661,0.27906 0.0739,0 0.0997,0.0691 0.0811,0.19584 0.18143,0.13433 0.36962,0.26385 0.57103,0.38447 0.0183,-10e-4 0.0277,-4.5e-4 0.047,-0.002 0.15413,-0.0129 0.20878,-0.002 0.1695,0.12194 0.49303,0.2744 1.04769,0.51448 1.67639,0.7271 0.32926,-0.19648 0.3307,-0.31895 -0.0806,-0.23667 -0.18265,0.0367 -0.42219,0.0311 -0.53175,-0.0119 -0.16136,-0.0636 -0.1034,-0.12867 0.30437,-0.34364 0.2769,-0.14592 0.41515,-0.26779 0.30748,-0.27078 -0.3044,-0.008 -0.23062,-0.18701 0.14004,-0.34054 0.18457,-0.0764 0.33538,-0.18632 0.33538,-0.24392 0,-0.0577 -0.0459,-0.0765 -0.1018,-0.0419 -0.056,0.0344 -0.18764,0.0296 -0.29301,-0.0109 -0.16971,-0.0651 -0.1612,-0.0967 0.0739,-0.27752 0.1459,-0.1121 0.32773,-0.20526 0.40463,-0.20619 0.21432,-0.004 0.1661,-0.22632 -0.0491,-0.22632 -0.16221,0 -0.1559,-0.0309 0.0439,-0.21704 0.12798,-0.11925 0.29782,-0.46887 0.37672,-0.77721 0.079,-0.30835 0.18173,-0.53669 0.22893,-0.50748 0.0471,0.0291 0.12079,0.28483 0.16329,0.56844 0.0425,0.28363 0.17095,0.60968 0.28577,0.7245 0.1148,0.11478 0.15876,0.20879 0.0972,0.20879 -0.23563,0 -0.10348,0.45611 0.16794,0.5798 0.27926,0.12724 0.37898,0.3147 0.16744,0.3147 -0.20239,0 -0.11635,0.19653 0.11213,0.25633 0.25996,0.068 0.30324,0.30334 0.0558,0.30334 -0.30482,0 -0.17441,0.23207 0.22376,0.39841 0.62157,0.25974 0.47954,0.46308 -0.27492,0.39378 -0.24386,-0.0224 -0.20945,0.0394 0.30541,0.54623 0.0308,0.0303 0.0452,0.0426 0.0729,0.0697 0.24305,0.0478 0.49099,0.0949 0.75034,0.14004 0.0648,0.0113 0.1244,0.0227 0.18965,0.0341 0.0516,-0.0678 0.0787,-0.13478 0.061,-0.18085 -0.0312,-0.0813 0.06,-0.23426 0.20257,-0.33953 l 0.2589,-0.19119 -0.30748,0.0698 c -0.40532,0.0924 -0.42577,-0.22056 -0.0264,-0.40257 0.213,-0.097 0.27136,-0.19685 0.24236,-0.4129 -0.021,-0.1568 0.0286,-0.41299 0.11007,-0.56896 0.0814,-0.15598 0.15265,-0.40945 0.15865,-0.56328 0.007,-0.18899 0.0581,-0.10578 0.15761,0.2558 0.0809,0.29425 0.20677,0.60643 0.27957,0.69403 0.0729,0.0876 0.10203,0.20722 0.0656,0.26612 -0.0364,0.0589 0.0729,0.21048 0.24236,0.33695 l 0.30799,0.22995 -0.27956,0.006 -0.27957,0.006 0.27957,0.21859 c 0.24979,0.19535 0.25673,0.21969 0.063,0.2217 -0.20568,0.002 -0.20474,0.0142 0.0274,0.23048 0.25283,0.23553 0.303,0.39494 0.14573,0.43357 0.28555,0.0535 0.44607,0.0864 0.64543,0.12607 -0.0259,-0.27572 0.025,-0.35822 0.16899,-0.23873 0.12761,0.10589 0.18027,0.0278 0.29094,-0.43357 0.026,-0.10853 0.0568,-0.20421 0.0884,-0.29041 -1.71593,-1.20364 -0.83557,-1.43436 0.19069,-0.60772 -0.0236,-0.10586 -0.0558,-0.22945 -0.10749,-0.39325 -0.0615,-0.19473 -0.0215,-0.22466 0.29818,-0.22379 0.317,10e-4 0.36593,-0.0343 0.34313,-0.25011 -0.0146,-0.1384 0.0287,-0.25164 0.0961,-0.25164 0.0734,0 0.0958,-0.10705 0.0558,-0.26615 -0.0441,-0.17581 0.009,-0.3625 0.15554,-0.54932 0.12241,-0.15555 0.22273,-0.35875 0.22273,-0.45165 0,-0.27617 0.12765,-0.5258 0.23512,-0.45939 0.0551,0.034 0.10026,0.20973 0.10026,0.39065 0,0.18468 0.10272,0.43188 0.23409,0.56328 0.14517,0.14512 0.2121,0.31922 0.1757,0.45839 -0.0472,0.18052 -0.0152,0.21256 0.16381,0.16586 0.14083,-0.0367 0.20499,-0.01 0.17519,0.0734 -0.0259,0.072 -0.003,0.2159 0.0501,0.31985 0.06,0.11721 0.051,0.21725 -0.0238,0.26356 -0.0776,0.0479 -0.0327,0.1679 0.12558,0.33641 0.13535,0.14407 0.24598,0.39116 0.24598,0.54933 0,0.15814 0.0473,0.31673 0.1049,0.35243 0.14019,0.0867 0.50125,-0.2507 0.70487,-0.65887 0.16125,-0.32327 0.15905,-0.32893 -0.10697,-0.27802 -0.27046,0.0518 -0.27075,0.0505 -0.0879,-0.29507 0.10099,-0.19081 0.17915,-0.43495 0.17415,-0.5426 -0.005,-0.10766 -0.0142,-0.29658 -0.0212,-0.41961 -0.008,-0.14502 -0.0912,-0.22376 -0.23616,-0.22376 -0.28412,0 -0.28462,-0.13406 -0.001,-0.39068 0.22161,-0.20055 0.22128,-0.2023 -0.0512,-0.34364 -0.15067,-0.0782 -0.35471,-0.15894 -0.45371,-0.17933 -0.15834,-0.0326 -0.15436,-0.0643 0.0315,-0.26303 0.11612,-0.12414 0.24123,-0.34202 0.27853,-0.48421 0.005,-0.0188 0.005,-0.0263 0.009,-0.0424 -0.0291,-0.0495 -0.0605,-0.0989 -0.0915,-0.14833 -0.076,0.0223 -0.19357,0.0704 -0.38034,0.14624 -0.11869,0.0483 -0.14314,-0.0206 -0.10284,-0.29506 0.029,-0.19709 0.011,-0.38439 -0.0403,-0.41601 -0.0397,-0.0246 -0.0735,-0.13398 -0.0868,-0.26458 -0.0417,-0.0495 -0.0799,-0.0992 -0.12351,-0.14883 -0.46275,-0.52702 -0.99702,-0.9543 -1.73581,-1.34512 -0.0157,0.0213 -0.0327,0.0362 -0.0512,0.0362 -0.064,0 -0.0845,0.11618 -0.047,0.26509 0.0548,0.21849 0.0168,0.27435 -0.21601,0.31885 -0.15528,0.0296 -0.33528,10e-4 -0.39998,-0.0636 -0.16717,-0.16722 -0.13898,0.0438 0.0501,0.37465 0.20839,0.36454 0.20839,0.55914 0,0.55914 -0.0932,0 -0.16795,0.0995 -0.16795,0.22376 0,0.26286 -0.24867,0.29503 -0.44597,0.0574 -0.076,-0.0915 -0.19066,-0.13406 -0.25476,-0.0946 -0.069,0.0427 -0.0831,0.0172 -0.0341,-0.062 0.0487,-0.0789 0.18215,-0.10271 0.32505,-0.0589 0.2384,0.0732 0.23798,0.0693 -0.0212,-0.21135 -0.14487,-0.1569 -0.22972,-0.33967 -0.18862,-0.40619 0.0411,-0.0665 -0.009,-0.15325 -0.11214,-0.19275 -0.17482,-0.067 -0.17514,-0.0785 5.2e-4,-0.17672 0.17485,-0.0971 0.17576,-0.12096 0.009,-0.3049 -0.0994,-0.10978 -0.17031,-0.24387 -0.15761,-0.29766 0.0126,-0.0538 -0.0177,-0.24312 -0.0672,-0.42063 l -0.0899,-0.32144 c -3.8e-4,-1.4e-4 -6.5e-4,-3.7e-4 -0.001,-5.1e-4 l -0.13643,0.25527 c -0.0755,0.14074 -0.11215,0.35105 -0.0817,0.46768 0.0332,0.12689 -0.0479,0.32218 -0.20205,0.48628 -0.24335,0.25897 -0.17149,0.40611 0.077,0.15761 0.0809,-0.0809 0.16464,-0.0571 0.27388,0.0775 0.0867,0.10666 0.10481,0.16251 0.0403,0.12401 -0.18356,-0.10967 -0.4138,0.0887 -0.4284,0.36897 -0.0169,0.32395 -0.18627,0.38076 -0.4656,0.15607 -0.1606,-0.12917 -0.18021,-0.19238 -0.0744,-0.23616 0.1075,-0.0445 0.11256,-0.0979 0.0202,-0.20929 -0.0684,-0.0824 -0.16218,-0.29146 -0.20878,-0.46458 l -0.0848,-0.3147 -0.15192,0.27956 c -0.0835,0.1538 -0.14138,0.42336 -0.12868,0.59944 0.0166,0.22921 -0.0647,0.39653 -0.2868,0.58756 l -0.31058,0.26668 h 0.33177 c 0.30703,1.3e-4 0.31784,0.0139 0.14831,0.18343 -0.10071,0.10065 -0.26257,0.15253 -0.35967,0.11525 -0.2021,-0.0775 -0.23751,-0.47127 -0.0527,-0.58549 0.0887,-0.0547 0.0853,-0.10031 -0.0114,-0.16021 -0.0994,-0.0615 -0.10382,-0.14293 -0.016,-0.30697 0.13372,-0.24984 0.0687,-0.3643 -0.20722,-0.3643 -0.14244,0 -0.17423,-0.0775 -0.13643,-0.33539 0.0271,-0.18457 0.0937,-0.33589 0.14831,-0.33589 0.0546,0 0.0992,-0.10326 0.0992,-0.22997 0,-0.12666 -0.0403,-0.20548 -0.0894,-0.17518 -0.0491,0.0302 -0.15913,0.0114 -0.24443,-0.0413 -0.12945,-0.0794 -0.13084,-0.12602 -0.01,-0.27183 0.1014,-0.12221 0.10709,-0.17672 0.0181,-0.17672 -0.0706,0 -0.15885,0.15132 -0.19585,0.33589 -0.071,0.35526 -0.242,0.41439 -0.61754,0.21341 -0.17609,-0.0942 -0.21385,-0.19492 -0.16484,-0.43976 0.0359,-0.17973 0.0121,-0.33417 -0.0548,-0.35655 -0.065,-0.0217 -0.18097,-0.33976 -0.25787,-0.70694 l -0.0181,-0.0863 c -0.0701,-0.0205 -0.13419,-0.04 -0.20309,-0.0605 z m -1.46761,1.04077 c -0.0203,-0.008 -0.0346,0.0567 -0.0346,0.17208 0,0.15391 0.0258,0.21643 0.0569,0.13952 0.0311,-0.0769 0.0311,-0.20267 0,-0.27956 -0.008,-0.0192 -0.0155,-0.0295 -0.0222,-0.032 z m 2.96932,0.63201 c 0.0419,10e-4 0.0841,0.0294 0.1385,0.0847 0.0769,0.0783 0.0895,0.13253 0.0279,0.12092 -0.24837,-0.0471 -0.39119,0.0136 -0.39119,0.16639 -4.6e-4,0.22501 -0.1394,0.28538 -0.36587,0.15865 -0.27333,-0.15293 -0.24024,-0.32039 0.0636,-0.32039 0.1415,0 0.31791,-0.0606 0.39171,-0.13435 0.0522,-0.0517 0.0935,-0.0773 0.13539,-0.076 z m -2.19573,1.28465 c 0.0922,-0.0122 0.0897,0.0646 -0.0165,0.22585 -0.1051,0.15947 -0.5855,0.31258 -0.5855,0.18653 0,-0.0524 0.15134,-0.18449 0.3359,-0.2935 0.12175,-0.0719 0.21079,-0.11155 0.26613,-0.11888 z m 4.33876,0.49716 c 0.0129,0.003 0.0257,0.01 0.0377,0.0207 0.048,0.0446 0.0236,0.15785 -0.0543,0.25165 h -5.2e-4 c -0.16388,0.19748 -0.29587,0.2169 -0.39377,0.0584 -0.0379,-0.0616 0.005,-0.11163 0.0961,-0.11163 0.0908,0 0.18747,-0.0632 0.21497,-0.14005 0.0206,-0.0577 0.0609,-0.0869 0.0997,-0.079 z m -5.50664,0.55448 c 0.0651,0 0.11834,0.0505 0.11834,0.11213 0,0.0616 -0.0219,0.11163 -0.0491,0.11163 -0.0272,0 -0.0803,-0.05 -0.11834,-0.11163 -0.0381,-0.0616 -0.016,-0.11213 0.0491,-0.11213 z m 6.54378,0.11213 c 0.096,0 0.17415,0.05 0.17415,0.11163 0,0.0615 -0.0469,0.1116 -0.1049,0.1116 -0.0579,0 -0.13677,-0.05 -0.17467,-0.1116 -0.038,-0.0615 0.009,-0.11163 0.10542,-0.11163 z m -2.50372,0.22323 c 0.065,0 0.0876,0.0505 0.0496,0.11216 -0.0381,0.0615 -0.0911,0.1116 -0.11834,0.1116 -0.027,0 -0.0496,-0.05 -0.0496,-0.1116 0,-0.0616 0.0532,-0.11216 0.11834,-0.11216 z"/>
    </g>
  </g>
</svg>