<svg xmlns:dc="http://purl.org/dc/elements/1.1/" xmlns:cc="http://creativecommons.org/ns#" xmlns:rdf="http://www.w3.org/1999/02/22-rdf-syntax-ns#" xmlns:svg="http://www.w3.org/2000/svg" xmlns="http://www.w3.org/2000/svg" xmlns:sodipodi="http://sodipodi.sourceforge.net/DTD/sodipodi-0.dtd" xmlns:inkscape="http://www.inkscape.org/namespaces/inkscape" width="103.23546mm" height="93.003494mm" viewBox="0 0 103.23546 93.003494" version="1.1" id="svg3295" sodipodi:docname="multipage-export-4wg07kgw.svg">
  <defs id="defs3289">
    <clipPath clipPathUnits="userSpaceOnUse" id="clipPath9813-7">
      <path style="fill:#fddd94;fill-opacity:1;stroke:none;stroke-width:0.588001;stroke-miterlimit:10;stroke-dasharray:none;stroke-opacity:1" d="m -673.34854,16.438249 c -61.00238,23.071425 -91.89465,36.366813 -95.41402,57.874059 -3.51934,21.50727 58.26509,46.533872 70.38741,40.668262 12.12231,-5.86562 57.092,-30.110153 56.70089,-22.680381 -0.39101,7.429799 -81.33653,29.328071 -14.85944,37.930981 66.47686,8.60291 106.36304,-16.03268 110.66453,-23.46245 18.06129,-14.669231 10.686,-45.314288 17.20582,-67.650097 9.38499,-26.981821 18.37891,-37.148879 10.167,-45.3607435 -8.2118,-8.2118575 -104.79894,-24.2445385 -117.31223,-14.4685195 -12.51339,9.77603 -37.53996,37.148889 -37.53996,37.148889 z" id="path9815-3" sodipodi:nodetypes="cssssccssc"/>
    </clipPath>
    <clipPath clipPathUnits="userSpaceOnUse" id="clipPath7563-5">
      <path style="fill:#ffd64b;fill-opacity:0.413386;stroke:none;stroke-width:0.97368;stroke-miterlimit:10;stroke-dasharray:none;stroke-opacity:1" d="m -1.7543223,238.04606 c 0,-13.9606 4.7693128,-14.49886 4.8475211,-24.1043 0.078747,-9.60542 -26.5784748,-1.61898 -47.7298908,-16.67853 -21.151253,-15.05956 -14.378503,-38.2137 -32.541905,-61.70838 -18.163403,-23.49466 -69.267293,-75.251 -69.267293,-75.251 39.36822,5.884223 271.83555,-1.02152 271.83555,-1.02152 0,0 21.96412,57.81769 19.6225,77.63373 -2.418,71.1294 -72.924245,33.70145 -87.537051,49.31135 -2.828851,4.5047 -10.013312,8.45265 -11.840041,24.00661 -1.826997,15.55397 -10.412159,21.50282 -19.066755,30.19555 -8.654596,8.69275 -27.7068182,0 -27.7068182,0 z" id="path7565-8" sodipodi:nodetypes="ccssccccsscc"/>
    </clipPath>
    <clipPath clipPathUnits="userSpaceOnUse" id="clipPath8789-1">
      <path id="path8791-4" style="display:inline;fill:#efe4a5;fill-opacity:0.633858;stroke:none;stroke-width:3.35361;stroke-opacity:0.448819" d="M 751.1853,521.62742 C 717.16394,459.98384 731.20966,404.04024 770.79474,352.68884 817.29742,292.36371 874.20772,51.601234 954.67924,2.154959 c 72.04936,-44.271283 211.97266,-33.977544 255.76216,-72.256757 246.3573,-76.058602 507.9915,356.516628 378.579,487.678458 -84.0552,85.68768 12.999,97.35161 -10.8027,116.37904 96.778,111.36346 -179.7943,124.84193 -354.8578,60.57978 -66.5277,-19.21589 -155.0098,103.58326 -218.2073,75.09672 C 917.35165,648.97838 798.88478,606.30226 751.1853,521.62742 Z" sodipodi:nodetypes="csscccccc"/>
    </clipPath>
    <clipPath clipPathUnits="userSpaceOnUse" id="clipPath9194-5-1">
      <path id="path9196-8-7" style="display:inline;fill:#659d40;fill-opacity:1;stroke:none;stroke-width:0.571103;stroke-opacity:0.448819" d="m -1036.2332,619.5894 c -1.5244,-6.69685 -9.5198,-11.11949 -12.0158,-17.84107 -3.133,-8.43706 -4.5099,-17.90835 -3.1892,-26.81086 1.5579,-10.50097 5.1402,-21.8009 12.7814,-29.17042 9.8866,-9.53519 24.9163,-12.14266 38.3161,-15.1611 19.65289,-4.42698 42.47003,-13.37752 60.30308,-4.00646 21.8377,11.47546 32.71488,39.46904 37.84639,63.59867 2.86761,13.4843 3.07944,29.79914 -4.85698,41.07135 -6.32267,8.98014 -18.83307,12.0587 -29.49969,14.6745 -22.17677,5.43851 -46.04472,5.52808 -68.4889,1.3271 -6.4267,-1.20293 -13.119,-3.2667 -18.1461,-7.44725 -6.171,-5.13173 -11.1706,-11.97676 -13.0503,-20.23446 z" sodipodi:nodetypes="saaaaaaaaaas"/>
    </clipPath>
    <filter inkscape:collect="always" style="color-interpolation-filters:sRGB" id="filter24322" x="-0.019572658" width="1.0391454" y="-0.012496308" height="1.0249926">
      <feGaussianBlur inkscape:collect="always" stdDeviation="2.154316" id="feGaussianBlur24324"/>
    </filter>
    <filter inkscape:collect="always" style="color-interpolation-filters:sRGB" id="filter24390" x="-0.03441865" width="1.0688373" y="-0.021974841" height="1.0439497">
      <feGaussianBlur inkscape:collect="always" stdDeviation="3.7883789" id="feGaussianBlur24392"/>
    </filter>
    <rect x="-182.28062" y="-155.58829" width="297.40536" height="147.64027" id="rect22825"/>
  </defs>
  <sodipodi:namedview id="base" pagecolor="#ffffff" bordercolor="#666666" borderopacity="1.0" inkscape:pageopacity="0.0" inkscape:pageshadow="2" inkscape:zoom="0.25517133" inkscape:cx="1671.2508" inkscape:cy="148.44944" inkscape:document-units="mm" inkscape:current-layer="layer1" inkscape:document-rotation="0" showgrid="false" inkscape:window-width="1920" inkscape:window-height="1001" inkscape:window-x="-9" inkscape:window-y="-9" inkscape:window-maximized="1"/>
  <metadata id="metadata3292">
    <rdf:RDF>
      <cc:Work rdf:about="">
        <dc:format>image/svg+xml</dc:format>
        <dc:type rdf:resource="http://purl.org/dc/dcmitype/StillImage"/>
      </cc:Work>
    </rdf:RDF>
  </metadata>
  <g inkscape:label="Layer 1" inkscape:groupmode="layer" id="layer1" transform="translate(-98.117348,-274.864)">
    <g id="color" transform="translate(719.14708,1081.8131)">
      <path id="path35966" style="fill:#d7efdc;fill-opacity:1;stroke:none;stroke-width:0.483681;stroke-opacity:0.448819" d="m -618.25938,-739.51468 c -4.90678,-8.89067 -2.88102,-16.95923 2.82821,-24.36548 6.70694,-8.70052 8.56036,-23.83166 20.16653,-30.96315 10.39145,-6.38511 30.57219,-4.90049 36.88781,-10.42137 35.53135,-10.96972 51.34835,34.5128 32.68359,53.42987 -12.12303,12.35848 1.87479,14.04073 -1.55806,16.78499 13.95799,16.06162 -12.48623,26.96887 -37.73512,17.70052 -9.5951,-2.77143 -21.82705,3.28945 -30.94182,-0.81909 -12.66329,-2.97883 -15.45159,-9.13389 -22.33114,-21.34629 z" sodipodi:nodetypes="csscccccc"/>
      <path id="path35968" clip-path="none" style="fill:#a8a8a7;fill-opacity:1;stroke:#a8a8a7;stroke-width:0.464141;stroke-miterlimit:4;stroke-dasharray:none;stroke-opacity:1" d="m 1243.3418,3701.5605 c -0.8278,0.032 -1.6352,0.4653 -2.4707,1.3008 -3.6562,3.6563 1.2204,8.7936 5.3008,5.584 0.9461,-0.7442 1.7501,-0.9221 3.6621,-0.8125 l 2.4492,0.1406 0.1172,56.7676 0.1191,56.7695 -2.6718,0.025 c -1.4696,0.014 -25.7628,0.068 -53.9844,0.1172 -41.3972,0.073 -51.5199,0.209 -52.3828,0.7012 -2.3224,1.3246 -2.8733,3.1 -2.875,9.2578 v 5.6875 h -2.5527 c -3.1557,0 -3.2273,0.3903 -0.877,4.8164 0.9228,1.7378 1.4977,3.3219 1.2774,3.5215 -0.2204,0.1995 -5.0644,2.1883 -10.7637,4.4199 -9.0107,3.5284 -10.4248,4.2177 -10.8437,5.2852 -0.8196,2.0885 -0.1116,9.9832 1.4218,15.8554 1.7336,6.6387 5.1888,16.7711 7.2149,21.1563 2.6354,5.7042 6.0609,8.5409 8.6445,7.1582 0.7274,-0.3885 1.1467,-0.3963 1.5137,-0.029 0.279,0.2787 1.0915,0.5059 1.8066,0.5059 0.9933,0 1.3008,0.2219 1.3008,0.9355 0,0.9222 -0.2341,0.9327 -17.7617,0.8125 l -17.7617,-0.123 -0.1172,-76.5039 -0.066,-43.3711 c -0.2539,0.5538 -0.5089,1.1075 -0.7637,1.6582 0.015,11.5001 0.018,26.8128 0.018,47.4023 v 81.4961 l -1.045,0.1484 -1.0449,0.1485 v -9.5586 -9.5586 l -15.6719,0.123 -15.6738,0.1211 -0.025,1.9825 c 0.2366,0.5987 0.4696,1.198 0.7227,1.7988 v -3.082 h 14.8594 14.8593 v 3.7148 3.7148 h -14.5488 c -5.8068,0 -10.8431,-0.074 -13.2773,-0.1796 0.1377,0.2859 0.2744,0.571 0.416,0.8574 l 12.6543,-0.1055 14.7285,-0.123 0.1309,5.4628 0.1308,5.4629 1.7266,0.1446 1.7265,0.1425 0.1309,-5.4843 0.1309,-5.4824 h 17.6464 17.6446 l -0.01,1.8574 c -0.01,1.0216 -0.167,3.5804 -0.3594,5.6875 l -0.3457,3.8301 h 1.795 c 1.7117,0 1.8225,-0.093 2.371,-1.9747 0.3164,-1.0854 1.1039,-3.6976 1.752,-5.8046 l 1.1797,-3.8301 h 8.0703 8.0723 v 1.8867 c 0,1.8347 0.04,1.8835 1.4511,1.7422 1.1981,-0.1201 1.5435,-0.4298 1.9746,-1.7715 l 0.5215,-1.625 h 62.8809 62.8789 l 0.5449,1.625 c 0.4485,1.3393 0.8007,1.6501 2.0039,1.7695 1.4227,0.141 1.4563,0.099 1.3535,-1.625 l -0.1054,-1.7695 h 8.1074 8.1074 l 1.4551,4.668 c 1.8532,5.9474 2.0928,6.3465 3.9219,6.5468 l 1.5078,0.1661 -0.336,-5.8067 -0.3339,-5.8066 h 29.4277 29.4297 l 2.0781,3.1347 2.0781,3.1348 h 9.2871 9.2891 l 2.0215,-3.0195 2.0234,-3.0176 4.3203,-0.022 c -0.1118,-0.2232 -0.2348,-0.4373 -0.3398,-0.666 l -3.7305,-0.01 0.2891,-1.4511 c 0.1599,-0.7982 0.291,-1.7694 0.291,-2.1602 0,-0.6014 0.1385,-0.5858 0.9023,0.1055 0.224,0.2027 0.6393,0.3864 1.1465,0.5566 -0.1077,-0.3787 -0.2027,-0.7656 -0.289,-1.1582 -0.1052,-0.081 -0.201,-0.1449 -0.3301,-0.2617 -0.4873,-0.441 -1.0199,-1.3299 -1.1817,-1.9746 -0.1677,-0.6683 0.014,-1.2267 1.0567,-2.4746 0.01,-0.4154 0.028,-0.8384 0.061,-1.2676 -1.5488,1.4525 -2.2988,1.6232 -2.2988,0.5234 0,-0.4086 -0.7098,-1.4539 -1.5781,-2.3222 -1.3759,-1.3759 -1.8785,-1.5782 -3.9082,-1.5782 h -2.3301 l 1.5664,-5.9199 c 0.8617,-3.2563 1.6865,-6.4435 1.832,-7.082 l 0.2657,-1.1621 -0.5196,1.1621 c -0.2854,0.6385 -1.1981,3.7723 -2.0273,6.9648 l -1.5078,5.8047 -2.1524,0.1406 -2.1543,0.1426 -0.1406,-7.3398 -0.1406,-7.3379 -0.1035,7.3144 c -0.084,5.9517 -0.2264,7.3125 -0.7617,7.3125 -0.3619,0 -0.7637,-0.2607 -0.8926,-0.58 -0.1875,-0.4644 -0.2393,-0.4644 -0.2696,0 -0.02,0.3193 -0.3512,0.58 -0.7343,0.58 -0.3832,0 -0.7006,-0.2607 -0.7032,-0.58 -0.01,-0.4175 -0.1227,-0.3989 -0.416,0.064 -0.3172,0.501 -1.134,0.018 -3.6719,-2.166 -3.1779,-2.7352 -3.2411,-2.8318 -2.371,-3.6191 0.4988,-0.4515 0.8925,-1.416 0.8925,-2.1836 0,-1.206 -0.1376,-1.3495 -1.1269,-1.1602 -0.8968,0.1714 -1.1861,-0.016 -1.4121,-0.916 -0.195,-0.7765 -0.5097,-1.0456 -1,-0.8574 -0.3933,0.1508 -0.8729,0.2734 -1.0664,0.2734 -0.1935,0 -0.6053,0.5551 -0.9141,1.2324 -0.3874,0.8503 -0.7107,1.0823 -1.043,0.75 -0.7665,-0.7666 -0.294,-2.6893 0.6426,-2.6152 0.8288,0.066 1.0607,-0.3573 0.502,-0.916 -0.4755,-0.4754 -2.0118,1.1176 -2.0118,2.0859 0,0.4712 -0.1609,0.8555 -0.3593,0.8555 -0.2,0 -0.284,-0.8104 -0.1895,-1.8008 0.1389,-1.4564 -0.027,-1.9397 -0.875,-2.5332 -1.1813,-0.8275 -1.8435,-0.6313 -1.789,0.5313 0.023,0.4837 0.1274,0.5626 0.2714,0.205 0.5991,-1.4846 2.0137,-0.2346 2.0137,1.7793 0,1.2321 -1.3313,1.1208 -1.8437,-0.1543 -0.3833,-0.9535 -0.4223,-0.9648 -0.4336,-0.1172 -0.01,0.6287 0.9185,1.5579 2.873,2.875 1.5882,1.0703 4.4537,3.3881 6.3692,5.1504 1.2483,1.1486 2.4165,2.0763 3.1972,2.586 -0.1821,-0.173 -0.3977,-0.3979 -0.6875,-0.7403 l -0.8847,-1.0449 1.0449,0.8828 c 0.5747,0.4865 1.0449,0.9565 1.0449,1.045 0,0.083 -0.02,0.1306 -0.059,0.1484 0.1914,0.099 0.3401,0.154 0.4082,0.1308 0.3193,-0.108 0.5801,-0.01 0.5801,0.2188 0,0.2288 -0.9919,0.4677 -2.2051,0.5293 -2.6615,0.1354 -3.8403,0.8416 -5.2891,3.1719 -0.9473,1.5236 -1.0976,2.3526 -1.0976,6.0605 v 4.2969 h -29.0625 c -15.9838,0 -29.2006,-0.1405 -29.3711,-0.3106 -0.7455,-0.7456 -0.2306,-1.5468 0.9922,-1.5468 0.7152,0 1.5176,-0.2188 1.7852,-0.4864 0.3392,-0.3392 0.8508,-0.3217 1.6855,0.059 4.0774,1.8578 7.9178,-3.3546 12.5938,-17.0898 3.4648,-10.1778 5.0872,-17.3109 5.125,-22.5195 0.028,-3.9276 -0.09,-4.6301 -0.8984,-5.4161 -0.8098,-0.7875 -15.8575,-7.0195 -16.9493,-7.0195 -0.2249,0 -0.5377,-0.2097 -0.6953,-0.4648 -0.19,-0.3075 8.3377,-0.4649 25.2324,-0.4649 h 25.5196 l 3.0019,6.1524 c 1.6517,3.384 3.2415,6.6759 3.5332,7.3144 0.511,1.1191 0.5201,1.1219 0.2461,0.059 -0.182,-0.7045 -0.1107,-0.9971 0.1973,-0.8066 0.2651,0.164 0.6132,0.086 0.7734,-0.1739 0.1605,-0.2595 0.5949,-0.4707 0.9649,-0.4707 0.5494,0 0.5694,0.165 0.1113,0.8985 -0.3086,0.4945 -0.7275,0.7942 -0.9316,0.6679 -0.5557,-0.3434 -0.4735,-0.019 0.7421,2.9297 0.6125,1.4854 1.365,3.3692 1.6719,4.1856 0.386,1.0254 0.7222,1.3501 1.0918,1.0508 0.2939,-0.238 1.2129,-0.9757 2.043,-1.6407 0.83,-0.665 1.5259,-1.6609 1.541,-2.2128 l 0.029,-1.004 0.4824,0.9961 c 0.2651,0.5477 0.9309,1.2132 1.4785,1.4786 0.9549,0.4624 0.9571,0.4817 0.066,0.5195 -0.8198,0.034 -0.7922,0.1072 0.2325,0.623 1.4523,0.7311 1.8627,2.9309 0.6074,3.2559 -0.717,0.1856 -0.7252,0.2254 -0.061,0.2715 0.4283,0.03 0.8735,0.4183 0.9903,0.8652 0.1168,0.4469 0.2354,-0.2082 0.2656,-1.457 0.039,-1.6466 -0.1685,-2.4545 -0.7578,-2.9375 -0.7536,-0.6175 -0.7383,-0.6501 0.2305,-0.4434 0.7738,0.1652 1.0449,0.012 1.0449,-0.5957 0,-0.4513 0.1343,-1.7916 0.2969,-2.9765 0.2717,-1.9829 0.2155,-2.1543 -0.6973,-2.1543 -0.5455,0 -1.4358,-0.4436 -1.9785,-0.9864 -0.5425,-0.5427 -0.8983,-0.6987 -0.7891,-0.3476 0.1089,0.3512 0.8625,0.9509 1.6738,1.334 0.8195,0.3869 1.4769,1.0583 1.4844,1.5097 0.011,0.8828 -0.6889,1.0943 -1.1504,0.3477 -0.1578,-0.2553 -0.6404,-0.4597 -1.0722,-0.4571 -0.546,0 -0.4331,0.1849 0.371,0.5918 1.2501,0.6323 1.7649,2.0067 1.0274,2.7442 -0.6027,0.6027 -2.2259,-0.2617 -2.918,-1.5547 -0.4051,-0.7571 -0.3814,-1.0768 0.1055,-1.4219 0.4422,-0.3133 0.2857,-0.3668 -0.5313,-0.1797 -0.6385,0.1467 -1.6416,0.2689 -2.2285,0.2715 -0.5868,0 -1.5555,0.5337 -2.1523,1.1778 -0.9185,0.991 -1.1296,1.0559 -1.3711,0.4257 -0.4383,-1.1424 -0.3442,-1.5976 0.3301,-1.5976 1.048,0 2.6347,-2.082 2.6347,-3.4571 0,-1.2337 -0.091,-1.2921 -1.6152,-1.0449 -1.61,0.2612 -1.6129,0.2576 -0.8926,-0.8418 0.8175,-1.2473 0.7183,-3.1137 -0.1738,-3.291 -0.3254,-0.065 -0.3772,-0.011 -0.1152,0.1192 0.6585,0.3265 0.5977,2.14 -0.1036,3.0781 -0.3192,0.427 -1.0946,0.8335 -1.7226,0.9023 -1.6041,0.1755 -1.7617,-1.1934 -0.3047,-2.6504 1.403,-1.4035 1.0161,-1.5857 -0.4473,-0.2109 l -1.0234,0.9629 -0.7481,-1.4981 c -0.952,-1.9081 -0.939,-2.555 0.067,-3.5605 0.4468,-0.4469 0.8329,-1.0752 0.8593,-1.3945 0.026,-0.3193 0.077,-1.2065 0.1153,-1.9727 l 0.07,-1.3926 h 6.8535 c 6.3508,0 6.8961,0.067 7.4336,0.9278 0.319,0.5108 0.8905,0.9296 1.2715,0.9296 0.7803,0 0.8652,0.4015 0.2793,1.3262 -0.2784,0.4392 -0.4953,0.4736 -0.7168,0.1153 -0.5421,-0.877 -2.584,-0.6224 -2.584,0.3222 0,0.9293 0.8506,1.9602 1.6015,1.9375 0.2682,-0.01 0.1228,-0.2282 -0.3242,-0.4883 -1.0918,-0.6358 -1.0347,-1.8203 0.088,-1.8203 1.2392,0 1.519,0.6262 1.1524,2.5801 -0.2231,1.1915 -0.4569,1.5256 -0.8125,1.1699 -0.2745,-0.2744 -0.718,-0.4939 -0.9864,-0.4863 -0.2682,0.01 -0.1208,0.2282 0.3262,0.4883 1.1458,0.6673 1.0819,2.75 -0.084,2.75 -1.0405,0 -2.3554,-1.1739 -2.3554,-2.1016 0,-0.3522 0.3675,-0.8532 0.8144,-1.1133 0.4467,-0.26 0.6028,-0.4778 0.3477,-0.4804 -2.1378,-0.032 -2.0792,2.6746 0.08,3.6953 1.064,0.5028 1.5534,1.1108 1.7598,2.1875 0.2662,1.3907 0.3615,1.4545 1.4277,0.9687 0.8563,-0.3902 1.4489,-0.3805 2.3614,0.035 1.1877,0.5411 1.1975,0.5792 0.373,1.4902 -1.322,1.4609 -3.0376,0.9968 -4.1445,-1.1211 -1.0657,-2.039 -2.1382,-2.7795 -3.6133,-2.4941 -0.9192,0.1776 -0.9003,0.2054 0.1738,0.2617 2.7156,0.1425 3.3012,2.2789 2.7422,10.0059 -0.1869,2.584 -0.096,3.2562 0.4649,3.4433 0.614,0.2051 0.6163,0.1337 0.016,-0.5937 -0.612,-0.7412 -0.5642,-0.9219 0.4648,-1.7774 0.7224,-0.6004 0.8443,-0.8437 0.3321,-0.6582 -0.5817,0.211 -0.8125,0.058 -0.8125,-0.539 0,-0.6579 0.3188,-0.8048 1.5097,-0.7012 l 1.5098,0.1308 -1.3887,-0.332 c -1.7995,-0.4297 -2.0195,-1.6211 -0.4336,-2.3437 2.0103,-0.916 3.7563,0.1375 2.6348,1.5898 -0.1916,0.2482 -0.013,0.095 0.3965,-0.3398 0.6982,-0.7423 0.7991,-0.7433 1.6094,-0.012 0.8352,0.7537 0.8382,0.7467 0.068,-0.1856 -1.1369,-1.3772 -1.0741,-3.9102 0.098,-3.9102 0.8493,0 2.8203,1.9917 2.8203,2.8497 0,0.2209 -0.4189,0.8192 -0.9297,1.33 -0.5127,0.5108 -0.7517,0.9297 -0.5352,0.9297 0.2164,0 -0.6128,2.6636 -1.8437,5.9199 -1.2309,3.2564 -2.2361,6.2341 -2.2285,6.6172 0.01,0.3831 0.7286,-1.2885 1.6054,-3.7148 2.0359,-5.6331 4.9446,-12.6082 5.1661,-12.3867 0.094,0.094 -0.3638,1.5865 -1.0157,3.3183 -0.6517,1.7319 -1.0967,3.2373 -0.9882,3.3457 0.1082,0.1083 0.4323,-0.4796 0.7207,-1.3066 0.4044,-1.1603 0.6509,-1.3765 1.0761,-0.9512 0.3031,0.3029 1.1878,0.5223 1.9668,0.4883 1.4095,-0.061 1.4095,-0.062 -0.2031,-0.3477 -1.8724,-0.3318 -2.4561,-1.7228 -1.1289,-2.6933 0.4596,-0.336 0.5915,-0.6113 0.293,-0.6113 -0.4061,0 -0.412,-0.2845 -0.025,-1.1329 0.4663,-1.0235 0.721,-1.1065 2.6601,-0.8808 1.8625,0.2168 2.2858,0.097 3.2227,-0.9082 l 1.0781,-1.1582 -1.0664,-0.7461 c -0.5862,-0.4106 -1.646,-0.7461 -2.3555,-0.7461 -1.4395,0 -1.5837,-0.3496 -0.664,-1.6074 0.4335,-0.5927 0.728,-0.6907 0.957,-0.3203 0.1818,0.2942 0.8928,0.5087 1.5801,0.4785 1.2382,-0.055 1.236,-0.058 -0.1445,-0.3535 -2.0703,-0.4427 -1.9436,-2.0924 0.1757,-2.295 1.97,-0.1883 2.7603,0.4943 1.8965,1.6387 -0.5945,0.7881 -0.5811,0.7903 0.2363,0.043 0.7169,-0.6556 0.7619,-0.91 0.2657,-1.5078 -0.3286,-0.396 -1.1987,-0.7207 -1.9336,-0.7207 -1.5142,0 -1.7217,-0.5878 -0.5235,-1.4825 0.4468,-0.3337 0.8125,-0.9215 0.8125,-1.3047 0,-0.4501 0.4519,-0.6953 1.2774,-0.6953 1.6033,0 1.75,0.7493 0.2949,1.502 -0.6944,0.3594 -0.8383,0.5775 -0.3848,0.5801 0.3982,0 1.1106,-0.2749 1.584,-0.6211 1.0703,-0.7827 0.645,-2.1582 -0.6679,-2.1582 -0.5188,0 -0.9434,-0.1768 -0.9434,-0.3926 0,-0.7254 1.6895,-1.9297 2.707,-1.9297 1.0787,0 1.3984,1.1592 0.4278,1.5508 -0.3651,0.1474 -0.3855,0.2488 -0.057,0.2715 0.288,0.02 0.7675,-0.259 1.0664,-0.6192 0.431,-0.5193 0.3246,-0.8068 -0.5117,-1.3925 -0.984,-0.6893 -0.6006,-0.7383 5.7656,-0.7383 h 6.8203 l 0.1329,-4.4903 0.1328,-4.4902 1.3008,1.123 c 1.2986,1.1232 1.2986,1.1254 0.5761,3.1661 -0.7377,2.0842 -0.6042,5.4589 0.2813,7.1308 0.3182,0.6009 -0.2014,2.3005 -1.9824,6.5 -0.3952,0.9317 -0.8189,1.8528 -1.2305,2.7793 0.6307,-0.6714 1.2486,-1.3533 1.8574,-2.041 0.4005,-0.9107 0.7659,-1.7603 1.0586,-2.4785 0.7285,-1.7878 1.4826,-3.4357 1.6758,-3.6621 0.1541,-0.1806 1.418,-0.4882 2.8398,-0.7852 0.2473,-0.3386 0.4878,-0.6817 0.7305,-1.0234 -4.2361,0.7261 -3.9309,0.5984 -4.2442,0.2851 -0.7693,-0.7694 -0.1641,-1.5295 1.4336,-1.8046 0.8506,-0.1466 2.7723,-0.5117 4.4317,-0.834 0.201,-0.3014 0.402,-0.6027 0.5996,-0.9063 -1.7391,0.3311 -3.9055,0.7044 -5.0313,0.8633 l -2.207,0.3105 v -1.7089 c 0,-3.4405 -0.1216,-3.5024 9.7305,-3.502 0.4945,-0.8451 0.9753,-1.699 1.4453,-2.5586 0.01,-0.5496 0.043,-1.2274 0.1133,-2.2031 0.1516,-2.1071 0.5303,-15.7707 0.8418,-30.3633 0.5129,-24.0107 0.193,-61.7198 -0.6992,-86.9277 -0.3188,-0.6818 -0.6276,-1.3689 -0.9571,-2.0449 0.833,20.2151 1.2148,51.9085 0.9063,77.1953 -0.1917,15.7071 -0.4992,30.0208 -0.6836,31.8086 l -0.334,3.25 -0.074,-2.7852 c -0.1299,-4.9482 -2.3594,-43.1554 -4.7285,-81.0312 -1.2701,-20.3044 -2.3085,-37.074 -2.3086,-37.2657 -2e-4,-0.1524 0.9845,-0.2791 2.3261,-0.3261 -0.1875,-0.3206 -0.3879,-0.6324 -0.5781,-0.9512 h -82.084 -104.0176 v -1.1602 -1.1621 h 104.0176 80.6758 c -0.097,-0.1547 -0.1859,-0.3144 -0.2832,-0.4687 h -80.3906 -104.1172 l -1.3789,-1.1602 c -0.9123,-0.7676 -1.7601,-1.1376 -2.5879,-1.1055 z m 139.5996,185.6817 c -0.1213,-0.063 -0.2971,-0.1854 -0.459,-0.291 0.2236,0.2122 0.3857,0.3251 0.459,0.291 z M 1243.459,3702.4375 c 2.5051,0 4.0429,3.6205 2.207,5.1973 -1.5953,1.3714 -2.8475,1.3747 -4.4121,0.012 -1.8316,-1.5957 -0.3024,-5.209 2.2051,-5.209 z m 19.8828,5.0762 -0.3027,7.7929 c -0.8988,23.1735 -1.3168,55.2756 -1.0352,79.4239 0.2659,22.8208 0.2153,26.584 -0.3516,26.584 -0.5263,0 -0.7335,-1.4374 -1.0234,-7.0801 -0.3573,-6.961 -0.3758,-7.0463 -1.0059,-4.9922 -0.3525,1.1493 -0.9514,4.2706 -1.332,6.9375 -0.3806,2.6668 -0.7545,4.9107 -0.8301,4.9863 -0.4187,0.419 -4.137,0.3785 -4.2988,-0.047 -0.1047,-0.2748 -0.1357,-25.8888 -0.07,-56.9199 l 0.1191,-56.4199 5.0645,-0.1328 z m 43.2656,0.031 c 2.1666,0.058 2.0529,0.9956 2.168,12.3067 0.1371,13.5308 -0.6882,22.384 -3.0957,33.2011 -0.5968,2.6817 -1.7373,8.5345 -2.5352,13.0039 -0.7978,4.4696 -1.5472,8.3348 -1.664,8.5899 -0.2369,0.5173 -0.019,-3.1076 0.8125,-13.4668 0.3304,-4.1195 0.5707,-16.4987 0.582,-30.2988 l 0.023,-23.334 h 2.6328 c 0.4099,-10e-5 0.7667,-0.01 1.0762,0 z m -42.3652,0 h 3.4883 3.4863 l -0.3027,3.8301 c -0.5629,7.1115 -4.4246,70.0956 -5.4024,88.1132 -0.5337,9.833 -1.0766,18.7661 -1.207,19.8516 -0.5607,4.6661 -0.9807,1.1432 -1.2676,-10.6406 -0.6011,-24.7146 -0.1625,-70.7003 0.8984,-94.3067 z m 7.8691,0 h 2.5078 2.5059 v 4.7597 c 0,5.0365 -0.9045,20.4306 -2.1035,35.8711 -1.5546,20.0213 -6.4276,70.5033 -6.9765,72.2754 v 0 c -0.2621,0.8462 -1.6917,1.3791 -2.4472,0.9121 -0.3363,-0.2078 -0.1403,-6.4826 0.6367,-20.2597 1.3724,-24.3354 5.1893,-86.101 5.5879,-90.4258 z m 6.0879,0 h 2.7149 2.7129 v 1.7402 c -0.01,5.9964 -2.2418,37.0228 -3.9863,55.375 -2.375,24.9844 -6.0502,47.7096 -8.9453,55.3125 -0.2542,0.6675 -0.8014,1.3432 -1.2149,1.502 -0.6244,0.2395 -0.7087,0.035 -0.5039,-1.2129 0.7329,-4.4604 3.6801,-34.5376 6.2676,-63.959 0.9979,-11.3463 2.344,-31.7324 2.6445,-40.0527 z m 8.2891,0 h 1.9316 l -0.3047,12.4199 c -0.9148,37.4301 -5.8231,81.1218 -10.9082,97.084 -1.3383,4.2009 -1.8073,4.6518 -4.5332,4.3672 l -1.4316,-0.1504 1.1055,-3.8067 c 4.5758,-15.7508 8.6646,-49.2913 11.2753,-92.5019 0.5093,-8.4282 0.928,-15.7945 0.9297,-16.3692 0,-0.9155 0.2426,-1.0429 1.9356,-1.0429 z m 2.8574,0 h 2.25 2.2481 v 4.084 c 0,13.7784 -2.3944,47.248 -4.6739,65.3379 -2.4005,19.0504 -6.4591,37.5581 -9.5449,43.5253 -0.3657,0.7072 -0.7121,1.2567 -0.7695,1.2227 -0.057,-0.035 -0.5486,-0.1512 -1.0918,-0.2578 l -0.9883,-0.1934 1.1406,-3.5742 c 5.2223,-16.3791 10.0647,-59.2637 11.1152,-98.4199 z m 5.5664,0 h 3.3731 3.373 l 0.3496,3.5976 c 0.652,6.7139 0.3763,35.9664 -0.4473,47.4825 -1.7928,25.0721 -3.5833,36.6895 -7.5429,48.9453 -1.3895,4.3007 -4.8486,12.9989 -5.3809,13.5312 -0.295,0.295 -6.1418,0.6081 -7.1523,0.3828 -0.963,-0.2146 -0.9427,-0.3414 1.0332,-6.4687 6.0457,-18.7484 10.5414,-55.4369 12.0762,-98.5332 z m 14.3555,0 h 42.1308 42.1309 l -0.1895,4.9902 c -0.1035,2.7456 -0.2713,5.2529 -0.373,5.5723 -0.271,0.8515 -82.8163,0.8515 -83.082,0 -0.1,-0.3193 -0.2799,-2.8267 -0.4004,-5.5723 z m 88.0644,0 h 2.6192 l 0.012,23.5664 c 0.01,18.714 0.1883,25.6515 0.8613,33.6953 v 0 c 0.466,5.5712 0.7658,10.2108 0.666,10.3105 -0.1,0.1 -0.5581,-2.0552 -1.0176,-4.789 -0.4595,-2.7339 -1.4587,-7.9999 -2.2207,-11.7031 -2.0793,-10.1058 -3.0484,-15.9238 -3.6172,-21.7051 -0.5578,-5.6694 -0.7259,-26.1839 -0.2305,-28.1582 0.2848,-1.1348 0.4858,-1.2171 2.9258,-1.2168 z m 3.9004,0 h 3.3321 3.332 l 0.5664,13.6992 c 2.4071,58.3056 9.4979,98.6317 19.0254,108.1953 2.1059,2.1139 3.4232,4.4874 4.4433,8.0098 l 0.7051,2.4394 h -1.2637 c -0.7797,0 -1.7246,-0.4899 -2.4628,-1.2773 -0.6585,-0.7024 -2.6376,-2.446 -4.3985,-3.875 -7.1602,-5.8108 -13.0969,-17.0341 -17.539,-33.1582 -2.5442,-9.2348 -4.6354,-25.5693 -5.8575,-45.7403 -0.5057,-8.3503 -0.635,-43.7392 -0.1699,-46.5527 z m 7.627,0 h 2.3945 2.3945 v 5.6875 c 0.01,11.949 1.5192,37.705 3.2813,55.8398 2.7654,28.4612 6.9286,49.7455 10.8496,55.4707 1.6915,2.4698 4.8063,9.3496 5.3691,11.8613 0.5194,2.3165 0.2765,3.5876 -0.2695,1.4122 -0.5948,-2.3701 -2.6282,-6.0594 -4.4043,-7.9922 -5.5345,-6.023 -10.1477,-21.1263 -13.6328,-44.6309 -2.6643,-17.9693 -4.9463,-45.2758 -5.6719,-67.8555 z m 5.7187,0 h 1.8574 c 1.6485,0 1.8575,0.1246 1.8575,1.1093 0,2.1516 0.9563,17.8501 1.8711,30.6993 3.0956,43.4824 7.4588,73.003 12.3886,83.8164 1.2754,2.7974 2.3521,8.4754 2.5059,13.2226 0.1126,3.4792 -0.2502,4.3672 -0.7246,1.7754 -0.4907,-2.6811 -2.4811,-8.054 -3.752,-10.1289 -4.678,-7.6373 -7.1005,-16.3928 -9.9785,-36.0566 -3.0999,-21.18 -6.0236,-59.0465 -6.0254,-78.0528 z m 4.6426,0 h 2.7129 2.7129 l 0.3086,8.873 c 0.8517,24.4935 7.7581,100.735 9.5859,105.8242 0.5045,1.4047 1.0354,3.2858 1.1817,4.1797 0.146,0.8939 0.4582,2.4609 0.6933,3.4824 0.2348,1.0217 0.4319,3.5683 0.4395,5.6602 0.018,5.994 -0.6959,4.8823 -1.2871,-2.0059 -0.4137,-4.8196 -0.8062,-6.8905 -1.6895,-8.914 -5.8474,-13.3954 -10.3748,-45.9492 -13.7363,-98.7578 -0.504,-7.9175 -0.9186,-15.2837 -0.9199,-16.3692 z m 6.3535,0 h 2.5742 2.5723 l 0.2949,3.3652 c 1.0466,11.9661 6.7294,108.159 7.0918,120.0391 v 0 c 0.1496,4.9164 0.1716,8.9394 0.049,8.9394 -0.1225,0 -0.3648,-2.2466 -0.5371,-4.9922 -0.3217,-5.1187 -0.4296,-5.7438 -2.0547,-11.7265 -1.0722,-3.9473 -1.3274,-5.9865 -3.5664,-28.5586 -3.4028,-34.3051 -5.6486,-62.7734 -6.125,-77.6641 z m -257.3418,11.582 c -7.0328,0 -12.1632,1.9174 -17.6465,6.5957 -7.674,6.5475 -11.1209,16.9968 -8.8222,26.7461 2.3937,10.1524 11.044,18.4682 21.3613,20.5391 13.1428,2.638 27.0158,-5.6848 31.1172,-18.668 2.0874,-6.6077 1.2794,-15.3074 -1.9121,-20.6074 -0.8673,-1.4401 -1.5762,-2.8094 -1.5762,-3.043 0,-0.2333 -1.4108,-1.8291 -3.1348,-3.5469 -5.4205,-5.401 -11.7444,-8.0156 -19.3867,-8.0156 z m 141.6309,0.2598 h 41.5605 41.5606 l 0.1367,3.1328 0.1387,3.1347 h -7.6836 -7.6836 v 56.8848 56.8848 h 19.9668 19.9687 v -4.875 c 0,-2.6817 0.1561,-4.8504 0.3477,-4.8164 0.1915,0.032 1.8575,1.658 3.7012,3.6133 l 3.3515,3.5546 0.1309,4.3672 0.1308,4.3692 -4.5976,0.1679 c -5.262,0.1917 -6.2498,-1e-4 -5.3828,-1.0449 0.3156,-0.38 0.4263,-0.6914 0.2441,-0.6914 -0.1819,0 -0.6961,0.4506 -1.1426,1.002 -0.5041,0.6234 -1.0365,0.8647 -1.4023,0.6386 -0.3243,-0.2002 -0.4046,-0.4944 -0.1797,-0.6543 0.4829,-0.3429 2.0117,-2.6901 2.0117,-3.0878 0,-0.1524 -0.2607,-0.1121 -0.5801,0.088 -0.3192,0.2 -0.8906,0.3694 -1.2695,0.377 -0.3789,0.01 -0.7571,0.4286 -0.8398,0.9394 -0.3441,2.1181 -0.5205,2.2668 -1.6153,1.3536 -0.5692,-0.4751 -0.7744,-0.5668 -0.4551,-0.2032 0.885,1.0076 0.7384,2.4332 -0.2304,2.2344 -0.6052,-0.1243 -0.7942,-0.5776 -0.7363,-1.7754 l 0.078,-1.6094 -0.6641,1.2598 c -0.6297,1.1943 -0.8398,1.2615 -4.0254,1.2539 -4.7563,-0.01 -8.7011,-0.4391 -8.7011,-0.9472 0,-0.7555 1.4708,-1.0308 1.8984,-0.3555 0.3321,0.5227 0.4104,0.5261 0.418,0.022 0,-0.3432 -0.4111,-0.7334 -0.9219,-0.8672 -0.5108,-0.1336 -0.9297,-0.3815 -0.9297,-0.5528 0,-0.1712 -0.4114,-0.343 -0.9141,-0.3808 -0.7871,-0.059 -0.8365,0.054 -0.3593,0.8183 1.1346,1.8171 0.045,2.0301 -10.2793,2.0528 -9.221,0.017 -9.7065,0.062 -10.0957,0.9433 v 0 c -0.4503,1.0198 -1.7863,1.4755 -2.2286,0.7598 -0.3917,-0.6339 0.6356,-2.7377 1.4981,-3.0684 0.3919,-0.1503 0.8835,-0.01 1.0918,0.3223 0.2735,0.4308 0.3772,0.3561 0.3848,-0.2676 0.01,-0.6716 -0.2315,-0.802 -1.0684,-0.5918 -0.858,0.2153 -1.183,0.012 -1.6074,-0.9961 -0.2956,-0.7055 -0.4341,-0.8317 -0.3086,-0.2852 0.2953,1.2844 -0.1942,2.5039 -1.0059,2.5039 -0.7206,0 -0.8763,-1.4281 -0.2304,-2.1132 0.6727,-0.7137 -0.2931,-2.6761 -1.1543,-2.3457 -0.4635,0.1778 -0.6616,0.067 -0.5411,-0.3008 0.1051,-0.3195 1.0681,-0.6437 2.1407,-0.7227 l 1.9492,-0.1445 -0.047,-56.8574 -0.045,-56.8575 h -22.209 -22.207 l -0.068,56.879 -0.066,56.8808 18.9043,0.1211 c 14.6231,0.094 18.9464,0.2522 19.0957,0.7012 0.1064,0.3192 -0.1244,0.5801 -0.5137,0.5801 -1.0851,0 -1.4613,1.004 -0.6093,1.6269 0.4184,0.3058 0.6309,0.6855 0.4707,0.8457 -0.379,0.379 0.7274,1.7161 1.4062,1.6934 0.2879,-0.01 0.1579,-0.2283 -0.2891,-0.4883 -1.163,-0.6774 -1.003,-1.3555 0.3204,-1.3555 1.3509,0 2.0341,0.8666 1.1328,1.4375 -0.4722,0.2991 -0.3595,0.4046 0.4316,0.4121 0.6141,0 0.9459,0.2111 0.7774,0.4844 -0.4175,0.6757 -51.3614,0.5742 -54.0469,-0.1074 -1.8855,-0.4787 -1.9752,-0.5775 -1.7129,-1.8887 0.1523,-0.7608 0.2773,-1.9826 0.2773,-2.7168 v -1.3359 h 5.1075 5.1074 v -56.8848 -56.8848 h -7.6836 -7.6817 l 0.1368,-3.1347 z m -141.6309,0.5254 c 7.5359,-0.011 13.3444,2.4631 18.8438,8.0273 5.3144,5.3771 7.4156,10.3887 7.498,17.8926 0.043,3.9285 -0.1495,5.2646 -1.2148,8.4609 -2.9303,8.7915 -10.1598,15.4856 -18.9688,17.5625 -3.4609,0.8161 -8.9729,0.8396 -12.1953,0.053 -7.5382,-1.8408 -14.33,-7.3626 -17.6953,-14.3848 -2.0606,-4.2995 -2.6614,-7.5187 -2.3945,-12.8281 0.2872,-5.7127 1.8054,-10.1479 4.8242,-14.0801 5.4671,-7.1214 12.5714,-10.6918 21.3027,-10.7031 z m 0.7149,2.0547 c -6.4483,-0.1388 -12.9275,2.3716 -18.0274,7.4921 -4.969,4.9892 -7.4042,11.8868 -6.623,18.7618 0.5935,5.2235 1.1028,6.9215 3.0566,10.1796 3.8799,6.4701 9.7752,10.5058 17.2871,11.836 2.4541,0.4345 6.1294,0.2262 9.6289,-0.5469 6.9061,-1.5257 13.8999,-7.6861 16.6231,-14.6406 1.7127,-4.3741 2.1176,-9.8931 1.0312,-14.0703 -1.1983,-4.6076 -4.1352,-9.8616 -6.9472,-12.4317 -4.6747,-4.2724 -10.3397,-6.4576 -16.0293,-6.58 z m -0.3438,0.916 c 1.6075,-0.011 3.1742,0.1241 4.6074,0.4218 5.2771,1.0963 10.7528,4.8379 14.9395,10.209 3.0592,3.9251 4.5165,13.4881 2.8418,18.6485 -2.6437,8.146 -7.832,13.6256 -15.3672,16.2304 -13.3061,4.5998 -28.1266,-4.372 -30.4668,-18.4433 -0.753,-4.5282 0.014,-10.4103 1.7598,-13.4961 3.0118,-5.3249 4.3741,-6.9029 8.6172,-9.9766 3.0548,-2.213 8.2459,-3.5608 13.0683,-3.5937 z m -0.3281,1.082 c -0.372,0 -0.7261,0.408 -0.4883,0.793 0.147,0.2376 0.4647,0.4316 0.7051,0.4316 0.4993,0 0.5821,-0.6288 0.1406,-1.0703 -0.1072,-0.1072 -0.2334,-0.154 -0.3574,-0.1543 z m 141.4258,2.3848 7.2793,0.059 7.2773,0.057 -0.096,12.7129 c -0.053,6.9919 -0.1058,32.1996 -0.1172,56.0156 v 0 l -0.023,43.3027 h -4.5938 -4.5937 l 0.2285,-5.6875 c 0.2609,-6.4998 -0.2473,-8.7397 -2.334,-10.2891 -1.2428,-0.9227 -1.872,-0.9726 -12.1894,-0.9726 -5.9833,0 -10.8774,-0.1043 -10.877,-0.2324 4e-4,-0.1278 0.8113,-2.1135 1.8028,-4.4122 4.1063,-9.5204 7.4318,-22.1757 10.7363,-40.8632 1.6061,-9.0827 2.895,-15.861 5.5664,-29.2559 0.5213,-2.6137 1.2203,-9.427 1.6445,-16.0195 z m 50.414,0.09 c 3.8717,-6e-4 6.8975,0.018 8.1426,0.059 l 4.5274,0.1484 v 55.9082 55.9063 l -21.3614,0.023 -21.3613,0.021 v -55.9258 -55.9277 l 16.834,-0.1504 c 4.6291,-0.041 9.3471,-0.062 13.2187,-0.062 z m 18.7071,0.1426 h 7.1992 7.1973 v 2.3359 c -1e-4,5.0247 1.5169,16.4785 3.4726,26.2227 1.1277,5.6188 3.0255,15.6506 4.2168,22.291 3.9095,21.7917 7.1943,33.2567 12.5117,43.6621 2.9761,5.8239 3.3598,6.8776 3.6172,9.9492 0.1569,1.8897 0.1629,4.3392 0.012,5.4434 l -0.2734,2.0078 h -18.9766 -18.9765 v -55.9551 z m -221.2696,0.4648 c -0.3828,0 -0.6972,0.2098 -0.6972,0.4649 0,0.2553 0.3141,0.4648 0.6972,0.4648 0.3829,0 0.6953,-0.2097 0.6953,-0.4648 0,-0.2554 -0.3122,-0.4649 -0.6953,-0.4649 z m 21.5918,0 c -0.2553,0 -0.4648,0.2098 -0.4648,0.4649 0,0.2553 0.2097,0.4648 0.4648,0.4648 0.2554,0 0.4649,-0.2097 0.4649,-0.4648 0,-0.2554 -0.2098,-0.4649 -0.4649,-0.4649 z m -7.8945,5.2364 c -0.5108,0.038 -0.9277,0.3457 -0.9277,0.6836 0,0.4701 0.2166,0.4977 0.9277,0.1171 0.5108,-0.2733 0.9297,-0.5808 0.9297,-0.6836 0,-0.1058 -0.4189,-0.1557 -0.9297,-0.1171 z m -21.5645,2.6582 c -0.3981,0 -0.7246,0.2097 -0.7246,0.4648 0,0.2554 0.1972,0.4629 0.4375,0.4629 0.2403,0 0.567,-0.2078 0.7246,-0.4629 0.1579,-0.2554 -0.039,-0.4648 -0.4375,-0.4648 z m 37.3536,0 c -0.2554,0 -0.4649,0.2097 -0.4649,0.4648 0,0.2554 0.2097,0.4629 0.4649,0.4629 0.2553,0 0.4648,-0.2078 0.4648,-0.4629 0,-0.2554 -0.2097,-0.4648 -0.4648,-0.4648 z m -28.4336,4.1796 c -0.8465,0 0.6753,1.4128 4.5644,4.2383 2.1016,1.527 3.9387,3.078 4.0801,3.4473 v 0 c 0.3224,0.839 0.9603,0.8481 2.2774,0.033 0.5657,-0.35 4.3085,-1.3212 8.3164,-2.1602 4.0078,-0.8391 7.5543,-1.6908 7.8809,-1.8926 1.5739,-0.9728 -0.5798,-0.7609 -7.4649,0.7344 -9.1506,1.9874 -9.793,2.0193 -9.793,0.5098 0,-1.4269 -0.4427,-2.5918 -0.9843,-2.5918 -0.2332,0 -0.281,0.8644 -0.1094,1.9394 l 0.3086,1.9375 -2.1641,-1.5898 c -4.4912,-3.2991 -6.4542,-4.6075 -6.9101,-4.6075 z m 31.248,6.4903 c -0.097,-0.01 -0.2027,0.031 -0.3066,0.1347 -0.1535,0.1533 -0.116,0.5437 0.084,0.8672 0.2927,0.4733 0.4033,0.4739 0.5605,0 0.1684,-0.5052 -0.046,-0.9758 -0.3379,-1.0039 z m -43.2148,0.01 c -0.2554,0 -0.4629,0.2094 -0.4629,0.4649 0,0.2553 0.2078,0.4648 0.4629,0.4648 0.2553,0 0.4648,-0.2097 0.4648,-0.4648 0,-0.2554 -0.2097,-0.4649 -0.4648,-0.4649 z m 303.0859,1.4024 0.053,23.4414 c 0.041,18.4216 0.063,31.6742 0.031,41.6172 0.1763,-0.7033 0.3478,-1.4077 0.5117,-2.1152 0.064,-10.3619 0.117,-22.6567 0.1426,-38.3458 l 0.035,-21.123 c -0.2437,-1.1612 -0.5016,-2.3191 -0.7734,-3.4746 z m -281.1504,1.0137 c -0.1847,-0.1872 0.2669,2.9808 1.375,9.6582 0.8265,4.9802 1.5732,8.7075 1.6602,8.2832 0.1589,-0.7787 -1.8785,-13.6318 -2.6387,-16.6426 -0.2026,-0.8023 -0.3349,-1.2365 -0.3965,-1.2988 z m 18.4649,8.2636 c -0.2554,0 -0.4649,0.3142 -0.4649,0.6973 0,0.3829 0.2097,0.6973 0.4649,0.6973 0.2553,0 0.4648,-0.3142 0.4648,-0.6973 0,-0.3829 -0.2097,-0.6973 -0.4648,-0.6973 z m -37.7715,0.086 c -0.179,0.058 -0.3067,0.292 -0.3067,0.6113 0,0.4253 0.2256,0.6989 0.5,0.6074 0.2744,-0.091 0.4981,-0.3648 0.4981,-0.6074 0,-0.2428 -0.2237,-0.516 -0.4981,-0.6074 -0.069,-0.023 -0.1337,-0.023 -0.1933,0 z m 29.8769,7.8086 c -0.2553,0 -0.4648,0.3141 -0.4648,0.6972 0,0.3829 0.2097,0.6973 0.4648,0.6973 0.2554,0 0.4649,-0.3142 0.4649,-0.6973 0,-0.3828 -0.2098,-0.6972 -0.4649,-0.6972 z m -21.7187,0.4453 c -0.1914,0.032 -0.4002,0.2085 -0.5,0.5078 -0.1021,0.3065 0.065,0.4731 0.3711,0.3711 0.3066,-0.1022 0.5441,-0.3379 0.5215,-0.5235 -0.029,-0.2776 -0.2013,-0.3877 -0.3926,-0.3554 z m 10.8066,2.8066 c -0.3828,0 -0.6972,0.2078 -0.6972,0.4629 0,0.2554 0.3141,0.4649 0.6972,0.4649 0.3829,0 0.6973,-0.2098 0.6973,-0.4649 0,-0.2554 -0.3141,-0.4629 -0.6973,-0.4629 z m 132.793,8.1074 c 0.028,0.011 0.058,0.055 0.09,0.1348 0.1289,0.3193 0.1289,0.8408 0,1.1602 -0.1288,0.3193 -0.2343,0.058 -0.2343,-0.5801 0,-0.4787 0.06,-0.7461 0.1445,-0.7149 z m 100.6797,0.4258 c 0.049,-0.049 0.1134,0.018 0.1875,0.2031 v 0 c 0.1331,0.3353 0.1152,0.7345 -0.039,0.8887 -0.1539,0.1543 -0.2668,-0.1199 -0.2442,-0.6094 0.011,-0.2706 0.045,-0.4336 0.094,-0.4824 z m -301.6153,11.8828 c -0.2932,0.6115 -0.5831,1.2298 -0.8789,1.836 l 0.1446,17.332 c 0.082,10.0244 0.081,19.428 -0.01,20.8965 l -0.1601,2.6699 h -4.9493 -4.9492 v -11.2598 c 0,-7.0166 -0.013,-9.6742 -0.3086,-11.2734 -0.2734,0.4168 -0.5582,0.8194 -0.8359,1.2304 0.1907,1.2989 0.3299,2.8803 0.4707,5.2832 0.21,3.5756 0.397,8.4344 0.4121,10.7969 v 0 l 0.031,4.2949 h -4.4121 -4.4102 v -8.5273 c 0,-0.3315 0,-0.5952 0.01,-0.9102 -0.1873,0.2719 -0.3721,0.5441 -0.5567,0.8164 0.011,4.5285 0.097,8.7288 0.2833,9.0293 v 0 c 0.4362,0.7059 -0.064,0.7629 -5.4199,0.6211 l -0.7559,-0.019 c -0.1311,0.2412 -0.2559,0.4831 -0.3847,0.7246 2.4698,0.07 5.9433,0.1063 11.2168,0.1113 l 15.5761,0.012 v -21.83 -21.8321 z m 342.4414,19.2871 -0.1289,3.4825 c -0.071,1.9155 -0.1631,4.6324 -0.205,6.0371 -0.2345,7.8 -0.4765,14.0962 -0.6778,18.0801 0.2275,-0.4569 0.453,-0.9146 0.6739,-1.375 l 0.023,-0.8008 c 0.391,-12.894 0.7841,-18.9748 1.1602,-17.9727 0.4102,1.0934 1.0201,6.9117 1.4101,12.8692 0.2292,-0.5623 0.4537,-1.1268 0.6738,-1.6934 -0.6436,-7.0486 -1.5934,-14.4725 -2.2578,-16.5371 z m -182.9042,7.4161 c 0.1629,0.095 0.2722,1.0545 0.2871,2.916 0.024,3.1629 -0.095,3.8301 -0.6895,3.8301 -0.6074,0 -0.6694,-0.4527 -0.3984,-2.9024 0.2944,-2.6601 0.5913,-3.966 0.8008,-3.8437 z m -82.6875,7.7304 c 12.2627,-0.01 28.9306,0.024 51.6132,0.057 l 82.9161,0.1211 1.2871,1.291 1.2871,1.291 -0.037,7.9961 c -0.02,4.3977 -0.1891,8.9366 -0.375,10.0859 -0.303,1.8722 -0.5393,2.1855 -2.2832,3.0176 -3.4305,1.6368 -4.9668,5.3067 -4.9668,11.8652 v 3.2266 h -65.1446 -65.1445 l -1.5664,-2.5859 c -2.2266,-3.6739 -4.3819,-9.6581 -6.0918,-16.918 -1.8794,-7.979 -2.0929,-8.5359 -3.1133,-8.127 -4.1911,1.6794 -15.061,3.4844 -20.9824,3.4844 h -2.8047 v -5.5508 c 0,-3.1616 0.2265,-6.0499 0.5273,-6.7109 0.9484,-2.0815 -1.9093,-2.5127 34.879,-2.543 z m -82.1602,11.3535 c -2.8406,-0.017 -6.6778,-0.014 -10.8281,0.014 l -11.752,0.076 c -0.095,0.1904 -0.1873,0.3816 -0.2812,0.5723 h 12.6172 14.9804 l -0.1,4.4863 c -0.054,2.4678 -0.311,4.619 -0.5703,4.7793 -0.406,0.2513 -6.0397,0.2642 -10.4844,0.025 l -1.3925,-0.074 1.3925,-0.5449 c 3.0599,-1.1973 5.1446,-3.3579 6.0157,-6.2343 l 0.3164,-1.045 h -10.0157 c -6.6229,0 -10.0136,0.1631 -10.0136,0.4825 0,0.8946 1.7566,3.9217 2.8554,4.9179 0.5995,0.5436 1.7183,1.3188 2.4844,1.7227 l 1.3926,0.7344 -1.3926,0.045 c -6.0515,0.1973 -8.941,0.2219 -9.6367,0.084 -0.6673,-0.1324 -0.7937,-0.7848 -0.8067,-4.209 -0.2361,0.5636 -0.4759,1.1277 -0.6992,1.6933 l 0.3086,3.3535 h 15.5176 15.5156 v -5.291 c 0,-3.8208 -0.1609,-5.3444 -0.5801,-5.4824 -0.1596,-0.052 -2.0031,-0.088 -4.8437,-0.1055 z m 70.6543,0.9571 c 0.1379,0 0.2307,0.027 0.2676,0.072 0.1476,0.1825 0.7422,2.5254 1.3203,5.2071 1.4302,6.6347 3.9039,13.9344 6.1113,18.0312 1.0083,1.8713 1.832,3.4623 1.832,3.5371 0,0.075 -2.3493,0.3925 -5.2226,0.7051 -5.8216,0.6335 -18.1495,2.5759 -21.0137,3.3106 -1.0216,0.262 -2.1863,0.5702 -2.5879,0.6855 -1.0019,0.2877 -1.3594,-0.1789 -1.3594,-1.7773 0,-2.1025 -1.7872,-10.4041 -3.0742,-14.2754 -0.6367,-1.9155 -2.0862,-5.319 -3.2207,-7.5625 -1.1344,-2.2436 -2.0625,-4.1437 -2.0625,-4.2227 0,-0.079 3.6041,-0.279 8.0098,-0.4453 7.9143,-0.2988 14.5309,-1.2786 18.916,-2.8008 0.8593,-0.2992 1.6704,-0.4739 2.084,-0.4648 z m -89.8652,2.0273 h 8.8847 c 9.8867,0 9.4911,-0.1704 7.2578,3.1074 -0.957,1.4047 -2.4966,2.4519 -4.0468,2.752 -5.4271,1.0506 -9.2868,-0.4978 -11.4278,-4.584 z m 293.1816,2.0567 c 0.4152,-0.011 0.6962,0.8308 0.4336,1.5449 v 0 c -0.1174,0.3193 -0.399,0.5801 -0.6269,0.5801 -0.544,0 -0.5352,-1.7266 0.012,-2.0645 0.064,-0.039 0.1243,-0.059 0.1836,-0.061 z m 27.2383,1.6601 c -0.6283,0 -0.5608,1.0944 0.1074,1.7637 0.3064,0.3067 0.818,0.5566 1.1348,0.5566 0.9531,0 1.2007,-0.8891 0.455,-1.6347 -0.623,-0.6233 -0.7579,-0.6105 -1.2265,0.1191 -0.4951,0.7715 -0.5112,0.7721 -0.2735,0.01 0.1388,-0.4471 0.05,-0.8125 -0.1972,-0.8125 z m -25.3418,0.5313 c 0.2109,0.031 0.2861,0.2572 0.209,0.6543 -0.088,0.4552 -0.4416,0.9206 -0.7852,1.0351 -0.3997,0.1331 -0.5676,-0.09 -0.4648,-0.6191 0.088,-0.4552 0.4416,-0.9207 0.7851,-1.0352 0.1,-0.033 0.1856,-0.046 0.2559,-0.035 z m -3.4063,0.3984 c 0.4958,0 0.9004,0.2097 0.9004,0.4648 0,0.2554 -0.5339,0.4629 -1.1875,0.4629 -0.6738,0 -1.0648,-0.1994 -0.9023,-0.4629 0.1579,-0.2553 0.6937,-0.4648 1.1894,-0.4648 z m 45.7676,1.5742 c 0.056,0 0.1187,0.015 0.1836,0.055 0.2593,0.1604 0.3517,0.4869 0.2051,0.7246 -0.3978,0.644 -0.6758,0.5247 -0.6758,-0.291 0,-0.2987 0.1179,-0.4826 0.2871,-0.4883 z m -19.2324,1.0078 c -0.1307,0.033 -0.1191,0.2513 0.1191,0.6368 0.1684,0.2726 0.5115,0.496 0.7617,0.496 0.2503,0 0.1847,-0.2928 -0.1445,-0.6503 -0.3333,-0.3619 -0.6056,-0.5151 -0.7363,-0.4825 z m -0.6074,2.0606 c 0.7281,0 1.4414,0.8247 1.4414,1.664 0,0.317 -1.6757,0.2208 -2.0117,-0.1152 -0.6247,-0.6246 -0.2842,-1.5488 0.5703,-1.5488 z m -79.2618,0.1933 c 1.832,-0.021 4.5358,0.9345 10.0215,3.0528 10.9247,4.2185 10.3684,3.8959 8.42,4.8789 -3.7248,1.8793 -6.7541,6.0938 -9.1817,12.7715 -0.7892,2.1709 -1.7317,4.9925 -2.0957,6.2695 -0.5592,1.9622 -0.6694,2.1051 -0.7129,0.9277 -0.028,-0.7662 -0.416,-1.9444 -0.8613,-2.6191 -0.9191,-1.3928 -9.0052,-8.1041 -11.25,-9.3379 l -1.4805,-0.8145 0.3067,-3.5976 c 0.4627,-5.4405 1.3553,-8.1365 3.2441,-9.7949 1.2671,-1.1126 2.165,-1.7197 3.5898,-1.7364 z m 88.334,0.2715 c 2.4435,0 4.4434,0.1193 4.4434,0.2637 0,0.1445 -0.2208,0.6743 -0.4902,1.1777 -0.3653,0.6824 -0.3097,1.2785 0.2207,2.3418 0.5257,1.054 0.5856,1.6605 0.2285,2.3282 -0.4651,0.8691 -0.5188,0.8594 -1.416,-0.2813 -1.08,-1.3727 -2.7408,-1.6036 -2.6856,-0.373 0.022,0.4852 0.1297,0.579 0.2695,0.2324 0.3734,-0.9253 1.4687,-0.6759 2.2481,0.5137 1.3746,2.0978 -0.3985,3.6345 -1.832,1.5878 -0.3975,-0.5679 -0.7227,-0.7917 -0.7227,-0.498 0,0.2937 0.4703,0.9154 1.0449,1.3809 1.204,0.9753 1.4696,2.3164 0.459,2.3164 -0.3785,0 -1.1756,-0.4881 -1.7715,-1.084 -1.2953,-1.2954 -2.9879,-1.4498 -2.9765,-0.2715 0.01,0.6704 0.082,0.6954 0.4316,0.1426 0.63,-0.9957 2.7069,0.091 3.0898,1.6172 0.5797,2.3095 -1.8225,2.864 -2.9296,0.6757 -0.3665,-0.7245 -0.5892,-0.8817 -0.5918,-0.4179 -0.01,0.8496 1.4142,2.2793 2.2675,2.2793 0.3806,0 0.4688,0.3538 0.2598,1.0449 -0.5049,1.6711 -0.8402,1.7624 -2.0019,0.5547 -0.6014,-0.6253 -1.2714,-1.1367 -1.4883,-1.1367 -0.217,0 -0.9404,-0.5458 -1.6074,-1.2129 -0.9339,-0.9352 -1.515,-1.1515 -2.5254,-0.9493 -1.1281,0.2256 -1.344,0.097 -1.5371,-0.9121 -0.1601,-0.8381 -0.081,-1.0322 0.2753,-0.6757 1.5267,1.5265 5.8381,-0.4327 4.5,-2.045 -0.3219,-0.3878 -0.9242,-0.6909 -1.3398,-0.6757 -0.5113,0.02 -0.4179,0.165 0.2891,0.4492 1.9103,0.7678 0.8419,2.3066 -1.6016,2.3066 -1.2312,0 -1.5332,-0.1853 -1.5332,-0.9433 0,-0.5447 0.4419,-1.1211 1.0449,-1.3633 0.8004,-0.3217 0.855,-0.4266 0.2324,-0.4492 -0.8093,-0.029 -1.1938,-1.4219 -0.3925,-1.4219 0.2316,0 0.3115,-0.4189 0.1777,-0.9297 -0.2045,-0.7821 -0.014,-0.9297 1.2051,-0.9297 1.505,0 1.7709,0.3527 0.9844,1.3027 -0.2544,0.3074 -0.1253,0.2638 0.2871,-0.096 0.9571,-0.8343 0.4508,-1.6699 -1.0118,-1.6699 -0.7956,0 -1.1347,-0.2584 -1.1347,-0.8652 0,-0.6722 0.2593,-0.8153 1.164,-0.6426 1.4645,0.2799 2.6628,-0.662 2.2989,-1.8086 -0.2541,-0.8 0.049,-0.8633 4.1679,-0.8633 z m 5.7207,0 c 1.1126,0 1.9665,0.8679 1.6543,1.6817 -0.3456,0.9006 -0.7172,0.7818 -1.6757,-0.5352 -0.8057,-1.1062 -0.8061,-1.1465 0.021,-1.1465 z m -268.5879,0.045 c 0.981,1.2225 3.8384,11.8188 4.252,15.7696 l 0.2637,2.5273 -3.3399,2.5547 c -3.3467,2.5591 -5.0501,4.6319 -5.0527,6.1524 0,1.7914 -0.7825,0.6383 -1.5684,-2.3223 -2.1304,-8.0258 -5.941,-14.4045 -9.9863,-16.7149 l -2.2949,-1.3105 8.789,-3.4199 c 4.8338,-1.8815 8.8552,-3.3388 8.9375,-3.2364 z m -70.746,0.4161 v 12.4609 c 0,6.8533 0.1385,12.5995 0.3085,12.7695 0.1704,0.1705 7.2758,0.3106 15.7891,0.3106 h 15.4785 v -12.7715 -12.7695 h -15.789 z m 308.1054,0 c 0.9053,0 0.9165,2.0225 0.012,2.7734 -0.3751,0.3112 -0.6652,0.7021 -0.6425,0.8691 0.026,0.1671 0.019,0.5658 -0.012,0.8848 -0.03,0.3193 -0.2644,0.5801 -0.5195,0.5801 -0.6618,0 -0.5744,-0.807 0.1172,-1.0859 0.3193,-0.1293 0.1098,-0.2469 -0.4648,-0.2696 -0.7228,-0.025 -1.045,-0.3241 -1.045,-0.9668 0,-1.0907 1.5549,-2.7851 2.5547,-2.7851 z m 19.7188,0.1347 c 0.9139,-0.086 1.6216,0.5366 1.2011,1.2168 -0.1715,0.2778 -0.8218,0.5059 -1.4453,0.5059 -1.4038,0 -1.5208,-1.2081 -0.1582,-1.6406 0.1363,-0.043 0.2718,-0.07 0.4024,-0.082 z m -297.1758,0.3125 v 12.0801 12.0801 h -5.3574 -5.3555 l 0.2969,-2.4375 c 0.1639,-1.3408 0.4793,-3.2733 0.7011,-4.2949 0.6244,-2.8769 0.5355,-3.4844 -0.5175,-3.4844 -0.8764,0 -0.918,-0.176 -0.5801,-2.4375 0.8346,-5.5858 -0.1367,-9.522 -2.6016,-10.543 -3.3459,-1.3859 -5.9685,2.3766 -5.4668,7.8438 0.1539,1.6763 0.4137,3.5171 0.5782,4.0918 0.2427,0.8483 0.1146,1.0449 -0.6836,1.0449 -1.1461,0 -1.2239,0.7409 -0.5137,4.9082 0.2582,1.5155 0.5672,3.3289 0.6855,4.0312 l 0.2149,1.2774 h -5.5684 -5.5683 l 0.125,-11.957 0.123,-11.9571 14.7441,-0.123 z m 307.9062,0.018 c 0.6183,0 1.4605,1.8525 1.1778,2.5899 -0.3553,0.9259 -1.0929,0.8218 -1.6582,-0.2344 -0.4993,-0.933 -0.2089,-2.3555 0.4804,-2.3555 z m -340.6093,0.4824 c -0.203,0.6775 -0.406,1.355 -0.5899,2.0352 0,2.9373 -0.01,6.6753 -0.039,10.8281 l -0.127,15.9063 -1.8594,-0.023 c 0.038,0.3167 0.079,0.634 0.1211,0.9512 h 2.7031 l -0.123,-17.2988 z m 345.1797,0.9668 c -0.1614,-0.01 -0.3441,0.023 -0.5118,0.09 v 0 c -0.3705,0.1482 -0.2616,0.2586 0.2793,0.2813 0.4893,0.02 0.7636,-0.09 0.6094,-0.2442 -0.077,-0.078 -0.2156,-0.1221 -0.3769,-0.1289 z m -326.9336,0.1289 c 0.7708,0.023 1.4531,0.328 1.4531,0.8047 0,0.2565 0.2945,0.7594 0.6543,1.1192 1.0218,1.022 1.3083,3.9422 0.7187,7.3281 l -0.539,3.0976 h -2.4512 -2.4512 l -0.5195,-2.0644 c -1.1023,-4.3776 -0.2989,-8.8848 1.7812,-9.9981 0.3977,-0.2128 0.891,-0.3007 1.3536,-0.2871 z m 294.4668,0.9356 c -0.4018,-0.029 -0.4501,0.032 -0.1153,0.1445 0.9492,0.3187 0.6608,1.9448 -0.5605,3.166 v 0 c -0.6267,0.6269 -0.9557,1.1387 -0.7304,1.1387 0.2252,0 0.8518,-0.5627 1.3925,-1.25 1.0861,-1.383 1.0936,-3.1245 0.012,-3.2012 z m -258.92,4.2422 c 0.8777,0.036 1.9221,0.3558 3.1192,0.957 3.3532,1.6841 7.2535,8.1816 9.4394,15.7246 2.3309,8.0435 2.8028,11.2387 2.8028,18.9766 0,7.1692 -0.027,7.3769 -1.0957,8.2422 v 0 c -1.371,1.1127 -2.2657,1.1161 -3.9258,0.021 -2.6192,-1.7269 -4.6974,-5.7494 -8.0703,-15.6172 -3.4078,-9.97 -4.8686,-16.1324 -5.1309,-21.6523 -0.2169,-4.5658 -0.1611,-5.0068 0.7422,-5.9102 0.53,-0.5299 1.2414,-0.7765 2.1191,-0.7402 z m 215.1094,0.068 c 2.1569,-0.061 2.6416,0.6215 2.8574,4.0117 0.2799,4.3953 -1.4066,12.2816 -4.8242,22.5469 -3.3163,9.9611 -5.5473,14.678 -7.9316,16.7715 -3.4061,2.9907 -5.4291,1.2859 -5.8965,-4.9707 -0.3336,-4.4643 0.1764,-9.6324 1.6074,-16.2578 2.9523,-13.6688 8.258,-21.9338 14.1875,-22.1016 z m 41.1504,2.0489 c 0.039,-0.039 0.1672,0.061 0.3965,0.289 0.3174,0.315 0.4593,0.6911 0.3164,0.834 -0.143,0.143 -0.4016,-0.1162 -0.5762,-0.5742 -0.126,-0.3309 -0.1759,-0.5097 -0.1367,-0.5488 z m 27.4277,1.9843 c 0.1256,0 0.1406,0.1842 0.022,0.4942 -0.3086,0.8046 -0.6406,0.9511 -0.6406,0.2832 0,-0.2404 0.2065,-0.5646 0.459,-0.7207 0.066,-0.041 0.1183,-0.058 0.1601,-0.057 z m -21.3984,0.293 c 1.0976,-0.01 1.0722,1.9338 -0.039,2.9395 -1.6859,1.5246 -3.3414,0.684 -2.3515,-1.1954 0.6685,-1.2693 1.3066,-1.7328 2.3906,-1.7441 z m 23.9453,0.457 c 0.5093,0.027 1.0241,0.1706 1.4766,0.459 0.5374,0.3427 0.5803,0.6321 0.1855,1.2695 -0.6869,1.1093 -3.7996,1.3956 -4.1875,0.3848 -0.4724,-1.2318 0.9975,-2.1953 2.5254,-2.1133 z m -3.4121,1.0645 c 0.1183,-0.065 0.016,0.2796 -0.2715,1.1426 -0.5258,1.5758 -0.8769,1.9358 -0.8769,0.9004 0,-0.3344 0.3118,-1.0121 0.6914,-1.5079 0.2367,-0.3092 0.386,-0.4962 0.457,-0.5351 z m -24.7617,1.3008 c -0.022,0.1101 0.3447,1.1453 1.4258,4.2793 0.5115,1.4828 1.0111,2.6138 1.1113,2.5136 0.2365,-0.2365 -1.4633,-5.179 -2.1484,-6.2461 -0.2223,-0.3461 -0.3756,-0.6129 -0.3887,-0.5468 z m 17.8262,0.1543 c 0.1753,0.026 0.2148,0.3654 0.2148,1.1386 0,1.6284 0.025,1.6046 -0.9277,0.9805 -0.3832,-0.2513 -1.2723,-0.3368 -1.9746,-0.1894 -1.0658,0.2238 -1.2774,0.1106 -1.2774,-0.6856 0,-0.812 0.2076,-0.9128 1.3926,-0.6758 0.8261,0.165 1.6757,0.043 2.0898,-0.3008 0.2233,-0.1852 0.3772,-0.2829 0.4825,-0.2675 z m -311.5704,0.7285 c 3.9835,0 4.4282,0.084 4.2891,0.8125 -0.1324,0.6922 -0.7915,0.8339 -4.4453,0.9472 -4.0504,0.1261 -4.2891,0.081 -4.2891,-0.8125 0,-0.886 0.2821,-0.9472 4.4453,-0.9472 z m 91.8868,0 h 64.6894 c 56.2277,0 64.9039,0.091 66.3418,0.6914 1.3289,0.5552 6.9327,4.7803 9.793,7.3848 0.412,0.3751 -23.6985,0.5136 -89.5508,0.5136 h -90.1133 l 2.0176,-1.7754 c 3.5041,-3.0836 4.0457,-3.3627 4.7266,-2.4316 0.5411,0.7402 0.7875,0.7471 3.3496,0.094 4.6155,-1.1769 10.1634,-2.1142 19.6777,-3.3242 z m 208.0761,0.9277 c 1.605,0 1.5547,1.9285 -0.082,3.2168 -0.6727,0.5289 -1.4856,0.9629 -1.8066,0.9629 -0.5325,0 -1.1485,-0.97 -1.1485,-1.8086 0,-0.8146 1.9941,-2.3711 3.0371,-2.3711 z m 19.4864,0.5196 -0.9278,0.039 0.9278,0.3008 c 0.5108,0.1661 1.3421,0.5455 1.8476,0.8437 0.9077,0.537 0.9069,0.5568 0.016,1.627 l -0.9003,1.0801 1.1445,-1.0645 1.1445,-1.0664 -1.1621,-0.8984 c -0.6385,-0.4938 -1.579,-0.884 -2.0898,-0.8613 z m -323.5567,1.3359 h 4 4.002 l -0.2617,2.2051 c -0.1447,1.2132 -0.3439,2.4677 -0.4415,2.7871 -0.2633,0.8577 -6.7089,0.8071 -6.7089,-0.053 0,-0.3474 -0.1324,-1.6002 -0.295,-2.7851 z m 305.8028,1.1641 -0.062,1.2441 c -0.035,0.6841 0.2646,1.5713 0.666,1.9727 0.9959,0.9961 1.4476,0.9281 0.5449,-0.082 -0.3994,-0.4469 -0.8195,-1.3361 -0.9356,-1.9746 z m 8.3593,1.6796 c -0.7721,0.05 -0.7714,0.067 -0.01,0.2657 1.1218,0.2931 1.0161,1.3407 -0.2207,2.207 v 0 c -0.5666,0.3979 -0.81,0.7227 -0.5371,0.7227 0.844,0 2.1598,-1.7826 1.8711,-2.5352 -0.1506,-0.3924 -0.6466,-0.6904 -1.1016,-0.6602 z m -13.4668,1.0586 c -0.1045,0.1045 0.067,1.0476 0.3809,2.0957 0.314,1.0481 0.6554,1.8192 0.7598,1.7149 0.1045,-0.1045 -0.067,-1.0476 -0.3809,-2.0957 -0.314,-1.0481 -0.6555,-1.8192 -0.7598,-1.7149 z m 18.293,1.3164 c -0.069,0.031 -0.1715,0.1433 -0.3086,0.3555 -0.2473,0.3831 -0.4371,1.0114 -0.4258,1.3945 0.017,0.4594 0.1628,0.38 0.4258,-0.2324 0.4114,-0.9574 0.5143,-1.6096 0.3086,-1.5176 z m -16.3496,0.502 c -0.088,0.088 0,0.7321 0.3457,1.8516 0.2898,0.9445 0.6162,1.6259 0.7266,1.5156 0.1102,-0.1104 -0.049,-0.9586 -0.3555,-1.8867 -0.363,-1.1001 -0.6288,-1.5685 -0.7168,-1.4805 z m -195.2949,0.8672 c 11.3392,0 24.7881,0 40.5175,0.025 86.7711,0.1188 89.0177,0.1453 89.9707,1.0078 0.7279,0.6587 0.9762,1.4287 0.9649,3.0176 -0.018,3.5372 -0.7326,5.6506 -2.5176,7.4355 l -1.666,1.6641 -86.9434,0.1093 -86.9453,0.1114 -1.5254,-0.9805 c -1.9762,-1.2681 -2.9785,-3.2231 -3.3945,-6.625 -0.3915,-3.202 0.1039,-4.6415 1.8457,-5.3594 0.6451,-0.2649 15.6757,-0.3943 49.6934,-0.4062 z m 203.2558,1.7304 c -0.06,-0.1853 -0.1047,0.9536 -0.1054,3.0606 0,2.8092 0.075,4.019 0.1679,2.6875 0.093,-1.3316 0.095,-3.6296 0,-5.1074 -0.023,-0.3695 -0.044,-0.5789 -0.064,-0.6407 z m -8.4863,0.2012 c -0.1064,0.1065 0.052,1.1673 0.3516,2.3574 0.2996,1.1902 0.6317,2.0773 0.7382,1.9707 0.1064,-0.1064 -0.052,-1.1672 -0.3515,-2.3574 -0.2997,-1.1901 -0.6321,-2.0773 -0.7383,-1.9707 z m -282.4844,0.7559 -15.6719,0.1211 -15.6718,0.123 -0.127,8.4746 -0.1269,8.4746 h 15.7988 15.7988 v -8.5976 z m 284.3399,0.6387 c -0.1022,0.1022 0.1702,1.4678 0.6054,3.0332 0.4353,1.5654 0.877,2.7597 0.9825,2.6543 0.1053,-0.1054 -0.1672,-1.4691 -0.6055,-3.0313 -0.4384,-1.5623 -0.8804,-2.7583 -0.9824,-2.6562 z m -314.9883,0.3007 h 14.8594 14.8613 v 7.6621 7.6622 h -3.0098 c -2.8229,0 -3.0275,-0.071 -3.3008,-1.1602 -0.1602,-0.6386 -0.1602,-1.6838 0,-2.3223 0.241,-0.9602 0.5694,-1.1601 1.9063,-1.1601 0.889,0 1.6172,-0.2098 1.6172,-0.4649 0,-0.2553 -0.2097,-0.4648 -0.4649,-0.4648 -0.6873,0 -0.5708,-2.7857 0.1172,-2.8008 0.3193,-0.01 0.01,-0.4428 -0.6972,-0.9668 -1.3503,-1.0074 -1.6709,-2.6183 -0.711,-3.5781 0.4464,-0.4487 -1.5029,-0.5404 -9.1699,-0.4414 l -9.7383,0.125 -0.1465,1.7773 c -0.1168,1.419 0.03,1.8221 0.7246,2.0039 0.6996,0.183 0.8645,0.6535 0.8418,2.4024 -0.026,2.0475 -0.1083,2.1897 -1.4199,2.4082 -1.3198,0.2199 -1.3926,0.347 -1.3926,2.4375 v 2.207 h -2.4394 -2.4375 v -7.6622 z m 307.6191,2.1621 c 0.6026,-0.1355 0.8291,0.6034 0.4551,1.9317 -0.1935,0.6878 -0.3193,1.406 -0.2773,1.5976 0.096,0.4379 0.027,0.4277 -0.9688,-0.1523 -1.0652,-0.6204 -1.0334,-1.9406 0.07,-2.9395 0.2762,-0.2499 0.5199,-0.3923 0.7207,-0.4375 z m -287.039,0.4786 c 1.5149,0 2.5184,0.026 2.6445,0.068 0.2521,0.085 0.459,0.6601 0.459,1.2774 v 1.125 h -8.3594 -8.3594 v -1.1407 -1.1406 l 7.9004,-0.1367 c 2.1726,-0.039 4.1999,-0.056 5.7149,-0.053 z m 293.9902,0.7695 c -0.018,-0.01 -0.035,-0.01 -0.049,0.01 -0.1142,0.1135 -0.063,0.9685 0.1113,1.9004 0.175,0.9319 0.4101,1.602 0.5234,1.4883 0.1142,-0.1135 0.063,-0.9685 -0.1113,-1.9004 -0.1531,-0.8154 -0.3511,-1.4312 -0.4746,-1.4961 z m -4.334,0.3047 c 0.094,0.022 0.1803,0.069 0.2559,0.1445 0.1874,0.1875 0.141,0.9106 -0.1035,1.6055 -0.2444,0.6949 -0.8224,1.335 -1.2832,1.4238 -0.6719,0.1289 -0.8062,-0.094 -0.6856,-1.1094 0.136,-1.1451 1.1579,-2.219 1.8164,-2.0644 z m -315.4453,0.4648 c 0.049,0.3093 0.1045,0.6199 0.1582,0.9297 h 1.3359 v 6.1211 c 0.2837,1.08 0.5929,2.1634 0.9297,3.25 v -10.3008 z m 330.6094,0.7891 c -0.095,0 -0.3199,0.4018 -0.5781,1.0723 -0.3439,0.8938 -0.625,1.9391 -0.625,2.3222 0,0.3831 0.2806,-0.036 0.625,-0.9297 0.3443,-0.8939 0.6269,-1.9391 0.6269,-2.3222 0,-0.096 -0.017,-0.1419 -0.049,-0.1426 z m -8.5742,1.248 c -0.049,0.049 -0.083,0.212 -0.094,0.4825 -0.02,0.4893 0.09,0.7635 0.2441,0.6093 0.1558,-0.1543 0.171,-0.5554 0.037,-0.8906 -0.074,-0.1853 -0.1388,-0.25 -0.1875,-0.2012 z m -250.0801,0.5196 1.5703,1.4804 c 0.864,0.8144 2.1599,1.7033 2.8789,1.9746 0.9046,0.3413 27.7689,0.4922 87.2305,0.4922 94.3797,0 87.7631,0.1975 90.0293,-2.6836 0.5074,-0.6449 0.991,-1.0891 1.0742,-0.9863 0.083,0.1028 0.028,1.3375 -0.1231,2.7422 l -0.2714,2.5527 -90.9004,0.1172 -90.8985,0.1172 -0.01,-1.0449 c 0,-0.5753 -0.1342,-1.8827 -0.293,-2.9043 z m -58.3867,0.2285 h 8.3574 8.3594 v 1.3945 1.3926 h -8.3594 -8.3574 v -1.3926 z m 307.1601,0.6836 c -0.084,-0.031 -0.1426,0.236 -0.1426,0.7148 0,0.6383 0.1055,0.8995 0.2344,0.5801 0.1289,-0.3193 0.1289,-0.8431 0,-1.1621 -0.032,-0.08 -0.064,-0.1224 -0.092,-0.1328 z m 1.836,0.4043 c -0.018,-0.01 -0.033,-0.01 -0.047,0.01 -0.1142,0.1135 -0.065,0.9684 0.1094,1.9004 0.175,0.9319 0.4116,1.602 0.5253,1.4883 0.1142,-0.1135 0.063,-0.9705 -0.1113,-1.9024 -0.1531,-0.8154 -0.353,-1.4294 -0.4765,-1.4941 z m 4.6796,0.2949 c -0.051,0.098 -0.084,0.6809 -0.086,1.6387 v 0 c 0,1.5288 0.081,2.2153 0.1875,1.5175 0.1085,-0.6977 0.1114,-1.9524 0.01,-2.7871 -0.039,-0.313 -0.075,-0.428 -0.1055,-0.3691 z m 1.7559,1.1191 c -0.049,0.049 -0.081,0.212 -0.092,0.4825 v 0 c -0.02,0.4893 0.09,0.7635 0.2441,0.6093 0.1557,-0.1543 0.1709,-0.5554 0.037,-0.8906 -0.074,-0.1853 -0.1387,-0.25 -0.1875,-0.2012 z m -7.8066,0.502 c -0.084,-0.031 -0.1426,0.236 -0.1426,0.7148 0,0.6384 0.1055,0.8995 0.2344,0.5801 0.1288,-0.3193 0.1288,-0.8427 0,-1.1621 -0.032,-0.08 -0.064,-0.1224 -0.092,-0.1328 z m 7.3437,1.3535 c -0.049,0.049 -0.082,0.212 -0.094,0.4824 v 0 c -0.02,0.4893 0.09,0.7636 0.2441,0.6094 0.1558,-0.1543 0.1729,-0.5534 0.039,-0.8887 -0.074,-0.1852 -0.1387,-0.2519 -0.1875,-0.2031 z m -317.7558,0.2871 h 8.3593 8.3575 v 1.3926 1.3926 h -8.3575 -8.3593 v -1.3926 z m 202.832,1.4649 c 37.4073,-8e-4 40.0321,0.1648 40.1933,0.7441 0.1246,0.4476 0.3566,2.2767 0.5157,4.0644 0.159,1.7879 0.4018,3.8251 0.539,4.5274 l 0.25,1.2754 h -91.5547 -91.5527 l 0.3301,-3.1328 c 0.1815,-1.724 0.4616,-4.0753 0.623,-5.2246 l 0.293,-2.0899 90.166,-0.1172 c 21.3957,-0.028 37.7282,-0.047 50.1973,-0.047 z m 105.8633,0.914 c 1.4027,-3e-4 3.2368,0.02 5.6679,0.051 l 9.8946,0.127 1.4433,1.7832 c 1.3516,1.6705 1.4434,2.0261 1.4434,5.5722 0,3.2443 -0.1871,4.1543 -1.3106,6.3418 -0.7214,1.4047 -1.7509,3.0249 -2.2871,3.5996 -0.9424,1.0108 -1.2586,1.0449 -9.4804,1.0449 h -8.5059 l -1.6152,-2.205 c -2.055,-2.8065 -3.0371,-5.6546 -3.0371,-8.8047 0,-2.8813 0.7984,-5.0376 2.4179,-6.5293 0.8439,-0.7774 1.161,-0.9795 5.3692,-0.9805 z m -244.0215,10.6231 h 2.4531 2.4531 l -1.1777,3.832 c -0.6474,2.107 -1.5263,4.9801 -1.9531,6.3848 -0.6208,2.0429 -0.9924,2.5842 -1.8614,2.7089 -1.0303,0.1481 -1.072,0.052 -0.8086,-1.8574 0.1529,-1.1074 0.4163,-4.0509 0.586,-6.541 z m 173.5137,0 c 1.2942,0 2.3696,0.053 2.3847,0.1171 0.017,0.064 0.2801,2.9883 0.584,6.5 l 0.5527,6.3848 h -1.0488 c -0.5764,0 -1.0488,-0.07 -1.0488,-0.1562 0,-0.1563 -2.8989,-10.0807 -3.4746,-11.8946 -0.2769,-0.8721 -0.1089,-0.9511 2.0508,-0.9511 z m -85.3614,0 c 61.8656,0 62.1758,0.01 62.1758,0.9297 v 0 c 0,0.9211 -0.3107,0.9277 -62.1485,0.9277 -34.181,0 -62.2711,-0.1246 -62.4238,-0.2773 -0.1516,-0.1527 -0.1649,-0.5698 -0.027,-0.9277 0.2127,-0.5541 9.5141,-0.6524 62.4258,-0.6524 z m 64.1543,0 c 1.0493,0 1.1747,0.2176 1.3985,2.4375 0.1353,1.3409 0.062,2.6326 -0.1621,2.8692 -0.4116,0.4342 -1.4634,-1.6207 -2.0743,-4.0547 -0.2778,-1.1073 -0.1814,-1.252 0.8379,-1.252 z m 10.043,0 c 6.3014,0 7.893,0.1293 8.0937,0.6524 0.1387,0.3581 0.1273,0.775 -0.025,0.9277 v 0 c -0.1527,0.1527 -3.7945,0.2773 -8.0938,0.2773 -7.5072,0 -7.8164,-0.036 -7.8164,-0.9277 0,-0.8909 0.3089,-0.9297 7.8438,-0.9297 z m -138.8574,0.025 c 0.1227,0.01 0.2617,0.028 0.416,0.055 0.8549,0.1466 0.8627,0.2639 0.2109,2.5898 -0.4352,1.553 -0.9354,2.4395 -1.3789,2.4395 -0.556,0 -0.6514,-0.4696 -0.4726,-2.332 0.224,-2.3305 0.3656,-2.8103 1.2246,-2.752 z m -5.3516,0.031 c 3.3043,-6e-4 3.5832,0.1708 3.4727,0.7461 -0.1431,0.745 -0.9276,0.8362 -8.1993,0.9511 -7.4868,0.1184 -8.0302,0.07 -7.8828,-0.6972 0.1431,-0.7454 0.9276,-0.8363 8.1992,-0.9512 1.8718,-0.03 3.3088,-0.049 4.4102,-0.049 z m -49.8144,18.5156 -20.8458,11.5762 c 0.148,0.2546 0.2901,0.4855 0.4376,0.7382 l 20.5078,-11.3847 h 150.3222 150.3223 l 10.7754,5.9824 c -0.4956,-0.6063 -0.9952,-1.2119 -1.5215,-1.8223 l -9.1641,-5.0898 h -150.416 z m 2.8457,11.6094 -10.6094,5.8691 c -3.1528,1.7443 -5.419,3.0074 -7.1328,3.9883 0.1603,0.2554 0.3222,0.5046 0.4824,0.7578 1.8902,-1.0753 4.3107,-2.4398 7.0078,-3.9434 l 10.3027,-5.7422 h 147.5176 147.5156 l 9.9493,5.5508 c 5.4718,3.0535 10.2614,5.7585 10.6445,6.0098 0.4583,0.3013 -57.0147,0.4692 -168.0606,0.4844 -79.3424,0.013 -145.8391,-0.073 -163.4941,-0.1993 0.1826,0.2812 0.3661,0.5615 0.5488,0.8399 16.3824,0.211 65.5017,0.2685 163.0508,0.2012 148.8796,-0.1025 169.5801,-0.2012 169.5801,-0.8008 0,-0.41 -4.4339,-3.1483 -11.0938,-6.8496 l -11.0957,-6.166 h -147.5566 z m 321.5058,24.4316 c -38.1274,0.1061 -99.9234,0.1797 -173.9277,0.1797 -62.6782,0 -116.7595,-0.048 -155.1016,-0.125 0.2619,0.3287 0.527,0.6488 0.791,0.9726 31.9019,0.057 76.8532,0.082 154.0723,0.082 90.9605,0 143.5428,-0.023 174.1836,-0.1133 0,-0.3307 -0.01,-0.6629 -0.018,-0.9961 z" transform="matrix(0.26458333,0,0,0.26458333,-902.40397,-1773.0587)"/>
      <g id="g36080" transform="matrix(0.67469894,0,0,0.67469894,-41.659282,-669.86271)" style="display:inline">
        <g id="g36006" transform="matrix(0.20755886,0,0,0.20755886,-804.40285,-174.7843)" style="display:inline;fill:#ff0837;fill-opacity:1;fill-rule:evenodd;stroke:none;stroke-width:1;filter:url(#filter24322)">
          <g id="g35978" transform="translate(85.439497)" style="fill:#ff0837;fill-opacity:1">
            <g id="g35974" stroke-width="1" transform="translate(56.316359,32.329762)" fill="#57331f" style="fill:#ff0837;fill-opacity:1">
              <path d="M 8.6166886,35.9696 C 3.8111203,30.328837 0.55861114,23.416005 1.1021073,15.669979 2.6680712,-6.6484806 33.736139,-1.7387038 39.779521,9.525738 45.822903,20.79018 45.104792,49.363371 37.294259,51.37664 34.179429,52.17953 27.543915,50.212773 20.790511,46.14219 l 4.238982,29.989185 H 0 Z" id="path35972" style="fill:#ff0837;fill-opacity:1"/>
            </g>
            <path d="m 78.358275,50.464599 c 0.958092,13.346118 3.492497,20.019177 7.603216,20.019177 6.166439,0 11.398225,-3.914664 14.103909,-3.914664 1.97236,0 1.53199,2.468217 0.22461,4.298224 -1.078629,1.509815 -6.331465,2.965096 -6.331465,5.305817 0,2.34072 4.150176,0.529834 4.150176,1.918069 0,2.296311 0.729387,6.613786 -3.256094,6.613786 -4.033441,0 -15.598028,-1.469863 -17.579885,-7.4562 C 75.99371,73.385402 75.166723,65.3797 74.791783,53.231704 c -0.244682,-0.02907 -0.493694,-0.04403 -0.746199,-0.04403 -3.455852,0 -6.257373,2.801521 -6.257373,6.257373 0,1.754378 0.721988,3.340127 1.885049,4.476331 -1.447872,2.04366 -3.07052,4.178537 -4.929902,6.381453 -6.985294,-4.190893 -12.16878,-16.459206 -5.339521,-28.244648 1.887629,-5.773505 6.160956,-8.857351 11.207859,-10.28928 4.088251,-1.710128 8.332242,-1.902947 11.914775,-0.87774 7.022757,0.602368 13.293743,2.743797 15.07099,4.015539 0,6.648693 -1.288278,8.621341 -12.291937,8.44746 -2.703777,1.427916 -4.782304,3.886786 -6.947249,7.110438 z" id="path35976" fill="#191847" style="fill:#ff0837;fill-opacity:1"/>
          </g>
          <g id="g35996" transform="translate(0,194.76354)" style="fill:#ff0837;fill-opacity:1">
            <polygon id="polygon35980" fill="#3d2216" points="238.82308,239.08411 186.33799,5.3087336e-13 139.748,0 190.93503,129.55569 225.26638,239.08411 " style="fill:#ff0837;fill-opacity:1"/>
            <path d="m 129.44068,0 c -0.54507,45.526759 -8.49417,106.82115 -9.76417,109.65906 -0.84667,1.89194 -30.074932,25.95122 -87.684798,72.17785 l 9.33727,9.99198 C 109.30329,152.19535 144.8632,129.73552 148.00871,124.44938 152.72699,116.52017 168.08806,43.554589 180.42093,0 Z" id="path35982" fill="#57331f" style="fill:#ff0837;fill-opacity:1"/>
            <g id="g35986" transform="rotate(50,-146.22525,132.4658)" fill="#e4e4e4" style="fill:#ff0837;fill-opacity:1">
              <path d="m 2.7930117,26.491554 c -1.1667441,3.114593 -1.7501162,5.445029 -1.7501162,6.991307 0,1.880639 0.3133007,4.62496 0.939902,8.232961 2.1816734,0 21.7887395,0 58.8211985,0 1.528555,-5.053343 0.646184,-7.78148 -2.647111,-8.184412 -3.293295,-0.402931 -6.029091,-0.766746 -8.207388,-1.091444 L 22.609968,20.251867 c -0.526067,-0.234523 -1.142647,0.0018 -1.377171,0.527887 -0.004,0.009 -0.0079,0.01806 -0.01165,0.02717 l -1.757364,4.262929 c -3.04873,1.422465 -5.526139,2.133697 -7.432229,2.133697 -1.548652,0 -3.6873536,-0.625451 -6.416105,-1.876352 l 5.7e-6,-1.3e-5 c -1.0471721,-0.48004 -2.2852219,-0.02029 -2.7652617,1.026884 -0.02069,0.04513 -0.039763,0.09099 -0.05718,0.13749 z" id="path35984" style="fill:#ff0837;fill-opacity:1"/>
            </g>
            <g id="g35990" transform="translate(216.92227,207.53621)" fill="#e4e4e4" style="fill:#ff0837;fill-opacity:1">
              <path d="m 2.7930117,26.491554 c -1.1667441,3.114593 -1.7501162,5.445029 -1.7501162,6.991307 0,1.880639 0.3133007,4.62496 0.939902,8.232961 2.1816734,0 21.7887395,0 58.8211985,0 1.528555,-5.053343 0.646184,-7.78148 -2.647111,-8.184412 -3.293295,-0.402931 -6.029091,-0.766746 -8.207388,-1.091444 L 22.609968,20.251867 c -0.526067,-0.234523 -1.142647,0.0018 -1.377171,0.527887 -0.004,0.009 -0.0079,0.01806 -0.01165,0.02717 l -1.757364,4.262929 c -3.04873,1.422465 -5.526139,2.133697 -7.432229,2.133697 -1.548652,0 -3.6873536,-0.625451 -6.416105,-1.876352 l 5.7e-6,-1.3e-5 c -1.0471721,-0.48004 -2.2852219,-0.02029 -2.7652617,1.026884 -0.02069,0.04513 -0.039763,0.09099 -0.05718,0.13749 z" id="path35988" style="fill:#ff0837;fill-opacity:1"/>
            </g>
            <polygon id="polygon35992" fill="#69a1ac" points="238.61916,220.8074 190.84989,2.8421709e-14 133.11944,2.8421709e-14 174.16356,227.80269 " style="fill:#ff0837;fill-opacity:1"/>
            <path d="m 45.324197,165.7166 42.279029,50.04385 C 132.13482,167.12397 158.09685,135.38866 165.48933,120.55452 172.8818,105.72038 179.52726,65.535536 185.42571,0 h -64.99407 c -3.22202,57.655306 -5.3939,87.824451 -6.51561,90.507435 -1.12172,2.682983 -23.985661,27.752705 -68.591833,75.209165 z" id="path35994" fill="#89c5cc" style="fill:#ff0837;fill-opacity:1"/>
          </g>
          <g id="g36004" transform="translate(22.922792,85.404334)" style="fill:#ff0837;fill-opacity:1">
            <path d="m 208.05049,96.426471 29.54304,28.820439 c 8.59594,3.66663 15.63909,7.71532 21.12944,12.14608 1.2347,1.48933 2.57887,4.34296 -3.23032,3.066 -5.8092,-1.27695 -11.97703,-2.35886 -13.06886,-0.46967 -1.09183,1.88919 2.12533,4.78411 0.1075,7.25657 -1.34522,1.64832 -5.86931,-3.59464 -13.57226,-15.72887 L 198.23817,113.40476 Z M 63.585124,70.342974 l 22.836693,0.08571 c -17.393152,56.351606 -26.625996,85.856436 -27.69853,88.514436 -2.413201,5.98053 2.693458,15.08876 4.877267,19.98346 -7.112596,3.18267 -6.354741,-8.60408 -15.327089,-4.42983 -8.189544,3.81007 -14.41931,10.71366 -23.881144,4.87541 -1.163277,-0.71777 -2.438039,-3.42034 0.641947,-5.53225 7.673369,-5.26153 18.731158,-14.47017 20.22524,-17.50126 2.037447,-4.13344 8.145985,-32.79866 18.325616,-85.995671 z" id="path35998" fill="#57331f" style="fill:#ff0837;fill-opacity:1"/>
            <path d="m 128.03448,10.130672 8.84892,-2.3268785 c 18.52883,48.7881225 94.22527,76.5264535 100.32517,94.8370065 2.23699,6.71497 -2.39552,10.61366 0.33685,12.47953 l -10.92923,9.56971 c -2.17926,-2.1341 -6.02983,2.45532 -15.10036,0.27424 -9.07054,-2.18109 -78.29893,-55.598282 -83.48135,-114.833608 z" id="path36000" fill="#191847" transform="rotate(5,182.93771,66.686121)" style="fill:#ff0837;fill-opacity:1"/>
            <path d="m 148.3422,12.236982 c -1.03972,66.48398 37.39315,83.443011 28.83247,110.113698 -7.06927,22.0242 -74.73382,45.70014 -86.442757,24.11121 -4.739627,-8.73892 -6.890015,-19.30802 -7.134004,-30.79893 -2.992558,8.82804 -5.359339,16.42792 -7.100346,22.79965 -3.003479,10.99213 -14.647329,12.73938 -14.647329,16.97394 l -15.340607,-4.23456 c 1.040517,-5.75283 -6.191416,-8.55412 -4.252346,-21.40644 C 50.945452,72.209592 74.289004,30.46734 112.28794,4.5687947 l 0.39311,-5.621852 c 0.16072,-2.2982891 2.15413,-4.0311376 4.45242,-3.8704256 l 28.08959,1.9642154 c 2.29829,0.160712 4.03113,2.15412621 3.87042,4.4524152 z" id="path36002" fill="#2f3676" style="fill:#ff0837;fill-opacity:1"/>
          </g>
        </g>
        <g id="g36042" transform="matrix(0.20755886,0,0,0.20755886,-800.20563,-174.7843)" style="display:inline;fill:#02ffe1;fill-opacity:1;fill-rule:evenodd;stroke:none;stroke-width:1;filter:url(#filter24390)">
          <g id="g36014" transform="translate(85.439497)" style="fill:#02ffe1;fill-opacity:1">
            <g id="g36010" stroke-width="1" transform="translate(56.316359,32.329762)" fill="#57331f" style="fill:#02ffe1;fill-opacity:1">
              <path d="M 8.6166886,35.9696 C 3.8111203,30.328837 0.55861114,23.416005 1.1021073,15.669979 2.6680712,-6.6484806 33.736139,-1.7387038 39.779521,9.525738 45.822903,20.79018 45.104792,49.363371 37.294259,51.37664 34.179429,52.17953 27.543915,50.212773 20.790511,46.14219 l 4.238982,29.989185 H 0 Z" id="path36008" style="fill:#02ffe1;fill-opacity:1"/>
            </g>
            <path d="m 78.358275,50.464599 c 0.958092,13.346118 3.492497,20.019177 7.603216,20.019177 6.166439,0 11.398225,-3.914664 14.103909,-3.914664 1.97236,0 1.53199,2.468217 0.22461,4.298224 -1.078629,1.509815 -6.331465,2.965096 -6.331465,5.305817 0,2.34072 4.150176,0.529834 4.150176,1.918069 0,2.296311 0.729387,6.613786 -3.256094,6.613786 -4.033441,0 -15.598028,-1.469863 -17.579885,-7.4562 C 75.99371,73.385402 75.166723,65.3797 74.791783,53.231704 c -0.244682,-0.02907 -0.493694,-0.04403 -0.746199,-0.04403 -3.455852,0 -6.257373,2.801521 -6.257373,6.257373 0,1.754378 0.721988,3.340127 1.885049,4.476331 -1.447872,2.04366 -3.07052,4.178537 -4.929902,6.381453 -6.985294,-4.190893 -12.16878,-16.459206 -5.339521,-28.244648 1.887629,-5.773505 6.160956,-8.857351 11.207859,-10.28928 4.088251,-1.710128 8.332242,-1.902947 11.914775,-0.87774 7.022757,0.602368 13.293743,2.743797 15.07099,4.015539 0,6.648693 -1.288278,8.621341 -12.291937,8.44746 -2.703777,1.427916 -4.782304,3.886786 -6.947249,7.110438 z" id="path36012" fill="#191847" style="fill:#02ffe1;fill-opacity:1"/>
          </g>
          <g id="g36032" transform="translate(0,194.76354)" style="fill:#02ffe1;fill-opacity:1">
            <polygon id="polygon36016" fill="#3d2216" points="186.33799,5.3087336e-13 139.748,0 190.93503,129.55569 225.26638,239.08411 238.82308,239.08411 " style="fill:#02ffe1;fill-opacity:1"/>
            <path d="m 129.44068,0 c -0.54507,45.526759 -8.49417,106.82115 -9.76417,109.65906 -0.84667,1.89194 -30.074932,25.95122 -87.684798,72.17785 l 9.33727,9.99198 C 109.30329,152.19535 144.8632,129.73552 148.00871,124.44938 152.72699,116.52017 168.08806,43.554589 180.42093,0 Z" id="path36018" fill="#57331f" style="fill:#02ffe1;fill-opacity:1"/>
            <g id="g36022" transform="rotate(50,-146.22525,132.4658)" fill="#e4e4e4" style="fill:#02ffe1;fill-opacity:1">
              <path d="m 2.7930117,26.491554 c -1.1667441,3.114593 -1.7501162,5.445029 -1.7501162,6.991307 0,1.880639 0.3133007,4.62496 0.939902,8.232961 2.1816734,0 21.7887395,0 58.8211985,0 1.528555,-5.053343 0.646184,-7.78148 -2.647111,-8.184412 -3.293295,-0.402931 -6.029091,-0.766746 -8.207388,-1.091444 L 22.609968,20.251867 c -0.526067,-0.234523 -1.142647,0.0018 -1.377171,0.527887 -0.004,0.009 -0.0079,0.01806 -0.01165,0.02717 l -1.757364,4.262929 c -3.04873,1.422465 -5.526139,2.133697 -7.432229,2.133697 -1.548652,0 -3.6873536,-0.625451 -6.416105,-1.876352 l 5.7e-6,-1.3e-5 c -1.0471721,-0.48004 -2.2852219,-0.02029 -2.7652617,1.026884 -0.02069,0.04513 -0.039763,0.09099 -0.05718,0.13749 z" id="path36020" style="fill:#02ffe1;fill-opacity:1"/>
            </g>
            <g id="g36026" transform="translate(216.92227,207.53621)" fill="#e4e4e4" style="fill:#02ffe1;fill-opacity:1">
              <path d="m 2.7930117,26.491554 c -1.1667441,3.114593 -1.7501162,5.445029 -1.7501162,6.991307 0,1.880639 0.3133007,4.62496 0.939902,8.232961 2.1816734,0 21.7887395,0 58.8211985,0 1.528555,-5.053343 0.646184,-7.78148 -2.647111,-8.184412 -3.293295,-0.402931 -6.029091,-0.766746 -8.207388,-1.091444 L 22.609968,20.251867 c -0.526067,-0.234523 -1.142647,0.0018 -1.377171,0.527887 -0.004,0.009 -0.0079,0.01806 -0.01165,0.02717 l -1.757364,4.262929 c -3.04873,1.422465 -5.526139,2.133697 -7.432229,2.133697 -1.548652,0 -3.6873536,-0.625451 -6.416105,-1.876352 l 5.7e-6,-1.3e-5 c -1.0471721,-0.48004 -2.2852219,-0.02029 -2.7652617,1.026884 -0.02069,0.04513 -0.039763,0.09099 -0.05718,0.13749 z" id="path36024" style="fill:#02ffe1;fill-opacity:1"/>
            </g>
            <polygon id="polygon36028" fill="#69a1ac" points="190.84989,2.8421709e-14 133.11944,2.8421709e-14 174.16356,227.80269 238.61916,220.8074 " style="fill:#02ffe1;fill-opacity:1"/>
            <path d="m 45.324197,165.7166 42.279029,50.04385 C 132.13482,167.12397 158.09685,135.38866 165.48933,120.55452 172.8818,105.72038 179.52726,65.535536 185.42571,0 h -64.99407 c -3.22202,57.655306 -5.3939,87.824451 -6.51561,90.507435 -1.12172,2.682983 -23.985661,27.752705 -68.591833,75.209165 z" id="path36030" fill="#89c5cc" style="fill:#02ffe1;fill-opacity:1"/>
          </g>
          <g id="g36040" transform="translate(22.922792,85.404334)" style="fill:#02ffe1;fill-opacity:1">
            <path d="m 208.05049,96.426471 29.54304,28.820439 c 8.59594,3.66663 15.63909,7.71532 21.12944,12.14608 1.2347,1.48933 2.57887,4.34296 -3.23032,3.066 -5.8092,-1.27695 -11.97703,-2.35886 -13.06886,-0.46967 -1.09183,1.88919 2.12533,4.78411 0.1075,7.25657 -1.34522,1.64832 -5.86931,-3.59464 -13.57226,-15.72887 L 198.23817,113.40476 Z M 63.585124,70.342974 l 22.836693,0.08571 c -17.393152,56.351606 -26.625996,85.856436 -27.69853,88.514436 -2.413201,5.98053 2.693458,15.08876 4.877267,19.98346 -7.112596,3.18267 -6.354741,-8.60408 -15.327089,-4.42983 -8.189544,3.81007 -14.41931,10.71366 -23.881144,4.87541 -1.163277,-0.71777 -2.438039,-3.42034 0.641947,-5.53225 7.673369,-5.26153 18.731158,-14.47017 20.22524,-17.50126 2.037447,-4.13344 8.145985,-32.79866 18.325616,-85.995671 z" id="path36034" fill="#57331f" style="fill:#02ffe1;fill-opacity:1"/>
            <path d="m 128.03448,10.130672 8.84892,-2.3268785 c 18.52883,48.7881225 94.22527,76.5264535 100.32517,94.8370065 2.23699,6.71497 -2.39552,10.61366 0.33685,12.47953 l -10.92923,9.56971 c -2.17926,-2.1341 -6.02983,2.45532 -15.10036,0.27424 -9.07054,-2.18109 -78.29893,-55.598282 -83.48135,-114.833608 z" id="path36036" fill="#191847" transform="rotate(5,182.93771,66.686121)" style="fill:#02ffe1;fill-opacity:1"/>
            <path d="m 148.3422,12.236982 c -1.03972,66.48398 37.39315,83.443011 28.83247,110.113698 -7.06927,22.0242 -74.73382,45.70014 -86.442757,24.11121 -4.739627,-8.73892 -6.890015,-19.30802 -7.134004,-30.79893 -2.992558,8.82804 -5.359339,16.42792 -7.100346,22.79965 -3.003479,10.99213 -14.647329,12.73938 -14.647329,16.97394 l -15.340607,-4.23456 c 1.040517,-5.75283 -6.191416,-8.55412 -4.252346,-21.40644 C 50.945452,72.209592 74.289004,30.46734 112.28794,4.5687947 l 0.39311,-5.621852 c 0.16072,-2.2982891 2.15413,-4.0311376 4.45242,-3.8704256 l 28.08959,1.9642154 c 2.29829,0.160712 4.03113,2.15412621 3.87042,4.4524152 z" id="path36038" fill="#2f3676" style="fill:#02ffe1;fill-opacity:1"/>
          </g>
        </g>
        <g id="g36078" transform="matrix(0.20755886,0,0,0.20755886,-802.33425,-174.7843)" style="display:inline;fill:none;fill-rule:evenodd;stroke:none;stroke-width:1">
          <g id="g36050" transform="translate(85.439497)">
            <g id="g36046" stroke-width="1" transform="translate(56.316359,32.329762)" fill="#57331f">
              <path d="M 8.6166886,35.9696 C 3.8111203,30.328837 0.55861114,23.416005 1.1021073,15.669979 2.6680712,-6.6484806 33.736139,-1.7387038 39.779521,9.525738 45.822903,20.79018 45.104792,49.363371 37.294259,51.37664 34.179429,52.17953 27.543915,50.212773 20.790511,46.14219 l 4.238982,29.989185 H 0 Z" id="path36044"/>
            </g>
            <path d="m 78.358275,50.464599 c 0.958092,13.346118 3.492497,20.019177 7.603216,20.019177 6.166439,0 11.398225,-3.914664 14.103909,-3.914664 1.97236,0 1.53199,2.468217 0.22461,4.298224 -1.078629,1.509815 -6.331465,2.965096 -6.331465,5.305817 0,2.34072 4.150176,0.529834 4.150176,1.918069 0,2.296311 0.729387,6.613786 -3.256094,6.613786 -4.033441,0 -15.598028,-1.469863 -17.579885,-7.4562 C 75.99371,73.385402 75.166723,65.3797 74.791783,53.231704 c -0.244682,-0.02907 -0.493694,-0.04403 -0.746199,-0.04403 -3.455852,0 -6.257373,2.801521 -6.257373,6.257373 0,1.754378 0.721988,3.340127 1.885049,4.476331 -1.447872,2.04366 -3.07052,4.178537 -4.929902,6.381453 -6.985294,-4.190893 -12.16878,-16.459206 -5.339521,-28.244648 1.887629,-5.773505 6.160956,-8.857351 11.207859,-10.28928 4.088251,-1.710128 8.332242,-1.902947 11.914775,-0.87774 7.022757,0.602368 13.293743,2.743797 15.07099,4.015539 0,6.648693 -1.288278,8.621341 -12.291937,8.44746 -2.703777,1.427916 -4.782304,3.886786 -6.947249,7.110438 z" id="path36048" fill="#191847"/>
          </g>
          <g id="g36068" transform="translate(0,194.76354)">
            <polygon id="polygon36052" fill="#3d2216" points="186.33799,5.3087336e-13 139.748,0 190.93503,129.55569 225.26638,239.08411 238.82308,239.08411 "/>
            <path d="m 129.44068,0 c -0.54507,45.526759 -8.49417,106.82115 -9.76417,109.65906 -0.84667,1.89194 -30.074932,25.95122 -87.684798,72.17785 l 9.33727,9.99198 C 109.30329,152.19535 144.8632,129.73552 148.00871,124.44938 152.72699,116.52017 168.08806,43.554589 180.42093,0 Z" id="path36054" fill="#57331f"/>
            <g id="g36058" transform="rotate(50,-146.22525,132.4658)" fill="#e4e4e4">
              <path d="m 2.7930117,26.491554 c -1.1667441,3.114593 -1.7501162,5.445029 -1.7501162,6.991307 0,1.880639 0.3133007,4.62496 0.939902,8.232961 2.1816734,0 21.7887395,0 58.8211985,0 1.528555,-5.053343 0.646184,-7.78148 -2.647111,-8.184412 -3.293295,-0.402931 -6.029091,-0.766746 -8.207388,-1.091444 L 22.609968,20.251867 c -0.526067,-0.234523 -1.142647,0.0018 -1.377171,0.527887 -0.004,0.009 -0.0079,0.01806 -0.01165,0.02717 l -1.757364,4.262929 c -3.04873,1.422465 -5.526139,2.133697 -7.432229,2.133697 -1.548652,0 -3.6873536,-0.625451 -6.416105,-1.876352 l 5.7e-6,-1.3e-5 c -1.0471721,-0.48004 -2.2852219,-0.02029 -2.7652617,1.026884 -0.02069,0.04513 -0.039763,0.09099 -0.05718,0.13749 z" id="path36056" style="fill:#b2bbc1;fill-opacity:1"/>
            </g>
            <g id="g36062" transform="translate(216.92227,207.53621)" fill="#e4e4e4">
              <path d="m 2.7930117,26.491554 c -1.1667441,3.114593 -1.7501162,5.445029 -1.7501162,6.991307 0,1.880639 0.3133007,4.62496 0.939902,8.232961 2.1816734,0 21.7887395,0 58.8211985,0 1.528555,-5.053343 0.646184,-7.78148 -2.647111,-8.184412 -3.293295,-0.402931 -6.029091,-0.766746 -8.207388,-1.091444 L 22.609968,20.251867 c -0.526067,-0.234523 -1.142647,0.0018 -1.377171,0.527887 -0.004,0.009 -0.0079,0.01806 -0.01165,0.02717 l -1.757364,4.262929 c -3.04873,1.422465 -5.526139,2.133697 -7.432229,2.133697 -1.548652,0 -3.6873536,-0.625451 -6.416105,-1.876352 l 5.7e-6,-1.3e-5 c -1.0471721,-0.48004 -2.2852219,-0.02029 -2.7652617,1.026884 -0.02069,0.04513 -0.039763,0.09099 -0.05718,0.13749 z" id="path36060" style="fill:#b2bbc1;fill-opacity:1"/>
            </g>
            <polygon id="polygon36064" fill="#69a1ac" points="238.61916,220.8074 190.84989,2.8421709e-14 133.11944,2.8421709e-14 174.16356,227.80269 "/>
            <path d="m 45.324197,165.7166 42.279029,50.04385 C 132.13482,167.12397 158.09685,135.38866 165.48933,120.55452 172.8818,105.72038 179.52726,65.535536 185.42571,0 h -64.99407 c -3.22202,57.655306 -5.3939,87.824451 -6.51561,90.507435 -1.12172,2.682983 -23.985661,27.752705 -68.591833,75.209165 z" id="path36066" fill="#89c5cc"/>
          </g>
          <g id="g36076" transform="translate(22.922792,85.404334)">
            <path d="m 208.05049,96.426471 29.54304,28.820439 c 8.59594,3.66663 15.63909,7.71532 21.12944,12.14608 1.2347,1.48933 2.57887,4.34296 -3.23032,3.066 -5.8092,-1.27695 -11.97703,-2.35886 -13.06886,-0.46967 -1.09183,1.88919 2.12533,4.78411 0.1075,7.25657 -1.34522,1.64832 -5.86931,-3.59464 -13.57226,-15.72887 L 198.23817,113.40476 Z M 63.585124,70.342974 l 22.836693,0.08571 c -17.393152,56.351606 -26.625996,85.856436 -27.69853,88.514436 -2.413201,5.98053 2.693458,15.08876 4.877267,19.98346 -7.112596,3.18267 -6.354741,-8.60408 -15.327089,-4.42983 -8.189544,3.81007 -14.41931,10.71366 -23.881144,4.87541 -1.163277,-0.71777 -2.438039,-3.42034 0.641947,-5.53225 7.673369,-5.26153 18.731158,-14.47017 20.22524,-17.50126 2.037447,-4.13344 8.145985,-32.79866 18.325616,-85.995671 z" id="path36070" fill="#57331f"/>
            <path d="m 128.03448,10.130672 8.84892,-2.3268785 c 18.52883,48.7881225 94.22527,76.5264535 100.32517,94.8370065 2.23699,6.71497 -2.39552,10.61366 0.33685,12.47953 l -10.92923,9.56971 c -2.17926,-2.1341 -6.02983,2.45532 -15.10036,0.27424 -9.07054,-2.18109 -78.29893,-55.598282 -83.48135,-114.833608 z" id="path36072" fill="#191847" transform="rotate(5,182.93771,66.686121)"/>
            <path d="m 148.3422,12.236982 c -1.03972,66.48398 37.39315,83.443011 28.83247,110.113698 -7.06927,22.0242 -74.73382,45.70014 -86.442757,24.11121 -4.739627,-8.73892 -6.890015,-19.30802 -7.134004,-30.79893 -2.992558,8.82804 -5.359339,16.42792 -7.100346,22.79965 -3.003479,10.99213 -14.647329,12.73938 -14.647329,16.97394 l -15.340607,-4.23456 c 1.040517,-5.75283 -6.191416,-8.55412 -4.252346,-21.40644 C 50.945452,72.209592 74.289004,30.46734 112.28794,4.5687947 l 0.39311,-5.621852 c 0.16072,-2.2982891 2.15413,-4.0311376 4.45242,-3.8704256 l 28.08959,1.9642154 c 2.29829,0.160712 4.03113,2.15412621 3.87042,4.4524152 z" id="path36074" fill="#2f3676"/>
          </g>
        </g>
      </g>
    </g>
  </g>
</svg>