<svg xmlns:dc="http://purl.org/dc/elements/1.1/" xmlns:cc="http://creativecommons.org/ns#" xmlns:rdf="http://www.w3.org/1999/02/22-rdf-syntax-ns#" xmlns:svg="http://www.w3.org/2000/svg" xmlns="http://www.w3.org/2000/svg" xmlns:sodipodi="http://sodipodi.sourceforge.net/DTD/sodipodi-0.dtd" xmlns:inkscape="http://www.inkscape.org/namespaces/inkscape" width="53.251732mm" height="56.596134mm" viewBox="0 0 53.251732 56.596134" version="1.1" id="svg3295" sodipodi:docname="multipage-export-4wg07kgw.svg">
  <defs id="defs3289">
    <clipPath clipPathUnits="userSpaceOnUse" id="clipPath9813-7">
      <path style="fill:#fddd94;fill-opacity:1;stroke:none;stroke-width:0.588001;stroke-miterlimit:10;stroke-dasharray:none;stroke-opacity:1" d="m -673.34854,16.438249 c -61.00238,23.071425 -91.89465,36.366813 -95.41402,57.874059 -3.51934,21.50727 58.26509,46.533872 70.38741,40.668262 12.12231,-5.86562 57.092,-30.110153 56.70089,-22.680381 -0.39101,7.429799 -81.33653,29.328071 -14.85944,37.930981 66.47686,8.60291 106.36304,-16.03268 110.66453,-23.46245 18.06129,-14.669231 10.686,-45.314288 17.20582,-67.650097 9.38499,-26.981821 18.37891,-37.148879 10.167,-45.3607435 -8.2118,-8.2118575 -104.79894,-24.2445385 -117.31223,-14.4685195 -12.51339,9.77603 -37.53996,37.148889 -37.53996,37.148889 z" id="path9815-3" sodipodi:nodetypes="cssssccssc"/>
    </clipPath>
    <clipPath clipPathUnits="userSpaceOnUse" id="clipPath7563-5">
      <path style="fill:#ffd64b;fill-opacity:0.413386;stroke:none;stroke-width:0.97368;stroke-miterlimit:10;stroke-dasharray:none;stroke-opacity:1" d="m -1.7543223,238.04606 c 0,-13.9606 4.7693128,-14.49886 4.8475211,-24.1043 0.078747,-9.60542 -26.5784748,-1.61898 -47.7298908,-16.67853 -21.151253,-15.05956 -14.378503,-38.2137 -32.541905,-61.70838 -18.163403,-23.49466 -69.267293,-75.251 -69.267293,-75.251 39.36822,5.884223 271.83555,-1.02152 271.83555,-1.02152 0,0 21.96412,57.81769 19.6225,77.63373 -2.418,71.1294 -72.924245,33.70145 -87.537051,49.31135 -2.828851,4.5047 -10.013312,8.45265 -11.840041,24.00661 -1.826997,15.55397 -10.412159,21.50282 -19.066755,30.19555 -8.654596,8.69275 -27.7068182,0 -27.7068182,0 z" id="path7565-8" sodipodi:nodetypes="ccssccccsscc"/>
    </clipPath>
    <clipPath clipPathUnits="userSpaceOnUse" id="clipPath8789-1">
      <path id="path8791-4" style="display:inline;fill:#efe4a5;fill-opacity:0.633858;stroke:none;stroke-width:3.35361;stroke-opacity:0.448819" d="M 751.1853,521.62742 C 717.16394,459.98384 731.20966,404.04024 770.79474,352.68884 817.29742,292.36371 874.20772,51.601234 954.67924,2.154959 c 72.04936,-44.271283 211.97266,-33.977544 255.76216,-72.256757 246.3573,-76.058602 507.9915,356.516628 378.579,487.678458 -84.0552,85.68768 12.999,97.35161 -10.8027,116.37904 96.778,111.36346 -179.7943,124.84193 -354.8578,60.57978 -66.5277,-19.21589 -155.0098,103.58326 -218.2073,75.09672 C 917.35165,648.97838 798.88478,606.30226 751.1853,521.62742 Z" sodipodi:nodetypes="csscccccc"/>
    </clipPath>
    <clipPath clipPathUnits="userSpaceOnUse" id="clipPath9194-5-1">
      <path id="path9196-8-7" style="display:inline;fill:#659d40;fill-opacity:1;stroke:none;stroke-width:0.571103;stroke-opacity:0.448819" d="m -1036.2332,619.5894 c -1.5244,-6.69685 -9.5198,-11.11949 -12.0158,-17.84107 -3.133,-8.43706 -4.5099,-17.90835 -3.1892,-26.81086 1.5579,-10.50097 5.1402,-21.8009 12.7814,-29.17042 9.8866,-9.53519 24.9163,-12.14266 38.3161,-15.1611 19.65289,-4.42698 42.47003,-13.37752 60.30308,-4.00646 21.8377,11.47546 32.71488,39.46904 37.84639,63.59867 2.86761,13.4843 3.07944,29.79914 -4.85698,41.07135 -6.32267,8.98014 -18.83307,12.0587 -29.49969,14.6745 -22.17677,5.43851 -46.04472,5.52808 -68.4889,1.3271 -6.4267,-1.20293 -13.119,-3.2667 -18.1461,-7.44725 -6.171,-5.13173 -11.1706,-11.97676 -13.0503,-20.23446 z" sodipodi:nodetypes="saaaaaaaaaas"/>
    </clipPath>
    <rect x="-182.28062" y="-155.58829" width="297.40536" height="147.64027" id="rect22825"/>
  </defs>
  <sodipodi:namedview id="base" pagecolor="#ffffff" bordercolor="#666666" borderopacity="1.0" inkscape:pageopacity="0.0" inkscape:pageshadow="2" inkscape:zoom="0.25517133" inkscape:cx="1671.2508" inkscape:cy="148.44944" inkscape:document-units="mm" inkscape:current-layer="layer1" inkscape:document-rotation="0" showgrid="false" inkscape:window-width="1920" inkscape:window-height="1001" inkscape:window-x="-9" inkscape:window-y="-9" inkscape:window-maximized="1"/>
  <metadata id="metadata3292">
    <rdf:RDF>
      <cc:Work rdf:about="">
        <dc:format>image/svg+xml</dc:format>
        <dc:type rdf:resource="http://purl.org/dc/dcmitype/StillImage"/>
      </cc:Work>
    </rdf:RDF>
  </metadata>
  <g inkscape:label="Layer 1" inkscape:groupmode="layer" id="layer1" transform="translate(-122.15126,77.694011)">
    <g id="diet" transform="matrix(0.97792078,0,0,0.97792078,486.3871,909.00715)">
      <path id="path27622" style="fill:#c4b47d;fill-opacity:1;stroke:none;stroke-width:1.40015;stroke-opacity:0.345098" d="m 1351.5898,2318.9355 c -0.1857,0.01 -0.3779,0.024 -0.5703,0.053 -10.1078,0.3089 -20.6424,-0.4955 -30.4804,2.1308 4.2162,-0.8015 9.0468,-1.1796 14.7226,-1.1796 h 11.8438 l -0.7715,7.3515 c -1.0343,9.863 -5.6019,21.5861 -10.9278,28.043 -8.1082,9.8306 -21.9856,14.1622 -32.6874,10.2051 -3.0193,-1.1164 -7.4294,-1.7074 -9.8008,-1.3125 -0.8971,0.1493 -1.5219,0.2442 -2.0489,0.3086 -1.724,2.1361 -1.4758,5.8264 1.3614,6.9628 2.9543,0.7857 6.0429,-0.8028 9.0703,0 4.7235,0.7525 9.1933,2.9477 14.0879,2.6289 14.2635,0.037 27.6201,-9.5182 33.084,-22.5527 4.188,-8.5638 5.9801,-18.0776 6.7793,-27.5 1.1068,-2.7592 -0.8662,-5.2215 -3.6622,-5.1348 z m -105.3222,25.8086 c -0.3165,0.019 -0.6927,0.1998 -1.1192,0.2891 -1.6841,-0.055 -5.2453,2.3485 -5.75,0.748 -1.4102,-0.5968 -4.2442,0.3438 -6.1679,0.3711 -4.3462,0.4512 -8.6587,1.2385 -12.8926,2.3321 3.5346,-0.7689 7.1905,-1.3574 10.9766,-1.7266 l 12.2617,-0.4609 v 0 c 8.6075,0.1726 17.7517,1.3414 27.416,3.6895 16.3153,4.3629 14.007,10.9265 -4.332,12.3183 1.9398,18.4798 55.1052,0.9576 65.9668,55.1797 4.6411,25.5946 -11.312,62.8696 -37.4649,87.541 -17.1899,16.216 -38.2245,23.2574 -59.0605,19.7696 -19.6914,-4.9236 -35.5483,-13.0053 -47.8946,-23.0586 -13.5826,-9.8731 -11.9042,-12.9386 -12.5429,-12.2246 -12.9691,-15.2327 -19.7902,-33.2292 -21.1172,-51.2305 0.4222,12.4236 3.285,24.756 8.6699,35.9922 4.5472,9.8118 11.1304,18.4983 18.2109,26.6113 0.4819,-3.3717 2.1968,1.9438 3.2852,2.8438 1.3931,1.9669 2.3401,4.5099 5.0449,4.8222 3.4289,1.4158 6.06,4.3802 9.3438,6.17 13.1023,8.4654 27.8189,14.5596 43.1289,17.5644 22.2293,2.9931 44.9363,-6.3251 60.5781,-22 17.9178,-17.2311 31.26,-39.5121 36.8867,-63.7969 2.9891,-13.0617 2.5073,-27.0789 -2.7519,-39.5117 -4.9783,-12.8714 -15.3822,-23.4594 -28.2149,-28.5703 -9.9001,-4.3753 -20.9488,-5.2965 -30.8652,-9.5586 -0.6788,-0.6091 2.9489,-0.5147 3.6172,-1.0371 4.1134,-1.1051 9.4102,-4.1837 8.4824,-9.1738 -1.4273,-5.718 -7.8837,-7.425 -12.791,-9.0391 -9.8051,-2.7004 -19.9994,-3.8485 -30.1465,-4.166 -0.1844,-0.5611 -0.4413,-0.7043 -0.7578,-0.6856 z m 47.4043,9.1661 c -0.035,0.7532 0.016,1.5259 0.086,2.3046 -0.01,-0.5621 -0.026,-1.1591 -0.066,-1.8242 -0.01,-0.1622 -0.011,-0.3193 -0.019,-0.4804 z" transform="matrix(0.27055702,0,0,0.27055702,-684.76302,-1636.3829)"/>
      <path id="path26646" style="opacity:1;fill:#d7efdc;fill-opacity:1;stroke:none;stroke-width:0.166299;stroke-miterlimit:4;stroke-dasharray:none;stroke-opacity:1;paint-order:markers fill stroke" d="m 1243.5762,2346.2969 -12.2617,0.4609 0.1152,8.3848 0.1133,8.3847 c 0.3782,27.708 0.821,32.0091 4.3574,42.4063 2.0945,6.1582 4.7505,11.1947 8.5937,16.2852 3.2687,4.3293 4.7854,8.3556 5.7305,15.2226 2.3041,16.7392 -3.987,31.9342 -14.2422,34.3945 -3.9947,0.9583 -6.4368,0.6481 -15.0547,-1.9121 -9.0511,-2.6892 -15.694,-3.5573 -20.4824,-2.6738 -8.2152,1.5158 -17.7774,7.7622 -21.4297,13.9941 -1.2184,2.0793 -2.3745,5.0037 -3.3515,8.2657 0.6387,-0.714 -1.0397,2.3515 12.5429,12.2246 2.0826,-7.9391 5.5845,-11.566 11.4278,-12.6621 3.7268,-0.6991 8.682,1.153 16.3379,6.1093 12.8292,8.306 21.809,10.9242 35.2011,10.2657 16.9013,-0.831 29.9159,-6.5859 41.0879,-18.1719 13.1247,-13.6108 20.5041,-32.3692 20.5078,-52.1543 0.01,-15.9926 -3.6426,-27.0146 -11.8125,-35.6856 -10.5251,-11.1709 -26.5121,-14.8373 -38.7226,-8.8769 -4.3163,2.107 -6.5561,4.1753 -9.6504,8.9043 -2.7818,4.2514 -4.2912,4.2245 -5.7188,-0.098 -1.9411,-5.8768 -2.6161,-14.6374 -2.955,-38.3535 -0.08,-5.5934 -0.2021,-10.5981 -0.334,-14.7148 z" transform="matrix(0.27055702,0,0,0.27055702,-684.76302,-1636.3829)"/>
      <path id="path23620" style="fill:#4d8b83;fill-opacity:1;stroke:none;stroke-width:0.37882;stroke-opacity:0.345098" d="m -323.49874,-1008.707 c -4.34957,0 -6.89308,0.8002 -8.88822,2.7952 -1.75616,1.7562 -2.52176,3.8745 -2.35871,6.52581 0.0781,1.27056 -0.0714,1.79951 -0.63707,2.25738 -0.70533,0.57082 -0.68565,0.5893 0.42766,0.40397 0.6416,-0.10683 1.83485,0.0531 2.65172,0.35515 2.89548,1.07062 6.65007,-0.10151 8.84383,-2.76126 1.44094,-1.74695 2.67673,-4.91895 2.95656,-7.58745 l 0.20866,-1.9888 z m -24.80603,7.131 c 0.0357,1.1138 0.0686,2.46791 0.0903,3.98126 0.0917,6.41656 0.2746,8.78683 0.79979,10.37685 0.38624,1.16938 0.79447,1.17684 1.54711,0.0266 0.83719,-1.27946 1.44326,-1.839 2.61105,-2.40906 3.30365,-1.61263 7.62905,-0.6207 10.47671,2.40169 2.21042,2.34599 3.1972,5.32778 3.19557,9.6547 -10e-4,5.35299 -1.99741,10.42853 -5.54838,14.11103 -3.02268,3.13467 -6.54396,4.69169 -11.11673,4.91652 -3.62333,0.17816 -6.05271,-0.53028 -9.52376,-2.77751 -2.07134,-1.34098 -3.41175,-1.84205 -4.42006,-1.6529 -1.58093,0.29658 -2.52851,1.27771 -3.09197,3.42567 3.34036,2.71999 7.63065,4.90655 12.95829,6.23866 5.63733,0.94367 11.32841,-0.96126 15.97926,-5.34859 7.07585,-6.67503 11.39208,-16.76031 10.13638,-23.6851 -2.93866,-14.67017 -17.32335,-9.92951 -17.8482,-14.92935 4.96177,-0.37656 5.58622,-2.15204 1.17199,-3.33247 -2.61473,-0.6353 -5.0885,-0.9514 -7.41733,-0.9981 z m -3.31762,0.125 c -19.69924,1.92115 -26.99447,24.6012 -15.05661,38.62261 0.26434,-0.88256 0.57743,-1.67411 0.90708,-2.23666 0.98816,-1.68609 3.57504,-3.37585 5.79772,-3.78596 1.29553,-0.23904 3.09288,-0.004 5.54173,0.72359 2.33162,0.69266 2.99225,0.77646 4.07305,0.5172 2.7746,-0.66566 4.47668,-4.77662 3.85329,-9.30552 -0.25571,-1.85793 -0.6657,-2.94759 -1.55006,-4.11892 -1.03982,-1.37726 -1.75874,-2.73987 -2.32542,-4.40601 -0.95679,-2.81303 -1.07634,-3.97677 -1.17866,-11.47335 z"/>
    </g>
  </g>
</svg>