<svg xmlns:dc="http://purl.org/dc/elements/1.1/" xmlns:cc="http://creativecommons.org/ns#" xmlns:rdf="http://www.w3.org/1999/02/22-rdf-syntax-ns#" xmlns:svg="http://www.w3.org/2000/svg" xmlns="http://www.w3.org/2000/svg" xmlns:sodipodi="http://sodipodi.sourceforge.net/DTD/sodipodi-0.dtd" xmlns:inkscape="http://www.inkscape.org/namespaces/inkscape" width="48.442448mm" height="55.86335mm" viewBox="0 0 48.442447 55.86335" version="1.1" id="svg3295" sodipodi:docname="multipage-export-1c7rkjdk.svg">
  <defs id="defs3289">
    <clipPath clipPathUnits="userSpaceOnUse" id="clipPath9813-7">
      <path style="fill:#fddd94;fill-opacity:1;stroke:none;stroke-width:0.588001;stroke-miterlimit:10;stroke-dasharray:none;stroke-opacity:1" d="m -673.34854,16.438249 c -61.00238,23.071425 -91.89465,36.366813 -95.41402,57.874059 -3.51934,21.50727 58.26509,46.533872 70.38741,40.668262 12.12231,-5.86562 57.092,-30.110153 56.70089,-22.680381 -0.39101,7.429799 -81.33653,29.328071 -14.85944,37.930981 66.47686,8.60291 106.36304,-16.03268 110.66453,-23.46245 18.06129,-14.669231 10.686,-45.314288 17.20582,-67.650097 9.38499,-26.981821 18.37891,-37.148879 10.167,-45.3607435 -8.2118,-8.2118575 -104.79894,-24.2445385 -117.31223,-14.4685195 -12.51339,9.77603 -37.53996,37.148889 -37.53996,37.148889 z" id="path9815-3" sodipodi:nodetypes="cssssccssc"/>
    </clipPath>
    <clipPath clipPathUnits="userSpaceOnUse" id="clipPath7563-5">
      <path style="fill:#ffd64b;fill-opacity:0.413386;stroke:none;stroke-width:0.97368;stroke-miterlimit:10;stroke-dasharray:none;stroke-opacity:1" d="m -1.7543223,238.04606 c 0,-13.9606 4.7693128,-14.49886 4.8475211,-24.1043 0.078747,-9.60542 -26.5784748,-1.61898 -47.7298908,-16.67853 -21.151253,-15.05956 -14.378503,-38.2137 -32.541905,-61.70838 -18.163403,-23.49466 -69.267293,-75.251 -69.267293,-75.251 39.36822,5.884223 271.83555,-1.02152 271.83555,-1.02152 0,0 21.96412,57.81769 19.6225,77.63373 -2.418,71.1294 -72.924245,33.70145 -87.537051,49.31135 -2.828851,4.5047 -10.013312,8.45265 -11.840041,24.00661 -1.826997,15.55397 -10.412159,21.50282 -19.066755,30.19555 -8.654596,8.69275 -27.7068182,0 -27.7068182,0 z" id="path7565-8" sodipodi:nodetypes="ccssccccsscc"/>
    </clipPath>
    <clipPath clipPathUnits="userSpaceOnUse" id="clipPath8789-1">
      <path id="path8791-4" style="display:inline;fill:#efe4a5;fill-opacity:0.633858;stroke:none;stroke-width:3.35361;stroke-opacity:0.448819" d="M 751.1853,521.62742 C 717.16394,459.98384 731.20966,404.04024 770.79474,352.68884 817.29742,292.36371 874.20772,51.601234 954.67924,2.154959 c 72.04936,-44.271283 211.97266,-33.977544 255.76216,-72.256757 246.3573,-76.058602 507.9915,356.516628 378.579,487.678458 -84.0552,85.68768 12.999,97.35161 -10.8027,116.37904 96.778,111.36346 -179.7943,124.84193 -354.8578,60.57978 -66.5277,-19.21589 -155.0098,103.58326 -218.2073,75.09672 C 917.35165,648.97838 798.88478,606.30226 751.1853,521.62742 Z" sodipodi:nodetypes="csscccccc"/>
    </clipPath>
    <clipPath clipPathUnits="userSpaceOnUse" id="clipPath9194-5-1">
      <path id="path9196-8-7" style="display:inline;fill:#659d40;fill-opacity:1;stroke:none;stroke-width:0.571103;stroke-opacity:0.448819" d="m -1036.2332,619.5894 c -1.5244,-6.69685 -9.5198,-11.11949 -12.0158,-17.84107 -3.133,-8.43706 -4.5099,-17.90835 -3.1892,-26.81086 1.5579,-10.50097 5.1402,-21.8009 12.7814,-29.17042 9.8866,-9.53519 24.9163,-12.14266 38.3161,-15.1611 19.65289,-4.42698 42.47003,-13.37752 60.30308,-4.00646 21.8377,11.47546 32.71488,39.46904 37.84639,63.59867 2.86761,13.4843 3.07944,29.79914 -4.85698,41.07135 -6.32267,8.98014 -18.83307,12.0587 -29.49969,14.6745 -22.17677,5.43851 -46.04472,5.52808 -68.4889,1.3271 -6.4267,-1.20293 -13.119,-3.2667 -18.1461,-7.44725 -6.171,-5.13173 -11.1706,-11.97676 -13.0503,-20.23446 z" sodipodi:nodetypes="saaaaaaaaaas"/>
    </clipPath>
    <rect x="-182.28062" y="-155.58829" width="297.40536" height="147.64027" id="rect22825"/>
  </defs>
  <sodipodi:namedview id="base" pagecolor="#ffffff" bordercolor="#666666" borderopacity="1.0" inkscape:pageopacity="0.0" inkscape:pageshadow="2" inkscape:zoom="0.51034266" inkscape:cx="1259.704" inkscape:cy="6145.5254" inkscape:document-units="mm" inkscape:current-layer="g32611" inkscape:document-rotation="0" showgrid="false" inkscape:window-width="1920" inkscape:window-height="1001" inkscape:window-x="-9" inkscape:window-y="-9" inkscape:window-maximized="1"/>
  <metadata id="metadata3292">
    <rdf:RDF>
      <cc:Work rdf:about="">
        <dc:format>image/svg+xml</dc:format>
        <dc:type rdf:resource="http://purl.org/dc/dcmitype/StillImage"/>
      </cc:Work>
    </rdf:RDF>
  </metadata>
  <g inkscape:label="Layer 1" inkscape:groupmode="layer" id="layer1" transform="translate(-66.328198,-934.54238)">
    <g id="g23298" transform="matrix(0.92555737,0,0,0.92555737,-469.84838,935.02015)" style="display:inline">
      <g id="g32611" transform="translate(17.73939,184.66159)">
        <path id="logo " style="display:inline;fill:#108273;fill-opacity:1;stroke-width:0.0239784" d="m 592.12669,-185.1774 c -0.13231,0 -0.32033,0.0809 -0.6339,0.2689 -0.93571,0.56294 -1.61021,1.09062 -2.3816,1.86326 -0.80044,0.8015 -1.32588,1.50799 -1.75047,2.35402 -0.39786,0.79256 -0.63699,1.52256 -0.75905,2.31637 -0.0591,0.37177 -0.0591,1.46922 0,1.96161 0.0919,0.78257 0.2882,1.74823 0.47603,2.33601 0.18198,0.56683 0.29386,0.68778 0.51059,0.54738 0.0993,-0.0644 0.11024,-0.0937 0.27645,-0.76128 0.20142,-0.80852 0.32677,-1.16401 0.80207,-2.278 0.15433,-0.36258 0.34478,-0.84729 0.42269,-1.07663 0.0845,-0.25122 0.18547,-0.49476 0.25221,-0.61163 0.26574,-0.46466 0.89353,-1.36122 1.1437,-1.6328 l 0.1103,-0.11951 v 0.32363 c 0,0.52773 -0.14703,1.50121 -0.40876,2.69372 -0.17094,0.78041 -0.2616,1.09869 -0.58541,2.06601 -0.3497,1.04521 -0.51512,1.61611 -0.51512,1.7793 0,0.079 0.0184,0.11944 0.0591,0.16352 0.11398,0.11398 0.2279,0.0736 0.58095,-0.18815 0.83223,-0.6203 1.87135,-1.64642 2.43785,-2.40716 0.73834,-0.99116 1.24907,-2.17007 1.41633,-3.26858 0.14151,-0.92946 0.10104,-2.50471 -0.0846,-3.34503 -0.19781,-0.89274 -0.75334,-2.42865 -1.00666,-2.78084 -0.0882,-0.12311 -0.23361,-0.20451 -0.36409,-0.20451 z m 0,0.40614 c 0.0185,0 0.0236,0 0.0316,0 0.0974,0.0809 0.46665,0.98149 0.69973,1.70979 0.16352,0.50902 0.30654,1.10541 0.34753,1.44597 0.0901,0.7398 0.0919,2.02429 0,2.64603 -0.1507,1.05942 -0.65506,2.23458 -1.36411,3.17232 -0.483,0.63923 -1.23068,1.39992 -1.98257,2.01753 -0.11207,0.0918 -0.22185,0.18013 -0.24393,0.19754 -0.0309,0.0236 -0.0237,-0.0276 0.0427,-0.24262 0.10295,-0.34109 0.29661,-0.93222 0.487,-1.47992 0.18205,-0.52195 0.34616,-1.17038 0.52971,-2.08604 0.36803,-1.83614 0.4261,-2.75062 0.1894,-2.99271 -0.19465,-0.19919 -0.42262,-0.0846 -0.81995,0.41132 -0.37552,0.46848 -0.86679,1.19652 -1.08805,1.61231 -0.0591,0.10655 -0.16727,0.38189 -0.24505,0.61163 -0.0771,0.22954 -0.27178,0.72206 -0.43076,1.09449 -0.43708,1.02295 -0.60283,1.48998 -0.75985,2.13676 -0.0401,0.16173 -0.0735,0.25916 -0.0826,0.23985 -0.0335,-0.0585 -0.21174,-0.80425 -0.28492,-1.18765 -0.24741,-1.29683 -0.27178,-2.41964 -0.0717,-3.32618 0.18198,-0.82908 0.5979,-1.78147 1.10901,-2.5444 0.49331,-0.73593 1.21511,-1.52769 1.94677,-2.13512 0.74472,-0.61826 1.78002,-1.29335 1.98992,-1.30715 z m -15.52538,3.39378 c -0.0512,0 -0.0937,0.0223 -0.13421,0.0624 -0.079,0.0735 -0.27067,0.45211 -0.50008,0.9899 -0.46697,1.09285 -0.60046,1.66375 -0.59809,2.5584 0,0.50145 0.0335,0.77783 0.14156,1.20768 0.18383,0.73921 0.58792,1.54096 1.09279,2.16554 0.19302,0.23906 0.56394,0.62398 0.65769,0.68218 0.0864,0.0532 0.22218,0.0591 0.29234,0.0184 0.11215,-0.0771 0.11215,-0.15255 0.0185,-0.75753 -0.19833,-1.1686 -0.43379,-2.93523 -0.43379,-3.25281 v -0.19794 h 0.13238 c 0.11393,0 0.14151,0.0184 0.21654,0.0753 0.22435,0.19682 0.44108,0.85352 0.84156,2.55044 0.29162,1.23608 0.31706,1.31142 0.45652,1.3699 0.0772,0.0328 0.0919,0.0316 0.1599,-0.0184 0.0427,-0.0236 0.10105,-0.0864 0.13048,-0.13968 0.0624,-0.11214 0.26981,-0.72711 0.26981,-0.80556 0,-0.0295 0.0532,-0.16725 0.1195,-0.30733 0.14329,-0.3062 0.15991,-0.40139 0.18197,-1.11557 0.0387,-1.2454 -0.12133,-1.83042 -0.76903,-2.82052 -0.42781,-0.65374 -0.80425,-1.10718 -1.27515,-1.53557 -0.59272,-0.53911 -0.83625,-0.73074 -0.99011,-0.72838 z m 0.0735,0.46828 c 0.0532,0 0.7695,0.64533 1.07275,0.9675 0.40843,0.4334 1.03386,1.36174 1.2362,1.83462 0.21141,0.49403 0.25313,0.75781 0.25241,1.59786 0,0.79754 -0.0184,0.91659 -0.15439,1.19652 -0.0604,0.12318 -0.12312,0.29464 -0.14335,0.39188 -0.0572,0.28248 -0.0699,0.27828 -0.14157,-0.0459 -0.13783,-0.61262 -0.37454,-1.55568 -0.48188,-1.9247 -0.26153,-0.89937 -0.501,-1.29394 -0.84656,-1.39426 -0.27697,-0.0809 -0.56406,0 -0.67581,0.20727 -0.0532,0.0974 -0.0605,0.13231 -0.0585,0.37125 0,0.14519 0.0276,0.44719 0.0552,0.67141 0.0846,0.65598 0.21396,1.5654 0.30384,2.14339 0.044,0.29537 0.079,0.54107 0.0734,0.54606 -0.0184,0.0185 -0.38445,-0.44364 -0.56971,-0.72067 -0.35988,-0.53885 -0.62326,-1.16374 -0.75392,-1.78884 -0.0499,-0.23689 -0.0644,-0.39555 -0.0753,-0.75577 -0.0295,-1.00147 0.12312,-1.61736 0.74966,-2.99106 0.0754,-0.1672 0.14709,-0.30561 0.15806,-0.30561 z m 25.36754,7.8544 c -0.0349,0 -0.0753,0 -0.12311,0 -0.42368,0 -0.75176,0.0513 -1.37422,0.20437 -0.74461,0.18383 -1.52921,0.48228 -1.97121,0.75064 -0.72876,0.4426 -1.26123,1.05298 -1.72419,1.97706 -0.2233,0.44554 -0.4602,1.04069 -0.54259,1.36286 -0.0401,0.15623 -0.0401,0.18382 -0.0185,0.25766 0.0276,0.0644 0.0552,0.0901 0.13415,0.11392 0.0882,0.0263 0.10846,0.0236 0.19807,-0.0236 0.0532,-0.0295 0.19637,-0.13973 0.31508,-0.24629 0.76181,-0.68357 1.79823,-1.39026 2.56483,-1.74922 0.2463,-0.11391 0.4874,-0.20359 0.5056,-0.1854 0.0184,0.0184 -0.14518,0.27383 -0.29386,0.47196 -0.25017,0.33229 -0.64073,0.75669 -1.47566,1.60246 -0.45882,0.46467 -0.86627,0.89563 -0.90562,0.95778 -0.0387,0.0624 -0.0717,0.14335 -0.0717,0.18191 0,0.0883 0.0591,0.20352 0.11399,0.21746 0.11214,0.0295 0.24642,0.0184 0.57786,-0.0918 0.44771,-0.13423 1.18016,-0.38992 1.4643,-0.51251 0.62634,-0.26994 1.47381,-0.87539 1.80886,-1.29222 0.6387,-0.79467 1.43066,-2.74754 1.43066,-3.52807 0,-0.22271 -0.0473,-0.30733 -0.22941,-0.39852 -0.12311,-0.0624 -0.14335,-0.0716 -0.39221,-0.0698 z m -0.0184,0.37939 c 0.10662,0 0.18514,0.0184 0.22409,0.0387 0.068,0.0421 -0.0809,0.71661 -0.27638,1.25893 -0.30017,0.8277 -0.73593,1.68575 -1.05981,2.0859 -0.23742,0.29334 -0.8543,0.75485 -1.37363,1.02743 -0.30161,0.15806 -0.47492,0.22809 -1.08005,0.43444 -0.25286,0.0864 -0.47116,0.15629 -0.48477,0.15629 -0.0185,0 0.30852,-0.33708 0.71602,-0.74913 1.41411,-1.42941 1.85539,-2.04623 1.71184,-2.39251 -0.0808,-0.19275 -0.35107,-0.23486 -0.69512,-0.10839 -0.69488,0.2562 -1.95518,1.04298 -2.70647,1.68975 -0.20262,0.1747 -0.20189,0.18382 -0.0204,-0.25049 0.35266,-0.83683 0.80438,-1.51298 1.27805,-1.91398 0.52931,-0.44831 1.26011,-0.78428 2.27485,-1.04634 0.58462,-0.15255 1.16906,-0.23821 1.49051,-0.23158 z m -17.38897,1.57729 c -0.54757,0 -1.03596,0.0184 -1.3783,0.0552 -1.1142,0.12318 -1.90413,0.26817 -4.13615,0.76575 -1.89085,0.42125 -2.74766,0.5797 -3.71792,0.68738 l -0.2415,0.0276 -0.35528,-0.12311 c -0.76936,-0.26377 -1.09206,-0.25542 -1.40326,0.0349 -0.0661,0.0624 -0.16175,0.1783 -0.21279,0.25957 -0.23474,0.37229 -0.3248,0.72883 -0.39963,1.58537 -0.0223,0.25049 -0.0604,0.57411 -0.0864,0.71917 -0.0237,0.14518 -0.0735,0.43096 -0.10472,0.63521 -0.0328,0.20438 -0.12311,0.7331 -0.20313,1.17491 -0.28874,1.62235 -0.35469,2.13885 -0.37657,2.95178 l -0.0184,0.54179 0.0699,0.1268 c 0.13598,0.25056 0.39259,0.37499 0.7306,0.35547 0.2281,-0.0185 0.40889,-0.0937 0.53831,-0.24116 0.0499,-0.0552 0.2917,-0.40889 0.53923,-0.78494 0.24708,-0.37585 0.53858,-0.78907 0.6473,-0.91843 0.28604,-0.34017 0.94806,-1.01435 1.29527,-1.31871 1.80703,-1.58485 4.15972,-2.57049 6.57003,-2.75266 0.46645,-0.0349 1.65285,-0.0184 2.13401,0.0387 1.14068,0.12502 2.02027,0.38005 2.7338,0.7986 0.49712,0.29149 0.8302,0.73993 0.98346,1.32423 0.0459,0.18007 0.0532,0.28249 0.0644,0.85136 0,0.356 0,1.1343 0,1.72891 l -0.0184,1.08182 -0.26075,0.0184 c -1.07813,0.0644 -2.58966,0.27349 -3.86225,0.53154 -3.33604,0.6762 -6.62096,1.95446 -9.56,3.71996 -1.11144,0.66735 -1.79238,1.19192 -2.60622,2.00741 -0.82192,0.82395 -1.37278,1.58044 -1.79697,2.46839 -0.30326,0.63482 -0.48741,1.22476 -0.6006,1.92468 -0.0538,0.3227 -0.0735,1.21794 -0.0349,1.58315 0.14334,1.43031 0.75649,2.80783 1.73463,3.89347 0.36429,0.40436 0.70466,0.69125 1.3195,1.11196 1.62085,1.10935 3.39609,1.71184 5.50788,1.86897 v -1.7e-4 c 0.26226,0.0204 1.38822,0.0182 1.66906,0 1.35124,-0.1066 2.581,-0.39218 3.84656,-0.89413 1.22609,-0.48653 2.27249,-1.07393 4.44269,-2.49484 0.46263,-0.30287 0.53154,-0.32713 0.67141,-0.23489 0.0918,0.0607 0.10846,0.0883 0.35673,0.57291 0.49238,0.96417 0.70393,1.30657 0.98386,1.59202 0.26909,0.27458 0.50651,0.41939 0.81969,0.49936 0.1932,0.0497 0.89596,0.13231 1.44117,0.16907 0.61878,0.0425 2.63965,0.057 3.17113,0.0238 1.01534,-0.0625 1.27589,-0.14707 1.43598,-0.46371 0.11767,-0.23345 0.0937,-0.59513 -0.0552,-0.85633 -0.0328,-0.0588 -0.16175,-0.20565 -0.2821,-0.32438 -0.58811,-0.5775 -0.96048,-1.47827 -1.10534,-2.67346 -0.0591,-0.47857 -0.079,-2.37938 -0.0827,-7.26551 0,-5.0457 -0.0295,-6.87389 -0.13415,-8.99192 -0.0661,-1.35543 -0.0993,-1.74357 -0.16726,-2.04893 -0.36481,-1.62669 -1.58287,-3.08166 -3.32151,-3.96842 -1.25407,-0.63929 -2.67731,-1.03918 -4.3513,-1.22168 -0.84032,-0.0919 -1.91773,-0.14335 -2.83005,-0.14335 z m -0.19065,0.57471 c 0.0362,0 0.0809,0 0.13599,0 h 0.25904 l -0.14526,0.10295 -0.14518,0.10294 0.044,0.22002 c 0.0237,0.12127 0.0513,0.37249 0.0604,0.55907 l 0.0184,0.33912 -0.11392,0.0184 c -0.15806,0.0184 -0.57365,-0.0203 -0.76568,-0.0605 l -0.15991,-0.0328 -0.10294,0.1599 c -0.14335,0.22127 -0.53739,0.69861 -0.57654,0.69861 0,0 -0.0882,-0.0772 -0.18711,-0.17462 -0.15991,-0.15623 -0.4374,-0.48319 -0.49403,-0.58482 -0.0197,-0.0349 -0.044,-0.0335 -0.2957,0.0184 -0.15071,0.0276 -0.39923,0.0591 -0.5523,0.0662 l -0.27868,0.0184 -0.0185,-0.1783 c -0.0184,-0.0974 0,-0.29583 0.0185,-0.44109 0.0401,-0.41039 0.0295,-0.38523 0.19689,-0.41828 0.0808,-0.0184 0.1507,-0.0236 0.15622,-0.0184 0,0 -2e-4,0.0735 -0.0184,0.14894 -0.0185,0.0753 -0.0328,0.23821 -0.0421,0.36191 l -0.0184,0.22495 h 0.0644 c 0.11024,0 0.56531,-0.079 0.56531,-0.0956 0,-0.0184 -0.0427,-0.10846 -0.0937,-0.2189 -0.14518,-0.31396 -0.19991,-0.47636 -0.16542,-0.48851 0.0185,0 0.11943,-0.0276 0.22902,-0.046 l 0.19906,-0.0387 0.15254,0.11773 c 0.18527,0.14328 0.2915,0.16167 0.64343,0.12311 0.21765,-0.0236 0.24445,-0.0328 0.34169,-0.11398 0.0591,-0.0473 0.10478,-0.0937 0.10662,-0.10288 0,-0.0184 0.044,-0.0624 0.0955,-0.11765 0.0937,-0.10296 0.0975,-0.10479 0.28492,-0.12129 0.20458,-0.0184 0.20234,-0.0204 0.10656,0.11024 -0.0309,0.042 -0.0572,0.0827 -0.0572,0.0901 0,0.0184 0.27842,-0.12318 0.36462,-0.18198 0.0427,-0.0295 0.0772,-0.0401 0.1869,-0.0401 z m 2.64978,0.0662 0.18007,0.0184 c 0.33393,0.0276 0.47203,0.0538 0.57346,0.10479 l 0.10104,0.0513 -0.0276,-0.0532 c -0.0223,-0.0421 -0.0223,-0.0513 0,-0.0387 0.0197,0 0.10839,0.0203 0.19715,0.0309 0.15255,0.0184 0.17094,0.0236 0.30509,0.14342 0.12502,0.11214 0.15991,0.13047 0.27941,0.14518 0.25325,0.0335 0.56367,0.0236 0.63186,-0.0197 0.0591,-0.0387 0.0735,-0.0368 0.35272,0.0335 0.1599,0.0401 0.29077,0.0864 0.29038,0.10103 0,0.0184 -0.0473,0.12134 -0.10473,0.23709 -0.0661,0.13423 -0.0937,0.21523 -0.0772,0.22153 0.0499,0.0185 0.48175,0.0827 0.55217,0.0827 h 0.0698 l -0.0184,-0.216 c -0.0184,-0.14335 -0.0184,-0.21562 0,-0.21562 0.0184,0 0.0826,0.0223 0.15432,0.048 l 0.12869,0.0473 0.0184,0.1854 c 0,0.10294 0,0.24905 0,0.32657 l -0.0184,0.14157 -0.27848,-0.0185 c -0.15248,-0.0184 -0.37013,-0.0328 -0.48227,-0.0532 -0.37913,-0.07 -0.33084,-0.0827 -0.47965,0.12495 -0.12311,0.17094 -0.53575,0.60966 -0.57141,0.60782 -0.0185,0 -0.0974,-0.0937 -0.19578,-0.20517 v 2.6e-4 c -0.0993,-0.11398 -0.24754,-0.30404 -0.33065,-0.42571 l -0.15071,-0.22127 -0.24485,0.0427 c -0.21463,0.0387 -0.77166,0.0644 -0.79433,0.0401 -0.0204,-0.0223 0.0335,-0.67661 0.0718,-0.88342 l 0.0427,-0.22599 -0.0937,-0.0809 z m -3.68212,0 c 0.0367,0 0.0624,0 0.0661,0 0,0 0,0.0184 -0.0263,0.0184 -0.0236,0 -0.0513,0.0295 -0.0661,0.0718 -0.0295,0.0846 -0.0459,0.0846 -0.18198,0.0185 -0.0552,-0.0276 -0.10294,-0.0591 -0.10294,-0.068 0,-0.0185 0.20162,-0.0387 0.31048,-0.0421 z m -0.92244,0.11759 c 0.0184,0 0.0184,0 -0.0184,0.0223 -0.0204,0.0184 -0.0532,0.0223 -0.0717,0.0223 -0.0223,0 -0.0204,-0.0185 0.0184,-0.0223 0.0328,-0.0184 0.0591,-0.0223 0.0718,-0.0223 z m 1.78423,0.19314 -0.19058,0.0937 c -0.23637,0.11582 -0.50054,0.20695 -0.7622,0.26029 l -0.20011,0.0401 0.10288,0.0387 c 0.18565,0.0698 0.57122,0.16352 0.80812,0.19623 0.34241,0.0459 0.31521,0.0538 0.31521,-0.079 0,-0.10288 -0.0276,-0.32309 -0.0624,-0.48937 z m 3.31232,0.0276 c -0.044,0 -0.0459,0.0624 -0.0699,0.24498 -0.0401,0.32565 -0.0459,0.39556 -0.0295,0.39556 0.0185,0 0.10846,-0.0184 0.21942,-0.0236 0.29005,-0.0349 0.52919,-0.0883 0.79072,-0.17278 l 0.2277,-0.0735 -0.22094,-0.044 c -0.24754,-0.0513 -0.53791,-0.15065 -0.7798,-0.26811 -0.0699,-0.0328 -0.11215,-0.0591 -0.1379,-0.0591 z m 2.06956,0.17824 -0.13974,0.10294 c -0.23007,0.1691 -0.63679,0.36737 -0.96711,0.46999 -0.0236,0 -0.0223,0.0256 0.0184,0.0826 0.0662,0.11398 0.31928,0.43044 0.34241,0.43044 0.0184,0 0.0919,-0.0826 0.17645,-0.18611 0.19006,-0.22771 0.32664,-0.43136 0.46828,-0.69776 z m -7.46148,0.0185 0.0335,0.0827 c 0.0499,0.11949 0.23874,0.43451 0.352,0.58666 0.13967,0.18737 0.33078,0.40771 0.35417,0.40771 0.0185,0 0.10287,-0.10847 0.20267,-0.24242 0.10111,-0.13422 0.18014,-0.24557 0.17646,-0.24945 0,0 -0.10846,-0.0459 -0.23119,-0.0937 -0.28473,-0.11025 -0.57142,-0.25872 -0.74879,-0.38926 z m -3.02982,0.2823 c 0.0624,0 0.12672,0.0624 0.23631,0.18014 0.23249,0.25009 0.30436,0.37787 0.45198,0.79997 0,0.0204 0.0845,-0.0184 0.2233,-0.10839 0.28873,-0.18619 0.57195,-0.33302 0.59599,-0.30917 0.0185,0.0184 0.0204,0.23545 0.0185,0.49922 0,0.47144 0,0.4786 0.0473,0.4648 0.13966,-0.0401 0.54277,-0.13047 0.64086,-0.14334 0.1103,-0.0184 0.11398,-0.0184 0.12134,0.0532 0,0.0591 0.0204,0.068 0.0863,0.0735 h 0.079 l -0.0185,0.17278 c -0.0185,0.0937 -0.0236,0.17823 -0.0316,0.18671 -0.0184,0.0184 -0.29511,0.0735 -0.30438,0.0624 0,0 0,-0.0591 0.0185,-0.1195 0.0223,-0.13967 0.0184,-0.14151 -0.29826,-0.0552 -0.33893,0.0919 -0.80484,0.31193 -0.97565,0.46245 -0.0473,0.042 -0.73902,0.29609 -0.73902,0.27164 0,-0.0387 0.37821,-0.38097 0.46763,-0.4255 0.0532,-0.0256 0.2185,-0.0938 0.36829,-0.15255 0.23506,-0.09 0.26686,-0.10841 0.23177,-0.13416 -0.0367,-0.0276 -0.0387,-0.0532 -0.0184,-0.28932 0.0184,-0.14334 0.0237,-0.30712 0.0197,-0.36534 l -0.0184,-0.10478 -0.23947,0.16174 c -0.52898,0.35844 -0.94601,0.78278 -1.13476,1.1548 l -0.0499,0.0993 0.0699,0.0662 c 0.0387,0.0387 0.0644,0.0735 0.0585,0.0845 0,0.0184 -0.068,0.0401 -0.13783,0.068 l -0.12679,0.0513 -0.21023,-0.20274 c -0.21968,-0.21134 -0.4983,-0.41021 -0.75668,-0.53923 -0.17653,-0.0882 -0.59337,-0.23145 -0.74144,-0.2549 l -0.10295,-0.0184 0.0184,0.0809 c 0.0919,0.52951 0.29313,0.93335 0.6337,1.27043 l 0.1599,0.15806 -0.13783,0.0753 -0.13782,0.0753 -0.14703,-0.1507 c -0.26528,-0.27001 -0.49752,-0.67713 -0.5985,-1.04982 -0.0591,-0.2147 -0.10839,-0.59902 -0.0808,-0.62471 0.0185,-0.0184 0.0459,-0.0223 0.079,-0.0276 0.044,0 0.0624,-0.0236 0.0679,-0.0735 0,-0.0624 0.0185,-0.0662 0.0956,-0.0538 0.19374,0.0316 0.44844,0.0901 0.57326,0.13421 l 0.13232,0.044 -0.0185,-0.0605 c -0.0204,-0.0754 -0.0204,-0.92375 0,-0.94274 0.0204,-0.0197 0.38144,0.1691 0.6161,0.32126 l 0.19723,0.12869 0.0624,-0.17461 c 0.0845,-0.24111 0.23637,-0.48721 0.41407,-0.67266 0.10296,-0.10847 0.16542,-0.16175 0.22777,-0.15807 z m -4.91727,0.33852 h 0.0937 c 0.17094,0 0.20123,0.0223 0.24919,0.15991 0.0604,0.17278 0.1287,0.27658 0.24629,0.37736 0.22041,0.18835 0.53727,0.27494 0.82382,0.22494 l 0.15807,-0.0276 -0.20937,-0.21003 -0.20918,-0.21029 0.0937,-0.0184 c 0.25438,-0.0387 0.28932,-0.0335 0.41172,0.0882 0.0624,0.0624 0.12134,0.11397 0.1287,0.11397 0,0 0.0223,-0.0591 0.0316,-0.1323 0.0185,-0.12863 0.0185,-0.13232 0.10472,-0.1452 0.048,0 0.1195,-0.0184 0.15629,-0.0236 0.0661,-0.0185 0.0679,-0.0185 0.0532,0.079 -0.0184,0.0499 -0.0223,0.24097 -0.0295,0.42585 l -0.0185,0.33576 h -0.25529 c -0.14158,0 -0.35804,0.0185 -0.48359,0.0223 -0.34274,0.0295 -0.62214,-0.044 -0.88492,-0.23854 l -0.14342,-0.10478 -0.0974,0.0827 c -0.17087,0.14335 -0.51143,0.27639 -0.70387,0.27639 -0.0699,0 -0.0699,0 -0.0538,-0.11392 0.0237,-0.17462 0.0349,-0.19754 0.0956,-0.19754 0.13415,0 0.39109,-0.1195 0.53332,-0.24597 l 0.0532,-0.0459 -0.0591,-0.13237 c -0.0309,-0.0735 -0.0644,-0.18014 -0.0735,-0.23762 z m 5.07783,0.20366 v 0.23382 0.23394 h -0.15432 -0.15439 v -0.22206 c 0,-0.20634 0,-0.2185 -0.0388,-0.17455 -0.0624,0.079 -0.14703,0.2775 -0.18927,0.44016 l -0.0387,0.15255 0.21148,0.19754 0.21174,0.19775 0.20937,-0.18191 c 0.20806,-0.18014 0.2097,-0.18375 0.19926,-0.28045 v 0 c -0.0185,-0.13784 -0.0754,-0.31042 -0.16542,-0.46533 z m 11.84884,0.0185 c 0.0532,0 0.31796,0.13789 0.5887,0.31166 0.13599,0.0883 0.21626,0.12685 0.22218,0.10846 0,-0.0184 0.0237,-0.0735 0.0387,-0.12496 0.048,-0.1599 0.11767,-0.28084 0.15438,-0.26724 0.0185,0 0.0753,0.0387 0.12864,0.0735 l 0.0956,0.0604 -0.0591,0.14526 c -0.0335,0.0809 -0.0624,0.19663 -0.068,0.2589 l -0.0184,0.11399 0.20162,0.18934 0.20142,0.18926 0.20642,-0.19537 c 0.11391,-0.10656 0.21357,-0.19459 0.22257,-0.19427 0.0185,0 0.0624,0.0427 0.12312,0.0937 l 0.10478,0.0937 -0.21968,0.20878 c -0.12121,0.11399 -0.21936,0.21647 -0.21936,0.22587 0,0.0184 0.0513,0.0937 0.11208,0.18966 l 0.11214,0.17278 0.0735,-0.0699 c 0.14886,-0.13967 0.451,-0.33964 0.51314,-0.33964 0.0184,0 0.0604,0.0459 0.1084,0.10294 l 0.0846,0.10288 -0.23249,0.15255 c -0.388,0.25332 -0.75446,0.65341 -0.97723,1.06618 -0.0499,0.0937 -0.0937,0.17277 -0.0974,0.17652 0,0 -0.24721,-0.0864 -0.26797,-0.10479 -0.0315,-0.0276 0.36776,-0.66773 0.48503,-0.77724 0.0335,-0.0328 0.0624,-0.0773 0.0624,-0.10111 0,-0.0772 -0.29116,-0.4784 -0.50034,-0.68902 -0.20418,-0.20549 -0.62746,-0.54094 -0.81713,-0.64756 l -0.0974,-0.0532 v 0.16542 c 0,0.0919 0.0184,0.25438 0.0263,0.36284 0.0223,0.17646 0.0223,0.20018 -0.0185,0.22698 -0.0349,0.0276 0,0.0473 0.28762,0.15807 0.20457,0.0809 0.37039,0.16167 0.44003,0.21613 0.13599,0.10846 0.3924,0.38189 0.38248,0.40896 0,0.0184 -0.0532,0.0552 -0.11031,0.10104 l -0.10287,0.0827 -0.17279,-0.17823 c -0.24609,-0.25458 -0.5071,-0.4426 -0.8407,-0.60578 -0.32729,-0.15991 -0.85425,-0.316 -0.85425,-0.25313 0,0 0.0185,0.0901 0.0335,0.18598 0.16358,0.84932 0.76181,1.48289 1.62052,1.71611 0.11766,0.0328 0.24314,0.0421 0.52747,0.0401 0.33268,0 0.39385,-0.0184 0.58259,-0.0661 0.43123,-0.13231 0.81871,-0.383 1.05869,-0.68586 0.10847,-0.13606 0.12134,-0.13422 0.2051,0.0459 l 0.0585,0.12135 -0.14334,0.14518 c -0.32237,0.32954 -0.74066,0.57254 -1.17366,0.68166 -0.30108,0.0753 -0.70446,0.0956 -0.9949,0.048 -0.26022,-0.0427 -0.6299,-0.17463 -0.84163,-0.30057 -0.71897,-0.42728 -1.15145,-1.11466 -1.23285,-1.96062 l -0.0185,-0.17469 h 0.0735 c 0.0604,0 0.0735,-0.0184 0.0882,-0.0735 0.0185,-0.0717 0.0185,-0.0735 0.12679,-0.0591 0.0974,0.0184 0.50271,0.10295 0.63942,0.14335 0.0459,0.0185 0.0473,0 0.0473,-0.46493 0,-0.26344 0.0185,-0.48779 0.0204,-0.4985 0,0 0,0 0,0 z m 1.36778,0.25805 c 0.0185,0 0.27126,0.17094 0.27126,0.18381 0,0 -0.0644,0 -0.14335,0 h -0.14334 v -0.0956 c 0,-0.0532 0,-0.0956 0.0184,-0.0956 z m -14.60754,0.2231 c 0,0 0,0 0,0 -0.0185,0.0184 0.0328,0.63909 0.0551,0.69532 0,0.0198 0,0.0387 -0.0309,0.046 -0.0237,0 0.0185,0.0184 0.0919,0.0184 0.1195,0 0.15621,0.0184 0.31192,0.1176 0.0974,0.0644 0.21981,0.15623 0.27277,0.20293 0.0532,0.048 0.0956,0.0863 0.0974,0.0863 0,0 0.0532,-0.0808 0.11766,-0.18191 l 0.11391,-0.18198 -0.12863,-0.13232 c -0.23545,-0.24063 -0.82448,-0.6802 -0.89655,-0.67193 z m -3.48582,0.20734 0.068,0.0401 c 0.0624,0.0368 0.0717,0.0368 0.12311,0 0.0532,-0.0368 0.0591,-0.0368 0.1195,0.0624 0.14519,0.2371 0.19413,0.48024 0.14335,0.72581 -0.0295,0.14151 -0.11398,0.34149 -0.18014,0.42912 -0.0328,0.0421 -0.0388,0.0421 -0.079,0 -0.0532,-0.0499 -0.0846,-0.0513 -0.12312,0 -0.044,0.0552 -0.0644,0.044 -0.13421,-0.0735 v 0 c -0.19952,-0.34076 -0.19939,-0.73684 0,-1.07794 z m 10.56718,0.0735 c 0.28328,0 0.52347,0.046 0.74184,0.14519 l 0.15071,0.068 v 0.18197 c 0,0.1783 0,0.18198 -0.0513,0.15439 -0.044,-0.0223 -0.0473,-0.0223 -0.0335,0.0236 0.0184,0.0276 0,0.048 0,0.046 -0.0184,0 -0.0882,-0.0184 -0.17278,-0.0295 -0.13967,-0.0236 -0.15623,-0.0328 -0.19538,-0.11208 -0.068,-0.13231 -0.11575,-0.16175 -0.30824,-0.18014 l -0.1764,-0.0184 0.0644,0.11214 0.0661,0.11392 -0.1764,-0.0184 c -0.11214,-0.0184 -0.20754,-0.0328 -0.25865,-0.0644 -0.0735,-0.0441 -0.0937,-0.0473 -0.18618,-0.0204 -0.11215,0.0295 -0.41461,0.0367 -0.50612,0.0185 -0.0499,-0.0185 -0.044,-0.0223 0.0717,-0.10847 0.28466,-0.21246 0.58403,-0.30713 0.97335,-0.30745 z m 1.78889,0 c 0.32605,0 0.51408,0.042 0.75669,0.16911 0.25674,0.13414 0.44417,0.29569 0.81785,0.7074 0.38261,0.42197 0.56755,0.58062 0.8254,0.70821 0.19617,0.0974 0.4757,0.16535 0.67345,0.16535 h 0.10472 v 0.15622 0.15623 h -0.15064 c -0.27921,0 -0.59146,0.10295 -0.83703,0.27862 -0.0624,0.044 -0.11766,0.0809 -0.12128,0.0809 0,0 -0.0388,-0.0591 -0.079,-0.13231 v 0 l -0.0717,-0.13231 0.0591,-0.0421 c 0.0309,-0.0236 0.11943,-0.0773 0.19189,-0.12134 l 0.13415,-0.0772 h -0.28085 -0.28045 l -0.0735,-0.0772 -0.0735,-0.0772 0.23046,-0.0185 0.23066,-0.0185 -0.10479,-0.0753 c -0.0591,-0.0427 -0.1783,-0.14157 -0.26903,-0.22316 -0.0901,-0.0809 -0.18198,-0.14335 -0.20386,-0.13967 -0.0223,0 -0.0624,0.0538 -0.0937,0.11214 -0.0288,0.0585 -0.0572,0.11024 -0.0624,0.11391 0,0 -0.13784,-0.0699 -0.25103,-0.1507 -0.0204,-0.0185 0.10288,-0.22771 0.16536,-0.28761 l 0.0717,-0.068 -0.13782,-0.13974 c -0.0753,-0.0753 -0.15071,-0.13967 -0.16726,-0.13967 -0.044,0 -0.11576,0.11583 -0.1764,0.28788 -0.0316,0.0846 -0.0591,0.15984 -0.0604,0.16352 0,0 -0.24755,-0.10847 -0.26903,-0.12679 -0.0185,-0.0184 0.14519,-0.38432 0.19959,-0.45468 0.0328,-0.0421 0.0591,-0.0846 0.0591,-0.0938 0,-0.0276 -0.23493,-0.13597 -0.29097,-0.13597 -0.09,0 -0.24807,0.18978 -0.30765,0.3692 -0.0295,0.0864 -0.0552,0.15807 -0.0591,0.15807 -0.0223,0 -0.24576,-0.0827 -0.26042,-0.0938 -0.0256,-0.0223 0.0661,-0.28157 0.15255,-0.41814 l 0.0734,-0.1176 -0.17455,0.0184 c -0.0956,0.0184 -0.19295,0.0256 -0.21582,0.0387 -0.0401,0.0223 -0.18776,0.30122 -0.18776,0.35745 0,0.0295 -0.0184,0.0276 -0.22099,-0.0256 -0.0827,-0.0223 -0.0864,-0.0276 -0.0661,-0.0827 0.0204,-0.0538 0.0184,-0.0591 -0.0237,-0.0335 -0.0459,0.0236 -0.0473,0.0184 -0.0473,-0.15432 v -0.18014 l 0.12312,-0.0624 c 0.20438,-0.10288 0.45329,-0.15433 0.75083,-0.15433 z m -12.225,0.34701 c 0,0 -0.0185,0 -0.0185,0.0236 -0.0236,0.0591 -0.0256,0.3154 0,0.39456 l 0.0185,0.0605 0.0184,-0.0605 c 0.0185,-0.0328 0.0185,-0.11023 0.0197,-0.17087 0,-0.0605 0,-0.14709 -0.0184,-0.19065 0,-0.0387 -0.0184,-0.0551 -0.0184,-0.0591 z m 0.71897,1.60337 c 0,0 0,0 0.0184,0 0.0223,0 0.0827,0.0236 0.13967,0.0387 l 0.10295,0.0276 v 0.46283 0.46256 l 0.2566,0.0276 c 0.14151,0.0185 0.26554,0.0361 0.27639,0.0473 0.0185,0.0185 -0.0387,0.0661 -0.10472,0.12502 -0.12134,0.10288 -0.13422,0.10656 -0.31468,0.1176 l -0.18908,0.0184 -0.044,0.11944 c -0.0237,0.0644 -0.042,0.12135 -0.0387,0.12502 0,0 0.0335,0.0184 0.0624,0.0276 0.0532,0.0204 0.0532,0.0236 -0.068,0.12685 -0.068,0.0585 -0.22914,0.20898 -0.35672,0.33446 -0.15991,0.15813 -0.28342,0.25516 -0.39779,0.31488 -0.16168,0.0827 -0.16351,0.0864 -0.1084,0.11583 0.0328,0.0185 0.0624,0.0335 0.0662,0.0387 0.0184,0.0184 -0.16918,0.22514 -0.19709,0.2216 -0.0185,0 -0.10294,-0.0309 -0.19591,-0.0644 v 0 c -0.15622,-0.0591 -0.2053,-0.0624 -0.67489,-0.0717 l -0.50691,-0.0184 0.0185,-0.0993 c 0.0276,-0.22106 0,-0.20746 0.48398,-0.20746 0.50061,0 0.61603,-0.0203 0.87704,-0.14335 0.31961,-0.15255 0.54455,-0.3744 0.69598,-0.68265 0.0956,-0.19538 0.15439,-0.40909 0.15439,-0.56039 v -0.10662 l -0.15065,0.15629 c -0.16542,0.17271 -0.38819,0.33169 -0.57733,0.41408 -0.068,0.0289 -0.29609,0.11208 -0.50619,0.18191 -0.21022,0.0717 -0.4935,0.18382 -0.62949,0.25017 -0.27323,0.13415 -0.26318,0.13967 -0.21634,-0.0956 l 0.0295,-0.14335 0.18014,-0.0882 c 0.0974,-0.0499 0.34412,-0.14334 0.54475,-0.21101 0.46966,-0.15616 0.51467,-0.17462 0.70722,-0.30345 0.2026,-0.13409 0.3744,-0.32546 0.4895,-0.54469 0.0937,-0.18203 0.0974,-0.18203 -0.11582,0 -0.10289,0.0845 -0.12864,0.0937 -0.32362,0.11577 -0.46552,0.0499 -0.84952,0.15254 -1.16893,0.30856 -0.10478,0.0513 -0.19413,0.0901 -0.19846,0.0846 0,0 0.0184,-0.11214 0.0532,-0.31778 0,-0.0387 0.0585,-0.0699 0.19649,-0.12495 0.33558,-0.13421 0.66517,-0.20588 1.22517,-0.26724 0.22973,-0.0237 0.36408,-0.0736 0.44567,-0.16543 0.0223,-0.0236 0.0532,-0.0427 0.0753,-0.0401 z m 16.85329,0.99799 c 0.0532,0 0.48431,0.50953 0.6854,0.80911 0.0349,0.0532 0.0349,0.0532 0.2639,0.0184 0.12496,-0.0203 0.37605,-0.0348 0.55769,-0.0348 h 0.32966 l -0.0185,0.20963 c -0.0185,0.25477 -0.0735,0.68285 -0.10662,0.79637 -0.0184,0.0644 -0.0184,0.0864 0.0185,0.10294 0.20109,0.11399 0.76509,0.60243 0.75202,0.65335 -0.0184,0.0499 -0.39825,0.38714 -0.63055,0.55178 -0.21891,0.15438 -0.22809,0.16542 -0.21575,0.23729 0.0427,0.24906 0.0585,0.44627 0.0585,0.72009 v 0.3093 l -0.30562,-0.0185 c -0.16917,-0.0184 -0.38675,-0.0316 -0.48583,-0.0499 -0.0974,-0.0185 -0.21206,-0.0401 -0.25161,-0.0473 -0.0661,-0.0184 -0.0809,0 -0.20379,0.16917 -0.13421,0.18395 -0.53319,0.60762 -0.5749,0.60762 -0.0185,0 -0.10295,-0.0937 -0.20425,-0.20977 v 0 c -0.10111,-0.11392 -0.24682,-0.30436 -0.32605,-0.41979 -0.079,-0.11576 -0.15432,-0.20964 -0.1672,-0.20964 -0.0184,0 -0.12869,0.0185 -0.25641,0.0387 -0.12869,0.0203 -0.35232,0.0401 -0.49738,0.0427 h -0.2637 v -0.26377 c 0,-0.23381 0.044,-0.58207 0.0901,-0.79196 0.0185,-0.068 0,-0.0809 -0.19689,-0.23138 -0.16352,-0.12319 -0.44772,-0.38564 -0.60519,-0.56007 -0.0276,-0.0316 0.41776,-0.41329 0.67522,-0.58015 0.0901,-0.0572 0.16174,-0.11766 0.16174,-0.13422 0,-0.0184 -0.0184,-0.11759 -0.0368,-0.22809 -0.0204,-0.11024 -0.042,-0.33322 -0.0512,-0.49732 l -0.0185,-0.29846 h 0.13416 c 0.18985,0 0.59966,0.0421 0.80614,0.0827 0.0974,0.0197 0.18008,0.0349 0.18376,0.0349 0,0 0.079,-0.10111 0.16542,-0.2231 0.17645,-0.24978 0.48241,-0.59218 0.52839,-0.59218 z m 0,0.41067 -0.13048,0.15989 c -0.14703,0.18014 -0.31185,0.43096 -0.41408,0.628 -0.0827,0.15989 -0.12863,0.26395 -0.11949,0.26395 0,0 0.0828,-0.0499 0.17277,-0.1103 0.21227,-0.1415 0.35069,-0.21186 0.64533,-0.3242 0.13599,-0.0539 0.23671,-0.10295 0.2327,-0.11767 -0.0185,-0.0328 -0.19709,-0.28446 -0.30745,-0.40961 z m -1.43796,0.59854 c -0.068,0 -0.0552,0.048 -0.0276,0.28643 0.0315,0.24716 0.1195,0.63168 0.19314,0.82659 l 0.0538,0.14342 0.042,-0.21634 c 0.0223,-0.11759 0.0717,-0.30226 0.10663,-0.40764 0.0367,-0.10472 0.10288,-0.27073 0.14702,-0.36829 0.044,-0.0974 0.0809,-0.18014 0.0809,-0.18198 0,0 -0.31738,-0.0532 -0.49752,-0.0735 -0.044,0 -0.0754,-0.0184 -0.0974,-0.0184 z m 2.87026,0.0736 c -0.0499,0 -0.12496,0.0185 -0.23907,0.0223 -0.35956,0.0387 -0.93255,0.16725 -0.93255,0.21317 0,0.0185 0.0771,0.0296 0.17278,0.044 0.22179,0.0387 0.61498,0.16917 0.82533,0.27612 l 0.16359,0.0827 0.0276,-0.12311 c 0.0185,-0.068 0.0388,-0.21273 0.0499,-0.32152 0.0184,-0.15807 0.0387,-0.19774 -0.0699,-0.19538 z m -1.63504,0.52543 c -0.13231,0 -0.15071,0.0184 -0.27126,0.10479 -0.20202,0.15064 -0.38892,0.35141 -0.41736,0.44752 -0.0185,0.044 -0.0309,0.20879 -0.0388,0.36297 l -0.0184,0.27986 0.12318,0.16366 c 0.0661,0.0901 0.18015,0.21975 0.24919,0.28853 0.11766,0.11399 0.13974,0.12686 0.28342,0.14703 0.0845,0.0184 0.2428,0.0223 0.34903,0.0236 0.17646,0 0.20347,0 0.30562,-0.068 0.0624,-0.0387 0.19413,-0.15071 0.29353,-0.2459 0.1783,-0.17094 0.18197,-0.17646 0.20366,-0.33025 0.0184,-0.0846 0.0223,-0.24754 0.0223,-0.35969 0,-0.24754 -0.0184,-0.28177 -0.29405,-0.56551 l -0.19709,-0.20201 -0.1672,-0.0236 c -0.0937,-0.0184 -0.25588,-0.0223 -0.36316,-0.0223 -0.0237,0 -0.0459,0 -0.0644,0 z m -0.31574,0.23697 0.14335,0.0717 c 0.079,0.0387 0.18474,0.11392 0.23454,0.16536 l 0.0901,0.0937 0.0956,-0.0918 c 0.079,-0.0735 0.34557,-0.23506 0.39115,-0.23506 0,0 0.0185,0.0328 0.0256,0.0735 0.0185,0.0552 0.0328,0.0753 0.0864,0.0864 0.0591,0.0185 0.0679,0.0223 0.0552,0.0644 -0.0236,0.0846 -0.13237,0.25549 -0.21963,0.35384 l -0.0828,0.0937 0.0974,0.10479 c 0.0827,0.0901 0.22001,0.31613 0.22001,0.36225 0,0 -0.0309,0.0237 -0.0699,0.0387 -0.044,0.0184 -0.0753,0.0459 -0.0827,0.0828 -0.0185,0.0335 -0.0309,0.0591 -0.0513,0.0591 -0.0644,0 -0.23086,-0.0975 -0.3457,-0.20589 l -0.11397,-0.10471 -0.0591,0.0644 c -0.0604,0.0661 -0.2543,0.19538 -0.36165,0.24182 -0.0591,0.0276 -0.0662,0.0223 -0.0883,-0.042 -0.0185,-0.0401 -0.0513,-0.0809 -0.0845,-0.0938 -0.0335,-0.0184 -0.0604,-0.0367 -0.0604,-0.0532 0,-0.0513 0.13606,-0.27093 0.22724,-0.36744 l 0.0863,-0.0919 -0.0937,-0.0974 c -0.10288,-0.10663 -0.21956,-0.2961 -0.21956,-0.35483 0,-0.0204 0.0256,-0.044 0.0605,-0.0532 0.0362,-0.0184 0.0717,-0.044 0.09,-0.0882 z m 1.56133,0.0309 c 0,0 0,0 0,0 0,0 0.0349,0.0809 0.0937,0.16543 0.0591,0.0826 0.14335,0.22803 0.19006,0.32027 0.0717,0.14157 0.1084,0.23749 0.22218,0.55874 0.0184,0.0349 0.22869,-0.10846 0.41336,-0.27546 l 0.11392,-0.10295 -0.0955,-0.0827 c -0.20899,-0.18434 -0.86016,-0.58942 -0.93243,-0.58292 z m -20.21067,0.0223 c 0.0185,0 0.0532,0.0236 0.0974,0.0532 0.14518,0.0956 0.45474,0.24571 0.6582,0.31777 0.10289,0.0387 0.1919,0.0735 0.19827,0.0846 0.0184,0.0309 -0.13783,0.23821 -0.18013,0.2369 -0.0204,0 -0.10472,-0.0276 -0.18704,-0.0591 -0.0828,-0.0328 -0.25832,-0.11398 -0.39116,-0.18199 l -0.24169,-0.12311 0.0185,-0.1599 c 0.0185,-0.0864 0.0204,-0.16358 0.0237,-0.16719 0,0 0,0 0,0 z m 35.01398,0.0184 c -0.97486,0 -1.08076,0 -1.39078,0.0532 -0.86015,0.13777 -1.68851,0.4491 -2.67362,1.00679 -0.93702,0.53057 -2.07764,1.47179 -2.56155,2.11396 -0.16174,0.2147 -0.1957,0.31798 -0.1415,0.42532 0.0918,0.1783 0.30713,0.18375 0.84491,0.0203 0.48352,-0.1471 1.0757,-0.24229 3.04355,-0.49167 2.51136,-0.31817 3.30924,-0.35712 3.53693,-0.17278 l 0.0532,0.0427 -0.0809,0.079 c -0.15622,0.15438 -0.97998,0.51112 -1.92305,0.83204 -0.5592,0.19006 -0.89116,0.28558 -1.44767,0.41664 -0.27409,0.0644 -0.58981,0.14519 -0.7019,0.18014 -0.59153,0.18014 -1.0732,0.28046 -2.14621,0.44384 -0.73645,0.11398 -0.88112,0.14703 -0.93387,0.22219 -0.0513,0.0736 -0.0459,0.19176 0.0185,0.26449 0.1011,0.12869 0.85503,0.46098 1.49885,0.66188 0.36231,0.11392 1.06085,0.2957 1.94216,0.50816 l 0.62338,0.15071 0.1563,0.16542 0.15623,0.16542 v -0.1287 -0.13047 l 0.35265,-0.0295 c 1.85578,-0.15254 3.36948,-0.69585 4.6805,-1.67761 1.03517,-0.77527 2.68723,-2.42003 2.95776,-2.94495 0.0882,-0.17093 0.0276,-0.32755 -0.18855,-0.49219 -0.18894,-0.14334 -0.84892,-0.46644 -1.63004,-0.79767 -0.39575,-0.16727 -0.87835,-0.38013 -1.07281,-0.47144 -0.37749,-0.1783 -0.63279,-0.25509 -1.0493,-0.31633 -0.56702,-0.0827 -0.87539,-0.0974 -1.93021,-0.0974 z m -17.48173,0.15432 c -0.0184,0 -0.29497,0.20471 -0.44955,0.32992 l -0.0552,0.044 0.15991,0.13784 c 0.0882,0.0753 0.22704,0.18413 0.30765,0.24148 0.15622,0.11215 0.56334,0.34945 0.59606,0.34945 0.0185,0 -0.0328,-0.079 -0.0974,-0.17462 -0.14335,-0.2099 -0.25766,-0.43813 -0.36389,-0.71937 -0.044,-0.11576 -0.0864,-0.2097 -0.0974,-0.2097 z m 17.36263,0.2162 c 0.80484,0 1.75828,0.0605 2.23431,0.158 0.25129,0.0513 0.43564,0.1195 0.83395,0.30417 0.18487,0.0864 0.57306,0.25602 0.86324,0.37775 0.65611,0.27527 1.21893,0.53536 1.43874,0.66491 0.28637,0.1691 0.27566,0.13783 0.11759,0.3432 -0.62082,0.80904 -2.111,2.20494 -2.98364,2.7949 -1.12721,0.76201 -2.37464,1.20309 -3.84846,1.36115 -0.18467,0.0204 -0.43195,0.0421 -0.54935,0.0499 l -0.21358,0.0184 -0.15255,-0.16175 -0.1507,-0.16174 v 0.1103 0.11024 l -0.81437,-0.19919 c -0.85575,-0.2095 -1.43453,-0.36783 -1.77549,-0.48503 -0.31429,-0.10847 -0.67358,-0.24958 -0.66242,-0.26061 0,0 0.2739,-0.0532 0.59626,-0.10295 0.72141,-0.11576 1.19981,-0.21397 1.58341,-0.32572 0.52563,-0.15254 0.69637,-0.19814 0.9972,-0.26133 0.57752,-0.12312 1.53616,-0.42933 2.39447,-0.76911 0.76004,-0.30076 1.05206,-0.46454 1.21,-0.67936 0.20542,-0.27921 0.0532,-0.60118 -0.34413,-0.72574 -0.16358,-0.0513 -0.21482,-0.0552 -0.7392,-0.0532 -0.62819,0 -0.94984,0.0309 -2.52975,0.2279 -2.1298,0.26522 -2.83485,0.37526 -3.31325,0.51625 -0.11581,0.0335 -0.23282,0.068 -0.25916,0.0753 -0.0771,0.0223 0.33176,-0.40633 0.66392,-0.69512 0.77981,-0.67811 1.3492,-1.0608 2.2066,-1.48316 0.95205,-0.46906 1.57932,-0.65177 2.46431,-0.71793 0.21207,-0.0184 0.464,-0.0223 0.73219,-0.0236 z m -34.96971,0.35338 c 0.0184,0 0.0644,0.044 0.12135,0.10478 0.0604,0.0644 0.18381,0.1672 0.2744,0.22935 0.0919,0.0624 0.16542,0.1195 0.16542,0.1287 0,0.0184 -0.13967,0.24018 -0.1507,0.24018 0,0 -0.0624,-0.0387 -0.13054,-0.0809 -0.0679,-0.044 -0.16168,-0.11208 -0.20911,-0.15071 l -0.0864,-0.0699 v -0.19377 c 0,-0.10655 0,-0.19997 0.0185,-0.20746 0,0 0,0 0,0 z m 20.41656,0.18566 c 0,0 0,0 0,0 -0.0185,0 -0.0236,0.068 -0.0335,0.13783 -0.0236,0.17094 -0.16167,0.58429 -0.27789,0.81877 -0.0532,0.10478 -0.0937,0.19426 -0.0882,0.19708 0.0185,0.0184 0.42986,0.0772 0.52689,0.079 0.0827,0 0.11398,0 0.11398,-0.0309 0,-0.0993 -0.0552,-0.55157 -0.0846,-0.69716 -0.0499,-0.23689 -0.1287,-0.49974 -0.15254,-0.50454 z m -2.60825,0.52747 c 0,0 0,0 0,0 -0.0185,0.0185 -0.0349,0.12686 -0.0845,0.53358 -0.0185,0.12311 -0.0276,0.11943 0.3468,0.0644 0.27606,-0.0401 0.64034,-0.12871 0.78665,-0.1923 l 0.0919,-0.0387 -0.20385,-0.0427 c -0.25733,-0.0532 -0.46132,-0.12319 -0.71602,-0.2419 -0.0957,-0.044 -0.18421,-0.079 -0.21161,-0.0827 z m 2.05391,0.21634 c -0.0184,0 -0.079,0.0421 -0.1599,0.0974 -0.20103,0.13782 -0.51532,0.29589 -0.75702,0.38174 -0.10294,0.0349 -0.18578,0.0717 -0.18578,0.0771 0,0.042 0.34898,0.48543 0.3834,0.48543 0.0184,0 0.0808,-0.0735 0.158,-0.16176 0.20103,-0.23492 0.56222,-0.80043 0.56222,-0.88058 0,0 0,0 0,0 z m -3.60105,0.22841 c 0.0184,0 0.0827,0.0591 0.1599,0.13055 l 0.14335,0.12863 -0.0532,0.0591 -0.0538,0.0591 0.0499,0.0499 0.0499,0.0499 -0.11582,0.11207 c -0.0624,0.0624 -0.21462,0.18198 -0.33609,0.26916 l -0.22061,0.15615 0.11024,0.14894 c 0.15813,0.21371 0.23696,0.37689 0.19616,0.40298 -0.0184,0.0184 -0.0459,0.0204 -0.0624,0.0204 -0.0223,0 -0.0276,0.0223 -0.0184,0.0828 l 0.0184,0.0827 -0.1287,0.0276 c -0.0699,0.0184 -0.2145,0.0328 -0.31974,0.0421 l -0.19191,0.0184 v 0.46834 0.46868 l -0.1323,0.0309 c -0.16542,0.0387 -0.1599,0.0387 -0.17462,0 h -2e-4 c 0,-0.0184 -0.0644,-0.0585 -0.12869,-0.0938 -0.0882,-0.048 -0.1764,-0.0699 -0.36862,-0.0901 -0.67713,-0.0735 -1.1548,-0.20595 -1.51672,-0.42452 l -0.13784,-0.0827 v -0.19098 -0.19091 l 0.12496,0.0937 c 0.32296,0.24281 0.74919,0.38899 1.3693,0.4696 0.32033,0.0421 0.2955,0.0335 0.46499,0.17645 0.0699,0.0591 0.12502,0.0993 0.12502,0.0882 0,-0.0624 -0.18204,-0.33854 -0.3156,-0.48011 -0.21325,-0.22494 -0.41816,-0.33722 -0.91587,-0.50139 -0.22238,-0.0735 -0.50579,-0.18192 -0.62969,-0.23999 l -0.22515,-0.10662 v -0.14519 c 0,-0.18198 0.0185,-0.18381 0.31449,-0.0387 0.12312,0.0591 0.41461,0.17095 0.64639,0.24919 0.23197,0.079 0.46926,0.16725 0.52753,0.1961 0.18007,0.0919 0.39457,0.25549 0.53523,0.41079 l 0.13408,0.14887 v -0.0827 c 0,-0.15991 -0.0717,-0.42032 -0.16719,-0.61537 -0.0956,-0.19538 -0.29925,-0.43537 -0.46539,-0.5508 l -0.0717,-0.0499 0.22514,-0.0184 0.22494,-0.0184 0.0624,0.0699 c 0.0335,0.0368 0.0845,0.0993 0.11393,0.13598 l 0.0532,0.068 0.1268,-0.0427 c 0.14709,-0.0473 0.42998,-0.18599 0.5341,-0.2597 0.0513,-0.0349 0.12319,-0.0532 0.23992,-0.0624 l 0.1672,-0.0185 v -0.30568 c 0,-0.1672 0.0184,-0.3053 0.0236,-0.30476 z m -3.31731,0.95832 c 0.0572,0 0.0624,0 0.0624,0.13414 v 0.13422 l -0.22684,0.10656 c -0.12495,0.0591 -0.40797,0.16726 -0.6295,0.24005 -0.56071,0.1871 -0.74926,0.2957 -0.98498,0.56834 -0.10104,0.11576 -0.24478,0.35121 -0.24478,0.39897 0,0.0184 0.0644,-0.0276 0.14342,-0.0918 0.11391,-0.0937 0.16719,-0.12319 0.25765,-0.13238 0.77121,-0.0956 1.2496,-0.24978 1.5654,-0.50139 l 0.1084,-0.0846 v 0.18435 c 0.0184,0.21573 0.0184,0.21021 -0.29464,0.36171 -0.34865,0.17087 -0.70282,0.2635 -1.27312,0.32966 -0.35896,0.042 -0.43635,0.0644 -0.55304,0.16182 -0.0864,0.0735 -0.079,0.0717 -0.23197,0.0236 l -0.11575,-0.0348 v -0.46335 -0.46316 l -0.1917,-0.0184 c -0.28597,-0.0223 -0.44364,-0.0605 -0.44364,-0.11023 0,-0.0236 0.0184,-0.0585 0.0289,-0.0809 0.044,-0.0585 0.2974,-0.11398 0.50711,-0.11398 0.14341,0 0.18198,0 0.18198,-0.0348 0,-0.0204 0.0185,-0.044 0.0427,-0.0585 0.0532,-0.0276 0.29735,-0.0808 0.31094,-0.0661 0,0 -0.0184,0.0864 -0.0513,0.18198 -0.0335,0.0937 -0.0698,0.24846 -0.0771,0.34293 l -0.0185,0.17094 0.15255,-0.16358 c 0.26397,-0.2823 0.4893,-0.41185 1.01073,-0.58115 0.18835,-0.0624 0.46328,-0.16351 0.6109,-0.22769 0.14703,-0.0644 0.2959,-0.11583 0.32966,-0.11583 z m 2.64925,0.19957 -0.13783,0.048 -0.13789,0.0473 0.0499,0.12686 0.0499,0.1268 h 0.18389 c 0.10111,0 0.20109,0 0.22225,-0.0184 v 0 c 0.0335,-0.0185 0.0295,-0.0276 -0.0256,-0.10288 -0.0349,-0.0473 -0.0956,-0.12134 -0.13415,-0.1618 z m 3.88624,0.17279 0.15077,0.1599 c 0.0827,0.0882 0.20917,0.20255 0.2817,0.25457 0.334,0.23933 0.57425,0.64383 0.5751,0.96876 0,0.0864 0,0.0882 0.11399,0.10288 0.41151,0.0591 0.70229,0.23052 0.95646,0.57201 0.0604,0.0809 0.18014,0.21338 0.26818,0.29517 l 0.15806,0.14887 -0.15071,0.13599 c -0.0828,0.0754 -0.20937,0.21548 -0.28065,0.31172 -0.0717,0.0956 -0.18382,0.21838 -0.24998,0.27054 -0.21081,0.16726 -0.51867,0.28992 -0.726,0.29037 h -0.0901 v 0.10302 c 0,0.32348 -0.22823,0.71825 -0.55099,0.95311 -0.0919,0.0661 -0.22974,0.1902 -0.30785,0.27533 -0.0791,0.0846 -0.14526,0.15439 -0.1507,0.15439 0,0 -0.079,-0.0772 -0.16543,-0.17094 v 0 c -0.0845,-0.0937 -0.21653,-0.2103 -0.29097,-0.26095 -0.0735,-0.0513 -0.17461,-0.13789 -0.22422,-0.19485 -0.18375,-0.21378 -0.32441,-0.5395 -0.32441,-0.75117 v -0.10103 l -0.13782,-0.0185 c -0.3518,-0.0368 -0.68816,-0.23644 -0.91876,-0.5439 -0.0735,-0.0993 -0.20294,-0.24261 -0.28584,-0.31921 l -0.15071,-0.13974 0.16727,-0.15991 c 0.0937,-0.0881 0.2114,-0.22014 0.26429,-0.29346 0.23434,-0.3246 0.53963,-0.5054 0.94675,-0.56111 0.11391,-0.0184 0.11391,-0.0184 0.11391,-0.10478 0,-0.32513 0.2411,-0.72949 0.57529,-0.96895 0.0735,-0.0538 0.19927,-0.16726 0.28158,-0.25438 z m 1.98927,0.34917 c 0.0236,0 0.0236,0.0204 0.0236,0.0661 0,0.068 0,0.0736 0.0735,0.0736 0.0734,0 0.0734,0 0.0591,0.0901 -0.0204,0.11576 -0.13605,0.3652 -0.2187,0.4738 -0.0368,0.0459 -0.11399,0.12133 -0.17646,0.16725 -0.1599,0.1176 -0.47012,0.23251 -0.51276,0.19007 -0.0185,-0.0184 -0.0185,-0.0427 -0.0185,-0.0717 0,-0.0401 -0.0185,-0.0591 -0.0735,-0.0699 -0.0699,-0.0185 -0.0735,-0.0204 -0.0591,-0.10288 0.0276,-0.16542 0.17461,-0.42473 0.30745,-0.54495 0.14157,-0.12686 0.3612,-0.23985 0.51519,-0.26416 0.0388,0 0.0624,-0.0184 0.0772,-0.0184 z m -3.92618,0.0185 c 0.0185,0 0.0185,0 0.0295,0 0.13592,0.0184 0.37729,0.1287 0.51696,0.26049 0.1287,0.12127 0.27349,0.38097 0.30161,0.54323 0.0185,0.0846 0.0185,0.0919 -0.0585,0.10479 -0.0591,0.0184 -0.0735,0.0295 -0.0809,0.0772 -0.0185,0.0735 -0.044,0.0827 -0.17462,0.0427 -0.3154,-0.10294 -0.51887,-0.27369 -0.64698,-0.54698 -0.044,-0.0956 -0.09,-0.21522 -0.0974,-0.26463 -0.0185,-0.0882 -0.0185,-0.0901 0.0572,-0.0901 0.0624,0 0.0735,-0.0184 0.0809,-0.0661 0,-0.0532 0.0185,-0.0624 0.0735,-0.0624 z m 2.09261,0.2233 v 0.37184 0.37183 h -0.14335 -0.14151 v -0.37183 -0.37158 l -0.13237,0.0937 c -0.21227,0.1507 -0.36021,0.388 -0.40982,0.65669 -0.0237,0.13415 -0.0223,0.18191 0.0185,0.31888 0.0735,0.29315 0.21396,0.4652 0.47182,0.57367 0.0735,0.0309 0.13599,0.0551 0.14328,0.0585 0,0 0.0473,-0.079 0.0937,-0.17652 v 0 c 0.12318,-0.27415 0.3386,-0.46125 0.65985,-0.57319 0.0387,-0.0184 0.0427,-0.0328 0.0276,-0.15256 -0.0335,-0.27276 -0.20142,-0.55026 -0.43241,-0.7128 z m -10.97706,0.0572 c 0.0328,0 0.0184,0.0276 0,0.0919 -0.0937,0.26285 -0.2773,0.46816 -0.52622,0.58576 -0.0937,0.044 -0.20839,0.0864 -0.25779,0.0956 -0.0883,0.0184 -0.0901,0.0184 -0.0901,-0.0585 0,-0.0624 -0.0184,-0.0753 -0.0717,-0.0882 -0.0826,-0.0185 -0.0882,-0.0513 -0.0335,-0.21009 l 0.0388,-0.11214 0.22021,-0.0735 c 0.2369,-0.079 0.28913,-0.0882 0.23106,-0.0427 -0.0532,0.0427 -0.17647,0.20898 -0.15439,0.20898 0.0473,0 0.18724,-0.11208 0.25253,-0.20176 0.0585,-0.0827 0.0993,-0.1103 0.21003,-0.14334 0.10663,-0.0328 0.16359,-0.0532 0.18947,-0.0532 z m 9.07004,0.0864 c -0.0532,0 0.1011,0.20457 0.20031,0.26488 0.0846,0.0513 0.10294,0.0473 0.068,-0.0184 -0.0328,-0.0605 -0.2348,-0.2465 -0.26811,-0.2465 z m 3.50402,0 c -0.0401,0 -0.24058,0.19117 -0.28026,0.26778 l -0.0335,0.0661 0.0809,-0.0459 c 0.044,-0.0256 0.10295,-0.0717 0.1287,-0.10111 0.0808,-0.0882 0.13599,-0.18598 0.10472,-0.18598 z m -13.77367,0.33085 c 0.0185,0 0.0309,0 0.0349,0.0184 0.0236,0.0427 0.068,0.24597 0.068,0.3296 0,0.0644 0,0.0699 0.11399,0.0826 0.40101,0.0532 0.7285,0.25261 0.9744,0.59751 0.0591,0.0828 0.17652,0.21174 0.25916,0.28512 l 0.15256,0.13415 -0.10472,0.0919 c -0.13606,0.11576 -0.23258,0.22277 -0.37756,0.415 -0.19998,0.2656 -0.54515,0.46131 -0.8746,0.49666 l -0.13423,0.0184 -0.0184,0.13416 c -0.0328,0.32566 -0.22901,0.67253 -0.49751,0.875 -0.0846,0.0644 -0.23454,0.19098 -0.33163,0.28164 -0.0974,0.0918 -0.18375,0.16542 -0.19203,0.16352 -0.0185,0 -0.0699,-0.0624 -0.13415,-0.13593 -0.0661,-0.0736 -0.19702,-0.19177 -0.29091,-0.26121 -0.0937,-0.0699 -0.20924,-0.17094 -0.25588,-0.22592 -0.16726,-0.19623 -0.28906,-0.48976 -0.31042,-0.75406 0,-0.068 -0.0184,-0.0735 -0.14156,-0.0882 -0.37638,-0.0459 -0.70519,-0.24925 -0.94057,-0.57931 -0.0604,-0.0845 -0.16917,-0.20812 -0.24519,-0.27677 -0.0773,-0.0717 -0.12685,-0.13422 -0.11397,-0.14518 0.0184,-0.0184 0.15989,-0.0846 0.32953,-0.16542 0.26962,-0.12687 0.30345,-0.13791 0.26962,-0.0864 -0.0223,0.0328 -0.0388,0.0644 -0.0388,0.0717 0,0 0.16181,0.0185 0.35995,0.0185 h 0.35968 v 0.15622 0.15623 h -0.37295 -0.37276 l 0.0735,0.10479 c 0.28453,0.41375 0.79564,0.56347 1.21728,0.35692 0.17278,-0.0846 0.27073,-0.19886 0.36461,-0.42406 l 0.0773,-0.18652 -0.0624,-0.1599 c -0.0349,-0.0882 -0.0846,-0.19479 -0.11215,-0.23783 -0.0624,-0.10294 -0.21634,-0.20622 -0.3878,-0.26429 -0.0735,-0.0236 -0.14342,-0.0513 -0.14888,-0.0591 -0.0184,-0.0185 0.33434,-0.16351 0.38578,-0.16351 0.0591,0 0.23394,0.12862 0.34148,0.25181 0.0532,0.0604 0.12502,0.17823 0.16175,0.26238 l 0.0644,0.15261 0.0901,-0.0328 c 0.16359,-0.0591 0.28065,-0.12869 0.35916,-0.21818 0.15806,-0.18008 0.23782,-0.47708 0.1913,-0.70813 -0.0184,-0.0717 -0.0276,-0.14335 -0.0295,-0.16174 0,-0.0387 0.16358,-0.10295 0.24019,-0.10295 z m 14.79281,0.347 c 0,0 0.0185,0.0185 0.0185,0.0368 0,0.0591 -0.0185,0.0662 -0.0361,0.0276 -0.0185,-0.0184 0,-0.0387 0.0184,-0.0532 0,0 0.0185,-0.0184 0.0185,-0.0184 z m 0,0.21594 c 0,0 0.0185,0.0185 0.0185,0.0368 0,0.0591 -0.0185,0.0661 -0.0361,0.0276 -0.0185,-0.0185 0,-0.0367 0.0184,-0.0538 0,0 0.0185,-0.0184 0.0185,-0.0184 z m -14.72501,0.15623 -0.0532,0.1415 c -0.10302,0.266 -0.34228,0.50527 -0.58851,0.58647 -0.0513,0.0184 -0.0956,0.0387 -0.10301,0.048 0,0.0184 0.0184,0.0809 0.0407,0.15807 0.0699,0.18697 0.22874,0.35087 0.41611,0.42899 0.12673,0.0538 0.17088,0.0591 0.37158,0.0538 0.19958,0 0.24609,-0.0184 0.37663,-0.0846 0.18007,-0.0937 0.28854,-0.18454 0.40134,-0.34161 l 0.0845,-0.11944 h -0.38478 -0.38452 v -0.15077 -0.15071 l 0.36883,-0.0184 0.36887,-0.0185 -0.09,-0.11576 c -0.12502,-0.16357 -0.19216,-0.21857 -0.38747,-0.31671 -0.11391,-0.0591 -0.21614,-0.09 -0.31166,-0.0974 z m 10.89658,0 c -0.0591,0 -0.13599,0.0184 -0.21594,0.0387 -0.22297,0.0644 -0.40784,0.19682 -0.54167,0.38498 l -0.0826,0.11582 0.36718,0.0184 0.36664,0.0184 v 0.15064 0.1507 h -0.38589 -0.38603 l 0.0644,0.0901 c 0.1599,0.21799 0.31021,0.33873 0.52018,0.41665 0.1867,0.0699 0.50802,0.0532 0.69249,-0.0349 0.0772,-0.0387 0.17646,-0.11214 0.23033,-0.17094 0.0955,-0.10847 0.21227,-0.36632 0.1783,-0.39537 -0.0185,-0.0184 -0.0661,-0.0335 -0.12318,-0.0591 -0.14709,-0.0591 -0.29681,-0.16542 -0.39568,-0.28505 -0.0827,-0.10111 -0.20583,-0.3363 -0.20641,-0.39464 0,-0.0223 -0.0388,-0.0309 -0.0974,-0.0295 z m 2.08039,0 c -0.0827,0 -0.16726,0.0184 -0.25076,0.0401 -0.27953,0.0864 -0.41736,0.22533 -0.5324,0.5343 l -0.0513,0.13415 0.0624,0.16359 c 0.10104,0.26593 0.23046,0.40179 0.47116,0.49088 0.18941,0.0699 0.51046,0.0552 0.69277,-0.0335 0.16543,-0.079 0.30476,-0.19722 0.41645,-0.35273 l 0.0864,-0.11766 h -0.38485 -0.38465 v -0.1507 -0.15071 h 0.36553 c 0.2011,0 0.36553,-0.0185 0.36553,-0.0197 0,-0.0499 -0.21299,-0.28361 -0.32506,-0.35824 -0.18013,-0.11759 -0.36205,-0.17823 -0.54554,-0.17639 z m -5.03526,0.47786 -0.0185,0.55652 c -0.0185,0.30582 -0.0204,1.236 -0.0276,2.06699 -0.0184,1.63569 -0.0387,2.34777 -0.0974,3.09322 l -0.0387,0.47952 -0.10662,0.24209 c -0.26318,0.59599 -0.7936,1.45141 -1.26944,2.0478 -0.31277,0.39185 -1.0033,1.08801 -1.3643,1.37586 -1.01862,0.81162 -2.29319,1.3957 -3.48892,1.59937 -0.38819,0.0661 -1.28435,0.0846 -1.63044,0.0349 -0.83407,-0.12132 -1.51285,-0.39241 -2.11402,-0.84529 -0.77305,-0.58225 -1.20992,-1.20696 -1.4279,-2.04139 -0.0473,-0.18197 -0.0699,-1.0667 -0.0328,-1.39169 0.19346,-1.77872 1.49537,-3.40456 3.85837,-4.81945 1.05496,-0.6318 2.26803,-1.17051 3.79335,-1.68498 0.62799,-0.21192 0.92737,-0.2928 1.53834,-0.41499 0.6787,-0.13606 1.38671,-0.22632 2.24726,-0.28617 z m 3.02839,0.0661 h 0.13789 0.13783 v 0.1507 0.15071 h -0.14519 -0.14518 v -0.15616 z m -10.95814,0 v 0.15623 0.15806 h -0.14519 -0.14518 v -0.15071 -0.1507 h 0.13782 z m 12.92434,0 v 0.15623 0.15806 h -0.13414 c -0.0901,0 -0.136,-0.0184 -0.14519,-0.0335 v 0 c 0,-0.0184 -0.0184,-0.0846 0,-0.15071 l 0.0185,-0.11766 h 0.13783 z m -14.89075,0 h 0.13238 0.13231 v 0.15623 0.15622 h -0.13231 -0.13238 v -0.15622 z m 0.97782,0.52616 -0.044,0.092 c -0.10288,0.20858 -0.33866,0.40876 -0.57135,0.48556 l -0.10479,0.0328 0.0184,0.14525 c 0.0223,0.20951 0.15078,0.45981 0.30916,0.59935 0.1672,0.14703 0.38597,0.32218 0.40365,0.32382 0,0 0.0328,-0.0223 0.0604,-0.0499 0.0236,-0.0276 0.10479,-0.0918 0.1783,-0.14151 0.27664,-0.18966 0.42216,-0.42715 0.46703,-0.76108 0.0185,-0.0974 0.0185,-0.12495 -0.0185,-0.12495 -0.0718,0 -0.33616,-0.1471 -0.44186,-0.24446 -0.0624,-0.0572 -0.14336,-0.15991 -0.18382,-0.22993 z m 12.9298,0.0276 c -0.0185,0 -0.0276,0.0223 -0.0349,0.048 -0.0538,0.16359 -0.35948,0.42841 -0.58298,0.50218 -0.11582,0.0387 -0.12318,0.0699 -0.0624,0.30214 0.0473,0.18618 0.16351,0.37716 0.29885,0.49311 0.11759,0.10288 0.3679,0.30476 0.37788,0.30765 0,0 0.068,-0.048 0.14335,-0.10662 0.36848,-0.28999 0.47451,-0.42511 0.54402,-0.69401 0.0624,-0.23927 0.0552,-0.2668 -0.0772,-0.31094 -0.22205,-0.0735 -0.51716,-0.32953 -0.56925,-0.49351 -0.0185,-0.0256 -0.0237,-0.048 -0.0349,-0.048 z m -3.17114,1.72766 c 0.0276,0 0.24668,0.27317 0.3788,0.46618 0.0624,0.0937 0.12134,0.17456 0.1287,0.18428 0,0.0184 0.11575,0 0.24183,-0.0184 0.12495,-0.0185 0.37623,-0.0335 0.55743,-0.0335 h 0.32972 v 0.0644 c 0,0.16174 -0.0532,0.6358 -0.0937,0.82139 -0.0335,0.15071 -0.0368,0.20806 -0.0184,0.21975 0.136,0.079 0.40567,0.29176 0.57825,0.45475 l 0.21004,0.19886 -0.12864,0.11582 c -0.2187,0.19663 -0.45763,0.38886 -0.61386,0.49423 -0.0827,0.0552 -0.15071,0.1084 -0.15071,0.1176 0,0.0184 0.0185,0.0624 0.0223,0.11575 0.0335,0.14893 0.068,0.67201 0.0532,0.83336 l -0.0185,0.1415 -0.29044,-0.0184 c -0.1599,0 -0.40836,-0.0387 -0.5523,-0.0644 -0.23493,-0.046 -0.2641,-0.046 -0.28282,-0.0184 -0.0919,0.16358 -0.6341,0.7572 -0.69218,0.7572 -0.0185,0 -0.0499,-0.0387 -0.0846,-0.0845 v 0 l -0.0644,-0.0845 0.0624,-0.12871 c 0.0349,-0.0717 0.079,-0.13047 0.0993,-0.13047 0.044,0 0.29347,-0.29392 0.4558,-0.53962 0.11208,-0.16911 0.27718,-0.46887 0.27718,-0.50212 0,0 -0.0662,0.0349 -0.15071,0.0937 -0.0828,0.0591 -0.20846,0.13415 -0.27955,0.1691 l -0.13053,0.0644 0.0184,-0.15071 c 0.0184,-0.0828 0.0184,-0.18454 0.0184,-0.22697 0,-0.0735 0,-0.0773 0.0992,-0.0901 0.12311,-0.0184 0.29609,-0.13409 0.49495,-0.33465 0.13783,-0.13968 0.15254,-0.16359 0.17463,-0.29479 0.0185,-0.079 0.0223,-0.2457 0.0223,-0.37144 v -0.22868 l -0.15254,-0.19092 c -0.1913,-0.23854 -0.31725,-0.34096 -0.44437,-0.3612 l -0.0974,-0.0184 v -0.307 -0.30647 l 0.0901,-0.0276 c 0.0499,-0.0184 0.0993,-0.0387 0.10839,-0.046 0.0185,-0.0184 -0.0295,-0.0827 -0.09,-0.16542 l -0.10847,-0.14886 v -0.21575 c 0,-0.11766 0.0185,-0.21509 0.0185,-0.21449 z m -14.74333,0.3114 c 0.0185,0 0.0223,0.0184 0.048,0.0328 0.0473,0.0427 0.0532,0.0427 0.11398,0 0.0624,-0.0401 0.0644,-0.0401 0.0992,0 0.0717,0.0937 0.15261,0.30141 0.1783,0.45455 0.0335,0.19189 0,0.37453 -0.0919,0.58483 -0.0826,0.18374 -0.11391,0.20982 -0.185,0.16173 -0.0459,-0.0309 -0.0624,-0.0309 -0.10111,0 -0.0644,0.048 -0.0754,0.0427 -0.14334,-0.0585 v -2.7e-4 c -0.0846,-0.12311 -0.15629,-0.36717 -0.15629,-0.52984 0,-0.21009 0.0809,-0.45488 0.19945,-0.61445 0.0184,-0.0236 0.0276,-0.0349 0.0387,-0.0349 z m 0.11391,0.41317 c 0,0 -0.0185,0.0184 -0.0185,0.0315 -0.0237,0.0591 -0.0256,0.31514 0,0.39418 l 0.0185,0.0605 0.0185,-0.0605 c 0.0184,-0.0328 0.0184,-0.11944 0.0184,-0.1917 0,-0.0735 0,-0.15806 -0.0184,-0.19078 0,-0.0256 -0.0185,-0.0401 -0.0185,-0.044 z m 15.95569,0.15622 -0.22238,0.0184 c -0.38656,0.0276 -1.13089,0.19965 -1.02572,0.23565 0.0204,0 0.10472,0.0276 0.19152,0.0421 0.1999,0.0387 0.58658,0.17094 0.78913,0.27205 0.18474,0.0919 0.17462,0.0974 0.21601,-0.1917 0.0185,-0.10295 0.0335,-0.23138 0.0387,-0.2821 z m -15.14086,0.56091 c 0.0532,0 0.1176,0 0.20084,0.0184 0.1526,0.0184 0.38103,0.0197 0.50953,0.0184 h 0.23374 v 0.24321 c 0,0.13415 0.0184,0.3267 0.0276,0.42912 0.0513,0.33492 -0.0401,0.68389 -0.25753,0.97907 l -0.0845,0.11575 0.0845,0.11214 c 0.18204,0.23782 0.2934,0.59199 0.26804,0.84892 0,0.0735 -0.0204,0.28434 -0.0276,0.47052 l -0.0185,0.3386 h -0.24301 c -0.13415,0 -0.35593,0 -0.49456,0.0184 -0.17462,0.0184 -0.29405,0.0184 -0.38984,-0.0184 -0.1599,-0.0328 -0.42433,-0.15998 -0.54455,-0.26082 l -0.0827,-0.0699 -0.12318,0.0919 c -0.13592,0.10287 -0.30009,0.18191 -0.47912,0.22881 -0.13599,0.0349 -0.47399,0.0387 -0.63554,0 v 0 c -0.0591,-0.0184 -0.2049,-0.0184 -0.32362,-0.0184 l -0.216,0.0184 v -0.28176 c 0,-0.15439 0,-0.40601 -0.0184,-0.55783 0,-0.22291 0,-0.30088 0.0387,-0.40764 0.0605,-0.1783 0.11583,-0.2836 0.21706,-0.41592 l 0.0846,-0.11214 -0.10662,-0.14335 c -0.1875,-0.25471 -0.27363,-0.57182 -0.23966,-0.88204 0.0185,-0.1011 0.0204,-0.31001 0.0223,-0.46407 v -0.27954 h 0.23984 c 0.13232,0 0.3639,0 0.51532,-0.0185 0.22422,-0.0184 0.30425,-0.0184 0.42532,0.0185 0.1783,0.0459 0.33892,0.12312 0.48503,0.23723 l 0.10663,0.0828 0.10662,-0.0828 c 0.14697,-0.11208 0.31186,-0.19223 0.48904,-0.23795 0.0753,-0.0204 0.13599,-0.0276 0.22442,-0.0276 z m 14.6036,0.20366 0.1103,0.15254 c 0.16174,0.22659 0.35088,0.62746 0.44075,0.92868 0.0185,0.0387 0.21798,-0.10105 0.40508,-0.27054 l 0.11944,-0.10839 -0.1084,-0.0974 c -0.1507,-0.136 -0.45619,-0.33689 -0.73257,-0.48267 z m -0.56315,0.0184 c 0.0184,0 0.0223,0.0316 0.0316,0.0699 0.0185,0.0532 0.0335,0.0734 0.0845,0.0846 0.0387,0.0184 0.0717,0.0236 0.0717,0.0387 0,0.0532 -0.13231,0.27368 -0.22126,0.37196 l -0.0974,0.10656 0.0955,0.10111 c 0.1011,0.10662 0.18197,0.23158 0.21061,0.32349 0.0185,0.044 0,0.0591 -0.0551,0.079 -0.0441,0.0184 -0.0771,0.0459 -0.0864,0.0828 -0.0185,0.0716 -0.044,0.0735 -0.17463,0.0185 -0.16352,-0.0809 -0.15984,-0.0624 -0.13599,-0.62806 l 0.0204,-0.50926 0.1195,-0.0644 c 0.0644,-0.0349 0.12679,-0.0644 0.13605,-0.0644 z m -13.96352,0.0735 c -0.0699,0 -0.13784,0.0184 -0.21962,0.0328 -0.16904,0.044 -0.30122,0.11024 -0.40837,0.20399 l -0.0827,0.0717 0.0624,0.15077 c 0.0538,0.13047 0.0644,0.18376 0.0644,0.40173 0,0.21706 -0.0184,0.27185 -0.0624,0.39752 l -0.0624,0.14519 0.0735,0.0316 c 0.0401,0.0185 0.11398,0.044 0.15806,0.0644 0.14519,0.0585 0.39536,0.0328 0.5799,-0.0572 0.18999,-0.0937 0.31074,-0.22073 0.41204,-0.43432 0.0699,-0.14886 0.0735,-0.17645 0.0735,-0.42636 0,-0.14709 -0.0184,-0.27644 -0.0184,-0.28676 -0.0184,-0.0185 -0.13783,0.0993 -0.28138,0.2432 l -0.26245,0.26167 -0.0956,-0.0937 c -0.0538,-0.0513 -0.0956,-0.10478 -0.0956,-0.11944 0,-0.0184 0.11392,-0.13973 0.2549,-0.28032 l 0.25477,-0.25562 -0.12318,-0.0256 c -0.0827,-0.0184 -0.15248,-0.0276 -0.22146,-0.0236 z m -1.81498,0 c -0.0624,0 -0.12311,0 -0.18007,0.0184 l -0.14151,0.0295 0.26029,0.26114 0.26041,0.26102 -0.10662,0.10846 -0.10662,0.10847 -0.26818,-0.26746 -0.26791,-0.26738 -0.0184,0.16168 c -0.0585,0.53299 0.15806,0.91619 0.60874,1.08326 0.14151,0.0532 0.39536,0.0295 0.58502,-0.0532 l 0.16174,-0.0699 0.079,-0.18014 c 0.13789,-0.32086 0.0882,-0.63186 -0.13968,-0.88531 -0.16909,-0.18743 -0.4573,-0.30509 -0.72508,-0.30766 z m 0.33216,0.70361 0.0956,0.0937 0.0956,0.0937 -0.1011,0.10295 c -0.0552,0.0591 -0.10663,0.10295 -0.11398,0.10295 -0.0184,0 -0.0532,-0.0401 -0.10289,-0.0919 l -0.0882,-0.0919 0.10846,-0.10471 z m 1.17517,0 0.10846,0.10479 0.1084,0.10471 -0.0882,0.0919 c -0.0499,0.0499 -0.0937,0.0919 -0.10294,0.0919 0,0 -0.0591,-0.046 -0.11399,-0.10295 l -0.10103,-0.10295 0.0955,-0.0937 z m 15.02234,0.20839 c -0.0184,0 -0.0349,0.0754 -0.0717,0.24517 -0.044,0.21102 -0.17088,0.55158 -0.27843,0.75341 -0.0387,0.0717 -0.0661,0.13415 -0.0644,0.13598 0.0185,0.0184 0.44634,0.0772 0.53969,0.079 0.0937,0 0.10289,0 0.10289,-0.0591 0,-0.24018 -0.0846,-0.74932 -0.17278,-1.02794 -0.0256,-0.0827 -0.0401,-0.12686 -0.0552,-0.12686 z m -17.90055,0.25719 c 0.21673,0 0.37736,0.0421 0.53484,0.14145 0.11398,0.0735 0.11398,0.0735 0.0753,0.13422 -0.0361,0.0552 -0.0361,0.0644 0,0.1176 0.0388,0.0585 0.0388,0.0604 -0.0532,0.12133 -0.23946,0.15807 -0.59764,0.20175 -0.87579,0.10663 v 0 c -0.079,-0.0256 -0.18192,-0.0736 -0.23408,-0.10847 -0.0937,-0.0572 -0.0937,-0.0604 -0.0552,-0.11949 0.0349,-0.0532 0.0349,-0.0624 0,-0.11951 -0.0387,-0.0585 -0.0387,-0.0605 0.0513,-0.11943 0.15255,-0.0993 0.35384,-0.15622 0.5573,-0.15622 z m 22.68827,0 h 0.18802 v 0.15065 0.15071 h -0.1783 c -0.17278,0 -0.2329,0.0185 -0.19577,0.0532 0.0184,0.0184 0.0974,0.0184 0.19577,0.0184 h 0.1783 v 0.15071 0.15071 h -0.18586 c -0.12311,0 -0.23401,-0.0185 -0.32584,-0.0499 v 0 c -0.0772,-0.0276 -0.18199,-0.0734 -0.23271,-0.10655 l -0.0937,-0.0591 0.0401,-0.0699 c 0.0387,-0.0661 0.0387,-0.0735 0,-0.11943 -0.042,-0.0459 -0.042,-0.0499 0.0591,-0.11215 0.16542,-0.10472 0.34536,-0.15438 0.55395,-0.15438 z m -18.06775,0 c 0.0846,0 0.14526,0 0.15629,0.0185 0.0185,0.0185 0,0.0624 -0.0361,0.14335 l -0.0605,0.11759 -0.1471,0.0184 c -0.21981,0.0204 -0.2319,0.0532 -0.0316,0.0827 l 0.12135,0.0184 -0.0591,0.13783 c -0.0662,0.15255 -0.0937,0.16352 -0.28119,0.10288 -0.11582,-0.0362 -0.24891,-0.10288 -0.30607,-0.15254 -0.0387,-0.0335 -0.0387,-0.0421 0,-0.0937 0.0335,-0.0513 0.0335,-0.0624 0,-0.1176 -0.0473,-0.0735 -0.0473,-0.0735 0.18382,-0.18467 0.13232,-0.0624 0.19006,-0.0773 0.37952,-0.0846 0.0328,0 0.0624,0 0.0919,0 z m -4.60179,0.29164 c -0.11392,0 -0.24058,0.0223 -0.21799,0.0427 0.044,0.0421 0.21437,0.0591 0.34077,0.0335 0.10295,-0.0223 0.0937,-0.0499 -0.0223,-0.0698 -0.0276,0 -0.0624,0 -0.10104,0 z m -1.40872,0.22204 c 0.0185,0 0.0237,0.0624 0.0335,0.12495 0.0223,0.15991 0.13415,0.40877 0.26357,0.59147 0.0605,0.0845 0.26928,0.30358 0.46367,0.48595 0.46757,0.43812 0.59147,0.56735 0.70894,0.73921 0.21377,0.31245 0.2953,0.62234 0.27421,1.04153 -0.0335,0.68556 -0.38196,1.16821 -1.0039,1.3952 -0.19111,0.0698 -0.56611,0.1415 -0.7444,0.1415 -0.0846,0 -0.09,0 -0.13409,-0.12497 -0.0388,-0.10473 -0.0883,-0.26468 -0.16542,-0.53334 -0.0184,-0.0442 -0.0184,-0.0459 0.0309,-0.0182 0.10111,0.0846 0.10472,0.0827 0.10472,-0.10843 v -0.18195 h -0.0716 c -0.0591,0 -0.0736,-0.0182 -0.0736,-0.0531 0,-0.0293 -0.0223,-0.0772 -0.0513,-0.10662 -0.0532,-0.0553 -0.0901,-0.19632 -0.0919,-0.33891 v -0.079 l 0.10294,0.0514 c 0.0552,0.0276 0.12128,0.068 0.14335,0.0882 0.0387,0.0332 0.042,0.0276 0.042,-0.1342 v -0.17091 h -0.0661 c -0.0532,0 -0.0735,-0.0185 -0.0974,-0.0827 -0.0185,-0.0459 -0.0624,-0.10294 -0.1011,-0.12496 -0.0661,-0.0387 -0.0717,-0.0499 -0.0717,-0.20437 0,-0.0901 0,-0.16175 0.0184,-0.16175 0.0276,0 0.1691,0.079 0.24466,0.13606 l 0.0772,0.0585 v -0.19302 -0.19314 h -0.0717 c -0.0388,0 -0.0718,-0.0185 -0.0718,-0.0236 0,-0.0185 -0.0388,-0.046 -0.0845,-0.0735 -0.0901,-0.0538 -0.0974,-0.0864 -0.068,-0.26732 0.0185,-0.079 0.0223,-0.0882 0.0644,-0.0753 0.0276,0.0184 0.0919,0.0401 0.14151,0.0734 l 0.0901,0.0585 v -0.58167 -0.58187 l -0.0441,0.0827 c -0.0256,0.0459 -0.0459,0.0735 -0.0459,0.0605 0,-0.0827 0.23578,-0.73613 0.26252,-0.71938 z m 2.48744,0 -0.0919,0.10479 c -0.16726,0.18743 -0.23815,0.47393 -0.20274,0.80733 l 0.0184,0.16182 0.2681,-0.26765 0.26817,-0.26725 0.10656,0.10846 0.10663,0.10846 -0.26055,0.26128 -0.26068,0.2614 0.10478,0.0236 c 0.15439,0.0328 0.27849,0.0328 0.44824,-0.0184 v 1.3e-4 c 0.18014,-0.042 0.27054,-0.0864 0.40515,-0.19499 l 0.10104,-0.0826 -0.0572,-0.12501 c -0.11398,-0.24866 -0.12686,-0.58686 -0.0335,-0.7668 0.0263,-0.0513 0.0184,-0.0513 -0.13415,0 -0.20418,0.0624 -0.44108,0.0387 -0.67069,-0.0644 z m 2.38397,0 -0.16174,0.0644 c -0.23893,0.0955 -0.45705,0.10478 -0.6701,0.0309 -0.0919,-0.0335 -0.18671,-0.0661 -0.20989,-0.0772 -0.0335,-0.0184 -0.0538,0 -0.10841,0.12318 -0.13421,0.28814 -0.0717,0.62707 0.16352,0.88203 0.11031,0.11944 0.33085,0.24071 0.50271,0.27652 0.11392,0.0223 0.39312,0.0185 0.47735,-0.0185 0.044,-0.0184 0.0223,-0.044 -0.20163,-0.26961 -0.13789,-0.13782 -0.25181,-0.26225 -0.25181,-0.27605 0,-0.0185 0.044,-0.068 0.0955,-0.11944 l 0.0956,-0.0937 0.26266,0.26167 c 0.14335,0.14335 0.27132,0.25346 0.28144,0.24321 0.0185,-0.0185 0.0185,-0.13967 0.0185,-0.28801 0,-0.26153 0,-0.27369 -0.0882,-0.44805 -0.048,-0.0975 -0.11391,-0.20425 -0.14886,-0.23473 z m 16.90092,0.14519 0.10294,0.0864 c 0.231,0.19683 0.45948,0.54324 0.55836,0.84709 l 0.0427,0.12685 0.0624,-0.0427 c 0.3089,-0.20333 0.69092,-0.41579 0.74781,-0.41579 0.0204,0 0.0237,0.14151 0.0185,0.49902 l -0.0185,0.49903 0.18014,-0.0532 c 0.19282,-0.0591 0.55198,-0.12679 0.58154,-0.11214 0.0184,0 0.0184,0.0349 0.0184,0.068 0,0.0473 0.0185,0.0591 0.068,0.0591 0.0387,0 0.0735,0 0.079,0.0184 0,0 0,0.10479 -0.0184,0.2187 -0.0919,1.03404 -0.83512,1.89845 -1.86661,2.16677 -0.26738,0.0699 -0.74841,0.0864 -1.01474,0.0387 -1.06506,-0.20163 -1.85775,-1.01546 -2.01897,-2.07335 -0.0513,-0.33768 -0.0499,-0.35969 0.0349,-0.35969 0.0591,0 0.0735,-0.0184 0.0845,-0.0735 0.0185,-0.068 0.0223,-0.0717 0.10294,-0.0591 0.24407,0.0401 0.47637,0.0919 0.58779,0.12863 l 0.12495,0.044 v -0.48628 c 0,-0.26784 0,-0.49351 0.0185,-0.50199 0.0204,-0.0204 0.34189,0.14341 0.60322,0.30804 0.1783,0.11399 0.21286,0.12687 0.22351,0.0919 0.10655,-0.3457 0.27749,-0.62898 0.52234,-0.86443 z m -18.70302,0.0644 0.1084,0.10479 0.10846,0.10471 -0.0882,0.0919 c -0.0499,0.0499 -0.0937,0.0919 -0.10287,0.0919 0,0 -0.0585,-0.0459 -0.11399,-0.10294 l -0.10111,-0.10295 0.0956,-0.0937 z m 1.2226,0 0.0956,0.0937 0.0956,0.0937 -0.1011,0.10295 c -0.0552,0.0572 -0.10662,0.10294 -0.11398,0.10294 0,0 -0.0532,-0.0401 -0.10288,-0.0919 l -0.0882,-0.0919 0.10847,-0.10471 z m 17.32472,0.52543 -0.0753,0.13232 c -0.0846,0.14893 -0.17646,0.39995 -0.17646,0.49021 0,0.0427 0.0538,0.11208 0.19775,0.25155 0.1084,0.10479 0.20438,0.18954 0.21227,0.18665 0,0 0.10662,-0.092 0.22112,-0.19722 l 0.20636,-0.19249 -0.0328,-0.1507 c -0.0335,-0.15071 -0.18013,-0.46769 -0.22671,-0.4966 -0.0185,-0.0184 -0.0237,0.0661 -0.0237,0.22593 v 0.2413 h -0.14151 -0.14334 v -0.24596 z m -21.61663,0.0809 v 0.41191 c 0,0.32066 0,0.40929 0.0295,0.39917 0.0185,0 0.11209,-0.0473 0.20984,-0.0901 0.0974,-0.0421 0.18638,-0.0863 0.19485,-0.10111 0.0316,-0.0473 -0.0184,-0.12863 -0.13415,-0.25779 -0.0699,-0.0735 -0.16542,-0.18402 -0.21285,-0.2476 z m 20.54198,0.40087 0.0185,0.27474 c 0.0184,0.15255 0.0223,0.32092 0.0316,0.37663 0.0184,0.0882 0.0184,0.10289 -0.0335,0.12128 -0.0388,0.0184 0.0276,0.0473 0.3093,0.15807 l 0.35929,0.13967 0.22698,0.22316 c 0.12502,0.12312 0.22724,0.23375 0.22724,0.24663 0,0.0184 -0.0499,0.0624 -0.11037,0.1103 l -0.11024,0.0845 -0.15806,-0.16914 c -0.20222,-0.21423 -0.51131,-0.44693 -0.776,-0.5839 -0.2277,-0.1176 -0.63869,-0.26279 -0.81949,-0.28887 l -0.11582,-0.0184 0.0185,0.0937 c 0.0624,0.37105 0.15799,0.6251 0.33057,0.89195 0.30898,0.47786 0.80872,0.82356 1.37147,0.94892 0.2461,0.0531 0.80104,0.037 1.04247,-0.0332 0.49061,-0.14149 0.92762,-0.463 1.22122,-0.8958 0.16903,-0.2485 0.33754,-0.70941 0.33754,-0.92116 0,-0.0809 0,-0.0827 -0.079,-0.0661 -0.87618,0.17639 -1.68489,0.7875 -2.07966,1.57067 -0.0295,0.0588 -0.0591,0.11215 -0.0624,0.11761 -0.0185,0.0182 -0.27369,-0.0937 -0.27369,-0.10844 0,-0.0643 0.27573,-0.50875 0.43931,-0.70943 0.0624,-0.0753 0.11208,-0.15071 0.11208,-0.16726 0,-0.0499 -0.22094,-0.37822 -0.36369,-0.5418 -0.22607,-0.25825 -0.57675,-0.54514 -0.98886,-0.80904 z m 2.46563,0.0184 c -0.0387,0 -0.24478,0.13598 -0.46368,0.2972 -0.1875,0.13783 -0.55579,0.47807 -0.55579,0.51315 0,0.0184 0.0499,0.0956 0.11024,0.18711 l 0.11024,0.16542 0.13421,-0.11031 c 0.0735,-0.0605 0.19939,-0.15254 0.27718,-0.20214 0.11759,-0.0754 0.16351,-0.0919 0.27585,-0.0937 0.0735,0 0.11398,0 0.0901,-0.0184 -0.0328,-0.0185 -0.0401,-0.0276 -0.0316,-0.0644 0.0223,-0.0809 0.0699,-0.66418 0.0552,-0.67779 0,0 0,0 0,0 z m -19.44571,0.211 0.0591,0.044 c 0.0532,0.0401 0.0624,0.0427 0.10111,0 0.0604,-0.0532 0.10472,-0.0236 0.17462,0.11207 0.0955,0.19039 0.1415,0.39504 0.12311,0.57163 -0.0185,0.1599 -0.10479,0.40803 -0.1783,0.50526 -0.044,0.0552 -0.044,0.0552 -0.10846,0.0185 -0.0591,-0.0387 -0.0661,-0.0387 -0.10656,0 -0.0236,0.0223 -0.0499,0.0401 -0.0572,0.0401 -0.0184,0 -0.044,-0.0499 -0.079,-0.10847 -0.0919,-0.15438 -0.15439,-0.37636 -0.15439,-0.53844 0,-0.16917 0.0717,-0.40824 0.16175,-0.54409 z m -2.84693,0.11945 -0.0699,0.079 c -0.0441,0.0513 -0.14152,0.10847 -0.27934,0.16543 -0.11582,0.048 -0.24577,0.11023 -0.28874,0.13421 -0.0754,0.046 -0.0772,0.0532 -0.0772,0.20379 0,0.0846 0,0.15623 0.0185,0.15623 0,0 0.0532,-0.0203 0.10295,-0.044 0.0499,-0.0236 0.24209,-0.0956 0.42933,-0.15806 0.32749,-0.10847 0.46296,-0.17823 0.46296,-0.2369 0,-0.0184 -0.0661,-0.0901 -0.1452,-0.16358 z m 2.96748,0.29687 c 0,0 -0.0184,0 -0.0184,0.0236 -0.0237,0.0585 -0.0263,0.3154 0,0.39444 l 0.0184,0.0604 0.0185,-0.0604 c 0.0184,-0.0328 0.0184,-0.11031 0.0204,-0.17094 0,-0.0605 0,-0.14703 -0.0185,-0.19079 0,-0.0387 -0.0185,-0.0552 -0.0185,-0.0591 z m 28.65541,0.23171 c -0.38103,0 -0.80865,0.0296 -1.32233,0.0937 -0.65012,0.0809 -0.80654,0.12312 -0.89312,0.23986 -0.0401,0.0532 -0.0427,0.0753 -0.0185,0.16173 0.0335,0.12313 0.0295,0.11951 0.61235,0.32735 1.12721,0.40102 2.01732,0.79747 2.69484,1.20033 0.18375,0.10843 0.43458,0.32458 0.43458,0.37273 0,0.0497 -0.573,0 -1.18712,-0.0882 -0.45856,-0.0717 -1.1165,-0.21997 -1.78115,-0.40396 -0.57701,-0.1599 -0.86968,-0.22992 -0.96152,-0.22992 -0.15991,0 -0.26673,0.0845 -0.26673,0.21317 0,0.15443 0.72805,0.90574 1.259,1.29739 0.75484,0.5571 1.70868,1.01473 2.4538,1.17722 0.17462,0.0387 0.28105,0.0442 0.67549,0.0349 0.65886,-0.0182 1.22332,-0.11396 2.1338,-0.37588 0.84531,-0.24369 1.12721,-0.39606 1.12721,-0.60835 0,-0.23909 -0.56387,-1.01933 -1.30308,-1.80226 -0.64711,-0.68556 -1.48945,-1.2037 -2.33661,-1.43692 -0.41795,-0.11392 -0.83032,-0.17271 -1.32035,-0.17462 z m -31.11493,0.0349 c -0.0204,0 -0.0513,0.0203 -0.11398,0.0624 -0.0698,0.0473 -0.26187,0.1268 -0.46453,0.19447 -0.40167,0.13415 -0.56381,0.21318 -0.61098,0.30529 -0.0184,0.0349 -0.0328,0.12863 -0.0328,0.20952 v 0.14331 l 0.12501,-0.0588 c 0.0699,-0.0316 0.28486,-0.10108 0.47932,-0.15436 0.52603,-0.14335 0.71353,-0.24466 0.75301,-0.4018 0.0185,-0.0591 -0.0328,-0.18986 -0.0974,-0.27677 -0.0185,-0.0184 -0.0223,-0.0276 -0.0387,-0.0236 z m 16.07289,0.0532 0.12317,0.13973 c 0.60027,0.68423 0.93223,0.89486 1.47146,0.93421 l 0.19774,0.0182 v 0.15255 0.15253 h -0.13231 c -0.32388,0 -0.69966,0.14337 -0.97755,0.37235 -0.0864,0.0717 -0.31028,0.29685 -0.49738,0.50102 -0.18691,0.20421 -0.41461,0.43065 -0.50579,0.50322 -0.20793,0.16542 -0.46224,0.29204 -0.67983,0.33763 -0.18382,0.0387 -0.52537,0.0442 -0.72857,0.0182 v 0 c -0.0717,-0.0182 -0.21653,-0.0553 -0.32348,-0.0993 l -0.19465,-0.0772 v -0.18597 c 0,-0.1851 0,-0.21246 0.0661,-0.15626 0.0276,0.0238 0.0295,0.0221 0.0184,-0.0182 -0.0459,-0.11949 -0.0388,-0.14337 0.0827,-0.23434 0.0644,-0.0497 0.12312,-0.0827 0.1287,-0.0717 0,0.0182 0.0237,0.0625 0.0401,0.11397 0.0513,0.16172 0.16542,0.36886 0.22159,0.40451 0.0295,0.0182 0.12686,0.0403 0.21521,0.0497 l 0.16182,0.0182 -0.0937,-0.17459 c -0.0538,-0.0956 -0.12686,-0.29221 -0.1691,-0.43597 l -0.0753,-0.26153 0.12128,-0.12132 c 0.0661,-0.0661 0.12502,-0.11578 0.13054,-0.11026 0,0 0.044,0.14154 0.0864,0.29868 0.17278,0.64233 0.31922,0.79675 0.59894,0.63409 l 0.12864,-0.0735 -0.0585,-0.0625 c -0.0846,-0.0919 -0.12686,-0.18195 -0.26081,-0.57618 -0.0644,-0.19316 -0.14151,-0.38632 -0.16727,-0.42955 l -0.0473,-0.079 0.0919,-0.1011 c 0.26869,-0.29883 0.24445,-0.2812 0.39313,-0.2812 0.17094,0 0.18191,-0.0182 0.32236,-0.33653 0.0644,-0.15254 0.13606,-0.27637 0.18015,-0.31573 0.0699,-0.0624 0.0717,-0.0644 0.0276,-0.11766 -0.044,-0.0532 -0.042,-0.0551 0.0408,-0.18192 z m 15.07076,0.29945 c 1.36515,0.0185 2.50268,0.55888 3.51157,1.6736 0.45665,0.50488 0.988,1.19541 0.988,1.28418 0,0.09 -1.29572,0.46093 -2.0664,0.59236 -0.40561,0.0698 -1.00987,0.0974 -1.25105,0.0588 -0.64401,-0.10291 -1.68687,-0.5931 -2.41301,-1.13583 -0.25509,-0.19062 -0.77948,-0.65837 -0.75964,-0.67787 0,0 0.16543,0.0332 0.35457,0.0846 1.20012,0.33123 1.9488,0.47255 2.80264,0.52932 0.20439,0.0182 0.45127,0.0316 0.54864,0.0386 l 0.17646,0.0182 -0.0185,-0.27197 c -0.0184,-0.22224 -0.0223,-0.2915 -0.0644,-0.37788 -0.0698,-0.13419 -0.24058,-0.30182 -0.45029,-0.44094 -0.48739,-0.32332 -1.64771,-0.86827 -2.4586,-1.15494 -0.14334,-0.0499 -0.25785,-0.0993 -0.25785,-0.10846 0,-0.0204 0.39996,-0.0624 0.91994,-0.0974 0.14519,-0.0185 0.28998,-0.0185 0.43129,-0.0185 z m -30.89933,0.31868 -0.0736,0.0532 c -0.12128,0.0864 -0.31357,0.16177 -0.65263,0.25473 -0.42643,0.11767 -0.56131,0.16913 -0.65965,0.25623 -0.0809,0.0699 -0.0827,0.0753 -0.0827,0.25822 v 0.1862 l 0.17455,-0.0901 c 0.0957,-0.0497 0.35719,-0.15254 0.58082,-0.22605 0.44404,-0.14883 0.63154,-0.23688 0.65952,-0.31204 0.0184,-0.0276 0.0276,-0.12315 0.0349,-0.21396 z m 15.92198,0.0185 c -0.0204,0 -0.0349,0 -0.048,0.0223 -0.0185,0.0184 -0.0644,0.11949 -0.1084,0.22831 l -0.0827,0.19704 h 0.40764 0.40745 l -0.12863,-0.0974 c -0.0717,-0.0531 -0.18198,-0.15072 -0.2478,-0.21317 -0.0919,-0.0864 -0.15433,-0.12867 -0.1988,-0.13419 z m -0.83203,0.61388 c -0.0992,0 -0.18014,0 -0.18014,0.0182 0,0 0.0349,0.0625 0.079,0.12867 0.0459,0.068 0.1287,0.26518 0.19486,0.46387 0.2047,0.61426 0.22678,0.63283 0.45198,0.38268 l 0.1084,-0.12131 -0.0772,-0.0772 c -0.044,-0.0442 -0.1195,-0.17825 -0.1783,-0.32089 -0.0552,-0.1342 -0.1287,-0.26778 -0.1599,-0.2979 -0.0328,-0.0316 -0.0591,-0.0809 -0.0591,-0.11214 0,-0.0531 0,-0.0553 -0.18015,-0.0553 z m 1.08162,0 c -0.31357,0 -0.56611,0.0182 -0.56112,0.0182 0.0473,0.0937 0.16726,0.35251 0.20714,0.4437 0.0699,0.16172 0.13232,0.15619 0.32809,-0.0276 0.18467,-0.17277 0.27001,-0.23837 0.45343,-0.34869 l 0.14328,-0.0845 z m -13.22906,0.0481 c 0.0349,0 0.0808,0.0182 0.15249,0.0276 l 0.0901,0.0238 v 0.47603 0.47603 h 0.18198 c 0.18381,0 0.24577,0.0182 0.38609,0.0531 0.0699,0.0221 0.0736,0.0276 0.0532,0.0846 -0.0237,0.0625 0,0.10108 0.068,0.10291 0.0185,0 0.0295,0.0182 0.0295,0.0238 0,0.0459 -0.11392,0.25031 -0.21318,0.38246 -0.0538,0.0735 -0.0956,0.13966 -0.0937,0.14701 0,0.0182 0.0919,0.0772 0.19407,0.15072 0.10294,0.0735 0.25161,0.19062 0.3294,0.25915 l 0.1415,0.12314 -0.0513,0.0531 c -0.0513,0.0531 -0.0513,0.0553 0,0.10478 0.044,0.0514 0.044,0.0514 -0.11398,0.19942 -0.0882,0.0827 -0.23907,0.20217 -0.33649,0.26794 l -0.17639,0.11767 0.11391,0.15436 c 0.0624,0.0846 0.13967,0.20146 0.1691,0.25844 0.0539,0.10109 0.0539,0.10291 0.0184,0.13784 -0.0236,0.0182 -0.0552,0.0365 -0.0699,0.042 -0.0184,0 -0.0184,0.0293 0,0.0625 0.0237,0.0442 0.0223,0.0607 0,0.0754 -0.0513,0.031 -0.31396,0.0698 -0.47327,0.0698 h -0.14887 v 0.47658 0.47698 l -0.10655,0.0276 c -0.12871,0.0332 -0.2051,0.0332 -0.2051,0 0,-0.0182 -0.0473,-0.0514 -0.10664,-0.0846 -0.0845,-0.0514 -0.16725,-0.0699 -0.41394,-0.0974 -0.16911,-0.0199 -0.36133,-0.0459 -0.42802,-0.0588 -0.14892,-0.0293 -0.45026,-0.19774 -0.96985,-0.54052 -0.48583,-0.32073 -0.78967,-0.56132 -0.84532,-0.66992 -0.0236,-0.0442 -0.0644,-0.17647 -0.0937,-0.29259 -0.0734,-0.30348 -0.0734,-1.05022 0,-1.35144 0.0624,-0.25915 0.14342,-0.44187 0.27809,-0.63244 0.35896,-0.50322 0.98004,-0.80555 1.8718,-0.91183 0.45908,-0.0531 0.5418,-0.0753 0.64763,-0.16171 0.0538,-0.0442 0.0846,-0.0643 0.12863,-0.0661 z m -3.23866,0.20637 c -0.046,0 -0.15991,0.0403 -0.35069,0.10478 -0.50191,0.17095 -0.71457,0.27663 -0.77113,0.38247 -0.0223,0.0403 -0.0185,0.0403 0.18007,0.0182 0.11207,-0.0182 0.25897,-0.0475 0.32827,-0.0717 0.19538,-0.0625 0.37881,-0.16359 0.50396,-0.27425 0.12311,-0.10843 0.17094,-0.15806 0.11031,-0.15254 z m 3.12909,0.0221 -0.10288,0.0827 c -0.21233,0.17277 -0.23572,0.184 -0.42827,0.20124 -0.25826,0.0238 -0.63738,0.0993 -0.8396,0.16729 -0.41079,0.13967 -0.78388,0.40396 -0.96158,0.68113 -0.0735,0.11579 -0.19446,0.40784 -0.19446,0.47249 0,0.0238 0.0624,0 0.18585,-0.0937 0.10288,-0.0717 0.25319,-0.16353 0.3357,-0.20471 0.20386,-0.10291 0.33696,-0.15442 0.7854,-0.30674 0.21101,-0.0717 0.45362,-0.16913 0.53943,-0.21671 0.21397,-0.11762 0.46814,-0.38064 0.58574,-0.60526 z m 0.0401,0.55064 -0.10841,0.12497 c -0.13053,0.14883 -0.3577,0.32326 -0.54369,0.41722 -0.0735,0.0387 -0.31764,0.12861 -0.53963,0.204 -0.44476,0.15072 -0.71733,0.26778 -0.92966,0.40363 -0.14335,0.0937 -0.39673,0.31685 -0.39673,0.35284 0,0.0293 0.99351,0.0238 1.21372,0 0.35253,-0.0497 0.65394,-0.20235 0.89971,-0.45724 0.22895,-0.2375 0.40285,-0.63892 0.4039,-0.93129 z m 16.91727,0.20787 c 0.0459,0.0182 0.36133,0.3661 0.51775,0.58259 0.0753,0.10478 0.15254,0.21102 0.17088,0.23435 0.0295,0.0403 0.044,0.0403 0.28288,0 0.26889,-0.0387 0.82855,-0.0497 0.84859,-0.0182 0.0316,0.0514 -0.0644,0.90497 -0.11766,1.04154 0,0.0182 0.0754,0.0919 0.19893,0.17829 0.2348,0.16542 0.58147,0.47527 0.58147,0.51904 0,0.0531 -0.5027,0.47968 -0.80845,0.68683 -0.0532,0.0349 -0.0532,0.0365 -0.0185,0.27567 0.0204,0.13232 0.0349,0.3073 0.0349,0.38982 v 0.15072 h -0.14335 c -0.10662,0 -0.14341,-0.0182 -0.14341,-0.0332 0,-0.0993 -0.0552,-0.55158 -0.0845,-0.69733 -0.0513,-0.24462 -0.13416,-0.51649 -0.15433,-0.504 -0.0185,0 -0.0237,0.0662 -0.0335,0.13419 -0.0295,0.22572 -0.20957,0.71844 -0.3673,1.00701 0,0.0182 0.0421,0.0276 0.10662,0.0403 0.0974,0.0221 0.0735,0.0238 -0.16904,0.0182 -0.15622,0 -0.28932,-0.0182 -0.29425,-0.0204 0,0 0.0387,-0.0993 0.0974,-0.21047 0.0591,-0.11214 0.10847,-0.20842 0.10847,-0.21671 0,-0.0182 -0.0846,0.0425 -0.19059,0.11214 -0.10479,0.0698 -0.26264,0.16172 -0.35088,0.20416 -0.15438,0.0735 -0.16725,0.0754 -0.36724,0.0607 -0.11398,-0.0182 -0.26626,-0.0293 -0.33834,-0.0459 l -0.1323,-0.0293 0.22087,-0.068 c 0.12318,-0.0387 0.21633,-0.0754 0.21042,-0.0846 0,-0.0182 -0.068,-0.0238 -0.13783,-0.0332 -0.16174,-0.0204 -0.55559,-0.15072 -0.78296,-0.26105 -0.0974,-0.0459 -0.19111,-0.079 -0.20825,-0.0735 -0.0368,0.0182 -0.23855,-0.26777 -0.39287,-0.5508 l -0.10662,-0.19666 0.15439,0.12315 c 0.21298,0.16724 0.66681,0.44198 0.72889,0.44198 0,0 -0.0349,-0.068 -0.0937,-0.15066 -0.13054,-0.18731 -0.29964,-0.52384 -0.38623,-0.76719 -0.0349,-0.10291 -0.0717,-0.18582 -0.0808,-0.18582 -0.0184,0 -0.1103,0.0699 -0.22494,0.15625 l -0.21009,0.15619 -0.0644,-0.13049 c -0.0773,-0.15806 -0.0828,-0.14884 0.21003,-0.34919 0.11766,-0.0809 0.21358,-0.15989 0.21358,-0.17459 0,-0.0182 -0.0184,-0.11396 -0.0349,-0.22074 -0.0204,-0.1048 -0.0427,-0.32366 -0.0513,-0.48488 -0.0185,-0.24976 -0.0185,-0.29514 0.0204,-0.30708 0.0532,-0.0204 0.68061,0.031 0.89859,0.0735 l 0.18743,0.0387 0.0473,-0.0643 c 0.2547,-0.34388 0.33885,-0.45028 0.46807,-0.59127 0.0828,-0.09 0.16365,-0.15989 0.18015,-0.15619 z m -6.27415,0.28597 c 0.0223,0 0.0276,0.0531 0.0276,0.17276 v 0.17642 l -0.11024,0.0553 c -0.18402,0.0919 -0.39312,0.14518 -0.63264,0.15989 -0.12502,0.0182 -0.2218,0.0182 -0.2145,0 v 0 c 0,-0.0182 0.11214,-0.0735 0.23125,-0.14519 0.11759,-0.0735 0.31061,-0.19648 0.42439,-0.27607 0.11208,-0.079 0.20595,-0.13231 0.20595,-0.11578 0,0.0221 0,0.0221 0.0295,0 0.0184,-0.0182 0.0295,-0.0276 0.0401,-0.0276 z m -10.23956,0.0238 c -0.0184,0 -0.0367,0 -0.0532,0 -0.11582,0 -0.11767,0.0182 -0.16181,0.12685 -0.0236,0.0643 -0.0421,0.12132 -0.0401,0.12314 0.0204,0.0204 0.24958,0.10108 0.26929,0.0956 0.0184,0 0.0753,-0.0698 0.13782,-0.14702 0.0624,-0.0772 0.11392,-0.14888 0.11392,-0.15807 0,-0.0238 -0.14334,-0.0442 -0.26797,-0.0419 z m 16.50339,0.11768 c -0.0289,0 -0.28932,0.34222 -0.40599,0.53317 -0.0919,0.14885 -0.26758,0.48317 -0.26758,0.50671 0,0 0.0882,-0.0497 0.19794,-0.12314 0.1084,-0.0735 0.27329,-0.16724 0.3656,-0.20952 0.0937,-0.042 0.24333,-0.10291 0.33557,-0.1342 0.0937,-0.031 0.17095,-0.0588 0.1764,-0.0625 0.0276,-0.0182 -0.36482,-0.51151 -0.40194,-0.51151 z m -14.17321,0.35969 c 0.079,0 0.13414,0.0238 0.29424,0.13595 0.27205,0.18787 0.27054,0.184 0.0699,0.16542 l -0.17454,-0.0182 0.0184,0.079 c 0,0.042 0.0184,0.13966 0.0263,0.21119 0.0185,0.0735 0.0236,0.18376 0.0387,0.24533 l 0.0236,0.11397 0.12318,-0.0625 c 0.16543,-0.0846 0.51388,-0.21672 0.62064,-0.23655 0.0846,-0.0182 0.11214,0 0.56004,0.16912 0.0349,0.0182 0,0.0238 -0.10845,0.0403 -0.14887,0.0204 -0.16359,0.0276 -0.30687,0.16912 -0.0828,0.0827 -0.19538,0.20565 -0.24925,0.2753 l -0.0974,0.12684 0.0185,0.3341 c 0.0184,0.25567 0.0223,0.34869 0.0539,0.39517 0.0532,0.0827 0.29977,0.31393 0.4376,0.41186 0.10656,0.0754 0.12318,0.0809 0.31889,0.0809 0.11391,0 0.27566,-0.0182 0.36132,-0.0238 0.15071,-0.0238 0.15991,-0.0276 0.32625,-0.20178 0.0937,-0.0974 0.2055,-0.22953 0.24813,-0.29353 l 0.0772,-0.11579 -0.0184,-0.26375 c -0.0223,-0.3955 -0.0349,-0.4317 -0.21371,-0.60542 -0.0846,-0.0827 -0.1471,-0.15071 -0.13783,-0.15071 0.10655,0 0.54343,0.0809 0.55723,0.10296 0.0185,0.0182 0.0316,0.10844 0.0459,0.20566 0.0309,0.19444 0.0388,0.19151 0.1176,-0.0513 l 0.0532,-0.16178 h 0.27218 0.27218 l 0.1873,0.14336 c 0.10294,0.079 0.25201,0.20163 0.33104,0.27293 l 0.14335,0.13049 -0.1176,0.12866 c -0.15806,0.17095 -0.37072,0.35841 -0.55841,0.49609 -0.14697,0.10844 -0.15432,0.1139 -0.13783,0.19609 0.0459,0.26817 0.0827,0.59365 0.0901,0.80318 v 0.23986 h -0.27585 c -0.15071,0 -0.38708,-0.0221 -0.52307,-0.0442 -0.13599,-0.0238 -0.25017,-0.0387 -0.25333,-0.0332 0,0 -0.042,0.068 -0.0882,0.14155 -0.044,0.0735 -0.14342,0.20913 -0.21929,0.30398 l -0.136,0.17277 H 579.827 c -0.18014,0 -0.23106,0 -0.2729,-0.0332 -0.0276,-0.0221 -0.14342,-0.15436 -0.25241,-0.2937 -0.13414,-0.16906 -0.21305,-0.24937 -0.23761,-0.24202 -0.18566,0.0531 -1.02263,0.15067 -1.05259,0.12126 -0.0236,-0.0238 0,-0.69102 0.0328,-0.88679 0.0349,-0.21539 0.0349,-0.21577 -0.0185,-0.2518 -0.16358,-0.11026 -0.53115,-0.39954 -0.6745,-0.53168 l -0.16542,-0.15255 0.19827,-0.18659 c 0.10846,-0.10291 0.29169,-0.2534 0.40587,-0.33542 l 0.20747,-0.14884 -0.042,-0.20234 c -0.0459,-0.23164 -0.10295,-0.80268 -0.0827,-0.85413 0.0184,-0.0222 0.0473,-0.0332 0.11207,-0.0332 z m -2.73558,0.0588 -0.22094,0.21776 c -0.12495,0.12314 -0.28486,0.25401 -0.37,0.30144 -0.0827,0.0442 -0.1507,0.09 -0.1507,0.0993 0,0.0182 0.0335,0.0293 0.0754,0.0459 0.12857,0.0536 0.43188,0.2963 0.53404,0.42734 0.10847,0.13967 0.13237,0.14149 0.37552,0.0514 0.16358,-0.0625 0.52694,-0.28635 0.69165,-0.42806 l 0.11759,-0.10291 -0.11399,-0.0993 c -0.22073,-0.19133 -0.5795,-0.39976 -0.8162,-0.47381 z m 15.4357,0.16725 c 0,0 0,0 -0.0184,0 -0.044,0.0442 0.10295,0.81825 0.21096,1.10532 l 0.0538,0.14337 0.042,-0.20826 c 0.0236,-0.11396 0.0717,-0.29757 0.1084,-0.40673 0.0349,-0.11026 0.1011,-0.27645 0.14341,-0.37162 0.0427,-0.0956 0.0699,-0.1783 0.0591,-0.18526 -0.0276,-0.0182 -0.53516,-0.0809 -0.6096,-0.0772 z m 2.99599,0.0625 -0.18191,0.0182 c -0.2733,0.0221 -0.61294,0.0809 -0.83828,0.1452 -0.24709,0.0717 -0.30838,0.1029 -0.20602,0.1029 0.18007,0 0.73185,0.1783 1.01507,0.32256 l 0.11214,0.057 0.0295,-0.12314 c 0.0184,-0.068 0.0361,-0.21317 0.0499,-0.32216 z m 1.72787,0.12867 c 0,0 0,0 0,0 0.0184,0 0.0316,0.0735 0.0473,0.14707 0.0185,0.0735 0.0605,0.22566 0.0993,0.3367 0.0368,0.11208 0.0604,0.20178 0.0532,0.20123 -0.0185,0 -0.0992,-0.0735 -0.20136,-0.16172 l -0.18513,-0.15989 0.0513,-0.0531 0.0513,-0.0531 -0.0532,-0.057 -0.0539,-0.057 0.0864,-0.0753 c 0.042,-0.0365 0.0828,-0.0625 0.0993,-0.0643 z m -3.40811,0.39793 c -0.17094,0 -0.18007,0 -0.31612,0.10662 -0.22646,0.17089 -0.39241,0.35416 -0.41796,0.45984 -0.0185,0.0514 -0.0276,0.21743 -0.0349,0.36925 l -0.0185,0.27567 0.11943,0.1562 c 0.0644,0.0846 0.17646,0.21212 0.24761,0.28103 0.14702,0.14338 0.22861,0.16725 0.62155,0.17095 h 0.23026 l 0.15255,-0.11766 v 0 c 0.0846,-0.0642 0.21088,-0.17642 0.28051,-0.24755 0.11576,-0.11944 0.12864,-0.14336 0.14881,-0.28414 0.0185,-0.0846 0.0236,-0.24738 0.0236,-0.36118 v -0.20731 l -0.10479,-0.14149 c -0.0591,-0.0772 -0.16903,-0.20201 -0.2457,-0.27678 -0.13783,-0.1342 -0.14519,-0.13603 -0.32842,-0.16178 -0.10294,-0.0182 -0.26652,-0.0254 -0.36316,-0.0254 z m -19.10954,0 c -0.15439,0 -0.15255,0.0182 -0.13599,0.0425 0.0421,0.079 0.26482,0.26595 0.43747,0.36666 0.2185,0.12684 0.46677,0.23141 0.8838,0.36941 0.54035,0.17829 0.83191,0.34664 1.05758,0.60929 l 0.10478,0.12314 v -0.0937 c 0,-0.0514 -0.0184,-0.16725 -0.0316,-0.25656 -0.12311,-0.52693 -0.52944,-0.94653 -1.0757,-1.10737 -0.0919,-0.0276 -0.28821,-0.0387 -0.76733,-0.0475 -0.23841,0 -0.38839,0 -0.48136,0 z m 10.79948,0.10474 c 0.0387,0 0.0591,0.0182 0.10478,0.0536 0.11399,0.0956 0.19709,0.12314 0.47315,0.15255 0.67614,0.0735 1.12754,0.1983 1.50673,0.42048 l 0.14702,0.0846 v 0.19152 0.1915 l -0.12495,-0.0937 c -0.32697,-0.24407 -0.77199,-0.39678 -1.37652,-0.47178 -0.31022,-0.0387 -0.28722,-0.0293 -0.46145,-0.17642 -0.11391,-0.0974 -0.12679,-0.10297 -0.11208,-0.0497 0.068,0.22273 0.41198,0.5984 0.67207,0.73441 0.079,0.0425 0.33032,0.13785 0.55822,0.21378 0.2279,0.0753 0.40527,0.14702 0.39417,0.15808 -0.0185,0.0182 -0.0882,0.0588 -0.17087,0.10108 l -0.15071,0.0808 -0.30273,-0.10296 c -0.16542,-0.0553 -0.35107,-0.12495 -0.41039,-0.1562 -0.18014,-0.0919 -0.39129,-0.25251 -0.53904,-0.41208 l -0.14158,-0.15254 0.0185,0.16912 c 0.0295,0.32123 0.1764,0.63736 0.41382,0.89431 l 0.15077,0.16172 -0.14703,0.0643 -0.14518,0.0643 -0.0661,-0.0643 c -0.0388,-0.0349 -0.0919,-0.10109 -0.12133,-0.14332 -0.0624,-0.0937 -0.0901,-0.0919 -0.36094,0.0204 -0.16725,0.068 -0.55086,0.31266 -0.70872,0.45033 l -0.0809,0.0698 0.0624,0.0403 c 0.0335,0.0221 0.0624,0.0475 0.0624,0.0588 0,0.0204 -0.23874,0.0975 -0.30417,0.0975 -0.0276,0 -0.068,-0.0221 -0.0918,-0.0481 -0.0421,-0.0459 -0.0421,-0.0497 0,-0.10292 l 0.0513,-0.0536 -0.0532,-0.0531 -0.0532,-0.0531 0.13232,-0.11768 c 0.0735,-0.0643 0.22553,-0.18559 0.33984,-0.26721 l 0.208,-0.1489 -0.079,-0.0974 c -0.09,-0.11025 -0.21424,-0.31536 -0.23887,-0.39295 -0.0184,-0.0403 0,-0.0531 0.044,-0.0662 0.0551,-0.0182 0.0605,-0.0238 0.046,-0.0937 -0.0185,-0.079 -0.0185,-0.079 0.11398,-0.10661 0.0717,-0.0182 0.21443,-0.0332 0.31974,-0.042 l 0.1921,-0.0182 v -0.46907 -0.46901 l 0.12679,-0.0332 c 0.0459,-0.0182 0.0772,-0.0204 0.0974,-0.0204 z m 7.94986,0.13237 0.12494,0.0643 c 0.0699,0.0332 0.17647,0.10844 0.23862,0.16535 l 0.11398,0.10297 0.0808,-0.0809 c 0.0919,-0.0919 0.31061,-0.2235 0.37203,-0.22373 0.0236,0 0.0473,0.0238 0.0552,0.0589 0.0184,0.0349 0.042,0.068 0.0828,0.0827 0.0387,0.0182 0.0698,0.0316 0.0698,0.0386 0,0.0459 -0.13783,0.27314 -0.22106,0.36317 l -0.0974,0.10662 0.0735,0.0772 c 0.0736,0.0772 0.24498,0.34389 0.24498,0.38247 0,0.0182 -0.0335,0.0332 -0.0698,0.0442 -0.0499,0.0182 -0.0754,0.0459 -0.0864,0.0937 -0.0184,0.0387 -0.0223,0.0699 -0.0276,0.0699 -0.0441,0 -0.31298,-0.16725 -0.39004,-0.24169 l -0.0937,-0.0901 -0.0552,0.0607 c -0.0736,0.079 -0.23874,0.19261 -0.34188,0.23562 -0.0809,0.0332 -0.0827,0.0332 -0.10471,-0.0365 -0.0185,-0.0442 -0.046,-0.0753 -0.0864,-0.0846 -0.0349,-0.0182 -0.0624,-0.0332 -0.0624,-0.0531 0,-0.0588 0.12685,-0.26817 0.22389,-0.36687 l 0.0845,-0.0882 -0.0827,-0.0882 c -0.0901,-0.0937 -0.22474,-0.31464 -0.22513,-0.36556 0,-0.0182 0.0263,-0.0403 0.0591,-0.0536 0.0335,-0.0182 0.0736,-0.0553 0.0901,-0.0956 z m -11.40112,0 0.0184,0.0735 c 0.0185,0.0588 0.0316,0.079 0.0827,0.0864 0.0367,0 0.068,0.0276 0.068,0.0442 0,0.0588 -0.12685,0.26707 -0.22258,0.36611 l -0.0974,0.10291 0.0974,0.10297 c 0.0956,0.0974 0.22258,0.3069 0.22258,0.36626 0,0.0182 -0.0335,0.0349 -0.0735,0.0442 -0.0459,0.0182 -0.0717,0.0293 -0.0736,0.057 0,0.0238 -0.0185,0.0588 -0.0197,0.0735 -0.0276,0.0425 -0.27192,-0.0863 -0.40016,-0.21224 l -0.0974,-0.0937 -0.0937,0.0937 c -0.0754,0.0772 -0.33399,0.24148 -0.38089,0.24148 0,0 -0.0197,-0.0332 -0.0295,-0.0735 -0.0185,-0.0553 -0.0328,-0.0753 -0.0845,-0.0864 -0.0388,0 -0.0699,-0.0238 -0.0699,-0.0349 0,-0.0531 0.13231,-0.27331 0.22047,-0.36998 l 0.0975,-0.10473 -0.0975,-0.10479 c -0.0826,-0.09 -0.22047,-0.31592 -0.22047,-0.36207 0,-0.0182 0.0316,-0.0238 0.0699,-0.0387 0.044,-0.0182 0.0753,-0.0475 0.0901,-0.0937 l 0.0223,-0.0699 0.12495,0.0588 c 0.0699,0.0332 0.1783,0.10661 0.24189,0.16724 l 0.11583,0.10844 0.0591,-0.0625 c 0.0753,-0.0809 0.23985,-0.19427 0.34641,-0.23859 z m 12.95968,0.0332 c 0,0 0,0 0,0 0,0 0.0427,0.0827 0.10295,0.17277 0.15984,0.23914 0.25982,0.45121 0.40232,0.85722 0.0184,0.0387 0.0335,0.0332 0.16352,-0.0606 0.0828,-0.0589 0.19761,-0.14888 0.25805,-0.20459 l 0.1103,-0.10109 -0.0956,-0.0845 c -0.19092,-0.16912 -0.86325,-0.58502 -0.93512,-0.5806 z m -14.54118,0 c -0.0827,0 -0.58542,0.30475 -0.84564,0.51041 l -0.19282,0.15254 0.0901,0.0754 c 0.20142,0.16908 0.42827,0.32714 0.44312,0.30985 0.0185,-0.0182 0.044,-0.10475 0.0827,-0.21025 0.0809,-0.2303 0.20195,-0.47989 0.32276,-0.65925 0.0499,-0.0736 0.0974,-0.14524 0.10657,-0.1636 0,-0.0182 0,-0.0182 0,-0.0182 z m 8.76218,0.0553 -0.29957,0.19775 c -0.17278,0.11397 -0.40271,0.24076 -0.54205,0.29885 -0.2486,0.10291 -0.38617,0.18012 -0.54312,0.30326 l -0.09,0.0699 v -0.19262 -0.19283 l 0.16543,-0.0974 c 0.27822,-0.16542 0.76614,-0.31779 1.18928,-0.37145 z m -14.74077,0.09 0.0184,0.0827 c 0.0184,0.0459 0.0591,0.17461 0.11214,0.28524 0.26246,0.55729 0.93315,0.90996 1.89566,0.99706 0.1783,0.0182 0.18894,0.0221 0.33576,0.14524 0.0827,0.0698 0.1544,0.12862 0.15807,0.12862 0,0 -0.0184,-0.0386 -0.0288,-0.0827 -0.10485,-0.25347 -0.39629,-0.56464 -0.65453,-0.70209 -0.0827,-0.0442 -0.33485,-0.14154 -0.56315,-0.2193 -0.5883,-0.19941 -0.84931,-0.32675 -1.21452,-0.59326 z m 8.65405,0.0387 c 0,0 0,0 0,0 0,0 -0.0473,0.11209 -0.0956,0.23672 -0.10841,0.27955 -0.26082,0.57142 -0.39661,0.75536 l -0.10288,0.1379 0.21318,-0.11214 c 0.1176,-0.0625 0.30581,-0.1783 0.4194,-0.26099 0.11398,-0.0827 0.26462,-0.1994 0.33558,-0.26097 l 0.12869,-0.11215 -0.0552,-0.0588 c -0.0624,-0.068 -0.41093,-0.32162 -0.44403,-0.32532 z m -5.68157,0.20196 c -0.0335,0 -0.0938,0.0238 -0.22699,0.0717 -0.0223,0.0182 -0.0204,0.0332 0.0185,0.11397 0.0661,0.16906 0.068,0.17094 0.28124,0.15436 0.10288,-0.0182 0.19479,-0.0199 0.20104,-0.0254 0.0185,-0.0182 -0.1379,-0.22406 -0.20418,-0.28414 -0.0223,-0.0204 -0.0335,-0.0293 -0.0604,-0.0276 z m 20.12572,0.0182 c 0.0184,0 0.0368,0.0442 0.0624,0.10291 0.0237,0.0553 0.10295,0.1919 0.17094,0.30233 0.0699,0.11032 0.12496,0.20494 0.12496,0.21008 0,0.0204 -0.2099,0 -0.33045,-0.0238 -0.15255,-0.0386 -0.15623,-0.0386 -0.12863,-0.11208 0.0184,-0.0497 0.0184,-0.0625 -0.046,-0.0937 l -0.068,-0.0387 0.10111,-0.17278 c 0.0532,-0.0956 0.10655,-0.17277 0.11575,-0.17277 z m -17.25179,0.56441 c -0.0185,0 -0.0328,0.0588 -0.068,0.16913 -0.0754,0.25014 -0.12685,0.535 -0.1507,0.83809 l -0.0184,0.21776 0.17646,-0.0182 c 0.0974,-0.0182 0.24353,-0.0315 0.32546,-0.0459 l 0.14886,-0.0276 -0.0735,-0.14519 c -0.11391,-0.22318 -0.22605,-0.53485 -0.27197,-0.74807 -0.0349,-0.16172 -0.0539,-0.23854 -0.0699,-0.23876 z m 4.82641,0.1783 c -0.25451,0 -0.27329,0.0182 -0.20839,0.10291 0.0276,0.0425 0.0882,0.11396 0.13422,0.1636 l 0.0826,0.0882 0.12495,-0.0497 c 0.068,-0.0276 0.12686,-0.0531 0.13239,-0.0553 0,0 -0.0185,-0.0607 -0.0349,-0.12683 l -0.044,-0.12314 z m 12.95194,0.11579 0.19058,0.17278 c 0.20825,0.18895 0.22889,0.21924 0.19314,0.28596 -0.0387,0.068 -0.0276,0.0827 0.0204,0.0386 0.0421,-0.0365 0.0459,-0.0365 0.0604,0 0.0309,0.0827 0.0185,0.12497 -0.0937,0.19831 -0.11398,0.0827 -0.13973,0.0846 -0.28124,0.0475 v -1.6e-4 l -0.0901,-0.0222 v -0.35897 z m -15.17253,0.21538 c -0.0309,0 -0.10104,0.0276 -0.22324,0.0846 -0.23019,0.10843 -0.57516,0.22057 -0.76042,0.24627 -0.0572,0 -0.10656,0.0222 -0.11398,0.0316 -0.0185,0.0238 0.43346,0.15801 0.67128,0.20234 0.23361,0.0442 0.30653,0.0531 0.43523,0.0588 h 0.0992 l -0.0185,-0.10292 c -0.0289,-0.27589 -0.0624,-0.49166 -0.079,-0.51759 0,0 -0.0184,0 -0.0204,0 z m -2.03512,0.22832 c 0,0 0,0 0,0 -0.0349,0.0349 0.3782,0.67229 0.58082,0.89563 l 0.13599,0.15066 0.0845,-0.10291 c 0.046,-0.0553 0.13415,-0.16907 0.19282,-0.25291 0.0591,-0.0827 0.10289,-0.15437 0.0974,-0.15806 0,0 -0.079,-0.0332 -0.16542,-0.0643 -0.27001,-0.0974 -0.49811,-0.20919 -0.71083,-0.34797 -0.10662,-0.0698 -0.19873,-0.12314 -0.21548,-0.12314 z m -11.6871,1.40084 -0.53923,0.0182 c -0.81109,0.0204 -1.15881,0.11391 -2.0143,0.5407 -0.93814,0.46852 -1.49097,0.9489 -2.15154,1.86865 -0.23361,0.32513 -0.4192,0.72136 -0.54659,1.16578 -0.0605,0.2103 -0.18375,0.60944 -0.27461,0.88718 -0.0919,0.27756 -0.18191,0.56959 -0.20175,0.6488 -0.0335,0.12313 -0.11214,0.59237 -0.11214,0.65687 v 0 c 0,0.0182 0.0401,0.0182 0.09,0.0182 0.0499,0 0.30548,-0.0276 0.56945,-0.0459 1.93901,-0.14701 2.73558,-0.35858 3.64126,-0.964 0.7128,-0.47619 1.30202,-1.10642 1.58616,-1.69658 0.35128,-0.72966 0.52255,-1.10936 0.58574,-1.30032 0.0644,-0.19427 0.18382,-0.84013 0.16542,-0.89546 -0.0184,-0.0349 -0.61202,0.39279 -1.41022,1.00699 -1.55784,1.19874 -1.88041,1.41981 -2.19398,1.50382 -0.0644,0.0182 -0.14887,0.0332 -0.18507,0.0332 h -0.0644 l 0.0459,-0.11032 c 0.14703,-0.3435 0.61333,-0.88308 1.83239,-2.12094 0.42216,-0.42861 0.85943,-0.87486 0.9719,-0.99158 z m -0.9838,0.42237 c 0,0 0.0185,0 0.0185,0 0,0 -0.29059,0.31575 -0.65874,0.68848 -1.04555,1.05868 -1.49695,1.58671 -1.69495,1.98278 -0.0919,0.18194 -0.10104,0.21963 -0.10104,0.37604 0,0.15807 0,0.18013 0.068,0.24518 0.10103,0.10478 0.24517,0.13784 0.4617,0.10291 0.46795,-0.0735 0.77817,-0.26761 2.3347,-1.46557 0.42807,-0.32951 0.78224,-0.5953 0.78684,-0.59049 0.0185,0.0182 -0.16543,0.39567 -0.44351,0.97263 -0.24406,0.50543 -0.38321,0.705 -0.74072,1.06342 -0.53318,0.53428 -1.13359,0.92669 -1.74751,1.14207 -0.48477,0.17095 -1.15178,0.29276 -2.01437,0.37091 -0.22422,0.0204 -0.4644,0.0442 -0.53391,0.0497 l -0.12679,0.0182 0.0184,-0.0661 c 0.0276,-0.1268 0.13415,-0.47637 0.25089,-0.82136 0.0644,-0.19134 0.17094,-0.53467 0.23822,-0.76315 0.17455,-0.5942 0.34641,-0.91491 0.78789,-1.46683 0.34918,-0.43668 0.72785,-0.77598 1.191,-1.06786 0.26929,-0.16907 0.90864,-0.48371 1.21176,-0.59547 0.20432,-0.0754 0.63404,-0.18011 0.70571,-0.17276 z m 29.85154,0.9263 c -0.0237,0 -0.0499,0 -0.0699,0.0182 -0.10111,0.0238 -0.18014,0.12678 -0.18014,0.23063 0,0.1489 0.13238,0.32388 1.16289,1.54592 1.6797,1.98974 2.69917,3.42569 3.00079,4.2267 0.0772,0.20582 0.0753,0.24737 -0.0185,0.22272 -0.42853,-0.12313 -1.52966,-0.99063 -2.83457,-2.23401 -0.55054,-0.52472 -0.82252,-0.80317 -1.77984,-1.82321 -0.39207,-0.41723 -0.74144,-0.78167 -0.77679,-0.80942 -0.0752,-0.0588 -0.24031,-0.068 -0.31093,-0.0182 -0.0956,0.0717 -0.0387,0.51737 0.23269,1.81205 0.13783,0.65979 0.23802,1.00572 0.40469,1.40399 0.079,0.1904 0.18381,0.45691 0.22993,0.59214 0.11392,0.33399 0.29681,0.71005 0.38584,0.79881 0.0401,0.0403 0.10103,0.13232 0.13415,0.20384 0.18191,0.38284 1.21189,1.53154 1.74212,1.94413 0.33419,0.2601 0.49278,0.35068 1.55863,0.89216 1.16689,0.59236 1.10842,0.5712 2.45525,0.89175 0.42053,0.10109 0.88992,0.2176 1.04286,0.26115 0.15254,0.042 0.33229,0.0809 0.39786,0.0827 0.0644,0 0.12501,0.0182 0.13054,0.0182 0,0 0.18709,0.0182 0.40291,0.0182 h 0.392 l -0.0185,-0.0531 c 0,-0.0293 -0.0185,-0.1783 -0.0276,-0.32957 -0.0662,-1.23636 -0.26968,-2.74128 -0.4895,-3.63288 -0.0993,-0.39881 -0.4558,-1.42471 -0.58792,-1.68796 -0.1195,-0.23854 -0.38412,-0.64124 -0.60209,-0.91708 -0.59074,-0.7479 -1.52829,-1.66685 -2.17355,-2.13056 -0.29925,-0.21483 -0.51519,-0.33471 -0.8216,-0.45636 -0.13967,-0.0553 -0.32106,-0.14336 -0.40303,-0.19796 -0.18803,-0.12314 -0.45364,-0.2176 -1.07354,-0.38556 -0.5462,-0.1489 -0.80393,-0.23379 -1.09431,-0.36191 -0.16542,-0.0735 -0.31855,-0.11212 -0.42951,-0.10843 z m 0.37789,0.52661 c 0,0 0.11398,0.0371 0.2413,0.0827 0.12863,0.0442 0.47182,0.14888 0.76332,0.22808 0.70386,0.19223 0.79268,0.22351 1.01822,0.35787 0.10472,0.0625 0.29438,0.15437 0.4194,0.20399 0.28709,0.11397 0.48759,0.22202 0.73113,0.39772 1.05034,0.75873 2.32373,2.15482 2.72158,2.9837 0.0845,0.17829 0.33032,0.86771 0.46868,1.32004 0.11765,0.38649 0.27901,1.26632 0.39338,2.1531 0.046,0.3577 0.14335,1.41506 0.14335,1.55765 0,0.0625 0,0.0643 -0.11398,0.0625 -0.18782,0 -0.4376,-0.0442 -0.60427,-0.0919 -0.0864,-0.0238 -0.55086,-0.13967 -1.03222,-0.25402 -1.3869,-0.32951 -1.29078,-0.29514 -2.44743,-0.8754 -1.09482,-0.54932 -1.35674,-0.70794 -1.72983,-1.0463 -0.57064,-0.51831 -1.29093,-1.35679 -1.42731,-1.66187 -0.0335,-0.0735 -0.10295,-0.18013 -0.15991,-0.23987 -0.10478,-0.11392 -0.18197,-0.27348 -0.34503,-0.73221 -0.0532,-0.14336 -0.14887,-0.39241 -0.21575,-0.55064 -0.1415,-0.33454 -0.23269,-0.64074 -0.34977,-1.17502 -0.11575,-0.52765 -0.2365,-1.16507 -0.22362,-1.17812 0,0 0.3183,0.31631 0.69433,0.71552 1.21801,1.2939 2.1614,2.18694 3.13935,2.97081 0.91921,0.73723 1.3921,0.9734 1.70396,0.85154 0.15445,-0.0606 0.19853,-0.13602 0.19636,-0.33853 0,-0.3457 -0.2302,-0.82141 -0.81187,-1.70228 -0.58115,-0.8806 -1.23193,-1.72439 -2.3389,-3.03338 -0.60637,-0.71694 -0.84715,-1.007 -0.83611,-1.007 z m -19.57507,3.77563 c 0,0 -0.11214,0.29663 -0.23893,0.66809 -0.12686,0.37185 -0.29629,0.82141 -0.37493,0.99949 -0.0791,0.17829 -0.194,0.48537 -0.25555,0.68317 -0.3277,1.05072 -0.79565,2.17943 -1.43133,3.45293 -0.45034,0.90166 -0.8137,1.47269 -0.90246,1.41792 -0.0661,-0.042 -0.0809,-0.20819 -0.0538,-0.64122 0.0772,-1.26434 0.35068,-2.58046 0.8997,-4.33734 0.20603,-0.65964 0.38873,-1.30015 0.45837,-1.60578 0.0538,-0.24224 0.0552,-0.25441 0.0185,-0.33543 -0.0316,-0.0643 -0.0624,-0.0883 -0.13421,-0.10479 -0.11399,-0.026 -0.14151,-0.0182 -0.39497,0.1746 -0.11023,0.0827 -0.26193,0.18011 -0.33912,0.22129 -0.29714,0.15625 -1.34276,1.20056 -1.91674,1.91512 -0.78421,0.97649 -1.34927,2.05832 -1.52802,2.92545 -0.23644,1.14522 -0.17469,3.1769 0.13409,4.4 0.10294,0.40933 0.55716,1.58434 0.78926,2.04307 0.0882,0.1746 0.21608,0.32625 0.32658,0.38688 0.14334,0.079 0.40488,-0.0182 0.93643,-0.34315 0.50474,-0.31062 0.90259,-0.60338 1.22943,-0.90443 0.10472,-0.0956 0.21022,-0.17095 0.2597,-0.18526 0.12127,-0.0332 0.3177,-0.18931 0.60815,-0.48045 0.64309,-0.64493 1.33742,-1.61772 1.91693,-2.68558 0.43228,-0.79693 0.64074,-1.36359 0.73316,-1.99415 0.0532,-0.35306 0.0717,-1.26599 0.0387,-1.77159 -0.0552,-0.84782 -0.11031,-1.15661 -0.34884,-2.03605 -0.21726,-0.79715 -0.22317,-0.82213 -0.32606,-1.36559 -0.0513,-0.26855 -0.0956,-0.49167 -0.1011,-0.49593 z m 9.67431,0.33471 c 0,0 -0.0237,0.1746 -0.0427,0.37439 -0.0362,0.43061 -0.0223,0.5679 0.0937,0.88735 0.18803,0.51864 0.34182,1.53576 0.40016,2.64329 0.0256,0.51278 0.0184,0.83262 -0.0401,0.8497 -0.15255,0.0514 -0.60099,-0.90608 -0.8712,-1.86239 -0.0532,-0.18637 -0.13414,-0.52434 -0.18197,-0.75133 -0.20182,-0.9708 -0.29662,-1.17557 -0.54304,-1.17226 -0.25996,0 -0.47019,0.32311 -0.62752,0.95207 -0.22916,0.91641 -0.24118,1.99509 -0.0309,2.72177 0.20589,0.70949 0.73303,1.52884 1.56559,2.4331 0.40029,0.43464 0.8574,0.83772 1.05055,0.92614 0.0538,0.0238 0.11398,0.0442 0.13973,0.0442 0.0698,0 0.21575,-0.0699 0.28999,-0.13785 0.21764,-0.20328 0.67141,-1.08421 0.88038,-1.70914 0.15255,-0.45121 0.19334,-0.75093 0.20675,-1.47291 0,-0.34295 0,-0.81438 -0.0185,-1.04762 -0.0367,-0.62084 -0.0974,-0.78018 -0.59066,-1.53007 -0.13423,-0.20454 -0.36304,-0.52952 -0.50843,-0.7223 -0.30364,-0.40308 -1.16045,-1.4417 -1.17609,-1.42588 z m -12.03148,0.49842 c 0.0185,0.0182 -0.19925,0.7264 -0.41796,1.43362 -0.50269,1.62528 -0.77671,2.93538 -0.86717,4.14805 -0.0513,0.69068 -0.0185,0.91309 0.19228,1.11338 0.079,0.0754 0.11576,0.0937 0.21503,0.10297 0.0993,0.0182 0.13966,0 0.22428,-0.0498 0.28906,-0.16912 0.60486,-0.66295 1.1799,-1.84438 0.55914,-1.14832 0.92854,-2.03793 1.24756,-3.0043 0.21345,-0.64621 0.46415,-1.27518 0.49443,-1.23985 0.0185,0.0221 0.29846,1.07055 0.34352,1.28782 0.0585,0.27971 0.10847,0.78571 0.13783,1.35823 0.044,0.90481 -0.0276,1.66006 -0.20642,2.17389 -0.51531,1.47921 -2.13478,3.81079 -2.9004,4.17634 -0.0882,0.0425 -0.23401,0.15073 -0.36816,0.27187 -0.34425,0.31316 -1.02486,0.78333 -1.48669,1.02722 -0.19873,0.10475 -0.22206,0.11027 -0.27587,0.0497 -0.0809,-0.0883 -0.50762,-1.11194 -0.71844,-1.71979 -0.23598,-0.67981 -0.34905,-1.50376 -0.37033,-2.69955 -0.0236,-1.40749 0.068,-1.99671 0.4512,-2.87267 0.45252,-1.03369 1.26077,-2.09933 2.40545,-3.17138 0.26693,-0.25015 0.45856,-0.40933 0.56019,-0.4652 0.0846,-0.0459 0.15807,-0.0827 0.15991,-0.0772 z m 12.4338,0.58264 0.0735,0.0827 c 0.1599,0.18194 0.66648,0.87042 0.89103,1.211 0.33485,0.50797 0.46735,0.78443 0.50008,1.04303 0.0387,0.29923 0.0387,1.73903 0,1.99029 -0.044,0.29497 -0.14152,0.64675 -0.25622,0.93515 -0.12679,0.3152 -0.41625,0.89619 -0.55171,1.10627 -0.0591,0.0864 -0.11399,0.16542 -0.1268,0.17458 -0.0552,0.0332 -0.60762,-0.45928 -0.98091,-0.87617 -0.8633,-0.96417 -1.3145,-1.70725 -1.47165,-2.4231 -0.14334,-0.65599 -0.0901,-1.72622 0.12496,-2.44742 0.0717,-0.2413 0.15806,-0.44038 0.18014,-0.41755 0.0185,0.0204 0.0937,0.32238 0.19926,0.8166 0.15984,0.74894 0.36257,1.39111 0.62082,1.97542 0.29392,0.66455 0.49567,0.89121 0.79604,0.89247 0.16542,0 0.3087,-0.0827 0.3786,-0.22002 0.0513,-0.0992 0.0591,-0.15619 0.0699,-0.46774 0.0316,-0.90536 -0.20077,-2.75526 -0.41336,-3.28656 z"/>
      </g>
    </g>
  </g>
</svg>