<svg xmlns:dc="http://purl.org/dc/elements/1.1/" xmlns:cc="http://creativecommons.org/ns#" xmlns:rdf="http://www.w3.org/1999/02/22-rdf-syntax-ns#" xmlns:svg="http://www.w3.org/2000/svg" xmlns="http://www.w3.org/2000/svg" xmlns:xlink="http://www.w3.org/1999/xlink" xmlns:sodipodi="http://sodipodi.sourceforge.net/DTD/sodipodi-0.dtd" xmlns:inkscape="http://www.inkscape.org/namespaces/inkscape" width="546.80182mm" height="163.02554mm" viewBox="0 0 546.80182 163.02554" version="1.1" id="svg2576" sodipodi:docname="multipage-export-ct79kk21.svg">
  <defs id="defs2570">
    <clipPath clipPathUnits="userSpaceOnUse" id="clipPath12838-7">
      <rect style="font-variation-settings:normal;opacity:0.913738;vector-effect:none;fill:#42a082;fill-opacity:1;stroke:none;stroke-width:0.216715;stroke-linecap:butt;stroke-linejoin:miter;stroke-miterlimit:4;stroke-dasharray:none;stroke-dashoffset:0;stroke-opacity:1;paint-order:markers fill stroke;stop-color:#000000;stop-opacity:1" id="rect12840-3" width="546.80182" height="163.02554" x="-2056.6677" y="1909.7168"/>
    </clipPath>
    <linearGradient inkscape:collect="always" xlink:href="#linearGradient12699" id="linearGradient12701" x1="1800.9373" y1="2411.8384" x2="1800.9373" y2="2362.7192" gradientUnits="userSpaceOnUse" gradientTransform="translate(-1.6393018e-6,-400.64592)"/>
    <linearGradient inkscape:collect="always" id="linearGradient12699">
      <stop style="stop-color:#42a082;stop-opacity:0" offset="0" id="stop12695"/>
      <stop style="stop-color:#42a082;stop-opacity:1" offset="1" id="stop12697"/>
    </linearGradient>
    <linearGradient inkscape:collect="always" xlink:href="#linearGradient21436" id="linearGradient13759" x1="-1496.3773" y1="2419.6184" x2="-1531.3813" y2="2352.9241" gradientUnits="userSpaceOnUse"/>
    <linearGradient inkscape:collect="always" id="linearGradient21436">
      <stop style="stop-color:#bdd3d8;stop-opacity:0.09756097" offset="0" id="stop21432"/>
      <stop style="stop-color:#a4f4e9;stop-opacity:1" offset="1" id="stop21434"/>
    </linearGradient>
    <filter inkscape:collect="always" style="color-interpolation-filters:sRGB" id="filter8717" x="-0.00944784" width="1.0188957" y="-0.033140887" height="1.0662818">
      <feGaussianBlur inkscape:collect="always" stdDeviation="2.2794548" id="feGaussianBlur8715"/>
    </filter>
    <filter inkscape:collect="always" style="color-interpolation-filters:sRGB" id="filter22225" x="-0.029035" width="1.0580699" y="-0.15271568" height="1.3058041">
      <feGaussianBlur inkscape:collect="always" stdDeviation="18.327859" id="feGaussianBlur22223"/>
    </filter>
    <linearGradient inkscape:collect="always" xlink:href="#linearGradient22179" id="linearGradient22181" x1="127.54484" y1="14753.877" x2="1952.5176" y2="14722.519" gradientUnits="userSpaceOnUse"/>
    <linearGradient inkscape:collect="always" id="linearGradient22179">
      <stop style="stop-color:#e3fdf6;stop-opacity:1;" offset="0" id="stop22175"/>
      <stop style="stop-color:#e3fdf6;stop-opacity:0;" offset="1" id="stop22177"/>
    </linearGradient>
    <filter inkscape:collect="always" style="color-interpolation-filters:sRGB" id="filter22173-8" x="-0.013668027" width="1.0273361" y="-0.077863269" height="1.1557266">
      <feGaussianBlur inkscape:collect="always" stdDeviation="10.939518" id="feGaussianBlur22171-8"/>
    </filter>
    <linearGradient inkscape:collect="always" xlink:href="#linearGradient22131" id="linearGradient22211" gradientUnits="userSpaceOnUse" gradientTransform="matrix(-4.3389169,-1.260773,1.5155507,-6.4010759,-9341.1772,28032.581)" x1="-1555.0299" y1="2349.1165" x2="-1591.6833" y2="2244.1802"/>
    <linearGradient inkscape:collect="always" id="linearGradient22131">
      <stop style="stop-color:#dde9de;stop-opacity:1;" offset="0" id="stop22127"/>
      <stop style="stop-color:#dde9de;stop-opacity:0;" offset="1" id="stop22129"/>
    </linearGradient>
    <filter inkscape:collect="always" style="color-interpolation-filters:sRGB" id="filter22185-1" x="-0.011732505" width="0.97675169" y="-0.038725294" height="1.1171398">
      <feGaussianBlur inkscape:collect="always" stdDeviation="10.102921" id="feGaussianBlur22183-3"/>
    </filter>
  </defs>
  <sodipodi:namedview id="base" pagecolor="#ffffff" bordercolor="#666666" borderopacity="1.0" inkscape:pageopacity="0.0" inkscape:pageshadow="2" inkscape:zoom="0.36086675" inkscape:cx="1449.6569" inkscape:cy="888.11322" inkscape:document-units="mm" inkscape:current-layer="layer1" inkscape:document-rotation="0" showgrid="false" inkscape:window-width="1920" inkscape:window-height="1001" inkscape:window-x="-9" inkscape:window-y="-9" inkscape:window-maximized="1"/>
  <metadata id="metadata2573">
    <rdf:RDF>
      <cc:Work rdf:about="">
        <dc:format>image/svg+xml</dc:format>
        <dc:type rdf:resource="http://purl.org/dc/dcmitype/StillImage"/>
      </cc:Work>
    </rdf:RDF>
  </metadata>
  <g inkscape:label="Layer 1" inkscape:groupmode="layer" id="layer1" transform="translate(277.72162,-56.091997)">
    <g id="g12836" clip-path="url(#clipPath12838-7)" transform="translate(1778.9461,-1853.6248)" style="display:inline">
      <rect style="font-variation-settings:'wght' 600;display:inline;opacity:1;mix-blend-mode:normal;fill:url(#linearGradient12701);fill-opacity:1;stroke-width:1.26439" id="rect16260" width="563.27277" height="87.468002" x="1509.822" y="1925.9146" inkscape:export-filename="C:\work\misc work\Aaranya\drawings\export\LIGHT HOME.png" inkscape:export-xdpi="58.380001" inkscape:export-ydpi="58.380001" transform="matrix(-1,0,0,1,1.2708333e-5,1.6666665e-6)"/>
      <path id="path8713" style="display:inline;opacity:0.688725;mix-blend-mode:normal;fill:url(#linearGradient13759);fill-opacity:1;stroke:none;stroke-width:1.43912;filter:url(#filter8717)" d="m -1597.5986,2336.9117 c 100.0539,-1.7756 182.3999,-40.1179 272.243,-48.985 36.2089,-1.7269 67.8099,-20.2672 98.2373,3.1538 11.2979,7.7384 11.48,33.83 17.7181,18.3955 -17.7952,26.4794 -56.4333,37.915 -83.3083,18.0918 -18.5571,-14.994 -35.4599,-37.33 -62.1808,-21.8625 -14.9542,13.5751 -36.7804,7.8693 -50.5139,4.9646 -19.015,5.0463 -19.9092,9.1166 -46.2569,18.8778 -19.4448,6.1828 -52.2423,3.803 -53.2366,19.6404 -5.151,26.634 -22.5634,32.0036 -44.8209,29.8123 -27.0412,6.9345 -56.6791,13.346 -79.6675,29.811 -24.6453,4.9541 -71.5585,51.0859 -107.1831,13.1575 -28.9776,-28.8204 -27.9488,-10.212 -51.8735,-27.1721 80.5153,14.2765 140.4177,-13.5412 190.8431,-57.8851 z" transform="matrix(-1.129589,-0.23436242,0.59011331,-0.7955698,-4848.4167,3513.7336)" sodipodi:nodetypes="cccccccccccccc"/>
      <path id="path8499" style="display:inline;opacity:0.482843;mix-blend-mode:screen;fill:#6ec3a8;fill-opacity:1;stroke:#48907a;stroke-width:15.1181;stroke-miterlimit:4;stroke-dasharray:none;stroke-opacity:1;filter:url(#filter22225)" d="m 1669.166,14571.174 c -77.2446,-0.288 -221.8133,32.213 -636.1875,149.498 -387.85197,-9.391 -521.37389,240.901 -57.02459,106.015 119.12809,-91.353 194.15249,-52.744 341.50069,0.269 771.9462,-77.943 40.4714,-47.43 75.5591,-63.165 150.9681,-67.702 532.1542,-28.171 699.1854,-8.086 v -112.307 c -189.5503,38.696 -172.6131,-23.256 -190.7909,-24.994 -145.0772,-13.866 -154.9976,-46.943 -232.2422,-47.23 z M 145.75781,14726.51 c -91.827343,-8831.3743 -45.913672,-4415.687 0,0 z" transform="matrix(0.28245702,0,0,0.26256445,-2058.9321,-1880.0021)" sodipodi:nodetypes="scccscccscc"/>
      <path id="path8685" style="display:inline;opacity:0.708333;mix-blend-mode:normal;fill:url(#linearGradient22181);fill-opacity:1;stroke:none;stroke-width:8.05122;filter:url(#filter22173-8)" d="m 2066.6527,14628.166 c -238.3448,-52.542 -518.7511,-0.405 -673.891,1.467 -87.7703,1.059 -181.3235,87.45 -394.86912,49.441 -49.09998,-8.739 -271.72219,21.435 -480.75977,45.121 -44.82338,5.079 -97.42646,-12.552 -138.17187,-5.894 -103.55093,16.921 -188.06606,-7.715 -233.20313,-16.871 v 103.945 c 7.05943,6.254 7.90479,16.149 0,30.936 215.59524,-21.151 672.7197,-81.312 990.24419,100.978 166.3718,23.107 631.9283,-43.559 930.6507,-107.352 z" transform="matrix(0.30834124,0,0,0.26156824,-2118.0379,-1867.3252)" sodipodi:nodetypes="csssscccccc"/>
      <path id="path22118" style="display:inline;mix-blend-mode:normal;fill:url(#linearGradient22211);fill-opacity:1;stroke:none;stroke-width:7.84083;filter:url(#filter22185-1)" d="m 2066.818,14810.747 c -38.1622,-1.888 -300.141,-42.687 -341.8794,-42.476 -194.6506,0.971 -518.8648,9.218 -563.0363,24.006 -192.11062,64.316 -218.01611,21.998 -298.78316,13.383 -146.6559,-15.643 -286.90058,-23.595 -565.4707,22.763 C 193.03971,14845.831 77.500822,14814.322 0,14740.793 v 269.004 c 145.75777,-39.055 -83.751341,-75.355 374.67832,-77.432 79.12743,-0.359 343.51261,2.092 515.25944,0.05 321.52714,-3.817 459.29604,-100.447 964.47394,-23 512.5762,92.021 336.2152,-97.07 212.4063,-98.671 z" transform="matrix(0.26458333,0,0,0.1910734,-2056.6676,-815.01931)" sodipodi:nodetypes="cssssccsacc" clip-path="none"/>
    </g>
  </g>
</svg>