<svg xmlns:dc="http://purl.org/dc/elements/1.1/" xmlns:cc="http://creativecommons.org/ns#" xmlns:rdf="http://www.w3.org/1999/02/22-rdf-syntax-ns#" xmlns:svg="http://www.w3.org/2000/svg" xmlns="http://www.w3.org/2000/svg" xmlns:sodipodi="http://sodipodi.sourceforge.net/DTD/sodipodi-0.dtd" xmlns:inkscape="http://www.inkscape.org/namespaces/inkscape" width="36.099846mm" height="41.6992mm" viewBox="0 0 36.099846 41.699198" version="1.1" id="svg2576" sodipodi:docname="multipage-export-zcq6tn7y.svg">
  <defs id="defs2570"/>
  <sodipodi:namedview id="base" pagecolor="#ffffff" bordercolor="#666666" borderopacity="1.0" inkscape:pageopacity="0.0" inkscape:pageshadow="2" inkscape:zoom="0.25517133" inkscape:cx="2178.4614" inkscape:cy="1089.9753" inkscape:document-units="mm" inkscape:current-layer="layer1" inkscape:document-rotation="0" showgrid="false" inkscape:window-width="1920" inkscape:window-height="1001" inkscape:window-x="-9" inkscape:window-y="-9" inkscape:window-maximized="1"/>
  <metadata id="metadata2573">
    <rdf:RDF>
      <cc:Work rdf:about="">
        <dc:format>image/svg+xml</dc:format>
        <dc:type rdf:resource="http://purl.org/dc/dcmitype/StillImage"/>
      </cc:Work>
    </rdf:RDF>
  </metadata>
  <g inkscape:label="Layer 1" inkscape:groupmode="layer" id="layer1" transform="translate(252.42971,-41.95635)">
    <g id="g17475-4-1" transform="matrix(0.28692713,0,0,0.28692713,116.5714,257.1265)" style="display:inline" inkscape:export-filename="C:\work\misc work\Aaranya\drawings\export\LIGHT HOME.png" inkscape:export-xdpi="58.380001" inkscape:export-ydpi="58.380001">
      <path id="path30777-4-7-2" style="fill:#ee7e19;fill-opacity:1;stroke:none;stroke-width:0.358321;stroke-opacity:1" d="m -1248.9002,-723.52725 c -3.5064,-3.68474 -4.6334,-8.23756 -3.1789,-12.84189 0.3839,-1.21525 1.7865,-4.36198 1.9412,-4.3551 0.2512,0.0111 2.4858,1.97311 3.2498,2.85341 1.0667,1.22917 2.325,3.08941 2.8172,4.1651 0.6794,1.48452 0.8446,2.47102 0.7902,4.71942 -0.044,1.83481 -0.086,2.12109 -0.3784,2.59121 -0.1808,0.29071 -0.3287,0.63443 -0.3287,0.76387 0,0.36883 -0.6123,2.14051 -0.7398,2.14051 -0.063,0 -0.2898,-0.77241 -0.5042,-1.71645 -1.5132,-6.66185 -2.0859,-8.07091 -3.2808,-8.07091 -0.682,0 -0.8802,0.21211 -0.8802,0.94222 0,0.79672 0.8995,7.21915 1.2542,8.95469 0.1295,0.6334 -0.053,0.59837 -0.7616,-0.14608 z m 30.034,0.14608 c 0.3821,-1.22525 0.8392,-2.58572 1.0159,-3.02326 0.7707,-1.90886 2.0917,-8.50205 2.1147,-10.55446 0.021,-1.90642 -0.2736,-2.00803 -1.4818,-0.51049 -1.0866,1.34678 -2.6364,3.72672 -2.8664,4.40163 -0.1112,0.32621 -0.2835,0.85607 -0.383,1.17742 -0.1,0.32138 -0.5265,1.37315 -0.9489,2.33727 -1.0444,2.38361 -1.4857,3.64832 -1.9217,5.50797 -0.2034,0.86729 -0.4009,1.57692 -0.4389,1.57692 -0.3462,0 -1.2439,-3.42289 -1.5821,-6.03328 -0.5598,-4.31987 -0.1035,-7.20776 1.7127,-10.83892 1.8424,-3.68378 5.4079,-7.3346 9.664,-9.89556 1.6037,-0.96495 1.7438,-0.94325 2.3472,0.36384 0.7157,1.55008 1.6395,4.3181 2.0057,6.00936 0.4358,2.01273 0.4718,6.39159 0.068,8.26993 -0.8229,3.82754 -2.5111,6.79651 -5.6486,9.93403 -1.512,1.51193 -3.9175,3.50532 -4.2301,3.50532 -0.067,0 0.1914,-1.00247 0.5734,-2.22772 z m 19.4146,15.84965 c 0.1617,-0.22097 1.284,-1.37826 2.494,-2.5718 3.8488,-3.79638 5.1241,-5.93997 3.1893,-5.36097 -1.7592,0.52646 -5.3543,2.83309 -7.3833,4.73713 -0.4227,0.39666 -0.8119,0.67788 -0.8648,0.6249 -0.053,-0.053 0.1204,-0.67127 0.3854,-1.37398 1.4635,-3.88154 3.1145,-5.95836 5.7557,-7.24026 2.6812,-1.30132 7.1526,-2.22867 8.1561,-1.69158 0.2689,0.14387 0.2906,0.24856 0.2043,0.98313 -0.2509,2.1345 -2.1864,6.57982 -3.4824,7.99777 -0.8764,0.95898 -2.5035,2.09492 -3.9736,2.77411 -0.9306,0.42995 -4.2516,1.52327 -4.6271,1.52327 -0.081,0 -0.015,-0.1808 0.1464,-0.40172 z m 19.7329,25.76968 c -0.043,-0.0461 -1.1938,-0.34392 -2.5564,-0.66191 -1.3626,-0.31794 -3.1124,-0.78209 -3.8884,-1.03137 -1.767,-0.56757 -3.633,-1.41443 -3.3366,-1.51426 0.1205,-0.0406 1.3951,-0.24796 2.8324,-0.46082 1.5176,-0.22473 3.1407,-0.56216 3.8711,-0.80475 0.6918,-0.22979 1.6851,-0.49456 2.2073,-0.58834 1.935,-0.34756 6.9056,-2.1269 8.0565,-2.88401 0.5864,-0.38575 0.7675,-0.78376 0.5103,-1.12127 -0.5335,-0.69999 -2.3116,-0.6871 -8.2384,0.0597 -5.6521,0.7122 -7.3071,0.97662 -8.3422,1.33275 -0.8601,0.29589 -1.4813,0.3546 -1.4813,0.13992 0,-0.2233 1.2736,-1.6437 2.1941,-2.4471 2.0366,-1.77733 3.7182,-2.89968 5.8525,-3.90606 2.8103,-1.32508 4.469,-1.68758 7.73,-1.6894 3.495,0 5.9854,0.3121 6.9388,0.87501 0.241,0.14232 1.4242,0.66605 2.6294,1.16389 2.4608,1.0165 4.024,1.79765 4.3762,2.1868 0.2207,0.24386 0.2003,0.31012 -0.2999,0.9742 -1.2727,1.68992 -4.4929,4.7949 -6.6383,6.40084 -2.4201,1.81149 -4.9873,2.93604 -8.2115,3.59716 -1.4952,0.30656 -4.0562,0.53733 -4.2056,0.37899 z m -3.4402,26.4291 c -1.7856,-0.40757 -4.1165,-1.56842 -5.903,-2.9398 -0.9294,-0.71346 -2.7031,-2.52495 -2.5865,-2.64162 0.043,-0.0435 1.0331,0.19206 2.199,0.52349 2.6874,0.76399 4.7504,1.16571 6.5594,1.27732 l 1.4243,0.0879 v -0.44893 c 0,-0.34728 -0.1406,-0.56943 -0.6209,-0.98116 -0.8281,-0.70998 -3.9693,-2.23329 -6.3179,-3.0639 -1.0445,-0.36934 -2.0261,-0.72362 -2.1814,-0.78724 -0.4542,-0.18601 3.2851,-0.66673 5.0299,-0.64664 3.0167,0.0348 5.5307,1.04872 7.8548,3.16808 1.0019,0.91359 2.7955,3.0486 3.336,3.97089 0.3818,0.65155 0.3881,0.69255 0.1348,0.87781 -0.3954,0.28909 -2.2756,0.88564 -4.0946,1.29911 -2.0542,0.46695 -3.6753,0.56911 -4.8339,0.3047 z m -3.5657,35.18342 c -0.3616,-0.11524 -1.7753,-0.46482 -3.1417,-0.77684 -1.3664,-0.31205 -2.714,-0.67716 -2.9946,-0.81139 -0.7912,-0.37832 -2.1939,-1.08502 -4.7277,-2.38199 -0.5609,-0.28707 -1.4577,-0.94024 -2.0327,-1.48053 -1.4907,-1.40056 -3.2893,-3.50441 -3.4737,-4.06329 -0.088,-0.26536 -0.2186,-0.48246 -0.291,-0.48246 -0.1733,0 -0.617,-0.89461 -0.942,-1.89906 -0.1429,-0.44189 -0.4466,-1.20168 -0.6747,-1.68841 -0.2803,-0.59822 -0.6084,-1.86917 -1.0122,-3.92163 -0.3285,-1.67011 -0.5683,-3.06556 -0.5329,-3.10099 0.036,-0.0356 1.0176,0.97333 2.1825,2.24168 3.2038,3.4882 6.3635,6.45741 8.9281,8.39 1.4126,1.06454 2.1882,1.47022 2.6979,1.41131 0.35,-0.0404 0.3863,-0.0984 0.3491,-0.55643 -0.1173,-1.44341 -3.0981,-5.84682 -7.2292,-10.67947 -2.147,-2.51159 -3.0279,-3.61579 -3.0279,-3.79552 0,-0.23705 0.5535,-0.14114 1.2149,0.21049 0.3552,0.1889 1.5148,0.55951 2.5768,0.82357 1.2338,0.3068 2.0713,0.59695 2.3199,0.80372 0.2139,0.17799 0.7185,0.43197 1.1213,0.56446 1.086,0.35712 2.5203,1.38533 4.2315,3.0335 2.5048,2.41259 4.2071,4.68229 4.6694,6.22573 0.1386,0.46281 0.4032,1.23585 0.5879,1.71791 0.5819,1.51805 1.2451,5.53342 1.4779,8.94741 l 0.1022,1.4973 -0.8609,-0.01 c -0.4735,-0.006 -1.1567,-0.10406 -1.5182,-0.21931 z m -37.977,5.08624 c -1.3625,-1.24352 -3.0121,-3.21881 -3.811,-4.56342 -0.9783,-1.64678 -1.3247,-2.75928 -1.4104,-4.53004 -0.1342,-2.77079 0.689,-6.13536 1.501,-6.13536 0.2501,0 0.4569,0.64483 0.8723,2.72014 0.4776,2.38578 1.6129,5.36591 2.3721,6.22724 0.2601,0.29501 0.7726,0.3351 1.0274,0.0803 0.5065,-0.50653 -0.1435,-7.32961 -0.8506,-8.92812 -0.1823,-0.41224 -0.2878,-0.91161 -0.2609,-1.23565 l 0.045,-0.54385 0.9197,1.1002 c 1.3146,1.57285 2.7184,3.57008 3.2699,4.65241 0.4651,0.9128 0.4761,0.97898 0.5318,3.21374 0.079,3.14914 -0.1387,4.32371 -1.212,6.55582 -0.8553,1.77883 -1.2753,2.37258 -1.6781,2.37258 -0.1297,0 -0.7221,-0.44371 -1.3163,-0.98602 z m -36.4899,10.07948 c -0.3368,-0.48613 -1.8277,-4.23096 -2.05,-5.14929 -0.8173,-3.3758 -0.8964,-8.79679 -0.1633,-11.18443 0.898,-2.92426 2.7324,-5.74443 5.6239,-8.64592 1.141,-1.14488 2.1639,-2.08227 2.2732,-2.08302 0.1093,0 0.4883,-0.23164 0.8422,-0.51298 0.3539,-0.28133 0.6648,-0.49028 0.6907,-0.46434 0.07,0.0696 -0.614,2.57417 -1.1911,4.36376 -1.2507,3.87853 -2.0505,7.67784 -2.2148,10.52129 -0.076,1.31816 -0.052,1.62097 0.1542,1.93555 0.3185,0.48625 0.5559,0.47044 1.0995,-0.0732 1.0909,-1.09087 4.5081,-8.41336 5.3514,-11.46695 0.1786,-0.64692 0.4741,-1.46863 0.6565,-1.826 0.1824,-0.35736 0.4758,-1.07691 0.652,-1.59902 l 0.3204,-0.94929 0.1045,0.55721 c 0.058,0.30648 0.3647,1.47785 0.6827,2.60304 0.4823,1.70656 0.6039,2.41816 0.7336,4.2916 0.1801,2.60205 0.022,4.75884 -0.4499,6.13307 -0.7547,2.1983 -2.5021,5.23275 -4.4644,7.75288 -1.0247,1.31595 -2.4546,2.69183 -2.7977,2.69183 -0.1234,0 -0.4738,0.25698 -0.7786,0.5711 -0.89,0.91707 -4.027,2.93481 -4.5628,2.93481 -0.1286,0 -0.3591,-0.18079 -0.5122,-0.40172 z m -24.7721,-29.64166 c 0.044,-0.30818 0.3092,-1.21766 0.5881,-2.0211 0.2791,-0.80345 0.6053,-1.85522 0.7251,-2.33728 0.2184,-0.87872 0.6529,-1.74748 1.3515,-2.70246 1.4961,-2.04503 2.7951,-3.13653 5.0554,-4.24781 1.6268,-0.79976 2.8404,-1.15717 3.9296,-1.15717 h 0.7274 l -2.562,2.59292 c -2.5218,2.55223 -3.688,3.94199 -4.0584,4.83625 -0.35,0.84492 0.015,1.07165 1.1978,0.74327 0.6895,-0.19151 1.9219,-1.02817 4.7097,-3.19738 1.2052,-0.93771 2.4154,-1.8611 2.6894,-2.0519 l 0.4982,-0.34697 -0.093,0.57442 c -0.051,0.31593 -0.3182,1.03457 -0.5936,1.597 -0.2755,0.5624 -0.7021,1.47026 -0.9481,2.01747 -0.7586,1.68771 -3.0005,3.76507 -5.1476,4.76976 -1.6243,0.76003 -3.4973,1.13993 -6.8795,1.39533 l -1.2711,0.0959 z"/>
      <path id="path30759-5-8-8" style="fill:#00843e;fill-opacity:1;stroke:#00843e;stroke-width:1.695;stroke-miterlimit:4;stroke-dasharray:none;stroke-opacity:1" d="m -1232.3819,-716.2438 c -7.2127,0.40285 -14.0619,3.03754 -21.2407,3.70353 -1.3155,-0.36131 -3.1109,-1.41028 -4.3428,-0.15465 -1.7139,1.87082 -1.1407,4.60069 -1.7438,6.87526 -0.5527,4.01509 -1.6794,8.0369 -1.5356,12.11953 0.4504,1.55404 2.8002,1.58049 3.5006,0.19874 1.0077,-1.48963 1.879,-3.07221 3.1463,-4.37386 5.2057,-5.9923 13.1678,-9.54073 21.1122,-9.28805 3.2809,0.0702 6.8682,0.53225 9.7021,2.40307 1.4551,1.07259 2.1375,2.93743 2.0155,4.64478 0.1479,2.33224 -0.07,4.75669 -0.046,7.12898 -12.3217,0.7688 -24.45,4.72233 -34.8438,11.39093 -5.0273,3.37913 -9.5641,8.34353 -10.4469,14.54936 -0.8672,5.96839 1.9237,12.29631 6.9593,15.62194 7.5916,5.52774 18.0108,6.12111 26.6186,2.76245 4.425,-1.63906 8.3191,-4.36938 12.2615,-6.9038 0.9807,-0.17917 1.1171,1.16328 1.5835,1.74291 1.0009,2.00231 2.1546,4.57738 4.6549,4.92435 3.4141,0.50775 6.8913,0.41376 10.3362,0.40031 1.1552,-0.11805 2.458,-0.0149 3.4813,-0.59726 1.1004,-0.99607 0.5545,-2.83985 -0.6068,-3.53498 -2.3861,-2.72793 -2.7115,-6.55145 -2.6154,-9.9775 -0.3011,-13.29 0.3009,-26.61226 -0.639,-39.87835 -0.7465,-5.17613 -4.9209,-9.20586 -9.606,-11.11822 -5.5427,-2.4485 -11.7369,-2.69551 -17.7052,-2.63947 z m 10.6904,35.39241 c -0.061,3.82263 0.049,7.69486 -0.3779,11.46818 -2.3407,5.29568 -6.5649,9.97168 -12.1342,11.88329 -4.0448,1.57585 -9.0431,1.4206 -12.456,-1.49979 -2.0419,-1.5775 -3.4392,-4.1173 -3.1553,-6.74362 -0.1733,-4.42721 2.8273,-8.15465 6.1671,-10.74914 4.1164,-3.20266 8.9843,-5.20961 13.9335,-6.77246 2.6378,-0.70111 5.353,-1.09216 8.0783,-1.21693 -0.018,1.21006 -0.037,2.42026 -0.055,3.63047 z"/>
    </g>
  </g>
</svg>