<svg xmlns:dc="http://purl.org/dc/elements/1.1/" xmlns:cc="http://creativecommons.org/ns#" xmlns:rdf="http://www.w3.org/1999/02/22-rdf-syntax-ns#" xmlns:svg="http://www.w3.org/2000/svg" xmlns="http://www.w3.org/2000/svg" xmlns:sodipodi="http://sodipodi.sourceforge.net/DTD/sodipodi-0.dtd" xmlns:inkscape="http://www.inkscape.org/namespaces/inkscape" width="51.439526mm" height="4.1551185mm" viewBox="0 0 51.439526 4.1551185" version="1.1" id="svg3318" sodipodi:docname="multipage-export-tzgla6cx.svg">
  <defs id="defs3312"/>
  <sodipodi:namedview id="base" pagecolor="#ffffff" bordercolor="#666666" borderopacity="1.0" inkscape:pageopacity="0.0" inkscape:pageshadow="2" inkscape:zoom="0.18043338" inkscape:cx="2250.6913" inkscape:cy="446.75727" inkscape:document-units="mm" inkscape:current-layer="layer1" inkscape:document-rotation="0" showgrid="false" inkscape:window-width="1920" inkscape:window-height="1001" inkscape:window-x="-9" inkscape:window-y="-9" inkscape:window-maximized="1"/>
  <metadata id="metadata3315">
    <rdf:RDF>
      <cc:Work rdf:about="">
        <dc:format>image/svg+xml</dc:format>
        <dc:type rdf:resource="http://purl.org/dc/dcmitype/StillImage"/>
      </cc:Work>
    </rdf:RDF>
  </metadata>
  <g inkscape:label="Layer 1" inkscape:groupmode="layer" id="layer1" transform="translate(-65.101175,84.83049)">
    <path id="path27793" style="display:inline;fill:#ffffff;fill-opacity:1;stroke-width:0.0320117" d="m 98.102,-84.83049 c -0.191,2e-5 -0.3825,0.0145 -0.5214,0.0439 -0.6004,0.12724 -1.1073,0.60563 -1.3074,1.23301 -0.092,0.29006 -0.1195,1.06836 -0.048,1.40301 0.1657,0.77903 0.7363,1.32172 1.5208,1.44642 0.2374,0.0377 0.7438,0.0133 0.9643,-0.0465 0.288,-0.0782 0.5773,-0.24366 0.786,-0.44958 0.2205,-0.21765 0.3341,-0.4054 0.4558,-0.7519 0.076,-0.22407 0.085,-0.27757 0.085,-0.80047 1e-4,-0.52398 -0.01,-0.57663 -0.087,-0.81854 -0.2141,-0.63905 -0.6973,-1.08185 -1.3276,-1.21544 -0.1386,-0.0295 -0.3294,-0.0439 -0.5204,-0.0439 z m 3.4546,0.003 c -0.2864,0.0156 -0.4254,0.0668 -0.584,0.21394 -0.1538,0.14267 -0.1903,0.25056 -0.2067,0.60307 l -0.015,0.3266 -0.2118,0.009 -0.2119,0.009 v 0.28837 0.28784 l 0.216,0.01 0.216,0.0103 v 1.15084 1.1498 h 0.384 0.3839 v -1.15237 -1.15239 h 0.2894 0.2894 l -0.01,-0.2961 -0.01,-0.29612 -0.2801,-0.009 -0.2801,-0.009 v -0.18656 c 0,-0.14234 0.016,-0.20719 0.069,-0.2739 0.067,-0.0843 0.078,-0.0877 0.3344,-0.0765 l 0.2651,0.0113 0.047,-0.2558 c 0.025,-0.14062 0.042,-0.26527 0.034,-0.27696 -0.029,-0.0472 -0.467,-0.099 -0.7204,-0.0853 z m -34.3462,0.003 c -0.076,-0.001 -0.1559,-2.1e-4 -0.2398,0.003 -0.2436,0.01 -0.4797,0.0366 -0.5695,0.0656 -0.6414,0.20727 -1.1154,0.74485 -1.2588,1.42835 -0.072,0.34502 -0.046,1.02679 0.051,1.31257 0.2427,0.71599 0.7472,1.16478 1.4572,1.29604 0.6497,0.12014 1.4447,-0.055 2.0087,-0.44234 l 0.184,-0.12662 v -0.79582 -0.79528 h -0.8806 -0.8801 v 0.31988 0.32038 h 0.4641 0.4641 v 0.26406 0.26408 l -0.1359,0.0837 c -0.2681,0.16587 -0.4968,0.23254 -0.8083,0.23254 -0.4276,9e-4 -0.6879,-0.13218 -0.9105,-0.46561 -0.1742,-0.26048 -0.237,-0.55626 -0.2191,-1.02836 0.023,-0.5924 0.1964,-0.92694 0.586,-1.12757 0.1568,-0.0807 0.2316,-0.098 0.4677,-0.10697 0.3609,-0.0143 0.5635,0.0487 0.7451,0.23151 0.072,0.0725 0.1588,0.19309 0.1923,0.26821 0.043,0.0952 0.076,0.13194 0.1121,0.12194 0.028,-0.008 0.1805,-0.0374 0.339,-0.0656 0.4133,-0.0738 0.4088,-0.072 0.385,-0.17159 -0.051,-0.21055 -0.2161,-0.49821 -0.3777,-0.65577 -0.2983,-0.29061 -0.6446,-0.42026 -1.1762,-0.43045 z m 36.8783,0.0558 v 2.00092 2.00038 h 0.4 0.4 v -2.00038 -2.00092 h -0.4 z m 8.3871,0 v 0.33589 0.33642 h 0.384 0.3839 v -0.33642 -0.33589 h -0.3839 z m -1.5105,0.016 v 0.67077 c 8e-4,0.36904 -0.01,0.68292 -0.015,0.69713 -0.01,0.0143 -0.081,-0.0315 -0.1612,-0.10181 -0.218,-0.19183 -0.4495,-0.26805 -0.7529,-0.24805 -0.5714,0.0376 -0.9562,0.38775 -1.1007,1.002 -0.072,0.30565 -0.047,0.9112 0.048,1.18081 0.1515,0.4286 0.4468,0.72456 0.835,0.83717 v 0 c 0.3404,0.0987 0.782,-0.0287 1.047,-0.30128 l 0.1374,-0.14161 v 0.19534 0.19482 h 0.3675 0.3674 l -0.01,-1.99263 -0.01,-1.99266 h -0.3788 z m -17.2739,0.0791 c -0.033,0 -0.6518,0.35364 -0.7255,0.41494 -0.038,0.0312 -0.05,0.10631 -0.05,0.308 v 0.26615 l -0.168,0.0103 -0.1684,0.01 -0.01,0.29612 -0.01,0.2961 h 0.1731 0.1736 l 0.013,0.93639 c 0.012,0.85889 0.019,0.94837 0.079,1.08053 0.083,0.18256 0.1609,0.2508 0.371,0.3261 l -5e-4,-0.001 c 0.1293,0.0465 0.2236,0.0569 0.4083,0.045 0.2219,-0.0145 0.4315,-0.0631 0.4873,-0.11213 0.013,-0.0113 0.01,-0.15169 -0.012,-0.31213 l -0.036,-0.29147 -0.099,0.0284 c -0.1506,0.0433 -0.2977,0.0342 -0.3535,-0.0217 -0.043,-0.0431 -0.05,-0.16719 -0.05,-0.86455 v -0.81391 h 0.2558 0.2563 v -0.30385 -0.30437 h -0.2641 -0.264 l 0.01,-0.4961 c 0.01,-0.27887 0,-0.49659 -0.019,-0.49659 z m 4.4272,0.54517 c 0.7468,0 1.1488,0.55094 1.096,1.50225 -0.037,0.65469 -0.3072,1.06376 -0.7943,1.20044 -0.6278,0.17619 -1.2057,-0.18489 -1.3565,-0.84801 -0.057,-0.24969 -0.064,-0.67684 -0.018,-0.93017 0.018,-0.0948 0.076,-0.26181 0.1292,-0.37106 0.1784,-0.36472 0.5003,-0.55345 0.9431,-0.55345 z m -27.2351,0.38396 c -0.7298,0 -1.2951,0.46054 -1.4474,1.17925 -0.059,0.27149 -0.059,0.44529 0,0.72554 0.1279,0.60624 0.5087,0.98872 1.1162,1.12086 v 0 c 0.5305,0.11541 0.9901,-0.008 1.3766,-0.37 0.3178,-0.29726 0.4677,-0.65992 0.4677,-1.13739 10e-4,-0.8841 -0.6317,-1.51826 -1.5151,-1.51826 z m 9.6217,0.001 c -0.1596,0.0137 -0.2902,0.0962 -0.4398,0.26149 l -0.1778,0.19688 v -0.19791 -0.19741 h -0.3519 -0.3524 v 1.45675 1.45624 h 0.3808 0.3809 l 0.014,-0.85627 c 0.016,-0.93933 0.043,-1.10551 0.2108,-1.29294 0.1144,-0.12811 0.332,-0.15944 0.5194,-0.0749 0.07,0.0313 0.1325,0.0519 0.1405,0.0439 0.01,-0.007 0.065,-0.15626 0.1272,-0.33123 0.1268,-0.35478 0.1311,-0.34047 -0.123,-0.41757 -0.1272,-0.0386 -0.2335,-0.0552 -0.3292,-0.047 z m -3.2112,0.002 c -0.5307,-0.0248 -0.9937,0.23426 -1.2284,0.70331 -0.1505,0.30086 -0.19,0.51771 -0.1721,0.94205 0.034,0.80005 0.4,1.27119 1.0811,1.39216 0.2314,0.0412 0.4494,0.0358 0.6718,-0.0165 0.2489,-0.0587 0.419,-0.15388 0.5964,-0.33329 0.1496,-0.15137 0.3249,-0.47022 0.2811,-0.5116 -0.016,-0.015 -0.1864,-0.0462 -0.3788,-0.0693 -0.2641,-0.0309 -0.3533,-0.0321 -0.3623,-0.004 -0.034,0.10274 -0.1653,0.25474 -0.2646,0.30644 -0.1625,0.0847 -0.4196,0.0552 -0.572,-0.0656 -0.1317,-0.10444 -0.2514,-0.32377 -0.2656,-0.48835 l -0.01,-0.11215 0.9715,-0.009 0.971,-0.009 -0.022,-0.24755 c -0.076,-0.86818 -0.4076,-1.31953 -1.0656,-1.44899 -0.078,-0.0154 -0.1557,-0.0249 -0.2315,-0.0284 z m 13.9263,0 c -0.307,-0.0162 -0.6233,0.094 -0.8708,0.31419 l -0.1504,0.13382 -0.01,-0.18499 -0.01,-0.18553 h -0.3519 -0.3524 l -0.01,1.44849 -0.01,1.44849 h 0.3989 0.399 l 0.01,-0.9684 0.01,-0.96843 0.088,-0.14883 c 0.1675,-0.28482 0.5822,-0.38145 0.8036,-0.18706 0.1653,0.14531 0.1809,0.25852 0.1809,1.32654 v 0.94618 h 0.386 0.386 l -0.01,-1.16012 -0.01,-1.16065 -0.09,-0.18449 c -0.106,-0.21601 -0.2287,-0.3189 -0.4888,-0.41032 -0.097,-0.0342 -0.1985,-0.0535 -0.3008,-0.0589 z m -8.2026,0.003 c -0.2838,-0.0147 -0.5803,0.0826 -0.7933,0.29663 -0.062,0.0619 -0.1225,0.11316 -0.1359,0.11316 -0.014,5.8e-4 -0.024,-0.0778 -0.024,-0.17465 v -0.17622 h -0.3524 -0.3519 v 1.45675 0 1.45624 h 0.3824 0.3819 l 0.01,-0.9684 c 0.01,-0.92999 0.013,-0.97367 0.082,-1.10176 0.1012,-0.18925 0.2383,-0.27648 0.4583,-0.29247 0.1647,-0.0118 0.191,-0.005 0.2853,0.0796 0.094,0.0845 0.1068,0.11647 0.1313,0.3478 0.015,0.14004 0.028,0.63283 0.028,1.09503 v 0.84024 h 0.3824 0.3824 l 0.01,-0.9524 c 0.01,-0.89193 0.014,-0.96144 0.078,-1.09916 0.083,-0.18012 0.2284,-0.28852 0.4144,-0.30953 0.181,-0.0204 0.322,0.0391 0.3912,0.16486 0.048,0.0869 0.056,0.23246 0.064,1.14771 l 0.01,1.04852 h 0.3824 0.3824 v -1.11467 c 0,-1.24674 -0.012,-1.3363 -0.2061,-1.56371 -0.1747,-0.20413 -0.3613,-0.27861 -0.706,-0.28062 -0.2507,-0.002 -0.3109,0.01 -0.464,0.0848 -0.097,0.0476 -0.2385,0.14642 -0.3147,0.2196 l -0.1385,0.13282 -0.053,-0.0755 c -0.1627,-0.23339 -0.434,-0.35996 -0.7178,-0.37465 z m 24.3065,0.0109 c -0.2633,0 -0.3318,0.0119 -0.4848,0.0837 -0.098,0.0459 -0.2404,0.14301 -0.3172,0.21601 -0.076,0.073 -0.1403,0.13229 -0.1483,0.13229 0,0 -0.011,-0.0827 -0.019,-0.18396 l -0.01,-0.18397 h -0.352 -0.3524 l -0.01,1.44849 -0.01,1.44849 h 0.3984 0.399 l 0.01,-0.9684 0.01,-0.96843 0.087,-0.14883 c 0.2095,-0.35631 0.7492,-0.38095 0.9209,-0.0419 0.039,0.077 0.049,0.28536 0.057,1.11104 l 0.01,1.01648 h 0.3824 0.3824 v -1.07072 c 0,-0.64979 -0.014,-1.13461 -0.035,-1.23301 -0.054,-0.25011 -0.2029,-0.44654 -0.4268,-0.56068 -0.1721,-0.0878 -0.2184,-0.0967 -0.4961,-0.0967 z m -19.8339,0.002 c -0.3298,-0.001 -0.3653,0.005 -0.5602,0.0982 -0.5262,0.25201 -0.7793,0.72972 -0.7793,1.45314 10e-4,0.29491 0.016,0.40892 0.073,0.57465 0.1767,0.51155 0.4606,0.77708 0.9431,0.8821 0.6651,0.14467 1.2893,-0.10229 1.5498,-0.61289 0.1224,-0.23979 0.1192,-0.24463 -0.1861,-0.28784 -0.4579,-0.0647 -0.4624,-0.0641 -0.556,0.0956 -0.1052,0.17968 -0.2595,0.25707 -0.4718,0.23667 -0.2993,-0.0288 -0.5072,-0.24397 -0.5571,-0.57721 l -0.023,-0.15142 h 0.9643 0.9638 v -0.2 c 0,-0.48628 -0.1768,-0.94049 -0.4646,-1.20354 -0.2588,-0.23661 -0.4594,-0.30546 -0.8955,-0.30747 z m 27.7218,0.002 c -0.4291,-6.1e-4 -0.4999,0.007 -0.6677,0.0739 -0.1067,0.0424 -0.243,0.12954 -0.3152,0.20204 -0.127,0.12702 -0.3395,0.52239 -0.3008,0.5607 0.023,0.0234 0.4748,0.10083 0.6031,0.10282 0.071,10e-4 0.1004,-0.0231 0.154,-0.12867 0.044,-0.0865 0.1035,-0.14602 0.1757,-0.17621 0.1442,-0.0603 0.4732,-0.0584 0.5922,0.003 0.1111,0.0575 0.1912,0.19765 0.1912,0.33486 0,0.12311 -0.023,0.13219 -0.6666,0.27493 -0.2697,0.0598 -0.5578,0.13877 -0.6403,0.17518 -0.1882,0.0831 -0.3485,0.23334 -0.4253,0.39894 -0.074,0.16049 -0.081,0.53528 -0.012,0.69919 0.1009,0.2414 0.331,0.4282 0.6155,0.50022 0.325,0.082 0.7755,-0.0259 1.065,-0.25527 l 0.1225,-0.0967 0.045,0.13644 0.045,0.13642 0.3736,0.009 c 0.2055,0.005 0.3737,10e-4 0.3737,-0.009 0,-0.01 -0.031,-0.10755 -0.07,-0.21704 -0.065,-0.18573 -0.066,-0.26037 -0.074,-1.11156 -0.01,-1.03447 -0.018,-1.11922 -0.2129,-1.33014 -0.2113,-0.22932 -0.3932,-0.28319 -0.9715,-0.28319 z m -39.965,0.0449 c -0.3321,0 -0.3869,0.008 -0.4129,0.0563 -0.042,0.0778 -0.5613,1.48765 -0.6305,1.71101 -0.032,0.10038 -0.067,0.17748 -0.079,0.16949 -0.012,-0.007 -0.053,-0.11869 -0.091,-0.24701 -0.039,-0.12832 -0.1898,-0.55729 -0.3364,-0.95343 l -0.2666,-0.72038 -0.4047,-0.009 c -0.2226,-0.005 -0.4051,-0.002 -0.4051,0.007 0,0.009 0.2401,0.61058 0.5333,1.33739 0.2932,0.72678 0.5548,1.37567 0.5808,1.44176 l 6e-4,-0.002 0.047,0.12039 h 0.3555 0.355 l 0.1029,-0.26356 c 0.057,-0.14486 0.3124,-0.79237 0.5684,-1.43867 0.256,-0.6463 0.4651,-1.18216 0.4651,-1.19216 0,-0.009 -0.1722,-0.0176 -0.3829,-0.0176 z m 37.2287,0 v 1.45675 1.45624 h 0.384 0.3839 v -1.45624 -1.45675 h -0.3839 z m -24.9003,0.54311 c 0.065,0.003 0.1277,0.0183 0.1809,0.046 0.181,0.0942 0.3261,0.33046 0.3261,0.5302 v 0.0972 h -0.5581 c -0.3071,0 -0.5652,-0.0116 -0.5741,-0.0258 -0.027,-0.0435 0.044,-0.30239 0.1131,-0.41444 0.094,-0.15164 0.3166,-0.24342 0.5121,-0.23308 z m -10.3937,0.003 c 0.3096,-0.0362 0.6022,0.19923 0.6315,0.54261 l 5e-4,-5.3e-4 0.01,0.11213 -0.5684,0.009 -0.5679,0.009 v -0.1049 c 0.001,-0.21477 0.168,-0.46165 0.3612,-0.53486 0.044,-0.0168 0.089,-0.0274 0.1333,-0.0325 z m 33.1717,10e-4 c 0.1158,0.007 0.2297,0.0435 0.3136,0.10747 0.22,0.16775 0.3181,0.5365 0.2698,1.01494 -0.036,0.35568 -0.1904,0.60897 -0.4243,0.69763 -0.2843,0.10716 -0.5956,-0.0357 -0.7457,-0.34314 -0.072,-0.14517 -0.1018,-0.78549 -0.048,-0.98702 0.05,-0.18381 0.1599,-0.33515 0.308,-0.42117 0.092,-0.0534 0.2103,-0.0757 0.3261,-0.0687 z m -39.4038,0.0258 c 0.1077,0.007 0.2151,0.0411 0.3136,0.1075 0.2264,0.15259 0.3113,0.33703 0.3277,0.71366 0.02,0.46329 -0.1264,0.78259 -0.4243,0.92396 -0.2464,0.11691 -0.5987,0.0288 -0.7839,-0.19585 -0.1697,-0.20637 -0.2367,-0.61053 -0.1597,-0.96946 0.079,-0.36941 0.4033,-0.59976 0.7266,-0.57981 z m 44.6681,0.97462 c 0.022,0.008 0.027,0.0541 0.027,0.18759 0,0.35145 -0.081,0.51255 -0.3198,0.63251 -0.062,0.031 -0.1478,0.0634 -0.1917,0.0724 -0.1053,0.0212 -0.3035,-0.0172 -0.369,-0.0713 -0.1383,-0.11462 -0.1838,-0.35624 -0.093,-0.49401 0.061,-0.0929 0.2021,-0.15139 0.5767,-0.23979 0.1572,-0.0372 0.3111,-0.0747 0.3416,-0.0847 0.012,-0.004 0.022,-0.005 0.029,-0.003 z"/>
  </g>
</svg>