<svg xmlns:dc="http://purl.org/dc/elements/1.1/" xmlns:cc="http://creativecommons.org/ns#" xmlns:rdf="http://www.w3.org/1999/02/22-rdf-syntax-ns#" xmlns:svg="http://www.w3.org/2000/svg" xmlns="http://www.w3.org/2000/svg" xmlns:sodipodi="http://sodipodi.sourceforge.net/DTD/sodipodi-0.dtd" xmlns:inkscape="http://www.inkscape.org/namespaces/inkscape" width="59.788399mm" height="8.691186mm" viewBox="0 0 59.788399 8.691186" version="1.1" id="svg3318" sodipodi:docname="multipage-export-tzgla6cx.svg">
  <defs id="defs3312"/>
  <sodipodi:namedview id="base" pagecolor="#ffffff" bordercolor="#666666" borderopacity="1.0" inkscape:pageopacity="0.0" inkscape:pageshadow="2" inkscape:zoom="0.18043338" inkscape:cx="2250.6913" inkscape:cy="446.75727" inkscape:document-units="mm" inkscape:current-layer="layer1" inkscape:document-rotation="0" showgrid="false" inkscape:window-width="1920" inkscape:window-height="1001" inkscape:window-x="-9" inkscape:window-y="-9" inkscape:window-maximized="1"/>
  <metadata id="metadata3315">
    <rdf:RDF>
      <cc:Work rdf:about="">
        <dc:format>image/svg+xml</dc:format>
        <dc:type rdf:resource="http://purl.org/dc/dcmitype/StillImage"/>
      </cc:Work>
    </rdf:RDF>
  </metadata>
  <g inkscape:label="Layer 1" inkscape:groupmode="layer" id="layer1" transform="translate(25.1873,105.28316)">
    <path style="display:inline;fill:#ffffff;fill-opacity:0.841629;stroke-width:0.0376481" d="m -16.1074,-96.62376 c -0.5563,-0.0772 -0.9439,-0.25428 -1.2655,-0.57809 -0.3415,-0.344 -0.4698,-0.68278 -0.4698,-1.24087 0,-0.71983 0.3128,-1.22069 0.9553,-1.52976 0.4138,-0.19903 0.9114,-0.31683 1.8307,-0.43334 0.9255,-0.11731 1.2344,-0.20229 1.3933,-0.3833 0.1954,-0.2225 0.1255,-0.50908 -0.1611,-0.66113 -0.135,-0.0716 -0.2166,-0.0843 -0.5357,-0.0833 -0.5017,0.002 -0.695,0.10628 -0.8125,0.43996 l -0.05,0.14117 h -1.1156 c -0.6136,0 -1.1239,-0.009 -1.134,-0.0183 -0.01,-0.0101 0,-0.14139 0.014,-0.29178 0.1079,-0.91432 0.8336,-1.45157 2.232,-1.65228 0.4022,-0.0577 1.6524,-0.0569 2.0518,0.002 0.9597,0.14006 1.5126,0.44796 1.778,0.98997 0.1937,0.39565 0.2174,0.6867 0.2176,2.67952 0,1.161 0.014,1.86326 0.04,1.95545 0.022,0.0791 0.1008,0.21115 0.1751,0.29342 0.087,0.0967 0.1222,0.16251 0.099,0.18611 -0.023,0.0225 -0.4976,0.0327 -1.2375,0.0266 l -1.2009,-0.01 -0.05,-0.26354 c -0.028,-0.14495 -0.058,-0.28499 -0.066,-0.31121 -0.01,-0.0306 -0.097,0.0172 -0.2416,0.13416 -0.3545,0.2856 -0.7982,0.48192 -1.2827,0.5675 -0.327,0.0577 -0.8992,0.0782 -1.1631,0.0416 z m 1.9845,-1.40626 c 0.2279,-0.11933 0.4151,-0.35118 0.4967,-0.61535 0.07,-0.22622 0.105,-0.72137 0.055,-0.77165 -0.011,-0.0114 -0.1004,0.009 -0.1977,0.0459 -0.097,0.0366 -0.3039,0.0956 -0.4593,0.13103 -0.6184,0.14099 -0.8288,0.21683 -0.9844,0.35499 -0.1269,0.11268 -0.1555,0.16467 -0.1722,0.31331 -0.034,0.30264 0.1182,0.5207 0.4174,0.59751 0.1965,0.0504 0.7061,0.0168 0.8448,-0.0557 z m 12.2995,1.40269 c -0.5411,-0.0669 -1.1031,-0.34165 -1.3645,-0.6669 -0.5583,-0.69471 -0.5013,-1.80173 0.122,-2.37143 0.3376,-0.30859 0.8942,-0.53251 1.6002,-0.6438 0.1346,-0.0213 0.5497,-0.08 0.9224,-0.13049 1.011,-0.13711 1.2612,-0.2579 1.2612,-0.60875 0,-0.33961 -0.343,-0.53261 -0.8846,-0.49785 -0.3466,0.0222 -0.5538,0.13208 -0.659,0.34944 -0.041,0.0855 -0.075,0.17561 -0.075,0.20013 0,0.0333 -0.2897,0.0446 -1.1526,0.0446 H -3.206 l 0.027,-0.25413 c 0.075,-0.70402 0.5173,-1.22093 1.266,-1.47893 0.4562,-0.15721 0.7987,-0.22065 1.4312,-0.26507 1.0372,-0.0728 2.0834,0.0566 2.6596,0.3292 0.2628,0.12433 0.5783,0.42713 0.6995,0.67125 0.2182,0.43985 0.2209,0.46903 0.246,2.69538 l 0.023,2.05535 0.1412,0.17223 c 0.078,0.0947 0.1412,0.19055 0.1412,0.21295 0,0.0284 -0.3706,0.0407 -1.221,0.0407 -1.3839,0 -1.2392,0.0395 -1.2851,-0.35124 -0.024,-0.20893 -0.1,-0.3149 -0.1613,-0.22741 -0.039,0.056 -0.3101,0.25437 -0.5205,0.38149 -0.2513,0.15183 -0.7318,0.29479 -1.1605,0.34528 -0.3818,0.045 -0.5264,0.0446 -0.9035,-0.002 z m 1.9954,-1.41635 c 0.3385,-0.17647 0.53,-0.52085 0.5727,-1.03018 0.031,-0.37204 0.019,-0.38836 -0.2232,-0.29956 -0.1094,0.0401 -0.4186,0.12632 -0.6872,0.19161 -0.5494,0.13358 -0.7335,0.21362 -0.8398,0.3651 -0.2198,0.31325 -0.093,0.68464 0.2809,0.82386 0.2098,0.078 0.703,0.0501 0.8966,-0.0508 z m 6.0426,1.43657 c -1.0752,-0.12438 -1.5891,-0.32116 -2.0527,-0.78599 -0.3451,-0.34604 -0.541,-0.75319 -0.5442,-1.13098 v -0.11294 l 1.1189,0.0188 1.1189,0.0188 0.032,0.16276 c 0.043,0.21591 0.2529,0.42766 0.4906,0.49423 0.2403,0.0673 0.6939,0.0359 0.8589,-0.0594 0.2571,-0.14844 0.333,-0.52855 0.1393,-0.69745 -0.1909,-0.16653 -0.4287,-0.24105 -1.3606,-0.42649 -0.7929,-0.15776 -1.4066,-0.39746 -1.7204,-0.67201 -0.4039,-0.3533 -0.588,-0.90938 -0.4911,-1.48361 0.1419,-0.84171 0.7628,-1.35734 1.9405,-1.61175 0.4428,-0.0956 1.4532,-0.089 1.9577,0.0129 0.8265,0.16681 1.3269,0.45563 1.6444,0.94903 0.118,0.18352 0.2569,0.58744 0.2569,0.74751 v 0.0996 l -1.0597,-0.008 -1.0597,-0.008 -0.098,-0.19699 c -0.1253,-0.2508 -0.2691,-0.33737 -0.5994,-0.36075 -0.4668,-0.033 -0.7388,0.11565 -0.7388,0.40385 0,0.26186 0.1868,0.37003 0.9395,0.54384 0.2277,0.0526 0.5666,0.1309 0.7529,0.17402 1.3073,0.30243 1.9089,0.7344 2.0894,1.50032 0.075,0.31832 0,0.8776 -0.1528,1.17844 -0.096,0.18664 -0.3548,0.48901 -0.5242,0.6134 -0.378,0.27744 -0.8738,0.46649 -1.4855,0.56637 -0.3461,0.0565 -1.2111,0.0988 -1.4516,0.0709 z m 6.7766,-0.0202 c -0.8461,-0.0968 -1.5997,-0.42794 -2.0765,-0.91239 -0.5982,-0.60762 -0.8525,-1.34759 -0.8106,-2.35857 0.037,-0.89787 0.3014,-1.58002 0.8165,-2.10761 0.6216,-0.63681 1.4958,-0.95471 2.6165,-0.95159 1.4543,0.004 2.5753,0.61552 3.0874,1.68393 0.2049,0.42742 0.2866,0.77175 0.3088,1.29997 0.068,1.63358 -0.7638,2.83238 -2.2291,3.21088 -0.636,0.1643 -1.1236,0.20284 -1.713,0.13538 z m 0.8793,-1.62855 c 0.4305,-0.17986 0.6407,-0.60713 0.6877,-1.3977 0.045,-0.76362 -0.2078,-1.42444 -0.6279,-1.63879 -0.3143,-0.16032 -0.8435,-0.0576 -1.097,0.2128 -0.3205,0.34186 -0.457,1.17339 -0.3097,1.88654 0.099,0.48076 0.3127,0.79555 0.6341,0.93551 0.152,0.0661 0.5561,0.0671 0.7128,0.002 z m 16.5384,1.6294 c -1.7815,-0.188 -2.871,-1.27864 -2.9489,-2.9518 -0.046,-0.99345 0.2732,-1.86303 0.9106,-2.47934 0.6848,-0.66222 1.8154,-1.00322 2.9553,-0.89138 1.2282,0.12049 2.1239,0.6142 2.5673,1.41503 0.1638,0.29589 0.3329,0.93419 0.2653,1.00174 -0.021,0.0214 -0.4992,0.0311 -1.1968,0.0242 l -1.1611,-0.0115 -0.068,-0.23078 c -0.082,-0.27785 -0.2918,-0.51602 -0.5079,-0.57602 -0.2392,-0.0664 -0.5714,-0.0495 -0.7528,0.0383 -0.354,0.17138 -0.5487,0.53831 -0.6205,1.16944 -0.1017,0.89507 0.1377,1.60208 0.6221,1.83655 0.1903,0.0921 0.5989,0.10619 0.7876,0.0271 0.2715,-0.11376 0.5527,-0.48258 0.5538,-0.72641 0,-0.0444 0.027,-0.091 0.06,-0.10353 0.033,-0.0126 0.5749,-0.0228 1.2047,-0.0228 1.3141,0 1.1957,-0.0425 1.0872,0.38987 -0.3153,1.25712 -1.2384,1.94517 -2.8068,2.09208 -0.4739,0.0444 -0.5237,0.0444 -0.9511,-6.2e-4 z m -55.593,-4.29058 v -4.14361 l 2.4001,0.0145 c 2.3064,0.0139 2.4144,0.0177 2.7669,0.0971 0.7041,0.15862 1.1877,0.38301 1.5498,0.71912 0.5464,0.50709 0.7893,1.11501 0.7908,1.97863 0,1.30604 -0.56,2.1829 -1.6777,2.61691 -0.4984,0.19351 -0.8135,0.23426 -2.0012,0.25881 l -1.1221,0.0232 v 1.22745 c 0,0.6751 -0.01,1.25535 -0.021,1.28945 -0.021,0.056 -0.1538,0.062 -1.3563,0.062 h -1.3325 z m 4.3484,-0.42477 c 0.3619,-0.11539 0.5897,-0.44113 0.5935,-0.84876 0,-0.28965 -0.063,-0.46516 -0.233,-0.61841 -0.2694,-0.24338 -0.4934,-0.29858 -1.2923,-0.3185 -0.6327,-0.0158 -0.706,-0.0113 -0.7067,0.0434 0,0.0336 0,0.45066 0,0.92691 0,0.47625 0,0.87639 0,0.8892 0,0.0128 0.3269,0.0149 0.7255,0.004 0.5155,-0.0132 0.7791,-0.0358 0.913,-0.0786 z m 10.3154,4.48363 c -0.011,-0.0466 -0.016,-1.39769 -0.01,-3.00245 l 0.01,-2.91773 1.0824,-0.01 1.0824,-0.01 v 0.45236 c 0,0.2488 0.01,0.45236 0.015,0.45236 0.01,0 0.1736,-0.15819 0.367,-0.35153 0.2802,-0.28014 0.4094,-0.37892 0.6358,-0.48635 0.5237,-0.24839 1.0369,-0.30091 1.6924,-0.17316 0.815,0.15885 1.3645,0.71497 1.5915,1.61078 0.078,0.3086 0.082,0.41394 0.094,2.42153 l 0.013,2.09889 h -1.188 -1.1879 v -1.63986 c 0,-1.84115 -0.02,-2.07241 -0.2041,-2.34531 -0.1507,-0.22368 -0.3081,-0.31119 -0.6019,-0.33477 -0.4798,-0.0385 -0.8174,0.1794 -0.942,0.60813 -0.053,0.1828 -0.061,0.44472 -0.06,1.9011 0,0.929 -0.01,1.71645 -0.022,1.74989 -0.021,0.0542 -0.1504,0.0608 -1.1857,0.0608 h -1.1624 z m 27.9632,-2.91774 0.01,-3.00244 1.0824,-0.01 1.0824,-0.01 v 0.45236 c 0,0.27647 0.014,0.45236 0.038,0.45236 0.021,0 0.038,-0.0135 0.038,-0.03 0,-0.0739 0.6046,-0.62852 0.8089,-0.74199 0.4094,-0.22745 0.6646,-0.29312 1.1488,-0.2956 0.7387,-0.003 1.3143,0.19905 1.6993,0.59887 0.2229,0.23143 0.283,0.32531 0.4205,0.65699 0.2055,0.49562 0.2144,0.61497 0.2144,2.86373 v 2.06819 h -1.1842 -1.1843 l -0.011,-1.85417 -0.011,-1.85418 -0.1025,-0.19435 c -0.056,-0.10689 -0.1507,-0.22871 -0.2097,-0.27071 -0.3571,-0.25423 -1.0216,-0.16774 -1.2447,0.162 -0.2112,0.312 -0.2111,0.31079 -0.2237,2.23253 l -0.012,1.77888 h -1.1841 -1.1841 z m 7.1532,0 0.01,-3.00244 1.1765,-0.01 1.1765,-0.01 v 3.01239 3.0124 h -1.1862 -1.1861 z m 9.2661,-2.41581 c -0.1721,-0.10492 -0.2397,-0.22245 -0.2396,-0.41618 0,-0.20459 0.1016,-0.38797 0.2599,-0.46982 0.3325,-0.17196 0.7186,0.0697 0.7186,0.44996 0,0.39113 -0.413,0.6348 -0.7389,0.43604 z m 0.487,-0.0476 c 0.1002,-0.0525 0.2142,-0.25923 0.2142,-0.38845 0,-0.13042 -0.114,-0.33557 -0.2171,-0.39075 -0.3126,-0.16733 -0.6862,0.0442 -0.6862,0.38856 0,0.35353 0.3651,0.5605 0.6891,0.39064 z m -0.4256,-0.38623 v -0.28458 h 0.148 c 0.201,0 0.3543,0.16699 0.226,0.2463 -0.022,0.0136 -0.029,0.0528 -0.016,0.0869 0.044,0.11089 0.052,0.19185 0.02,0.21126 -0.017,0.0104 -0.041,-0.0315 -0.053,-0.0933 -0.019,-0.095 -0.04,-0.11233 -0.1364,-0.11233 -0.096,0 -0.1139,0.0148 -0.1139,0.0919 0,0.0505 -0.017,0.10237 -0.038,0.11517 -0.024,0.0148 -0.038,-0.0812 -0.038,-0.26132 z m 0.3097,-0.0711 c 0.047,-0.0734 0.034,-0.10076 -0.067,-0.13912 -0.1496,-0.0569 -0.167,-0.0465 -0.167,0.0991 0,0.12928 0,0.1346 0.1032,0.10996 0.057,-0.0142 0.1158,-0.0457 0.1312,-0.07 z m -9.6295,-0.93919 c -0.01,-0.0264 -0.014,-0.40337 -0.01,-0.83768 l 0.01,-0.78963 1.1765,-0.01 1.1765,-0.01 v 0.84762 0.84762 h -1.1683 c -0.9125,0 -1.1723,-0.0105 -1.1867,-0.048 z" id="path26976"/>
  </g>
</svg>