<svg xmlns:dc="http://purl.org/dc/elements/1.1/" xmlns:cc="http://creativecommons.org/ns#" xmlns:rdf="http://www.w3.org/1999/02/22-rdf-syntax-ns#" xmlns:svg="http://www.w3.org/2000/svg" xmlns="http://www.w3.org/2000/svg" xmlns:sodipodi="http://sodipodi.sourceforge.net/DTD/sodipodi-0.dtd" xmlns:inkscape="http://www.inkscape.org/namespaces/inkscape" width="68.383171mm" height="13.453634mm" viewBox="0 0 68.383171 13.453634" version="1.1" id="svg3318" sodipodi:docname="multipage-export-tzgla6cx.svg">
  <defs id="defs3312"/>
  <sodipodi:namedview id="base" pagecolor="#ffffff" bordercolor="#666666" borderopacity="1.0" inkscape:pageopacity="0.0" inkscape:pageshadow="2" inkscape:zoom="0.18043338" inkscape:cx="2250.6913" inkscape:cy="446.75727" inkscape:document-units="mm" inkscape:current-layer="layer1" inkscape:document-rotation="0" showgrid="false" inkscape:window-width="1920" inkscape:window-height="1001" inkscape:window-x="-9" inkscape:window-y="-9" inkscape:window-maximized="1"/>
  <metadata id="metadata3315">
    <rdf:RDF>
      <cc:Work rdf:about="">
        <dc:format>image/svg+xml</dc:format>
        <dc:type rdf:resource="http://purl.org/dc/dcmitype/StillImage"/>
      </cc:Work>
    </rdf:RDF>
  </metadata>
  <g inkscape:label="Layer 1" inkscape:groupmode="layer" id="layer1" transform="translate(29.482969,17.06295)">
    <path id="path26952" style="display:inline;fill:#ffffff;fill-opacity:0.841629;stroke-width:1.1481" d="m -29.3939,-17.06295 -0.071,6.40977 c -0.039,3.52527 -0.013,6.56372 0.06,6.75203 0.1047,0.2723 2.5709,0.32795 12.0999,0.27246 l 11.9689,-0.0698 v -6.68222 -6.68221 H -17.364 Z m 36.2186,0.10966 -1.7618,0.0784 -1.7618,0.0792 -0.6242,1.46973 -0.6238,1.47019 -0.7077,-1.53658 -0.7072,-1.53701 -1.7182,-2.7e-4 -1.7173,2.7e-4 v 2.3612 c 0,1.29852 0.08,2.44098 0.1781,2.53897 0.098,0.0985 0.579,0.17858 1.0692,0.17862 h 0.8906 l 0.01,-1.67022 0.01,-1.67067 0.8615,1.60343 c 0.7766,1.44615 0.9532,1.61102 1.8001,1.68263 0.9075,0.0766 0.9674,0.0229 1.788,-1.60384 l 0.8494,-1.68222 0.016,1.67023 0.017,1.67066 h 1.0692 1.0688 v -2.5518 z m 2.5274,0.002 -0.9964,2.35264 c -0.5476,1.29413 -0.9964,2.4421 -0.9964,2.55053 0,0.39584 2.0777,0.20656 2.2349,-0.20346 0.109,-0.28331 0.5512,-0.40142 1.5075,-0.4014 0.9565,-8e-5 1.3982,0.11747 1.507,0.40096 0.1003,0.26126 0.5163,0.40075 1.1942,0.40094 0.5728,-3e-5 1.0409,-0.0363 1.0409,-0.0797 -10e-5,-0.0442 -0.477,-1.15653 -1.0593,-2.47257 l -1.0589,-2.39246 -1.6864,-0.078 z m 6.0265,0.0218 v 2.53897 2.53899 h 1.0688 c 0.9692,-3e-5 1.0687,-0.0634 1.0687,-0.68369 0,-0.62769 0.084,-0.67726 1.0024,-0.60145 0.8052,0.0665 1.0192,0.20117 1.0881,0.68369 0.072,0.50841 0.2498,0.60101 1.1442,0.60145 1.2339,0 1.5721,-0.49516 0.9681,-1.41708 -0.343,-0.52386 -0.3472,-0.68268 -0.029,-1.11762 0.5174,-0.70808 0.4633,-1.38265 -0.1632,-2.00906 -0.4667,-0.46683 -0.8911,-0.5342 -3.3412,-0.5342 z m 7.4841,0 v 2.00481 c 0,1.64828 0.095,2.09941 0.5348,2.53895 v 7.7e-4 c 0.4506,0.45065 0.8907,0.53404 2.8065,0.53374 3.0342,-3e-5 3.341,-0.28187 3.341,-3.07314 v -2.00479 h -1.0574 -1.0562 l -0.079,1.8043 -0.079,1.80432 -1.0693,-2.8e-4 -1.0692,2.8e-4 -0.079,-1.80432 -0.079,-1.8043 h -1.0573 z m 10.2904,0 c -2.8955,-7e-5 -3.0737,0.031 -3.0737,0.53461 3e-4,0.43266 0.1783,0.53432 0.9331,0.53847 l 0.9357,2.7e-4 v 1.82573 c 0,1.00463 0.08,1.90672 0.1776,2.00479 0.099,0.0982 0.574,0.17821 1.0573,0.17821 h 0.8794 l 0.079,-1.93797 0.079,-1.93797 1.0025,-0.0822 c 0.7852,-0.0651 1.0023,-0.19521 1.0023,-0.60145 -10e-5,-0.48301 -0.2103,-0.51825 -3.0741,-0.51831 z m 3.6086,0 v 2.53942 2.53854 h 1.0692 1.0693 v -2.53899 -2.53897 h -1.0693 z m -65.7538,0.26731 h 11.6271 11.6274 v 6.28126 6.28124 H -17.365 -28.9925 v -6.28144 z m 17.6163,0.8019 c -0.1218,-2.7e-4 -1.1934,0.66157 -2.3806,1.47021 -1.1873,0.80857 -2.2747,1.4698 -2.4162,1.46973 -0.6522,1.3e-4 -0.047,0.61886 2.6166,2.67691 3.5036,2.70612 3.4088,2.62352 3.2103,2.82214 -0.089,0.0893 -0.8276,-0.32967 -1.6413,-0.93129 -1.0878,-0.80395 -1.7344,-1.09319 -2.4437,-1.09322 -1.0277,5e-5 -1.9985,0.39095 -1.9985,0.8045 0,0.13791 1.0404,1.03582 2.3124,1.99538 1.2723,0.95933 2.3645,1.74394 2.4282,1.74389 0.065,-2.2e-4 0.797,-0.52778 1.6298,-1.17331 0.833,-0.64557 1.9057,-1.37051 2.3836,-1.61067 0.4777,-0.24015 0.8685,-0.53916 0.8688,-0.66441 0,-0.12548 -1.3837,-1.26707 -3.0741,-2.53684 -1.6906,-1.26995 -3.0741,-2.43448 -3.0741,-2.58783 0,-0.34007 0.2974,-0.16743 1.9608,1.14333 0.8361,0.65723 1.5732,1.0169 2.0845,1.01697 0.9619,4e-5 2.52,-0.75949 2.1987,-1.07221 -0.6259,-0.60944 -4.4733,-3.47163 -4.6666,-3.47155 z m 29.3504,0.0241 v 0 c 0.1367,-0.003 0.3145,0.008 0.5439,0.0265 0.8052,0.0665 1.0191,0.20132 1.0872,0.68496 0.076,0.53878 -0.027,0.60149 -1.0023,0.60143 -0.9887,8e-5 -1.0877,-0.0622 -1.0872,-0.68494 0,-0.4706 0.046,-0.61676 0.4579,-0.62801 z m -46.0337,0.14136 -0.082,1.12621 c -0.074,1.00633 0.053,1.28892 1.1896,2.6572 l 1.272,1.53059 -1.2,-1.13606 c -0.6597,-0.62478 -1.2855,-1.136 -1.39,-1.13605 -0.1049,-2.3e-4 -0.1905,0.41105 -0.1902,0.91287 0,0.6989 0.3202,1.30773 1.3695,2.60579 l 1.3694,1.6938 -1.2503,-1.26971 c -0.6881,-0.6983 -1.3042,-1.26971 -1.3695,-1.26968 -0.2753,-3e-5 -0.086,1.79427 0.2584,2.45458 0.3228,0.61523 0.3226,0.6965 0,0.57274 -0.4795,-0.18496 -0.5273,1.52539 -0.055,1.99793 v 2.8e-4 c 0.3385,0.33864 1.8176,0.45092 1.8176,0.13795 0,-0.10053 -0.2698,-0.4917 -0.599,-0.86875 -0.3889,-0.44503 -0.2717,-0.38753 0.3343,0.16494 0.9122,0.8318 0.9898,0.85327 3.5015,0.85331 h 2.5688 l 1.2398,-1.43677 c 1.1114,-1.28737 1.2406,-1.56988 1.2303,-2.72361 l -0.01,-1.28769 -1.1875,1.33609 c -0.6527,0.73511 -1.1927,1.25086 -1.1924,1.14548 0,-0.10564 0.5353,-0.80165 1.1972,-1.54642 1.0676,-1.20199 1.1978,-1.49585 1.1978,-2.61481 l -0.012,-1.26069 -1.1861,1.33652 c -0.6532,0.73496 -1.1877,1.25003 -1.1977,1.14462 -0.01,-0.10471 0.5311,-0.80064 1.1924,-1.54558 1.0048,-1.1313 1.203,-1.53233 1.203,-2.4366 0,-0.59532 -0.1004,-1.04184 -0.2237,-0.9934 -0.4792,0.19099 -4.3166,4.7176 -4.6243,5.45536 -0.29,0.69424 -0.3369,0.71952 -0.4248,0.22233 -0.055,-0.30751 -1.1456,-1.74365 -2.4247,-3.19182 z m 39.0952,7.6e-4 0.4229,0.81821 c 0.2322,0.45006 0.3476,0.89416 0.2557,0.98612 -0.2334,0.23245 -1.0925,0.21001 -1.2287,-0.033 -0.061,-0.11026 0.036,-0.55421 0.219,-0.98612 z m -9.8006,4.95374 c -2.1789,-0.0563 -3.7657,0.87834 -3.7655,2.33207 -2e-4,1.08139 1.0079,1.82284 2.7787,2.04421 1.6116,0.20134 2.1821,0.46909 1.9167,0.8983 -0.2562,0.41535 -1.022,0.37038 -1.6377,-0.0951 -0.2852,-0.21627 -1.0902,-0.40094 -1.7884,-0.40094 -1.0591,-0.008 -1.2697,0.0732 -1.2697,0.48449 0,0.61357 0.7709,1.33108 1.7755,1.6531 v -2.8e-4 c 1.0259,0.3288 3.6634,0.0954 4.6423,-0.4108 C 5.3889,-5.01176 5.193,-7.01948 3.5502,-7.68967 3.073,-7.88478 2.1103,-8.12536 1.4123,-8.22644 0.5705,-8.34775 0.1428,-8.53911 0.1426,-8.79404 c 2e-4,-0.51848 1.1771,-0.49684 1.6142,0.0296 0.4113,0.49599 2.694,0.43793 2.8618,-0.0724 0.2004,-0.60951 -1.1537,-1.62783 -2.4163,-1.81715 -0.3325,-0.0499 -0.6558,-0.0782 -0.9668,-0.0861 z m 29.3465,0.19534 -1.1201,0.0818 -1.12,0.0818 -0.077,2.92321 c -0.041,1.60759 -0.016,3.08088 0.059,3.27409 0.081,0.20976 0.5687,0.35156 1.2125,0.35169 l 1.0773,-2.7e-4 v -1.12406 -1.12534 l 1.1462,1.12493 c 1.0506,1.03087 1.262,1.12447 2.5392,1.12447 0.7664,1.2e-4 1.3934,-0.0936 1.3934,-0.20906 -3e-4,-0.11557 -0.6622,-0.8639 -1.4715,-1.66293 l -1.471,-1.45263 1.6638,-1.67837 1.6638,-1.67923 h -1.3662 c -1.2022,0 -1.5223,0.12966 -2.6653,1.07609 l -1.2989,1.07565 -0.083,-1.09021 z m -10.6596,0.0142 -3.4081,0.0749 -3.4077,0.0749 -0.085,0.73508 c -0.084,0.73509 -0.075,0.73508 1.537,0.73509 0.8916,-3e-5 1.6213,0.0939 1.6213,0.20864 2e-4,0.11564 -0.7213,0.92289 -1.6033,1.79572 -1.1956,1.18288 -1.6039,1.77675 -1.6039,2.33079 v 0.74324 h 3.4746 3.475 v -0.80193 -0.80191 h -1.6629 -1.6625 l 1.6625,-1.67794 c 1.3543,-1.36641 1.6627,-1.83892 1.6629,-2.54712 z m 0.8019,0.0158 v 2.9078 c 0,3.24538 0.1,3.45415 1.8179,3.78812 2.2541,0.43845 4.3826,0.0839 4.8608,-0.80962 0.1489,-0.27778 0.2704,-1.71548 0.2704,-3.19524 v -2.69061 l -1.0692,-2.8e-4 h -1.0691 v 2.13845 c -3e-4,1.79966 -0.087,2.22523 -0.548,2.68675 -0.3842,0.38407 -0.7244,0.4931 -1.1361,0.36455 -0.8795,-0.27421 -0.9848,-0.57979 -0.9848,-2.98448 v -2.20483 h -1.0688 z m -15.2356,2.8e-4 v 2.90695 c 0,3.24202 0.096,3.44257 1.8184,3.80395 0.5437,0.11389 1.65,0.16036 2.4585,0.10282 1.1771,-0.0838 1.5899,-0.24376 2.0715,-0.80149 0.5367,-0.62169 0.6012,-0.98301 0.6016,-3.35459 v -2.65764 h -1.0692 -1.0692 v 1.57 c 0,3.0985 -0.5457,4.06333 -1.9874,3.51522 C 7.6466,-5.6827 7.6278,-5.75878 7.6275,-8.10209 V -10.5147 H 6.5583 Z m 31.0057,0 v 3.34089 3.34132 h 1.203 1.2028 v -3.34132 -3.34089 h -1.2028 z m -54.5205,3.55679 c -0.2347,0.0288 -0.6444,0.42164 -1.2895,1.20286 l -0.9255,1.12107 h 0.9607 c 1.0615,-10e-6 1.5144,-0.52084 1.5144,-1.7422 -2e-4,-0.40646 -0.077,-0.60414 -0.2601,-0.58173 z"/>
  </g>
</svg>