<svg xmlns:dc="http://purl.org/dc/elements/1.1/" xmlns:cc="http://creativecommons.org/ns#" xmlns:rdf="http://www.w3.org/1999/02/22-rdf-syntax-ns#" xmlns:svg="http://www.w3.org/2000/svg" xmlns="http://www.w3.org/2000/svg" xmlns:sodipodi="http://sodipodi.sourceforge.net/DTD/sodipodi-0.dtd" xmlns:inkscape="http://www.inkscape.org/namespaces/inkscape" width="45.911354mm" height="20.664171mm" viewBox="0 0 45.911354 20.664171" version="1.1" id="svg3318" sodipodi:docname="multipage-export-tzgla6cx.svg">
  <defs id="defs3312"/>
  <sodipodi:namedview id="base" pagecolor="#ffffff" bordercolor="#666666" borderopacity="1.0" inkscape:pageopacity="0.0" inkscape:pageshadow="2" inkscape:zoom="0.18043338" inkscape:cx="2250.6913" inkscape:cy="446.75727" inkscape:document-units="mm" inkscape:current-layer="layer1" inkscape:document-rotation="0" showgrid="false" inkscape:window-width="1920" inkscape:window-height="1001" inkscape:window-x="-9" inkscape:window-y="-9" inkscape:window-maximized="1"/>
  <metadata id="metadata3315">
    <rdf:RDF>
      <cc:Work rdf:about="">
        <dc:format>image/svg+xml</dc:format>
        <dc:type rdf:resource="http://purl.org/dc/dcmitype/StillImage"/>
      </cc:Work>
    </rdf:RDF>
  </metadata>
  <g inkscape:label="Layer 1" inkscape:groupmode="layer" id="layer1" transform="translate(114.31625,64.45585)">
    <path id="path26964" style="display:inline;fill:#ffffff;fill-opacity:0.841629;stroke-width:1.33877" d="m -104.1835,-64.45551 c -0.1119,-8.7e-4 -0.2238,2.8e-4 -0.3358,0.003 -2.1505,0.0586 -4.3089,0.82704 -6.1123,2.37552 -3.4107,2.9287 -4.5676,7.45811 -2.9901,11.70873 1.1262,3.03468 4.0595,5.62957 7.1598,6.33361 6.2373,1.41632 12.2645,-3.54357 12.2534,-10.08333 -0.01,-1.89966 -0.3411,-3.19894 -1.3096,-5.03717 -1.7972,-3.4104 -5.1959,-5.27617 -8.6654,-5.3007 z m -0.3582,1.69547 c 0.076,-0.003 0.1462,-0.002 0.2097,0.002 0.4233,0.0211 0.5666,0.16111 0.5239,0.44088 -0.045,0.29566 -0.2039,0.35363 -1.2348,0.44907 -3.8755,0.35887 -6.7622,3.66276 -6.7622,7.73936 0,3.56796 2.0244,6.40772 5.3109,7.44861 0.901,0.28539 1.3706,0.33458 2.6346,0.27664 1.9552,-0.0897 3.1201,-0.55863 4.5381,-1.82609 1.4677,-1.31205 2.3189,-2.86421 2.6407,-4.81698 l 0.1113,-0.6762 -2.6198,-0.0445 c -2.4903,-0.0421 -2.6201,-0.06 -2.6201,-0.3644 0,-0.30618 0.1291,-0.32213 2.9474,-0.36389 l 2.9475,-0.0442 v 0.93101 c 0,3.39593 -2.5974,6.74899 -5.9958,7.74013 -1.2113,0.35333 -3.4578,0.39243 -4.5124,0.0785 -3.6898,-1.09819 -6.2252,-4.47122 -6.2343,-8.2939 0,-1.50893 0.2663,-2.56566 1.044,-4.09205 1.2327,-2.41968 3.5755,-4.1197 6.1964,-4.49622 0.3571,-0.0513 0.6456,-0.0811 0.8749,-0.0875 z m 30.9311,1.56819 c -1.7222,0.0259 -3.463,0.56755 -4.5676,1.6416 -1.2858,1.25024 -1.9988,3.72387 -1.7695,6.13882 0.3267,3.44156 1.4872,5.02991 4.2808,5.86014 1.6288,0.48394 4.4808,0.18218 6.3649,-0.6731 l 0.8971,-0.407 v -3.27086 -3.2706 h -2.6482 -2.6486 v 1.28104 1.28104 h 1.1961 1.1959 l 3e-4,1.18813 v 1.1879 l -0.5553,0.11497 c -0.3057,0.063 -1.0753,0.11145 -1.71,0.10778 -1.6222,-0.009 -2.2891,-0.36268 -2.9464,-1.56153 -0.475,-0.86654 -0.51,-1.05843 -0.51,-2.62726 0.01,-1.85763 0.207,-2.62663 0.9013,-3.39969 0.6048,-0.67364 1.3502,-0.93491 2.6677,-0.93486 1.3156,-10e-6 1.8897,0.17957 2.5866,0.80938 l 0.5198,0.46936 0.9105,-0.86429 c 0.8479,-0.80462 0.8942,-0.88741 0.6647,-1.19457 -0.9508,-1.27208 -2.8785,-1.90554 -4.8301,-1.87613 z m -15.9817,0.24226 v 6.73392 l 2e-4,6.73367 4.5707,-0.0426 4.5706,-0.0428 3e-4,-1.28052 -3e-4,-1.28104 -3.0305,-0.0436 -3.0306,-0.0439 -0.046,-5.32022 -0.046,-5.32047 -1.4949,-0.0462 z m -15.0371,2.23154 0.3845,0.0513 0.3845,0.0513 0.046,4.12309 0.046,4.12308 h 0.937 c 0.8854,3e-5 0.9368,0.022 0.9368,0.40033 l -2e-4,2.6e-4 c 0,0.39368 -0.023,0.4003 -1.367,0.40033 h -1.3667 v -4.57474 z m -2.6765,0.0388 c 0.2026,0.0128 0.3676,0.12584 0.5967,0.35465 0.5418,0.54048 0.5042,1.42956 -0.079,1.8592 -0.5416,0.39914 -0.7218,0.4104 -1.2316,0.0757 -0.8326,-0.54659 -0.79,-1.75414 0.075,-2.12354 0.2291,-0.0978 0.4014,-0.15432 0.5491,-0.16499 v -2.6e-4 c 0.031,-0.003 0.061,-0.003 0.089,-8.7e-4 z"/>
  </g>
</svg>