<svg xmlns:dc="http://purl.org/dc/elements/1.1/" xmlns:cc="http://creativecommons.org/ns#" xmlns:rdf="http://www.w3.org/1999/02/22-rdf-syntax-ns#" xmlns:svg="http://www.w3.org/2000/svg" xmlns="http://www.w3.org/2000/svg" xmlns:sodipodi="http://sodipodi.sourceforge.net/DTD/sodipodi-0.dtd" xmlns:inkscape="http://www.inkscape.org/namespaces/inkscape" width="40.688801mm" height="40.688702mm" viewBox="0 0 40.688801 40.688701" version="1.1" id="svg2576" sodipodi:docname="multipage-export-elcw4y4r.svg">
  <defs id="defs2570">
    <rect x="-1893.2883" y="-1487.8069" width="81.741173" height="50.455036" id="rect10831"/>
  </defs>
  <sodipodi:namedview id="base" pagecolor="#ffffff" bordercolor="#666666" borderopacity="1.0" inkscape:pageopacity="0.0" inkscape:pageshadow="2" inkscape:zoom="0.36086675" inkscape:cx="1524.7728" inkscape:cy="952.87288" inkscape:document-units="mm" inkscape:current-layer="layer1" inkscape:document-rotation="0" showgrid="false" inkscape:window-width="1920" inkscape:window-height="1001" inkscape:window-x="-9" inkscape:window-y="-9" inkscape:window-maximized="1"/>
  <metadata id="metadata2573">
    <rdf:RDF>
      <cc:Work rdf:about="">
        <dc:format>image/svg+xml</dc:format>
        <dc:type rdf:resource="http://purl.org/dc/dcmitype/StillImage"/>
      </cc:Work>
    </rdf:RDF>
  </metadata>
  <g inkscape:label="Layer 1" inkscape:groupmode="layer" id="layer1" transform="translate(223.941,22.1993)">
    <path id="path11186" style="font-variation-settings:'wght' 600;display:inline;fill:#54a191;fill-opacity:1;stroke:none;stroke-width:1.08039" d="m -223.9407,-21.7444 c 0,13.4113 0,26.8225 0,40.2338 4.0564,0 8.1127,0 12.169,0 -1.4888,-2.6634 -3.1061,-5.2612 -4.4539,-7.9997 -0.7997,-1.7282 -1.3093,-3.8981 -0.3161,-5.652 1.1886,-1.9478 3.9199,-2.5286 5.8983,-1.488 1.2141,0.8266 2.3126,1.8359 3.4815,2.734 0.082,-4.0855 0.2291,-8.1721 0.2724,-12.2569 0,-2.4282 -0.095,-4.8794 0.2732,-7.2884 0.5563,-2.5377 3.6459,-4.0525 6.0048,-2.9848 1.4966,0.5888 2.6655,2.0456 2.6525,3.6932 0.228,2.2256 0.018,4.4634 0.07,6.6948 0.98,-0.2164 2.0271,-0.3815 2.963,0.094 0.7965,0.2448 1.5304,0.6523 2.051,1.3174 0.4111,0.3805 0.709,0.8891 0.7944,1.4172 0.4,0.4732 1.0823,0.059 1.6138,0.1071 1.7529,-0.2986 3.4567,0.9535 4.2077,2.4769 0.077,0.5144 0.6271,0.9657 1.1267,0.6543 0.6106,-0.1858 1.252,-0.1411 1.8802,-0.1142 0,-7.3645 0,-14.7291 0,-22.0936 -13.563,0 -27.1258,0 -40.6888,0 0,0.1516 0,0.3032 0,0.4549 z m 35.6006,3.0536 c 0.1142,0.3755 0.9135,0.88 0.3277,1.1523 -1.6642,1.3681 -3.3776,2.7186 -5.337,3.6421 -0.7703,-0.099 -0.8539,-1.046 -1.2793,-1.5509 -0.4453,-0.3903 0.1078,-0.7072 0.4449,-0.8966 1.7898,-0.9989 3.4854,-2.1539 5.231,-3.2265 0.2042,0.2932 0.4084,0.5864 0.6127,0.8796 z m -14.7778,5.0966 c -0.8841,0.7168 -0.6663,2.0139 -0.7396,3.0226 -0.2198,7.4554 -0.1797,14.9191 -0.4595,22.3732 0.1326,1.2471 -1.8364,2.1252 -2.5065,0.9278 -0.8759,-1.3668 -1.5054,-2.8881 -2.4773,-4.2003 -0.7823,-1.0953 -1.772,-2.1514 -3.0463,-2.643 -0.8096,-0.297 -1.9048,0.3409 -1.6991,1.2759 0.1759,2.1777 1.6071,3.9597 2.5982,5.8263 1.0585,1.8331 2.1153,3.667 3.1748,5.4995 8.3399,0 16.6797,0 25.0196,0 0,-5.1554 0,-10.3107 0,-15.4661 -0.6945,-0.2405 -1.653,-0.1918 -2.0694,0.4756 -0.4602,2.1007 -0.2725,4.2664 -0.4052,6.3987 -0.047,1.0411 0.045,2.1882 -0.4783,3.1191 -0.9064,0.9236 -2.8571,0.1487 -2.65,-1.2133 -0.1449,-3.401 0.1122,-6.8072 -0.01,-10.207 -0.05,-0.689 -0.1973,-1.5985 -1.019,-1.7324 -0.6444,-0.1407 -1.4287,0.1496 -1.7647,0.6948 -0.3694,3.4145 -0.2276,6.8591 -0.4104,10.284 -0.1371,0.8017 0.055,1.9144 -0.8331,2.3351 -0.8765,0.4762 -2.2272,-0.1964 -2.0649,-1.2728 -0.064,-4.6775 0.2651,-9.3608 -0.01,-14.034 -0.057,-1.0671 -1.4751,-1.3419 -2.2476,-0.8402 -0.5669,0.2099 -0.3779,0.9757 -0.5347,1.4599 -0.2976,3.8258 -0.1447,7.6726 -0.3441,11.5043 -0.1597,0.9703 0.1804,2.2936 -0.7135,3.0116 -0.8113,0.6631 -2.336,0.067 -2.2039,-1.0646 -0.1807,-4.2014 0,-8.4098 0.034,-12.6134 0.032,-3.9184 0.1939,-7.8426 0.069,-11.7577 -0.016,-0.8149 -0.7198,-1.4547 -1.5286,-1.4395 -0.3506,4e-4 -1.5774,-0.4541 -0.859,0.1013 0.058,0.058 0.1164,0.1164 0.1745,0.1746 z m 14.5293,3.5085 c -0.15,0.7185 -0.2999,1.437 -0.4498,2.1554 -0.8668,0.1743 -1.5599,-0.5546 -2.3401,-0.8021 -1.0884,-0.5087 -2.1768,-1.0174 -3.2652,-1.5262 0.2524,-0.484 0.5047,-0.968 0.7571,-1.4521 1.766,0.5417 3.532,1.0833 5.298,1.625 z"/>
  </g>
</svg>