<svg xmlns:dc="http://purl.org/dc/elements/1.1/" xmlns:cc="http://creativecommons.org/ns#" xmlns:rdf="http://www.w3.org/1999/02/22-rdf-syntax-ns#" xmlns:svg="http://www.w3.org/2000/svg" xmlns="http://www.w3.org/2000/svg" xmlns:sodipodi="http://sodipodi.sourceforge.net/DTD/sodipodi-0.dtd" xmlns:inkscape="http://www.inkscape.org/namespaces/inkscape" width="40.695335mm" height="40.688702mm" viewBox="0 0 40.695335 40.688701" version="1.1" id="svg2576" sodipodi:docname="multipage-export-elcw4y4r.svg">
  <defs id="defs2570">
    <rect x="-1893.2883" y="-1487.8069" width="81.741173" height="50.455036" id="rect10831"/>
  </defs>
  <sodipodi:namedview id="base" pagecolor="#ffffff" bordercolor="#666666" borderopacity="1.0" inkscape:pageopacity="0.0" inkscape:pageshadow="2" inkscape:zoom="0.36086675" inkscape:cx="1524.7728" inkscape:cy="952.87288" inkscape:document-units="mm" inkscape:current-layer="layer1" inkscape:document-rotation="0" showgrid="false" inkscape:window-width="1920" inkscape:window-height="1001" inkscape:window-x="-9" inkscape:window-y="-9" inkscape:window-maximized="1"/>
  <metadata id="metadata2573">
    <rdf:RDF>
      <cc:Work rdf:about="">
        <dc:format>image/svg+xml</dc:format>
        <dc:type rdf:resource="http://purl.org/dc/dcmitype/StillImage"/>
      </cc:Work>
    </rdf:RDF>
  </metadata>
  <g inkscape:label="Layer 1" inkscape:groupmode="layer" id="layer1" transform="translate(223.9406,-163.2349)">
    <path id="rect11305-7" style="font-variation-settings:'wght' 600;display:inline;fill:#54a191;fill-opacity:1;stroke:none;stroke-width:1.08039" d="m -223.9406,163.6899 c 0,13.4112 0,26.8225 0,40.2337 3.6988,0 7.3976,0 11.0964,0 -0.2091,-0.6415 -0.2814,-1.3105 -0.2711,-1.9739 -0.1874,-0.7002 -0.2871,-1.4308 -0.1285,-2.1473 -1.4425,-0.2945 -2.6069,-1.8505 -2.1314,-3.3156 0.5111,-1.5176 1.9849,-2.4315 2.6955,-3.8257 0.3948,-1.3844 -0.043,-2.8602 0.3391,-4.2554 0.7317,-3.4097 3.0251,-6.3744 6.024,-8.116 2.4533,-1.4743 5.2953,-2.2906 8.1596,-2.31 1.6566,-0.067 3.1657,0 4.7472,0.4577 0.776,0.1558 1.993,0.1637 2.1975,-0.8125 0.064,-0.835 -0.6314,-1.5087 -0.5979,-2.3537 -0.1845,-3.5596 2.6569,-6.996 6.1661,-7.5575 0.8072,-0.064 1.5746,-0.1001 2.3922,-0.1007 0,-1.4594 0,-2.9187 0,-4.3781 -13.5629,0 -27.1258,0 -40.6887,0 0,0.1517 0,0.3034 0,0.455 z m 39.292,7.1983 c -1.8335,-0.061 -3.4413,1.5261 -3.5453,3.329 -0.1678,1.1424 0.2146,2.2876 0.9306,3.1795 0.4467,0.7542 1.4716,1.4142 1.2013,2.4055 -0.3305,0.5577 -0.7288,1.3313 -1.4672,1.3363 -1.7246,-0.7499 -3.6678,-0.5359 -5.4888,-0.4102 -1.7638,0.2594 -3.7402,0.8701 -4.6202,2.5701 -0.5671,0.6769 -0.3015,0.6754 0.3825,0.333 0.9189,-0.4138 1.8755,-0.8667 2.9179,-0.7313 3.0858,0.2598 5.8144,2.2622 8.973,2.0779 0.7219,-0.039 1.4629,-0.1288 2.1129,-0.467 -0.028,-1.2166 0.054,-2.4601 -0.04,-3.6601 -0.3636,-0.5635 -0.3584,-1.3264 0.04,-1.8712 0,-2.6844 0,-5.3686 0,-8.0529 -0.4654,-0.02 -0.9307,-0.053 -1.3967,-0.039 z m -15.6607,11.8887 c -0.8845,0.3528 -1.7655,0.7976 -2.6658,1.0609 -0.5913,-0.3549 -1.0132,-0.9273 -1.5931,-1.3026 -0.9793,0.8804 -1.9039,1.8163 -2.832,2.7497 0.3999,0.5838 1.0462,0.9635 1.3883,1.583 -0.2232,0.6972 -0.4743,1.4519 -0.9417,2.0095 -0.6562,0.2338 -1.3693,0.049 -2.0498,0.077 0,1.3621 0,2.724 0,4.086 0.6829,0.1813 1.4043,0.01 2.0783,0.1948 0.4274,0.6232 0.61,1.3663 0.9015,2.0547 -0.603,0.5802 -1.2498,1.5185 -0.6799,2.3384 0.6167,0.7936 1.4126,1.422 2.0783,2.1723 0.5303,-0.5222 1.0609,-1.0442 1.5913,-1.5662 0.6979,0.2955 1.3956,0.5909 2.0934,0.8863 0.076,0.6328 0.077,1.2713 0.1125,1.9071 1.3482,0.2624 2.7235,0.1203 4.086,0.1645 0.1573,-0.6747 -0.1434,-1.4279 0.1628,-2.0565 0.6276,-0.4106 1.35,-0.6395 2.0648,-0.846 0.5353,0.4231 0.9478,0.9807 1.5059,1.3799 0.9417,-0.9335 1.8823,-1.8683 2.7664,-2.8572 -0.3483,-0.6035 -1.0009,-0.9553 -1.3329,-1.5596 0.1468,-0.7118 0.4992,-1.4118 0.9368,-1.9691 0.6581,-0.2622 1.389,-0.1722 2.0732,-0.3273 0,-1.3245 0,-2.6491 0,-3.9736 -0.7509,0 -1.5019,0 -2.2528,0 -0.2354,-0.6926 -0.7207,-1.3589 -0.7252,-2.095 0.3374,-0.7885 -0.054,-1.7523 -0.8758,-2.0362 -1.1371,-0.4712 -2.6641,-0.8279 -3.6469,0.1505 -0.6987,0.6992 -0.7644,1.9024 -0.3255,2.7414 0.6434,0.8796 1.6737,1.7067 1.5034,2.9224 0.016,0.9016 0.078,1.8804 -0.5378,2.6218 -0.7727,1.2041 -2.1921,1.916 -3.62,1.8141 -2.6603,0.015 -4.7009,-3.1941 -3.4898,-5.5909 0.5329,-1.1711 1.6073,-2.0176 2.7986,-2.4535 0.014,-1.5183 0.043,-3.0364 0.074,-4.5543 -0.2155,0.091 -0.4309,0.1823 -0.6463,0.2735 z m 16.1627,11.9289 c -0.5113,2.4038 -2.0672,4.3533 -3.2287,6.4582 -0.4497,0.8431 -0.6118,1.8138 -0.4863,2.7596 1.5366,0 3.0732,0 4.6097,0 -0.013,-3.0605 0.027,-6.1273 -0.02,-9.1838 -0.15,-0.3267 -0.1744,-1.6123 -0.4779,-0.7688 -0.1323,0.245 -0.2646,0.4899 -0.3969,0.7348 z"/>
  </g>
</svg>