<svg xmlns:dc="http://purl.org/dc/elements/1.1/" xmlns:cc="http://creativecommons.org/ns#" xmlns:rdf="http://www.w3.org/1999/02/22-rdf-syntax-ns#" xmlns:svg="http://www.w3.org/2000/svg" xmlns="http://www.w3.org/2000/svg" xmlns:sodipodi="http://sodipodi.sourceforge.net/DTD/sodipodi-0.dtd" xmlns:inkscape="http://www.inkscape.org/namespaces/inkscape" width="40.726727mm" height="40.914101mm" viewBox="0 0 40.726727 40.9141" version="1.1" id="svg2576" sodipodi:docname="multipage-export-elcw4y4r.svg">
  <defs id="defs2570">
    <rect x="-1893.2883" y="-1487.8069" width="81.741173" height="50.455036" id="rect10831"/>
  </defs>
  <sodipodi:namedview id="base" pagecolor="#ffffff" bordercolor="#666666" borderopacity="1.0" inkscape:pageopacity="0.0" inkscape:pageshadow="2" inkscape:zoom="0.36086675" inkscape:cx="1524.7728" inkscape:cy="952.87288" inkscape:document-units="mm" inkscape:current-layer="layer1" inkscape:document-rotation="0" showgrid="false" inkscape:window-width="1920" inkscape:window-height="1001" inkscape:window-x="-9" inkscape:window-y="-9" inkscape:window-maximized="1"/>
  <metadata id="metadata2573">
    <rdf:RDF>
      <cc:Work rdf:about="">
        <dc:format>image/svg+xml</dc:format>
        <dc:type rdf:resource="http://purl.org/dc/dcmitype/StillImage"/>
      </cc:Work>
    </rdf:RDF>
  </metadata>
  <g inkscape:label="Layer 1" inkscape:groupmode="layer" id="layer1" transform="translate(-134.84405,-164.7453)">
    <path id="rect10459" style="font-variation-settings:'wght' 600;display:inline;fill:#54a191;fill-opacity:1;stroke:none;stroke-width:1.08039" d="m 135.3157,164.7827 c -0.7309,-0.227 -0.3714,0.6363 -0.455,1.0566 0,13.2102 0,26.4203 0,39.6304 4.9747,0 9.9493,0 14.9238,0 1.944,-0.9439 3.862,-1.9405 5.6757,-3.119 -2.9574,-0.1936 -5.9369,-0.065 -8.8837,-0.3357 -0.9449,-0.2061 -1.1862,-1.4787 -0.5242,-2.1172 0.642,-0.7022 1.6316,-1.0577 2.0716,-1.9582 0.8488,-1.4368 0.6967,-3.1839 0.7102,-4.7888 -0.046,-2.6843 -0.6155,-5.3168 -1.0987,-7.9446 -0.3356,-2.5487 -0.025,-5.1603 0.7103,-7.6128 1.2156,-3.8757 4.4019,-6.9949 8.237,-8.2779 3.0277,-1.0789 6.3206,-1.178 9.4872,-0.8201 3.457,0.4612 6.788,2.0486 9.1627,4.6284 0.4305,0.5009 0.1275,-0.731 0.2169,-1.036 0,-2.4361 0,-4.8723 0,-7.3085 -13.4113,0 -26.8225,0 -40.2338,0 z m 25.9227,6.453 c -0.6775,0.059 -0.5839,0.9116 -0.1444,1.2305 1.0077,1.9898 1.6278,4.1764 1.9624,6.3774 0.1575,0.3987 -0.2076,1.1302 0.3475,1.2171 3.0442,1.1257 6.4877,0.9725 9.362,2.5896 0.4465,0.2584 0.8127,0.6261 1.2006,0.9609 1.285,-2.1313 0.7734,-4.8108 -0.1897,-6.96 -0.9738,-2.4123 -3.4529,-3.7446 -5.8421,-4.3947 -2.1774,-0.6352 -4.4537,-0.8083 -6.6963,-1.0208 z m -3.3557,0.6581 c -1.1912,0.3425 -2.2958,1.0024 -3.3149,1.7075 -2.024,1.7964 -3.3774,4.4351 -3.3619,7.1736 -0.027,1.0063 0.1393,2.0017 0.2708,2.9958 1.7087,-1.207 3.4162,-2.4158 5.1251,-3.6227 0.5041,-2.5941 0.9121,-5.2326 1.8163,-7.7237 0.013,-0.3214 -0.2182,-0.5466 -0.5354,-0.5305 z m 1.6334,4.0188 c -0.3608,2.1405 -0.7742,4.2715 -1.1684,6.406 -1.5501,0.7196 -3.0999,1.4394 -4.65,2.1588 0.07,3.495 1.2506,7.0307 3.6684,9.6078 1.0105,1.1663 2.176,2.3037 3.7167,2.7018 2.2439,0.7041 4.8233,0.1622 6.5573,-1.4399 1.6315,-1.4377 2.8729,-3.2978 3.7529,-5.2762 0.7512,-1.838 1.0684,-3.8205 1.1667,-5.7949 -1.2826,-0.074 -2.5176,-0.5271 -3.7808,-0.7549 -2.1078,-0.4747 -4.2157,-0.9495 -6.3234,-1.4241 -0.6315,-2.1236 -1.1266,-4.3154 -2.09,-6.3204 -0.2094,-0.2236 -0.5832,-1.4713 -0.6681,-0.921 -0.06,0.3523 -0.1209,0.7047 -0.1813,1.057 z m -7.6617,17.0658 c -0.048,1.7851 0.208,3.6468 -0.5273,5.3358 -0.1236,0.436 -0.7256,1.1939 0.1231,0.9771 1.4303,0.021 2.86,-0.047 4.2904,-0.038 0.055,-0.9378 0.3431,-2.0821 -0.4841,-2.7852 -1.3334,-1.5965 -2.4105,-3.3774 -3.3954,-5.2038 0,0.5713 -0.01,1.1426 -0.01,1.7139 z m 21.5715,-0.136 c -0.7415,1.4154 -1.7121,2.7326 -2.8202,3.93 -0.4793,0.7339 -0.29,1.6511 -0.2283,2.4677 1.6264,0.035 3.2531,0.079 4.88,0.049 -0.6382,-1.6159 -0.9845,-3.3487 -0.9894,-5.0341 -0.013,-0.8625 0.02,-1.7246 0.01,-2.5873 -0.2832,0.3917 -0.5663,0.7834 -0.8494,1.1751 z m -14.5243,7.054 c -0.032,1.4487 -0.3078,3.0569 -1.3051,4.237 -0.3648,0.4675 -0.7858,0.8886 -1.1727,1.3381 4.372,0 8.7439,0 13.1159,0 -1.0287,-1.1611 -1.8186,-2.5501 -2.0684,-4.0969 -0.145,-0.6778 -0.1745,-1.3726 -0.2449,-2.0607 -2.408,1.1524 -5.2518,1.1185 -7.7221,0.1796 -0.6465,-0.2333 -0.5877,-0.3366 -0.6027,0.4029 z m 14.7879,2.2764 c -0.667,0.058 -1.3787,-0.1045 -2.0122,0.1043 -0.553,0.4682 0.1209,1.0516 0.5014,1.3702 0.9348,0.9455 2.1597,1.5109 3.3708,2.0121 0,-1.1593 0,-2.3188 0,-3.4783 -0.6179,2e-4 -1.2534,-0.02 -1.86,-0.01 z"/>
  </g>
</svg>