<svg xmlns:dc="http://purl.org/dc/elements/1.1/" xmlns:cc="http://creativecommons.org/ns#" xmlns:rdf="http://www.w3.org/1999/02/22-rdf-syntax-ns#" xmlns:svg="http://www.w3.org/2000/svg" xmlns="http://www.w3.org/2000/svg" xmlns:sodipodi="http://sodipodi.sourceforge.net/DTD/sodipodi-0.dtd" xmlns:inkscape="http://www.inkscape.org/namespaces/inkscape" width="40.687099mm" height="40.736252mm" viewBox="0 0 40.687099 40.736251" version="1.1" id="svg2576" sodipodi:docname="multipage-export-elcw4y4r.svg">
  <defs id="defs2570">
    <rect x="-1893.2883" y="-1487.8069" width="81.741173" height="50.455036" id="rect10831"/>
  </defs>
  <sodipodi:namedview id="base" pagecolor="#ffffff" bordercolor="#666666" borderopacity="1.0" inkscape:pageopacity="0.0" inkscape:pageshadow="2" inkscape:zoom="0.36086675" inkscape:cx="1524.7728" inkscape:cy="952.87288" inkscape:document-units="mm" inkscape:current-layer="layer1" inkscape:document-rotation="0" showgrid="false" inkscape:window-width="1920" inkscape:window-height="1001" inkscape:window-x="-9" inkscape:window-y="-9" inkscape:window-maximized="1"/>
  <metadata id="metadata2573">
    <rdf:RDF>
      <cc:Work rdf:about="">
        <dc:format>image/svg+xml</dc:format>
        <dc:type rdf:resource="http://purl.org/dc/dcmitype/StillImage"/>
      </cc:Work>
    </rdf:RDF>
  </metadata>
  <g inkscape:label="Layer 1" inkscape:groupmode="layer" id="layer1" transform="translate(104.3394,-160.8549)">
    <path id="rect11436" style="font-variation-settings:'wght' 600;display:inline;fill:#54a191;fill-opacity:1;stroke:none;stroke-width:1.08039" d="m -104.3394,161.3113 c 0,13.4113 0,26.8225 0,40.2338 7.0697,0 14.1393,0 21.2089,0 -0.1459,-0.9378 -0.297,-2.149 0.4921,-2.8485 0.4804,-0.384 1.1156,-0.3971 1.7003,-0.4317 -0.1866,-1.2713 0.1088,-2.4075 0.1494,-3.6848 -0.4416,-1.3029 -0.4467,-2.6922 -0.6614,-4.039 -1.1995,-0.9776 -2.1621,-2.2867 -2.4561,-3.8297 -0.3495,-1.4346 -0.2479,-2.9332 -0.1643,-4.381 -0.4247,-0.771 -1.3151,-1.1817 -1.7336,-1.9777 -0.7305,-1.0419 -0.4067,-2.4279 0.3665,-3.3435 1.2524,-1.4381 2.528,-2.8594 3.8075,-4.2756 1.0847,-1.2056 2.4809,-2.3206 4.1787,-2.3573 -0.2927,-1.9452 1.0647,-3.9087 2.9563,-4.3932 2.671,-0.8863 5.7442,1.5522 5.4951,4.353 -0.1354,1.6904 -1.4808,3.0762 -3.0577,3.5706 0.62,1.7041 1.1842,3.4252 1.6082,5.1889 0.2052,0.8337 0.5476,1.6293 1.1502,2.2543 0.7266,1.0945 1.49,2.1616 2.3119,3.1859 0.4295,0.5194 0.5938,1.3605 -0.029,1.8102 -0.9289,0.9663 -2.5125,0.9654 -3.5719,0.2135 -0.345,-0.049 -0.2422,0.7965 -0.429,1.1339 -0.5074,1.7368 -1.855,3.2226 -3.5853,3.7944 -0.4524,2.0841 -0.3285,4.2225 -0.7168,6.2449 -0.02,0.8187 1.1766,0.703 1.353,0.035 0.056,-0.5777 0.675,-0.3339 1.0946,-0.3912 0.6256,-0.015 1.1086,0 1.7397,-0.01 1.2889,0.097 2.5906,0.3551 3.8369,0.5947 0.043,0.9131 0.4279,1.8081 0.2129,2.6719 -0.1193,0.5858 -0.1864,1.1264 0.5836,0.9089 0.9488,0 1.8976,0 2.8464,0 0,-13.5624 0,-27.1247 0,-40.6871 -13.5624,0 -27.1247,0 -40.6871,0 0,0.1516 0,0.3033 0,0.455 z m 30.4419,7.0103 c -1.0094,0.1967 -1.4992,1.4859 -0.8858,2.3059 0.6551,1.1315 2.5902,1.287 3.194,0.029 0.5541,-1.2331 -0.7643,-2.5637 -2.0083,-2.4083 -0.08,0.037 -0.3576,-0.1016 -0.2999,0.073 z m -3.4481,4.5174 c -1.2619,0.013 -2.1058,1.0766 -2.7239,2.0465 -0.6571,0.7085 0.3882,0.064 0.7539,-0.041 0.2966,0.04 0.8543,-0.6221 0.9092,-0.3747 -0.076,1.6632 -1.5506,2.7015 -2.5044,3.8986 -0.5015,0.4096 0.4743,0.7758 0.679,1.1649 1.4042,1.4885 3.1465,2.7337 4.1318,4.5671 0.4555,0.9372 0.2237,2.3631 -0.9154,2.6573 -1.216,0.4114 -2.4821,-0.1796 -3.3301,-1.054 -0.5134,-0.4629 -1.0258,-0.9273 -1.5394,-1.39 0.2603,1.3627 0.3075,2.9134 1.249,4.0155 0.4106,0.4028 0.9521,0.6359 1.4974,0.794 0.089,1.2594 0.1008,2.5562 0.3845,3.8025 -0.031,1.3464 -0.2718,2.7179 -0.049,4.0539 0.2785,0.3403 0.1199,0.826 0.7218,0.7739 0.8775,-0.053 0.8618,-1.1596 0.9004,-1.8158 0.058,-1.8439 -0.1156,-3.7159 0.2566,-5.5335 0.1259,-0.6294 0.664,-1.0757 1.2631,-1.1374 1.5758,-0.3781 2.4666,-1.9927 2.5793,-3.5158 0.2531,-2.4331 -0.5229,-4.8191 -1.3481,-7.0711 -0.1729,-1.3303 0.7281,-2.6927 0.058,-3.9805 -0.4819,-1.1563 -1.7027,-1.99 -2.9743,-1.8597 z m -5.9258,5.3904 c -0.479,0.3858 -0.3402,1.0147 -0.2251,1.5327 0.3741,-0.2477 0.8137,-0.4454 0.9055,-0.9205 0.04,-0.3067 0.6309,-1.4768 0.041,-1.0243 -0.2408,0.1373 -0.4814,0.2747 -0.7221,0.4121 z m 13.3272,13.0688 c 0.6404,0.041 0.2313,0.8786 0.3634,1.3055 0.018,0.844 0.036,1.688 0.054,2.532 -0.381,-0.1624 -1.169,0.3365 -1.098,-0.279 -0.1353,-1.1961 -0.3318,-2.4586 -0.3944,-3.6072 0.3582,0.016 0.7162,0.033 1.0744,0.049 z m 4.259,0.3525 c 0.6026,0.2164 -0.028,0.9068 -0.019,1.3517 -0.2197,0.8162 -0.4394,1.6326 -0.6592,2.449 -0.3202,-0.2649 -1.2184,-0.01 -0.9771,-0.5761 0.2083,-1.1919 0.3577,-2.3981 0.6363,-3.5754 0.3397,0.117 0.6794,0.2338 1.019,0.3508 z"/>
  </g>
</svg>