<svg xmlns="http://www.w3.org/2000/svg" width="683" height="440.809" viewBox="0 0 683 440.809">
  <g id="layer1" transform="translate(-773.012 -7205.803)" style="isolation: isolate">
    <path id="rect17137-0" d="M981.9,7205.8c-2.26,3.65-4.157,6.633-5.4,8.427l-10.147,14.68H818.148l-13.619,17.854c-7.491,9.821-13.617,19.484-13.617,21.47s45.883,2.964,101.964,2.167l101.966-1.451,36.718-63.147Zm103.714,0c-5.662,9.5-11.779,19.941-18.105,30.951l-44.372,77.223-94.552,1.523-94.554,1.517,45.078,77.413c24.8,42.576,45.176,80.23,45.176,83.681.093,5.983-51.534,99.685-78.1,141.766-6.912,10.951-12.57,21.252-12.57,22.89s42.375,2.68,94.166,2.321c42.763-.3,68,.067,82.311,1.524l27.945-51.737-30.8-54.411-35.188-62.176,36.3-61.942,36.3-61.911h142.707l36.21,62.187,8.425,14.473c-5.476-30.188-11.107-76.817-.569-116.742h-21.592l-45.235-77.411c-6.475-11.081-12.729-21.583-18.516-31.138Zm112.578,0,38.252,65.805h18.132c23.506-27.3,56.277-43.7,65.454-41.552,14.462,3.38,61.976,18.32,87.021,40.784,21.366-.555,35.163-1.355,35.163-2.256,0-1.665-6.293-11.271-13.98-21.354l-13.981-18.329h-152.75l-13.211-23.1Zm-81.715,28.467c3.752,0,42.792,71.2,42.792,78.048,0,4.84-85.226,6.808-87.964,2.032C1069.267,7310.781,1112.424,7234.271,1116.479,7234.271ZM773.012,7306.25v84.263c4.7,8.69,9.916,18.09,15.5,27.823l34.976,60.915L788.557,7540.1l-15.545,27.07v59.345a24.128,24.128,0,0,0,5.111,14.9c16.995-24.294,92.866-155.924,92.866-162.108C870.989,7475.117,786.765,7326.589,773.012,7306.25Zm682.25,6.13c-3.751,4.233-8.847,11.964-16.133,24.036a439.6,439.6,0,0,1,12.428,64.925l3.705-6.318Zm-499.5,39.392c19.464.086,37.3,1.017,39.205,2.919,1.634,1.634-6.977,20.8-19.13,42.595s-23.482,39.669-25.151,39.737c-3.382.125-47.665-75.664-47.665-81.58C903.021,7352.974,930.737,7351.669,955.763,7351.771ZM773.012,7475.146v9.4l2.635-4.606Zm683,3.925-.443.825.432.8c0-.55.009-1.06.011-1.627ZM951.189,7522.6c1.782,0,7.143,7.808,11.914,17.35s14.961,27.559,22.646,40.038l13.973,22.69h-48.8c-26.838,0-48-1.941-47.015-4.317C909.246,7585.4,948.443,7522.6,951.189,7522.6Z" transform="translate(0 0)" fill="#c8dfd2"/>
  </g>
</svg>
