<svg xmlns="http://www.w3.org/2000/svg" width="156.191" height="65.974" viewBox="0 0 156.191 65.974">
  <g id="g17613" transform="translate(-208.521 -7.211)">
    <g id="g1123">
      <g id="text1127" style="isolation: isolate">
        <text id="a" transform="translate(208.521 57.211)" fill="#008136" font-size="46.087" font-family="SegoeUI, Segoe UI" style="isolation: isolate"><tspan x="0" y="0">a</tspan></text>
      </g>
      <g id="text1131" style="isolation: isolate">
        <text id="a-2" data-name="a" transform="translate(230.119 57.211)" fill="#008136" font-size="46.087" font-family="SegoeUI, Segoe UI" style="isolation: isolate"><tspan x="0" y="0">a</tspan></text>
      </g>
      <g id="text1135" style="isolation: isolate">
        <text id="r" transform="translate(250.792 57.211)" fill="#008136" font-size="46.087" font-family="SegoeUI, Segoe UI" style="isolation: isolate"><tspan x="0" y="0">r</tspan></text>
      </g>
      <g id="text1139" style="isolation: isolate">
        <text id="a-3" data-name="a" transform="translate(264.71 57.211)" fill="#008136" font-size="46.087" font-family="SegoeUI, Segoe UI" style="isolation: isolate"><tspan x="0" y="0">a</tspan></text>
      </g>
      <g id="text1149" style="isolation: isolate">
        <text id="n" transform="translate(286.048 57.211)" fill="#008136" font-size="46.087" font-family="SegoeUI, Segoe UI" style="isolation: isolate"><tspan x="0" y="0">n</tspan></text>
      </g>
      <g id="text1153" style="isolation: isolate">
        <text id="y" transform="translate(307.627 57.211)" fill="#008136" font-size="46.087" font-family="SegoeUI, Segoe UI" style="isolation: isolate"><tspan x="0" y="0">y</tspan></text>
      </g>
      <g id="text1157" style="isolation: isolate">
        <text id="a-4" data-name="a" transform="translate(328.381 57.211)" fill="#008136" font-size="46.087" font-family="SegoeUI, Segoe UI" style="isolation: isolate"><tspan x="0" y="0">a</tspan></text>
      </g>
      <path id="path1159" d="M294.687,32.231a5.468,5.468,0,0,0,2.715.734,16.137,16.137,0,0,0,4.789-1.273q3.376-1.272,3.411-1.272l1.273.212a11.54,11.54,0,0,1-4.083,2.486A13.268,13.268,0,0,1,298,34.2a9.768,9.768,0,0,1-5.645-1.46Z" fill="#008136" fill-rule="evenodd"/>
    </g>
    <g id="g1161">
      <path id="path1163" d="M342.44,27.215a7.687,7.687,0,0,0,.032,4.674,6.274,6.274,0,0,0,.476,1.265c.13-.394.138-.593.271-1a23.85,23.85,0,0,1,1.346-3.547l1.049-1.838a38.467,38.467,0,0,1-.907,4.331L344.2,32.65c-.113.343-.2.43-.306.757.281.016.9-.513,1.117-.685.2-.155.329-.263.516-.425.172-.149.337-.292.5-.455a6.681,6.681,0,0,0,1.9-6.37,9.205,9.205,0,0,0-1.01-2.845,9.355,9.355,0,0,0-2.528,1.722,7.043,7.043,0,0,0-1.949,2.866" fill="#ef7c00" fill-rule="evenodd"/>
      <path id="path1165" d="M329.539,66.527a6.841,6.841,0,0,0-.223,3.813,9.355,9.355,0,0,0,1.01,2.845,9.2,9.2,0,0,0,2.5-1.693c2.669-2.611,2.819-5.125,1.636-8.488-.054-.153-.024-.19-.183-.294-.1.294-.066.374-.169.688A25.319,25.319,0,0,1,332.23,68.1a7.967,7.967,0,0,0-.5.971l.243-2.1a25.093,25.093,0,0,1,1.069-3.811c.112-.343.2-.43.3-.757-.215-.012-.124-.007-.291.106l-.825.579a10.222,10.222,0,0,0-1.018.881,7.089,7.089,0,0,0-1.676,2.556" fill="#ef7c00" fill-rule="evenodd"/>
      <path id="path1167" d="M360.407,43.34a27.412,27.412,0,0,1-4.026,1.4l-1.283.271a8.339,8.339,0,0,0-1.327.268,12.612,12.612,0,0,0,3.489,1.2,6.137,6.137,0,0,0,4.286-.883,9.966,9.966,0,0,0,2.7-2.485,4.5,4.5,0,0,0,.465-.7h0l-1.5-.789a13.4,13.4,0,0,0-1.853-.655,6.657,6.657,0,0,0-3.843.142,8.178,8.178,0,0,0-2.924,1.962,6.107,6.107,0,0,0-1,1.178l1.61-.39a25.517,25.517,0,0,1,5.2-.518" fill="#ef7c00" fill-rule="evenodd"/>
      <path id="path1169" d="M349.267,59a7.761,7.761,0,0,0,.884.973,28.712,28.712,0,0,1,1.927,2.338,17.754,17.754,0,0,1,1.387,2.181,23.738,23.738,0,0,1-2.689-2.254c-.406-.4-.765-.793-1.16-1.22l-.808-.968a1.165,1.165,0,0,0-.293-.325,9.634,9.634,0,0,0,.57,3.369c.9,2.354,2.316,3.406,4.771,4.212a9.561,9.561,0,0,0,2.544.435h0a10.091,10.091,0,0,0-1.093-5.256c-.067-.109-.083-.112-.15-.225a6.433,6.433,0,0,0-3.259-2.568,14.768,14.768,0,0,0-1.872-.553,6.4,6.4,0,0,1-.759-.139" fill="#ef7c00" fill-rule="evenodd"/>
      <path id="path1171" d="M353.375,52.4a16.777,16.777,0,0,1,3.032,1.134,8.034,8.034,0,0,0,.907.444l-1.985-.267a22.006,22.006,0,0,1-2.157-.692,5.253,5.253,0,0,0,2.586,2.391,4.212,4.212,0,0,0,2.486.15,5.862,5.862,0,0,0,1.787-.633,5.688,5.688,0,0,0-2.794-2.8,3.968,3.968,0,0,0-2.256-.207,4.422,4.422,0,0,0-1.606.483" fill="#ef7c00" fill-rule="evenodd"/>
      <path id="path1173" d="M334.6,28.642a13.054,13.054,0,0,1,.7,1.968c.1.368.184.656.269,1.026a6.065,6.065,0,0,1,.146,1.088l.1.034a10.171,10.171,0,0,0,.459-1.049,7.2,7.2,0,0,0,.3-1.143,4.136,4.136,0,0,0-1.1-3.445,4.924,4.924,0,0,0-1.512-1.257c-.062.146-.184.333-.246.449-1.254,2.341-1.061,4.564,1.026,6.3a4.107,4.107,0,0,1,.386.321c.043-.179-.328-1.4-.385-2.085a11.684,11.684,0,0,1-.15-2.2" fill="#ef7c00" fill-rule="evenodd"/>
      <path id="path1175" d="M322.233,60.929a6.757,6.757,0,0,0-.42,1.976,5.311,5.311,0,0,0,2.375-.237,3.515,3.515,0,0,0,.722-.275,4.226,4.226,0,0,0,2.228-2.826c.148-.452.144-.79.269-1.169a1.053,1.053,0,0,0-.394.328,15.9,15.9,0,0,1-2.1,1.719,4.463,4.463,0,0,1-.929.544,14.773,14.773,0,0,1,1.4-1.655l1.556-1.432a6.294,6.294,0,0,0-2.771.647,4.265,4.265,0,0,0-1.937,2.38" fill="#ef7c00" fill-rule="evenodd"/>
      <path id="path1177" d="M342.66,67.118a9.674,9.674,0,0,1-.72-1.916c-.1-.361-.19-.673-.255-1.033a4.959,4.959,0,0,1-.159-1.081l-.1-.034c-.125.356-.318.612-.459,1.049a5.932,5.932,0,0,0-.282,1.133,4.037,4.037,0,0,0,.547,2.735l.535.72a5.261,5.261,0,0,0,1.512,1.257c1.174-1.932,1.532-4,.176-5.726a8.218,8.218,0,0,0-1.343-1.343l.4,2.036a11.983,11.983,0,0,1,.153,2.2" fill="#ef7c00" fill-rule="evenodd"/>
      <path id="path1179" d="M353.258,34.823a13.943,13.943,0,0,1-2.547,2.7c-.369.32-.294.111-.409.383a8.424,8.424,0,0,0,1.84-.276,4.2,4.2,0,0,0,1.6-.834,5.775,5.775,0,0,0,1.688-3.893,5.381,5.381,0,0,0-1.921.115,4.227,4.227,0,0,0-3.4,3.224c-.151.45-.144.788-.269,1.168l1.646-1.426a10.066,10.066,0,0,1,1.777-1.165" fill="#ef7c00" fill-rule="evenodd"/>
    </g>
  </g>
</svg>
