<svg xmlns="http://www.w3.org/2000/svg" width="130.001" height="130" viewBox="0 0 130.001 130">
  <path id="path11186" d="M-1006.9,1110.175v128.547h38.88c-4.756-8.509-9.924-16.81-14.23-25.559-2.555-5.522-4.183-12.454-1.01-18.058,3.8-6.223,12.524-8.079,18.845-4.754,3.879,2.641,7.388,5.865,11.123,8.735.261-13.053.732-26.11.87-39.161,0-7.758-.3-15.59.873-23.287,1.777-8.108,11.649-12.947,19.185-9.536,4.782,1.881,8.517,6.536,8.475,11.8.728,7.11.057,14.261.225,21.39,3.131-.692,6.476-1.219,9.466.3a12.881,12.881,0,0,1,6.553,4.209,8.1,8.1,0,0,1,2.538,4.528c1.278,1.512,3.458.189,5.156.342,5.6-.954,11.044,3.047,13.444,7.914.247,1.644,2,3.085,3.6,2.091a17.846,17.846,0,0,1,6.007-.365v-70.589h-130v1.454Zm113.744,9.756c.365,1.2,2.919,2.812,1.047,3.682-5.317,4.371-10.792,8.686-17.052,11.636-2.461-.317-2.728-3.342-4.087-4.955-1.423-1.247.344-2.26,1.422-2.865,5.718-3.191,11.135-6.882,16.713-10.308l1.958,2.81Zm-47.215,16.284c-2.825,2.29-2.129,6.434-2.363,9.657-.7,23.82-.574,47.667-1.468,71.483.424,3.984-5.867,6.79-8.008,2.964-2.8-4.367-4.81-9.227-7.915-13.42-2.5-3.5-5.661-6.874-9.733-8.445-2.586-.948-6.086,1.09-5.428,4.077.562,6.958,5.135,12.651,8.3,18.615q5.072,8.785,10.144,17.571h79.937V1189.3c-2.219-.768-5.281-.613-6.611,1.52-1.471,6.712-.871,13.631-1.3,20.444-.151,3.327.143,6.992-1.528,9.966-2.9,2.95-9.129.474-8.467-3.877-.463-10.866.358-21.749-.03-32.611-.159-2.2-.63-5.108-3.256-5.535a5.547,5.547,0,0,0-5.638,2.22c-1.181,10.91-.727,21.915-1.312,32.857-.438,2.561.176,6.116-2.662,7.461-2.8,1.521-7.116-.627-6.6-4.067-.2-14.945.847-29.907-.028-44.838-.181-3.41-4.713-4.288-7.181-2.684-1.811.67-1.208,3.117-1.708,4.664-.951,12.224-.463,24.514-1.1,36.756-.51,3.1.577,7.328-2.28,9.622-2.592,2.119-7.464.214-7.041-3.4-.577-13.424,0-26.869.11-40.3.1-12.52.62-25.057.219-37.566a4.779,4.779,0,0,0-4.884-4.6c-1.121,0-5.04-1.451-2.745.324l.558.558Zm46.421,11.21q-.719,3.443-1.437,6.886c-2.77.557-4.984-1.772-7.477-2.563l-10.432-4.876q1.209-2.32,2.419-4.639l16.927,5.192Z" transform="translate(1006.904 -1108.722)" fill="#fcc954"/>
</svg>
