<svg xmlns="http://www.w3.org/2000/svg" width="131.191" height="137.295" viewBox="0 0 131.191 137.295">
  <path id="rect51036" d="M1049.326,5680.524v137.293H1078.3c-4.272-7.739-7.4-14.051-7.4-15.068,0-2.553,4.53-13.961,5.453-13.876h0c.031,0,.04,0,.08.048,1.336,1.664,9.462,15.659,16.961,28.9h16.592c-.294-.508-.575-1-.874-1.511l-13.716-23.557,28.771-.463,28.771-.463,13.5-23.5c6.445-11.217,12.246-20.641,14.08-22.941v-64.86Zm118.664,43.114c3.572.048,6.919.809,6.417,2.075-.44,1.117-7.391,13.363-15.444,27.211l-14.641,25.179-31.026.443c-17.065.243-31.027-.057-31.027-.659s1.864-3.546,4.144-6.534l4.142-5.433h45.1l3.088-4.468c1.7-2.456,7-11.412,11.781-19.9s9.474-15.97,10.426-16.626c1.346-.928,4.262-1.329,7.04-1.289Zm-27.627,6.81a.856.856,0,0,1,.373.048c.754.275-1.529,5.436-5.072,11.467l-6.443,10.964h-12.1c-6.657,0-12.106-.554-12.106-1.232,0-2.859,30.642-21.127,35.354-21.246Zm40.153,37.939c-3.144,4.053-13.48,22.583-12.926,23.549.4.7,6.6.915,12.926.8Zm-48.085,34.937c-7.615-.032-16.05.366-16.05,1.117,0,.914,3.474,7.305,7.029,13.376h14.76c.128-.224.241-.415.369-.643,3.7-6.632,6.319-12.465,5.822-12.963C1143.781,5803.634,1138.354,5803.363,1132.431,5803.324Zm27.051.786-8.037,13.707h29.071V5804.11Z" transform="translate(-1049.326 -5680.524)" fill="#396b5f"/>
</svg>
