<?xml version="1.0" encoding="UTF-8" standalone="no"?>
<svg
   xmlns:dc="http://purl.org/dc/elements/1.1/"
   xmlns:cc="http://creativecommons.org/ns#"
   xmlns:rdf="http://www.w3.org/1999/02/22-rdf-syntax-ns#"
   xmlns:svg="http://www.w3.org/2000/svg"
   xmlns="http://www.w3.org/2000/svg"
   xmlns:xlink="http://www.w3.org/1999/xlink"
   xmlns:sodipodi="http://sodipodi.sourceforge.net/DTD/sodipodi-0.dtd"
   xmlns:inkscape="http://www.inkscape.org/namespaces/inkscape"
   width="565.02411"
   height="388.44916"
   viewBox="0 0 149.49597 102.77718"
   version="1.1"
   id="svg11830"
   sodipodi:docname="animate 2.svg"
   inkscape:version="1.0.2 (e86c870879, 2021-01-15, custom)">
  <sodipodi:namedview
     pagecolor="#ffffff"
     bordercolor="#999999"
     borderopacity="1"
     objecttolerance="10"
     gridtolerance="10"
     guidetolerance="10"
     inkscape:pageopacity="0"
     inkscape:pageshadow="2"
     inkscape:window-width="1920"
     inkscape:window-height="1001"
     id="namedview183"
     showgrid="false"
     units="px"
     inkscape:snap-page="true"
     inkscape:zoom="0.36453047"
     inkscape:cx="274.15431"
     inkscape:cy="380.83478"
     inkscape:window-x="-9"
     inkscape:window-y="-9"
     inkscape:window-maximized="1"
     inkscape:current-layer="svg11830"
     inkscape:snap-global="true"
     showguides="true"
     inkscape:guide-bbox="true"
     inkscape:document-rotation="0">
    <sodipodi:guide
       position="-298.44856,153.36643"
       orientation="1,0"
       id="guide1329" />
    <sodipodi:guide
       position="209.55518,-13.332399"
       orientation="1,0"
       id="guide1331" />
  </sodipodi:namedview>
  <defs
     id="defs11824">
    <clipPath
       id="clipPath3042-6">
      <rect
         x="-2840.6001"
         y="1196.1"
         width="178.07001"
         height="80.402"
         ry="0"
         fill="url(#linearGradient3046)"
         stroke-width="0"
         style="mix-blend-mode:normal"
         id="rect3092" />
    </clipPath>
    <linearGradient
       id="linearGradient14111-4"
       x1="-1424"
       x2="-1749.4"
       y1="-329.57999"
       y2="-356.03"
       gradientTransform="matrix(1.281,0,0,1.185,282.71,2623.4)"
       gradientUnits="userSpaceOnUse">
      <stop
         stop-color="#dad59c"
         stop-opacity=".56863"
         offset="0"
         id="stop3095" />
      <stop
         stop-color="#dad59c"
         stop-opacity=".56863"
         offset="0.77040118"
         id="stop10246"
         style="stop-color:#c5e4ce;stop-opacity:0.95415473" />
      <stop
         stop-color="#c3e9d2"
         offset="1"
         id="stop3097" />
    </linearGradient>
    <filter
       id="filter16548"
       x="-0.17704"
       y="-0.16529"
       width="1.3541"
       height="1.3306"
       color-interpolation-filters="sRGB">
      <feGaussianBlur
         stdDeviation="5.9980916"
         id="feGaussianBlur3100" />
    </filter>
    <radialGradient
       id="radialGradient14571"
       cx="-1677.5"
       cy="1374"
       r="77.181"
       gradientTransform="matrix(1,0,0,0.96073,0,53.96)"
       gradientUnits="userSpaceOnUse">
      <stop
         stop-color="#fdfae3"
         offset="0"
         id="stop3103" />
      <stop
         stop-color="#fdfae3"
         offset="1"
         id="stop3105" />
    </radialGradient>
    <filter
       id="filter14366"
       x="-0.30002001"
       y="-0.31994"
       width="1.6"
       height="1.6399"
       color-interpolation-filters="sRGB">
      <feGaussianBlur
         stdDeviation="12.174285"
         id="feGaussianBlur3108" />
    </filter>
    <rect
       x="-1893.2883"
       y="-1487.8069"
       width="202.3266"
       height="55.076523"
       id="rect16393" />
    <rect
       x="-1893.2883"
       y="-1487.8069"
       width="202.3266"
       height="55.076523"
       id="rect11717" />
    <rect
       x="-1893.2883"
       y="-1487.8069"
       width="93.163788"
       height="18.132549"
       id="rect16395" />
    <rect
       x="-1893.2883"
       y="-1487.8069"
       width="93.163788"
       height="18.132549"
       id="rect11720" />
    <rect
       x="-1893.2883"
       y="-1487.8069"
       width="133.84019"
       height="21.885801"
       id="rect16397" />
    <rect
       x="-1893.2883"
       y="-1487.8069"
       width="133.84019"
       height="21.885801"
       id="rect11723" />
    <rect
       x="-1893.2883"
       y="-1487.8069"
       width="120.50266"
       height="17.449078"
       id="rect16399" />
    <rect
       x="-1893.2883"
       y="-1487.8069"
       width="120.50266"
       height="17.449078"
       id="rect11726" />
    <rect
       x="-1893.2883"
       y="-1487.8069"
       width="120.50266"
       height="17.449078"
       id="rect3057" />
    <rect
       x="-1893.2883"
       y="-1487.8069"
       width="120.50266"
       height="17.449078"
       id="rect11729" />
    <rect
       x="-1893.2883"
       y="-1487.8069"
       width="216.5508"
       height="45.871487"
       id="rect10154-6" />
    <rect
       x="-1893.2883"
       y="-1487.8069"
       width="216.5508"
       height="45.871487"
       id="rect11734" />
    <rect
       x="-163.84615"
       y="-1563.3816"
       width="168.75198"
       height="31.2204"
       id="rect25349-3-5-7" />
    <rect
       x="-163.84615"
       y="-1563.3816"
       width="168.75198"
       height="31.2204"
       id="rect11741" />
    <linearGradient
       xlink:href="#linearGradient19514"
       id="linearGradient42490"
       gradientUnits="userSpaceOnUse"
       gradientTransform="matrix(2.0990251,0,0,2.0990251,7533.8161,4516.3328)"
       x1="-2056.6677"
       y1="-1302.8318"
       x2="-1514.323"
       y2="-1527.7557" />
    <linearGradient
       id="linearGradient19514">
      <stop
         style="stop-color:#efe7ba;stop-opacity:1"
         offset="0"
         id="stop19510" />
      <stop
         style="stop-color:#d6eded;stop-opacity:1"
         offset="0.65908372"
         id="stop4037" />
      <stop
         style="stop-color:#ffffff;stop-opacity:1"
         offset="1"
         id="stop19512" />
    </linearGradient>
    <rect
       x="-1893.2883"
       y="-1487.8069"
       width="172.3605"
       height="91.961029"
       id="rect42472" />
    <rect
       x="-1893.2883"
       y="-1487.8069"
       width="172.3605"
       height="91.961029"
       id="rect12726" />
    <rect
       x="-1893.2883"
       y="-1487.8069"
       width="216.5508"
       height="45.871487"
       id="rect42474" />
    <rect
       x="-1893.2883"
       y="-1487.8069"
       width="216.5508"
       height="45.871487"
       id="rect12729" />
    <rect
       x="-1893.2883"
       y="-1487.8069"
       width="93.163788"
       height="18.132549"
       id="rect42476" />
    <rect
       x="-1893.2883"
       y="-1487.8069"
       width="93.163788"
       height="18.132549"
       id="rect12732" />
    <rect
       x="-1893.2883"
       y="-1487.8069"
       width="216.5508"
       height="45.871487"
       id="rect10154" />
    <rect
       x="-1893.2883"
       y="-1487.8069"
       width="216.5508"
       height="45.871487"
       id="rect12735" />
    <rect
       x="-163.84615"
       y="-1563.3816"
       width="168.75198"
       height="31.2204"
       id="rect25349-3-5" />
    <rect
       x="-163.84615"
       y="-1563.3816"
       width="168.75198"
       height="31.2204"
       id="rect12742" />
    <clipPath
       clipPathUnits="userSpaceOnUse"
       id="clipPath11572">
      <rect
         style="opacity:0.453431;fill:#3c4029;stroke:#be3737;stroke-width:3.35955;paint-order:markers fill stroke;stop-color:#000000"
         id="rect11574"
         width="1147.751"
         height="471.85367"
         x="6143.8789"
         y="1309.5353" />
    </clipPath>
    <rect
       x="-1893.2883"
       y="-1487.8069"
       width="202.3266"
       height="55.076523"
       id="rect17920" />
    <rect
       x="-1893.2883"
       y="-1487.8069"
       width="202.3266"
       height="55.076523"
       id="rect13343" />
    <rect
       x="-1893.2883"
       y="-1487.8069"
       width="93.163788"
       height="18.132549"
       id="rect17922" />
    <rect
       x="-1893.2883"
       y="-1487.8069"
       width="93.163788"
       height="18.132549"
       id="rect13346" />
    <rect
       x="-1893.2883"
       y="-1487.8069"
       width="155.50717"
       height="60.126038"
       id="rect17924" />
    <rect
       x="-1893.2883"
       y="-1487.8069"
       width="155.50717"
       height="60.126038"
       id="rect13349" />
    <rect
       x="-163.84615"
       y="-1563.3816"
       width="168.75198"
       height="31.2204"
       id="rect19498-9" />
    <rect
       x="-163.84615"
       y="-1563.3816"
       width="168.75198"
       height="31.2204"
       id="rect13356" />
    <rect
       x="-1893.2883"
       y="-1487.8069"
       width="155.50717"
       height="60.126038"
       id="rect10146" />
    <rect
       x="-1893.2883"
       y="-1487.8069"
       width="155.50717"
       height="60.126038"
       id="rect13359" />
    <linearGradient
       xlink:href="#linearGradient18118"
       id="linearGradient25495"
       gradientUnits="userSpaceOnUse"
       gradientTransform="matrix(2.0990251,0,0,2.0990251,12095.594,4516.3328)"
       x1="-2056.6677"
       y1="-1302.8317"
       x2="-1509.8658"
       y2="-1527.7557" />
    <linearGradient
       id="linearGradient18118">
      <stop
         style="stop-color:#b3e5cb;stop-opacity:1"
         offset="0"
         id="stop18110" />
      <stop
         style="stop-color:#bbe8d6;stop-opacity:1"
         offset="0.43629268"
         id="stop18112" />
      <stop
         style="stop-color:#c4ebd9;stop-opacity:1"
         offset="0.5724597"
         id="stop18114" />
      <stop
         style="stop-color:#d9edc8;stop-opacity:1"
         offset="1"
         id="stop18116" />
    </linearGradient>
    <filter
       style="color-interpolation-filters:sRGB"
       id="filter18106"
       x="-0.062168978"
       width="1.124338"
       y="-0.061328862"
       height="1.1226577">
      <feGaussianBlur
         stdDeviation="2.7639036"
         id="feGaussianBlur18108" />
    </filter>
    <rect
       x="-1893.2883"
       y="-1487.8069"
       width="154.71901"
       height="54.064487"
       id="rect18488" />
    <rect
       x="-1893.2883"
       y="-1487.8069"
       width="154.71901"
       height="54.064487"
       id="rect13682" />
    <rect
       x="-1893.2883"
       y="-1487.8069"
       width="162.64622"
       height="17.449078"
       id="rect18490" />
    <rect
       x="-1893.2883"
       y="-1487.8069"
       width="162.64622"
       height="17.449078"
       id="rect13685" />
    <rect
       x="-1893.2883"
       y="-1487.8069"
       width="93.163788"
       height="18.132549"
       id="rect18492" />
    <rect
       x="-1893.2883"
       y="-1487.8069"
       width="93.163788"
       height="18.132549"
       id="rect13688" />
    <linearGradient
       xlink:href="#linearGradient18639"
       id="linearGradient18857"
       gradientUnits="userSpaceOnUse"
       gradientTransform="matrix(2.099025,0,0,2.099025,-1039.7391,4811.6031)"
       x1="-1125.1824"
       y1="-1481.6989"
       x2="-1047.6797"
       y2="-1482.8871" />
    <linearGradient
       id="linearGradient18639">
      <stop
         style="stop-color:#f0db88;stop-opacity:1"
         offset="0"
         id="stop18635" />
      <stop
         style="stop-color:#c4e1a4;stop-opacity:1"
         offset="1"
         id="stop18637" />
    </linearGradient>
    <rect
       x="-163.84615"
       y="-1563.3816"
       width="168.75198"
       height="31.2204"
       id="rect25349-3-5-9" />
    <rect
       x="-163.84615"
       y="-1563.3816"
       width="168.75198"
       height="31.2204"
       id="rect13695" />
    <filter
       style="color-interpolation-filters:sRGB"
       id="filter8468"
       x="-0.045621689"
       width="1.0912434"
       y="-0.25758022"
       height="1.5151604">
      <feGaussianBlur
         stdDeviation="7.6695321"
         id="feGaussianBlur8470" />
    </filter>
    <filter
       style="color-interpolation-filters:sRGB"
       id="filter18106-5"
       x="-0.062168978"
       width="1.124338"
       y="-0.061328862"
       height="1.1226577">
      <feGaussianBlur
         stdDeviation="2.7639036"
         id="feGaussianBlur18108-3" />
    </filter>
  </defs>
  <metadata
     id="metadata11827">
    <rdf:RDF>
      <cc:Work
         rdf:about="">
        <dc:format>image/svg+xml</dc:format>
        <dc:type
           rdf:resource="http://purl.org/dc/dcmitype/StillImage" />
        <dc:title></dc:title>
      </cc:Work>
    </rdf:RDF>
  </metadata>
  <g
     id="g1205"
     style="display:inline;opacity:1"
     transform="matrix(1.0178878,0,0,1.0178878,758.06015,-50.089196)">
    <path
       id="path18176"
       style="fill:#dfb28e;fill-opacity:1;stroke-width:0.264583"
       d="m -666.39802,62.368658 1.8304,0.95653 0.078,1.739429 c 0.087,1.95291 -0.035,2.10716 -1.9348,2.43551 -3.0038,0.51911 -6.8081,2.120022 -8.0941,3.405992 -0.9222,0.92224 -1.0294,2.130624 -1.0294,11.637534 v 7.692554 l -1.4639,4.50515 c -0.8055,2.47809 -1.9067,5.398633 -2.4474,6.490043 l -0.9834,1.98438 h -2.5126 -2.513 v 1.25987 c 0,1.01806 -0.077,1.22699 -0.3979,1.09037 -0.5102,-0.21742 -1.8278,-0.41876 -1.3891,-0.21239 0.1819,0.0855 0.3308,0.31827 0.3308,0.51728 0,0.29601 -1.1261,0.36098 -6.1873,0.35398 l -6.1872,-0.008 -0.051,-0.25011 c -4.89,-0.46328 -9.6283,-0.24235 -13.5655,0.55096 -6.4479,1.29922 -10.7467,4.1336 -10.043,8.01189 0.6473,3.56722 7.4369,6.39361 17.5987,8.3989 1.3048,-6.10546 9.7989,-4.40369 8.6466,-2.64686 -0.1455,0 -0.2646,0.23812 -0.2646,0.52917 0,0.30725 -0.1764,0.52916 -0.4206,0.52916 -0.6734,0 -1.4127,1.1087 -1.4227,2.13217 -0.01,0.80141 0.1512,1.0572 1.0671,1.71979 0.5917,0.4281 1.2238,0.91307 1.4046,1.07746 0.1807,0.1644 0.8574,0.38918 1.5038,0.49971 0.9452,0.16163 1.0715,0.2421 0.6459,0.41031 -0.4464,0.17646 -0.4053,0.21349 0.2646,0.23719 0.4366,0.0154 1.5081,0.20052 2.3813,0.41135 1.8128,0.43773 6.1049,0.52318 6.35,0.12661 0.09,-0.14553 0.4242,-0.26409 0.7431,-0.26356 0.8217,0.001 5.3246,-1.15138 5.4307,-1.39009 0.048,-0.10914 0.2422,-0.19844 0.4309,-0.19844 0.3593,0 5.1801,-1.47003 6.0953,-1.8588 3.1178,-1.32441 9.8703,-2.00237 10.7895,-1.08314 0.1421,0.14206 0.5711,0.15021 1.0263,0.0196 2.0048,-0.5749 3.3333,1.25058 2.0748,2.85047 -0.559,0.71069 -0.7606,2.98225 -0.2646,2.98225 0.1455,0 0.2646,0.17858 0.2646,0.39688 0,0.21827 0.2083,0.41498 0.463,0.43718 0.2547,0.0222 0.6416,0.055 0.8599,0.0729 0.2183,0.0179 0.3813,0.22878 0.3633,0.46818 -0.027,0.35949 0.3417,0.46239 2.1172,0.59067 1.1824,0.0854 2.5665,0.19586 3.0758,0.24546 v -5.3e-4 c 0.9309,0.0907 2.2783,0.0477 7.4089,-0.23616 3.3766,-0.1868 11.5362,-1.54649 12.0251,-2.00401 0.1382,-0.12936 0.4705,-0.23513 0.7384,-0.23513 0.6259,0 3.3622,-1.42181 4.1507,-2.15646 0.3334,-0.3106 0.7676,-0.95076 0.9648,-1.42265 0.3168,-0.75818 0.3009,-0.97669 -0.1365,-1.88051 -0.4586,-0.94768 -2.9072,-3.53621 -3.345,-3.53621 -0.106,0 -0.6565,-0.47303 -1.2232,-1.0511 -0.8598,-0.87705 -0.9845,-1.13642 -0.7544,-1.56632 0.4084,-0.76314 2.6877,-0.91685 9.3177,-0.62786 4.9395,0.21529 5.9535,0.19012 7.7799,-0.19483 2.3575,-0.49689 2.484,-0.53989 4.8778,-1.65209 0.9459,-0.43947 1.8152,-0.96171 1.9316,-1.16065 0.1164,-0.19896 0.3337,-0.36174 0.4832,-0.36174 0.1494,0 0.5922,-0.32742 0.9834,-0.7276 2.81,-2.87446 2.0555,-4.85321 -2.144,-5.62292 -0.609,-0.1116 -1.0277,-0.1942 -1.3266,-0.26768 h -10.0355 c 0.1114,0.31475 0.064,0.32828 -0.2548,0.0692 -0.029,-0.0239 -0.063,-0.0471 -0.1003,-0.0692 h -8.4062 v -0.24029 c -0.2406,-8e-4 -0.4056,-5.3e-4 -0.6501,-0.002 -7.3489,-0.0295 -7.4759,-0.0392 -7.2026,-0.54984 0.2557,-0.47775 0.2227,-0.49863 -0.4077,-0.2589 -1.0093,0.38359 -1.0444,0.35623 -1.0904,-0.83457 -0.023,-0.60081 -0.2016,-1.19607 -0.3969,-1.32292 -0.1952,-0.1268 -1.307,-0.2006 -2.4712,-0.1633 l -2.1166,0.0677 -0.969,-1.98437 c -0.5329,-1.09141 -1.4044,-3.353596 -1.9363,-5.027085 -0.5318,-1.67349 -1.1892,-3.697558 -1.4609,-4.497917 -0.4371,-1.287992 -0.5037,-2.510084 -0.5777,-10.635009 l -0.084,-9.179803 -0.8889,-0.916739 c -1.5512,-1.600031 -5.0966,-3.108923 -8.2392,-3.506764 -2.1673,-0.274378 -2.3672,-0.478531 -2.3772,-2.377633 -0.01,-2.10026 0.4142,-2.406015 3.1311,-2.273244 4.7402,-20.422118 -19.3548,-14.186496 -9.8615,-0.448448 z m -4.6114,22.05396 c 0.62,-0.0601 0.5214,5.206079 -0.1793,7.926649 -0.3613,1.402715 -0.2754,2.002978 0.2857,2.002978 0.5552,0 0.6741,0.408337 0.478,1.637625 -0.2044,1.2822 -0.6466,1.77015 -3.6613,4.03903 -1.9841,1.49284 -2.6507,1.83762 -1.9419,1.00407 1.1793,-1.387227 3.4716,-6.691155 4.3118,-9.977166 0.2218,-0.86732 0.4036,-2.676112 0.4036,-4.019391 0,-1.34329 0.1082,-2.509576 0.2408,-2.591573 0.022,-0.01328 0.043,-0.02029 0.063,-0.02223 z m 18.4433,0.404627 c 0.1779,0.106779 0.3033,0.831363 0.3033,2.642733 0,2.22332 0.1301,3.052529 0.8201,5.22552 0.4511,1.42057 1.3467,3.642239 1.9901,4.936649 0.6435,1.2944 1.1381,2.378553 1.0981,2.409153 -0.04,0.0306 -1.0244,-0.633039 -2.1885,-1.474324 -2.076,-1.500222 -2.3779,-1.924587 -2.4825,-3.493329 -0.018,-0.26916 0.2382,-0.572018 0.5999,-0.709517 0.628,-0.238789 -0.056,0.968475 -0.4309,-0.564004 -0.514,-2.101131 -2.2569,-10.501643 0.2904,-8.972881 z m -31.9045,19.050005 c 0.7727,0 1.3754,0.6186 1.157,1.18752 -0.1969,0.51314 -1.4929,0.53465 -1.4929,0.0248 0,-0.20638 -0.073,-0.56357 -0.1607,-0.79375 -0.1199,-0.31243 0.01,-0.41858 0.4966,-0.41858 z m 45.268,0 c 0.5229,0 0.5904,0.10882 0.4899,0.79375 -0.091,0.61846 -0.2513,0.79375 -0.726,0.79375 -0.3352,0 -0.6627,-0.14882 -0.7277,-0.33073 -0.2024,-0.56462 0.3283,-1.25677 0.9638,-1.25677 z m 20.4318,5.14749 c 0.02,-0.004 0.046,-0.004 0.078,5.3e-4 0.042,0.006 0.092,0.0203 0.1508,0.0429 0.2259,0.0867 0.4109,0.20428 0.4109,0.26148 0,0.21429 -0.5045,0.0938 -0.6599,-0.15761 -0.052,-0.0844 -0.041,-0.13499 0.021,-0.14728 z m -38.9263,15.0735 c 0.1059,0.007 0.264,0.11166 0.4021,0.27801 0.3817,0.4599 0.3084,0.50306 -0.2517,0.14883 -0.2142,-0.13538 -0.3201,-0.31474 -0.2362,-0.39894 0.021,-0.0211 0.05,-0.0301 0.086,-0.0279 z" />
    <path
       style="fill:#afafaf;fill-opacity:1;stroke:none;stroke-width:0.648999;stroke-miterlimit:4;stroke-dasharray:none;stroke-opacity:1"
       d="m -672.21202,68.776176 c 0.4147,2.62682 3.0415,3.87111 1.2442,6.49793 -1.7973,2.62682 -1.7973,6.49793 -1.5208,7.1892 0.2766,0.69127 0.553,1.38254 0.553,3.87111 0,2.48857 -0.1382,7.74222 -0.1382,7.74222 0,0 6.0832,0.96777 9.1248,0.69126 3.0415,-0.2765 10.0925,-0.96777 10.0925,-0.96777 0,0 -0.2765,-1.5208 -0.553,-2.90333 -0.2765,-1.38254 -0.4148,-2.76508 -0.4148,-3.73286 0,-0.96777 0.4148,-1.93555 0.8295,-2.76507 0.4148,-0.82953 1.7973,-3.04159 1.2443,-4.70063 -0.553,-1.65905 -1.3825,-2.07381 -1.5208,-3.3181 -0.1382,-1.24428 -0.1382,-3.04158 0.1383,-4.28587 0.2765,-1.24428 0,-4.00936 0,-4.00936 l -4.8389,-0.69127 c 0,0 2.3503,2.48857 -0.4148,3.5946 -2.765,1.10603 -2.9033,4.28587 -5.1154,1.93556 -2.212,-2.35032 -2.212,-1.93556 -3.0415,-3.45635 -0.8296,-1.52079 -1.1061,-2.07381 -1.1061,-2.07381 z"
       id="path18178" />
    <path
       style="fill:#706767;fill-opacity:1;stroke:none;stroke-width:0.119899;stroke-miterlimit:4;stroke-dasharray:none;stroke-opacity:1"
       d="m -649.08132,116.79599 c -0.3273,-0.0424 -0.4454,-0.11621 -0.4825,-0.30165 -0.046,-0.22834 0.048,-0.5328 0.1644,-0.5328 0.2888,0 1.0488,-1.5121 1.2207,-2.42867 0.1106,-0.59005 0.1512,-1.52376 0.1011,-2.32897 -0.068,-1.09323 -0.1748,-1.45036 -0.5183,-1.73345 -0.2471,-0.2037 -0.621,-0.29788 -1.4141,-0.3562 -0.3764,-0.0277 -0.8803,-0.0656 -1.1199,-0.0842 l -0.4355,-0.0339 0.9488,-0.60902 c 1.3438,-0.86261 2.287,-1.40911 3.2528,-1.88464 0.7123,-0.35076 0.8711,-0.4497 1.0616,-0.66154 0.3395,-0.37767 0.3625,-0.7203 0.068,-1.02112 -0.3355,-0.34311 -0.8155,-0.49153 -1.6988,-0.52532 -1.0936,-0.0418 -1.7101,0.1323 -3.3244,0.93894 -0.908,0.45371 -1.354,0.60994 -1.7412,0.60994 -0.1457,0 -0.5919,-0.0656 -0.9915,-0.14583 -0.8447,-0.16953 -1.6222,-0.26496 -1.7774,-0.21813 -0.2592,0.0782 -0.6343,0.57621 -1.1576,1.53669 -0.6509,1.19463 -0.6138,1.174 -2.1069,1.17218 -0.6032,-8e-4 -1.7548,-0.0222 -2.5593,-0.0477 -2.3681,-0.0751 -2.5423,-0.11969 -2.9115,-0.74553 -0.2753,-0.46671 -0.4957,-0.69638 -0.7685,-0.80052 -0.321,-0.12263 -0.9614,-0.0657 -1.7494,0.15552 -1.1418,0.32054 -1.2156,0.31129 -2.5662,-0.3215 -1.7391,-0.81481 -2.8523,-1.12284 -4.0579,-1.12284 -0.8268,0 -1.3655,0.15172 -1.9429,0.54723 -0.1147,0.0786 -0.2426,0.19484 -0.2842,0.25843 -0.069,0.10502 -0.068,0.1302 0.01,0.27483 0.2436,0.47115 0.9808,0.92398 2.0503,1.25948 0.7712,0.24192 1.2659,0.47397 1.4805,0.69448 0.2601,0.26727 0.2661,0.44253 0.041,1.1931 -0.2672,0.89014 -0.4019,2.23265 -0.3557,3.54438 0.036,1.01585 0.1094,1.49928 0.3949,2.59323 l 0.2136,0.81836 -0.2596,0.0324 c -0.1428,0.0178 -0.52,0.0638 -0.8382,0.10209 -1.7764,0.21382 -8.5282,0.19587 -9.8903,-0.0263 -3.4216,-0.55809 -5.0198,-1.21472 -5.5669,-2.28718 -0.3891,-0.76263 -0.3058,-1.65419 0.2577,-2.75847 0.7827,-1.53404 2.3411,-3.19089 3.5984,-3.8258 0.1747,-0.0883 0.5377,-0.21857 0.8065,-0.2896 1.7491,-0.46217 3.3208,-1.45771 4.7732,-3.02342 1.8558,-2.00058 2.3651,-2.43636 6.1136,-5.232024 l 1.9202,-1.43204 1.8187,0.45294 c 3.6529,0.9098 5.1754,1.15347 7.1993,1.15222 2.054,-0.001 3.6009,-0.27695 6.5988,-1.17604 1.4162,-0.42471 2.0701,-0.59534 2.3171,-0.60463 0.2228,-0.008 0.9782,0.40026 1.9137,1.03525 2.8424,1.929344 2.9445,2.003664 3.3612,2.446294 0.2241,0.23806 0.5707,0.65766 0.7703,0.93246 1.3086,1.8021 2.0747,2.68736 2.9758,3.4386 1.4604,1.21756 3.2044,1.95213 4.9879,2.10081 1.5305,0.1276 1.8462,0.19685 2.3336,0.51184 0.3455,0.22333 1.2782,1.13413 1.7063,1.66625 0.6513,0.80949 1.1828,1.66513 1.4128,2.27412 0.2289,0.60617 0.1104,1.07767 -0.4382,1.74256 -0.9089,1.1015 -2.307,1.75509 -4.8435,2.26413 -2.1737,0.43624 -4.4873,0.66223 -8.2607,0.80692 -1.3565,0.052 -1.4317,0.0522 -1.8086,0.003 z"
       id="path18180" />
    <path
       style="fill:#706767;fill-opacity:1;stroke:none;stroke-width:0.648999;stroke-miterlimit:4;stroke-dasharray:none;stroke-opacity:1"
       d="m -672.03732,116.48925 c 7.5675,-1.53629 20.4719,-7.4931 20.4719,-7.4931"
       id="path18182" />
    <path
       style="opacity:0.515493;fill:#faf2ec;fill-opacity:1;stroke-width:2.95891;paint-order:markers fill stroke"
       d="m -649.07822,116.79562 c -3.7223,0.27309 -19.7774,1.69293 -24.6923,1.69293 -4.9148,0 -14.6618,0.2262 -13.6788,-0.21068 0.9829,-0.43687 3.5431,-1.82036 1.0095,-2.629 -5.96291,-0.38324 -2.28549,-3.88661 1.2014,-8.95591 0.7678,-2.81572 1.0921,0.21843 1.0921,0.21843 l 3.0582,-1.41984 -3.0582,0.0546 c 0,0 -0.6552,-0.5461 -1.3652,-0.10922 -0.7099,0.43687 -0.7645,0.87375 -1.4198,0.92836 -0.6553,0.0546 -12.2871,-9.938885 -21.7891,-11.031067 -9.502,-1.092188 -30.5812,-4.587179 -34.0762,7.208417 -3.495,11.7956 -3.6042,30.36274 11.1403,36.91585 14.7445,6.55311 25.2295,8.8467 34.2946,10.59419 9.0652,1.7475 53.5171,-15.07215 58.3227,-15.18137 4.8056,-0.10922 11.1403,-0.98296 20.5331,-3.49499 9.3927,-2.51203 16.8196,-5.57014 20.0962,-11.7956 3.2765,-6.22545 -9.1744,-17.36574 -15.2906,-18.78558 -6.1163,-1.419835 -18.0211,-3.822644 -19.004,-1.529052 -0.983,2.293582 -4.228,5.567192 -4.0735,6.107792 0.1545,0.54061 0.6178,0.69507 -0.1545,1.3129 -0.7722,0.61783 -0.9267,0.69506 -0.9267,0.69506 0,0 0,0.54061 0.3089,0.54061 0.3089,0 2.4713,1.00397 2.6258,1.62181 0.1544,0.61783 1.3901,1.46735 1.3901,2.78025 0.1307,3.75024 -10.0586,3.93786 -15.5471,4.47146 z"
       id="path18184"
       sodipodi:nodetypes="csscccccsssssssssscsscscccc" />
    <path
       style="opacity:1;fill:#6969b9;fill-opacity:1;stroke:#6969b9;stroke-width:1.35546;stroke-miterlimit:13.8;stroke-dasharray:none;stroke-opacity:1;paint-order:markers fill stroke"
       d="m -658.18232,62.178057 c 0.21258,-0.476851 1.26191,-4.5912 1.44043,-5.647798 l 0.13868,-0.82083 -2.14934,-1.104048 c -1.2775,-0.656214 -2.59113,-1.521861 -3.23851,-2.134168 -0.59905,-0.566532 -1.17739,-0.997272 -1.28521,-0.957148 -0.10781,0.04022 -0.5678,0.545321 -1.0222,1.12277 -0.53681,0.682166 -1.27568,1.289445 -2.10964,1.733927 -0.80271,0.42782 -1.28219,0.81633 -1.28004,1.037063 0.002,0.194111 0.28246,1.614128 0.62349,3.155477 0.34103,1.541396 0.58257,2.840034 0.53675,2.885857 -0.17631,0.176299 -1.34368,-2.61753 -1.58063,-3.782867 -0.60036,-2.952699 0.74518,-5.762185 3.44298,-7.188954 1.40413,-0.742592 3.93005,-0.793011 5.22666,-0.104333 1.22745,0.651952 2.47439,2.111328 3.01315,3.526509 0.60021,1.576589 0.78309,4.515786 0.42903,6.895585 l -0.26008,1.748149 h -1.04417 c -0.91734,0 -1.02439,-0.04453 -0.88135,-0.365191 z"
       id="path18188" />
  </g>
</svg>
