<?xml version="1.0" encoding="UTF-8" standalone="no"?>
<svg
   xmlns:dc="http://purl.org/dc/elements/1.1/"
   xmlns:cc="http://creativecommons.org/ns#"
   xmlns:rdf="http://www.w3.org/1999/02/22-rdf-syntax-ns#"
   xmlns:svg="http://www.w3.org/2000/svg"
   xmlns="http://www.w3.org/2000/svg"
   xmlns:xlink="http://www.w3.org/1999/xlink"
   xmlns:sodipodi="http://sodipodi.sourceforge.net/DTD/sodipodi-0.dtd"
   xmlns:inkscape="http://www.inkscape.org/namespaces/inkscape"
   width="680.8692"
   height="577.96655"
   viewBox="0 0 180.14664 152.92032"
   version="1.1"
   id="svg11830"
   sodipodi:docname="banner 1 animated layers.svg"
   inkscape:version="1.0.2 (e86c870879, 2021-01-15, custom)">
  <sodipodi:namedview
     pagecolor="#ffffff"
     bordercolor="#999999"
     borderopacity="1"
     objecttolerance="10"
     gridtolerance="10"
     guidetolerance="10"
     inkscape:pageopacity="0"
     inkscape:pageshadow="2"
     inkscape:window-width="1920"
     inkscape:window-height="1001"
     id="namedview130"
     showgrid="false"
     inkscape:snap-page="true"
     showguides="true"
     inkscape:guide-bbox="true"
     inkscape:zoom="0.66455165"
     inkscape:cx="389.63102"
     inkscape:cy="526.17306"
     inkscape:window-x="-9"
     inkscape:window-y="-9"
     inkscape:window-maximized="1"
     inkscape:current-layer="svg11830"
     inkscape:document-rotation="0"
     units="px">
    <sodipodi:guide
       position="-290.93236,448.04086"
       orientation="1,0"
       id="guide955" />
    <sodipodi:guide
       position="217.06763,-9.0701731"
       orientation="1,0"
       id="guide1318" />
  </sodipodi:namedview>
  <defs
     id="defs11824">
    <clipPath
       id="clipPath3042-6">
      <rect
         x="-2840.6001"
         y="1196.1"
         width="178.07001"
         height="80.402"
         ry="0"
         fill="url(#linearGradient3046)"
         stroke-width="0"
         style="mix-blend-mode:normal"
         id="rect3092" />
    </clipPath>
    <linearGradient
       id="linearGradient14111-4"
       x1="-1424"
       x2="-1749.4"
       y1="-329.57999"
       y2="-356.03"
       gradientTransform="matrix(1.281,0,0,1.185,282.71,2623.4)"
       gradientUnits="userSpaceOnUse">
      <stop
         stop-color="#dad59c"
         stop-opacity=".56863"
         offset="0"
         id="stop3095" />
      <stop
         stop-color="#dad59c"
         stop-opacity=".56863"
         offset="0.77040118"
         id="stop10246"
         style="stop-color:#c5e4ce;stop-opacity:0.95415473" />
      <stop
         stop-color="#c3e9d2"
         offset="1"
         id="stop3097" />
    </linearGradient>
    <filter
       id="filter16548"
       x="-0.17704"
       y="-0.16529"
       width="1.3541"
       height="1.3306"
       color-interpolation-filters="sRGB">
      <feGaussianBlur
         stdDeviation="5.9980916"
         id="feGaussianBlur3100" />
    </filter>
    <radialGradient
       id="radialGradient14571"
       cx="-1677.5"
       cy="1374"
       r="77.181"
       gradientTransform="matrix(1,0,0,0.96073,0,53.96)"
       gradientUnits="userSpaceOnUse">
      <stop
         stop-color="#fdfae3"
         offset="0"
         id="stop3103" />
      <stop
         stop-color="#fdfae3"
         offset="1"
         id="stop3105" />
    </radialGradient>
    <filter
       id="filter14366"
       x="-0.30002001"
       y="-0.31994"
       width="1.6"
       height="1.6399"
       color-interpolation-filters="sRGB">
      <feGaussianBlur
         stdDeviation="12.174285"
         id="feGaussianBlur3108" />
    </filter>
    <rect
       x="-1893.2883"
       y="-1487.8069"
       width="202.3266"
       height="55.076523"
       id="rect16393" />
    <rect
       x="-1893.2883"
       y="-1487.8069"
       width="202.3266"
       height="55.076523"
       id="rect11717" />
    <rect
       x="-1893.2883"
       y="-1487.8069"
       width="93.163788"
       height="18.132549"
       id="rect16395" />
    <rect
       x="-1893.2883"
       y="-1487.8069"
       width="93.163788"
       height="18.132549"
       id="rect11720" />
    <rect
       x="-1893.2883"
       y="-1487.8069"
       width="133.84019"
       height="21.885801"
       id="rect16397" />
    <rect
       x="-1893.2883"
       y="-1487.8069"
       width="133.84019"
       height="21.885801"
       id="rect11723" />
    <rect
       x="-1893.2883"
       y="-1487.8069"
       width="120.50266"
       height="17.449078"
       id="rect16399" />
    <rect
       x="-1893.2883"
       y="-1487.8069"
       width="120.50266"
       height="17.449078"
       id="rect11726" />
    <rect
       x="-1893.2883"
       y="-1487.8069"
       width="120.50266"
       height="17.449078"
       id="rect3057" />
    <rect
       x="-1893.2883"
       y="-1487.8069"
       width="120.50266"
       height="17.449078"
       id="rect11729" />
    <filter
       style="color-interpolation-filters:sRGB"
       id="filter8468-6"
       x="-0.0863766"
       width="1.0836018"
       y="-0.45830238"
       height="1.8050721">
      <feGaussianBlur
         stdDeviation="110.75338"
         id="feGaussianBlur8470-9" />
    </filter>
    <rect
       x="-1893.2883"
       y="-1487.8069"
       width="216.5508"
       height="45.871487"
       id="rect10154-6" />
    <rect
       x="-1893.2883"
       y="-1487.8069"
       width="216.5508"
       height="45.871487"
       id="rect11734" />
    <linearGradient
       xlink:href="#linearGradient18639"
       id="linearGradient10239"
       gradientUnits="userSpaceOnUse"
       gradientTransform="matrix(2.099025,0,0,2.099025,-1039.7391,4811.6031)"
       x1="-1125.1824"
       y1="-1481.6989"
       x2="-1047.6797"
       y2="-1482.8871" />
    <linearGradient
       id="linearGradient18639">
      <stop
         style="stop-color:#f0db88;stop-opacity:1"
         offset="0"
         id="stop18635" />
      <stop
         style="stop-color:#c4e1a4;stop-opacity:1"
         offset="1"
         id="stop18637" />
    </linearGradient>
    <rect
       x="-163.84615"
       y="-1563.3816"
       width="168.75198"
       height="31.2204"
       id="rect25349-3-5-7" />
    <rect
       x="-163.84615"
       y="-1563.3816"
       width="168.75198"
       height="31.2204"
       id="rect11741" />
    <filter
       id="filter16548-0"
       x="-0.17704"
       y="-0.16529"
       width="1.3541"
       height="1.3306"
       color-interpolation-filters="sRGB">
      <feGaussianBlur
         stdDeviation="5.9980916"
         id="feGaussianBlur3100-7" />
    </filter>
    <radialGradient
       id="radialGradient14571-9"
       cx="-1677.5"
       cy="1374"
       r="77.181"
       gradientTransform="matrix(1,0,0,0.96073,0,53.96)"
       gradientUnits="userSpaceOnUse">
      <stop
         stop-color="#fdfae3"
         offset="0"
         id="stop3103-7" />
      <stop
         stop-color="#fdfae3"
         offset="1"
         id="stop3105-5" />
    </radialGradient>
    <filter
       id="filter14366-3"
       x="-0.30002001"
       y="-0.31994"
       width="1.6"
       height="1.6399"
       color-interpolation-filters="sRGB">
      <feGaussianBlur
         stdDeviation="12.174285"
         id="feGaussianBlur3108-6" />
    </filter>
  </defs>
  <metadata
     id="metadata11827">
    <rdf:RDF>
      <cc:Work
         rdf:about="">
        <dc:format>image/svg+xml</dc:format>
        <dc:type
           rdf:resource="http://purl.org/dc/dcmitype/StillImage" />
        <dc:title></dc:title>
      </cc:Work>
    </rdf:RDF>
  </metadata>
  <text
     xml:space="preserve"
     id="text10152-4"
     style="font-style:normal;font-variant:normal;font-weight:600;font-stretch:normal;font-size:13.3341px;font-family:Raleway;-inkscape-font-specification:'Raleway Semi-Bold';text-align:start;white-space:pre;shape-inside:url(#rect10154-6);display:inline;fill:#5c5d5d;fill-opacity:1;stroke:none;stroke-width:0;"
     x="3433.5801"
     y="3219.5986"><tspan
       x="-1893.2891"
       y="-1475.4635"><tspan
         style="stroke-width:0">Take 5 day free trial </tspan></tspan></text>
  <g
     transform="matrix(0.74223642,0,0,0.74223642,1346.6799,-1075.314)"
     style="mix-blend-mode:normal"
     id="g3204">
    <g
       transform="matrix(0.2524,0.186,-0.186,0.2524,-1748.4,1425.6)"
       fill="none"
       fill-rule="evenodd"
       id="g3160">
      <g
         transform="rotate(-18.435,106.66,-132.8)"
         id="g3137">
        <g
           transform="translate(58.494,33.58)"
           fill="#b28b67"
           id="g3133">
          <path
             d="M 8.9499,37.361 C 3.9585,31.5021 0.5802,24.322 1.1447,16.276 2.7712,-6.906 35.0407,-1.806 41.3177,9.8942 c 6.2771,11.7 5.5312,41.378 -2.5814,43.469 -3.2353,0.83394 -10.127,-1.2089 -17.142,-5.4369 l 4.4029,31.149 H 2e-4 Z"
             id="path3131" />
        </g>
        <path
           d="m 111.33,27.254 c -0.53835,-1.8923 -1.9864,-3.5126 -3.9378,-3.9932 -0.47323,-0.1166 -0.96195,-0.16369 -1.4489,-0.14405 -0.17466,0.007 -0.22365,0.05734 -0.30527,-0.06481 -0.0606,-0.09056 -0.0619,-0.3118 -0.0868,-0.41822 -0.0775,-0.33093 -0.17453,-0.65774 -0.29421,-0.97608 -0.40831,-1.0858 -1.0945,-2.0467 -1.9217,-2.8562 -1.5472,-1.5144 -3.6378,-2.5595 -5.8098,-2.7486 -1.1887,-0.10343 -2.3688,0.0897 -3.4927,0.47641 -0.58184,0.20018 -1.146,0.44945 -1.6955,0.72503 -0.16545,0.08295 -0.70224,0.48921 -0.86826,0.46289 -0.18338,-0.02902 -0.55192,-0.48473 -0.70102,-0.59912 -1.843,-1.414 -4.1189,-1.9699 -6.4144,-1.9529 -2.5911,0.01914 -5.0861,0.14861 -7.2471,1.7281 -0.45745,0.33442 -0.89311,0.70056 -1.3079,1.0861 -0.21844,0.20296 -0.43002,0.41352 -0.63183,0.63284 -0.12175,0.13232 -0.24029,0.26762 -0.3544,0.40655 -0.19366,0.23582 -0.1626,0.31329 -0.43367,0.14875 -1.04,-0.63184 -2.2452,-0.92735 -3.459,-0.77817 -0.7208,0.08864 -1.4221,0.30504 -2.088,0.58987 -0.22672,0.09696 -0.75151,0.48373 -0.99316,0.4875 -0.23972,0.0037 -0.75715,-0.35483 -1.0041,-0.44596 -1.3337,-0.49234 -2.7712,-0.6137 -4.1731,-0.3862 -1.446,0.23475 -2.8665,0.81168 -4.0917,1.6089 -0.58927,0.3835 -1.1034,0.8084 -1.5164,1.3786 -0.17831,0.24621 -0.33948,0.50664 -0.54157,0.73492 -0.11832,0.13367 -0.35262,0.27082 -0.4161,0.43998 0.03799,-0.1013 -1.5814,-0.7256 -1.7342,-0.76551 -0.81413,-0.21263 -1.6431,-0.16952 -2.4403,0.09283 -1.4991,0.49334 -2.7883,1.5997 -3.8479,2.734 -0.54421,0.58262 -1.0204,1.2266 -1.4247,1.9127 -0.19373,0.32866 -0.3709,0.6667 -0.533,1.0119 -0.07855,0.16724 -0.13061,0.37646 -0.23408,0.52713 -0.13339,0.19413 -0.22301,0.19783 -0.46459,0.28249 -1.2269,0.42981 -2.3453,1.1573 -3.197,2.1404 -0.86148,0.99457 -1.4205,2.2193 -1.6548,3.5091 -0.01378,0.07597 -0.02199,0.39083 -0.06648,0.43195 -0.06098,0.05662 -0.3077,0.03158 -0.40103,0.04254 -0.3232,0.03792 -0.64411,0.09433 -0.96074,0.16931 -0.5837,0.13815 -1.1518,0.34146 -1.6892,0.60737 -2.095,1.0365 -3.5932,2.9798 -4.3264,5.1664 -0.76936,2.2948 -0.75572,4.9238 0.16381,7.1757 0.14853,0.36372 0.32527,0.71678 0.53285,1.0508 0.12746,0.20502 0.1686,0.20552 0.08583,0.42064 -0.09226,0.23931 -0.26078,0.47185 -0.37033,0.70568 -0.3574,0.76309 -0.60726,1.5724 -0.76508,2.399 -0.25893,1.356 -0.38725,2.7809 -0.13182,4.1472 0.11861,0.6344 0.32527,1.2546 0.64054,1.8196 0.16074,0.28811 0.34883,0.56135 0.5612,0.8141 0.11026,0.13125 0.22737,0.25659 0.34983,0.37667 0.07005,0.06858 0.16188,0.12862 0.22144,0.20523 0.14539,0.18681 0.17595,0.03322 0.10097,0.30753 -0.10483,0.3835 -0.34248,0.76188 -0.48801,1.1351 -0.14996,0.38457 -0.28549,0.7744 -0.40946,1.1681 -0.25107,0.79716 -0.46337,1.6088 -0.59612,2.4343 -0.25493,1.585 -0.21016,3.2739 0.53957,4.7286 0.32056,0.62224 0.78043,1.1681 1.3382,1.5927 0.273,0.20772 0.5687,0.38677 0.8789,0.53382 0.15938,0.07569 0.3629,0.10813 0.43559,0.26228 0.07826,0.16575 -0.03792,0.4949 -0.06441,0.68022 -0.23051,1.6121 -0.34612,3.3048 0.13311,4.8846 0.44138,1.4551 1.4132,2.7399 2.6749,3.5904 2.4477,1.65 5.7471,1.557 8.3189,0.23603 0.67039,-0.34438 1.2976,-0.77191 1.8571,-1.2762 1.4247,1.9179 4.3564,1.8572 6.4386,1.3107 2.5941,-0.68078 4.6757,-2.4846 5.875,-4.8546 1.6399,1.9963 5.0815,1.3486 6.2187,-0.81708 0.27835,-0.53004 0.44345,-1.1142 0.52471,-1.7054 0.04277,-0.31087 0.0155,-0.62444 0.04763,-0.93282 0.04099,-0.39296 0.30349,-0.77483 0.45438,-1.155 0.29385,-0.73983 0.4763,-1.5041 0.48415,-2.3021 0.0041,-0.41665 -0.0487,-0.8227 -0.08833,-1.236 -0.03563,-0.37205 0.06755,-0.7187 0.12618,-1.0859 -0.66532,0.10955 -1.4759,-0.06986 -2.1027,-0.26278 -0.61512,-0.1893 -1.1912,-0.6879 -1.6254,-1.1432 -1.0081,-1.0574 -1.6239,-2.4435 -2.0451,-3.8231 -0.92453,-3.0279 -0.54556,-6.6607 2.5,-8.3224 1.4188,-0.77412 5.6692,-0.77158 7.359,-0.38898 1.7767,0.40228 3.791,4.3227 3.8901,4.6912 0.06134,0.22807 0.03049,0.51034 0.24001,0.66229 0.46044,0.33413 1.2198,-0.24571 1.5594,-0.5319 0.58605,-0.49391 1.0041,-1.1511 1.3661,-1.8172 0.78885,-1.4512 1.4248,-3.0075 1.8741,-4.5962 0.34633,-1.2248 0.56777,-2.4879 1.0204,-3.6815 0.45045,-1.1877 1.1605,-2.2493 2.2646,-2.9221 1.201,-0.73193 2.5777,-1.1174 3.8962,-1.5774 1.3069,-0.45585 2.5913,-1.013 3.6044,-1.9803 0.22272,-0.2127 0.43909,-0.4387 0.6184,-0.68911 0.14153,-0.19769 0.28142,-0.57614 0.49708,-0.70149 0.33526,-0.19499 0.82456,0.31208 1.1145,0.49618 1.4303,0.90842 2.6236,2.1754 3.5861,3.5594 0.95709,1.3765 1.7424,2.701 2.3806,4.2381 0.47337,1.14 0.7688,2.5999 1.6014,3.5342 0.37168,0.41715 3.1345,0.66951 4.0294,0.30532 0.8949,-0.36419 1.8978,-1.3099 2.1982,-1.9025 0.30749,-0.60659 0.38097,-1.2729 0.24957,-1.937 -0.0773,-0.39069 -0.23507,-0.75562 -0.32141,-1.1393 -0.0727,-0.32232 -0.13867,-0.627 -0.29556,-0.9223 -0.29735,-0.55957 -0.80535,-0.96178 -1.418,-1.1299 0.63754,-0.58781 1.1658,-1.291 1.5314,-2.0771 0.37982,-0.81666 0.70173,-1.8098 0.79307,-2.7061 0.0743,-0.72802 -0.0404,-1.4823 -0.43888,-2.1079 -0.4181,-0.65631 -1.1588,-1.0845 -1.7996,-1.4939 0.97887,-0.76586 1.8166,-1.6973 2.5054,-2.7285 1.3394,-2.0054 2.1679,-4.5332 1.4877,-6.9239 z"
           fill="#191847"
           id="path3135" />
      </g>
      <g
         id="Bottom/Standing/Skinny-Jeans-Walk"
         transform="translate(0,202.59)">
        <polygon
           points="190.74,137.82 227.24,239.39 248.06,239.39 197.88,1.0631e-13 138.65,0 "
           fill="#1f28cf"
           id="polygon3139" />
        <path
           d="m 125.78,0 c -0.56615,47.287 -0.15685,110.95 -1.476,113.9 -0.87941,1.9651 -33.254,7.3132 -87.081,50.128 l 10.729,18.244 c 63.904,-41.21 102.51,-47.519 105.78,-53.01 4.9007,-8.2358 29.522,-84.023 42.331,-129.26 z"
           fill="#2b44ff"
           id="path3141" />
        <g
           id="Accessories/Shoe/Flat-Pointy"
           transform="rotate(50,-149.17,143.4)"
           fill="#191847">
          <path
             d="m -15.325,36.64 1.0832,-22.748 h 22.748 c 10.786,7.5826 24.868,13.721 42.246,18.415 v 4.3329 H 9.5892 l -14.082,-2.1664 v 2.1664 z"
             id="path3143" />
        </g>
        <g
           transform="translate(225.31,215.56)"
           fill="#191847"
           id="g3148">
          <path
             d="M 0,43.329 1.0832,20.581 h 22.748 c 10.786,7.5826 24.868,13.721 42.246,18.415 v 4.3329 h -41.163 l -14.082,-2.1664 v 2.1664 z"
             id="path3146" />
        </g>
      </g>
      <g
         id="Body/Long-Sleeve"
         transform="rotate(-18.435,412.88,23.017)">
        <path
           d="m 207.98,70.746 42.769,-5.8338 c 8.5555,-4.7588 16.426,-7.9803 23.612,-9.6648 2.0222,-0.05904 5.239,0.67606 0.44678,4.6711 -4.7922,3.9951 -9.6546,8.4145 -8.8008,10.547 0.8538,2.1325 5.3106,1.3388 6.0488,4.6182 0.4922,2.1862 -6.7408,2.5415 -21.699,1.0657 l -34.703,13.758 z m -134.35,9.8995 23.72,0.08902 c -26.009,58.531 -39.571,89.176 -40.685,91.937 -2.5065,6.2118 2.7976,15.672 5.0659,20.756 -7.3876,3.3058 -6.6005,-8.9368 -15.92,-4.6011 -8.5062,3.9574 -14.977,11.128 -24.805,5.0639 -1.2083,-0.74554 -2.5323,-3.5526 0.66677,-5.7462 7.9701,-5.465 19.455,-15.03 21.007,-18.178 2.1162,-4.2933 12.433,-34.067 30.95,-89.321001 z"
           fill="#997659"
           id="path3151" />
        <path
           transform="rotate(5,194.1,63.468)"
           d="m 133.75,10.474 18.609,-0.38613 c 8.163,40.824 35.26,64.691 90.057,51.015 l 12.027,52.44 c -51.349,11.256 -98.717,-5.5522 -112.98,-61.034 -3.6916,-14.362 -6.9266,-29.362 -7.715,-42.035 z"
           fill="#afb9c5"
           id="path3153" />
        <path
           d="m 129.44,0.017266 28.139,6.4445 c 0,48.398 15.417,79.276 23.324,114.860004 l -104.01,-2.4644 c -1.0705,12.296 -1.7279,24.933 -2.0705,37.913 H 17.9205 C 30.8145,88.163366 86.0425,37.550366 127.5805,3.66e-4 h 1.8429 z"
           fill="#c5cfd6"
           id="path3155" />
        <path
           d="m 104.36,54.118 c -9.0869,28.823 -13.451,51.45 -13.093,67.881 l -15.001,-3.6797 c 7.8625,-23.151 16.98,-44.612 28.094,-64.201 z"
           fill="#000000"
           fill-opacity="0.1"
           id="path3157" />
      </g>
    </g>
    <g
       transform="matrix(-0.31261,0.024093,0.024093,0.31261,-1580.1,1504.3)"
       fill="none"
       fill-rule="evenodd"
       id="g3196">
      <g
         transform="rotate(-15,162.88,-155.06)"
         id="g3168">
        <g
           transform="translate(56.316,32.33)"
           fill="#915b3c"
           id="g3164">
          <path
             d="M 8.6167,35.97 C 3.8111,30.3292 0.5586,23.416 1.1021,15.67 c 1.566,-22.318 32.634,-17.409 38.677,-6.1442 6.0434,11.264 5.3253,39.838 -2.4853,41.851 -3.1148,0.80289 -9.7503,-1.1639 -16.504,-5.2344 l 4.239,29.989 H -2e-4 Z"
             id="path3162" />
        </g>
        <path
           d="m 98.459,46.913 c -0.24793,-1.4601 -0.85385,-3.0815 -1.3428,-4.4629 -0.63033,-1.7808 -1.5842,-3.3864 -2.634,-4.8997 -1.9763,-2.849 -4.3472,-5.4217 -6.9648,-7.5569 -4.7814,-3.9002 -10.868,-6.1499 -16.853,-5.4193 -3.022,0.36885 -5.9556,1.5216 -8.4525,3.4403 -2.2559,1.7335 -4.4259,4.2854 -7.347,4.4688 -3.1785,0.19935 -6.092,-2.6061 -8.6412,-4.3387 -2.8741,-1.9533 -5.9317,-3.3766 -9.2909,-3.9299 -5.6274,-0.92656 -10.914,0.97471 -14.792,5.5917 -4.127,4.9132 -7.1271,12.118 -4.4168,18.628 0.50378,1.2101 1.1519,2.2303 2.082,3.0759 0.85304,0.77536 2.1559,1.6003 2.5018,2.8392 0.36737,1.3169 -0.73005,3.0158 -1.1556,4.2041 -0.60964,1.7024 -1.1102,3.4895 -0.93224,5.3399 0.29238,3.0389 2.2021,5.9399 4.2187,7.9373 2.0521,2.0326 4.5778,3.1981 7.2754,3.7354 1.8013,0.35872 3.6422,0.55664 5.4729,0.42197 0.9088,-0.06681 1.7108,-0.31928 2.5913,-0.52004 0.85628,-0.19526 1.3348,0.03216 2.0613,0.50174 3.3748,2.1818 7.0036,3.0259 10.9,2.7015 3.2889,-0.27397 7.0796,-1.071 9.7625,-3.3244 2.9795,-2.5027 2.9202,-5.9538 2.2191,-9.641 0.74282,0.36814 2.7979,0.59609 1.5698,-0.8713 -0.48648,-0.58116 -1.4056,-0.81764 -2.0298,-1.1595 -0.72682,-0.39798 -1.4648,-0.91234 -2.0292,-1.5616 -2.2789,-2.6214 0.02279,-7.9561 2.8871,-8.8353 4.2555,-1.3061 5.2083,4.7122 8.2462,6.269 1.7467,0.89511 3.5738,-0.32834 4.8825,-1.5775 1.753,-1.6735 2.9477,-3.8905 3.9792,-6.1466 0.84965,-1.8579 1.6403,-3.7419 2.5063,-5.5906 0.40438,-0.86331 1.8044,-3.3038 1.1013,-4.2799 3.048,-0.60781 6.4429,0.65881 9.068,2.3199 1.085,0.6867 1.9122,1.4438 2.4909,2.656 0.12396,0.25976 0.39388,1.0319 0.7328,1.0635 0.63098,0.05899 0.39517,-0.71211 0.33294,-1.079"
           fill="#191847"
           id="path3166" />
      </g>
      <g
         transform="translate(0,210.69)"
         id="g3186">
        <path
           d="m 101.59,102.3 c 25.018,6.9977 46.603,10.497 64.755,10.497 18.152,0 35.012,-5.3882 50.581,-16.164 -24.483,-7.1825 -44.645,-10.774 -60.488,-10.774 -15.843,0 -34.125,5.4805 -54.848,16.442 z"
           fill="#1f28cf"
           id="path3170" />
        <path
           d="m 188,122.88 c -0.24124,-0.36266 -0.44496,-0.75716 -0.60655,-1.1845 -3.3442,-8.8438 -56.909,-104.25 -62.245,-121.69 h 60.307 c 4.0573,13.262 22.319,96.488 24.889,113.09 8.1088,26.192 24.804,111.02 26.935,116.9 2.2421,6.1821 -10.373,12.622 -13.735,5.0221 -5.3491,-12.093 -18.094,-45.554 -23.769,-65.985 -5.3202,-19.154 -9.6523,-36.386 -11.775,-46.148 z"
           fill="#784931"
           id="path3172" />
        <path
           d="m 138.66,134.53 c -24.489,6.1894 -114.06,17.379 -120.21,19.134 -6.3234,1.8054 -11.868,-11.229 -4.0518,-14.052 12.437,-4.4925 46.706,-14.873 67.483,-19.108 16.712,-3.4071 31.962,-6.1873 42.2,-7.8153 -0.86737,-28.76 -4.8324,-97.778 -2.2335,-112.69 h 53.36 c -2.4921,14.294 -23.559,118.6 -27.474,129.04 -1.2426,3.7272 -4.9503,5.3744 -9.0717,5.4909 z"
           fill="#915b3c"
           id="path3174" />
        <g
           transform="rotate(80,-56.457,88.568)"
           fill="#e4e4e4"
           id="g3178">
          <path
             d="m 2.793,26.492 c -1.1667,3.1146 -1.7501,5.445 -1.7501,6.9913 0,1.8806 0.3133,4.625 0.9399,8.233 h 58.821 c 1.5286,-5.0533 0.64618,-7.7815 -2.6471,-8.1844 -3.2933,-0.40293 -6.0291,-0.76675 -8.2074,-1.0914 l -27.34,-12.188 c -0.52607,-0.23452 -1.1426,0.0018 -1.3772,0.52789 -0.004,0.009 -0.0079,0.01806 -0.01165,0.02717 l -1.7574,4.2629 c -3.0487,1.4225 -5.5261,2.1337 -7.4322,2.1337 -1.5487,0 -3.6874,-0.62545 -6.4161,-1.8764 l 5.7e-6,-1.3e-5 c -1.0472,-0.48004 -2.2852,-0.02029 -2.7653,1.0269 -0.02069,0.04513 -0.039763,0.09099 -0.05718,0.13749 z"
             fill="#b2bbc1"
             id="path3176" />
        </g>
        <g
           transform="translate(216.92,207.54)"
           fill="#e4e4e4"
           id="g3182">
          <path
             d="m 2.793,26.492 c -1.1667,3.1146 -1.7501,5.445 -1.7501,6.9913 0,1.8806 0.3133,4.625 0.9399,8.233 h 58.821 c 1.5286,-5.0533 0.64618,-7.7815 -2.6471,-8.1844 -3.2933,-0.40293 -6.0291,-0.76675 -8.2074,-1.0914 l -27.34,-12.188 c -0.52607,-0.23452 -1.1426,0.0018 -1.3772,0.52789 -0.004,0.009 -0.0079,0.01806 -0.01165,0.02717 l -1.7574,4.2629 c -3.0487,1.4225 -5.5261,2.1337 -7.4322,2.1337 -1.5487,0 -3.6874,-0.62545 -6.4161,-1.8764 l 5.7e-6,-1.3e-5 c -1.0472,-0.48004 -2.2852,-0.02029 -2.7653,1.0269 -0.02069,0.04513 -0.039763,0.09099 -0.05718,0.13749 z"
             fill="#b2bbc1"
             id="path3180" />
        </g>
        <path
           d="m 122.02,0 c 23.514,-6.7274 45.762,-6.7274 66.745,0 7.3003,33.307 25.039,46.527 28.158,97.593 -35.458,17.618 -79.26,-12.565 -115.76,4.6163 -10.429,-24.033 4.1716,-81.91 20.858,-102.21 z"
           fill="#2b44ff"
           id="path3184" />
      </g>
      <g
         transform="rotate(-10,728.47,23.578)"
         id="g3194">
        <path
           d="m 165.44,44.532 36.199,-19.826 c 6.0196,-7.1483 11.951,-12.7 17.793,-16.655 1.7852,-0.74531 4.9072,-1.1964 1.9876,3.9856 -2.9196,5.182 -5.7575,10.764 -4.2701,12.36 1.4874,1.5965 5.1965,-0.63373 6.9709,2.0188 1.183,1.7684 -5.1536,4.5619 -19.01,8.3805 l -26.303,24.083 z m 56.694,16.728 15.901,-8.7349 c 2.2311,-8.4895 4.898,-12.761 8.0009,-12.814 2.3836,-1.1091 -1.7675,9.6182 2.7512,8.6879 4.5187,-0.9303 15.547,-9.1327 17.448,-7.4673 2.8114,2.4639 0.30458,10.029 -2.649,13.793 -5.5203,7.0339 -10.091,9.4392 -21.388,12.589 -5.9066,1.6469 -12.293,4.948 -19.158,9.9032 z"
           fill="#915b3c"
           id="path3188" />
        <path
           transform="rotate(-9,173.01,45.625)"
           d="m 148.99,36.241 c 12.544,1.8512 29.662,1.8512 49.272,-6.6371 l 4.526,16.714 c -14.223,10.251 -33.092,17.535 -48.136,14.718 -11.855,-2.2205 -15.66,-17.589 -5.6626,-24.794 z"
           fill="#2026a2"
           id="path3190" />
        <path
           d="m 164.89,65.453 c 13.46,3.3569 36.033,-0.60182 67.717,-11.876 7.859,16.259 11.492,27.85 10.899,34.774 -27.18,14.198 -50.476,20.528 -69.669,20.946 0.60992,11.388 -0.77623,22.224 -5.4328,32.126 -9.573,20.356 -65.628,1.504 -84.476,5.2145 -11.803,-38.331 11.018,-53.909 11.037,-78.436 0.02011,-26.859 21.587,-68.202 24.76,-68.202 h 28.937 c 1.5966,20.513 9.6329,43.12 16.228,65.453 z"
           fill="#1f28cf"
           id="path3192" />
      </g>
    </g>
    <g
       transform="translate(0,154.01)"
       id="g3202">
      <ellipse
         transform="matrix(1.0582,0,0,1.0582,97.655,-79.99)"
         cx="-1677.5"
         cy="1374"
         rx="48.693001"
         ry="45.661999"
         fill="url(#radialGradient14571)"
         filter="url(#filter14366)"
         opacity="0.52077"
         style="mix-blend-mode:normal;fill:url(#radialGradient14571-9);filter:url(#filter14366-3)"
         id="ellipse3198" />
      <path
         d="m -1686.7,1409.2 c -0.3044,-0.7969 -1.4336,-2.4847 -2.5094,-3.7505 -1.0757,-1.2658 -2.0471,-2.589 -2.1587,-2.9405 -0.1665,-0.5248 -0.4689,-0.639 -1.6924,-0.639 -0.8193,0 -2.2559,-0.2282 -3.1925,-0.5071 -1.7367,-0.5172 -3.7791,-0.6126 -5.4162,-0.253 l -0.9133,0.2005 0.2125,-1.9933 c 0.1462,-1.3711 0.063,-2.6294 -0.2688,-4.0313 -0.2646,-1.1208 -0.4834,-2.6928 -0.4859,-3.4932 0,-1.2856 -0.095,-1.478 -0.7815,-1.6503 -0.4273,-0.1072 -1.6796,-1.0394 -2.7828,-2.0714 -1.1033,-1.0321 -2.8022,-2.241 -3.7753,-2.6866 l -1.7694,-0.81 0.9012,-1.15 c 1.1919,-1.521 1.5207,-2.181 2.2505,-4.5169 0.3372,-1.0797 0.8713,-2.3835 1.1868,-2.8972 0.5628,-0.9167 0.5607,-0.9531 -0.1162,-1.9502 -0.3793,-0.5589 -0.9349,-2.0175 -1.2349,-3.2414 -0.3908,-1.5945 -0.8919,-2.6638 -1.7682,-3.7723 l -1.223,-1.5471 1.7624,-0.7794 c 0.9692,-0.4286 2.5537,-1.5027 3.521,-2.3867 0.9673,-0.8841 2.2113,-1.8233 2.7646,-2.0871 0.8909,-0.4249 0.9874,-0.5941 0.8433,-1.4815 -0.091,-0.563 0.1342,-2.0836 0.5151,-3.4716 0.5279,-1.9245 0.6311,-2.9029 0.4675,-4.4314 l -0.2101,-1.9615 2.0106,0.1877 c 1.3512,0.1262 2.7456,0.021 4.2518,-0.322 1.2327,-0.2803 2.7329,-0.5097 3.334,-0.5097 0.8482,0 1.1414,-0.1533 1.3101,-0.6853 0.1197,-0.3769 1.157,-1.682 2.3053,-2.9002 1.2936,-1.3722 2.3022,-2.7815 2.6515,-3.7042 0.3098,-0.8191 0.6387,-1.4893 0.7306,-1.4893 0.092,0 0.8211,0.4745 1.6202,1.0545 0.7991,0.5799 2.4405,1.3734 3.6477,1.7632 1.207,0.3899 2.6479,0.9818 3.2017,1.3153 0.9987,0.6014 1.0143,0.6012 1.8812,-0.026 0.4808,-0.3478 1.9037,-0.9132 3.162,-1.2565 1.3944,-0.3804 2.88,-1.0589 3.8044,-1.7374 0.834,-0.6123 1.586,-1.1133 1.6711,-1.1133 0.085,0 0.456,0.7009 0.8246,1.5576 0.3685,0.8567 1.5203,2.5145 2.5594,3.684 1.0392,1.1696 1.9661,2.4296 2.0597,2.8002 0.1445,0.572 0.3912,0.6713 1.6334,0.6575 0.8047,-0.01 2.3098,0.2329 3.3445,0.5375 1.3935,0.4104 2.4577,0.5062 4.1055,0.3697 l 2.2244,-0.1843 -0.2777,1.7704 c -0.2054,1.3106 -0.1521,2.3221 0.2055,3.8946 0.2658,1.1682 0.4832,2.7699 0.4832,3.5593 0,1.2783 0.094,1.4704 0.8622,1.7579 0.4742,0.1776 1.7087,1.1554 2.7434,2.173 1.1632,1.1439 2.5744,2.1554 3.6971,2.6498 l 1.8157,0.7996 -1.0916,1.4297 c -0.6004,0.7863 -1.3982,2.3727 -1.7726,3.5254 -0.3746,1.1527 -0.9619,2.587 -1.3051,3.1873 l -0.6241,1.0915 0.6526,1.26 c 0.3589,0.693 0.942,2.2771 1.2958,3.5203 0.3538,1.2431 0.9598,2.654 1.3466,3.1353 1.6831,2.0936 1.7,1.8797 -0.2153,2.7267 -0.9619,0.4254 -2.7274,1.6157 -3.9236,2.6452 -1.1961,1.0294 -2.4402,1.956 -2.7648,2.059 -0.4606,0.1462 -0.563,0.4194 -0.4667,1.2445 0.068,0.5814 -0.1749,2.1445 -0.5395,3.4734 -0.5098,1.8582 -0.6162,2.8721 -0.4607,4.3895 l 0.2021,1.9732 -2.1634,-0.1548 c -1.4287,-0.1022 -2.9898,0.029 -4.5961,0.3864 -1.338,0.2977 -2.7134,0.4678 -3.0567,0.378 -0.4789,-0.1252 -0.7625,0.104 -1.2188,0.9852 -0.3269,0.6316 -1.3749,1.9129 -2.3289,2.8473 -1.112,1.0893 -1.9779,2.2988 -2.4128,3.3705 -0.3731,0.9193 -0.7313,1.6715 -0.796,1.6715 -0.065,0 -0.7441,-0.4782 -1.5099,-1.0626 -0.8056,-0.6151 -2.5192,-1.4216 -4.068,-1.9147 -1.4717,-0.4687 -2.839,-1.0487 -3.0384,-1.2889 -0.4668,-0.5625 -1.0508,-0.5558 -1.5266,0.017 -0.3807,0.4588 -0.9373,0.6689 -4.1132,1.5532 -0.9618,0.2677 -2.3994,0.9838 -3.1949,1.5912 -0.7956,0.6074 -1.5137,1.1044 -1.5961,1.1044 -0.082,0 -0.3986,-0.6521 -0.7029,-1.449 z m 5.3528,-3.7602 c 3.1062,-0.7755 4.8673,-2.6292 2.4977,-2.6292 -1.0982,0 -1.1147,-0.019 -1.019,-1.1757 l 0.097,-1.1758 h 6.5843 l 0.097,1.1758 c 0.092,1.1237 0.054,1.1757 -0.8622,1.1757 -1.0885,0 -1.263,0.5689 -0.4108,1.3399 0.3017,0.2731 1.6647,0.8608 3.0289,1.3061 1.364,0.4453 2.6553,0.955 2.8694,1.1328 0.2861,0.2373 0.5803,0.049 1.108,-0.7088 0.3951,-0.5676 1.2591,-1.5047 1.92,-2.0825 0.6608,-0.5777 1.4085,-1.4506 1.6613,-1.9397 0.5474,-1.0583 0.3033,-2.0022 -0.4383,-1.6952 -1.2838,0.5314 -1.4799,0.4727 -1.9894,-0.5956 l -0.5181,-1.0864 0.9498,-0.3934 c 0.5224,-0.2164 1.7934,-0.9387 2.8246,-1.6051 l 1.8747,-1.2117 0.5945,0.7129 c 0.7802,0.9353 0.7628,1.3579 -0.079,1.9481 -0.6586,0.4614 -0.6668,0.5156 -0.1539,1.0285 0.5127,0.5127 0.6805,0.5127 3.1665,9e-4 1.4439,-0.2971 2.9945,-0.5402 3.446,-0.5402 0.6444,0 0.8209,-0.153 0.8209,-0.7118 0,-0.3914 0.2821,-1.73 0.6271,-2.9746 0.7424,-2.6793 0.7684,-3.2117 0.1945,-3.9966 -0.4161,-0.5691 -0.4609,-0.5592 -1.1758,0.2589 l -0.7431,0.8505 -0.8881,-0.7175 -0.888,-0.7175 1.4367,-2.3303 c 0.7902,-1.2817 1.4367,-2.5132 1.4367,-2.7367 0,-0.5327 0.4515,-0.5133 1.5749,0.068 0.8317,0.4301 0.8833,0.547 0.5573,1.2626 -0.2543,0.5581 -0.2617,0.8863 -0.025,1.1227 0.4455,0.4457 1.3599,-0.047 3.4931,-1.883 0.9246,-0.7957 1.9643,-1.6715 2.3104,-1.9464 0.5379,-0.4271 0.5742,-0.6029 0.249,-1.2104 -0.2091,-0.3908 -0.6593,-1.7179 -1.0004,-2.9491 -0.631,-2.2775 -1.2763,-3.3358 -2.0344,-3.3358 -0.2319,0 -0.4216,0.2706 -0.4216,0.6014 0,1.1943 -0.2925,1.4699 -1.4199,1.3383 l -1.0884,-0.1271 v -6.4444 l 1.019,-0.155 c 1.3109,-0.1995 1.4893,-0.075 1.4893,1.0429 0,2.0686 1.353,0.5336 2.5673,-2.9125 0.5024,-1.4261 0.9416,-2.7339 0.976,-2.9064 0.034,-0.1724 -1.0237,-1.3364 -2.3512,-2.5866 -1.7531,-1.6511 -2.6426,-2.2731 -3.2503,-2.2731 -0.8551,0 -0.8922,0.1987 -0.3035,1.6249 0.1592,0.3858 -0.038,0.6594 -0.7327,1.0189 -0.5227,0.2703 -1.0256,0.4915 -1.1175,0.4915 -0.091,0 -0.5089,-0.6702 -0.9268,-1.4893 -0.4178,-0.8191 -1.1412,-2.0475 -1.6074,-2.7298 l -0.8479,-1.2406 0.8359,-0.719 c 0.842,-0.7242 1.4195,-0.9186 1.438,-0.4838 0,0.1293 0.2227,0.5166 0.4827,0.8606 0.4055,0.5366 0.5147,0.5589 0.769,0.1568 0.4343,-0.687 0.3731,-1.9654 -0.2428,-5.0702 -0.5313,-2.6793 -0.5759,-2.7662 -1.4148,-2.7664 -0.4764,-10e-5 -1.8604,-0.2757 -3.0755,-0.6124 -3.0945,-0.8575 -4.7847,-0.1776 -3.0502,1.2269 0.6657,0.5391 0.6709,0.5871 0.1495,1.3828 -0.6419,0.9798 -0.9426,1.0147 -2.0449,0.2375 -0.4577,-0.3228 -1.5729,-0.9601 -2.4782,-1.4162 -1.776,-0.8948 -1.8358,-0.9999 -1.2727,-2.2358 0.3661,-0.8036 0.6049,-0.8425 1.8997,-0.3094 0.4356,0.1793 0.5487,0.066 0.5487,-0.5493 0,-0.8328 -0.6196,-1.7607 -2.6769,-4.0091 -0.7172,-0.7837 -1.3678,-1.6166 -1.4459,-1.8508 -0.1162,-0.348 -0.2824,-0.3347 -0.9098,0.073 -0.4223,0.2742 -1.7516,0.7442 -2.9541,1.0444 -3.1484,0.786 -4.7766,2.6291 -2.3225,2.6291 0.8955,0 0.9363,0.057 0.8438,1.1748 l -0.097,1.1748 -3.1354,0.01 c -1.7871,0 -3.2344,-0.1298 -3.3657,-0.3126 -0.1266,-0.1763 -0.2325,-0.7086 -0.2351,-1.1829 0,-0.7462 0.1192,-0.8622 0.9173,-0.8622 2.1981,0 0.9152,-1.579 -2.0192,-2.4854 -1.1201,-0.3459 -2.4198,-0.8298 -2.8883,-1.0753 -0.8388,-0.4395 -0.8836,-0.4123 -2.9012,1.7564 -1.1269,1.2115 -2.2066,2.4873 -2.3991,2.8351 -0.482,0.8704 -0.1863,1.888 0.4696,1.6164 1.3464,-0.5573 1.5962,-0.5159 1.9128,0.3167 0.4854,1.2766 0.4393,1.3545 -1.3269,2.2443 -0.9054,0.4562 -2.0206,1.0935 -2.4782,1.4162 -1.1026,0.7774 -1.403,0.7424 -2.0458,-0.2386 -0.5313,-0.8108 -0.5248,-0.8384 0.3648,-1.5478 l 0.9057,-0.7222 -0.8469,-0.3859 c -0.6914,-0.315 -1.2935,-0.2899 -3.2794,0.1369 -1.3379,0.2875 -2.8172,0.5227 -3.2875,0.5227 -0.7231,0 -0.8554,0.133 -0.8574,0.8622 0,0.4742 -0.2825,1.7793 -0.6247,2.9002 -0.7409,2.4263 -0.7736,3.1286 -0.1836,3.9355 0.4305,0.5887 0.4636,0.5812 1.1225,-0.2565 0.6702,-0.852 0.6906,-0.8561 1.5944,-0.3223 0.5036,0.2975 0.9155,0.629 0.9155,0.7368 0,0.185 -3.0013,5.283 -3.2662,5.5479 -0.069,0.068 -0.5559,-0.099 -1.0832,-0.3716 -0.9468,-0.4896 -1.0267,-0.9913 -0.3075,-1.9307 0.3294,-0.4302 0.02,-0.7549 -0.7184,-0.7549 -0.5286,0 -5.7576,4.2423 -5.753,4.6674 0,0.1058 0.2432,0.8272 0.5377,1.6032 0.2946,0.776 0.6891,2.018 0.8767,2.76 0.3252,1.2865 1.2446,2.5701 1.8407,2.5701 0.1533,0 0.3736,-0.5056 0.4894,-1.1236 0.1562,-0.8323 0.3345,-1.0761 0.6877,-0.9406 0.2622,0.1006 0.7474,0.183 1.0782,0.183 0.5547,0 0.6014,0.2558 0.6014,3.2921 v 3.2921 h -1.1052 c -0.9772,0 -1.127,-0.1089 -1.2933,-0.9406 -0.1031,-0.5174 -0.3014,-0.9406 -0.4397,-0.9406 -0.5318,0 -1.584,1.7413 -2.0664,3.4198 -0.2772,0.9644 -0.7166,2.1705 -0.9764,2.6803 -0.4494,0.8813 -0.4359,0.9507 0.2742,1.4109 0.4108,0.2662 1.5529,1.2953 2.5381,2.2869 1.1764,1.1838 2.0465,1.8028 2.5345,1.8028 1.058,0 1.2,-0.2699 0.6755,-1.2843 -0.4456,-0.8616 -0.4301,-0.9071 0.4671,-1.3711 1.2776,-0.6606 1.4534,-0.6171 1.9042,0.471 0.2166,0.523 0.8788,1.7561 1.4713,2.7403 l 1.0775,1.7893 -0.868,0.7467 -0.8681,0.7467 -0.7264,-0.9003 c -0.6082,-0.754 -0.7759,-0.8239 -1.0308,-0.4301 -0.4382,0.6771 -0.3767,2.4035 0.1563,4.3895 0.2546,0.9484 0.4646,2.1124 0.4666,2.5866 0,0.7916 0.1031,0.8622 1.2185,0.8622 0.668,0 1.8303,0.2172 2.5826,0.4827 1.7485,0.6169 3.2488,0.6717 3.8872,0.1419 0.4515,-0.3746 0.417,-0.4843 -0.3415,-1.0892 -0.7036,-0.561 -0.7863,-0.7733 -0.4982,-1.2797 0.8515,-1.497 0.8127,-1.4941 2.8003,-0.2095 1.0442,0.6749 2.3259,1.4041 2.8483,1.6205 l 0.9497,0.3934 -0.518,1.0863 c -0.5128,1.0753 -0.6982,1.1283 -2.0298,0.5801 -0.4404,-0.1813 -0.5488,-0.064 -0.5488,0.5942 0,0.5559 0.5456,1.4136 1.6931,2.6617 0.9312,1.0129 1.9316,2.2058 2.2232,2.6509 0.483,0.7371 0.5906,0.7701 1.2072,0.3702 0.3723,-0.2415 1.6608,-0.6846 2.8632,-0.9848 z m 0.827,-8.2315 c -0.5372,-0.1505 -1.2908,-1.1604 -2.665,-3.5708 l -1.916,-3.3609 h -8.0039 l -0.927,-1.0189 c -0.5098,-0.5605 -0.9311,-1.128 -0.9362,-1.2613 0,-0.1332 2.5592,-0.2037 5.6983,-0.1567 l 5.7074,0.085 2.156,3.7624 c 1.1858,2.0693 2.4385,4.2209 2.7836,4.7814 l 0.6274,1.019 -0.8878,-0.031 c -0.4882,-0.017 -1.2248,-0.1257 -1.6368,-0.2411 z m 5.6089,0.1356 c 0,-0.122 1.2283,-2.3281 2.7297,-4.9024 l 2.7299,-4.6804 h 11.514 l -0.6338,0.89 c -1.0868,1.5265 -1.3095,1.5947 -5.4998,1.6868 l -4.0124,0.088 -1.8898,3.2921 c -1.0393,1.8106 -1.9165,3.3267 -1.9492,3.3691 -0.1592,0.2063 -2.9884,0.4492 -2.9884,0.2566 z m -12.099,-2.3713 c -1.0191,-0.5172 -2.2055,-1.2195 -2.6368,-1.5607 l -0.7837,-0.6204 3.8653,-0.02 0.9646,1.5677 c 0.5306,0.8622 0.8473,1.5676 0.704,1.5676 -0.1432,0 -1.0943,-0.4231 -2.1134,-0.9403 z m 18.684,0.7963 c 0,-0.079 0.387,-0.7846 0.8599,-1.5676 l 0.86,-1.4237 h 1.8051 c 0.9928,0 1.805,0.1069 1.805,0.2374 0,0.2929 -2.4637,1.7993 -3.9763,2.4313 -1.2121,0.5065 -1.3537,0.5402 -1.3537,0.3226 z m -10.77,-5.5779 c -1.3271,-2.2849 -2.5312,-4.3427 -2.6758,-4.5729 -0.2047,-0.3258 -1.4889,-0.4101 -5.7932,-0.3803 -3.0417,0.021 -5.5303,-0.04 -5.5303,-0.1363 0,-0.096 0.3323,-0.701 0.7383,-1.3442 1.56,-2.4713 4.5915,-7.9745 4.5865,-8.3259 0,-0.2026 -1.1967,-2.4142 -2.653,-4.9146 l -2.6476,-4.5462 11.106,-0.178 2.6059,-4.5353 c 1.4333,-2.4943 2.705,-4.5352 2.8262,-4.5352 0.1211,0 1.4156,2.0458 2.8766,4.5462 l 2.6564,4.5463 h 5.4127 c 2.977,0 5.4128,0.1166 5.4128,0.259 0,0.1425 -1.1287,2.2216 -2.5083,4.6202 -1.3796,2.3986 -2.5083,4.559 -2.5083,4.8009 0,0.2419 1.1287,2.4104 2.5083,4.8189 1.3796,2.4085 2.5083,4.5007 2.5083,4.6493 0,0.1486 -2.4338,0.2597 -5.4085,0.2469 l -5.4084,-0.023 -2.665,4.5722 c -1.4658,2.5146 -2.7465,4.5755 -2.8461,4.5798 -0.1,0 -1.2667,-1.8618 -2.5937,-4.1467 z m 4.0418,-2.589 c 0.619,-1.107 1.1163,-2.1018 1.105,-2.2108 -0.031,-0.3024 -5.0351,-0.2361 -5.0512,0.067 -0.027,0.5003 2.3438,4.4513 2.5823,4.304 0.131,-0.081 0.7449,-1.0531 1.3639,-2.16 z m -9.1065,-6.19 c -0.4514,-0.7328 -1.0498,-1.791 -1.3301,-2.3515 -0.2801,-0.5604 -0.595,-1.0189 -0.6997,-1.0189 -0.1613,0 -2.4632,3.6884 -2.7766,4.4492 -0.058,0.1396 1.1851,0.2537 2.7612,0.2537 h 2.8657 z m 14.005,-2.3058 2.0893,-3.6361 -2.1264,-3.6524 -2.1265,-3.6524 h -8.3811 l -2.1321,3.638 -2.1322,3.6381 4.1334,7.3031 h 8.5862 l 2.0894,-3.6361 z m 5.4059,2.1491 c -0.4802,-0.8191 -1.0932,-1.8764 -1.3623,-2.3495 -0.7145,-1.2561 -0.6017,-1.3476 -2.5107,2.0359 l -1.017,1.8028 h 5.763 z m -19.993,-10.571 c 0.7138,-1.2799 1.2195,-2.4055 1.1235,-2.5015 -0.2555,-0.2555 -5.4,-0.2134 -5.4,0.044 0,0.3475 2.6008,4.7987 2.7994,4.7912 0.098,0 0.7632,-1.0539 1.4771,-2.3338 z m 19.438,0.057 c 0.7134,-1.2446 1.2342,-2.3688 1.1572,-2.4981 -0.1876,-0.3153 -5.0407,-0.3026 -5.2362,0.014 -0.1558,0.252 2.3357,4.7627 2.625,4.7527 0.087,0 0.7405,-1.0238 1.454,-2.2684 z m -8.6652,-5.0472 c 0,-0.402 -2.2927,-4.5838 -2.5132,-4.5838 -0.2381,0 -2.7729,4.4935 -2.6529,4.703 0.1606,0.2806 5.1661,0.165 5.1661,-0.1192 z m 14.472,14.841 -2.9112,-5.0339 2.67,-4.6087 c 3.7107,-6.4052 3.4338,-6.1112 4.1036,-4.3572 l 0.554,1.4505 -2.2009,3.7519 -2.2009,3.7518 2.0057,3.453 c 1.1033,1.8991 2,3.7078 1.9928,4.0193 -0.012,0.3115 -0.258,1.0256 -0.5575,1.5868 l -0.5442,1.0204 z m -37.75,3.4108 -0.5466,-1.3003 2.052,-3.5737 2.052,-3.5736 -2.0542,-3.5775 c -1.1298,-1.9676 -2.0541,-3.7767 -2.0541,-4.0202 0,-0.5088 0.9316,-2.8386 1.0674,-2.6695 0.4949,0.6159 5.8302,10.015 5.8302,10.271 0,0.4003 -5.4135,9.7499 -5.6435,9.7467 -0.087,0 -0.4027,-0.5873 -0.7032,-1.3025 z m -1.6091,-5.9437 c -0.2744,-1.3715 -0.236,-5.3696 0.056,-5.8288 0.1577,-0.2481 0.6017,0.2726 1.2714,1.4908 l 1.0292,1.8721 -0.9857,1.7229 c -0.5421,0.9475 -1.0282,1.7228 -1.0802,1.7228 -0.052,0 -0.1827,-0.4409 -0.2906,-0.9798 z m 43.217,-0.7446 -0.9296,-1.7245 0.9405,-1.752 c 0.5174,-0.9637 1.0339,-1.8108 1.1481,-1.8826 0.1137,-0.072 0.3055,0.4504 0.4254,1.1604 0.2412,1.4282 -0.089,5.9231 -0.4354,5.9231 -0.1207,0 -0.6378,-0.776 -1.149,-1.7244 z m -39.964,-14.151 c 0,-0.1167 0.3599,-0.6842 0.7998,-1.2609 l 0.7997,-1.0486 h 8.7044 l 0.5959,-0.8622 c 0.3277,-0.4742 1.351,-2.2026 2.2741,-3.8408 0.923,-1.6382 1.8285,-3.0822 2.0121,-3.2089 0.594,-0.4099 2.7693,-0.2826 2.5973,0.152 -0.085,0.2155 -1.4267,2.5788 -2.9808,5.2516 l -2.8258,4.8598 -5.9884,0.085 c -3.2936,0.047 -5.9883,-0.011 -5.9883,-0.1272 z m 23.113,-5.0529 -3.0528,-5.2517 1.133,-0.099 c 0.6232,-0.055 1.3131,-0.03 1.5331,0.054 0.22,0.084 1.4151,1.928 2.6556,4.0968 l 2.2556,3.9433 h 8.9709 l 0.8211,1.0765 c 0.4515,0.592 0.821,1.1564 0.821,1.2541 0,0.098 -2.719,0.1777 -6.0422,0.1777 h -6.0424 z m -18.724,0 c 0,-0.5697 6.3015,-4.309 6.8953,-4.0917 0.1453,0.053 -0.2953,1.049 -0.9792,2.213 l -1.2433,2.1164 h -2.3365 c -1.2849,0 -2.3363,-0.1069 -2.3363,-0.2377 z m 23.401,-1.8284 c -0.6537,-1.1363 -1.1084,-2.1461 -1.0105,-2.2439 0.2954,-0.2955 4.6423,2.0243 5.9843,3.1937 l 1.2542,1.0927 -5.0398,0.024 -1.1882,-2.0661 z"
         fill="#ee7e19"
         stroke-width="0.31353"
         id="path3200" />
    </g>
  </g>
</svg>
