<?xml version="1.0" encoding="UTF-8" standalone="no"?>
<svg
   xmlns:dc="http://purl.org/dc/elements/1.1/"
   xmlns:cc="http://creativecommons.org/ns#"
   xmlns:rdf="http://www.w3.org/1999/02/22-rdf-syntax-ns#"
   xmlns:svg="http://www.w3.org/2000/svg"
   xmlns="http://www.w3.org/2000/svg"
   xmlns:xlink="http://www.w3.org/1999/xlink"
   xmlns:sodipodi="http://sodipodi.sourceforge.net/DTD/sodipodi-0.dtd"
   xmlns:inkscape="http://www.inkscape.org/namespaces/inkscape"
   width="315.42181"
   height="407.60898"
   viewBox="0 0 83.45536 107.84655"
   version="1.1"
   id="svg11830"
   sodipodi:docname="banner 2 animate.svg"
   inkscape:version="1.0.2 (e86c870879, 2021-01-15, custom)">
  <sodipodi:namedview
     pagecolor="#ffffff"
     bordercolor="#999999"
     borderopacity="1"
     objecttolerance="10"
     gridtolerance="10"
     guidetolerance="10"
     inkscape:pageopacity="0"
     inkscape:pageshadow="2"
     inkscape:window-width="1920"
     inkscape:window-height="1001"
     id="namedview180"
     showgrid="false"
     units="px"
     inkscape:zoom="0.22815356"
     inkscape:cx="-80.357775"
     inkscape:cy="810.34156"
     inkscape:window-x="-9"
     inkscape:window-y="-9"
     inkscape:window-maximized="1"
     inkscape:current-layer="svg11830"
     inkscape:document-rotation="0"
     inkscape:snap-global="false"
     showguides="true"
     inkscape:guide-bbox="true"
     inkscape:snap-page="true">
    <sodipodi:guide
       position="-389.65343,139.93814"
       orientation="1,0"
       id="guide1090" />
    <sodipodi:guide
       position="118.34661,139.93814"
       orientation="1,0"
       id="guide1092" />
  </sodipodi:namedview>
  <defs
     id="defs11824">
    <clipPath
       id="clipPath3042-6">
      <rect
         x="-2840.6001"
         y="1196.1"
         width="178.07001"
         height="80.402"
         ry="0"
         fill="url(#linearGradient3046)"
         stroke-width="0"
         style="mix-blend-mode:normal"
         id="rect3092" />
    </clipPath>
    <linearGradient
       id="linearGradient14111-4"
       x1="-1424"
       x2="-1749.4"
       y1="-329.57999"
       y2="-356.03"
       gradientTransform="matrix(1.281,0,0,1.185,282.71,2623.4)"
       gradientUnits="userSpaceOnUse">
      <stop
         stop-color="#dad59c"
         stop-opacity=".56863"
         offset="0"
         id="stop3095" />
      <stop
         stop-color="#dad59c"
         stop-opacity=".56863"
         offset="0.77040118"
         id="stop10246"
         style="stop-color:#c5e4ce;stop-opacity:0.95415473" />
      <stop
         stop-color="#c3e9d2"
         offset="1"
         id="stop3097" />
    </linearGradient>
    <filter
       id="filter16548"
       x="-0.17704"
       y="-0.16529"
       width="1.3541"
       height="1.3306"
       color-interpolation-filters="sRGB">
      <feGaussianBlur
         stdDeviation="5.9980916"
         id="feGaussianBlur3100" />
    </filter>
    <radialGradient
       id="radialGradient14571"
       cx="-1677.5"
       cy="1374"
       r="77.181"
       gradientTransform="matrix(1,0,0,0.96073,0,53.96)"
       gradientUnits="userSpaceOnUse">
      <stop
         stop-color="#fdfae3"
         offset="0"
         id="stop3103" />
      <stop
         stop-color="#fdfae3"
         offset="1"
         id="stop3105" />
    </radialGradient>
    <filter
       id="filter14366"
       x="-0.30002001"
       y="-0.31994"
       width="1.6"
       height="1.6399"
       color-interpolation-filters="sRGB">
      <feGaussianBlur
         stdDeviation="12.174285"
         id="feGaussianBlur3108" />
    </filter>
    <rect
       x="-1893.2883"
       y="-1487.8069"
       width="202.3266"
       height="55.076523"
       id="rect16393" />
    <rect
       x="-1893.2883"
       y="-1487.8069"
       width="202.3266"
       height="55.076523"
       id="rect11717" />
    <rect
       x="-1893.2883"
       y="-1487.8069"
       width="93.163788"
       height="18.132549"
       id="rect16395" />
    <rect
       x="-1893.2883"
       y="-1487.8069"
       width="93.163788"
       height="18.132549"
       id="rect11720" />
    <rect
       x="-1893.2883"
       y="-1487.8069"
       width="133.84019"
       height="21.885801"
       id="rect16397" />
    <rect
       x="-1893.2883"
       y="-1487.8069"
       width="133.84019"
       height="21.885801"
       id="rect11723" />
    <rect
       x="-1893.2883"
       y="-1487.8069"
       width="120.50266"
       height="17.449078"
       id="rect16399" />
    <rect
       x="-1893.2883"
       y="-1487.8069"
       width="120.50266"
       height="17.449078"
       id="rect11726" />
    <rect
       x="-1893.2883"
       y="-1487.8069"
       width="120.50266"
       height="17.449078"
       id="rect3057" />
    <rect
       x="-1893.2883"
       y="-1487.8069"
       width="120.50266"
       height="17.449078"
       id="rect11729" />
    <rect
       x="-1893.2883"
       y="-1487.8069"
       width="216.5508"
       height="45.871487"
       id="rect10154-6" />
    <rect
       x="-1893.2883"
       y="-1487.8069"
       width="216.5508"
       height="45.871487"
       id="rect11734" />
    <linearGradient
       id="linearGradient18639">
      <stop
         style="stop-color:#f0db88;stop-opacity:1"
         offset="0"
         id="stop18635" />
      <stop
         style="stop-color:#c4e1a4;stop-opacity:1"
         offset="1"
         id="stop18637" />
    </linearGradient>
    <rect
       x="-163.84615"
       y="-1563.3816"
       width="168.75198"
       height="31.2204"
       id="rect25349-3-5-7" />
    <rect
       x="-163.84615"
       y="-1563.3816"
       width="168.75198"
       height="31.2204"
       id="rect11741" />
    <linearGradient
       xlink:href="#linearGradient19514"
       id="linearGradient42490"
       gradientUnits="userSpaceOnUse"
       gradientTransform="matrix(2.0990251,0,0,2.0990251,7533.8161,4516.3328)"
       x1="-2056.6677"
       y1="-1302.8318"
       x2="-1514.323"
       y2="-1527.7557" />
    <linearGradient
       id="linearGradient19514">
      <stop
         style="stop-color:#efe7ba;stop-opacity:1"
         offset="0"
         id="stop19510" />
      <stop
         style="stop-color:#d6eded;stop-opacity:1"
         offset="0.65908372"
         id="stop4037" />
      <stop
         style="stop-color:#ffffff;stop-opacity:1"
         offset="1"
         id="stop19512" />
    </linearGradient>
    <rect
       x="-1893.2883"
       y="-1487.8069"
       width="172.3605"
       height="91.961029"
       id="rect42472" />
    <rect
       x="-1893.2883"
       y="-1487.8069"
       width="172.3605"
       height="91.961029"
       id="rect12726" />
    <rect
       x="-1893.2883"
       y="-1487.8069"
       width="216.5508"
       height="45.871487"
       id="rect42474" />
    <rect
       x="-1893.2883"
       y="-1487.8069"
       width="216.5508"
       height="45.871487"
       id="rect12729" />
    <rect
       x="-1893.2883"
       y="-1487.8069"
       width="93.163788"
       height="18.132549"
       id="rect42476" />
    <rect
       x="-1893.2883"
       y="-1487.8069"
       width="93.163788"
       height="18.132549"
       id="rect12732" />
    <rect
       x="-1893.2883"
       y="-1487.8069"
       width="216.5508"
       height="45.871487"
       id="rect10154" />
    <rect
       x="-1893.2883"
       y="-1487.8069"
       width="216.5508"
       height="45.871487"
       id="rect12735" />
    <rect
       x="-163.84615"
       y="-1563.3816"
       width="168.75198"
       height="31.2204"
       id="rect25349-3-5" />
    <rect
       x="-163.84615"
       y="-1563.3816"
       width="168.75198"
       height="31.2204"
       id="rect12742" />
    <filter
       style="color-interpolation-filters:sRGB"
       id="filter19969"
       x="-0.031532831"
       width="1.0630656"
       y="-0.027206477"
       height="1.054413">
      <feGaussianBlur
         stdDeviation="0.95556988"
         id="feGaussianBlur19971" />
    </filter>
    <filter
       style="color-interpolation-filters:sRGB"
       id="filter20001"
       x="-0.031174719"
       width="1.0623494"
       y="-0.023542311"
       height="1.0470846">
      <feGaussianBlur
         stdDeviation="1.9062665"
         id="feGaussianBlur20003" />
    </filter>
    <linearGradient
       xlink:href="#linearGradient18639"
       id="linearGradient13138"
       gradientUnits="userSpaceOnUse"
       gradientTransform="matrix(2.099025,0,0,2.099025,-1039.7391,4811.6031)"
       x1="-1125.1824"
       y1="-1481.6989"
       x2="-1047.6797"
       y2="-1482.8871" />
  </defs>
  <metadata
     id="metadata11827">
    <rdf:RDF>
      <cc:Work
         rdf:about="">
        <dc:format>image/svg+xml</dc:format>
        <dc:type
           rdf:resource="http://purl.org/dc/dcmitype/StillImage" />
        <dc:title></dc:title>
      </cc:Work>
    </rdf:RDF>
  </metadata>
  <g
     id="g19588"
     transform="matrix(0.43973292,-0.05290784,0.0503377,0.46218478,1070.717,-743.28508)">
    <g
       id="g19095"
       transform="matrix(1.1997943,-0.11239314,0.11239314,1.1997943,836.11479,285.42649)">
      <path
         id="path19099"
         style="fill:#c8e3c5;fill-opacity:1;stroke-width:0.264583"
         d="m -2832.2225,698.71408 c 1.79,-2.0872 0.3932,0.28114 0,0 z m 56.6208,-1.67833 c 3.2388,-1.70737 -7.1406,-4.99653 -0.2963,-6.05052 2.8946,-1.39043 5.4492,-2.67628 2.8239,-0.76537 7.5685,-0.30847 -4.7866,-6.36825 -7.3968,-7.46625 -4.5089,-3.09931 -13.7865,-3.34746 -11.2063,-10.54474 -4.7128,-6.07146 -12.7319,-8.12445 -19.6261,-10.76205 -8.2702,-2.71494 -17.4058,-4.0304 -24.0035,-10.2443 -8.1277,-6.98103 -18.3704,-13.06315 -29.4359,-12.39058 -2.9462,0.77806 -5.7561,1.54812 -8.3248,-0.53289 -8.9259,-4.04594 -17.4487,-9.65082 -27.2694,-11.11522 -3.1713,0.95546 0.263,5.06182 1.1926,5.07374 1.6882,5.47585 -8.5558,-1.6557 -12.1147,-1.36594 -2.8867,-2.56893 -6.5773,3.83032 -4.2726,-1.47629 7.9012,-13.20903 21.1155,-23.09943 36.0364,-26.90663 9.7472,-5.16429 20.8959,-8.01387 31.9268,-6.21212 4.113,0.60646 8.5741,1.73263 11.8396,3.47879 1.3984,0.31984 2.0351,1.03003 3.2417,1.2921 -2.65,1.84944 4.333,-1.31925 6.2362,-0.19727 4.2615,0.31539 7.0327,2.90536 9.0819,6.11068 1.1201,2.41102 1.5781,3.34423 1.8185,3.5954 0.8842,1.56425 0.9292,-1.33736 4.7693,-0.76404 2.4193,-0.63218 6.0979,0.98236 8.0614,2.13957 2.5646,0.9464 5.1752,3.41722 7.4446,5.50497 1.8846,2.47062 3.8047,4.75535 5.198,8.08744 1.4269,3.22346 3.6645,8.25336 1.2552,2.02557 -2.0793,-3.80076 -1.9373,-4.19374 1.2883,-1.14367 14.0696,11.7665 22.4063,30.24435 20.7712,48.63527 -0.3168,5.24552 -1.2961,10.62337 -3.2334,15.46107 -4.5854,-1.09811 -2.9354,7.05873 -5.8058,6.53328 z m -59.0021,-94.79469 c 0.9034,-0.92169 -2.1351,0.98628 0,0 z m 56.2413,94.48435 c 2.4218,-1.13963 3.4091,-0.017 0,0 z m -2.742,-5.75419 c -2.7774,-3.58149 4.1991,0.27 5.8785,-1.56637 8.5669,-4.87011 -3.8665,4.59658 -5.8785,1.56637 z m -41.8576,-1.28541 c 3.4902,-3.32701 -2.8691,3.28588 0,0 z m 0.6614,0.1323 c 1.9898,-1.92535 -1.3714,1.88483 0,0 z m 45.0912,0.19843 c -0.6131,-2.26959 0.6581,0.1692 0,0 z m -1.1431,-0.41892 c 0.3663,-0.84091 0.7166,0.70078 0,0 z m -33.4591,-0.54426 c -0.7449,-1.13266 1.4689,0.64202 0,0 z m -0.8317,-0.3935 c 1.7901,-2.08723 0.3933,0.28114 0,0 z m -1.0583,-0.67824 c 0.5671,-1.41923 0.381,0.91554 0,0 z m -4.1619,-1.55337 c 3.9155,-6.27256 2.9275,-1.00053 0,0 z m -3.7756,-0.15373 c 0.8514,-0.88686 1.6366,0.59899 0,0 z m 4.0614,-2.34341 c 2.3303,-3.25101 3.0908,-2.90906 0.3683,0 -0.9207,1.07888 -3.6101,3.26819 -1.2164,0.84754 z m -6.9718,1.81833 c 1.2708,-1.76774 0.5954,0.52708 0,0 z m -3.4396,-1.2074 c 0.5671,-1.41923 0.381,0.91554 0,0 z m -0.5884,-0.32683 c -0.1814,-2.24501 0.5825,0.63448 0,0 z m 0.5999,-0.86556 c -0.8805,-3.53491 1.3813,1.35568 0,0 z m 16.6572,-3.68563 c 1.7903,-2.08726 0.3932,0.28126 0,0 z m 2.249,-2.28135 c 1.9898,-1.92536 -1.3714,1.88486 0,0 z m 8.8635,-8.59895 c 3.4904,-3.32713 -2.8689,3.28578 0,0 z M -2888.7267,655.54 c -1.3013,-1.16519 1.9269,1.21127 0,0 z m -5.6115,-4.08645 c 0.1467,-1.80626 0.1467,1.80626 0,0 z m -0.2842,-1.5875 c 0.1984,-1.46084 0.1978,1.46002 0,0 z m -4.4326,-1.12448 c -1.6099,-1.82978 2.0115,1.84041 0,0 z m 4.168,-0.19843 c 0.1984,-1.46079 0.1978,1.45999 0,0 z m -1.3438,-0.94809 c 0.1703,-1.01972 0.268,1.20434 0,0 z m 1.0792,-0.37483 c 0.1984,-1.46084 0.1978,1.46002 0,0 z m -5.3334,-0.11668 c 0.6269,-1.45179 0.6423,1.09836 0,0 z m 0.408,-0.65903 c 0.7509,-2.64569 1.5563,-2.98197 2.7531,-0.3925 -0.8838,0.10534 -1.9281,0.82692 -2.7531,0.3925 z m 4.6608,-0.81179 c 0.1988,-1.46239 0.198,1.46137 0,0 z m -1.4111,-0.87996 c -0.1047,-1.74141 0.52,1.57564 0,0 z m 1.1465,-0.44296 c 0.1988,-1.46239 0.198,1.46137 0,0 z m -1.3438,-0.94809 c 0.1704,-1.01978 0.2682,1.20439 0,0 z m -4.6871,-0.24101 c -1.5226,-1.06177 1.1886,0.4654 0,0 z m 5.7663,-0.13381 c 0.1988,-1.46234 0.198,1.46135 0,0 z m -0.2854,-1.47726 c 0.1703,-1.01972 0.268,1.20437 0,0 z m -1.3229,-0.79375 c 0.1703,-1.01972 0.268,1.20437 0,0 z m 1.0583,-0.52915 c 0.1703,-1.01974 0.2679,1.20451 0,0 z m -0.2646,-1.32291 c 0.1704,-1.01979 0.2682,1.20436 0,0 z m -1.5875,-2.38125 c 0.1704,-1.01979 0.2682,1.20436 0,0 z m 0.8146,-1.96233 c 0.1988,-1.46239 0.198,1.46137 0,0 z m -0.2645,-1.32292 c 0.1984,-1.46084 0.1978,1.46002 0,0 z m -18.2981,-0.63315 c 1.0903,-1.00615 0.9689,0.53036 0,0 z m 18.0335,-0.68976 c 0.1984,-1.46079 0.1978,1.45999 0,0 z m -1.3229,-0.79375 c 0.1984,-1.46079 0.1978,1.45999 0,0 z m 1.0374,-0.68351 c 0.1704,-1.01979 0.2682,1.20439 0,0 z m -1.3229,-0.79375 c 0.1703,-1.01975 0.2679,1.20451 0,0 z m 1.0792,-0.63941 c 0.1988,-1.46239 0.198,1.46137 0,0 z m -1.3438,-0.94809 c 0.1704,-1.01979 0.2682,1.20439 0,0 z" />
      <path
         style="opacity:1;fill:#aebdb7;fill-opacity:1;stroke:none;stroke-width:0.39582;stroke-miterlimit:4;stroke-dasharray:none;stroke-opacity:1;paint-order:markers fill stroke"
         d="m -2776.3254,696.28806 c -3.4877,-0.23706 -7.4492,-0.74862 -10.7367,-1.55591 -3.2876,-0.80729 -3.8277,-1.12523 -7.4873,-1.45152 -3.6597,-0.32629 -7.0654,-3.05063 -7.6462,-4.28243 -0.5807,-1.2318 -2.3697,-4.16344 2.3288,-3.89502 4.6984,0.26842 11.6463,0.85551 12.9536,1.72831 1.3072,0.8728 4.6747,1.30443 5.2417,2.72208 0.567,1.41765 1.4117,2.73745 1.4117,2.73745 l 1.9072,-2.6934 1.1435,0.41897 0.631,2.4649"
         id="path19130" />
      <path
         id="path19097"
         style="fill:#aebdb7;fill-opacity:1;stroke-width:0.264583"
         d="m -2877.4651,740.1749 c -1.4455,4.35533 -5.0828,-7.53766 -2.9539,-5.0041 -11.2471,-33.762 -22.6575,-67.47166 -34.266,-101.11104 -4.5771,-5.82184 8.2434,-2.42531 11.7708,-0.69774 7.4268,3.18488 2.532,-1.55976 1.1676,-4.67613 6.0709,-3.86226 15.8138,4.34702 22.6239,6.63019 3.2897,1.35038 6.4759,3.66662 9.8253,4.45683 12.9447,-3.85668 25.4774,4.37952 35.566,11.62968 5.9252,6.40112 14.5732,7.47395 22.4288,10.04409 7.026,3.15341 19.6573,5.00126 19.6927,14.18022 2.4027,5.7777 13.6087,6.56072 18.8194,11.30469 4.1294,1.45398 2.4057,5.43523 -0.146,3.02999 5.5458,-2.17758 -9.2755,1.92738 -4.3284,3.73196 7.8529,5.26991 -9.1428,5.61084 -12.2263,9.35013 -28.4257,13.05823 -56.9503,25.90334 -85.3374,39.04438 0,0 1.4577,-1.00945 -2.6365,-1.91315 z m -0.2655,2.55992 c 0.656,-1.04204 -1.9388,1.10932 0,0 z m 10.575,-12.04058 c 13.0913,-15.57155 27.0608,-30.61802 39.5534,-46.55747 -5.8587,-0.58409 -10.5758,-5.37457 -15.9918,-7.69224 -6.5614,-1.3159 -14.0169,-9.86147 -15.1791,0.80203 -6.3544,18.52899 -10.5271,37.74442 -15.9593,56.5632 -0.912,3.36687 -3.5405,11.0302 1.2688,4.14191 2.124,-2.40052 4.2155,-4.82951 6.308,-7.25743 z m -3.2989,7.67121 c 23.774,-14.81276 47.7492,-29.31375 71.3986,-44.31988 -4.4975,-2.37413 -3.2391,-2.9544 -15.2008,-6.32559 -6.3974,0.25378 2.125,-7.22851 -3.697,-1.84647 -18.8953,18.24992 -38.1052,36.30387 -56.5867,54.90596 1.4239,-0.69682 2.7242,-1.61031 4.0859,-2.41402 z m -4.422,-6.74313 c 4.9604,-20.18019 9.8104,-40.38742 14.8048,-60.55922 -8.2582,-5.19687 -17.6273,-8.27053 -25.6102,-14.01288 -4.9419,-0.86794 -11.3503,-11.45414 -7.9252,-1.04894 5.315,28.06752 10.3323,56.20908 16.142,84.17362 1.2356,-0.85295 1.7131,-6.21407 2.5886,-8.55258 z m 4.6998,7.44121 c 29.8602,-15.80155 58.7416,-28.89297 88.4479,-44.97672 -9.4331,1.03983 -8.4059,-3.17959 -12.8207,-0.80618 -1.9574,1.11533 -11.2216,4.10306 -14.9925,7.83051 -20.3069,12.7799 -41.2152,25.17401 -61.1518,38.18423 l 0.516,-0.23171 z m 27.5994,-30.19523 c 7.6025,-7.45192 15.3442,-14.77354 22.7248,-22.4444 -3.7748,0.20501 -5.4234,-3.21867 -8.9383,0.28257 -14.717,16.9622 -29.3092,34.03356 -43.9055,51.09998 10.2451,-9.39309 20.0611,-19.32297 30.119,-28.93815 z m -37.2371,28.5043 c -0.8793,-0.68485 0.8365,1.44317 0,0 z m 17.2254,-1.41701 c 28.7046,-13.31963 57.773,-25.93948 86.2636,-39.66753 -3.289,0.92209 -7.8648,-1.32224 -5.4034,-2.20125 -28.4187,14.30036 -56.6295,29.02356 -84.9167,43.58275 1.4136,-0.36283 2.7061,-1.17166 4.0565,-1.71397 z m -16.6173,-0.43066 c -5.3687,-27.97033 -11.146,-55.86138 -16.5159,-83.8313 -1.7103,-2.01415 -7.5451,-5.59853 -1.3298,-5.89729 -2.1252,-2.17669 -6.0788,-3.50811 -9.4183,-5.48231 -2.4198,-2.2099 -7.3399,-3.60128 -7.9618,-8.54348 0.7761,4.31747 4.4055,13.71631 6.3783,19.98948 9.5901,28.315 19.0384,56.68155 28.9375,84.88937 l -0.09,-1.12448 z m 7.4773,-14.80013 c -0.454,-0.45507 0.2287,1.47928 0,0 z m 6.9465,-25.52975 c 1.9879,-7.86669 4.4517,-15.72494 6.1864,-23.58791 -4.0225,3.74221 -3.8515,14.61389 -6.3549,20.87605 -2.179,9.25606 -4.6338,18.45785 -6.6277,27.75078 2.4018,-8.30576 4.5192,-16.6968 6.7962,-25.03892 z m 83.1966,0.0333 c 0.021,-1.11347 -0.7845,1.31914 0,0 z m 2.5449,-2.38109 c -2.086,0.57775 -2.1392,1.59988 0,0 z m -38.1682,-8.91615 c 7.1344,-8.59611 -6.9709,6.99911 0,0 z m -10.9305,0.0961 c -1.1746,-3.05227 -0.4105,1.15788 0,0 z m 0.8163,-0.5657 c -0.1943,-1.67321 -1.7399,-0.36002 0,0 z m 16.5662,-4.16063 c 0.8581,-1.21755 -1.4767,1.39159 0,0 z m 1.9506,-1.91823 c 1.3536,-1.8924 -1.9745,1.92421 0,0 z m -81.9779,-3.50573 c -0.4632,0.26441 0.4296,1.45701 0,0 z m -0.2646,-1.32292 c -0.4632,0.26441 0.4296,1.45701 0,0 z m -2.0144,-10.93823 c -0.482,-4.18009 -3.5752,-15.86586 -1.3751,-5.16734 0.8483,3.98926 2.5294,13.70129 3.0395,14.53994 -0.5078,-3.13229 -1.0876,-6.25245 -1.6644,-9.3726 z m 93.1204,7.16792 c 2.859,-3.2843 -3.4811,3.3233 0,0 z m -35.0109,-14.06472 c 0.8378,-1.67625 -0.7745,-0.01 0,0 z m 0.7425,-2.28689 c 1.1986,-3.53519 -2.0196,3.9319 0,0 z m -60.2772,-2.89683 c -0.4629,0.26445 0.4293,1.45703 0,0 z m -0.2646,-1.32291 c -0.4629,0.26445 0.4293,1.45703 0,0 z m -1.3174,-0.77722 c -0.4533,-0.45471 0.2283,1.47923 0,0 z m 1.0528,-0.5457 c -0.4629,0.26445 0.4293,1.45703 0,0 z m -0.2645,-1.5875 c -0.4632,0.26441 0.4296,1.45701 0,0 z m -1.4405,-1.04035 c -0.6076,0.34659 0.6624,1.75625 0,0 z m 1.1759,-0.28257 c -0.4632,0.26441 0.4296,1.45701 0,0 z m -1.3174,-0.77721 c -0.4535,-0.45475 0.2284,1.4792 0,0 z m 1.0528,-0.5457 c -0.4632,0.26441 0.4296,1.45701 0,0 z m -0.2591,-1.30638 c -0.4533,-0.45474 0.2283,1.47924 0,0 z m -1.3229,-0.79375 c -0.4533,-0.45474 0.2283,1.47924 0,0 z m 1.0583,-0.52917 c -0.4534,-0.45466 0.2286,1.47927 0,0 z m -0.2645,-1.32292 c -0.4535,-0.45473 0.2284,1.47919 0,0 z m -1.5875,-2.38125 c -0.4535,-0.45473 0.2284,1.47919 0,0 z m 0.7882,-2.1332 c -0.4632,0.26441 0.4296,1.45701 0,0 z m -0.2646,-1.32292 c -0.4629,0.26445 0.4293,1.45703 0,0 z m -0.2646,-1.32291 c -0.4629,0.26445 0.4293,1.45703 0,0 z m -1.3229,-0.79375 c -0.4629,0.26445 0.4293,1.45703 0,0 z m 1.0639,-0.51263 c -0.4535,-0.45476 0.2284,1.47921 0,0 z m -1.323,-0.79375 c -0.4534,-0.45467 0.2286,1.47927 0,0 z m 1.0529,-0.81029 c -0.4632,0.26441 0.4296,1.45701 0,0 z m -1.3174,-0.77721 c -0.4535,-0.45476 0.2284,1.47921 0,0 z m 127.2822,62.84521 c 1.4571,-0.42946 0.2644,0.46309 0,0 z" />
      <path
         id="path19518"
         style="color:#000000;font-style:normal;font-variant:normal;font-weight:normal;font-stretch:normal;font-size:medium;line-height:normal;font-family:sans-serif;font-variant-ligatures:normal;font-variant-position:normal;font-variant-caps:normal;font-variant-numeric:normal;font-variant-alternates:normal;font-variant-east-asian:normal;font-feature-settings:normal;font-variation-settings:normal;text-indent:0;text-align:start;text-decoration:none;text-decoration-line:none;text-decoration-style:solid;text-decoration-color:#000000;letter-spacing:normal;word-spacing:normal;text-transform:none;writing-mode:lr-tb;direction:ltr;text-orientation:mixed;dominant-baseline:auto;baseline-shift:baseline;text-anchor:start;white-space:normal;shape-padding:0;shape-margin:0;inline-size:0;clip-rule:nonzero;display:inline;overflow:visible;visibility:visible;opacity:1;isolation:auto;mix-blend-mode:normal;color-interpolation:sRGB;color-interpolation-filters:linearRGB;solid-color:#000000;solid-opacity:1;vector-effect:none;fill:#efe7ba;fill-opacity:1;fill-rule:nonzero;stroke:none;stroke-width:1;stroke-linecap:butt;stroke-linejoin:miter;stroke-miterlimit:4;stroke-dasharray:none;stroke-dashoffset:0;stroke-opacity:1;paint-order:markers fill stroke;color-rendering:auto;image-rendering:auto;shape-rendering:auto;text-rendering:auto;enable-background:accumulate;stop-color:#000000;stop-opacity:1"
         d="m -2854.0469,595.69756 c -1.6464,0.1015 -3.2135,0.29084 -4.8262,0.55859 2.0732,-0.11381 4.2524,-0.10919 6.2032,0.67383 0.7939,0.35812 1.0661,2.01451 0.2444,2.51938 -1.3763,0.97945 -3.209,0.96761 -4.783,1.21822 -2.3552,0.24184 -4.627,1.15861 -6.8122,1.89913 -9.5549,3.54221 -18.1236,9.26812 -26.0884,15.53889 -0.6614,0.52948 -1.3226,1.0592 -1.9768,1.59752 10.0391,-6.0297 20.3952,-11.59723 31.238,-16.05704 5.1195,-2.07289 10.4088,-3.90748 15.9121,-4.60165 0.6636,-0.0769 1.3305,-0.11439 1.9963,-0.16552 0.6773,2.06388 2.8077,2.99807 4.2677,4.41895 1.1944,0.86949 2.3202,2.58877 1.2477,3.98808 -3.6495,5.21704 -7.4739,10.3106 -11.3298,15.37812 2.6811,-2.86144 6.2931,-6.02053 9.2704,-9.19542 2.648,-2.82374 3.2338,-7.59421 7.6324,-8.75296 4.5705,-1.31798 10.9528,-0.0865 14.8131,2.61031 -1.2112,-2.74576 -4.8052,-5.63507 -7.0506,-6.14772 -0.9856,-0.40591 -2.006,-0.95356 -3.101,-0.69331 -6.0042,0.31951 -11.2311,-2.00165 -16.8734,-3.66099 -3.1349,-0.91807 -6.7352,-1.20864 -9.9839,-1.12641 z m -11.7364,1.52763 c -10.9545,2.66062 -21.8508,7.30473 -31.6889,12.90414 -5.6574,3.27549 -11.1422,7.26041 -14.8059,12.77276 -0.5756,0.89235 -1.0888,1.8258 -1.5188,2.79713 3.9447,-5.97297 9.6859,-10.51147 15.7287,-14.22311 3.9562,-2.42873 8.3235,-4.05762 12.5454,-5.94844 7.0045,-2.97986 14.2079,-6.58722 21.5285,-8.69311 -0.5963,0.13021 -1.1927,0.26042 -1.789,0.39063 z m 54.0818,12.26333 c 0.5471,-0.71677 -2.1837,0.85049 -3.0114,1.14234 0.4471,0.83262 1.4831,0.80501 2.2478,1.17624 5.9486,2.05979 12.2824,3.64064 17.3621,7.55725 3.4286,2.65561 5.7717,6.60351 6.5796,10.8544 1.9192,8.41917 1.0071,17.14533 -0.3379,25.576 -0.7668,4.94224 -1.6704,9.86683 -2.2051,14.84197 1.3877,-3.05295 1.8262,-6.42879 2.2892,-9.72039 0.8203,-6.70799 1.0258,-13.53167 1.9432,-20.24436 -0.2439,-2.95391 -0.9779,-5.92827 -0.5302,-8.89537 0.1689,-1.07728 1.3522,-2.03159 2.4208,-1.45824 1.9181,0.82346 2.9971,2.73066 4.4004,4.16992 -5.2803,-6.82876 -10.5803,-14.15153 -17.3649,-19.52197 -3.5661,-2.65208 -7.5501,-4.66328 -12.0012,-5.40346 -0.5923,-0.0864 -1.7924,-0.0743 -2.0393,0.24906 z m 43.5257,51.06031 c 1.1882,6.48144 1.4509,13.087 1.5137,19.66406 1.5572,-6.09293 0.6576,-12.53017 -1.0662,-18.45553 -0.1859,-0.66856 -0.3938,-1.33055 -0.5979,-1.99369 0.05,0.26172 0.1003,0.52344 0.1504,0.78516 z" />
    </g>
    <g
       id="g19184"
       transform="matrix(0.45655884,0.13807816,-0.13807816,0.45655884,-1169.3959,1383.2376)">
      <g
         id="g19022"
         transform="translate(251.91959,184.57475)">
        <path
           style="opacity:1;fill:#d1850a;fill-opacity:1;stroke:none;stroke-width:1;stroke-miterlimit:4;stroke-dasharray:none;stroke-opacity:1;paint-order:markers fill stroke"
           d="m -2935.4198,854.05772 -14.1751,-13.49243 -5.8831,-0.32989 c 0,0 -3.1177,1.35106 -3.1177,4.26102 0,2.90996 3.4295,13.51054 4.0531,14.96552 0.6236,1.45498 22.968,14.1341 24.0072,16.00479 1.0393,1.87069 2.7244,0.23635 2.7244,0.23635 z"
           id="path19003" />
        <path
           style="opacity:1;fill:#fcc954;fill-opacity:1;stroke:none;stroke-width:1;stroke-miterlimit:4;stroke-dasharray:none;stroke-opacity:1;paint-order:markers fill stroke"
           d="m -2943.1859,877.65874 c -8.9778,-4.84921 -27.0852,-17.93699 -21.0219,-29.42094 4.2037,-5.71933 6.6677,-9.65251 14.6129,-7.67251 0,0 -6.8183,-0.32989 -4.8437,5.90574 3.762,11.45476 8.6268,25.37939 20.71,30.35629 2.4945,0.93534 -9.4573,0.83142 -9.4573,0.83142 z"
           id="path18997" />
        <path
           style="opacity:1;fill:#d1850a;fill-opacity:1;stroke:none;stroke-width:1;stroke-miterlimit:4;stroke-dasharray:none;stroke-opacity:1;paint-order:markers fill stroke"
           d="m -2904.1112,828.52277 c 0.4423,1.59008 1.7548,8.64182 1.0933,12.53666 -0.6612,3.89485 -0.8083,8.15713 -1.9106,10.21479 -1.1022,2.05765 -15.2578,25.37339 -16.2129,26.32873 -0.9554,0.95533 -6.6696,-1.89987 -6.6696,-1.89987 9.8521,-12.55069 14.2542,-23.03986 13.4033,-38.52244 l 0.6607,-2.07371 z"
           id="path19014" />
        <path
           style="opacity:1;fill:#fcc954;fill-opacity:1;stroke:none;stroke-width:1;stroke-miterlimit:4;stroke-dasharray:none;stroke-opacity:1;paint-order:markers fill stroke"
           d="m -2929.4961,877.33742 c 2.3903,-4.15709 17.8755,-21.82472 20.5777,-23.79933 4.8368,-3.23072 20.7045,-15.08756 25.3582,-11.01629 1.7666,1.76676 7.542,20.82468 7.542,20.82468 0,0 -12.0108,-0.45495 -15.3366,-0.35102 -3.3256,0.10393 -14.6537,2.70211 -18.9148,4.26102 -4.2608,1.55891 -10.4615,3.20956 -11.7438,6.23564 -6.9616,16.42893 -7.4827,3.8453 -7.4827,3.8453 z"
           id="path19001" />
        <path
           id="path19008"
           style="opacity:1;fill:#d1850a;fill-opacity:1;stroke:none;stroke-width:3.77953;stroke-miterlimit:4;stroke-dasharray:none;stroke-opacity:1;paint-order:markers fill stroke"
           d="m -14319.764,79.738281 c -16.105,0 -29.459,0.392554 -40.064,3.927735 -10.606,3.535143 -87.202,47.135844 -89.559,48.707034 0,0 -17.675,-4.7e-4 -17.283,7.85547 0.392,7.85593 -11.783,28.67299 1.572,30.24414 1.139,0.13393 2.789,0.17912 4.801,0.16015 36.292,-8.58994 79.759,-17.34649 93.475,-20.64843 27.372,-6.5896 67.226,-34.91969 73.992,-68.527349 -8.6,-0.866843 -19.033,-1.71875 -26.934,-1.71875 z"
           transform="matrix(0.26458333,0,0,0.26458333,905.62633,841.79431)" />
        <path
           id="path18999"
           style="opacity:1;fill:#fcc954;fill-opacity:1;stroke:none;stroke-width:3.77953;stroke-miterlimit:4;stroke-dasharray:none;stroke-opacity:1;paint-order:markers fill stroke"
           d="m -14447.346,-71.123047 c -0.685,-0.0067 -1.366,0.0028 -2.041,0.02734 -21.603,0.785612 -27.494,5.892553 -32.994,9.427734 -48.163,64.1794925 -40.783,149.380882 -12.57,196.003913 0,0 1.178,-2.35609 2.357,-4.71289 10.349,-74.032526 34.055,-144.958993 93.586,-179.78321 -5.368,-15.062476 -36.99,-20.577609 -48.338,-20.962891 z"
           transform="matrix(0.26458333,0,0,0.26458333,905.62633,841.79431)" />
      </g>
      <g
         id="g18991"
         transform="translate(251.91959,184.57475)">
        <path
           style="opacity:1;fill:#f6b349;fill-opacity:1;stroke:none;stroke-width:1;stroke-miterlimit:4;stroke-dasharray:none;stroke-opacity:1;paint-order:markers fill stroke"
           d="m -2983.4981,878.7924 -2.3264,22.03257 104.1349,-4.41509 -0.4156,-20.7353 z"
           id="path18973" />
        <path
           style="opacity:1;fill:#f47a1a;fill-opacity:1;stroke:none;stroke-width:1;stroke-miterlimit:4;stroke-dasharray:none;stroke-opacity:1;paint-order:markers fill stroke"
           d="m -2882.1052,875.67458 c 10.8085,3.53353 32.9221,8.26192 32.9221,8.26192 l 1.7896,17.92775 -5.82,0.4157 -28.4761,-5.87007 z"
           id="path18975" />
        <path
           style="opacity:1;fill:#ef7e03;fill-opacity:1;stroke:none;stroke-width:1;stroke-miterlimit:4;stroke-dasharray:none;stroke-opacity:1;paint-order:markers fill stroke"
           d="m -2985.8245,900.82497 2.9098,3.53353 5.612,71.70979 c 0,0 91.664,-4.11988 91.664,-4.9513 0,-0.83142 3.9491,-74.70711 3.9491,-74.70711 z"
           id="path18977" />
        <path
           style="opacity:1;fill:#cd5d05;fill-opacity:1;stroke:none;stroke-width:1;stroke-miterlimit:4;stroke-dasharray:none;stroke-opacity:1;paint-order:markers fill stroke"
           d="m -2881.6896,898.52655 -101.2251,5.83195 -2.9098,-3.53353 104.1349,-4.41509 z"
           id="path18979" />
        <path
           style="opacity:1;fill:#cd5d05;fill-opacity:1;stroke:none;stroke-width:1;stroke-miterlimit:4;stroke-dasharray:none;stroke-opacity:1;paint-order:markers fill stroke"
           d="m -2881.5856,893.44614 34.1921,8.41811 -3.0139,1.35105 -31.2822,-4.68875 z"
           id="path18981" />
        <path
           style="opacity:1;fill:#cd3905;fill-opacity:1;stroke:none;stroke-width:1;stroke-miterlimit:4;stroke-dasharray:none;stroke-opacity:1;paint-order:markers fill stroke"
           d="m -2881.6896,896.40988 -4.7806,74.91496 c 0,0 30.2347,2.8741 29.5155,2.45704 -0.5786,-0.33549 5.013,-65.91084 6.5473,-70.56658 0.9258,-2.80927 -31.2822,-6.80542 -31.2822,-6.80542 z"
           id="path18983" />
      </g>
      <path
         style="fill:#fcc954;fill-opacity:1;stroke:none;stroke-width:1;stroke-miterlimit:4;stroke-dasharray:none;stroke-opacity:1;paint-order:markers fill stroke"
         d="m -2691.2663,1062.2335 -0.9152,21.1836 2.3416,75.6218 21.6347,-1.0288 c 0,0 -1.369,-72.6104 -1.369,-73.0261 0,-0.4157 -0.6233,-3.9994 -0.6233,-3.9994 v -19.5921 z"
         id="path18993" />
      <path
         style="fill:#f6b349;fill-opacity:1;stroke:none;stroke-width:1;stroke-miterlimit:4;stroke-dasharray:none;stroke-opacity:1;paint-order:markers fill stroke"
         d="m -2614.9083,1064.7563 c 0,0 -0.8313,17.5256 -1.1433,18.461 -0.3117,0.9353 -0.104,1.8706 -0.104,1.8706 l -4.9327,71.9742 6.3877,1.2945 c 0,0 5.0924,-71.5019 5.0924,-71.9176 0,-0.4157 0.6236,-3.0139 0.6236,-3.0139 l 1.3513,-17.4216 z"
         id="path18995" />
      <path
         id="path19024"
         style="fill:#fad498;fill-opacity:1;stroke:none;stroke-width:1;stroke-miterlimit:4;stroke-dasharray:none;stroke-opacity:1;paint-order:markers fill stroke"
         d="m -2731.1075,1063.3672 c 35.4045,-1.0393 100.9219,-3.1179 100.9219,-3.1179 l 0.2506,2.0827 c -0.2089,0.057 -105.599,0.5896 -101.0089,5.456 -3.1183,-0.5351 -0.922,-2.8135 -0.1636,-4.4208 z" />
      <path
         style="opacity:1;fill:#926847;fill-opacity:1;stroke:none;stroke-width:1;stroke-miterlimit:4;stroke-dasharray:none;stroke-opacity:1;paint-order:markers fill stroke"
         d="m -2725.383,1160.643 57.1582,2.8802 59.672,-2.7925 c 0,0 4.9972,-2.6455 2.9395,-2.3516 -0.8382,0.1197 -28.9373,-2.4795 -28.9373,-2.4795 z"
         id="path19079" />
    </g>
  </g>
</svg>
