<svg xmlns="http://www.w3.org/2000/svg" width="96.475" height="87.403" viewBox="0 0 96.475 87.403">
  <path id="path17774" d="M224.325,479.3a6.723,6.723,0,0,1-4.251-3.387l-.452-.894-.046-5.324a32.081,32.081,0,0,0-.2-5.271c-.164.056-.434.641-1.925,4.189a19.025,19.025,0,0,1-1.489,2.937,6.553,6.553,0,0,1-4.924,2.488c-2.525,0-4.659-2.353-4.869-5.362-.111-1.592-.258-1.161,4.132-12.2,1.451-3.647,2.948-7.412,3.327-8.366a18.526,18.526,0,0,1,4.857-7.546,18.8,18.8,0,0,1,5.7-4.087l1.274-.588.708.662a12.5,12.5,0,0,0,1.351,1.087l.643.426-1.329.482a16.008,16.008,0,0,0-5.782,3.5c-2.376,2.2-3.383,3.84-5.252,8.555-.691,1.741-2.169,5.472-3.285,8.29s-2.3,5.8-2.64,6.633c-.985,2.435-.951,4.028.11,5.055a1.357,1.357,0,0,0,1.267.511,3.432,3.432,0,0,0,2.495-1.45,27.049,27.049,0,0,0,1.358-2.986c.113-.29.434-1.07.717-1.733s1.108-2.63,1.834-4.372,1.473-3.5,1.66-3.919.936-2.2,1.667-3.956,1.369-3.2,1.418-3.2.068,5.471.04,12.158c-.057,13.575-.1,12.976.99,13.932,1.058.929.571.893,12.023.893,11.651,0,11.078.048,12.177-1.023,1.037-1.01,1.012-.681,1.012-13.626,0-6.369.051-11.578.114-11.575a5.8,5.8,0,0,1,.782,1.168c.367.64.95,1.638,1.294,2.219.586.988,1.811,3.066,4.956,8.4,1.7,2.881,1.8,3,2.737,3.084,1.267.114,1.818-.3,3.737-2.827l4-5.269c4.8-6.329,5.21-6.871,5.663-7.439.427-.536.463-.672.463-1.746,0-1.028-.048-1.225-.4-1.69a2.091,2.091,0,0,0-2.217-.738c-.995.267-.979.253-4.694,5.056-2.853,3.69-5.3,6.788-5.395,6.818a32.8,32.8,0,0,1-2.132-3.166c-4.788-7.562-7.9-12.22-8.616-12.92A18.667,18.667,0,0,0,244,438.6a4.388,4.388,0,0,1-1.086-.438,1.246,1.246,0,0,1,.444-.351,10.941,10.941,0,0,0,1.28-1.026l.836-.764,1.019.391a18.258,18.258,0,0,1,4.175,2.386c1.932,1.587,4.638,5.4,8.392,11.832a5.916,5.916,0,0,0,.963,1.388,10.615,10.615,0,0,0,1.394-1.618c4.536-5.891,5.128-6.609,5.827-7.08a5.376,5.376,0,0,1,5.5-.334,4.9,4.9,0,0,1,2.642,4.67c.029,2.121-.091,2.318-4.357,7.913l-4.727,6.211c-1.843,2.421-3.668,4.674-4.057,5.007a5.418,5.418,0,0,1-3.654,1.285,3.536,3.536,0,0,1-2.053-.482,4.977,4.977,0,0,1-2.342-2.5,25.944,25.944,0,0,0-2.5-3.982c-.133-.045-.187,1.627-.221,6.847l-.045,6.907-.5.967a6.8,6.8,0,0,1-4.412,3.472c-.83.189-21.372.187-22.187,0Zm54.192-31.451.045-1.47,9.572-.074c6.9-.054,9.656-.125,9.874-.252a4.45,4.45,0,0,0,1.423-1.605c.11-.293.158-7.678.158-23.784,0-25.216.046-23.808-.777-24.721a3.464,3.464,0,0,0-.835-.641c-.444-.23-3.043-.249-32.3-.249-34.782,0-32.208-.063-33.1.822-.844.844-.822.588-.822,9.484v8.212l-.867.31a12.613,12.613,0,0,0-1.424.614,3.858,3.858,0,0,1-.64.3c-.046,0-.08-3.782-.08-8.4,0-7.919.029-8.473.306-9.608a5.619,5.619,0,0,1,4.45-4.443c1.177-.3,1.694-.3,32.173-.3,29.71,0,31.025.028,32.164.284a5.77,5.77,0,0,1,4.393,4.163l.374,1.214v23.01c0,12.993-.059,23.161-.136,23.357s-.241.719-.375,1.175a5.743,5.743,0,0,1-4.239,3.764c-1.138.284-1.719.3-10.294.3h-9.087Zm-44.424-10.686a14.367,14.367,0,0,1-3.844-1.369,13.168,13.168,0,0,1-3.811-3.811,13.547,13.547,0,0,1-.973-2.261,11.453,11.453,0,0,1,0-6.03,10.94,10.94,0,0,1,7.045-7.045,11.453,11.453,0,0,1,6.03,0,10.94,10.94,0,0,1,7.045,7.045,11.453,11.453,0,0,1,0,6.03,10.713,10.713,0,0,1-9.608,7.453,11.909,11.909,0,0,1-1.884-.028Zm3.12-3.088a7.967,7.967,0,0,0,5.679-5.679,7.789,7.789,0,0,0-.623-5.079,9.455,9.455,0,0,0-3.238-3.3,7.654,7.654,0,0,0-6.9-.056,9.227,9.227,0,0,0-3.354,3.354,7.647,7.647,0,0,0,.056,6.9,9.724,9.724,0,0,0,3.222,3.207,7.958,7.958,0,0,0,5.155.654Z" transform="translate(-206.131 -392.044)" fill="#54a191"/>
</svg>
