<svg xmlns:dc="http://purl.org/dc/elements/1.1/" xmlns:cc="http://creativecommons.org/ns#" xmlns:rdf="http://www.w3.org/1999/02/22-rdf-syntax-ns#" xmlns:svg="http://www.w3.org/2000/svg" xmlns="http://www.w3.org/2000/svg" xmlns:sodipodi="http://sodipodi.sourceforge.net/DTD/sodipodi-0.dtd" xmlns:inkscape="http://www.inkscape.org/namespaces/inkscape" width="45.644814mm" height="50.307583mm" viewBox="0 0 45.644813 50.307583" version="1.1" id="svg3295" sodipodi:docname="multipage-export-4wg07kgw.svg">
  <defs id="defs3289">
    <clipPath clipPathUnits="userSpaceOnUse" id="clipPath9813-7">
      <path style="fill:#fddd94;fill-opacity:1;stroke:none;stroke-width:0.588001;stroke-miterlimit:10;stroke-dasharray:none;stroke-opacity:1" d="m -673.34854,16.438249 c -61.00238,23.071425 -91.89465,36.366813 -95.41402,57.874059 -3.51934,21.50727 58.26509,46.533872 70.38741,40.668262 12.12231,-5.86562 57.092,-30.110153 56.70089,-22.680381 -0.39101,7.429799 -81.33653,29.328071 -14.85944,37.930981 66.47686,8.60291 106.36304,-16.03268 110.66453,-23.46245 18.06129,-14.669231 10.686,-45.314288 17.20582,-67.650097 9.38499,-26.981821 18.37891,-37.148879 10.167,-45.3607435 -8.2118,-8.2118575 -104.79894,-24.2445385 -117.31223,-14.4685195 -12.51339,9.77603 -37.53996,37.148889 -37.53996,37.148889 z" id="path9815-3" sodipodi:nodetypes="cssssccssc"/>
    </clipPath>
    <clipPath clipPathUnits="userSpaceOnUse" id="clipPath7563-5">
      <path style="fill:#ffd64b;fill-opacity:0.413386;stroke:none;stroke-width:0.97368;stroke-miterlimit:10;stroke-dasharray:none;stroke-opacity:1" d="m -1.7543223,238.04606 c 0,-13.9606 4.7693128,-14.49886 4.8475211,-24.1043 0.078747,-9.60542 -26.5784748,-1.61898 -47.7298908,-16.67853 -21.151253,-15.05956 -14.378503,-38.2137 -32.541905,-61.70838 -18.163403,-23.49466 -69.267293,-75.251 -69.267293,-75.251 39.36822,5.884223 271.83555,-1.02152 271.83555,-1.02152 0,0 21.96412,57.81769 19.6225,77.63373 -2.418,71.1294 -72.924245,33.70145 -87.537051,49.31135 -2.828851,4.5047 -10.013312,8.45265 -11.840041,24.00661 -1.826997,15.55397 -10.412159,21.50282 -19.066755,30.19555 -8.654596,8.69275 -27.7068182,0 -27.7068182,0 z" id="path7565-8" sodipodi:nodetypes="ccssccccsscc"/>
    </clipPath>
    <clipPath clipPathUnits="userSpaceOnUse" id="clipPath8789-1">
      <path id="path8791-4" style="display:inline;fill:#efe4a5;fill-opacity:0.633858;stroke:none;stroke-width:3.35361;stroke-opacity:0.448819" d="M 751.1853,521.62742 C 717.16394,459.98384 731.20966,404.04024 770.79474,352.68884 817.29742,292.36371 874.20772,51.601234 954.67924,2.154959 c 72.04936,-44.271283 211.97266,-33.977544 255.76216,-72.256757 246.3573,-76.058602 507.9915,356.516628 378.579,487.678458 -84.0552,85.68768 12.999,97.35161 -10.8027,116.37904 96.778,111.36346 -179.7943,124.84193 -354.8578,60.57978 -66.5277,-19.21589 -155.0098,103.58326 -218.2073,75.09672 C 917.35165,648.97838 798.88478,606.30226 751.1853,521.62742 Z" sodipodi:nodetypes="csscccccc"/>
    </clipPath>
    <clipPath clipPathUnits="userSpaceOnUse" id="clipPath9194-5-1">
      <path id="path9196-8-7" style="display:inline;fill:#659d40;fill-opacity:1;stroke:none;stroke-width:0.571103;stroke-opacity:0.448819" d="m -1036.2332,619.5894 c -1.5244,-6.69685 -9.5198,-11.11949 -12.0158,-17.84107 -3.133,-8.43706 -4.5099,-17.90835 -3.1892,-26.81086 1.5579,-10.50097 5.1402,-21.8009 12.7814,-29.17042 9.8866,-9.53519 24.9163,-12.14266 38.3161,-15.1611 19.65289,-4.42698 42.47003,-13.37752 60.30308,-4.00646 21.8377,11.47546 32.71488,39.46904 37.84639,63.59867 2.86761,13.4843 3.07944,29.79914 -4.85698,41.07135 -6.32267,8.98014 -18.83307,12.0587 -29.49969,14.6745 -22.17677,5.43851 -46.04472,5.52808 -68.4889,1.3271 -6.4267,-1.20293 -13.119,-3.2667 -18.1461,-7.44725 -6.171,-5.13173 -11.1706,-11.97676 -13.0503,-20.23446 z" sodipodi:nodetypes="saaaaaaaaaas"/>
    </clipPath>
    <rect x="-182.28062" y="-155.58829" width="297.40536" height="147.64027" id="rect22825"/>
  </defs>
  <sodipodi:namedview id="base" pagecolor="#ffffff" bordercolor="#666666" borderopacity="1.0" inkscape:pageopacity="0.0" inkscape:pageshadow="2" inkscape:zoom="0.25517133" inkscape:cx="1671.2508" inkscape:cy="148.44944" inkscape:document-units="mm" inkscape:current-layer="layer1" inkscape:document-rotation="0" showgrid="false" inkscape:window-width="1920" inkscape:window-height="1001" inkscape:window-x="-9" inkscape:window-y="-9" inkscape:window-maximized="1"/>
  <metadata id="metadata3292">
    <rdf:RDF>
      <cc:Work rdf:about="">
        <dc:format>image/svg+xml</dc:format>
        <dc:type rdf:resource="http://purl.org/dc/dcmitype/StillImage"/>
      </cc:Work>
    </rdf:RDF>
  </metadata>
  <g inkscape:label="Layer 1" inkscape:groupmode="layer" id="layer1" transform="translate(-8.6267179,-408.18727)">
    <g id="cognitive" transform="matrix(0.24191077,0,0,0.24191077,-207.72074,781.73401)" style="display:inline">
      <path style="fill:#39695e;fill-opacity:1;stroke:#000000;stroke-width:0.3;paint-order:markers fill stroke" d="m 935.37083,-1514.8964 c 2.70576,-4.1627 9.78234,-9.7824 17.06706,-14.3613 7.28472,-4.579 17.64876,-8.353 24.14365,-7.701 6.49488,0.652 16.02637,-3.122 24.76806,-2.7058 8.7416,0.4163 30.7512,6.7514 36.7204,10.3827 5.9691,3.6313 27.5932,14.3854 33.0047,27.9142 5.4115,13.5287 8.7417,35.7991 7.701,39.7537 -1.0406,3.9545 -2.2895,20.6053 -13.1125,29.347 -10.823,8.7417 -14.7775,14.3613 -23.7273,19.7728 -8.9498,5.4115 1.2488,16.2345 -26.4331,10.6149 -27.682,-5.6197 -79.92382,-31.2202 -83.04585,-39.5456 -3.12203,-8.3254 -4.57896,-12.28 -6.03591,-21.4379 -1.45693,-9.1579 -2.08135,-14.7776 -2.08135,-18.9403 0,-4.1627 3.5383,-17.6915 4.78711,-20.6053 1.2488,-2.9139 6.24403,-12.4881 6.24403,-12.4881 z" id="path489396"/>
      <path id="path16797" style="font-variation-settings:'wght' 600;fill:#c8e9cf;fill-opacity:1;stroke:#39695e;stroke-width:0.164317;stroke-miterlimit:4;stroke-dasharray:none;stroke-opacity:1;paint-order:markers fill stroke" d="m 994.99609,-1534.998 c -0.0684,2.5777 0.0228,5.1731 -0.0625,7.7402 -0.15174,0.8813 0.004,1.8087 -0.0555,2.7074 0.028,1.4688 -0.093,2.9695 0.0805,4.4182 0.19079,0.7516 0.56166,0.3853 0.89634,-0.062 0.81683,-0.9903 2.19524,-1.6912 3.46139,-1.1355 1.97608,0.813 2.84518,3.1169 2.89838,5.1172 0.023,2.1297 -1.0649,4.5221 -3.18549,5.2539 -1.34364,0.3772 -2.67865,-0.4469 -3.42823,-1.523 -0.18825,-0.5364 -0.51452,-0.2261 -0.60302,0.1441 -0.24229,1.4578 -0.0537,2.9585 -0.125,4.4336 6.5e-4,0.7871 10e-4,1.5742 0.002,2.3613 2.44534,0.063 4.91045,-0.088 7.34184,0.1953 1.6296,0.3729 3.0532,2.2051 2.3164,3.8692 -0.3915,0.8381 -1.3717,1.2725 -1.748,2.0703 0.7756,1.231 2.4591,1.3626 3.7675,1.1133 0.6525,-0.1698 1.4688,-0.51 1.6836,-1.1817 -0.8497,-0.858 -2.0323,-1.7408 -1.9941,-3.0976 0.1554,-1.5977 1.7304,-2.6996 3.1957,-2.9688 2.2713,0 4.5427,0 6.8141,0 -0.04,-7.1042 -0.07,-14.2085 -0.1465,-21.3125 -1.1626,-0.074 -2.3853,0.1472 -3.5051,-0.1846 -0.5724,-0.1413 -1.2756,-0.8105 -0.7391,-1.3701 1.0047,-0.8034 2.3603,-0.4957 3.5424,-0.5746 0.4332,-0.092 1.1821,0.3138 0.9354,-0.4546 -0.01,-1.1478 -0.013,-2.2956 -0.019,-3.4434 -4.3233,-1.0267 -8.6276,-1.8006 -13.0293,-2.0781 -0.9808,-0.027 -2.0091,-0.1494 -2.9629,-0.055 -1.06134,0.9208 -2.8231,0.9637 -3.84376,-0.043 -0.4961,0.02 -0.99219,0.04 -1.48829,0.061 z m -2.67773,0.1484 c -4.1202,0.3518 -8.23447,0.6695 -12.32617,1.2129 -2.34002,0.3746 -4.59214,1.1326 -6.80216,1.9615 -0.3854,0.081 -0.76193,0.07 -0.9205,0.4936 -0.39534,0.432 -0.96016,0.6666 -1.52344,0.7871 0.15829,0.4473 -0.34373,1.5369 0.29989,1.5122 2.38252,0.1004 4.78847,0 7.15666,0.1961 1.42231,0.3595 2.85841,1.7932 2.38525,3.3561 -0.31662,0.9942 -1.4256,1.416 -1.87891,2.293 0.14414,0.9582 1.30213,1.3072 2.11914,1.5078 1.31371,0.2248 2.86221,-0.1535 3.65626,-1.2832 0.0498,-0.5854 -0.66209,-0.8806 -0.9864,-1.299 -0.81359,-0.6304 -1.2441,-1.7416 -0.80462,-2.7147 0.47285,-1.1187 1.6913,-1.8311 2.84257,-2 2.27774,-0.023 4.55547,-0.046 6.83321,-0.068 0.0355,-1.989 0.0484,-3.9786 0.11719,-5.9668 l -0.0998,0.01 z m 26.16404,5.959 c 2.4817,0.1107 4.9871,0 7.4546,0.2024 1.4224,0.3607 2.8674,1.7989 2.3833,3.362 -0.3393,1.0216 -1.4367,1.417 -1.8769,2.2969 0.1659,0.9732 1.3369,1.3161 2.1738,1.5078 1.3053,0.1995 2.9287,-0.1715 3.6211,-1.375 -0.1848,-0.6848 -0.9698,-1.0546 -1.3965,-1.6172 -1.0996,-1.0814 -0.5107,-2.9666 0.745,-3.6469 0.637,-0.2814 0.6382,-0.419 -0.078,-0.5351 -4.3246,-1.2791 -8.6587,-2.5315 -13.0264,-3.6559 0,1.1537 0,2.3073 0,3.461 z m -51.14646,-1.9121 c 0.9182,0.8925 0.70892,-0.31 0,0 z m 42.27736,1.873 c 0.7683,-0.012 0.8462,0.135 1.0976,0.7109 0,0.8977 -1.0274,1.3045 -1.6875,1.6934 -0.1222,0.3315 0.566,0.7025 0.8111,1.0331 0.3596,0.4512 1.101,0.7379 0.934,1.4173 0.093,1.1415 -0.1365,2.4237 -1.1441,3.116 -0.3168,0.3199 -0.7671,0.5935 -1.224,0.4024 -0.3983,0.3121 -0.9339,0.73 -1.4434,0.4785 -0.1885,0.8415 -1.1996,0.5381 -1.8281,0.5781 -2.0166,-0.091 -4.2356,-1.1888 -4.8652,-3.2266 -0.35686,-1.3862 0.5411,-2.7299 1.6618,-3.4675 0.4805,-0.3369 -0.5743,-0.521 -0.7595,-0.7805 -0.4829,-0.3897 -1.34622,-0.7149 -1.22459,-1.4668 0.47659,-0.6483 1.39399,-0.3123 2.06929,-0.3897 1.735,0.2318 3.3473,2.0944 2.6495,3.8623 -0.4023,0.8543 -1.2961,1.3096 -1.8008,2.084 0.5225,0.9535 1.7646,1.3546 2.8053,1.242 0.5201,-0.059 1.108,0.041 1.5794,0.067 0.2824,-0.4856 0.8295,-0.8128 1.0957,-1.2734 -0.5841,-0.7908 -1.5791,-1.301 -1.8591,-2.3197 -0.4459,-1.1176 0.3305,-2.1965 0.6209,-3.2467 -0.019,0.845 0.3594,0.4398 0.7909,0.1147 0.524,-0.317 1.0825,-0.6684 1.7208,-0.6284 z m -44.67971,0.3633 c -0.30094,-0.3595 -1.23478,-0.275 -0.13377,-0.045 l 0.0947,0.032 z m -1.14257,1.8437 c -0.52039,-0.1072 -0.80797,0.1369 -1.15636,0.4614 -0.47715,0.3227 -1.0257,0.5148 -1.57411,0.6773 0.85167,0.8282 1.84623,1.9462 1.42645,3.2351 -0.59036,1.9709 -2.82357,2.859 -4.72919,2.8372 -1.84894,0.014 -3.93977,-0.6642 -4.90625,-2.3457 -0.32402,-0.6742 -0.33218,-1.4874 -0.0351,-2.1719 -2.29095,0.7195 -4.27439,2.1633 -6,3.7949 -0.40329,0.2968 -0.0933,0.9467 -0.30623,1.3688 -0.2521,1.0944 -1.39773,1.9311 -2.5219,1.7523 -1.06147,1.2769 -2.09518,2.588 -3.07812,3.9199 0.94521,0.3124 1.31802,-0.8425 2.07124,-1.1299 0.63552,-0.2828 1.38001,-0.5423 2.06938,-0.3955 0.40283,0.222 0.48682,0.8261 0.99219,0.8536 0.67698,0.7479 0.67668,1.8818 0.77539,2.8418 -0.0142,0.6724 0.17145,1.3045 0.0539,1.966 -0.0155,0.7017 -0.0473,0.6621 0.006,1.3957 0.006,0.7961 6.9e-4,1.5922 9.4e-4,2.3883 2.65569,-0.1892 5.27914,-0.013 7.83593,-0.8008 0.4366,-0.2244 -0.38703,-0.6797 -0.51562,-1.0078 -0.85478,-0.9732 -1.33795,-2.4813 -0.54688,-3.6368 1.0605,-1.6217 3.20378,-1.9678 5.00024,-1.9474 1.68133,0.077 3.70179,0.8029 4.24369,2.5613 0.45513,1.4079 -0.22912,3.0709 -1.57986,3.6908 0.003,0.7927 1.06659,0.8942 1.67208,0.9479 1.87662,0.052 3.75488,0.044 5.6326,0.05 0.0661,-2.4457 -0.2232,-4.9447 0.32813,-7.3477 0.44756,-1.1213 1.4784,-2.2163 2.73633,-2.2695 1.27517,0.028 1.764,1.4557 2.83398,1.873 1.32,-0.5928 1.4628,-2.3301 1.279,-3.5917 -0.12754,-0.751 -0.40762,-1.6285 -1.03291,-2.0782 -1.38311,0.2731 -2.24611,2.0054 -3.79687,1.6367 -1.58251,-0.4645 -2.38789,-2.2042 -2.30117,-3.7624 -0.083,-1.9291 -0.0443,-3.8601 -0.0524,-5.7903 -1.60817,-0.01 -3.21615,0.01 -4.82421,0.023 z m 25.69336,0 c -1.27659,0.042 -2.60053,-0.1075 -3.85777,0.1013 -0.69112,0.2029 -0.48272,0.5923 -0.003,0.92 0.94806,0.7937 1.72657,2.0921 1.18343,3.3402 -0.80473,2.1953 -3.3549,3.1683 -5.54436,3.0155 -2.04844,-0.067 -4.32534,-1.217 -4.85688,-3.3321 -0.28252,-1.2896 0.53099,-2.4863 1.52263,-3.222 0.48787,-0.2095 0.25795,-0.5784 -0.17007,-0.6519 -1.54571,-0.2303 -3.13036,-0.041 -4.69123,-0.1026 -0.68268,0 -1.36537,-10e-5 -2.04805,0 0,2.2005 0,4.401 0,6.6015 0.20813,0.4957 0.50255,0.8348 0.83594,0.1953 0.81169,-0.988 2.12099,-1.8392 3.43601,-1.342 1.95454,0.6568 2.89063,2.8438 3.05169,4.7583 0.16791,2.2125 -0.86809,4.7527 -3.04203,5.6002 -1.21656,0.4295 -2.52006,-0.2002 -3.26598,-1.1766 -0.27553,-0.3926 -0.77437,-0.831 -0.9178,-0.1029 -0.26968,1.4344 -0.0843,2.9194 -0.17001,4.3745 -0.0104,0.7909 -0.0209,1.5819 -0.0313,2.3729 2.4281,0.028 4.88122,-0.057 7.29387,0.042 1.34023,0.5404 2.86145,1.6469 2.6905,3.2764 -0.085,1.2502 -1.37235,1.8066 -1.96289,2.7636 0.41401,0.9585 1.63547,1.2465 2.58984,1.2989 1.06029,0.026 2.38907,-0.299 2.8711,-1.3262 -0.55612,-0.7813 -1.37941,-1.1712 -1.86524,-2.0293 -0.40927,-1.2284 0.21354,-2.6702 1.33547,-3.3066 0.88771,-0.6722 2.01845,-0.7832 3.0946,-0.6723 1.77786,-0.038 3.55848,-0.034 5.33751,-0.052 0,-2.3776 0,-4.7552 0,-7.1328 0.59009,-1.2261 1.47077,-2.7466 3.0238,-2.7242 1.30024,-0.1106 2.05113,1.0835 2.89277,1.8465 0.34743,0.2785 0.72509,-0.3523 0.93695,-0.5774 0.84702,-1.3955 0.74828,-3.4659 -0.46584,-4.6163 -0.49355,-0.4797 -0.87432,0.4366 -1.23534,0.7062 -0.75335,1.0181 -2.26498,1.4512 -3.35742,0.7148 -1.47977,-0.8821 -1.82778,-2.7552 -1.73109,-4.3456 -0.0328,-1.7447 -0.0567,-3.4895 -0.0716,-5.2344 -0.9362,0.01 -1.8724,0.013 -2.80859,0.019 z m 44.97262,0.025 c -0.6584,-0.05 -1.3086,0.074 -1.8203,0.5097 0.8227,0.8017 1.9109,1.5951 1.9082,2.8731 0.051,1.9823 -1.8153,3.3745 -3.5715,3.8215 -2.2637,0.6148 -4.973,-0.019 -6.4638,-1.8914 -0.6125,-0.8408 -0.6945,-1.9892 -0.4295,-2.9594 0.3985,-0.7574 1.2629,-1.1794 1.7187,-1.8691 -0.8016,-0.7657 -2.0069,-0.3103 -2.9922,-0.4336 -1.3919,-0.01 -2.7838,0.01 -4.1757,0.021 -0.073,7.1027 -0.105,14.2057 -0.1446,21.3086 2.4406,0.039 4.9053,-0.094 7.3301,0.084 1.3731,0.521 2.9078,1.7217 2.6387,3.3692 -0.2084,1.1467 -1.2448,1.8444 -1.9668,2.6406 0.6982,1.2545 2.3902,1.3775 3.6709,1.1753 0.6962,-0.1552 1.5077,-0.5104 1.8096,-1.1968 -0.6701,-0.9583 -2.0336,-1.6045 -1.9583,-2.95 0.016,-1.982 2.1474,-3.2581 3.9723,-3.0632 1.9588,-0.032 3.9176,-0.056 5.8766,-0.065 -0.03,-2.2549 0.081,-4.5252 -0.094,-6.7696 -0.1319,-0.3987 -0.4396,-0.6586 -0.6621,-0.121 -0.7741,0.9746 -1.99,1.8875 -3.3036,1.478 -2.0533,-0.5553 -3.113,-2.7919 -3.2606,-4.7673 -0.1403,-2.1072 0.7341,-4.4722 2.6515,-5.5291 1.3762,-0.6599 3.0191,0.043 3.8481,1.2364 0.2687,0.6229 0.6074,0.3463 0.7691,-0.1606 0.376,-0.4595 -0.093,-1.0639 0.04,-1.6168 0.063,-1.2244 -0.01,-2.4499 0.017,-3.6758 -0.851,-0.4749 -1.574,-1.1494 -2.4359,-1.4469 -0.9908,0.01 -1.9815,-0.011 -2.9723,0 z m -76.5195,1.8262 c -0.47669,0.067 -1.25535,-0.069 -1.52137,0.4987 -0.39939,0.4955 -0.95585,0.8451 -1.31652,1.3743 1.02411,1.3596 3.19987,1.4324 4.55201,0.5219 0.2945,-0.2039 0.77265,-0.6021 0.24682,-0.8754 -0.56659,-0.4606 -1.11288,-0.9749 -1.47656,-1.6153 -0.16146,0.032 -0.32292,0.064 -0.48438,0.096 z m 84.1523,1.1347 c 0.1706,0.7422 -0.5032,0.4222 -0.2182,1.227 0.3808,-0.5967 0.1055,0.603 0.1579,0.8973 0,0.833 -0.2904,1.6136 -0.2484,2.4906 0,0.4181 -0.3867,0.6585 -0.4413,1.0472 -0.8151,1.3171 -2.7935,1.1825 -3.7912,0.1567 -0.4376,-0.3183 -0.7568,-0.8588 -1.24,-1.061 -1.4597,1.28 -1.9368,3.8071 -0.6699,5.3809 0.3779,0.634 1.2074,0.5458 1.633,0.017 0.9466,-1.2193 2.6265,-1.1283 3.9842,-1.4775 -0.5094,0.5191 -0.4712,0.7798 0.062,1.1933 0.9804,1.7385 0.6689,3.8133 0.7596,5.725 0,0.955 0.01,1.9099 0.01,2.8649 2.6389,-0.1942 5.3779,0.01 7.9173,-0.8441 0.3048,-0.2992 -0.2147,-0.5128 -0.429,-0.7399 -0.9272,-1.0124 -1.5536,-2.6048 -0.7088,-3.8583 1.0604,-1.6161 3.1996,-1.9921 5.0017,-1.9425 0.6745,0.1451 0.7298,-0.021 0.2396,-0.5127 -2.413,-3.113 -5.234,-5.9918 -8.1432,-8.6808 -1.1754,-0.9385 -2.5397,-1.477 -3.8718,-2.1053 0,0.074 0,0.1484 0,0.2226 z m -96.19332,2.4434 c 0.36037,0.511 0.8755,0.04 0,0 z m -1.73828,8.8086 c -0.83205,0.9529 -1.89103,2.0785 -3.29297,1.8183 -0.49693,-0.075 -0.96675,-0.2832 -1.37304,-0.5761 -2.43269,3.4738 -4.78757,7.1807 -6.39063,11.1152 -0.21321,0.5486 -0.47877,1.2566 -0.64062,1.8926 1.39646,0.4765 3.26902,0.4099 4.23828,-0.8477 0.16557,-0.3985 -0.45418,-0.6756 -0.66347,-0.9641 -0.87873,-0.6634 -1.52488,-1.7925 -1.11387,-2.9031 0.51523,-1.6755 2.41654,-2.4814 4.0597,-2.3125 1.89189,-0.044 3.78436,-0.047 5.67662,-0.061 -0.0344,-2.2602 0.0908,-4.5399 -0.10156,-6.7871 -0.0746,-0.095 -0.25653,-0.5878 -0.39844,-0.375 z m 13.44922,1.9804 c -0.82185,0.1442 -1.87445,0.4636 -2.18554,1.293 0.45078,0.8902 1.63006,1.2289 1.91601,2.2109 0.0972,1.1365 -0.21212,2.4091 -1.23609,3.0556 -1.36719,0.9815 -3.14021,0.6668 -4.71874,0.7909 -1.42366,0.037 -2.84796,0.034 -4.27173,0.066 0,2.1699 0,4.3398 0,6.5097 0.19601,0.5816 0.48558,0.726 0.85742,0.1387 1.01793,-1.0305 2.6429,-1.814 4.03833,-1.0436 2.04061,1.0467 2.81462,3.5927 2.59804,5.7503 -0.19242,1.75 -1.0999,3.6361 -2.79179,4.3523 -1.25114,0.4537 -2.73175,0 -3.5145,-1.0766 -0.27897,-0.2233 -0.72519,-1.0112 -0.9644,-0.3415 -0.32358,0.9883 -0.10095,2.0662 -0.19288,3.0927 -0.0144,1.2958 -0.0221,2.5916 -0.0322,3.8875 7.21419,0 14.42838,0 21.64257,0 0.0293,-2.4399 -0.0812,-4.8988 0.0723,-7.3262 0.41213,-1.1497 1.233,-2.5484 2.62109,-2.5058 1.16924,0.1649 1.6584,1.4118 2.61914,1.9199 1.19531,0.015 1.6737,-1.3909 1.87205,-2.3607 0.20998,-1.3006 -0.36623,-2.9616 -1.70408,-3.3835 -1.10575,0.378 -1.57688,1.861 -2.84765,1.9493 -1.21342,0.1106 -2.00236,-1.0853 -2.45704,-2.045 -0.37085,-1.1188 -0.0906,-2.3353 -0.17773,-3.4953 0,-1.3512 0,-2.7023 0,-4.0535 -2.42583,-0.1376 -4.87198,0.046 -7.28711,-0.2148 -1.59058,-0.3391 -3.04813,-2.0149 -2.43997,-3.685 0.26791,-0.9661 1.29598,-1.3647 1.8306,-2.1353 -0.30681,-0.8783 -1.3963,-1.1588 -2.21094,-1.3614 -0.34498,-0.045 -0.69201,-0.052 -1.03516,0.012 z m 95.20508,0 c -0.8233,0.1467 -1.856,0.4649 -2.1895,1.2852 0.4362,0.902 1.6292,1.2354 1.9141,2.2207 0.2215,1.4759 -0.5906,3.0248 -2.0469,3.4961 -1.5133,0.4635 -3.1375,0.2695 -4.6999,0.372 -1.1593,0.015 -2.3187,0.022 -3.4778,0.046 0,2.1699 0,4.3398 0,6.5097 0.2013,0.6436 0.5027,0.6829 0.8828,0.1153 1.0159,-1.0214 2.6307,-1.7829 4.0149,-1.0202 2.0393,1.0465 2.8133,3.5917 2.5966,5.7484 -0.1894,1.7507 -1.0996,3.6343 -2.7884,4.3542 -1.2523,0.4557 -2.7476,6e-4 -3.5178,-1.0904 -0.2804,-0.2333 -0.7752,-0.9891 -0.9844,-0.2804 -0.2833,0.9866 -0.09,2.0527 -0.1725,3.0731 -0.014,1.2866 -0.021,2.5732 -0.031,3.8598 7.2135,0 14.4271,0 21.6406,0 0.027,-2.4369 -0.076,-4.8903 0.068,-7.3164 0.281,-0.7764 0.6845,-1.5403 1.3359,-2.0684 -0.033,-0.6668 0.095,-1.4582 -0.031,-2.0527 -1.3837,-0.5 -1.646,-2.1361 -2.2732,-3.2855 -1.0083,-2.2386 -2.057,-4.4589 -3.1331,-6.6657 -1.6405,-0.01 -3.536,0.24 -4.8606,-0.9584 -1.1307,-0.9287 -1.3339,-2.8082 -0.217,-3.8317 0.3538,-0.4462 1.0873,-0.6633 1.1929,-1.2548 -0.599,-1.0286 -2.1146,-1.4032 -3.2227,-1.2559 z m 4.8145,3.1875 c -0.2765,0.4396 -0.8457,0.6207 -1.129,1.0059 0.3049,0.9385 1.5133,0.7843 2.2989,0.8594 -0.3449,-0.677 -0.6926,-1.3526 -1.0567,-2.0196 l -0.059,0.081 z m -44.3809,4.1211 c -1.4552,0.1196 -2.9914,-0.1577 -4.3848,0.3184 -0.1912,0.3202 0.6242,0.6803 0.8145,1.0254 0.8954,0.8239 1.2711,2.1806 0.7049,3.2981 -0.9623,2.0925 -3.5197,2.8435 -5.6621,2.6643 -2.015,-0.1199 -4.1934,-1.3344 -4.6854,-3.4097 -0.23828,-1.3477 0.708,-2.5241 1.7422,-3.2558 0.4282,-0.4277 -0.6277,-0.6226 -0.9733,-0.6014 -2.03172,0.035 -4.06478,0.01 -6.09702,0.015 0.0416,2.2361 -0.10251,4.4969 0.12009,6.7167 0.15449,0.746 0.54946,0.3007 0.8549,-0.1018 0.7794,-0.9769 2.09916,-1.6585 3.34141,-1.1657 1.91812,0.6914 2.86062,2.8431 3.01052,4.7503 0.121,2.0777 -0.7368,4.4156 -2.63942,5.445 -1.33628,0.619 -2.96354,0.039 -3.79553,-1.1269 -0.25607,-0.5036 -0.7111,-0.6354 -0.79432,0.039 -0.16222,1.8343 -0.0651,3.6925 -0.0996,5.5363 0.007,0.6214 -0.21657,1.4741 0.70001,1.1863 6.89166,0 13.78336,0 20.67496,0 0,-7.1269 0,-14.2539 0,-21.3808 -0.944,0.016 -1.888,0.031 -2.832,0.047 z m 21.7461,0.086 c -0.8172,0.049 -1.7248,-0.1364 -2.3965,0.4472 0.8691,0.8827 2.1074,1.8266 1.8887,3.2305 -0.2609,2.1691 -2.4878,3.4429 -4.4869,3.6606 -2.1442,0.2442 -4.5785,-0.553 -5.7631,-2.4379 -0.6786,-1.3306 -0.251,-3.0867 1.0044,-3.9158 0.3139,-0.2201 0.8219,-0.5899 0.2026,-0.7698 -1.2041,-0.395 -2.5123,-0.1176 -3.7582,-0.209 -1.05,0 -2.1,0 -3.15,0 -0.021,7.1263 0.05,14.2533 -0.078,21.3789 2.504,0.044 5.0307,-0.1448 7.5176,0.1914 1.5866,0.362 3.0282,2.1543 2.2558,3.7793 -0.3856,0.8189 -1.2129,1.2883 -1.7402,1.9922 0.2803,0.9572 1.4637,1.2622 2.3457,1.3653 1.1335,0.062 2.4936,-0.2465 3.0996,-1.2911 -0.4212,-0.7794 -1.4339,-1.1495 -1.75,-2.039 -0.7136,-1.4803 0.395,-3.1796 1.8295,-3.679 1.4171,-0.5177 2.9565,-0.2242 4.4314,-0.3221 1.124,-0.01 2.2479,0 3.3719,0 0.054,-2.4961 -0.049,-5.0179 0.2728,-7.4936 0.4279,-1.4539 1.9435,-2.8622 3.5397,-2.3404 0.9657,0.3166 1.455,1.2957 2.2559,1.8457 1.0007,-0.3709 1.2672,-1.629 1.3528,-2.5823 0.034,-1.0593 -0.3069,-2.398 -1.3567,-2.8376 -0.8775,0.7222 -1.6056,1.8788 -2.8653,1.9668 -1.4694,0.091 -2.5983,-1.2987 -2.9844,-2.5898 -0.2404,-1.1371 -0.057,-2.317 -0.1264,-3.4731 -0.01,-1.2896 -5e-4,-2.5799 -0.051,-3.8687 -1.6205,0.012 -3.2408,-0.018 -4.8613,0 z m -95.20118,0.01 c -0.81367,0.061 -1.73817,-0.1565 -2.39454,0.457 1.10481,0.9578 2.44627,2.3488 1.72196,3.9371 -0.83208,2.18 -3.40517,3.1341 -5.58975,2.9762 -0.48189,-0.032 -0.95767,-0.1328 -1.41931,-0.2727 -0.0824,0.5922 0.13164,1.1834 0.65624,1.4903 0.64904,0.8056 0.008,1.8433 -0.0322,2.739 -0.34773,2.147 -0.90353,4.164 -0.80314,6.3521 0.33769,2.1909 1.8265,3.9414 2.86338,5.8345 0.19052,0.2988 0.30264,-0.5835 0.55983,-0.7342 0.89408,-1.1769 2.45998,-1.4886 3.85736,-1.3746 1.80192,-0.033 3.60419,-0.025 5.40631,-0.026 0.0538,-2.4942 -0.043,-5.0137 0.2686,-7.4879 0.42451,-1.4576 1.94295,-2.8659 3.53999,-2.35 0.96431,0.319 1.45628,1.2952 2.25391,1.8496 0.99782,-0.3672 1.26969,-1.6201 1.35549,-2.5706 0.0386,-1.0629 -0.30436,-2.4005 -1.35159,-2.8513 -0.84546,0.6626 -1.48255,1.7415 -2.64062,1.9336 -1.50099,0.2895 -2.72751,-1.119 -3.17035,-2.408 -0.31405,-1.1431 -0.0864,-2.3486 -0.16872,-3.5197 -0.006,-1.323 10e-4,-2.6467 -0.0535,-3.9688 -1.61983,0.01 -3.23953,-0.015 -4.85937,-0.01 z m 47.48046,0.016 c -0.75434,0.1227 -1.69691,-0.2111 -2.28906,0.4004 1.12866,0.8572 2.34077,2.2247 1.8418,3.7539 -0.82536,2.3059 -3.52924,3.3286 -5.81445,3.1309 -1.75777,-0.2076 -3.6915,-1.0272 -4.48047,-2.7129 -0.56139,-1.3123 -0.004,-2.8773 1.13867,-3.6817 0.40987,-0.2257 0.78029,-0.6377 0.0937,-0.8125 -1.27296,-0.1937 -2.59868,-0.033 -3.8961,-0.086 -1.00143,0 -2.00286,0 -3.00429,0 0.068,2.2133 -0.0702,4.4514 0.19345,6.6467 0.11846,0.573 0.45866,0.619 0.75381,0.1013 0.84065,-0.9579 2.14234,-1.8279 3.45703,-1.2968 2.19577,0.7989 3.16518,3.3679 3.01713,5.5516 -0.086,2.019 -1.17723,4.3084 -3.28666,4.8253 -1.22474,0.2769 -2.45568,-0.3726 -3.16992,-1.3515 -0.2193,-0.4527 -0.64263,-0.5789 -0.73828,0.01 -0.22123,1.7365 -0.1027,3.508 -0.18151,5.2585 0.14501,0.4615 -0.36089,1.5632 0.27448,1.5423 7.01719,0 14.03437,0 21.05156,0 0.084,-2.4778 -0.0729,-4.9827 0.24519,-7.4412 0.40286,-1.5313 2.02099,-2.9728 3.66763,-2.3815 0.98031,0.2846 1.33056,1.41 2.17117,1.8637 0.88762,-0.2823 1.11243,-1.3844 1.29687,-2.1894 0.15863,-1.1831 -0.19614,-2.6476 -1.28906,-3.2579 -0.83379,0.6183 -1.36661,1.7572 -2.51172,1.9082 -1.14053,0.2788 -2.29851,-0.3839 -2.83732,-1.3878 -0.63942,-0.8525 -0.83514,-1.9179 -0.72909,-2.9625 0,-1.8103 0,-3.6206 0,-5.4309 -1.65829,0.01 -3.31634,-0.019 -4.97461,0 z m 78.90432,16.6777 c -0.061,1.53 -0.055,3.0627 -0.09,4.5938 0.7455,0 1.4909,0 2.2364,0 -0.207,-0.3359 -0.2191,-0.7925 -0.2715,-1.125 -0.8389,-0.539 -1.1438,-1.5936 -1.4199,-2.4902 -0.016,-0.3609 0.254,-0.6677 -0.2364,-0.7813 -0.07,-0.06 -0.1694,-0.1457 -0.2187,-0.1973 z m -68.25392,6.7657 c -1.12773,0.032 -2.25544,0.064 -3.38282,0.1074 -0.0534,2.5622 0.19572,5.1567 -0.20703,7.6953 -0.32477,1.2197 -1.79882,2.3066 -3.00195,1.5215 -0.8387,-0.4365 -1.3388,-1.3694 -2.25586,-1.6641 -1.50565,0.5851 -1.79925,2.4887 -1.61719,3.9102 0.14052,0.9882 0.54379,2.213 1.60742,2.5195 1.10249,-0.2096 1.42986,-1.6711 2.59375,-1.8047 0.58504,-0.1257 1.34502,-0.029 1.73848,0.4038 0.24251,-0.479 0.48187,0.049 0.67156,0.7056 0.39105,0.8736 0.35948,1.8512 0.47278,2.7832 -0.0793,0.2995 0.0667,0.855 0.0115,1.2542 0.0208,1.3892 0.0324,2.7784 0.0373,4.1677 2.45162,0.077 4.93408,-0.034 7.36018,0.3384 1.2247,0.3009 2.6446,1.3444 2.3791,2.7594 -0.1992,1.1772 -1.4457,1.8063 -1.8428,2.8436 1.0989,1.7957 3.6873,1.8513 5.3393,0.8277 0.4441,-0.2001 1.1286,-0.844 0.5409,-1.2603 -0.7532,-0.9237 -1.9605,-1.9006 -1.595,-3.2491 0.5099,-1.5274 2.2841,-2.1239 3.7665,-2.0137 2.5956,-0.07 5.2155,0.09 7.7846,-0.3283 1.3048,-0.059 2.6134,-0.024 3.9196,-0.015 0.071,-0.149 1.1462,0.048 1.5955,0.029 1.242,0.04 2.5939,0.1004 3.563,0.9907 0.2752,0.2028 0.4203,0.5113 0.6169,0.939 0.4837,1.2796 -0.6324,2.3589 -1.4727,3.1602 -0.4698,0.5559 -0.1159,1.3106 0.4866,1.5792 1.5795,1.0645 4.104,0.8352 5.2029,-0.7999 -0.053,-0.8893 -1.1152,-1.2383 -1.4375,-2.0274 -0.6149,-0.9245 -0.4335,-2.2451 0.4801,-2.9079 1.6443,-1.3853 3.9466,-0.9409 5.9229,-0.994 0.9777,0.01 1.9553,0.025 2.9329,0.039 -0.022,-2.3493 0.2344,-4.7791 -0.4629,-7.0547 -0.1878,-0.5665 -0.5783,0.2221 -0.8621,0.3657 -0.9043,0.9313 -2.3806,1.6383 -3.6105,0.8843 -2.1757,-1.2099 -2.7885,-4.0489 -2.238,-6.3256 0.3655,-1.752 1.7659,-3.6638 3.738,-3.5318 1.1811,0.03 1.9572,1.0071 2.7695,1.7188 0.4456,0.063 0.4321,-0.7382 0.502,-1.0723 0.2203,-2.1041 0.1826,-4.225 0.2304,-6.3379 -2.4626,0.086 -4.9524,-0.06 -7.3949,0.2623 -0.5087,0.1395 -0.63,0.5892 -0.1813,0.9037 0.8185,0.9445 1.9766,2.145 1.4041,3.5017 -0.6097,1.646 -2.4515,2.2335 -4.0097,2.5731 -0.2407,0.01 -0.6663,-0.093 -1.1307,-0.061 -1.2482,0.034 -2.4077,-0.4707 -3.5879,-0.7988 0.8804,-0.046 0.098,-0.397 -0.1821,-0.7284 -0.8176,-0.703 -0.9796,-2.0003 -0.5913,-2.9708 0.3703,-0.5935 0.8747,-1.0807 1.3716,-1.5768 0.4402,-0.3674 -0.011,-0.7526 -0.4107,-0.8158 -2.2026,-0.2559 -4.4397,-0.1724 -6.6574,-0.2625 -6.9679,-0.1498 -13.9376,-0.2011 -20.90704,-0.1828 z m -50.77735,0.2285 c -0.0427,2.449 -0.0654,4.9012 -0.0879,7.3515 -0.54926,1.2706 -1.71941,2.7349 -3.28125,2.3692 -1.13605,-0.2122 -1.57149,-1.4517 -2.50977,-1.9629 -0.38405,0.074 -0.98761,0.5469 -0.45077,0.8498 1.18054,1.3992 2.62525,2.6075 4.36101,3.2425 2.16293,1.1262 4.09012,2.7182 6.39454,3.5692 2.18391,0.7985 4.81676,0.6297 6.61319,2.2994 0.83194,0.9001 1.20361,2.1172 2.03335,3.0182 0.23113,0.3743 0.35445,0.8054 0.4315,1.2357 1.3363,-0.6613 2.872,-0.2668 4.29943,-0.4006 1.28981,-0.01 2.57905,-0.052 3.86854,-0.08 0,-7.2019 0,-14.4037 0,-21.6055 -7.22718,-0.038 -14.45433,-0.092 -21.68164,-0.086 l 0.005,0.1 z m 95.20117,0 c -0.042,2.4504 -0.063,4.9037 -0.084,7.3554 -0.5474,1.2021 -1.585,2.6029 -3.0795,2.3981 -1.241,-0.096 -1.7364,-1.4267 -2.6978,-1.9898 -0.9511,0.3037 -1.3029,1.4471 -1.4922,2.3281 -0.1708,1.2901 0.2025,2.8752 1.4199,3.5273 0.8814,-0.2999 1.1974,-1.4361 2.1016,-1.7597 1.215,-0.5777 2.6895,0.098 3.2514,1.2711 0.8322,1.6069 0.4422,3.4923 0.5799,5.2267 0.017,1.0443 0.034,2.0887 0.052,3.133 2.4508,0.053 4.9269,-0.01 7.3622,0.1143 1.2115,0.4984 2.5921,1.4576 2.4727,2.9388 0,1.2849 -1.3728,1.8564 -1.9716,2.7985 0.1941,0.9507 1.3388,1.2837 2.164,1.5 1.3064,0.2516 2.8934,-0.1109 3.6367,-1.2871 -0.034,-0.8724 -1.1204,-1.1151 -1.4896,-1.8296 -0.7112,-0.823 -0.6155,-2.0862 0.1377,-2.8452 0.8283,-1.0734 2.2422,-1.3963 3.5343,-1.2885 1.9252,-0.016 3.85,-0.051 5.7747,-0.099 0,-7.2019 0,-14.4037 0,-21.6055 -7.2272,-0.039 -14.4543,-0.096 -21.6817,-0.086 v 0.1 z m -102.47461,0.037 c -0.79915,0.061 -1.67053,-0.1416 -2.34847,0.3954 -0.35803,0.2963 0.63258,0.6864 0.78207,1.005 1.23916,1.0094 1.25642,2.9806 0.19827,4.1225 0.10847,0.3372 0.45907,1.0738 0.84665,0.4869 1.15624,-0.882 2.90823,-0.7671 3.89157,0.3208 0.33273,0.2991 0.58117,0.7555 0.94632,0.978 0.73021,-0.8144 0.28622,-2.0045 0.4082,-2.9906 0,-1.4381 0,-2.8761 0,-4.3141 -1.5749,0.011 -3.14968,-0.014 -4.72461,0 z m 42.08203,0.1074 c -3.4863,0.017 -6.97263,0.029 -10.45898,0.029 -0.0411,6.9746 -0.073,13.9492 -0.0957,20.9238 2.53841,0.1182 5.11542,-0.083 7.625,0.3399 1.60467,0.4945 2.9422,2.4284 2.08398,4.0566 -0.39497,0.7735 -1.26068,1.1874 -1.6914,1.9043 0.63132,0.9289 1.94125,1.1881 3.00167,1.0908 0.77233,-0.089 1.67639,-0.4525 2.03153,-1.1455 -0.75993,-0.8119 -1.85544,-1.5244 -1.91211,-2.7578 -0.14172,-1.8717 1.68203,-3.2934 3.42523,-3.398 2.14056,-0.057 4.28833,-0.075 6.43219,-0.1 -0.0296,-2.1593 -0.0211,-4.3318 -0.043,-6.4825 -0.18619,-0.6531 -0.58617,0.1494 -0.83203,0.3555 -0.91142,1.2709 -2.80264,1.5684 -4.07321,0.6676 -1.98579,-1.3392 -2.6906,-4.0236 -2.2764,-6.2945 0.36147,-1.8479 1.59192,-3.8985 3.62084,-4.1481 1.32364,-0.2343 2.42389,0.7006 3.20339,1.6534 0.33452,0.399 0.36788,-0.5325 0.38327,-0.7599 0.0129,-2.0061 0.0163,-4.0137 0.0132,-6.0208 -3.47916,0.029 -6.95833,0.057 -10.4375,0.086 z m 87.24418,0.019 c -0.8326,0.047 -1.6663,-0.01 -2.5,0.012 -0.043,6.9726 -0.075,13.9452 -0.096,20.9179 1.3248,0.027 2.6497,0.053 3.9746,0.08 0.2671,-0.8728 0.5987,-1.7135 0.7773,-2.6094 0.5816,-1.6585 1.8595,-3.2482 1.3949,-5.107 -0.2823,-1.2879 -1.1242,-2.3823 -1.4769,-3.6313 0.015,-2.4223 0.1184,-4.8456 0.033,-7.2675 -1.0283,0.3424 -1.9324,-0.9338 -1.4219,-1.8301 -0.3126,-0.1566 -0.2754,-0.6941 -0.6855,-0.5645 z m -39.8653,5.6895 c -0.4095,0.587 1.1361,0.9957 0.6966,0.179 0.1097,-0.6161 -0.3659,-0.179 -0.6966,-0.179 z m 5.8321,17.6094 c -0.7571,0.076 -1.5888,-0.154 -2.2422,0.3359 -0.6119,0.2686 0.4588,0.7018 0.6269,1.0176 1.2586,0.9907 1.3394,2.9817 0.2641,4.1354 -2.2991,2.6642 -7.004,2.562 -9.2465,-0.1198 -0.6243,-0.8572 -0.7382,-2.0281 -0.4551,-3.0195 0.3998,-0.7518 1.2494,-1.176 1.7188,-1.8555 -0.7679,-0.77 -1.9427,-0.3209 -2.9004,-0.4405 -1.4239,0 -2.8477,0.01 -4.2715,0.019 -0.073,7.1027 -0.1049,14.2057 -0.1445,21.3086 2.4392,0.039 4.9025,-0.092 7.3261,0.082 1.3511,0.5207 2.8734,1.6817 2.6492,3.3083 -0.1606,1.1864 -1.2702,1.897 -1.9714,2.719 0.7587,0.1018 0.872,1.1346 1.6684,1.1249 1.3191,0.2742 3.0045,0.1316 3.7964,-1.0976 -0.4332,-0.8913 -1.6224,-1.3621 -1.873,-2.4199 -0.4561,-1.8124 1.236,-3.4431 2.9506,-3.6209 2.2707,-0.1014 4.5532,-0.071 6.8287,-0.1 -0.043,-2.254 0.1039,-4.5336 -0.1099,-6.7707 -0.1771,-0.7609 -0.5981,-0.2133 -0.9002,0.1507 -0.7617,0.9533 -2.0408,1.6223 -3.2575,1.1513 -2.0593,-0.7277 -3.0427,-3.0727 -3.0693,-5.1215 0,-2.0035 0.8946,-4.2277 2.7607,-5.1617 1.369,-0.5907 2.9451,0.1121 3.7524,1.2846 0.2261,0.4991 0.6137,0.4239 0.7339,-0.1069 0.2278,-1.0533 0.022,-2.1594 0.092,-3.2352 0,-1.1878 0,-2.3757 0,-3.5636 -1.5755,0.01 -3.151,-0.016 -4.7265,0 z m -46.5098,0.1738 c -1.05847,0.069 -2.05398,-0.027 -3.04717,0.3026 -0.66472,0.2961 -0.17535,0.7984 0.1733,1.1316 0.8539,0.8219 1.57881,2.0978 0.98926,3.277 -0.83144,1.8677 -3.07369,2.5027 -4.95757,2.5397 -1.94572,0.04 -4.18159,-0.931 -4.77495,-2.9228 -0.32444,-1.408 0.80662,-2.5541 1.73822,-3.4316 0.23779,-0.3462 -0.48526,-0.4841 -0.71094,-0.6192 -1.71176,-0.3819 -3.49494,-0.2159 -5.23828,-0.2753 -0.6263,6e-4 -1.2526,0 -1.8789,0 -0.0285,2.1498 0.0673,4.2683 -0.0909,6.4209 -0.0936,0.893 -0.36901,1.8282 -1.08683,2.4209 2.5341,0.9476 5.28177,0.6034 7.91399,0.4563 1.91487,2e-4 3.78181,0.5031 5.6742,0.431 3.17428,0.047 6.31465,-0.4351 9.50115,-0.4911 0.86144,0.2683 0.42497,-0.4767 0.28958,-1.0148 -0.31773,-0.7699 -0.0808,-1.6194 -0.39259,-2.3873 0.21288,-0.3944 -0.0589,-0.6791 -0.0518,-1.1 -0.006,-1.5738 -0.034,-3.1529 -0.0224,-4.73 -1.34249,0.018 -2.68489,-0.029 -4.02734,-0.01 z m 77.4961,0 c -0.04,2.1736 0.078,4.3569 -0.1045,6.5238 -0.079,1.489 -1.2145,3.0221 -2.7842,3.0797 -1.294,-0.1103 -2.0335,-1.4684 -3.2969,-1.7012 -1.0327,1.024 -1.2501,2.6926 -0.9316,4.0689 0.209,0.4167 0.9167,-0.1855 1.3535,-0.1861 2.197,-0.6803 4.3872,-1.7908 5.6928,-3.7597 1.5691,-2.1507 2.8522,-4.5413 3.6692,-7.0774 0.15,-0.5048 0.4877,-1.1904 -0.3561,-0.9461 -1.0807,-0.01 -2.1615,0 -3.2422,0 z m -23.6992,2.0527 c -0.1397,2.011 0.2318,4.1201 -0.4649,6.0527 -0.5989,1.403 -2.4564,2.4387 -3.8464,1.4985 -0.7041,-0.4147 -1.1023,-1.3299 -1.8587,-1.5805 -1.1089,0.7479 -1.3615,2.3146 -1.1428,3.5582 0.1441,0.745 0.5503,1.5948 1.2757,1.8734 0.8297,-0.584 1.3346,-1.6826 2.4274,-1.8781 1.2639,-0.3172 2.5275,0.5116 3.0644,1.6356 0.5814,0.7471 0.6484,1.6957 0.5609,2.6003 0,1.8541 0,3.7081 0,5.5622 2.3679,0.031 4.7368,0 7.1035,0.092 0.2765,-0.2482 0.7856,-0.2526 0.9843,-0.4453 0.03,-0.9457 0.179,-2.0234 1.0682,-2.5614 0.4291,-0.3446 0.248,-1.0682 0.5562,-1.5292 0.277,-0.6012 0.6837,-1.181 1.1433,-1.6164 0.025,-1.2434 1.1242,-2.0474 2.2227,-2.355 0.3739,-0.1331 0.7677,-0.1935 1.1542,-0.2778 -0.7972,-2.4959 0.029,-5.6533 2.3818,-7.0049 1.3799,-0.6795 3.0065,0.078 3.8585,1.2393 0.2583,0.6863 0.7115,0.2178 0.7962,-0.2888 0.029,-2.1665 4e-4,-4.352 0.01,-6.5257 -2.2582,0.042 -4.5367,-0.109 -6.7813,0.1 -0.6252,0.1605 -0.3492,0.5432 0.059,0.8164 0.9514,0.7868 1.7514,2.0585 1.252,3.3203 -0.722,2.1912 -3.2209,3.1622 -5.3672,3.0879 -2.1119,-0.025 -4.4551,-1.1857 -5.0644,-3.3359 -0.3095,-1.2695 0.5271,-2.4125 1.4491,-3.1818 0.566,-0.2887 0.2759,-0.6982 -0.2441,-0.812 -2.1767,-0.1294 -4.3853,-0.041 -6.5742,-0.086 -0.01,0.681 -0.016,1.362 -0.023,2.043 z m -42.77151,-2.0078 c -1.59203,0.055 -3.18463,-0.01 -4.77735,0.014 -0.0452,2.0193 0.0753,4.0452 -0.0527,6.0598 -0.23778,0.4937 0.26536,0.7683 0.4082,1.2137 0.25356,0.154 0.48306,-0.597 0.75781,-0.7012 1.36438,-1.8103 4.17735,-1.3221 5.18285,0.5885 1.6403,2.5208 1.3822,6.3532 -1.0915,8.2514 -0.58326,0.2046 0.054,0.5375 0.2072,0.8789 1.9911,2.5148 4.0334,4.988 6.0901,7.4492 0.4609,-1.3241 1.8366,-2.1643 3.166,-2.3848 2.2335,0.044 4.473,0.011 6.709,0.021 -0.041,-7.101 -0.069,-14.202 -0.1426,-21.3027 -2.2135,0.022 -4.4788,-0.1444 -6.6387,0.084 -0.7683,0.1355 -0.4065,0.6198 0.031,0.9418 0.3918,0.4572 0.9852,0.8201 1.2618,1.3242 0.074,1.2212 0.05,2.6876 -1.0639,3.4668 -2.4506,2.1941 -6.7806,2.0726 -8.8714,-0.5589 -0.97571,-1.1832 -0.7922,-3.0775 0.4312,-4.0206 0.1591,-0.302 1.1523,-0.6938 0.6176,-0.9579 -0.6605,-0.4226 -1.4734,-0.3541 -2.22458,-0.3672 z m -37.36524,0.064 c -0.26482,0.031 -1.1245,0.1467 -0.94726,0.5098 0.96142,0.7588 1.96767,1.7822 1.83196,3.1174 0.004,0.4075 -0.19526,0.8451 -0.34563,1.1677 0.56262,0.17 1.035,0.8868 1.64843,0.5625 1.46544,-0.3261 2.74378,0.7466 3.56446,1.8379 0.41336,-0.1549 0.57269,-0.877 0.47656,-1.348 0,-1.953 0,-3.906 0,-5.859 -2.07974,0 -4.16855,-0.01 -6.22852,0.012 z m 36.04688,7.6641 c -0.92416,0.9128 -1.99619,2.0485 -3.42969,1.8594 -0.11213,0 0.65006,0.3081 0.80859,0.5058 1.05822,0.9711 1.58422,2.3724 2.49415,3.4727 1.09832,-0.068 1.51398,-1.382 1.59765,-2.3086 0.10233,-1.3127 -0.37991,-2.7149 -1.41992,-3.5567 z m -4.88281,1.5137 c 0.45667,0.023 1.05546,0.2811 0.39273,-0.1265 -0.28231,-0.2567 -0.23337,-0.2565 -0.39273,0.1265 z m 25.21288,33.4511 c 0.4224,0.5794 0.9157,1.4359 1.7617,1.166 0.81,-0.7771 0.9736,-1.9997 1.4223,-2.9953 0.9496,-2.6924 1.9286,-5.4261 2.2367,-8.2787 0.1129,-0.9912 -0.1818,-1.9688 -0.3055,-2.9252 0.1745,-0.422 0.4289,-0.6495 0,-1.0293 -0.053,-0.5012 -0.3386,-0.5293 -0.7715,-0.4961 -0.8756,0.1138 -1.9501,-0.413 -2.0156,-1.4023 -0.084,-1.0504 1.1815,-1.5702 2.0442,-1.206 0.4215,0.077 0.8683,0.3347 1.1843,0.5204 0.3754,-0.8623 1.137,-1.4508 1.7637,-2.123 -0.7779,-0.5653 -1.8436,-0.2695 -2.7448,-0.3794 -1.5257,-0.033 -3.0516,-0.06 -4.5775,-0.083 0,6.4108 0,12.8216 0,19.2324 z m 16.4004,-19.1328 c -0.7534,0.1204 -1.682,-0.2351 -2.2695,0.3965 0.987,0.8548 2.2292,1.9619 1.9043,3.4219 -0.2191,1.0545 -0.9433,1.9545 -1.8438,2.5195 0.5125,0.028 1.2558,0.4135 1.5977,-0.1406 1.0373,-1.0162 2.8711,-1.249 3.9746,-0.2168 0.5155,-0.323 1.0769,-0.5613 1.6074,-0.8516 -0.01,-1.7079 0.015,-3.4167 0.01,-5.125 -1.6602,0.01 -3.3203,-0.016 -4.9805,0 z m 7.4277,0.039 c 0,1.1204 0,2.2409 0,3.3613 0.6131,-0.5638 1.3782,-1.0225 2.0098,-1.5 0.199,-0.6544 0.7709,-1.1656 1.4277,-1.3262 0.5253,-0.5406 0.3236,-0.6047 -0.38,-0.533 -1.0192,-0.01 -2.0383,0 -3.0575,0 z m -31.0215,0.022 c -0.8519,0.03 -1.8678,-0.1839 -2.5488,0.4648 0.9134,0.7369 1.9633,1.6365 1.8949,2.932 0.015,0.6538 -0.138,1.3238 -0.5336,1.8551 1.4084,2.0927 2.4229,4.4141 3.6907,6.5892 0.6519,1.336 1.4293,2.5198 2.2508,3.7604 -0.02,-5.2063 -0.022,-10.4127 -0.018,-15.6191 -1.5786,0.011 -3.1584,-0.023 -4.7364,0.018 z"/>
      <path id="path16679" style="fill:#39695e;fill-opacity:1;stroke:#39695e;stroke-width:8.05941;stroke-miterlimit:4;stroke-dasharray:none;stroke-opacity:1" d="m 3766.4512,-5832.1191 c -79.7755,-0.6062 -149.6262,21.1533 -202.2754,63.6074 -11.9673,9.6499 -31.6854,29.7107 -40.1582,40.8535 -23.1613,30.4592 -38.4523,64.1819 -45.2324,99.7578 -3.9695,20.8282 -3.6242,31.6735 1.4511,45.6563 l 2.3477,6.4687 -8.2031,11.4297 c -4.5119,6.2865 -16.7226,22.0537 -27.1348,35.0371 -39.8746,49.7212 -49.4846,62.797 -57.0547,77.6328 -9.3274,18.2793 -8.0058,27.314 5.3164,36.3535 9.9621,6.7593 19.5018,11.0003 27.3574,12.1621 9.6802,1.4314 13.2678,2.6291 16.8028,5.6036 4.21,3.5425 4.5886,7.3907 1.6582,16.8535 -1.3626,4.4001 -2.78,9.479 -3.1504,11.2871 -0.3706,1.8077 -3.3632,7.2576 -6.6485,12.1113 -4.7516,7.0205 -5.9835,9.6424 -6.0273,12.8184 -0.088,6.404 2.7375,10.8722 10.8242,17.1152 4.0378,3.117 7.3447,6.415 7.3477,7.3281 0.01,1.6853 -6.23,10.1601 -9.3946,12.7676 -2.4053,1.982 -4.6015,6.4935 -4.6015,9.457 0,1.6438 2.5449,5.4701 7.5137,11.3008 4.1315,4.8484 8.6992,11.2099 10.1523,14.1387 4.6148,9.3007 4.365,12.1379 -3.0703,34.8906 -9.4321,28.8624 -10.2531,38.2401 -4.3848,49.9903 5.7788,11.5706 19.6131,23.869 33.293,29.5976 13.3052,5.5703 14.6693,5.6771 63.1406,5.7149 48.724,0.019 53.3709,0.4212 63.4043,5.5058 18.613,9.4318 32.0557,40.5024 33.6309,77.7266 l 0.625,14.75 h 189.7187 189.7188 l -1.9082,-9.25 c -6.4275,-31.1717 -13.8305,-74.5342 -18.7598,-109.875 -8.9212,-63.9591 -10.2303,-96.9892 -4.5527,-114.8164 6.1368,-19.2707 14.5898,-35.0538 34.3125,-64.0586 23.7237,-34.8892 26.8755,-39.7938 32.0879,-49.9414 2.8724,-5.5918 7.6608,-16.8647 10.6406,-25.0489 37.4294,-102.8137 30.9941,-199.2325 -18.3223,-274.5097 -44.9937,-68.6793 -124.0019,-113.3142 -223.7402,-126.4024 -19.3775,-2.5427 -38.3149,-3.8738 -56.7246,-4.0136 z m -50.8867,25.6054 c 92.3392,-11.2839 117.8882,0.574 207.8496,26.5508 7.8485,4.0358 14.6473,9.8192 22.5605,13.7246 4.6602,1.3678 9.2374,3.3055 12.9727,6.5098 14.9582,13.0892 28.3352,28.0054 39.8945,44.1758 8.9465,15.2738 16.7951,31.1949 24.1973,47.2734 1.9464,4.4915 4.0638,8.977 6.0117,13.5273 0.3895,0.2661 0.5268,0.7112 0.5762,1.3965 0.5675,1.3567 1.1263,2.7167 1.6484,4.0879 0.3755,0.05 0.8171,0.072 1.3848,0.072 h 3.0019 l 0.1582,11.75 c 0.05,3.6665 0.1532,6.4341 0.2735,7.8594 0.07,0.3478 0.1294,0.6998 0.207,1.0449 0.028,-0.056 0.055,-0.1862 0.082,-0.4043 0.299,-2.4091 0.904,-3.25 2.3399,-3.25 1.6569,0 1.9375,0.7212 1.9375,5 v 5 h -2.4883 c 0.1188,0.3334 0.2332,0.6685 0.3574,1 h 8.1328 v 3 c 0,2.6672 0.3332,3 3,3 h 3 v 11 11 h -1.1933 c 0.1303,0.343 0.254,0.6881 0.3789,1.0332 0.5258,-0.02 1.1054,-0.033 1.8144,-0.033 h 5 v 22 15.3125 c 1.2456,2.9415 2.7475,5.7854 4.2168,8.6269 3.8838,6.8474 1.4961,15.0327 -1.8594,21.5528 -1.1117,1.8632 -2.0095,3.7972 -2.7695,5.7773 l -0.088,5.2305 -1.6152,0.061 c -2.1109,7.8177 -2.902,16.0812 -5.7793,23.6778 -3.6919,7.8126 -7.7476,15.5598 -12.918,22.5156 -7.5761,10.4092 -20.1228,15.5163 -32.3828,17.8887 -5.2516,1.5268 -11.8908,0.7862 -15.7891,5.2441 v 5.1094 h -2.4043 c -1.1191,2.3493 -2.3119,4.6716 -3.5957,6.9414 v 0.059 c 0,4.6673 -0.1669,5 -2.5,5 -0.2161,0 -0.3937,0.01 -0.5742,0.018 -0.6068,0.9306 -1.2366,1.8447 -1.8789,2.75 -0.035,0.718 -0.047,1.5905 -0.047,2.7324 0,5.4433 -0.03,5.5 -3,5.5 -2.6672,0 -3,0.3335 -3,3 0,2.6676 -0.3331,3 -3,3 -2.533,0 -3,0.3891 -3,2.5 0,1.8334 -0.5331,2.5 -2,2.5 -1.4351,0 -1.8601,-0.4943 -1.9648,-3.0957 -0.6982,0.5506 -1.3985,1.097 -2.0899,1.6562 -0.1408,2.2183 -0.6497,2.4375 -2.4453,2.4375 -0.1805,0 -0.3353,0.01 -0.4922,0.018 -0.659,0.5616 -1.3203,1.1207 -1.9667,1.6973 -0.025,0.234 -0.041,0.4884 -0.041,0.7851 0,2.0509 -0.2629,2.427 -3.4922,2.4883 -9.3359,8.867 -20.3592,17.3851 -33.6347,18.4805 -9.5288,0.4724 -18.5773,-2.5213 -27.1699,-6.4707 h -1.2032 -7.5 v -3 c 0,-0.5514 -0.022,-0.982 -0.068,-1.3516 -0.6255,-0.326 -1.2586,-0.6505 -1.8789,-0.9765 -0.4421,-0.2161 -0.8754,-0.4528 -1.3145,-0.6758 -1.597,-0.01 -2.2797,-0.097 -2.582,-1.3262 -0.3855,-0.2049 -0.7713,-0.4091 -1.1563,-0.6152 v 0.9453 c 0,2.5334 0.3892,3 2.5,3 1.8335,0 2.5,0.5335 2.5,2 0,1.5402 -0.7158,1.8886 -4.9882,1.9648 0.7881,1.4393 1.3559,2.9998 1.625,4.6582 1.2408,13.138 -3.6812,25.8035 -7.9317,37.9883 -2.1555,4.7104 -2.6057,10.3303 -6.166,14.2988 -3.3997,4.0237 -9.6799,2.632 -12.8086,-0.9824 -5.2505,-6.8931 -9.7724,-14.345 -14.5996,-21.5469 -1.2823,-2.1347 -2.5073,-4.3039 -3.7148,-6.4843 -1.049,-0.2171 -1.42,-0.7448 -1.42,-1.8086 0,-0.2361 0.033,-0.4413 0.082,-0.6348 -1.5276,-2.8141 -3.0346,-5.6418 -4.5352,-8.4727 -1.0498,-0.1288 -1.3942,-0.6814 -1.498,-2.8164 -3.9951,-7.4765 -8.1309,-14.8682 -13.1719,-21.7129 -14.8471,-18.6255 -31.3213,-36.0024 -44.5957,-55.8476 -2.6228,-3.1835 -3.8356,-7.6062 -7.3223,-9.9942 -8.0373,-1.9989 -16.5284,-0.6282 -24.5976,0.1016 -10.85,1.3508 -21.8963,1.7633 -32.7051,-0.1953 -7.1034,-1.8969 -14.3384,0.098 -21.4805,0.5508 -9.4252,-0.091 -19.1593,-2.1113 -27.2109,-7.2129 -5.988,-5.1632 -13.2503,-8.4281 -20.1485,-12.166 -5.3116,-2.1154 -9.7364,-8.0137 -7.8379,-13.8731 1.4906,-2.8342 1.4906,-5.8323 0.8692,-8.789 h -1.8496 v -5.8731 c -0.2171,-0.5645 -0.4364,-1.1258 -0.6504,-1.6738 -3.3944,-2.7099 -4.513,-7.0587 -6.6231,-10.6719 -4.539,-4.8276 -11.7227,-5.1075 -17.8261,-6.4609 -7.3881,-1.1078 -14.2655,-4.3289 -20.2442,-8.7539 -5.9274,-5.1013 -13.6966,-7.0217 -20.1855,-11.1875 -13.7394,-10.1046 -22.0555,-25.4564 -30.7852,-39.709 -5.2396,-9.5222 -13.3089,-18.1506 -14.4512,-29.3984 -0.1604,-10.7585 3.162,-21.1965 4.6641,-31.7852 -1.5646,-0.8232 -2.8145,-2.2249 -3.498,-3.8535 -1.6332,-7.2552 0.8153,-14.7593 3.4336,-21.5137 9.1107,-21.4379 22.283,-40.9004 36.5507,-59.2148 10.6457,-13.4642 21.9945,-27.7327 38.3243,-34.4512 9.3202,-4.3261 19.8001,-3.4152 29.6582,-5.3477 2.7528,-0.7269 5.4483,-1.5985 8.1074,-2.5664 0.2984,-0.2879 0.743,-0.4537 1.3867,-0.5117 6e-4,-2e-4 0,2e-4 0,0 0.9881,-0.3751 1.9716,-0.7642 2.9492,-1.166 0.13,-0.4425 0.1816,-1.0324 0.1816,-1.8613 0,-2.6672 0.3333,-3 3,-3 2.6667,0 3,-0.3332 3,-3 v -3 h 6 c 5.7332,0 6,-0.111 6,-2.5 0,-2.4431 0.1667,-2.5 7.5,-2.5 2.5197,0 4.192,0.027 5.3106,0.1484 0.8191,-0.4363 1.636,-0.8813 2.457,-1.3105 0.5769,-0.353 1.1632,-0.6875 1.748,-1.0254 0.074,-3.3025 0.4573,-3.8125 1.9844,-3.8125 1.217,0 1.7851,0.4701 1.9453,1.6738 0.6805,-0.3454 1.3656,-0.6793 2.0547,-1.0059 v -0.6679 h 1.459 c 11.7229,-5.2889 24.5912,-7.9431 37.4395,-8.336 z m -56.5704,18.5176 c -0.5009,0.1067 -0.8162,0.2739 -1.0097,0.5469 0.3366,-0.183 0.6733,-0.3639 1.0097,-0.5469 z m -12.3281,5.8184 c -0.3402,0 -0.6258,0.4576 -0.8066,1.1113 0.4564,-0.2275 0.9102,-0.4607 1.3652,-0.6914 -0.1598,-0.2639 -0.352,-0.4199 -0.5586,-0.4199 z m 393.9902,166.1132 c 1.0397,2.3039 2.1636,4.578 3.3067,6.8457 2.9222,-0.08 4.5295,-0.42 4.1914,-0.9667 -0.3398,-0.55 -1.7161,-1 -3.0586,-1 -1.937,0 -2.4414,-0.5162 -2.4414,-2.5 0,-1.7627 -0.2613,-2.2849 -1.9981,-2.379 z m 5.3477,10.9024 c 0.8588,1.7012 1.7085,3.408 2.5215,5.1269 0.077,-0.496 0.1348,-1.0366 0.1348,-1.6386 0,-3.0208 -0.1737,-3.437 -2.6563,-3.4883 z m 6.4824,17.1426 c 0.044,0.5377 0.089,1.0751 0.1348,1.6133 0.6147,-0.1826 1.041,-0.4609 1.041,-0.7891 0,-0.3513 -0.4857,-0.6458 -1.1758,-0.8242 z m -184.7656,188.8105 c -0.247,1e-4 -0.3463,0.01 -0.6094,0.01 -0.6943,0 -1.2793,0.025 -1.9101,0.041 0.3056,0.6742 0.6668,1.3211 1.0742,1.9394 0.3146,0 0.5742,0.02 0.9023,0.02 h 4.627 c -1.3477,-0.7008 -2.7059,-1.3752 -4.084,-2.0059 z" transform="scale(0.26458333)" sodipodi:nodetypes="ssssscssssssssssssssssssccsscccssssscssscccccccccscccccssccccsscccccscccccccccccccccssccssssssccsccscccccscccccssscccccccscccccccccccccccccccccccccccccsccssscssscccsccccccccsccsccssscccscccsccsccscc"/>
    </g>
  </g>
</svg>