<svg xmlns="http://www.w3.org/2000/svg" width="191" height="197" viewBox="0 0 191 197">
  <g id="g31510-9-6" transform="translate(-886.719 -940.708)">
    <path id="path29893-7-0" d="M902.97,1065.445l-16.251-79.088,7.353-3.064,14.674,78.4Z" transform="translate(0 -0.165)" fill="#b2bbc1"/>
    <path id="path29905-5-3" d="M1078.5,1038.2l-80.738.619-1.581-7.808,79.76.8Z" transform="translate(-0.779 -0.213)" fill="#b2bbc1"/>
    <path id="path29909-6-6" d="M1050.293,988.881l-9.994,39.81-41.714-.1h0l.866,2.1,42.609.206,11.874-43.115-2.961-.795Z" transform="translate(-0.779 -0.135)" fill="#beb9b5"/>
    <path id="path29899-1-1" d="M985.359,1028.04l9.647-1.719,1.117.292c.614.159,2.234.588,3.6.952,4.035,1.073,6.492,1.352,6.857.778.314-.495-.022-1-1.244-1.9-1.384-1.014-1.569-1.386-1.077-2.161a14.225,14.225,0,0,1,4.032-3.016c2.464-1.384,2.709-1.552,2.948-2.022.212-.421.2-.449-.369-.8-.506-.322-.792-.351-2.073-.262a49.46,49.46,0,0,0-10.009,1.847l-2.19.621-10.942-.718c-6.017-.4-11.2-.729-11.51-.74l-.569-.022.975,5.236c.537,2.88,1.017,5.262,1.067,5.294s4.433-.716,9.739-1.661Z" transform="translate(-0.439 -0.186)" fill="#b28b67"/>
    <path id="path29903-5-4" d="M996.179,1031.014l9.647-1.719,1.116.291c4.732.264,5.6-.591,8.137-2.328a14.214,14.214,0,0,1,4.033-3.016c.673-.378,1.18-.665,1.567-.893,1.03-.6,3.157-.517,3.33-.858.213-.422.2-.449-.369-.8a10.691,10.691,0,0,0-4.023-.532,49.391,49.391,0,0,0-10.008,1.847l-2.19.621-10.942-.719c-6.018-.4-11.2-.728-11.51-.739l-.569-.022.975,5.235c.536,2.88,1.017,5.262,1.067,5.294s4.433-.715,9.738-1.66Z" transform="translate(-0.501 -0.193)" fill="#b28b67"/>
    <g id="A-Human_Sitting-3-0" data-name="A-Human/Sitting-3-0" transform="translate(886.773 940.708)">
      <g id="Head_Front_Rad-6-1" data-name="Head/Front/Rad-6-1" transform="translate(37.378)">
        <g id="Head-6-7" transform="translate(2.331 9.885)">
          <path id="path29706-3-3" d="M936.094,969.387c-1.952-3.681-2.9-7.871-1.657-12.057,3.573-12.062,20.031-5.59,21.979,1.329s-1.919,22.516-6.452,22.672c-1.807.062-5.211-1.824-8.423-4.88l-1.319,16.978-13.74-3.042Z" transform="translate(-926.482 -950.593)" fill="#b28b67" fill-rule="evenodd"/>
        </g>
        <path id="hair-8-8" d="M929.35,951.925a4.382,4.382,0,0,1-.527-1.862,17.156,17.156,0,0,1-.155-2.016,4.264,4.264,0,0,1,1.462-3.63,4.427,4.427,0,0,1,3.137-.6,5.385,5.385,0,0,1,1.972.706c.6.356,1.063.9,1.631,1.3a8.4,8.4,0,0,1,1.857-3.811,4.111,4.111,0,0,1,3.419-1.288,6.074,6.074,0,0,1,3.478,1.539c.249.216.493.438.722.679a2.391,2.391,0,0,0,.633.557c.279.134.462,0,.7-.176a4.9,4.9,0,0,1,.891-.5,4.483,4.483,0,0,1,4.252.2,3.9,3.9,0,0,1,1.4,1.577c.271.584.367,1.437.816,1.9.19.2.391.036.626-.064.354-.149.7-.325,1.054-.468a4.245,4.245,0,0,1,1.547-.325c.774-.007,1.783.258,1.78,1.27a4.06,4.06,0,0,1-.254,1.113c-.146.493-.293.986-.448,1.477a11.1,11.1,0,0,1-.394,1.088c-.083.19-.284.535-.243.753.051.273.575.24.783.3a3.27,3.27,0,0,1,1.157.537,1.34,1.34,0,0,1,.585.843,1.252,1.252,0,0,1-.122.645,1.954,1.954,0,0,0-.106.666c.618-.152,2.686-.334,2.708.719a1.605,1.605,0,0,1-.464.936,8.7,8.7,0,0,1-1.2,1.171,12.533,12.533,0,0,1-2.914,1.8,1.61,1.61,0,0,1-.173,2.724,1.993,1.993,0,0,1-1.522.1,3.256,3.256,0,0,0-.581-.178,1.409,1.409,0,0,1-.288.031,8.138,8.138,0,0,1-2.132-.764,7.407,7.407,0,0,1-2.959-2.491,1.058,1.058,0,0,0-.7-.526c-.289-.061-.588-.045-.878-.1a6.331,6.331,0,0,1-2.02-1.077,8.327,8.327,0,0,1-1.339,2.708,1.759,1.759,0,0,1-1.828.5c-2.132-.266-4.179-.949-6.272-1.409,1.924.906,3.974,1.558,5.861,2.54.853.445.025.9-.456,1.24a7.557,7.557,0,0,0-1.991,2.154,4.468,4.468,0,0,0-3.9-2.7,3.137,3.137,0,0,0-2.8,4.017,5.8,5.8,0,0,0,2.352,2.363,10.061,10.061,0,0,0-2.013,2.581,2.114,2.114,0,0,1-1.289.952,1.226,1.226,0,0,0-.59.1c-.22.145-.308.342-.572.45a2.6,2.6,0,0,1-3.092-.938,2.1,2.1,0,0,1,.666-2.677c-.882-.62-2.538-1.533-1.816-2.962-2.075-.606-6.433-5.155-3.053-7.025-1.357-1.22-2.308-3.678-.893-5.347a4.918,4.918,0,0,1,4.5-1.292" transform="translate(-924.151 -940.708)" fill="#3e3e3e" fill-rule="evenodd"/>
      </g>
      <g id="Bottom_Sitting_Skinny-Jeans-1-8-7" data-name="Bottom/Sitting/Skinny-Jeans-1-8-7" transform="translate(0 99.662)">
        <g id="Objects_Seat_Cube-5-9" data-name="Objects/Seat/Cube-5-9" transform="translate(0 24.628)">
          <g id="Seat-7-3">
            <path id="Seat-Stuff-9-8" d="M902.97,1065.445h45.3l5.936,72.71H886.773Z" transform="translate(-886.773 -1065.445)" fill="#c5cfd6" fill-rule="evenodd"/>
            <path id="polygon29712-6-0" d="M902.97,1065.445H916.9l8.339,72.71H886.773Z" transform="translate(-886.773 -1065.445)" fill="rgba(0,0,0,0.1)" fill-rule="evenodd"/>
          </g>
        </g>
        <path id="Skin-43-7" d="M999.916,1052.988c4.83-2.9,12.933.826,12.927,4.974-.016,12.41-11.342,70.9-11.933,74.6s-6.926,4.674-7.295.012c-.587-7.418-1.678-33.1-.587-44.983.451-4.906.936-9.579,1.413-13.748q-8.914,16.1-27.573,46.1l-6.753-3.086q7.955-26.207,13.045-37c5.81-12.324,11.259-22.877,13.552-26.595C990.319,1047.408,996.6,1049.448,999.916,1052.988Z" transform="translate(-886.773 -1040.817)" fill="#b28b67" fill-rule="evenodd"/>
        <path id="LegLower-0-3" d="M960.6,1107.151l23.178-54.907c5.553-8.932,21.121,1.818,19.227,7-4.3,11.761-26.162,49.837-27.443,53.341Z" transform="translate(-886.773 -1040.817)" fill="#869baa" fill-rule="evenodd"/>
        <g id="Accessories_Shoe_Flat-Sneaker-48-2" data-name="Accessories/Shoe/Flat-Sneaker-48-2" transform="translate(67.863 72.306)">
          <path id="shoe-15-3" d="M959.31,1113.391a12.572,12.572,0,0,0-2.817,2.912,29.371,29.371,0,0,0-1.857,4.273l28.641,16.537q3.248-3.047,1.012-4.73t-3.689-2.839l-9.886-13.62a.586.586,0,0,0-.819-.13l-.014.01-2.054,1.581a10.545,10.545,0,0,1-4.219-1.05,9.464,9.464,0,0,1-2.6-2.718h0a1.173,1.173,0,0,0-1.635-.277C959.354,1113.356,959.332,1113.373,959.31,1113.391Z" transform="translate(-954.636 -1113.123)" fill="#a9a9a9" fill-rule="evenodd"/>
        </g>
        <g id="g29722-9-4" transform="translate(104.374 85.219)">
          <path id="path29720-8-4" d="M992.132,1129.595a12.6,12.6,0,0,0-.985,3.931,29.481,29.481,0,0,0,.529,4.629h33.072q1.29-4.262-1.488-4.6t-4.615-.613l-15.371-6.853a.587.587,0,0,0-.775.3l-.006.015-.988,2.4a10.543,10.543,0,0,1-4.179,1.2,9.473,9.473,0,0,1-3.608-1.055h0a1.172,1.172,0,0,0-1.554.577A.727.727,0,0,0,992.132,1129.595Z" transform="translate(-991.147 -1126.036)" fill="#a9a9a9" fill-rule="evenodd"/>
        </g>
        <path id="Leg-and-Butt-6-0" d="M1014.468,1062.181c0,15.578-7.4,51.915-7.4,55.346l-15.918.012q3.5-48.636,2.479-49.16c-1.016-.524-41.662,4.058-53.853,4.058-17.578,0-24.85-11.085-25.44-31.62h34.822c7.09.759,44.073,8.218,57.808,10.783,5.88,1.1,7.505,6.289,7.505,10.581Z" transform="translate(-886.773 -1040.817)" fill="#c5cfd6" fill-rule="evenodd"/>
      </g>
      <g id="Body_Pointing-Forward-4-4" data-name="Body/Pointing-Forward-4-4" transform="translate(20.068 38.387)">
        <path id="Sleeve-3-2" d="M951.295,1009.5a50.01,50.01,0,0,0,26.9,7.6l-1.4,9.634c-9.629,2.106-20.992,1.643-28.122-3.176A7.771,7.771,0,0,1,951.295,1009.5Z" transform="translate(-906.841 -979.248)" fill="#00652f" fill-rule="evenodd"/>
        <path id="Clothes-5-1" d="M954.267,1016.05c7.568,1.887,27.626,7.028,45.441.688,4.418,9.142,1.7,14.359,1.361,18.252-15.282,7.983-30.98,5.476-41.771,5.711.343,6.4-.437,12.5-3.055,18.063-5.382,11.445-36.9.845-47.5,2.932-6.636-21.552,6.2-30.311,6.206-44.1.011-15.1,12.137-38.347,13.921-38.347h16.27C946.041,990.781,950.559,1003.492,954.267,1016.05Z" transform="translate(-906.841 -979.248)" fill="#00843e" fill-rule="evenodd"/>
      </g>
    </g>
    <circle id="circle30960-2-3" cx="16.25" cy="16.25" r="16.25" transform="translate(994.806 998.353)" fill="rgba(255,24,24,0.36)"/>
  </g>
</svg>
