<svg xmlns="http://www.w3.org/2000/svg" width="100" height="100" viewBox="0 0 100 100">
  <path id="path11619" d="M-780.991,1495.692v98.886h14.921c-.034-16.39-.061-32.785.034-49.172-.276-2.234.426-5.189,3.016-5.621,2.406-.554,4.906-.175,7.353-.3a5.876,5.876,0,0,1,3.389,1.386c1.578.272,2.008-1.751,3.2-2.436,3.073-2.56,7.624-3.719,11.388-2.086a12.032,12.032,0,0,1,6.254,5.489c.485.905,2.081.231,2.636-.459a5.982,5.982,0,0,1,8.647-1.776c1.027.5,1.4,1.856,2.2,2.4,2.2-.205,3.971,1.4,6.077,1.741,5.612,1.78,10.86,4.522,16.376,6.525a4.626,4.626,0,0,0,4.113-.417c3.059-1.462,6.689-2.088,9.881-.642,1.02.167.176-2.227.455-3.078v-51.551q-49.967,0-99.934,0v1.118Zm38.237,46.709a4.947,4.947,0,0,0-2.742,7.664c2,2.952,7.059,2.353,8.382-.939a5.073,5.073,0,0,0-3.071-6.655c-.25-.422-2.194-.249-2.569-.07Zm18.443,7.587c-.288,10.674-.615,21.347-.684,32.025h43.939v-18.661c-1.437.021-3.011-.881-2.858-2.505-.148-1.868.746-4.464-1.113-5.718-2.352-.591-4.2,1.633-6.469,1.873-4.346.88-8.474-1.385-12.419-2.88-6.279-2.786-12.9-5.33-19.875-5.244-.844-.309-.378.674-.521,1.11Zm-10.5,15.13q-8.225.073-16.451.049.019,4.825.033,9.65,8.784.073,17.568.053c0-3.254,0-6.508-.033-9.762h-1.117Zm-16.455,17.473q-.019,5.993-.037,11.986h59.261c-.022-1.972-.039-3.945-.062-5.917-11.8.023-23.6-.08-35.4,0-2.314.242-5.348-.418-5.891-3.072a13.275,13.275,0,0,1-.227-4.064q-8.819-.031-17.638-.053c0,.373,0,.746,0,1.118Z" transform="translate(780.991 -1494.578)" fill="#54a191"/>
</svg>
