<svg xmlns="http://www.w3.org/2000/svg" width="225" height="260" viewBox="0 0 225 260">
  <path id="path27215-0" d="M424.193,1347.3a6.261,6.261,0,0,0-2.725,1.158,49.441,49.441,0,0,0-10.239,8.026,37.868,37.868,0,0,0-7.525,10.142,32.761,32.761,0,0,0-3.263,9.978,46.848,46.848,0,0,0,0,8.45,61.548,61.548,0,0,0,2.046,10.064c.782,2.441,1.263,2.962,2.195,2.358.427-.277.474-.4,1.189-3.28a52.835,52.835,0,0,1,3.448-9.814c.664-1.562,1.483-3.649,1.817-4.638a17.747,17.747,0,0,1,1.084-2.635,58.089,58.089,0,0,1,4.917-7.034l.474-.515v1.394a64.846,64.846,0,0,1-1.758,11.6,68.732,68.732,0,0,1-2.517,8.9c-1.5,4.5-2.214,6.962-2.214,7.665a.9.9,0,0,0,.254.7c.489.49.979.317,2.5-.811a58.968,58.968,0,0,0,10.48-10.369,32.628,32.628,0,0,0,6.088-14.081,49.158,49.158,0,0,0-.364-14.41c-.85-3.846-3.238-10.462-4.327-11.98a2.051,2.051,0,0,0-1.565-.88Zm0,1.749h.136c.418.348,2.006,4.228,3.008,7.365a39.638,39.638,0,0,1,1.493,6.229,55.4,55.4,0,0,1,0,11.4,31,31,0,0,1-5.863,13.666,55.578,55.578,0,0,1-8.523,8.691c-.482.4-.953.776-1.049.851-.133.1-.1-.119.184-1.044.442-1.469,1.275-4.016,2.093-6.376a68.881,68.881,0,0,0,2.278-8.986c1.581-7.909,1.831-11.849.814-12.892-.837-.858-1.817-.365-3.525,1.772a55.213,55.213,0,0,0-4.678,6.946,21.472,21.472,0,0,0-1.053,2.635c-.332.988-1.169,3.11-1.852,4.714a52.531,52.531,0,0,0-3.266,9.205c-.172.7-.317,1.116-.356,1.033-.145-.251-.911-3.464-1.225-5.116-1.063-5.587-1.168-10.424-.308-14.329a34.007,34.007,0,0,1,4.767-10.961,45.79,45.79,0,0,1,8.369-9.2c3.2-2.664,7.652-5.572,8.554-5.632Zm-66.742,14.619a.8.8,0,0,0-.577.27,21.1,21.1,0,0,0-2.15,4.264c-2.008,4.707-2.581,7.167-2.571,11.021a18.471,18.471,0,0,0,.609,5.2,25.263,25.263,0,0,0,4.7,9.328,23.231,23.231,0,0,0,2.828,2.939,1.392,1.392,0,0,0,1.256.079c.482-.333.482-.657.079-3.263-.852-5.035-1.864-12.645-1.864-14.012v-.853h.569a1.178,1.178,0,0,1,.931.324c.964.848,1.9,3.677,3.618,10.987,1.254,5.324,1.363,5.649,1.963,5.9.333.142.4.136.687-.079a1.775,1.775,0,0,0,.561-.6,21.316,21.316,0,0,0,1.16-3.469,6.6,6.6,0,0,1,.514-1.324c.616-1.32.687-1.729.782-4.806.166-5.365-.521-7.885-3.306-12.15a32.376,32.376,0,0,0-5.482-6.615c-2.549-2.322-3.6-3.148-4.256-3.137Zm.316,2.018a39.929,39.929,0,0,1,4.612,4.167,36.564,36.564,0,0,1,5.314,7.9c.909,2.129,1.088,3.265,1.085,6.884,0,3.435-.079,3.949-.664,5.155a8.674,8.674,0,0,0-.617,1.688c-.245,1.217-.3,1.2-.608-.2-.593-2.639-1.61-6.7-2.072-8.291-1.124-3.875-2.153-5.574-3.639-6.006a2.459,2.459,0,0,0-2.905.893c-.229.42-.26.57-.251,1.6,0,.625.119,1.926.237,2.892.363,2.825.92,6.743,1.306,9.233.189,1.273.34,2.331.316,2.352a21.424,21.424,0,0,1-2.45-3.1,22.356,22.356,0,0,1-3.241-7.706,16.174,16.174,0,0,1-.324-3.256c-.127-4.314.529-6.968,3.223-12.885a7.317,7.317,0,0,1,.68-1.316Zm109.052,33.835h-.529a22.367,22.367,0,0,0-5.908.88,33.987,33.987,0,0,0-8.474,3.234,19.472,19.472,0,0,0-7.412,8.516,36.118,36.118,0,0,0-2.333,5.871c-.172.673-.172.792-.079,1.11a.743.743,0,0,0,.577.49.841.841,0,0,0,.852-.1,10.967,10.967,0,0,0,1.354-1.061,51.084,51.084,0,0,1,11.026-7.535,7.941,7.941,0,0,1,2.174-.8,8.571,8.571,0,0,1-1.263,2.033,76.913,76.913,0,0,1-6.345,6.9c-1.972,2-3.723,3.859-3.893,4.126a2,2,0,0,0-.309.784c0,.38.254.877.49.936a4.385,4.385,0,0,0,2.485-.4c1.925-.578,5.073-1.679,6.295-2.208a24.692,24.692,0,0,0,7.776-5.566c2.745-3.423,6.15-11.837,6.15-15.2a1.539,1.539,0,0,0-.986-1.717,2.621,2.621,0,0,0-1.687-.3Zm-.079,1.634a2.266,2.266,0,0,1,.963.167c.292.182-.348,3.087-1.189,5.423a36.289,36.289,0,0,1-4.555,8.985,22.7,22.7,0,0,1-5.906,4.426,27.36,27.36,0,0,1-4.643,1.872c-1.087.371-2.026.673-2.084.673-.079,0,1.327-1.452,3.079-3.227,6.078-6.158,7.975-8.815,7.359-10.307-.348-.83-1.509-1.011-2.988-.466a48.418,48.418,0,0,0-11.635,7.279c-.871.752-.868.792-.088-1.079a22.27,22.27,0,0,1,5.494-8.246c2.276-1.931,5.417-3.379,9.78-4.507a27.386,27.386,0,0,1,6.407-1Zm-74.753,6.8c-2.354,0-4.453.079-5.925.238-4.79.53-8.186,1.155-17.781,3.3a139.822,139.822,0,0,1-15.983,2.961l-1.038.119-1.527-.53c-3.307-1.136-4.695-1.1-6.032.15a6.793,6.793,0,0,0-.915,1.118c-1.009,1.6-1.4,3.14-1.719,6.829-.1,1.079-.26,2.474-.371,3.1s-.317,1.856-.45,2.737-.529,3.158-.874,5.061c-1.24,6.989-1.524,9.214-1.619,12.716l-.079,2.333.3.546a3.115,3.115,0,0,0,3.141,1.532,3.27,3.27,0,0,0,2.314-1.039c.214-.238,1.253-1.761,2.317-3.38s2.315-3.4,2.783-3.957a71.418,71.418,0,0,1,5.568-5.681,48.789,48.789,0,0,1,28.244-11.858,70.9,70.9,0,0,1,9.173.167,29.027,29.027,0,0,1,11.753,3.439,9.031,9.031,0,0,1,4.227,5.7,14.531,14.531,0,0,1,.277,3.668v7.448l-.079,4.66-1.121.079a130.158,130.158,0,0,0-57.7,18.314,52.054,52.054,0,0,0-11.2,8.648A37.451,37.451,0,0,0,329.945,1487a29.272,29.272,0,0,0-2.582,8.291,38.7,38.7,0,0,0-.149,6.82,29.656,29.656,0,0,0,7.457,16.773,28.574,28.574,0,0,0,5.672,4.79,46.536,46.536,0,0,0,23.678,8.051h0c1.127.088,5.968.079,7.175,0a55.483,55.483,0,0,0,16.536-3.852c5.27-2.1,9.769-4.627,19.1-10.747,1.989-1.3,2.285-1.41,2.886-1.012.395.262.466.38,1.533,2.468,2.116,4.153,3.026,5.629,4.229,6.858a7.11,7.11,0,0,0,3.524,2.151,54.108,54.108,0,0,0,6.2.728c2.66.184,11.348.245,13.633.1,4.365-.269,5.485-.634,6.173-2a4.218,4.218,0,0,0-.237-3.689,9.7,9.7,0,0,0-1.213-1.4c-2.529-2.488-4.13-6.369-4.752-11.517-.254-2.062-.34-10.249-.355-31.3,0-21.736-.128-29.612-.577-38.735-.285-5.839-.427-7.512-.719-8.827-1.568-7.008-6.8-13.276-14.279-17.1a53.15,53.15,0,0,0-18.706-5.263,120.551,120.551,0,0,0-12.166-.617Zm-.819,2.475h1.7l-.625.444-.624.443.189.948a21.237,21.237,0,0,1,.26,2.409l.079,1.461-.489.079a15.223,15.223,0,0,1-3.292-.26l-.687-.142-.442.689a18.786,18.786,0,0,1-2.479,3.01s-.38-.333-.8-.753a19.165,19.165,0,0,1-2.124-2.519c-.085-.15-.189-.145-1.27.079a21.613,21.613,0,0,1-2.375.286l-1.2.079-.079-.768a8.074,8.074,0,0,1,.079-1.9c.172-1.768.128-1.66.846-1.8a2.1,2.1,0,0,1,.673-.079,3.122,3.122,0,0,1-.08.641,12.819,12.819,0,0,0-.18,1.559l-.079.968h.277a13.377,13.377,0,0,0,2.43-.411,6.773,6.773,0,0,0-.4-.944c-.624-1.352-.859-2.052-.711-2.1.08,0,.514-.119.985-.2l.855-.167.657.507c.8.617,1.252.7,2.766.53.936-.1,1.05-.142,1.469-.491a2.253,2.253,0,0,0,.458-.443c0-.079.189-.269.411-.506.4-.444.418-.452,1.224-.523.88-.079.87-.087.458.475a2,2,0,0,0-.246.388,7.5,7.5,0,0,0,1.567-.784,1.19,1.19,0,0,1,.8-.173Zm11.391.286.774.079a6.93,6.93,0,0,1,2.465.452l.434.221-.119-.23c-.1-.181-.1-.221,0-.167.085,0,.466.088.848.133a1.707,1.707,0,0,1,1.311.618,1.734,1.734,0,0,0,1.2.625,6.664,6.664,0,0,0,2.717-.085c.254-.167.316-.159,1.516.145a4.022,4.022,0,0,1,1.248.435,6.657,6.657,0,0,1-.45,1.02c-.285.579-.4.927-.333.954a21.119,21.119,0,0,0,2.374.356h.3l-.079-.931c-.08-.618-.08-.93,0-.93a4.071,4.071,0,0,1,.663.207l.554.2.079.8v1.407l-.079.61-1.2-.079c-.656-.079-1.591-.142-2.073-.23-1.63-.3-1.422-.357-2.062.538a17.787,17.787,0,0,1-2.456,2.619,5.358,5.358,0,0,1-.842-.884h0c-.426-.491-1.064-1.31-1.421-1.834l-.648-.953-1.053.184a16.443,16.443,0,0,1-3.414.173,25.331,25.331,0,0,1,.308-3.8l.184-.974-.4-.347Zm-15.829,0h.285s0,.079-.114.079-.22.128-.284.309c-.128.364-.2.364-.783.079a1.32,1.32,0,0,1-.442-.293,4.48,4.48,0,0,1,1.335-.181Zm-3.965.506c.079,0,.079,0-.079.1a.49.49,0,0,1-.308.1c-.1,0-.088-.08.079-.1a.676.676,0,0,1,.308-.1Zm7.671.833-.819.4a13.833,13.833,0,0,1-3.277,1.121l-.86.173.442.167a20.449,20.449,0,0,0,3.474.845c1.472.2,1.355.233,1.355-.34a13.1,13.1,0,0,0-.268-2.108Zm14.239.119c-.189,0-.2.269-.3,1.055-.172,1.4-.2,1.7-.127,1.7s.466-.079.943-.1a17.2,17.2,0,0,0,3.4-.744l.979-.316-.951-.19a15.115,15.115,0,0,1-3.352-1.155,2.329,2.329,0,0,0-.594-.255Zm8.9.768-.6.443a16.038,16.038,0,0,1-4.158,2.025c-.1,0-.1.11.079.356a11.429,11.429,0,0,0,1.473,1.854,3.613,3.613,0,0,0,.758-.8,16.494,16.494,0,0,0,2.013-3.006Zm-32.075.079.143.356a17.967,17.967,0,0,0,1.513,2.527,10.9,10.9,0,0,0,1.522,1.756,5.328,5.328,0,0,0,.872-1.044,10.748,10.748,0,0,0,.758-1.075s-.466-.2-.994-.4a15.08,15.08,0,0,1-3.219-1.677Zm-13.026,1.216c.269,0,.545.269,1.016.776a7.721,7.721,0,0,1,1.943,3.446c0,.087.364-.08.96-.467a8.671,8.671,0,0,1,2.561-1.332,10.563,10.563,0,0,1,.08,2.151c0,2.031,0,2.062.2,2,.6-.173,2.333-.562,2.755-.617.474-.079.49-.079.521.23,0,.255.088.292.372.317h.34l-.08.744c-.079.4-.1.768-.135.8a5.122,5.122,0,0,1-1.308.269,2,2,0,0,1,.079-.514c.1-.6.08-.61-1.281-.238a13.347,13.347,0,0,0-4.194,1.992,19.29,19.29,0,0,1-3.177,1.17,10.226,10.226,0,0,1,2.011-1.833c.229-.111.94-.4,1.583-.657,1.01-.388,1.147-.467,1-.578s-.166-.23-.079-1.247a10.6,10.6,0,0,0,.085-1.573l-.079-.452-1.03.7a14.965,14.965,0,0,0-4.878,4.975l-.215.428.3.285c.166.167.277.317.251.363,0,.08-.292.173-.593.293l-.545.221-.9-.873a13.9,13.9,0,0,0-3.253-2.323,16.857,16.857,0,0,0-3.187-1.1l-.442-.079.079.348a9.633,9.633,0,0,0,2.724,5.472l.687.682-.592.325-.593.324-.633-.649a11,11,0,0,1-2.572-4.523,8.792,8.792,0,0,1-.348-2.692.6.6,0,0,1,.34-.119c.189,0,.268-.1.292-.317,0-.269.079-.285.411-.232a17.506,17.506,0,0,1,2.464.578l.569.19-.079-.261a31.337,31.337,0,0,1,0-4.061,11.932,11.932,0,0,1,2.648,1.384l.848.555.268-.753a8.348,8.348,0,0,1,1.78-2.9c.442-.467.711-.7.979-.681Zm-21.138,1.458h.4c.735,0,.865.1,1.071.689a3.4,3.4,0,0,0,1.059,1.625,4.416,4.416,0,0,0,3.542.969l.679-.119-.9-.9-.9-.907.4-.079c1.094-.167,1.244-.144,1.77.379a3.565,3.565,0,0,0,.553.491,2.735,2.735,0,0,0,.135-.57c.079-.554.079-.57.45-.625a5.144,5.144,0,0,0,.672-.1c.285-.079.292-.079.229.34a12.243,12.243,0,0,0-.128,1.834l-.079,1.447h-1.1c-.609,0-1.539.079-2.079.1a5.255,5.255,0,0,1-3.8-1.027l-.617-.451-.418.356a5.906,5.906,0,0,1-3.026,1.19c-.3,0-.3,0-.232-.49.1-.753.149-.852.411-.852a4.5,4.5,0,0,0,2.293-1.059l.228-.2-.254-.571a5.59,5.59,0,0,1-.316-1.023Zm21.828.878v2.016h-1.327v-.956c0-.89,0-.942-.166-.753a6.361,6.361,0,0,0-.813,1.9l-.166.657.909.851.91.852.9-.784c.895-.776.9-.791.857-1.208h0a5.687,5.687,0,0,0-.711-2Zm50.938.08a11.179,11.179,0,0,1,2.531,1.342c.585.38.93.547.955.467a5.14,5.14,0,0,1,.166-.538c.206-.689.505-1.21.664-1.151a2.318,2.318,0,0,1,.553.317l.41.26-.254.625a4.645,4.645,0,0,0-.292,1.115l-.079.491.867.816.866.816.887-.842a9.185,9.185,0,0,1,.957-.837c.079,0,.268.184.529.4l.45.4-.944.9a8.6,8.6,0,0,0-.943.974,4.81,4.81,0,0,0,.482.817l.481.745.317-.3a7.69,7.69,0,0,1,2.206-1.463c.079,0,.26.2.466.443l.363.443-1,.657a13.26,13.26,0,0,0-4.2,4.594c-.215.4-.4.744-.419.76a12.367,12.367,0,0,1-1.152-.451,14.419,14.419,0,0,1,2.085-3.349.854.854,0,0,0,.268-.435,11.084,11.084,0,0,0-2.151-2.968,22.7,22.7,0,0,0-3.513-2.79l-.418-.23v.713c0,.4.079,1.1.114,1.563.1.76.1.863-.08.977-.149.119,0,.2,1.236.681a9.231,9.231,0,0,1,1.892.932,8.447,8.447,0,0,1,1.644,1.762c0,.079-.229.238-.474.435l-.442.356-.742-.767a12.369,12.369,0,0,0-3.614-2.61c-1.407-.689-3.672-1.362-3.672-1.09,0,0,.079.387.143.8a9.359,9.359,0,0,0,6.967,7.393,8.039,8.039,0,0,0,2.267.173,7.534,7.534,0,0,0,2.5-.286,9.407,9.407,0,0,0,4.551-2.954c.466-.586.522-.578.882.2l.252.523-.617.625a10.918,10.918,0,0,1-5.045,2.936,11.666,11.666,0,0,1-4.277.207,12.121,12.121,0,0,1-3.618-1.295,10.719,10.719,0,0,1-5.3-8.445l-.079-.753h.316c.26,0,.317-.079.38-.317.079-.31.079-.318.545-.255.419.079,2.161.443,2.749.617.2.079.2,0,.2-2,0-1.135.079-2.1.088-2.148h0Zm5.879,1.111a7.368,7.368,0,0,1,1.167.792H425.91v-.411c0-.229,0-.412.079-.412Zm-62.8.961h0a18.7,18.7,0,0,0,.237,3c0,.085,0,.167-.133.2-.1,0,.079.079.395.079.513,0,.672.079,1.341.507a13.413,13.413,0,0,1,1.173.874c.228.207.41.372.418.372s.229-.348.505-.784l.49-.784-.553-.57a17.25,17.25,0,0,0-3.855-2.9Zm-14.986.892.292.173c.269.159.309.159.53,0s.254-.159.513.268a4.213,4.213,0,0,1,.617,3.127,5.725,5.725,0,0,1-.775,1.849c-.14.181-.166.181-.339,0-.229-.216-.364-.221-.53,0-.189.238-.276.19-.577-.317h0a4.513,4.513,0,0,1,0-4.643Zm45.427.317a7.517,7.517,0,0,1,3.189.626l.648.292v.784c0,.769,0,.784-.22.665-.189-.1-.2-.1-.144.1a.148.148,0,0,1,0,.2c-.079,0-.379-.079-.742-.128-.6-.1-.671-.142-.84-.483-.292-.57-.5-.7-1.325-.776l-.758-.079.277.483.284.49-.758-.079a3.61,3.61,0,0,1-1.112-.278.75.75,0,0,0-.8-.088,7.754,7.754,0,0,1-2.175.079c-.215-.079-.189-.1.308-.467a6.563,6.563,0,0,1,4.185-1.324Zm7.691,0a6.149,6.149,0,0,1,3.253.729,12.231,12.231,0,0,1,3.516,3.048,11.591,11.591,0,0,0,3.548,3.05,7.326,7.326,0,0,0,2.9.713h.45v1.346h-.648a6.418,6.418,0,0,0-3.6,1.2c-.268.19-.506.349-.521.349s-.167-.255-.34-.57h0l-.309-.57.254-.181c.134-.1.514-.333.825-.523l.577-.332H408.8l-.316-.333-.316-.333.99-.079.992-.079-.451-.325c-.254-.184-.766-.61-1.157-.961a2.554,2.554,0,0,0-.876-.6c-.1,0-.268.232-.4.483a3.719,3.719,0,0,1-.268.49,9.636,9.636,0,0,1-1.079-.649c-.088-.079.442-.981.71-1.239l.309-.292-.593-.6a3.012,3.012,0,0,0-.719-.6c-.189,0-.5.5-.758,1.24-.135.365-.254.689-.26.7,0,0-1.064-.467-1.157-.546a7.681,7.681,0,0,1,.858-1.959,1.563,1.563,0,0,0,.254-.4,3.042,3.042,0,0,0-1.25-.586c-.387,0-1.066.818-1.322,1.59a5.578,5.578,0,0,1-.254.681,8.369,8.369,0,0,1-1.12-.4,4.123,4.123,0,0,1,.656-1.8l.316-.506-.75.079a8.2,8.2,0,0,0-.928.167,4.609,4.609,0,0,0-.807,1.54c0,.128-.08.119-.951-.11-.356-.1-.372-.119-.284-.356s.079-.255-.1-.145c-.2.1-.2.08-.2-.664v-.777l.529-.268a7.093,7.093,0,0,1,3.228-.665Zm-52.555,1.5s-.079,0-.079.1a4.591,4.591,0,0,0,0,1.7l.079.26.08-.26a2.121,2.121,0,0,0,.085-.736,2.669,2.669,0,0,0-.079-.822.456.456,0,0,0-.08-.255Zm3.092,6.907h.079a5.549,5.549,0,0,1,.6.167l.442.119v3.987l1.1.119a6.612,6.612,0,0,1,1.189.2c.079.079-.167.284-.45.538a1.6,1.6,0,0,1-1.353.507l-.813.079-.189.515a2.742,2.742,0,0,0-.166.538,1.708,1.708,0,0,0,.268.119c.229.088.229.1-.292.547-.293.252-.985.9-1.534,1.441a7.382,7.382,0,0,1-1.71,1.356c-.694.356-.7.372-.466.5a2.3,2.3,0,0,1,.285.167c.079.08-.727.97-.847.954a6.51,6.51,0,0,1-.843-.276h0c-.672-.256-.883-.27-2.9-.31l-2.179-.079.079-.427c.119-.953,0-.895,2.08-.895,2.152,0,2.649-.087,3.771-.617a6.146,6.146,0,0,0,2.992-2.941,6.067,6.067,0,0,0,.664-2.414v-.459l-.648.673a8.336,8.336,0,0,1-2.482,1.784c-.292.125-1.273.483-2.176.784a28.708,28.708,0,0,0-2.706,1.078c-1.175.577-1.132.6-.931-.412l.128-.617.774-.38a23.082,23.082,0,0,1,2.341-.908,9.475,9.475,0,0,0,3.041-1.308,6.4,6.4,0,0,0,2.1-2.346c.4-.784.418-.784-.5,0a1.915,1.915,0,0,1-1.391.5,14.978,14.978,0,0,0-5.024,1.33,4.467,4.467,0,0,1-.854.364s.079-.483.229-1.369c0-.168.251-.3.845-.539a18.723,18.723,0,0,1,5.266-1.151,2.8,2.8,0,0,0,1.916-.713.468.468,0,0,1,.324-.173Zm72.45,4.3a18.935,18.935,0,0,1,2.946,3.485c.15.23.15.23,1.135.079a18.814,18.814,0,0,1,2.4-.15H432.2l-.079.9a27.532,27.532,0,0,1-.458,3.431c-.08.277-.08.372.079.443a15.048,15.048,0,0,1,3.233,2.814,17.682,17.682,0,0,1-2.711,2.377c-.942.665-.98.713-.928,1.022a16.9,16.9,0,0,1,.251,3.1v1.333l-1.314-.08c-.726-.079-1.662-.136-2.088-.215s-.912-.173-1.082-.2c-.284-.08-.347,0-.876.729a16.479,16.479,0,0,1-2.472,2.617,4.982,4.982,0,0,1-.878-.9h0a22.261,22.261,0,0,1-1.4-1.808,4.409,4.409,0,0,0-.718-.9c-.08,0-.554.079-1.1.167a18.572,18.572,0,0,1-2.138.184h-1.133v-1.136a18.962,18.962,0,0,1,.387-3.412c.08-.292,0-.348-.846-1a23.328,23.328,0,0,1-2.6-2.413,12.843,12.843,0,0,1,2.9-2.5,2.166,2.166,0,0,0,.7-.578c0-.08-.079-.507-.158-.982s-.18-1.436-.22-2.142l-.079-1.286h.577a24.2,24.2,0,0,1,3.465.356c.418.085.774.15.79.15,0,0,.34-.435.711-.961a12.285,12.285,0,0,1,2.272-2.551Zm0,1.769-.561.689a17.453,17.453,0,0,0-1.78,2.7,5.289,5.289,0,0,0-.513,1.137s.356-.215.742-.475a11.879,11.879,0,0,1,2.775-1.4,2.908,2.908,0,0,0,1-.506,19.939,19.939,0,0,0-1.322-1.765Zm-6.182,2.578c-.292,0-.237.207-.119,1.234a19.578,19.578,0,0,0,.831,3.561l.231.618.18-.932a16.843,16.843,0,0,1,.459-1.756c.157-.451.442-1.166.632-1.586s.348-.776.348-.784-1.365-.23-2.139-.317a3.324,3.324,0,0,1-.418-.08Zm12.339.318c-.215,0-.537.079-1.027.1-1.546.167-4.009.721-4.009.919,0,.08.331.128.742.19a15.924,15.924,0,0,1,3.548,1.189l.7.356.119-.53a11.5,11.5,0,0,0,.215-1.385c.079-.681.166-.852-.3-.842Zm-7.029,2.263c-.569,0-.648.079-1.166.451a5.836,5.836,0,0,0-1.794,1.928,8.283,8.283,0,0,0-.166,1.563l-.079,1.206.529.7a13.29,13.29,0,0,0,1.071,1.243,1.606,1.606,0,0,0,1.219.633,9.314,9.314,0,0,0,1.5.1c.759,0,.875,0,1.314-.292a10.62,10.62,0,0,0,1.261-1.059c.767-.737.783-.761.876-1.423a9.231,9.231,0,0,0,.1-1.549c0-1.066-.079-1.214-1.264-2.436l-.848-.87-.718-.1a9.925,9.925,0,0,0-1.561-.1h-.277Zm-1.357,1.02.616.31a4.322,4.322,0,0,1,1.008.712l.388.4.41-.4a6.473,6.473,0,0,1,1.682-1.012,1.121,1.121,0,0,1,.111.317c.079.237.141.324.371.372.254.079.293.1.237.278a5.345,5.345,0,0,1-.944,1.524l-.356.4.418.451a5.341,5.341,0,0,1,.946,1.56,1.357,1.357,0,0,1-.3.168.532.532,0,0,0-.356.356c-.079.145-.133.255-.22.255a3.386,3.386,0,0,1-1.486-.887l-.49-.451-.254.278a6.4,6.4,0,0,1-1.555,1.041c-.254.119-.285.1-.38-.181a.8.8,0,0,0-.363-.4c-.144-.079-.26-.159-.26-.23a4.912,4.912,0,0,1,.977-1.582l.371-.4-.4-.419a3.957,3.957,0,0,1-.943-1.529c0-.088.11-.19.26-.229a.762.762,0,0,0,.387-.38Zm6.712.134h0a4.512,4.512,0,0,0,.4.712,12.8,12.8,0,0,1,.817,1.38,18.028,18.028,0,0,1,.955,2.407c.079.15.983-.467,1.777-1.186l.489-.444-.41-.355a19.058,19.058,0,0,0-4.008-2.512Zm-86.884.1a1.232,1.232,0,0,1,.418.23,16.475,16.475,0,0,0,2.83,1.369,4.709,4.709,0,0,1,.853.364c.079.133-.593,1.026-.775,1.02a4.5,4.5,0,0,1-.8-.255c-.356-.142-1.11-.491-1.681-.784l-1.039-.531.079-.689c.079-.371.088-.7.1-.72h0Zm150.521.079c-4.19,0-4.646,0-5.979.23a33.618,33.618,0,0,0-11.493,4.337c-4.028,2.285-8.931,6.341-11.011,9.106-.7.926-.842,1.37-.609,1.832.395.769,1.32.792,3.633.088,2.078-.633,4.624-1.043,13.084-2.117,10.8-1.371,14.226-1.539,15.2-.745l.229.185-.348.34c-.672.665-4.212,2.2-8.267,3.584a57.9,57.9,0,0,1-6.223,1.794c-1.179.278-2.536.626-3.017.777a58.92,58.92,0,0,1-9.227,1.912c-3.165.491-3.788.633-4.014.956a.97.97,0,0,0,.079,1.14c.434.554,3.675,1.986,6.443,2.85,1.558.491,4.56,1.274,8.349,2.189l2.68.649.672.713.672.713V1470.3l1.516-.127c7.978-.657,14.484-3,20.121-7.227,4.451-3.34,11.552-10.425,12.715-12.686.38-.736.119-1.411-.81-2.12a48.207,48.207,0,0,0-7.007-3.436c-1.7-.721-3.776-1.637-4.613-2.031a14,14,0,0,0-4.51-1.363,48.165,48.165,0,0,0-8.3-.419Zm-75.152.665a20.666,20.666,0,0,0-1.933,1.422l-.237.19.687.594c.38.324.975.793,1.322,1.04a19.32,19.32,0,0,0,2.563,1.5c.079,0-.142-.34-.418-.752a14.284,14.284,0,0,1-1.564-3.1,3.481,3.481,0,0,0-.419-.9Zm74.64.932a58.93,58.93,0,0,1,9.605.681,14.773,14.773,0,0,1,3.585,1.31c.8.372,2.464,1.1,3.711,1.627a67.6,67.6,0,0,1,6.184,2.864c1.231.729,1.186.594.506,1.479a72.454,72.454,0,0,1-12.826,12.039,35.35,35.35,0,0,1-16.545,5.865c-.794.087-1.856.181-2.361.215l-.918.079-.657-.7-.648-.7v.949l-3.5-.858c-3.678-.9-6.166-1.584-7.633-2.09a22.158,22.158,0,0,1-2.847-1.123s1.178-.229,2.564-.443a56.884,56.884,0,0,0,6.807-1.4c2.26-.657,2.994-.854,4.287-1.126a74.329,74.329,0,0,0,10.293-3.314c3.268-1.295,4.523-2,5.2-2.926.884-1.2.229-2.59-1.48-3.126-.7-.221-.924-.238-3.177-.23-2.7,0-4.084.133-10.876.982-9.155,1.142-12.186,1.616-14.243,2.223-.5.145-1,.293-1.114.324-.332.1,1.426-1.75,2.854-2.994a39.817,39.817,0,0,1,9.486-6.39,25.827,25.827,0,0,1,10.594-3.092c.911-.08,1.995-.1,3.147-.1ZM341.577,1444c.079,0,.277.19.521.451a8.669,8.669,0,0,0,1.18.988,3.725,3.725,0,0,1,.711.554,6.061,6.061,0,0,1-.648,1.034l-.561-.347c-.292-.19-.7-.483-.9-.65l-.371-.3v-.835c0-.459,0-.862.079-.894h0Zm87.768.8h0c-.079,0-.1.294-.144.594a15.977,15.977,0,0,1-1.194,3.527,4.668,4.668,0,0,0-.38.849,14.4,14.4,0,0,0,2.266.34c.355,0,.489,0,.489-.133a30.258,30.258,0,0,0-.363-3,8.508,8.508,0,0,0-.657-2.173Zm-11.213,2.272h0a10.082,10.082,0,0,0-.363,2.3c-.08.531-.119.515,1.49.278a17.257,17.257,0,0,0,3.381-.829l.4-.167-.877-.184a13.069,13.069,0,0,1-3.078-1.042,5.442,5.442,0,0,0-.91-.356Zm8.829.933a3.044,3.044,0,0,0-.687.419,15.894,15.894,0,0,1-3.254,1.645,3.908,3.908,0,0,0-.8.332,10.413,10.413,0,0,0,1.648,2.091c.079,0,.348-.316.679-.7a17.736,17.736,0,0,0,2.417-3.793h0Zm-15.481.983a3.027,3.027,0,0,1,.687.562l.616.555-.228.255-.232.255.215.215.214.216-.5.482a15.1,15.1,0,0,1-1.446,1.16l-.948.672.474.642c.68.921,1.019,1.623.844,1.736a.381.381,0,0,1-.269.088c-.1,0-.119.1-.079.356l.079.355-.553.119a10.689,10.689,0,0,1-1.375.182l-.825.079v4.036l-.569.133c-.71.168-.686.168-.75,0h0c0-.079-.277-.252-.554-.4a3.9,3.9,0,0,0-1.585-.388,15.739,15.739,0,0,1-6.52-1.828l-.593-.356v-1.645l.537.4a12.035,12.035,0,0,0,5.887,2.023c1.377.182,1.27.145,2,.761.3.255.537.427.537.379a6.791,6.791,0,0,0-1.356-2.068c-.917-.97-1.8-1.453-3.937-2.16-.955-.317-2.174-.784-2.707-1.034l-.967-.459v-.625c0-.785.079-.793,1.352-.168.529.255,1.782.737,2.779,1.073s2.018.721,2.268.846a8.834,8.834,0,0,1,2.3,1.769l.576.641v-.355a6.762,6.762,0,0,0-2.719-5.024l-.309-.216.968-.079.966-.079.268.3c.144.159.364.427.49.586l.229.293.545-.184a11.834,11.834,0,0,0,2.3-1.119,2.109,2.109,0,0,1,1.031-.269l.719-.079v-1.317a6.14,6.14,0,0,1,.1-1.313Zm-14.261,4.128c.246,0,.269,0,.269.578v.578l-.975.459c-.537.255-1.755.72-2.707,1.033-2.41.807-3.221,1.274-4.234,2.449a6.066,6.066,0,0,0-1.052,1.718c0,.08.277-.119.617-.4a1.878,1.878,0,0,1,1.108-.57c3.316-.412,5.372-1.076,6.729-2.159l.466-.365v.794c.079.93.079.906-1.266,1.559a15.717,15.717,0,0,1-5.473,1.42c-1.543.182-1.876.277-2.378.7-.371.317-.339.308-1,.1l-.5-.15v-3.992l-.824-.079c-1.229-.1-1.907-.26-1.907-.475a1.047,1.047,0,0,1,.124-.348,4.035,4.035,0,0,1,2.18-.491c.617,0,.783,0,.783-.15a.339.339,0,0,1,.183-.252,4.319,4.319,0,0,1,1.336-.285,7.52,7.52,0,0,1-.22.784,6.929,6.929,0,0,0-.332,1.477l-.079.737.656-.7a8.7,8.7,0,0,1,4.345-2.5c.81-.269,1.992-.7,2.626-.98a6.954,6.954,0,0,1,1.418-.5Zm11.389.86-.592.207-.594.2.215.547.215.546h.79a2.66,2.66,0,0,0,.955-.08h0c.143-.079.126-.119-.111-.443a8.825,8.825,0,0,0-.576-.7Zm16.707.745.648.689a10.406,10.406,0,0,0,1.212,1.1,5.766,5.766,0,0,1,2.472,4.173c0,.373,0,.38.49.443a5.769,5.769,0,0,1,4.112,2.464,11.533,11.533,0,0,0,1.153,1.272l.68.641-.648.586a11.185,11.185,0,0,0-1.207,1.343,7.615,7.615,0,0,1-1.075,1.165,5.8,5.8,0,0,1-3.12,1.251h-.388v.444a5.625,5.625,0,0,1-2.368,4.105,10.526,10.526,0,0,0-1.324,1.186,8.715,8.715,0,0,1-.648.665s-.34-.332-.711-.736h0a8.583,8.583,0,0,0-1.25-1.124,6.28,6.28,0,0,1-.964-.84,5.847,5.847,0,0,1-1.394-3.236v-.435l-.593-.079a5.783,5.783,0,0,1-3.95-2.343,11.77,11.77,0,0,0-1.228-1.375l-.648-.6.719-.689a10.938,10.938,0,0,0,1.136-1.265,5.693,5.693,0,0,1,4.07-2.417c.489-.079.489-.079.489-.451a5.757,5.757,0,0,1,2.474-4.174,10.914,10.914,0,0,0,1.211-1.1Zm8.551,1.5c.1,0,.1.088.1.286,0,.293,0,.317.316.317s.316,0,.254.388a6.627,6.627,0,0,1-.94,2.041,4.8,4.8,0,0,1-.759.721c-.686.506-2.021,1-2.2.819a.4.4,0,0,1-.079-.308c0-.173-.079-.256-.317-.3-.3-.079-.316-.088-.254-.443a4.509,4.509,0,0,1,3.537-3.485,1.542,1.542,0,0,0,.332-.08Zm-16.879.08h.128a4.872,4.872,0,0,1,2.222,1.121,5.236,5.236,0,0,1,1.3,2.34c.079.365.079.4-.251.452-.254.079-.317.127-.348.332-.08.317-.189.356-.751.184a4.3,4.3,0,0,1-2.781-2.356,6.1,6.1,0,0,1-.418-1.14c-.079-.38-.079-.388.246-.388.268,0,.316-.079.347-.285,0-.23.08-.27.317-.27Zm9,.961v3.2h-1.224v-3.2l-.569.4a4.453,4.453,0,0,0-1.761,2.83,2.339,2.339,0,0,0,.079,1.374,3.255,3.255,0,0,0,2.028,2.471c.316.133.585.238.616.251,0,0,.2-.34.4-.76h0a4.539,4.539,0,0,1,2.836-2.47c.166-.079.183-.141.119-.657a4.6,4.6,0,0,0-1.859-3.07Zm-47.188.247c.141,0,.079.119,0,.4a4.363,4.363,0,0,1-2.263,2.524,6.156,6.156,0,0,1-1.108.411c-.38.079-.388.079-.388-.252,0-.269-.08-.324-.309-.38-.355-.079-.379-.221-.143-.9l.166-.483.947-.317c1.018-.34,1.242-.38.993-.185-.229.185-.758.9-.664.9a2.525,2.525,0,0,0,1.085-.87,1.368,1.368,0,0,1,.9-.617,5.065,5.065,0,0,1,.814-.23Zm38.991.371c-.229,0,.435.882.862,1.141.364.221.442.2.292-.079a4.252,4.252,0,0,0-1.153-1.062Zm15.064,0a3.874,3.874,0,0,0-1.206,1.154l-.143.285.347-.2a2.7,2.7,0,0,0,.554-.435c.347-.38.585-.8.45-.8Zm-59.212,1.426c.079,0,.133,0,.149.079a5.189,5.189,0,0,1,.292,1.42c0,.277,0,.3.49.356a5.943,5.943,0,0,1,4.189,2.574,8.938,8.938,0,0,0,1.115,1.228l.656.578-.45.4a9.985,9.985,0,0,0-1.623,1.788,5.694,5.694,0,0,1-3.76,2.138l-.577.08-.079.578a5.693,5.693,0,0,1-2.139,3.769c-.364.278-1.008.823-1.426,1.214a5.7,5.7,0,0,1-.826.7c-.079,0-.3-.269-.577-.585a10.035,10.035,0,0,0-1.25-1.125,8.415,8.415,0,0,1-1.1-.973,6.07,6.07,0,0,1-1.334-3.249c0-.293-.079-.317-.609-.38a5.784,5.784,0,0,1-4.043-2.495,8.848,8.848,0,0,0-1.054-1.192c-.332-.309-.545-.578-.49-.626a14.6,14.6,0,0,1,1.417-.713c1.159-.546,1.305-.594,1.159-.371a1.185,1.185,0,0,0-.166.308,15.359,15.359,0,0,0,1.547.079H364.7v1.347h-3.205l.316.451a4.143,4.143,0,0,0,5.233,1.537,3.072,3.072,0,0,0,1.568-1.827l.332-.8-.268-.689a7.843,7.843,0,0,0-.482-1.024,3.249,3.249,0,0,0-1.668-1.138,3.077,3.077,0,0,1-.64-.256,5.682,5.682,0,0,1,1.659-.7,3.584,3.584,0,0,1,1.468,1.084,5.172,5.172,0,0,1,.7,1.131l.277.657.387-.142a3.629,3.629,0,0,0,1.544-.939,3.84,3.84,0,0,0,.823-3.05,5.778,5.778,0,0,1-.128-.7c0-.168.7-.443,1.033-.443Zm63.593,1.495a.28.28,0,0,1,.079.159c0,.255-.079.286-.155.119-.079-.079,0-.167.079-.23l.079-.079Zm0,.93a.276.276,0,0,1,.079.159c0,.255-.079.285-.155.119-.079-.08,0-.159.079-.233l.079-.079Zm-63.3.673-.229.609a4.449,4.449,0,0,1-2.53,2.527,1.656,1.656,0,0,0-.442.207,5.087,5.087,0,0,0,.174.681,3.329,3.329,0,0,0,1.789,1.848,2.926,2.926,0,0,0,1.6.232,2.708,2.708,0,0,0,1.619-.364,4.408,4.408,0,0,0,1.726-1.472l.363-.514h-3.307v-1.3l1.585-.079,1.586-.08-.387-.5a3.853,3.853,0,0,0-1.666-1.365,3.5,3.5,0,0,0-1.34-.419Zm46.844,0a4.191,4.191,0,0,0-.929.167,4.272,4.272,0,0,0-2.328,1.658l-.356.5,1.579.079,1.576.08v1.3H417l.277.388a4.634,4.634,0,0,0,2.236,1.8,4.485,4.485,0,0,0,2.977-.151,3.95,3.95,0,0,0,.99-.736c.41-.467.913-1.578.766-1.7a2.483,2.483,0,0,0-.53-.255,4.481,4.481,0,0,1-1.7-1.228,5.315,5.315,0,0,1-.887-1.7c0-.1-.167-.133-.419-.127Zm8.943,0a4.34,4.34,0,0,0-1.078.173,3.2,3.2,0,0,0-2.289,2.3l-.22.578.268.7a3.156,3.156,0,0,0,2.025,2.115,4.464,4.464,0,0,0,2.978-.145,4.661,4.661,0,0,0,1.79-1.52l.372-.506h-3.308v-1.3h1.571a13.047,13.047,0,0,0,1.571-.085,5.016,5.016,0,0,0-1.4-1.544,4.194,4.194,0,0,0-2.345-.76Zm-21.646,2.059-.079,2.4c-.079,1.318-.088,5.324-.119,8.9-.079,7.046-.166,10.114-.418,13.324l-.167,2.066-.458,1.043a46.232,46.232,0,0,1-5.457,8.822,50.275,50.275,0,0,1-5.865,5.927,34.156,34.156,0,0,1-15,6.89,33.237,33.237,0,0,1-7.009.15,19.109,19.109,0,0,1-9.087-3.642,15.329,15.329,0,0,1-6.138-8.794,31.676,31.676,0,0,1-.141-6c.832-7.662,6.428-14.666,16.587-20.761a82.594,82.594,0,0,1,16.307-7.258,44.414,44.414,0,0,1,6.614-1.788,74.282,74.282,0,0,1,9.66-1.232Zm13.019.285h1.186v1.3h-1.247v-.673Zm-47.108,0v1.354h-1.247v-1.3h.592Zm55.56,0v1.354h-.577c-.387,0-.585-.079-.624-.144h0a1.7,1.7,0,0,1,0-.649l.079-.507h.593Zm-64.014,0h1.138v1.346h-1.138v-1.346Zm4.2,2.267-.189.4a4.515,4.515,0,0,1-2.456,2.092l-.45.142.079.626a4.389,4.389,0,0,0,1.329,2.582,17.687,17.687,0,0,0,1.735,1.395,2.035,2.035,0,0,0,.26-.215,5.337,5.337,0,0,1,.767-.61,4.418,4.418,0,0,0,2.008-3.279c.079-.419.079-.538-.079-.538a5.3,5.3,0,0,1-1.9-1.052,4.982,4.982,0,0,1-.79-.991Zm55.584.119c-.079,0-.119.1-.149.207a4.88,4.88,0,0,1-2.507,2.162c-.5.168-.53.3-.268,1.3a4.368,4.368,0,0,0,1.284,2.124c.506.443,1.582,1.313,1.625,1.325,0,0,.292-.207.616-.459,1.584-1.249,2.04-1.831,2.339-2.989.268-1.031.237-1.15-.333-1.34a4.656,4.656,0,0,1-2.447-2.125c-.079-.111-.1-.207-.149-.207Zm-13.633,7.442a11.874,11.874,0,0,1,1.628,2.009c.269.4.522.752.554.794,0,.079.5,0,1.039-.08a20.523,20.523,0,0,1,2.4-.144h1.418v.278a26.333,26.333,0,0,1-.4,3.538c-.145.649-.158.9-.079.947a17.81,17.81,0,0,1,2.486,1.959l.9.856-.553.5a27.536,27.536,0,0,1-2.639,2.129,3.112,3.112,0,0,0-.648.507c0,.079.079.269.1.5a20.66,20.66,0,0,1,.229,3.59l-.08.609-1.248-.079a16.165,16.165,0,0,1-2.374-.277c-1.01-.2-1.136-.2-1.216-.079a17.552,17.552,0,0,1-2.975,3.262c-.079,0-.215-.167-.364-.365h0l-.277-.363.269-.555c.149-.308.339-.562.426-.562a9.751,9.751,0,0,0,1.96-2.324,13.882,13.882,0,0,0,1.192-2.163,6.689,6.689,0,0,0-.649.4,10.283,10.283,0,0,1-1.2.728l-.561.277.079-.649a4.889,4.889,0,0,0,.079-.977c0-.317,0-.334.426-.388a4.612,4.612,0,0,0,2.128-1.442c.593-.6.656-.7.75-1.27a9.279,9.279,0,0,0,.1-1.6v-.985l-.656-.822c-.823-1.028-1.364-1.469-1.911-1.556l-.418-.079v-2.643l.388-.119a3.318,3.318,0,0,0,.465-.2c.08-.079-.126-.356-.387-.712l-.466-.642v-.929a5.452,5.452,0,0,1,.08-.923Zm-63.38,1.342c.08,0,.1.079.206.142.2.184.229.184.49,0s.277-.173.426,0a5.33,5.33,0,0,1,.766,1.958,4.253,4.253,0,0,1-.395,2.519c-.356.792-.49.9-.8.7-.2-.133-.268-.133-.434,0-.277.207-.324.184-.616-.252h0a4.829,4.829,0,0,1-.673-2.283,4.776,4.776,0,0,1,.858-2.647c.079-.1.119-.15.166-.15Zm.49,1.78s-.079.079-.079.136a4.537,4.537,0,0,0,0,1.7l.079.26.079-.26a2.391,2.391,0,0,0,.079-.826,2.35,2.35,0,0,0-.079-.822.36.36,0,0,0-.079-.19Zm68.591.673-.955.079c-1.662.119-4.862.86-4.41,1.015.088,0,.45.119.824.181a17.253,17.253,0,0,1,3.391,1.172c.8.4.751.42.93-.826.079-.443.143-1,.166-1.215Zm-65.088,2.416a3.71,3.71,0,0,1,.863.079,19.766,19.766,0,0,0,2.191.08h1V1482c0,.578.08,1.408.12,1.849a5.672,5.672,0,0,1-1.108,4.217l-.363.5.363.482a5.753,5.753,0,0,1,1.153,3.657c0,.317-.088,1.225-.119,2.027l-.079,1.459h-1.045a19.068,19.068,0,0,0-2.126.08,3.671,3.671,0,0,1-1.676-.08,6.693,6.693,0,0,1-2.34-1.123l-.356-.3-.53.4a5.9,5.9,0,0,1-2.059.986,7.915,7.915,0,0,1-2.732,0h0a6.748,6.748,0,0,0-1.391-.08l-.929.08v-1.214c0-.665,0-1.749-.08-2.4a4.713,4.713,0,0,1,.166-1.756,5.552,5.552,0,0,1,.934-1.792l.364-.482-.458-.618a5.446,5.446,0,0,1-1.03-3.8,16.281,16.281,0,0,0,.1-2v-1.2h1.031a21.333,21.333,0,0,0,2.216-.08,4.264,4.264,0,0,1,1.828.08,5.607,5.607,0,0,1,2.085,1.021l.458.356.458-.356a5.884,5.884,0,0,1,2.1-1.024,3.372,3.372,0,0,1,.965-.119Zm62.779.877.474.657a15.723,15.723,0,0,1,1.9,4c.079.167.937-.435,1.742-1.166l.513-.466-.466-.42a18,18,0,0,0-3.149-2.079Zm-2.42.079c.079,0,.1.136.135.3.079.229.143.317.363.363.166.08.308.1.308.168a4.994,4.994,0,0,1-.95,1.6l-.418.459.41.435a4.058,4.058,0,0,1,.9,1.393c.08.19,0,.256-.237.34a.576.576,0,0,0-.371.356c-.08.308-.189.318-.751.08-.7-.348-.686-.269-.585-2.706l.088-2.193.514-.278a3.735,3.735,0,0,1,.585-.277Zm-60.028.317a5.679,5.679,0,0,0-.944.142,4.177,4.177,0,0,0-1.755.879l-.356.308.269.65a3.541,3.541,0,0,1,.276,1.73,3.987,3.987,0,0,1-.268,1.712l-.268.626.316.136c.172.079.49.19.68.278a3.481,3.481,0,0,0,2.494-.247,3.614,3.614,0,0,0,1.77-1.871,3.124,3.124,0,0,0,.317-1.836,11.79,11.79,0,0,0-.08-1.236c-.079-.079-.592.428-1.21,1.048l-1.128,1.127-.411-.4a1.608,1.608,0,0,1-.41-.514,8.083,8.083,0,0,1,1.095-1.207l1.1-1.1-.53-.111a3.431,3.431,0,0,0-.951-.1Zm-7.8,0a2.474,2.474,0,0,0-.774.08l-.609.127,1.119,1.125,1.12,1.124-.458.467-.459.467-1.153-1.152-1.152-1.152-.079.7c-.251,2.3.679,3.947,2.617,4.667a3.848,3.848,0,0,0,2.515-.229l.7-.3.34-.776a3.409,3.409,0,0,0-.6-3.814,4.426,4.426,0,0,0-3.117-1.326Zm1.428,3.031.41.4.411.4-.435.443a2.512,2.512,0,0,1-.489.443c-.079,0-.229-.173-.442-.4l-.38-.4.466-.451Zm5.052,0,.465.451.466.451-.379.4a2.435,2.435,0,0,1-.442.4,5.213,5.213,0,0,1-.49-.443l-.434-.443.41-.4Zm64.579.9c-.079,0-.149.325-.309,1.056a14.771,14.771,0,0,1-1.2,3.246,4.158,4.158,0,0,0-.277.586,15.537,15.537,0,0,0,2.32.34c.4,0,.442,0,.442-.255a19.455,19.455,0,0,0-.742-4.428c-.111-.356-.172-.546-.237-.546Zm-76.952,1.108a4.015,4.015,0,0,1,2.3.609c.49.317.49.317.325.578-.155.238-.155.278,0,.507.166.252.166.26-.229.522a4.553,4.553,0,0,1-3.765.459h0a4.783,4.783,0,0,1-1.006-.467c-.4-.246-.4-.261-.237-.514.149-.23.149-.27,0-.515-.166-.252-.166-.26.22-.514a4.462,4.462,0,0,1,2.4-.673Zm97.534,0h.808v1.3h-.766c-.742,0-1,.079-.841.23a1.984,1.984,0,0,0,.841.079h.766v1.3h-.8a4.35,4.35,0,0,1-1.4-.215h0a5.832,5.832,0,0,1-1-.459l-.4-.255.172-.3c.166-.286.166-.318,0-.515s-.181-.215.254-.483a4.3,4.3,0,0,1,2.381-.665Zm-77.672,0c.364,0,.625,0,.673.079.079.08,0,.27-.155.618l-.26.506-.633.08c-.945.088-1,.229-.135.356l.522.079-.254.594c-.285.657-.4.7-1.209.443a4.337,4.337,0,0,1-1.316-.658c-.166-.144-.166-.181,0-.4.143-.221.143-.269,0-.506-.2-.318-.2-.318.79-.8a3.284,3.284,0,0,1,1.632-.364h.395Zm-19.783,1.256c-.489,0-1.034.1-.937.184a2.221,2.221,0,0,0,1.465.145c.442-.1.4-.215-.1-.3h-.434Zm-6.056.956c.079,0,.1.27.144.538a6.849,6.849,0,0,0,1.133,2.549,21.453,21.453,0,0,0,1.994,2.093,19.888,19.888,0,0,1,3.048,3.185,6.762,6.762,0,0,1,1.179,4.487,6.292,6.292,0,0,1-4.316,6.01,12.45,12.45,0,0,1-3.2.609c-.363,0-.387,0-.576-.538-.166-.451-.38-1.14-.711-2.3-.079-.191-.079-.2.133-.079.434.364.45.357.45-.467v-.784h-.308c-.254,0-.317-.079-.317-.229a.789.789,0,0,0-.22-.459,2.457,2.457,0,0,1-.395-1.46v-.34l.442.221a3.652,3.652,0,0,1,.616.38c.167.143.181.119.181-.578v-.736h-.285c-.229,0-.316-.08-.418-.356a1.215,1.215,0,0,0-.435-.538c-.284-.168-.308-.216-.308-.88,0-.388,0-.7.079-.7a4.106,4.106,0,0,1,1.052.586l.332.251v-1.663h-.308a.442.442,0,0,1-.309-.1c0-.08-.166-.2-.363-.316-.388-.233-.419-.372-.293-1.152.08-.34.1-.379.277-.324.119.08.4.173.609.316l.388.252v-5.012l-.189.356c-.111.2-.2.316-.2.26a14.209,14.209,0,0,1,1.129-3.1Zm10.693,0-.4.451a4.452,4.452,0,0,0-.872,3.478l.08.7,1.152-1.153,1.154-1.151.457.467.459.467-1.121,1.125-1.121,1.126.451.1a3.512,3.512,0,0,0,1.927-.079h0a3.688,3.688,0,0,0,1.742-.84l.434-.356-.246-.538a4.3,4.3,0,0,1-.144-3.3c.114-.221.08-.221-.577,0a4.115,4.115,0,0,1-2.882-.276Zm10.248,0-.7.278a3.959,3.959,0,0,1-2.88.133c-.4-.144-.8-.284-.9-.332-.144-.079-.231,0-.466.531a3.431,3.431,0,0,0,.7,3.8,4.665,4.665,0,0,0,2.161,1.191,5.458,5.458,0,0,0,2.052-.08c.189-.079.1-.19-.867-1.161a9.569,9.569,0,0,1-1.083-1.189c0-.08.189-.293.41-.515l.411-.4,1.129,1.127a5.723,5.723,0,0,0,1.21,1.047,4.036,4.036,0,0,0,.079-1.24,2.956,2.956,0,0,0-.379-1.931,4.408,4.408,0,0,0-.64-1.011Zm72.655.626.442.372a8.854,8.854,0,0,1,2.4,3.649l.183.546.269-.184a17.49,17.49,0,0,1,3.214-1.791c.088,0,.1.609.08,2.15l-.08,2.15.774-.23a11.471,11.471,0,0,1,2.5-.482c.079,0,.079.15.079.293,0,.2.079.255.293.255.166,0,.316,0,.339.08a6.7,6.7,0,0,1-.079.941,10.662,10.662,0,0,1-8.024,9.334,12.631,12.631,0,0,1-4.362.167,10.655,10.655,0,0,1-8.68-8.932c-.22-1.455-.214-1.55.149-1.55.254,0,.317-.079.364-.316.079-.293.1-.309.442-.255a20.026,20.026,0,0,1,2.527.554l.538.19v-2.095a11.158,11.158,0,0,1,.079-2.162,10.667,10.667,0,0,1,2.593,1.327c.766.491.915.546.96.4a8.493,8.493,0,0,1,2.246-3.723Zm-80.4.278.466.451.466.451-.38.4a2.355,2.355,0,0,1-.442.4,5.875,5.875,0,0,1-.49-.443l-.434-.443.411-.4Zm5.256,0,.411.4.41.4-.434.443a2.838,2.838,0,0,1-.49.444,4.118,4.118,0,0,1-.442-.4l-.379-.4.465-.451Zm74.477,2.263-.324.57a6.485,6.485,0,0,0-.758,2.112c0,.184.231.483.85,1.083a6.837,6.837,0,0,0,.913.8s.458-.4.951-.85l.887-.83-.142-.649a6.758,6.758,0,0,0-.974-2.14c-.079-.079-.1.286-.1.973v1.039h-1.224v-1.059Zm-92.927.349v1.774c0,1.382,0,1.763.127,1.72a8.624,8.624,0,0,0,.9-.388,3.82,3.82,0,0,0,.838-.435c.135-.2-.08-.554-.577-1.111-.3-.316-.711-.792-.916-1.066Zm88.307,1.727.079,1.183c.08.657.1,1.383.136,1.622.08.38.08.443-.143.522-.166.08.119.2,1.329.681l1.545.6.975.962a8.179,8.179,0,0,1,.977,1.062c0,.08-.215.269-.475.475l-.473.364-.68-.729a13.713,13.713,0,0,0-3.337-2.515,15.246,15.246,0,0,0-3.523-1.245l-.5-.079.079.4a9.422,9.422,0,0,0,1.421,3.843,9.527,9.527,0,0,0,5.9,4.087,12.684,12.684,0,0,0,4.481-.143,9.312,9.312,0,0,0,6.7-7.827c0-.348,0-.355-.34-.284a13.2,13.2,0,0,0-8.941,6.766c-.127.254-.254.483-.268.507a3.371,3.371,0,0,1-1.177-.467,14.4,14.4,0,0,1,1.889-3.056,2.79,2.79,0,0,0,.481-.721,10.7,10.7,0,0,0-1.563-2.334,20.559,20.559,0,0,0-4.251-3.485Zm10.6.079a10.171,10.171,0,0,0-1.994,1.28,15.223,15.223,0,0,0-2.389,2.211,4.145,4.145,0,0,0,.474.806l.474.713.577-.475c.316-.26.857-.658,1.192-.872a1.833,1.833,0,0,1,1.186-.4c.316,0,.49,0,.388-.079-.141-.08-.172-.119-.135-.278a21.178,21.178,0,0,0,.237-2.92h0Zm-83.6.91.254.19c.229.172.269.184.435,0,.26-.23.45-.1.75.482a4.611,4.611,0,0,1,.529,2.463,5.706,5.706,0,0,1-.766,2.176c-.189.238-.189.238-.466.079-.254-.167-.284-.167-.458,0a.726.726,0,0,1-.245.173c-.08,0-.189-.215-.34-.467a5.053,5.053,0,0,1-.664-2.319,4.909,4.909,0,0,1,.7-2.344Zm-12.239.514-.3.34a3.436,3.436,0,0,1-1.2.713c-.5.207-1.057.474-1.241.578-.324.2-.332.229-.332.878,0,.365,0,.673.079.673,0,0,.229-.088.442-.19s1.041-.411,1.845-.681c1.409-.467,1.991-.768,1.991-1.02a2.754,2.754,0,0,0-.624-.7Zm12.757,1.279s-.079,0-.079.1a4.527,4.527,0,0,0,0,1.7l.079.26.08-.26a2.188,2.188,0,0,0,.088-.737,2.642,2.642,0,0,0-.08-.822.461.461,0,0,0-.079-.255Zm123.187,1a45.761,45.761,0,0,0-5.685.4c-2.795.349-3.467.53-3.839,1.033-.172.23-.184.324-.08.7.144.53.128.515,2.633,1.411a66.807,66.807,0,0,1,11.584,5.171,6.082,6.082,0,0,1,1.869,1.605c0,.215-2.464,0-5.1-.38a73.923,73.923,0,0,1-7.657-1.74,27.932,27.932,0,0,0-4.134-.99c-.687,0-1.147.364-1.147.918,0,.665,3.13,3.9,5.413,5.589a30.368,30.368,0,0,0,10.548,5.072,10.478,10.478,0,0,0,2.9.15,34.04,34.04,0,0,0,9.173-1.62c3.634-1.049,4.846-1.706,4.846-2.621,0-1.03-2.424-4.391-5.6-7.763a22.379,22.379,0,0,0-10.045-6.19,21.093,21.093,0,0,0-5.676-.753Zm-133.76.15c-.088,0-.22.088-.489.269a10.8,10.8,0,0,1-2,.838c-1.727.578-2.424.919-2.626,1.316a2.505,2.505,0,0,0-.141.9v.617l.537-.254a20.1,20.1,0,0,1,2.06-.665c2.262-.617,3.068-1.053,3.238-1.73a1.819,1.819,0,0,0-.419-1.193c-.079-.079-.1-.119-.166-.1Zm69.1.23.53.6c2.58,2.947,4.007,3.855,6.326,4.024l.85.079v1.314h-.569a6.981,6.981,0,0,0-4.2,1.6c-.372.309-1.334,1.279-2.138,2.159a27.634,27.634,0,0,1-2.174,2.167,7.474,7.474,0,0,1-2.923,1.455,11.7,11.7,0,0,1-3.131.079h0a11.44,11.44,0,0,1-1.391-.428l-.837-.333v-.8c0-.8,0-.916.285-.673.119.1.127.095.079-.079-.2-.515-.166-.618.356-1.009.276-.215.529-.356.553-.309a4.4,4.4,0,0,0,.172.491,4.613,4.613,0,0,0,.952,1.742,3.106,3.106,0,0,0,.926.215l.7.079-.4-.753a10.991,10.991,0,0,1-.727-1.878l-.325-1.126.522-.523a2.239,2.239,0,0,1,.561-.474s.189.609.372,1.286c.742,2.767,1.372,3.432,2.574,2.732l.553-.317-.251-.269a6.413,6.413,0,0,1-1.121-2.482,15.634,15.634,0,0,0-.719-1.851l-.2-.34.395-.435c1.156-1.287,1.051-1.211,1.69-1.211.735,0,.782-.079,1.386-1.45a4.74,4.74,0,0,1,.775-1.361c.3-.269.308-.278.119-.506s-.181-.238.174-.784Zm64.788,1.29c5.868.079,10.758,2.407,15.1,7.209,1.963,2.174,4.247,5.15,4.247,5.532s-5.57,1.986-8.883,2.552a22.146,22.146,0,0,1-5.378.252c-2.769-.443-7.252-2.555-10.374-4.893a25.346,25.346,0,0,1-3.266-2.92s.711.144,1.524.365a56.229,56.229,0,0,0,12.048,2.28c.879.079,1.94.136,2.358.167l.758.079-.079-1.172a4.309,4.309,0,0,0-.277-1.627,6.031,6.031,0,0,0-1.936-1.9,61.648,61.648,0,0,0-10.569-4.975,5.207,5.207,0,0,1-1.108-.467,25.082,25.082,0,0,1,3.954-.419,14.555,14.555,0,0,1,1.854-.08Zm-132.833,1.373-.316.229a9.236,9.236,0,0,1-2.806,1.1c-1.833.506-2.413.728-2.837,1.1-.348.3-.356.324-.356,1.112v.8l.751-.388a22.325,22.325,0,0,1,2.5-.973c1.909-.642,2.715-1.021,2.836-1.345a3.077,3.077,0,0,0,.149-.922Zm68.447.079c-.088,0-.149,0-.206.1a5.438,5.438,0,0,0-.466.983l-.355.849h3.5l-.553-.42c-.309-.229-.782-.649-1.066-.918a1.926,1.926,0,0,0-.854-.578Zm-3.577,2.645c-.426,0-.774,0-.774.079,0,0,.149.268.34.554a11.02,11.02,0,0,1,.838,2c.88,2.646.974,2.726,1.943,1.648l.466-.523-.332-.333a5.39,5.39,0,0,1-.767-1.382,5.534,5.534,0,0,0-.687-1.284.813.813,0,0,1-.254-.483c0-.229,0-.238-.774-.238Zm4.65,0c-1.348,0-2.434.079-2.412.079.2.4.719,1.519.891,1.911.3.7.569.673,1.41-.119a9.617,9.617,0,0,1,1.95-1.5l.616-.363Zm-56.871.207c.149,0,.348.079.656.12l.388.1v4.1h.782a5.357,5.357,0,0,1,1.66.23c.3.095.316.119.228.364-.1.269,0,.436.293.443a.138.138,0,0,1,.127.1,5.919,5.919,0,0,1-.916,1.647,3.323,3.323,0,0,0-.4.633,4,4,0,0,0,.835.65c.442.317,1.081.821,1.416,1.116l.608.53-.22.229c-.22.229-.22.239,0,.451.189.222.189.222-.489.86a14.111,14.111,0,0,1-1.447,1.154l-.759.507.49.665a10.935,10.935,0,0,1,.727,1.113c.231.435.231.443.079.594a1.515,1.515,0,0,1-.3.181c-.079,0-.079.126,0,.269.1.191.1.262,0,.325a6.928,6.928,0,0,1-2.034.3h-.64v4.107l-.458.12c-.553.143-.882.143-.882,0,0-.079-.2-.222-.458-.364a4.031,4.031,0,0,0-1.779-.42c-.727-.085-1.554-.2-1.84-.252a17.079,17.079,0,0,1-4.17-2.329,14.9,14.9,0,0,1-3.635-2.885,8.036,8.036,0,0,1-.4-1.261,18,18,0,0,1,0-5.822,7.39,7.39,0,0,1,1.2-2.725c1.543-2.167,4.213-3.47,8.047-3.928,1.974-.229,2.328-.324,2.784-.7a.911.911,0,0,1,.553-.284Zm-13.922.89a8.5,8.5,0,0,0-1.507.451c-2.158.737-3.072,1.192-3.316,1.647-.1.174-.079.174.774.079a10.834,10.834,0,0,0,1.412-.308,6.244,6.244,0,0,0,2.166-1.182c.529-.467.735-.681.474-.657Zm13.451.095-.442.356c-.913.745-1.013.793-1.841.867a19.355,19.355,0,0,0-3.609.721,8.225,8.225,0,0,0-4.134,2.934,7.658,7.658,0,0,0-.836,2.036c0,.1.268,0,.8-.4a14.423,14.423,0,0,1,1.443-.881,22.593,22.593,0,0,1,3.376-1.321,19.535,19.535,0,0,0,2.319-.934,7.2,7.2,0,0,0,2.518-2.608Zm.172,2.372-.466.538a8.754,8.754,0,0,1-2.337,1.8c-.316.167-1.365.553-2.319.879a18.194,18.194,0,0,0-4,1.738,7.483,7.483,0,0,0-1.706,1.521,39.167,39.167,0,0,0,5.218,0,6.493,6.493,0,0,0,3.868-1.97,6.6,6.6,0,0,0,1.737-4.011Zm72.726.9a17.025,17.025,0,0,1,2.226,2.51c.324.451.656.908.734,1.009.128.174.189.174,1.216,0a15.168,15.168,0,0,1,3.647-.079,21.175,21.175,0,0,1-.505,4.487,2.765,2.765,0,0,0,.855.768,12.538,12.538,0,0,1,2.5,2.236,18.975,18.975,0,0,1-3.475,2.958c-.229.151-.229.158-.079,1.188a13.948,13.948,0,0,1,.149,1.679v.649h-.617c-.458,0-.616-.078-.616-.143a30.01,30.01,0,0,0-.364-3,7.65,7.65,0,0,0-.664-2.17c-.079,0-.1.284-.143.578a16.738,16.738,0,0,1-1.579,4.338c0,.079.18.119.458.174.418.095.316.1-.726.079a8.238,8.238,0,0,1-1.265-.089,9.915,9.915,0,0,1,.418-.906c.254-.483.466-.9.466-.933,0-.079-.364.184-.819.483a15.336,15.336,0,0,1-1.508.88,2.17,2.17,0,0,1-1.579.262c-.489-.079-1.144-.126-1.454-.2l-.569-.126.949-.294a2.913,2.913,0,0,0,.9-.364c0-.078-.293-.1-.593-.143a15.05,15.05,0,0,1-3.367-1.124,2.894,2.894,0,0,0-.895-.317c-.158.079-1.026-1.153-1.689-2.373l-.459-.847.665.53a15.528,15.528,0,0,0,3.133,1.9,5.94,5.94,0,0,0-.4-.649,16.514,16.514,0,0,1-1.66-3.3,2.859,2.859,0,0,0-.348-.8,5.927,5.927,0,0,0-.966.673l-.9.673-.277-.562c-.332-.681-.356-.641.9-1.5a4.08,4.08,0,0,0,.919-.753c0-.078-.079-.49-.149-.95a19.234,19.234,0,0,1-.22-2.089c-.08-1.076-.08-1.272.087-1.323a23.241,23.241,0,0,1,3.864.317l.8.167.2-.276a28,28,0,0,1,2.013-2.548,2.649,2.649,0,0,1,.774-.673Zm-26.972,1.232c.1,0,.119.229.119.745v.76l-.474.238a6.93,6.93,0,0,1-2.719.689c-.538.079-.954.079-.923,0h0a5.216,5.216,0,0,1,.994-.625c.505-.317,1.335-.847,1.824-1.189s.886-.57.886-.5c0,.095,0,.095.127,0,.08-.079.128-.119.172-.119Zm-44.019.1h-.228c-.5,0-.506.078-.7.546a4.156,4.156,0,0,0-.172.53,4.89,4.89,0,0,0,1.158.412c.08,0,.324-.3.593-.634a4.413,4.413,0,0,0,.49-.681c0-.1-.617-.191-1.153-.181Zm70.946.506a13.428,13.428,0,0,0-1.746,2.3,20.031,20.031,0,0,0-1.15,2.182s.379-.214.851-.53a13.257,13.257,0,0,1,1.571-.9c.4-.181,1.046-.443,1.443-.578s.735-.254.758-.27a9.836,9.836,0,0,0-1.728-2.2Zm-60.929,1.549c.339,0,.576.1,1.264.586,1.17.81,1.163.793.3.713l-.751-.079.079.341c0,.181.08.6.114.91.079.316.1.792.166,1.057l.1.491.53-.27a15.871,15.871,0,0,1,2.668-1.019c.363-.078.481,0,2.407.729.149.079,0,.1-.466.174-.64.088-.7.12-1.319.729a15.658,15.658,0,0,0-1.071,1.186l-.418.546.079,1.44a4.764,4.764,0,0,0,.231,1.7,11.018,11.018,0,0,0,1.882,1.774c.458.324.529.348,1.37.348.49,0,1.186-.079,1.554-.1.648-.1.687-.119,1.4-.869a12.035,12.035,0,0,0,1.067-1.265l.332-.5-.079-1.136c-.1-1.7-.149-1.859-.919-2.608a3.56,3.56,0,0,1-.593-.649,11.789,11.789,0,0,1,2.4.443,2.833,2.833,0,0,1,.2.886c.134.838.166.826.506-.221l.228-.7h2.34l.806.617c.442.34,1.083.869,1.423,1.176l.616.562-.505.554a18.092,18.092,0,0,1-2.4,2.137c-.633.467-.664.491-.593.844a29.358,29.358,0,0,1,.387,3.46v1.033h-1.186a17.022,17.022,0,0,1-2.249-.191,6.583,6.583,0,0,0-1.089-.143s-.18.292-.379.61a15.092,15.092,0,0,1-.943,1.309l-.585.745h-.953c-.774,0-.993,0-1.173-.143a13.684,13.684,0,0,1-1.085-1.266q-.865-1.091-1.021-1.042a24.75,24.75,0,0,1-4.525.522,22.151,22.151,0,0,1,.141-3.82c.149-.928.149-.93-.079-1.085a35.765,35.765,0,0,1-2.9-2.29l-.711-.657.853-.8a20.117,20.117,0,0,1,1.745-1.445l.892-.642-.18-.872a21.162,21.162,0,0,1-.356-3.679c.079-.095.2-.143.482-.143Zm-11.76.254-.949.938a9.556,9.556,0,0,1-1.591,1.3,2.5,2.5,0,0,0-.648.428c0,.078.144.126.324.2a8.767,8.767,0,0,1,2.3,1.84c.466.6.569.61,1.614.222a14.186,14.186,0,0,0,2.974-1.844l.505-.443-.49-.427a11.719,11.719,0,0,0-3.509-2.042Zm66.356.721h-.079a17.078,17.078,0,0,0,.907,4.761l.232.617.18-.9c.1-.491.308-1.282.466-1.752s.434-1.191.617-1.6a1.958,1.958,0,0,0,.254-.8,19.453,19.453,0,0,0-2.621-.333Zm12.88.269-.782.079a20.814,20.814,0,0,0-3.6.625c-1.062.31-1.326.443-.886.443a15.209,15.209,0,0,1,4.363,1.39l.482.246.128-.531a13.933,13.933,0,0,0,.214-1.388Zm7.428.554h0c.079,0,.135.318.2.634s.26.972.427,1.451a3.719,3.719,0,0,1,.228.867,5.165,5.165,0,0,1-.866-.7l-.8-.689.221-.229.22-.229-.229-.245-.232-.246.372-.324a1.257,1.257,0,0,1,.426-.278Zm-14.651,1.714a1.51,1.51,0,0,0-1.359.459,5.119,5.119,0,0,0-1.8,1.982,9.276,9.276,0,0,0-.149,1.59l-.079,1.187.513.673a13.158,13.158,0,0,0,1.064,1.211c.633.617.983.72,2.672.736h.99l.656-.506h0a13.366,13.366,0,0,0,1.206-1.067,1.634,1.634,0,0,0,.64-1.224,9.321,9.321,0,0,0,.1-1.556v-.893l-.45-.609a13.4,13.4,0,0,0-1.056-1.192,1.734,1.734,0,0,0-1.412-.7,10.793,10.793,0,0,0-1.562-.109Zm-82.15,0c-.664,0-.656.079-.585.184a6.82,6.82,0,0,0,1.88,1.579,19.432,19.432,0,0,0,3.8,1.591,9.27,9.27,0,0,1,4.546,2.625l.45.53v-.4c0-.222-.079-.721-.136-1.105a6.569,6.569,0,0,0-4.624-4.77,16.969,16.969,0,0,0-3.3-.2h-2.069Zm46.425.451c.166,0,.254.079.451.232a3.108,3.108,0,0,0,2.033.657,15.671,15.671,0,0,1,6.477,1.811l.633.364v1.65l-.538-.4a12.179,12.179,0,0,0-5.917-2.032c-1.334-.167-1.235-.127-1.984-.761-.489-.419-.545-.443-.482-.214a7.247,7.247,0,0,0,2.889,3.164,22.555,22.555,0,0,0,2.4.921,7.168,7.168,0,0,1,1.694.681,4.309,4.309,0,0,1-.734.435l-.648.348-1.3-.443a17.666,17.666,0,0,1-1.764-.673,9.075,9.075,0,0,1-2.317-1.775l-.608-.657.079.728a6.646,6.646,0,0,0,1.778,3.853l.649.7-.632.277-.625.277-.284-.277a4.272,4.272,0,0,1-.522-.617c-.268-.4-.387-.4-1.551.088a15.875,15.875,0,0,0-3.047,1.94l-.348.3.268.174c.144.095.268.2.268.253a3.653,3.653,0,0,1-1.307.42.638.638,0,0,1-.395-.208c-.181-.2-.181-.214,0-.443l.22-.231-.229-.229-.229-.229.569-.507c.317-.278.969-.8,1.462-1.151l.894-.641-.34-.42a7.737,7.737,0,0,1-1.026-1.692c-.08-.174,0-.229.189-.286.237-.078.26-.1.2-.4-.079-.34-.079-.34.49-.459a10.709,10.709,0,0,1,1.374-.181l.826-.079v-4.041l.545-.143a1.1,1.1,0,0,1,.418-.088Zm34.176.57.537.277a5.063,5.063,0,0,1,1.026.712l.489.444.348-.348a4.278,4.278,0,0,1,1.6-.964c.1,0,.2.1.238.254a.672.672,0,0,0,.356.356c.166.079.3.136.3.167a5.321,5.321,0,0,1-.95,1.564l-.419.459.317.333a7.157,7.157,0,0,1,1.053,1.647c0,.079-.144.143-.3.191a.517.517,0,0,0-.372.4c-.079.167-.1.3-.119.3a6.528,6.528,0,0,1-1.677-1.041l-.4-.388-.237.262a5.361,5.361,0,0,1-1.47,1.015c-.348.143-.356.143-.45-.157a.549.549,0,0,0-.371-.364c-.15-.079-.269-.143-.269-.229a4.234,4.234,0,0,1,.963-1.58l.363-.38-.356-.379a4.873,4.873,0,0,1-.967-1.575c0-.079.114-.174.254-.231a.924.924,0,0,0,.388-.411Zm-49.012,0,.079.318c.079.252.136.34.356.371.158,0,.292.12.292.191a4.291,4.291,0,0,1-.956,1.577l-.418.443.418.443a4.226,4.226,0,0,1,.956,1.577c0,.079-.143.151-.316.191-.2.079-.308.127-.317.246a2.219,2.219,0,0,1-.085.317c-.119.184-1.169-.371-1.721-.915l-.418-.4-.4.4a5.8,5.8,0,0,1-1.638,1.04,1.291,1.291,0,0,1-.127-.317c-.08-.238-.141-.324-.364-.372-.166,0-.3-.1-.3-.15a4.935,4.935,0,0,1,.947-1.594l.419-.451-.419-.451a5.334,5.334,0,0,1-.947-1.559c0-.079.135-.1.3-.167a.635.635,0,0,0,.388-.4l.1-.3.537.253a4.716,4.716,0,0,1,1.04.721l.5.467.254-.27a5.329,5.329,0,0,1,1.489-1.027Zm55.712.144h0a8.525,8.525,0,0,0,.443.744,14.8,14.8,0,0,1,1.73,3.693c.079.167.143.143.7-.261a13.578,13.578,0,0,0,1.11-.882l.473-.435-.41-.364a20.271,20.271,0,0,0-4.02-2.5Zm-62.511,0a15.978,15.978,0,0,0-3.636,2.2l-.829.657.388.325a7.952,7.952,0,0,0,1.9,1.335,5.193,5.193,0,0,0,.356-.906,13.292,13.292,0,0,1,1.387-2.84c.215-.317.419-.625.458-.7v-.079Zm37.668.238-1.288.852a16.7,16.7,0,0,1-2.33,1.288,8.894,8.894,0,0,0-2.334,1.306l-.387.3v-1.661l.711-.419a14.884,14.884,0,0,1,5.112-1.6Zm-63.369.387.079.356c.079.2.254.753.482,1.229,1.128,2.4,4.011,3.92,8.149,4.3a1.852,1.852,0,0,1,1.444.626c.355.3.664.554.68.554a2.008,2.008,0,0,1-.125-.356,7.058,7.058,0,0,0-2.814-3.024,23.477,23.477,0,0,0-2.421-.946,16.5,16.5,0,0,1-5.221-2.555Zm37.2.167h0s-.2.483-.412,1.02a15.194,15.194,0,0,1-1.7,3.254l-.442.594.917-.483a18.2,18.2,0,0,0,1.8-1.124c.49-.356,1.138-.86,1.443-1.124l.554-.483-.237-.254a12.559,12.559,0,0,0-1.909-1.4Zm-24.425.871a4.527,4.527,0,0,0-.975.308c-.1.079-.088.143.079.491.284.728.292.736,1.208.665.442-.079.838-.086.865-.11.079-.079-.593-.965-.878-1.224-.1-.088-.144-.126-.26-.119Zm86.518.078c.08,0,.158.191.269.443a14.84,14.84,0,0,0,.734,1.3c.3.475.537.882.537.9a4.1,4.1,0,0,1-1.421-.1c-.656-.167-.672-.167-.553-.483.08-.214.08-.269-.2-.4l-.293-.167.435-.745a3.237,3.237,0,0,1,.5-.744ZM365.69,1520.8c-.079,0-.141.252-.292.728a17.421,17.421,0,0,0-.648,3.611l-.079.937.758-.079c.418-.078,1.047-.135,1.4-.2l.64-.12-.316-.625a15.111,15.111,0,0,1-1.169-3.223c-.15-.7-.232-1.027-.3-1.028Zm20.748.768c-1.094,0-1.175.079-.9.443a6.457,6.457,0,0,0,.577.7l.356.38.537-.215c.293-.119.545-.229.569-.238,0,0-.079-.261-.149-.546l-.189-.531Zm55.679.5.819.744c.9.815.984.944.83,1.232s-.119.356.088.167c.181-.157.2-.157.26,0,.133.357.079.538-.4.855a1.046,1.046,0,0,1-1.208.2h0l-.388-.095v-1.547Zm-65.225.927a3.482,3.482,0,0,0-.96.365,14.034,14.034,0,0,1-3.269,1.06.843.843,0,0,0-.489.136,12.066,12.066,0,0,0,2.885.872,11.062,11.062,0,0,0,1.871.253h.426l-.079-.443a13.486,13.486,0,0,0-.34-2.229h-.088Zm-8.749.983h0c-.15.15,1.625,2.9,2.5,3.859l.585.649.363-.443c.2-.239.577-.729.829-1.09a3.018,3.018,0,0,0,.418-.681s-.34-.143-.711-.276a14.4,14.4,0,0,1-3.056-1.5,4.9,4.9,0,0,0-.927-.531Zm-50.242,6.034-2.318.079c-3.486.088-4.982.491-8.659,2.329a22.692,22.692,0,0,0-9.249,8.05,16.344,16.344,0,0,0-2.35,5.022c-.26.906-.79,2.626-1.181,3.822s-.781,2.454-.867,2.8a27.343,27.343,0,0,0-.482,2.829h0c0,.079.172.079.387.079s1.313-.12,2.448-.2c8.336-.634,11.76-1.545,15.654-4.153a20.025,20.025,0,0,0,6.819-7.308c1.509-3.144,2.247-4.779,2.518-5.6a20.967,20.967,0,0,0,.711-3.858c-.079-.15-2.631,1.692-6.063,4.338-6.7,5.165-8.083,6.117-9.431,6.478a3.834,3.834,0,0,1-.8.143h-.277l.2-.475c.633-1.48,2.637-3.8,7.878-9.136,1.814-1.847,3.694-3.769,4.178-4.272Zm-4.229,1.82h.079s-1.248,1.36-2.832,2.965c-4.494,4.561-6.435,6.836-7.286,8.542a2.694,2.694,0,0,0-.434,1.619c0,.681,0,.776.292,1.056a2.083,2.083,0,0,0,1.985.443c2.012-.316,3.346-1.152,10.037-6.313,1.84-1.42,3.363-2.565,3.382-2.544a34.768,34.768,0,0,1-1.906,4.189,13.758,13.758,0,0,1-3.184,4.582,20.306,20.306,0,0,1-7.512,4.92,37.117,37.117,0,0,1-8.66,1.6c-.963.088-2,.191-2.3.215l-.545.078.08-.285c.119-.546.576-2.053,1.078-3.538.277-.825.735-2.3,1.024-3.288a15.789,15.789,0,0,1,3.388-6.319,20.109,20.109,0,0,1,5.119-4.6,39.412,39.412,0,0,1,5.21-2.565,15.146,15.146,0,0,1,3.034-.744ZM442,1535.822a.418.418,0,0,0-.3.078,1.057,1.057,0,0,0-.774.993c0,.642.569,1.4,5,6.66,7.22,8.571,11.6,14.757,12.9,18.208.332.886.324,1.066-.08.959-1.842-.53-6.576-4.267-12.185-9.623-2.367-2.26-3.536-3.46-7.652-7.854-1.686-1.8-3.187-3.367-3.34-3.486a1.367,1.367,0,0,0-1.336-.079c-.411.308-.166,2.228,1,7.806a30.3,30.3,0,0,0,1.74,6.047c.34.821.79,1.969.988,2.551a12.957,12.957,0,0,0,1.659,3.441,3.735,3.735,0,0,1,.577.878c.781,1.649,5.21,6.6,7.489,8.375,1.437,1.12,2.118,1.51,6.7,3.843,5.016,2.552,4.765,2.461,10.555,3.842,1.808.435,3.826.937,4.483,1.125a10.664,10.664,0,0,0,1.71.356,2.721,2.721,0,0,1,.562.079s.8.078,1.732.078h1.686l-.08-.229c0-.126-.079-.768-.119-1.42a97.237,97.237,0,0,0-2.1-15.65,60.624,60.624,0,0,0-2.528-7.271,27.8,27.8,0,0,0-2.588-3.951,55.2,55.2,0,0,0-9.343-9.178,14.95,14.95,0,0,0-3.532-1.966,11.561,11.561,0,0,1-1.733-.853,16.648,16.648,0,0,0-4.615-1.661,30.658,30.658,0,0,1-4.7-1.558,4.547,4.547,0,0,0-1.846-.467Zm1.625,2.268s.49.16,1.037.356,2.028.641,3.282.982c3.026.828,3.407.962,4.377,1.542a15.314,15.314,0,0,0,1.8.879,13.265,13.265,0,0,1,3.142,1.713c4.515,3.269,9.99,9.283,11.7,12.853.363.768,1.42,3.738,2.015,5.687a72.037,72.037,0,0,1,1.691,9.275c.2,1.542.616,6.1.616,6.71,0,.27,0,.276-.489.27a10.643,10.643,0,0,1-2.6-.4c-.371-.1-2.368-.6-4.437-1.094-5.963-1.42-5.549-1.272-10.521-3.771-4.707-2.366-5.832-3.05-7.436-4.508-2.454-2.232-5.549-5.844-6.136-7.159a4.4,4.4,0,0,0-.687-1.033,9.088,9.088,0,0,1-1.483-3.154c-.229-.617-.641-1.69-.928-2.372a26.542,26.542,0,0,1-1.5-5.062c-.5-2.272-1.017-5.019-.961-5.075,0,0,1.368,1.363,2.985,3.082a129.594,129.594,0,0,0,13.5,12.8c3.951,3.176,5.985,4.193,7.326,3.668.664-.262.853-.586.844-1.459,0-1.49-.989-3.538-3.49-7.333a134.1,134.1,0,0,0-10.055-13.067c-2.606-3.089-3.642-4.338-3.595-4.338Zm-84.152,16.265s-.481,1.278-1.026,2.878-1.274,3.538-1.612,4.305-.834,2.091-1.1,2.943a100.55,100.55,0,0,1-6.153,14.875c-1.936,3.884-3.5,6.344-3.88,6.108-.284-.181-.347-.9-.231-2.762.332-5.446,1.507-11.116,3.868-18.685.886-2.842,1.671-5.6,1.971-6.917.231-1.044.237-1.1.079-1.446a.715.715,0,0,0-.577-.451c-.49-.112-.609-.079-1.7.753a13.991,13.991,0,0,1-1.459.952c-1.277.674-5.773,5.173-8.24,8.251-3.372,4.206-5.8,8.867-6.569,12.6a51.822,51.822,0,0,0,.576,18.954,67.235,67.235,0,0,0,3.393,8.8,4.087,4.087,0,0,0,1.4,1.666c.616.341,1.741-.079,4.025-1.478a34.088,34.088,0,0,0,5.285-3.9,4.091,4.091,0,0,1,1.117-.8,8.214,8.214,0,0,0,2.614-2.07,52.6,52.6,0,0,0,8.24-11.569,24.807,24.807,0,0,0,3.151-8.591,50.33,50.33,0,0,0,.166-7.632,35.136,35.136,0,0,0-1.5-8.771,53.16,53.16,0,0,1-1.4-5.882c-.22-1.156-.41-2.118-.434-2.137Zm41.589,1.442s-.1.752-.183,1.612a7.112,7.112,0,0,0,.4,3.823,46.562,46.562,0,0,1,1.72,11.387c.111,2.208.08,3.586-.172,3.66-.656.222-2.583-3.9-3.745-8.023-.228-.8-.577-2.259-.782-3.237-.868-4.182-1.275-5.064-2.334-5.05-1.118,0-2.022,1.392-2.7,4.1a24.679,24.679,0,0,0-.133,11.725c.885,3.056,3.151,6.586,6.73,10.481a22.015,22.015,0,0,0,4.516,3.989,2.107,2.107,0,0,0,.6.191,2.508,2.508,0,0,0,1.246-.594c.936-.876,2.886-4.67,3.785-7.362a18.011,18.011,0,0,0,.889-6.345c0-1.478,0-3.508-.079-4.514-.158-2.674-.419-3.36-2.54-6.59-.577-.882-1.56-2.281-2.186-3.112-1.305-1.736-4.989-6.211-5.055-6.142Zm-51.722,2.147c.079.078-.857,3.129-1.8,6.175a80.607,80.607,0,0,0-3.727,17.869c-.22,2.975-.079,3.933.827,4.8a1.24,1.24,0,0,0,.924.444,1.143,1.143,0,0,0,.964-.215c1.242-.729,2.6-2.855,5.072-7.945a99.727,99.727,0,0,0,5.363-12.942c.918-2.784,2-5.493,2.126-5.341.079.1,1.283,4.612,1.477,5.548a44.818,44.818,0,0,1,.593,5.85,26.289,26.289,0,0,1-.888,9.365c-2.215,6.373-9.177,16.416-12.469,17.991a8.3,8.3,0,0,0-1.582,1.171,37.88,37.88,0,0,1-6.391,4.426c-.854.451-.954.474-1.186.214a59.478,59.478,0,0,1-3.089-7.408c-1.015-2.929-1.5-6.478-1.592-11.629-.1-6.063.292-8.6,1.94-12.375,1.945-4.454,5.419-9.044,10.341-13.662a16.126,16.126,0,0,1,2.408-2,3.711,3.711,0,0,1,.687-.332Zm53.451,2.51.317.356c.686.784,2.864,3.749,3.83,5.217,1.44,2.188,2.01,3.379,2.15,4.493a73.679,73.679,0,0,1,0,8.574,19.424,19.424,0,0,1-1.1,4.029,39.98,39.98,0,0,1-2.371,4.765,7.551,7.551,0,0,1-.545.752c-.237.143-2.612-1.978-4.217-3.774-3.71-4.153-5.65-7.355-6.326-10.438a24.629,24.629,0,0,1,.537-10.543c.308-1.04.68-1.9.774-1.8a30.217,30.217,0,0,1,.857,3.517,43.035,43.035,0,0,0,2.668,8.51c1.263,2.862,2.131,3.839,3.422,3.845a1.782,1.782,0,0,0,1.628-.948c.22-.427.254-.673.3-2.015.136-3.9-.863-11.869-1.776-14.158Z" transform="translate(-292.796 -1347.295)" fill="#dde9de"/>
</svg>
