<svg xmlns="http://www.w3.org/2000/svg" width="100" height="100" viewBox="0 0 100 100">
  <path id="rect11673" d="M-832.466,1685.172v98.88q7.112,0,14.224,0c.067-1.05,1.7-.868,2.445-1.443,5.688-2.411,10.923-5.986,16.96-7.506,1.178-.1,2.424-.038,1.991-1.619.48-2.8,2.285-4.952,3.745-7.216,2.664-3.933,5.908-7.483,8.281-11.6,1.2-2.6,1.317-5.512,1.756-8.3a93.91,93.91,0,0,1-12.6-4.433c-3.514-1.7-4.567-6.516-2.449-9.7.943-1.472,2.7-2.383,3-4.253.277-1.431,1.085-2.779.522-4.234a3.548,3.548,0,0,1,1.5-3.867,5.443,5.443,0,0,0,1.706-4.247c-.675-1.782-.251-4.175,1.632-5,1.647-1.594,1.542-4.289,3.321-5.838a6.51,6.51,0,0,1,7.54-1.678c3.85,1.269,7.49,3.111,11.195,4.718,1.256.352,1.924-1.242,1.277-2.183-.37-4.3,2.315-8.336,5.538-10.936a6.678,6.678,0,0,1,5.567-1.51,5.255,5.255,0,0,1,4.331,1.63,11.036,11.036,0,0,1,4.336,9.9c-.048,3.6-2.145,7.332-5.8,8.254-.864.457-3.552.209-2.047,1.537,2.765,3.9,5.369,7.9,8.258,11.712a47.966,47.966,0,0,0,.661-7.47,3.816,3.816,0,0,1,5.632-3.03c2.46,1.744,1.914,5.172,1.956,7.805.034,1.073-.246,2.316.848,2.947,2,2.172,3.047,5.525,1.584,8.219-.465,1.264-1.78,2.053-2.408,3.086.032,11.9.134,23.836.132,35.72.443,2.075,2.924,1.413,4.457,1.589,1.461.248.732-3.033.732-3.033v-88.023h-99.818Zm71.251,17.9c-.3,4.141,1.491,6.659,5.6,5.7,2.534-.114,3.3-1.168,4.241-3.348,2.086-3.507-1.167-6.372-3.932-6.57C-757.146,1698.034-761.633,1699.25-761.215,1703.075Zm-20.024,8.324c-3.388,7.832-7.016,15.564-10.028,23.553,1.346,2.5,4.449,3.591,7.141,3.59,1.608-.326,1.493-2.43,2.209-3.607,2.745-7.06,5.483-14.123,8.017-21.263-1.016-.276-1.248-1.246-1.927-1.865-1.542-.809-3.387-.775-5.053-1.229l-.358.821Zm17.4,3.032a6.075,6.075,0,0,0-5.647,4.441c-2.126,5.626-4.082,11.337-5.676,17.137a7.7,7.7,0,0,0,1.556,7.355c1.069,1.489-.42-.748-1.224-.446-2.157.152-1.788,2.791-2.169,4.31a11.416,11.416,0,0,1-2.319,6.522c-2.913,4.377-6.378,8.413-8.867,13.056-1.309,2.824.511,5.138,3.341,4.46a10.317,10.317,0,0,0,5.467-3.025c3.344-4.312,6.859-8.533,9.828-13.111.571-1.875,1.25-3.9.96-5.866,1.962,2.453,4.424,4.571,5.975,7.319.791,3.024.4,6.229.722,9.324.053,2,.045,4.409,2.036,5.534a3.926,3.926,0,0,0,5.857-1.983c.79-1.579.162-3.494.363-5.213-.123-4.051.276-8.148-.317-12.167-.824-2.523-3.053-4.248-4.614-6.314-1.759-2.2-3.9-4.167-5.385-6.549.169-3.3,1.687-6.377,2.573-9.535.112-1.519,1.022-2.253,1.8-.6,1.469,1.792,2.859,4.323,5.505,4.29A47.362,47.362,0,0,0-743,1733.32c2.408-.662,2.2-4.5-.169-5.05-2.461-.412-5-.271-7.454-.7-3.492-3.806-5.649-8.723-9.534-12.171a5.744,5.744,0,0,0-3.686-.97Zm4.2,22.828c-1.06.538-.877,1.965-1.3,2.925,3.247,4.009,6.879,7.758,10,11.76,2.068,2.859,1.473,6.6,1.742,9.914.065,3.95-.031,7.924.035,11.86.235,1.6,2.134,1.548,3.282,1.023.043-12.015.221-24.032-.013-36.046-3.63-.39-7.463.428-10.942-.853-.893-.247-1.75-.851-2.661-.663Zm-9.04,25.521c-2.787,4.244-6.025,8.164-9.081,12.212,3.891,0,7.784.053,11.671-.144-.231-3.99-.061-8.046-.661-11.988-.33-1.576-.735-2.617-1.574-.613l-.356.534Z" transform="translate(832.466 -1684.053)" fill="#54a191"/>
</svg>
