<?xml version="1.0" encoding="UTF-8" standalone="no"?>
<svg
   xmlns:dc="http://purl.org/dc/elements/1.1/"
   xmlns:cc="http://creativecommons.org/ns#"
   xmlns:rdf="http://www.w3.org/1999/02/22-rdf-syntax-ns#"
   xmlns:svg="http://www.w3.org/2000/svg"
   xmlns="http://www.w3.org/2000/svg"
   xmlns:sodipodi="http://sodipodi.sourceforge.net/DTD/sodipodi-0.dtd"
   xmlns:inkscape="http://www.inkscape.org/namespaces/inkscape"
   width="390.62457mm"
   height="494.664mm"
   viewBox="0 0 390.62457 494.664"
   version="1.1"
   id="svg133719"
   inkscape:version="1.0.2 (e86c870879, 2021-01-15, custom)">
  <defs
     id="defs133713" />
  <sodipodi:namedview
     id="base"
     pagecolor="#ffffff"
     bordercolor="#666666"
     borderopacity="1.0"
     inkscape:pageopacity="0.0"
     inkscape:pageshadow="2"
     inkscape:zoom="0.36086675"
     inkscape:cx="1210.2368"
     inkscape:cy="1178.892"
     inkscape:document-units="mm"
     inkscape:current-layer="layer1"
     inkscape:document-rotation="0"
     showgrid="false"
     inkscape:window-width="1920"
     inkscape:window-height="1001"
     inkscape:window-x="-9"
     inkscape:window-y="-9"
     inkscape:window-maximized="1" />
  <metadata
     id="metadata133716">
    <rdf:RDF>
      <cc:Work
         rdf:about="">
        <dc:format>image/svg+xml</dc:format>
        <dc:type
           rdf:resource="http://purl.org/dc/dcmitype/StillImage" />
        <dc:title></dc:title>
      </cc:Work>
    </rdf:RDF>
  </metadata>
  <g
     inkscape:label="Layer 1"
     inkscape:groupmode="layer"
     id="layer1"
     transform="translate(214.37515,163.74852)">
    <g
       id="g409641"
       transform="translate(-3400.6542,-720.01225)"
       style="display:inline"
       inkscape:export-filename="C:\work\misc work\Aaranya\website\drawings\website exports for dev\other pages update\assets other pages\about\about preview.png"
       inkscape:export-xdpi="58.939999"
       inkscape:export-ydpi="58.939999">
      <rect
         style="fill:#40473a;fill-opacity:1;stroke:none;stroke-width:0.241299;paint-order:markers fill stroke"
         id="rect109800"
         width="390.62457"
         height="494.664"
         x="3186.2791"
         y="556.26373"
         ry="0" />
      <g
         id="g409560"
         transform="matrix(0.85185092,0,0,0.85185092,457.23772,92.656237)">
        <path
           style="fill:#39695e;fill-opacity:1;stroke:none;stroke-width:0.600732;paint-order:markers fill stroke"
           d="m 3356.2364,1042.7183 c -1.6222,-0.6545 -2.1665,-3.0133 -2.5209,-10.926 -0.1828,-4.0929 -0.6453,-7.9037 -1.1248,-9.2717 -0.4476,-1.2774 -4.9185,-10.537 -9.9352,-20.5768 l -9.1214,-18.25402 -0.1858,-6.7668 -0.1852,-6.7668 -2.8713,-5.1784 c -2.9674,-5.3518 -4.4405,-9.3013 -4.4405,-11.9077 0,-0.827 -0.6039,-2.9891 -1.3424,-4.8046 -1.6131,-3.9649 -3.5461,-10.9435 -5.0077,-18.0769 -0.6082,-2.9684 -2.1369,-7.7301 -3.5261,-10.985 l -2.4531,-5.7451 0.6339,-10.7375 c 0.8116,-13.7471 0.833,-19.8855 0.076,-21.8172 -0.875,-2.2318 -1.7868,-0.9994 -1.5417,2.0832 l 0.1982,2.4917 -8.3394,4.1759 -8.339,4.1757 -3.3722,-1.2239 c -5.6582,-2.0538 -15.8836,-10.8086 -16.3521,-14.0001 -0.3634,-2.4753 0.8348,-5.4593 2.9246,-7.2855 1.0006,-0.8741 2.7136,-2.7815 3.806,-4.2384 l 1.9864,-2.6492 -4.709,-0.341 c -2.5898,-0.1878 -6.6165,-0.369 -8.9476,-0.4027 -6.6069,-0.095 -11.3993,-2.787 -11.386,-6.394 0,-1.7256 2.5281,-6.0957 4.9477,-8.5755 2.9874,-3.0614 8.0428,-3.8017 15.8101,-2.3153 6.6669,1.2758 12.4476,1.6084 13.4529,0.7742 1.3887,-1.1527 1.836,-3.015 1.4702,-6.1258 -0.331,-2.8173 -0.4334,-2.9696 -3.1794,-4.7262 -1.5602,-0.9981 -2.8369,-2.0661 -2.8369,-2.3734 0,-0.3071 -1.5507,-1.254 -3.4457,-2.1043 -4.278,-1.9197 -5.0201,-3.1771 -4.0062,-6.7887 1.2694,-4.5188 1.2697,-4.5163 -0.7156,-5.783 -1.424,-0.9086 -2.0408,-1.8177 -2.6699,-3.9374 -1.1286,-3.7997 -1.0773,-8.4968 0.108,-9.9049 1.2425,-1.4756 8.7105,-6.9396 9.5029,-6.9529 0.3457,0 2.6108,0.4646 5.0334,1.0454 2.4227,0.5807 5.7501,1.0575 7.3951,1.0596 h 2.9903 l 5.4382,-5.6954 c 2.9906,-3.1326 6.7491,-7.3183 8.3518,-9.3018 l 2.9139,-3.606 -1.2518,-3.9916 c -1.1488,-3.6635 -1.186,-4.1075 -0.4482,-5.4006 0.7815,-1.3705 0.9271,-1.4056 5.3129,-1.2816 l 4.5091,0.1278 1.7643,-4.0142 c 0.9702,-2.2081 2.3423,-4.8666 3.0489,-5.9079 1.1597,-1.7088 1.2292,-2.1147 0.7139,-4.1625 -1.1482,-4.5597 -0.8681,-5.5193 2.8598,-9.7897 1.8874,-2.1621 3.437,-4.202 3.4436,-4.533 0.018,-0.6553 -1.6334,-1.5173 -7.326,-3.8339 -5.0508,-2.0555 -8.5127,-4.1563 -9.1261,-5.5377 -0.2813,-0.634 -0.9495,-4.3712 -1.4848,-8.305 l -0.973,-7.1525 2.0983,-2.3841 c 1.9859,-2.2564 4.1084,-5.7611 4.1084,-6.7831 0,-0.257 -0.7957,-0.896 -1.7686,-1.42 -1.0787,-0.581 -2.1635,-1.8017 -2.7813,-3.1297 -0.9444,-2.0302 -1.2816,-2.261 -4.9862,-3.4133 -2.1859,-0.6798 -4.3008,-1.4018 -4.7004,-1.6043 -0.7026,-0.356 -2.6937,-5.8668 -2.7093,-7.4992 0,-0.4415 1.8021,-2.5872 4.0146,-4.7682 2.2127,-2.181 4.2333,-4.3565 4.4905,-4.834 0.3705,-0.6872 1.7154,-0.9477 6.4415,-1.2479 3.2851,-0.2086 8.1189,-0.8274 10.7416,-1.375 7.6814,-1.6037 8.5457,-1.4785 13.6219,1.9765 6.7573,4.5989 16.6554,12.266 18.1904,14.0903 0.8091,0.9617 1.2729,2.0431 1.1224,2.618 -0.3518,1.3469 1.1279,2.0253 4.4168,2.0253 3.194,0 3.9941,-0.3765 8.1545,-3.8391 4.9015,-4.0787 4.5658,-4.0702 13.8791,-0.347 4.4742,1.7886 8.528,3.5396 9.0084,3.8909 0.7773,0.5681 0.805,1.0744 0.2497,4.5732 -1.6993,10.7139 -4.4781,15.2503 -11.6175,18.9645 -4.288,2.2309 -5.3691,3.2972 -5.3691,5.2944 0,0.8041 0.7278,1.3221 3.0461,2.1677 1.6759,0.6113 3.6217,1.4032 4.3251,1.76 2.8618,1.4518 4.1153,6.1575 2.4737,9.2845 -0.4129,0.7868 -1.6644,2.2779 -2.7813,3.3136 -3.6717,3.405 -3.4017,3.3391 -7.2968,1.7798 -1.937,-0.7753 -3.5976,-1.3205 -3.6905,-1.2116 -0.094,0.108 -0.3062,2.4062 -0.4734,5.1052 l -0.3033,4.9073 1.9845,1.0124 c 2.4816,1.2661 7.1017,2.4575 12.2093,3.1489 l 3.9309,0.5319 4.1489,4.1246 4.1491,4.1246 v 4.9317 c 0,4.884 -0.023,4.9729 -2.4341,9.221 -2.1535,3.7957 -2.3959,4.5425 -2.104,6.489 0.9662,6.4437 4.7114,8.5505 24.4348,13.7454 4.9376,1.3004 11.623,3.2203 14.8563,4.2664 4.9006,1.5858 6.6435,1.902 10.4806,1.902 5.773,0 7.4297,0.6838 10.411,4.2976 1.2954,1.5703 2.5469,2.994 2.7807,3.1641 0.6574,0.4774 13.4668,2.5212 17.3818,2.7736 l 3.488,0.2248 0.5196,-8.6166 c 0.5919,-9.8151 0.8867,-10.5986 4.6799,-12.4348 3.0241,-1.4639 5.383,-1.1347 7.9366,1.1073 1.9592,1.7206 2.6655,3.4295 3.216,7.7841 0.4635,3.6687 2.0874,5.6062 5.4069,6.4518 3.8227,0.9736 16.4768,1.3619 18.8509,0.5783 2.7926,-0.9215 3.1703,-1.9418 2.5016,-6.7511 -0.3091,-2.2229 -0.5,-4.0965 -0.4239,-4.1634 0.076,-0.067 2.6074,-1.3561 5.6249,-2.8645 3.0174,-1.5084 7.5474,-4.0771 10.0662,-5.708 2.5194,-1.6311 6.1301,-3.6568 8.0242,-4.5017 2.4075,-1.0739 4.1871,-2.3641 5.9131,-4.2868 l 2.4691,-2.7505 5.2768,-0.18 c 3.156,-0.108 7.4065,0.1584 10.5744,0.6622 2.9141,0.4633 6.1353,0.8422 7.1588,0.8422 h 1.8611 l 0.9069,5.1657 c 0.5894,3.3584 1.6311,6.7583 2.9764,9.7178 1.443,3.1733 2.0697,5.2872 2.0697,6.9795 0,1.3352 0.281,3.6462 0.6248,5.1355 0.9693,4.1985 0.6768,4.3411 -9.9995,4.8699 -4.8971,0.2427 -9.4082,0.5587 -10.0239,0.7025 -1.3705,0.3201 -2.8535,5.054 -2.8535,9.1098 0,2.3117 -0.6154,3.8712 -4.5858,11.6211 -6.1625,12.0278 -6.8931,12.9967 -11.2859,14.9608 -4.1329,1.8481 -4.1514,1.8794 -6.1292,10.4146 -2.0906,9.025 -2.2397,9.2718 -5.6043,9.2718 -2.9671,0 -5.5777,-1.2429 -6.7864,-3.2304 -1.4902,-2.4505 -5.3444,-14.3291 -5.3444,-16.4714 0,-1.7361 1.4673,-4.4475 4.2966,-7.9396 0.6468,-0.7985 1.0067,-1.7802 0.8259,-2.2518 -0.404,-1.053 -2.0122,-1.056 -7.5723,-0.018 -3.4723,0.6507 -4.8505,0.6971 -6.611,0.223 -3.9834,-1.0726 -8.1143,-3.174 -10.2774,-5.2285 -1.1653,-1.107 -3.2517,-2.8047 -4.6357,-3.7727 -1.3843,-0.968 -2.524,-1.8984 -2.5336,-2.0676 -0.018,-0.1692 -0.369,-0.7733 -0.7995,-1.3426 -0.7544,-0.9973 -0.8782,-0.9405 -3.4271,1.5696 -1.4539,1.4326 -2.644,2.9193 -2.644,3.3043 0,0.3849 0.5962,1.8759 1.3244,3.3136 0.7286,1.4376 1.3248,3.1762 1.3248,3.8636 0,2.282 -3.5241,4.5949 -7.0544,4.6302 l -1.6878,0.018 2.7707,2.4998 c 3.1589,2.8504 3.1141,2.7125 4.9309,15.2152 1.204,8.2843 1.2173,15.4386 0.034,17.652 -1.1044,2.0634 -2.6207,2.4454 -9.8725,2.4859 -6.2268,0.034 -7.1664,0.1674 -9.5366,1.3413 -1.5145,0.7501 -2.9085,1.8898 -3.2862,2.6868 -0.3609,0.7614 -1.0177,4.1426 -1.4595,7.5139 -0.4419,3.3714 -0.9301,6.4586 -1.084,6.8606 -0.1548,0.4019 -1.1664,1.0384 -2.2492,1.4142 -1.0825,0.3757 -5.635,2.626 -10.1168,5.0005 -9.0148,4.7762 -9.639,5.3408 -16.2031,14.6442 -2.7931,3.9594 -4.1303,5.3562 -6.2872,6.5677 -1.5064,0.8464 -4.6576,2.6739 -7.0022,4.0609 -2.3445,1.3872 -5.2059,2.78 -6.3578,3.0952 -2.0811,0.5693 -3.2056,2.0917 -4.1961,5.6814 -0.4667,1.6907 -2.127,2.9735 -5.7516,4.445 -2.7651,1.1223 -3.5317,1.7393 -4.9396,3.9736 -2.9316,4.653 -4.58,6.0887 -6.9921,6.0887 -2.8141,0 -3.5765,0.892 -4.006,4.6892 -0.423,3.7393 -0.3321,4.2127 2.435,12.6968 l 2.1283,6.525 -2.9298,7.25 -2.9304,7.2502 -0.1727,11.54322 c -0.1953,13.1249 -0.02,12.6519 -4.6115,12.4742 l -2.8503,-0.1098 -1.774,3.3339 c -1.6763,3.1499 -1.7564,3.5432 -1.4535,7.1296 l 0.321,3.7958 -2.1882,1.9769 c -2.4575,2.2202 -3.2447,2.4508 -3.2447,0.9505 0,-0.849 -0.2971,-0.9889 -1.7216,-0.8098 -0.9473,0.1188 -3.0684,0.3564 -4.7143,0.5278 -2.1268,0.2214 -3.7241,0.8002 -5.5233,2.0019 -1.3921,0.9298 -3.0256,1.9852 -3.6305,2.3451 -1.2677,0.7548 -11.0482,0.864 -12.8346,0.144 z m 13.0608,-7.1565 c 3.1822,-2.1414 5.7782,-2.9595 10.7677,-3.3934 l 3.6167,-0.3145 0.1368,-2.9699 c 0.1044,-2.2575 0.592,-3.7848 2.0355,-6.3658 2.5783,-4.6105 4.129,-6.1509 6.8915,-6.8466 l 2.3409,-0.5893 -0.4534,-2.7403 c -0.5011,-3.0272 -0.1386,-10.6698 0.7182,-15.19072 0.3041,-1.6027 1.5776,-5.4723 2.8307,-8.5988 l 2.2774,-5.6848 -1.0716,-3.5869 c -0.5891,-1.9728 -1.4487,-4.3021 -1.9097,-5.1764 -1.8016,-3.4168 -1.9512,-6.5457 -0.6581,-13.7556 0.6248,-3.4861 1.2391,-6.4411 1.3649,-6.5669 0.126,-0.126 1.4853,-0.3264 3.0216,-0.4461 4.7249,-0.3681 5.1096,-0.5626 7.0175,-3.5445 2.2336,-3.4917 4.4776,-5.427 7.1174,-6.1378 1.7496,-0.4711 2.255,-0.9896 3.7579,-3.855 1.8869,-3.5975 3.5447,-5.6949 4.5019,-5.6949 0.8534,0 9.9887,-4.488 13.6234,-6.6929 2.4821,-1.5059 3.7845,-2.9125 7.2531,-7.834 2.325,-3.2991 5.2548,-6.8814 6.5111,-7.9605 2.4836,-2.1338 10.6772,-6.8999 16.0511,-9.3365 1.8554,-0.8413 3.5199,-1.7663 3.6984,-2.0558 0.18,-0.2894 0.5483,-2.4807 0.8206,-4.8694 1.0964,-9.6094 2.9442,-12.1455 10.7326,-14.7292 4.4041,-1.461 5.4247,-1.6313 6.8339,-1.1399 0.9111,0.3175 2.9674,0.5774 4.5696,0.5774 h 2.9126 l -0.3104,-6.2253 c -0.171,-3.4239 -0.7897,-8.8196 -1.375,-11.9904 l -1.0638,-5.7653 -4.531,-4.6304 c -4.8219,-4.9275 -5.4591,-6.412 -3.5094,-8.1765 0.6253,-0.5657 2.6303,-1.1431 5.1657,-1.4875 2.2789,-0.3094 4.2162,-0.6186 4.3048,-0.687 0.088,-0.068 -0.4472,-1.6205 -1.1902,-3.4494 l -1.351,-3.3253 2.9764,-3.2246 c 1.6369,-1.7737 4.1991,-4.3546 5.6934,-5.7356 4.0606,-3.752 6.2302,-3.3401 8.7847,1.667 0.5935,1.1629 1.7078,2.5437 2.4766,3.0685 0.7686,0.5247 2.6173,2.0462 4.1089,3.3809 1.4911,1.3347 4.1032,2.9802 5.804,3.6564 l 3.0927,1.2298 5.1576,-0.9464 c 4.63,-0.8494 5.5878,-0.8712 9.3581,-0.2126 4.058,0.7088 4.2062,0.7864 4.3775,2.2919 0.452,3.9671 -0.9271,7.4113 -4.8914,12.2179 l -1.312,1.5906 2.0196,6.0918 c 2.4569,7.4113 2.6756,7.9459 3.248,7.9459 0.4511,0 0.6701,-0.7295 2.2755,-7.5928 0.4653,-1.9907 1.4558,-4.9772 2.2007,-6.6369 1.3388,-2.9826 1.3987,-3.0331 5.1619,-4.328 l 3.8076,-1.3102 4.8862,-9.2718 c 4.1618,-7.8964 4.891,-9.6526 4.9153,-11.8403 0.018,-1.4592 0.8481,-5.0357 1.9259,-8.2809 l 1.8977,-5.7125 3.0033,-0.3107 c 1.6516,-0.171 5.8043,-0.4703 9.2285,-0.6652 l 6.2248,-0.3548 v -2.8571 c 0,-2.0998 -0.4071,-3.6638 -1.5368,-5.9017 -0.8453,-1.6745 -1.7987,-4.0518 -2.1193,-5.2828 -0.32,-1.2312 -0.8218,-3.1629 -1.1149,-4.2928 l -0.5327,-2.0541 -4.8977,-0.6148 c -5.6163,-0.7051 -10.4306,-0.8406 -11.8598,-0.3339 -0.5419,0.192 -1.7006,1.3154 -2.575,2.4962 -1.2353,1.6691 -2.4146,2.4704 -5.2976,3.5999 -2.0403,0.7992 -6.8083,3.3427 -10.5964,5.6524 -3.7885,2.3099 -7.6689,4.5224 -8.6232,4.9169 l -1.7359,0.7173 0.3467,4.5901 c 0.3276,4.3425 0.2786,4.6626 -0.9135,5.9386 -2.3783,2.5458 -6.5797,3.3889 -16.0945,3.2293 -8.9366,-0.1494 -13.4046,-0.9056 -16.4377,-2.7801 -2.3736,-1.4669 -4.9411,-6.4992 -5.3597,-10.5056 -0.3453,-3.3009 -0.9996,-4.1098 -2.8508,-3.5225 -1.2481,0.3963 -1.5734,2.4267 -1.6005,9.9966 -0.02,5.8734 -0.5073,10.5746 -1.1612,11.2283 -0.1422,0.1422 -2.8551,0.2812 -6.0277,0.3083 -6.7187,0.058 -19.4849,-2.1644 -22.318,-3.8844 -0.9434,-0.5724 -2.7313,-2.1908 -3.9738,-3.596 l -2.2587,-2.5552 -5.2982,-0.2333 c -4.5262,-0.1996 -6.5492,-0.63 -13.8856,-2.9559 -4.7229,-1.4972 -11.4589,-3.4471 -14.9683,-4.3332 -17.0421,-4.3024 -22.6312,-7.6793 -24.8734,-15.0282 -0.6096,-1.9976 -1.1082,-4.2078 -1.1082,-4.9114 0,-0.7036 1.1059,-3.4798 2.4578,-6.1695 3.1852,-6.3373 3.3809,-9.2142 0.8444,-12.4163 -1.9607,-2.4756 -3.0259,-2.964 -9.0432,-4.1455 -8.8219,-1.7324 -13.5515,-4.0304 -15.1268,-7.3506 -0.7992,-1.6839 -0.8435,-2.7727 -0.391,-9.6543 0.5562,-8.4607 0.9162,-9.3815 3.668,-9.3815 0.8429,0 3.1575,0.7603 5.1439,1.6898 l 3.6107,1.6898 1.2393,-1.1641 c 0.6814,-0.6402 1.2391,-1.7016 1.2391,-2.3586 0,-0.9977 -0.4995,-1.3399 -3.0303,-2.0757 -1.6669,-0.4844 -3.917,-1.3331 -5.0001,-1.8857 -1.7529,-0.8942 -2.0049,-1.2817 -2.2949,-3.5275 -0.18,-1.3876 -0.4106,-2.9401 -0.5139,-3.45 -0.1026,-0.5099 0.029,-0.9272 0.2925,-0.9272 0.2642,0 0.4804,-0.7336 0.4804,-1.6302 0,-2.1198 2.3079,-4.4522 5.1682,-5.2224 3.137,-0.8447 7.0627,-3.75 8.7604,-6.484 1.5354,-2.4715 2.9894,-9.2089 2.1483,-9.9525 -1.154,-1.0196 -10.4515,-4.2684 -11.3763,-3.9748 -0.563,0.1782 -2.366,1.4997 -4.0071,2.9357 -1.7245,1.5093 -3.8976,2.8589 -5.15,3.1984 -3.0657,0.831 -9.0558,0.1893 -11.9679,-1.2823 -2.0851,-1.0537 -2.505,-1.5674 -3.3499,-4.0985 -1.0658,-3.1944 -1.242,-3.3571 -11.9303,-11.0307 -5.6614,-4.0648 -6.1658,-4.3138 -8.7419,-4.3138 -1.5035,0 -4.4027,0.3534 -6.442,0.7855 -2.0397,0.432 -5.7667,0.7897 -8.2823,0.7947 l -4.5743,0.018 -2.976,3.4862 c -1.6364,1.9175 -2.9755,3.6863 -2.9755,3.9311 0,0.2446 1.2515,0.8546 2.7813,1.3553 5.1709,1.6927 7.7441,3.2814 8.7418,5.3968 0.7124,1.51 1.6292,2.3024 3.9533,3.416 l 3.0255,1.4499 -1.3854,3.0268 c -1.7602,3.8445 -4.7676,9.1855 -5.8486,10.3872 -0.7292,0.8099 -0.754,1.4911 -0.1987,5.4587 0.9178,6.5599 1.033,6.7497 5.1801,8.507 1.9902,0.8431 5.28,2.3674 7.3107,3.3873 3.3076,1.6612 3.8485,2.1605 5.1939,4.792 1.8587,3.6367 1.501,4.9857 -1.9517,7.3617 -1.3197,0.9077 -2.9931,2.4288 -3.7185,3.3801 l -1.3192,1.7294 1.0231,3.2865 c 1.1352,3.6489 1.0505,4.1138 -1.3716,7.5303 -0.9296,1.3115 -2.4598,3.934 -3.3999,5.8281 -2.8702,5.7835 -3.858,6.8046 -6.7626,6.9912 l -2.5117,0.162 -0.029,2.6492 c -0.018,1.4866 -0.4509,3.4628 -0.9937,4.5033 -1.6207,3.1053 -6.5436,8.9483 -13.0567,15.4971 l -6.191,6.2253 -3.6409,-0.018 c -2.0027,0 -5.3101,-0.3625 -7.3498,-0.7946 -5.1515,-1.0912 -5.5268,-1.039 -8.6366,1.2012 -2.6974,1.9433 -2.7512,2.0335 -2.4297,4.1061 0.4347,2.8078 1.0182,3.8242 2.4558,4.2794 0.6563,0.2075 2.2018,0.8094 3.4347,1.3374 l 2.2422,0.9599 -1.8446,3.8492 c -1.0148,2.1171 -1.8449,4.1511 -1.8449,4.5201 0,0.3704 0.9273,0.8191 2.0694,1.0018 1.6124,0.2578 2.3435,0.7522 3.3112,2.2397 0.6834,1.0499 2.485,2.6164 4.0042,3.4811 1.5191,0.8647 2.9199,1.9459 3.1123,2.4024 0.1924,0.4567 0.4708,3.2776 0.619,6.2687 l 0.2691,5.4384 -1.9431,2.9264 c -1.0686,1.6095 -2.564,3.1625 -3.3231,3.4512 -1.5083,0.5733 -11.9207,-0.1314 -17.2385,-1.166 -1.665,-0.3242 -4.4927,-0.4833 -6.2844,-0.3535 -2.6517,0.1917 -3.448,0.4746 -4.2822,1.522 -1.9622,2.4617 -2.7075,3.7056 -2.4028,4.01 0.684,0.6841 8.6527,1.2047 18.7777,1.2267 5.901,0.018 10.7286,0.1512 10.7286,0.3052 0,0.9202 -11.3426,16.6694 -12.2012,16.9421 -0.5743,0.1822 -1.0439,0.772 -1.0439,1.3109 0,1.2539 7.2045,7.9128 10.5043,9.7088 l 2.518,1.3707 5.6281,-2.8871 c 5.4301,-2.7857 5.6402,-2.9586 5.9712,-4.9177 0.7587,-4.4893 4.2498,-7.4412 7.9745,-6.7425 2.2251,0.4173 3.1965,1.5694 4.4862,5.318 1.2654,3.677 1.3334,7.0688 0.4615,22.8742 l -0.6186,11.2057 2.2269,5.0773 c 1.4821,3.3798 2.7611,7.6044 3.8261,12.6358 0.88,4.1572 2.6559,10.6391 3.947,14.404 1.2911,3.765 2.3475,7.6426 2.3475,8.6171 0,1.1511 1.2281,4.1356 3.5065,8.5192 l 3.507,6.7474 0.07,6.3871 0.068,6.3871 9.6386,19.57372 c 10.2234,20.7616 11.4031,23.5845 11.273,26.9741 -0.043,1.1749 -0.059,3.8977 -0.034,6.0506 l 0.049,3.9142 3.4069,-0.349 c 2.6532,-0.2718 4.0094,-0.7546 6.1307,-2.1823 z"
           id="path109391" />
        <g
           id="g83336"
           transform="translate(0,28.055745)">
          <circle
             style="fill:#42a082;fill-opacity:1;stroke:none;stroke-width:0.3;paint-order:markers fill stroke"
             id="path7431"
             cx="3369.4944"
             cy="749.90967"
             r="5.8277745" />
          <rect
             style="fill:#feefcc;fill-opacity:1;stroke:none;stroke-width:0.159341;paint-order:markers fill stroke"
             id="rect72237"
             width="76.137093"
             height="11.412747"
             x="3377.8242"
             y="743.88312"
             ry="0.85743755" />
          <text
             xml:space="preserve"
             style="font-style:normal;font-variant:normal;font-weight:bold;font-stretch:normal;font-size:5.64444px;font-family:Raleway;-inkscape-font-specification:'Raleway Bold';text-align:center;text-anchor:middle;display:inline;fill:#39695e;fill-opacity:1;stroke-width:0.743594;paint-order:markers fill stroke"
             x="3399.3843"
             y="751.53992"
             id="text13596-2-4"><tspan
               id="tspan13594-50-9"
               x="3399.3843"
               y="751.53992"
               style="font-style:normal;font-variant:normal;font-weight:bold;font-stretch:normal;font-size:5.64444px;font-family:Raleway;-inkscape-font-specification:'Raleway Bold';fill:#39695e;fill-opacity:1;stroke-width:0.743594"
               sodipodi:role="line">Delhi/NCR</tspan></text>
          <rect
             style="fill:#4d8b83;fill-opacity:1;stroke:none;stroke-width:0.350121;paint-order:markers fill stroke"
             id="rect169368"
             width="35.405319"
             height="36.33707"
             x="3419.2136"
             y="743.91498"
             ry="0" />
          <text
             xml:space="preserve"
             style="font-style:normal;font-variant:normal;font-weight:bold;font-stretch:normal;font-size:3.88056px;font-family:Raleway;-inkscape-font-specification:'Raleway Bold';text-align:start;text-anchor:start;display:inline;fill:#feefcc;fill-opacity:1;stroke-width:0.743594;paint-order:markers fill stroke"
             x="3424.7322"
             y="748.86548"
             id="text92568-8"><tspan
               id="tspan92566-0"
               x="3424.7322"
               y="748.86548"
               style="font-style:normal;font-variant:normal;font-weight:bold;font-stretch:normal;font-size:3.88056px;font-family:Raleway;-inkscape-font-specification:'Raleway Bold';text-align:start;text-anchor:start;fill:#feefcc;fill-opacity:1;stroke-width:0.743594"
               sodipodi:role="line">Noida</tspan><tspan
               x="3424.7322"
               y="753.71619"
               style="font-style:normal;font-variant:normal;font-weight:bold;font-stretch:normal;font-size:3.88056px;font-family:Raleway;-inkscape-font-specification:'Raleway Bold';text-align:start;text-anchor:start;fill:#feefcc;fill-opacity:1;stroke-width:0.743594"
               sodipodi:role="line"
               id="tspan157394">Ghaziabad</tspan><tspan
               x="3424.7322"
               y="758.56689"
               style="font-style:normal;font-variant:normal;font-weight:bold;font-stretch:normal;font-size:3.88056px;font-family:Raleway;-inkscape-font-specification:'Raleway Bold';text-align:start;text-anchor:start;fill:#feefcc;fill-opacity:1;stroke-width:0.743594"
               sodipodi:role="line"
               id="tspan160714">Gurugram</tspan><tspan
               x="3424.7322"
               y="763.4176"
               style="font-style:normal;font-variant:normal;font-weight:bold;font-stretch:normal;font-size:3.88056px;font-family:Raleway;-inkscape-font-specification:'Raleway Bold';text-align:start;text-anchor:start;fill:#feefcc;fill-opacity:1;stroke-width:0.743594"
               sodipodi:role="line"
               id="tspan162072">Greater Noida</tspan><tspan
               x="3424.7322"
               y="768.26825"
               style="font-style:normal;font-variant:normal;font-weight:bold;font-stretch:normal;font-size:3.88056px;font-family:Raleway;-inkscape-font-specification:'Raleway Bold';text-align:start;text-anchor:start;fill:#feefcc;fill-opacity:1;stroke-width:0.743594"
               sodipodi:role="line"
               id="tspan163598">Nirmana</tspan><tspan
               x="3424.7322"
               y="773.11896"
               style="font-style:normal;font-variant:normal;font-weight:bold;font-stretch:normal;font-size:3.88056px;font-family:Raleway;-inkscape-font-specification:'Raleway Bold';text-align:start;text-anchor:start;fill:#feefcc;fill-opacity:1;stroke-width:0.743594"
               sodipodi:role="line"
               id="tspan165880">Jhajhhar</tspan><tspan
               x="3424.7322"
               y="777.96967"
               style="font-style:normal;font-variant:normal;font-weight:bold;font-stretch:normal;font-size:3.88056px;font-family:Raleway;-inkscape-font-specification:'Raleway Bold';text-align:start;text-anchor:start;fill:#feefcc;fill-opacity:1;stroke-width:0.743594"
               sodipodi:role="line"
               id="tspan167520">Escorts</tspan></text>
        </g>
        <g
           id="g83342"
           transform="translate(9.3660664,-9.5742012)">
          <circle
             style="fill:#42a082;fill-opacity:1;stroke:none;stroke-width:0.3;paint-order:markers fill stroke"
             id="circle83324"
             cx="3346.0938"
             cy="766.09875"
             r="5.8277745" />
          <rect
             style="fill:#feefcc;fill-opacity:1;stroke:none;stroke-width:0.159341;paint-order:markers fill stroke"
             id="rect83326"
             width="76.137093"
             height="11.412747"
             x="3354.4236"
             y="760.0722"
             ry="0.85743755" />
          <rect
             style="display:inline;fill:#4d8b83;fill-opacity:1;stroke:none;stroke-width:0.3;paint-order:markers fill stroke"
             id="rect209672"
             width="41.837109"
             height="11.620042"
             x="3388.7236"
             y="759.86487"
             ry="0" />
          <text
             xml:space="preserve"
             style="font-style:normal;font-variant:normal;font-weight:bold;font-stretch:normal;font-size:5.64444px;font-family:Raleway;-inkscape-font-specification:'Raleway Bold';text-align:center;text-anchor:middle;display:inline;fill:#39695e;fill-opacity:1;stroke-width:0.743594;paint-order:markers fill stroke"
             x="3371.5596"
             y="767.19983"
             id="text150951"><tspan
               id="tspan150949"
               x="3372.2368"
               y="767.19983"
               style="font-style:normal;font-variant:normal;font-weight:bold;font-stretch:normal;font-size:5.64444px;font-family:Raleway;-inkscape-font-specification:'Raleway Bold';fill:#39695e;fill-opacity:1;stroke-width:0.743594"
               sodipodi:role="line">Punjab </tspan></text>
          <text
             xml:space="preserve"
             style="font-style:normal;font-variant:normal;font-weight:bold;font-stretch:normal;font-size:3.88056px;font-family:Raleway;-inkscape-font-specification:'Raleway Bold';text-align:center;text-anchor:middle;display:inline;fill:#feefcc;fill-opacity:1;stroke-width:0.743594;paint-order:markers fill stroke"
             x="3408.7161"
             y="766.76978"
             id="text92568"><tspan
               id="tspan92566"
               x="3408.7161"
               y="766.76978"
               style="font-style:normal;font-variant:normal;font-weight:bold;font-stretch:normal;font-size:3.88056px;font-family:Raleway;-inkscape-font-specification:'Raleway Bold';fill:#feefcc;fill-opacity:1;stroke-width:0.743594"
               sodipodi:role="line">Bathinda | Ludhiana</tspan></text>
        </g>
        <g
           id="g307213"
           transform="translate(34.342243,72.497354)">
          <circle
             style="fill:#42a082;fill-opacity:1;stroke:none;stroke-width:0.3;paint-order:markers fill stroke"
             id="circle307199"
             cx="3346.0938"
             cy="765.77856"
             r="5.8277745" />
          <rect
             style="fill:#feefcc;fill-opacity:1;stroke:none;stroke-width:0.159341;paint-order:markers fill stroke"
             id="rect307201"
             width="76.137093"
             height="11.412747"
             x="3354.4236"
             y="760.0722"
             ry="0.85743755" />
          <rect
             style="display:inline;fill:#4d8b83;fill-opacity:1;stroke:none;stroke-width:0.3;paint-order:markers fill stroke"
             id="rect307203"
             width="41.837109"
             height="11.620042"
             x="3388.7236"
             y="759.86487"
             ry="0" />
          <text
             xml:space="preserve"
             style="font-style:normal;font-variant:normal;font-weight:bold;font-stretch:normal;font-size:5.66149px;line-height:0.8;font-family:Raleway;-inkscape-font-specification:'Raleway Bold';text-align:center;text-anchor:middle;display:inline;fill:#39695e;fill-opacity:1;stroke-width:0.468078;paint-order:markers fill stroke"
             x="3369.4341"
             y="765.34753"
             id="text307207"><tspan
               id="tspan307205"
               x="3369.4341"
               y="765.34753"
               style="font-style:normal;font-variant:normal;font-weight:bold;font-stretch:normal;font-size:5.66149px;font-family:Raleway;-inkscape-font-specification:'Raleway Bold';fill:#39695e;fill-opacity:1;stroke-width:0.468078"
               sodipodi:role="line">Madhya</tspan><tspan
               x="3369.4341"
               y="769.87671"
               style="font-style:normal;font-variant:normal;font-weight:bold;font-stretch:normal;font-size:5.66149px;font-family:Raleway;-inkscape-font-specification:'Raleway Bold';fill:#39695e;fill-opacity:1;stroke-width:0.468078"
               sodipodi:role="line"
               id="tspan318035">Pradesh</tspan></text>
          <text
             xml:space="preserve"
             style="font-style:normal;font-variant:normal;font-weight:bold;font-stretch:normal;font-size:3.88056px;font-family:Raleway;-inkscape-font-specification:'Raleway Bold';text-align:center;text-anchor:middle;display:inline;fill:#feefcc;fill-opacity:1;stroke-width:0.743594;paint-order:markers fill stroke"
             x="3409.5486"
             y="766.76978"
             id="text307211"><tspan
               id="tspan307209"
               x="3409.5486"
               y="766.76978"
               style="font-style:normal;font-variant:normal;font-weight:bold;font-stretch:normal;font-size:3.88056px;font-family:Raleway;-inkscape-font-specification:'Raleway Bold';fill:#feefcc;fill-opacity:1;stroke-width:0.743594"
               sodipodi:role="line">Dewas | Hosangabad</tspan></text>
        </g>
        <g
           id="g347765"
           transform="translate(-18.989386,144.9877)">
          <circle
             style="fill:#42a082;fill-opacity:1;stroke:none;stroke-width:0.3;paint-order:markers fill stroke"
             id="circle347749"
             cx="3346.0938"
             cy="765.77856"
             r="5.8277745" />
          <rect
             style="fill:#feefcc;fill-opacity:1;stroke:none;stroke-width:0.116578;paint-order:markers fill stroke"
             id="rect347751"
             width="40.754173"
             height="11.412747"
             x="3354.4236"
             y="760.0722"
             ry="0.85743755" />
          <rect
             style="display:inline;fill:#4d8b83;fill-opacity:1;stroke:none;stroke-width:0.341582;paint-order:markers fill stroke"
             id="rect347753"
             width="29.140884"
             height="21.627842"
             x="3392.6782"
             y="759.86487"
             ry="0" />
          <text
             xml:space="preserve"
             style="font-style:normal;font-variant:normal;font-weight:bold;font-stretch:normal;font-size:5.66149px;line-height:0.8;font-family:Raleway;-inkscape-font-specification:'Raleway Bold';text-align:center;text-anchor:middle;display:inline;fill:#39695e;fill-opacity:1;stroke-width:0.468078;paint-order:markers fill stroke"
             x="3373.5723"
             y="767.57855"
             id="text347759"><tspan
               x="3373.5723"
               y="767.57855"
               style="font-style:normal;font-variant:normal;font-weight:bold;font-stretch:normal;font-size:5.66149px;font-family:Raleway;-inkscape-font-specification:'Raleway Bold';fill:#39695e;fill-opacity:1;stroke-width:0.468078"
               sodipodi:role="line"
               id="tspan347757">Maharashtra</tspan></text>
          <text
             xml:space="preserve"
             style="font-style:normal;font-variant:normal;font-weight:bold;font-stretch:normal;font-size:3.88056px;font-family:Raleway;-inkscape-font-specification:'Raleway Bold';text-align:start;text-anchor:start;display:inline;fill:#feefcc;fill-opacity:1;stroke-width:0.743594;paint-order:markers fill stroke"
             x="3397.7485"
             y="766.76978"
             id="text347763"><tspan
               id="tspan347761"
               x="3397.7485"
               y="766.76978"
               style="font-style:normal;font-variant:normal;font-weight:bold;font-stretch:normal;font-size:3.88056px;font-family:Raleway;-inkscape-font-specification:'Raleway Bold';text-align:start;text-anchor:start;fill:#feefcc;fill-opacity:1;stroke-width:0.743594"
               sodipodi:role="line">Mumbai  </tspan><tspan
               x="3397.7485"
               y="771.62048"
               style="font-style:normal;font-variant:normal;font-weight:bold;font-stretch:normal;font-size:3.88056px;font-family:Raleway;-inkscape-font-specification:'Raleway Bold';text-align:start;text-anchor:start;fill:#feefcc;fill-opacity:1;stroke-width:0.743594"
               sodipodi:role="line"
               id="tspan364533">Pune </tspan><tspan
               x="3397.7485"
               y="776.47119"
               style="font-style:normal;font-variant:normal;font-weight:bold;font-stretch:normal;font-size:3.88056px;font-family:Raleway;-inkscape-font-specification:'Raleway Bold';text-align:start;text-anchor:start;fill:#feefcc;fill-opacity:1;stroke-width:0.743594"
               sodipodi:role="line"
               id="tspan367005">Nashik</tspan></text>
        </g>
        <g
           id="g370767"
           transform="translate(2.6566341,176.20792)">
          <circle
             style="fill:#42a082;fill-opacity:1;stroke:none;stroke-width:0.3;paint-order:markers fill stroke"
             id="circle370749"
             cx="3346.0938"
             cy="765.77856"
             r="5.8277745" />
          <rect
             style="fill:#feefcc;fill-opacity:1;stroke:none;stroke-width:0.116578;paint-order:markers fill stroke"
             id="rect370751"
             width="40.754173"
             height="11.412747"
             x="3354.4236"
             y="760.0722"
             ry="0.85743755" />
          <rect
             style="display:inline;fill:#4d8b83;fill-opacity:1;stroke:none;stroke-width:0.268934;paint-order:markers fill stroke"
             id="rect370753"
             width="28.516464"
             height="11.62008"
             x="3392.6782"
             y="759.86487"
             ry="0" />
          <text
             xml:space="preserve"
             style="font-style:normal;font-variant:normal;font-weight:bold;font-stretch:normal;font-size:5.66149px;line-height:0.8;font-family:Raleway;-inkscape-font-specification:'Raleway Bold';text-align:center;text-anchor:middle;display:inline;fill:#39695e;fill-opacity:1;stroke-width:0.468078;paint-order:markers fill stroke"
             x="3373.5723"
             y="767.57855"
             id="text370757"><tspan
               x="3373.5723"
               y="767.57855"
               style="font-style:normal;font-variant:normal;font-weight:bold;font-stretch:normal;font-size:5.66149px;font-family:Raleway;-inkscape-font-specification:'Raleway Bold';fill:#39695e;fill-opacity:1;stroke-width:0.468078"
               sodipodi:role="line"
               id="tspan370755">Karnataka</tspan></text>
          <text
             xml:space="preserve"
             style="font-style:normal;font-variant:normal;font-weight:bold;font-stretch:normal;font-size:3.88056px;font-family:Raleway;-inkscape-font-specification:'Raleway Bold';text-align:start;text-anchor:start;display:inline;fill:#feefcc;fill-opacity:1;stroke-width:0.743594;paint-order:markers fill stroke"
             x="3397.7485"
             y="766.76978"
             id="text370765"><tspan
               x="3397.7485"
               y="766.76978"
               style="font-style:normal;font-variant:normal;font-weight:bold;font-stretch:normal;font-size:3.88056px;font-family:Raleway;-inkscape-font-specification:'Raleway Bold';text-align:start;text-anchor:start;fill:#feefcc;fill-opacity:1;stroke-width:0.743594"
               sodipodi:role="line"
               id="tspan370763">Bangalore</tspan></text>
        </g>
        <g
           id="g376502"
           transform="translate(76.752626,142.07381)">
          <circle
             style="fill:#42a082;fill-opacity:1;stroke:none;stroke-width:0.3;paint-order:markers fill stroke"
             id="circle376488"
             cx="3346.0938"
             cy="765.77856"
             r="5.8277745" />
          <rect
             style="fill:#feefcc;fill-opacity:1;stroke:none;stroke-width:0.13088;paint-order:markers fill stroke"
             id="rect376490"
             width="51.367218"
             height="11.412747"
             x="3354.4236"
             y="760.0722"
             ry="0.85743755" />
          <rect
             style="display:inline;fill:#4d8b83;fill-opacity:1;stroke:none;stroke-width:0.273749;paint-order:markers fill stroke"
             id="rect376492"
             width="29.546679"
             height="11.62008"
             x="3405.7908"
             y="760.0722"
             ry="0" />
          <text
             xml:space="preserve"
             style="font-style:normal;font-variant:normal;font-weight:bold;font-stretch:normal;font-size:5.66149px;line-height:0.8;font-family:Raleway;-inkscape-font-specification:'Raleway Bold';text-align:center;text-anchor:middle;display:inline;fill:#39695e;fill-opacity:1;stroke-width:0.468078;paint-order:markers fill stroke"
             x="3379.4001"
             y="767.57855"
             id="text376496"><tspan
               x="3379.4001"
               y="767.57855"
               style="font-style:normal;font-variant:normal;font-weight:bold;font-stretch:normal;font-size:5.66149px;font-family:Raleway;-inkscape-font-specification:'Raleway Bold';fill:#39695e;fill-opacity:1;stroke-width:0.468078"
               sodipodi:role="line"
               id="tspan376494">A.P/ Telengana</tspan></text>
          <text
             xml:space="preserve"
             style="font-style:normal;font-variant:normal;font-weight:bold;font-stretch:normal;font-size:3.88056px;font-family:Raleway;-inkscape-font-specification:'Raleway Bold';text-align:start;text-anchor:start;display:inline;fill:#feefcc;fill-opacity:1;stroke-width:0.743594;paint-order:markers fill stroke"
             x="3410.8611"
             y="766.76978"
             id="text376500"><tspan
               x="3410.8611"
               y="766.76978"
               style="font-style:normal;font-variant:normal;font-weight:bold;font-stretch:normal;font-size:3.88056px;font-family:Raleway;-inkscape-font-specification:'Raleway Bold';text-align:start;text-anchor:start;fill:#feefcc;fill-opacity:1;stroke-width:0.743594"
               sodipodi:role="line"
               id="tspan376498">Hyderabad</tspan></text>
        </g>
        <g
           id="g385792"
           transform="translate(-52.290955,105.23395)">
          <circle
             style="fill:#42a082;fill-opacity:1;stroke:none;stroke-width:0.3;paint-order:markers fill stroke"
             id="circle385774"
             cx="3346.0938"
             cy="765.77856"
             r="5.8277745" />
          <rect
             style="fill:#feefcc;fill-opacity:1;stroke:none;stroke-width:0.116578;paint-order:markers fill stroke"
             id="rect385776"
             width="40.754173"
             height="11.412747"
             x="3354.4236"
             y="760.0722"
             ry="0.85743755" />
          <rect
             style="display:inline;fill:#4d8b83;fill-opacity:1;stroke:none;stroke-width:0.267701;paint-order:markers fill stroke"
             id="rect385778"
             width="32.679176"
             height="11.845506"
             x="3389.9744"
             y="760.0722"
             ry="0" />
          <text
             xml:space="preserve"
             style="font-style:normal;font-variant:normal;font-weight:bold;font-stretch:normal;font-size:5.66149px;line-height:0.8;font-family:Raleway;-inkscape-font-specification:'Raleway Bold';text-align:center;text-anchor:middle;display:inline;fill:#39695e;fill-opacity:1;stroke-width:0.468078;paint-order:markers fill stroke"
             x="3373.5723"
             y="767.57855"
             id="text385782"><tspan
               x="3373.5723"
               y="767.57855"
               style="font-style:normal;font-variant:normal;font-weight:bold;font-stretch:normal;font-size:5.66149px;font-family:Raleway;-inkscape-font-specification:'Raleway Bold';fill:#39695e;fill-opacity:1;stroke-width:0.468078"
               sodipodi:role="line"
               id="tspan385780">Gujarat</tspan></text>
          <text
             xml:space="preserve"
             style="font-style:normal;font-variant:normal;font-weight:bold;font-stretch:normal;font-size:3.88056px;font-family:Raleway;-inkscape-font-specification:'Raleway Bold';text-align:start;text-anchor:start;display:inline;fill:#feefcc;fill-opacity:1;stroke-width:0.743594;paint-order:markers fill stroke"
             x="3394.5225"
             y="764.94489"
             id="text385790"><tspan
               x="3394.5225"
               y="764.94489"
               style="font-style:normal;font-variant:normal;font-weight:bold;font-stretch:normal;font-size:3.88056px;font-family:Raleway;-inkscape-font-specification:'Raleway Bold';text-align:start;text-anchor:start;fill:#feefcc;fill-opacity:1;stroke-width:0.743594"
               sodipodi:role="line"
               id="tspan385788">Ahmedabad</tspan><tspan
               x="3394.5225"
               y="769.79559"
               style="font-style:normal;font-variant:normal;font-weight:bold;font-stretch:normal;font-size:3.88056px;font-family:Raleway;-inkscape-font-specification:'Raleway Bold';text-align:start;text-anchor:start;fill:#feefcc;fill-opacity:1;stroke-width:0.743594"
               sodipodi:role="line"
               id="tspan392973">Sanand</tspan></text>
        </g>
        <g
           id="g394405"
           transform="translate(-33.975092,49.037552)">
          <circle
             style="fill:#42a082;fill-opacity:1;stroke:none;stroke-width:0.3;paint-order:markers fill stroke"
             id="circle394389"
             cx="3346.0938"
             cy="765.77856"
             r="5.8277745" />
          <rect
             style="fill:#feefcc;fill-opacity:1;stroke:none;stroke-width:0.116578;paint-order:markers fill stroke"
             id="rect394391"
             width="40.754173"
             height="11.412747"
             x="3354.4236"
             y="760.0722"
             ry="0.85743755" />
          <rect
             style="display:inline;fill:#4d8b83;fill-opacity:1;stroke:none;stroke-width:0.320178;paint-order:markers fill stroke"
             id="rect394393"
             width="32.679176"
             height="16.944809"
             x="3389.9744"
             y="760.0722"
             ry="0" />
          <text
             xml:space="preserve"
             style="font-style:normal;font-variant:normal;font-weight:bold;font-stretch:normal;font-size:5.66149px;line-height:0.8;font-family:Raleway;-inkscape-font-specification:'Raleway Bold';text-align:center;text-anchor:middle;display:inline;fill:#39695e;fill-opacity:1;stroke-width:0.468078;paint-order:markers fill stroke"
             x="3373.5723"
             y="767.57855"
             id="text394397"><tspan
               x="3373.5723"
               y="767.57855"
               style="font-style:normal;font-variant:normal;font-weight:bold;font-stretch:normal;font-size:5.66149px;font-family:Raleway;-inkscape-font-specification:'Raleway Bold';fill:#39695e;fill-opacity:1;stroke-width:0.468078"
               sodipodi:role="line"
               id="tspan394395">Rajasthan</tspan></text>
          <text
             xml:space="preserve"
             style="font-style:normal;font-variant:normal;font-weight:bold;font-stretch:normal;font-size:3.88056px;font-family:Raleway;-inkscape-font-specification:'Raleway Bold';text-align:start;text-anchor:start;display:inline;fill:#feefcc;fill-opacity:1;stroke-width:0.743594;paint-order:markers fill stroke"
             x="3394.5225"
             y="764.94489"
             id="text394403"><tspan
               x="3394.5225"
               y="764.94489"
               style="font-style:normal;font-variant:normal;font-weight:bold;font-stretch:normal;font-size:3.88056px;font-family:Raleway;-inkscape-font-specification:'Raleway Bold';text-align:start;text-anchor:start;fill:#feefcc;fill-opacity:1;stroke-width:0.743594"
               sodipodi:role="line"
               id="tspan394401">Jaipur</tspan><tspan
               x="3394.5225"
               y="769.79559"
               style="font-style:normal;font-variant:normal;font-weight:bold;font-stretch:normal;font-size:3.88056px;font-family:Raleway;-inkscape-font-specification:'Raleway Bold';text-align:start;text-anchor:start;fill:#feefcc;fill-opacity:1;stroke-width:0.743594"
               sodipodi:role="line"
               id="tspan397749">Jodhpur</tspan><tspan
               x="3394.5225"
               y="774.6463"
               style="font-style:normal;font-variant:normal;font-weight:bold;font-stretch:normal;font-size:3.88056px;font-family:Raleway;-inkscape-font-specification:'Raleway Bold';text-align:start;text-anchor:start;fill:#feefcc;fill-opacity:1;stroke-width:0.743594"
               sodipodi:role="line"
               id="tspan400145">Tapukara</tspan></text>
        </g>
      </g>
    </g>
    <text
       xml:space="preserve"
       style="font-style:normal;font-variant:normal;font-weight:200;font-stretch:normal;font-size:24.6944px;font-family:Raleway;-inkscape-font-specification:'Raleway Ultra-Light';font-variant-ligatures:normal;font-variant-caps:normal;font-variant-numeric:normal;font-variant-east-asian:normal;text-align:center;text-anchor:middle;display:inline;fill:#fef5e0;fill-opacity:1;stroke:none;stroke-width:2.453;stroke-miterlimit:4;stroke-dasharray:none;stroke-opacity:1;paint-order:markers fill stroke"
       x="-75.033974"
       y="-102.89889"
       id="text427462"
       inkscape:export-filename="C:\work\misc work\Aaranya\website\drawings\website exports for dev\other pages update\assets other pages\about\about preview.png"
       inkscape:export-xdpi="58.939999"
       inkscape:export-ydpi="58.939999"><tspan
         sodipodi:role="line"
         id="tspan427460"
         x="-75.033974"
         y="-102.89889"
         style="fill:#fef5e0;fill-opacity:1;stroke-width:2.453">Aaranya's Network</tspan></text>
    <text
       xml:space="preserve"
       style="font-style:normal;font-variant:normal;font-weight:bold;font-stretch:normal;font-size:16.9333px;font-family:Raleway;-inkscape-font-specification:'Raleway Bold';text-align:center;text-anchor:middle;display:inline;fill:#fef5e0;fill-opacity:1;stroke-width:1.4;paint-order:markers fill stroke"
       x="-101.63383"
       y="-85.030785"
       id="text427466"
       inkscape:export-filename="C:\work\misc work\Aaranya\website\drawings\website exports for dev\other pages update\assets other pages\about\about preview.png"
       inkscape:export-xdpi="58.939999"
       inkscape:export-ydpi="58.939999"><tspan
         id="tspan427464"
         x="-101.63383"
         y="-85.030785"
         style="font-style:normal;font-variant:normal;font-weight:bold;font-stretch:normal;font-size:16.9333px;font-family:Raleway;-inkscape-font-specification:'Raleway Bold';fill:#fef5e0;fill-opacity:1;stroke-width:1.4"
         sodipodi:role="line">Pan India Coverage</tspan></text>
  </g>
</svg>
