<svg xmlns:dc="http://purl.org/dc/elements/1.1/" xmlns:cc="http://creativecommons.org/ns#" xmlns:rdf="http://www.w3.org/1999/02/22-rdf-syntax-ns#" xmlns:svg="http://www.w3.org/2000/svg" xmlns="http://www.w3.org/2000/svg" xmlns:sodipodi="http://sodipodi.sourceforge.net/DTD/sodipodi-0.dtd" xmlns:inkscape="http://www.inkscape.org/namespaces/inkscape" width="41.201469mm" height="41.0144mm" viewBox="0 0 41.20147 41.014399" version="1.1" id="svg2576" sodipodi:docname="multipage-export-zcq6tn7y.svg">
  <defs id="defs2570"/>
  <sodipodi:namedview id="base" pagecolor="#ffffff" bordercolor="#666666" borderopacity="1.0" inkscape:pageopacity="0.0" inkscape:pageshadow="2" inkscape:zoom="0.25517133" inkscape:cx="2178.4614" inkscape:cy="1089.9753" inkscape:document-units="mm" inkscape:current-layer="layer1" inkscape:document-rotation="0" showgrid="false" inkscape:window-width="1920" inkscape:window-height="1001" inkscape:window-x="-9" inkscape:window-y="-9" inkscape:window-maximized="1"/>
  <metadata id="metadata2573">
    <rdf:RDF>
      <cc:Work rdf:about="">
        <dc:format>image/svg+xml</dc:format>
        <dc:type rdf:resource="http://purl.org/dc/dcmitype/StillImage"/>
      </cc:Work>
    </rdf:RDF>
  </metadata>
  <g inkscape:label="Layer 1" inkscape:groupmode="layer" id="layer1" transform="translate(258.89353,28.716302)">
    <path id="path51041" style="display:inline;mix-blend-mode:normal;fill:#ee7e19;fill-opacity:1;stroke-width:0.286618" d="m -240.6259,-28.7154 c -0.4902,-0.01 -1.0043,0.063 -1.2419,0.2275 -0.1679,0.1158 -0.9958,1.4358 -1.8395,2.9333 -0.8439,1.4977 -1.7793,3.0776 -2.0788,3.5112 l -0.5449,0.7881 h -3.9785 -3.9786 l -0.7311,0.9585 c -0.4021,0.5273 -0.7311,1.0461 -0.7311,1.1527 0,0.1065 2.4634,0.1591 5.4743,0.1164 l 5.4744,-0.078 2.5832,-4.4425 c 1.4206,-2.4434 2.6473,-4.6039 2.725,-4.801 0.088,-0.2234 -0.5022,-0.3579 -1.1325,-0.3662 z m 4.8907,0.034 c -0.2049,0 -0.4272,0.01 -0.6408,0.026 l -1.0358,0.091 2.7909,4.8008 2.7906,4.8008 h 5.5238 c 3.038,0 5.5237,-0.073 5.5237,-0.1624 0,-0.089 -0.3379,-0.6052 -0.7506,-1.1464 l -0.7506,-0.9841 h -4.1004 -4.1004 l -2.0621,-3.6049 c -1.1339,-1.9827 -2.2265,-3.668 -2.4276,-3.7451 -0.1257,-0.049 -0.4192,-0.075 -0.7607,-0.077 z m -9.7649,1.1675 c -0.8314,0.021 -6.2376,3.2443 -6.2376,3.7488 0,0.1196 0.9612,0.2173 2.1359,0.2173 h 2.1357 l 1.1367,-1.9346 c 0.6252,-1.0641 1.028,-1.9744 0.8951,-2.0231 -0.016,-0.01 -0.039,-0.01 -0.066,-0.01 z m 14.3232,0.01 c -0.044,0 -0.076,0.01 -0.092,0.024 -0.089,0.089 0.3264,1.0125 0.9239,2.0513 v 10e-5 l 1.0862,1.8887 2.3035,-0.01 2.3036,-0.011 -1.1464,-0.999 c -1.1502,-1.0022 -4.7146,-2.9285 -5.3783,-2.9428 z m -7.1399,2.53 c -0.1107,0 -1.2731,1.8656 -2.5834,4.146 l -2.3821,4.1459 -5.0765,0.082 -5.0763,0.082 2.4201,4.1561 c 1.3313,2.2857 2.4253,4.3075 2.4253,4.4927 0.01,0.3212 -2.7667,5.3519 -4.1928,7.6111 -0.3712,0.588 -0.675,1.1411 -0.675,1.229 0,0.088 2.2751,0.1438 5.0557,0.1245 3.9348,-0.027 5.1088,0.05 5.296,0.3476 0.1321,0.2105 1.2328,2.0917 2.4459,4.1804 1.213,2.0888 2.2806,3.7953 2.371,3.7907 0.091,-0.01 1.2619,-1.8877 2.6018,-4.1865 l 2.4363,-4.1797 4.9441,0.022 c 2.7194,0.012 4.9442,-0.09 4.9442,-0.2257 0,-0.136 -1.0318,-2.0484 -2.2928,-4.2502 -1.2612,-2.2017 -2.2931,-4.1842 -2.2931,-4.4052 0,-0.2212 1.0319,-2.1961 2.2931,-4.3888 1.261,-2.1927 2.2928,-4.0934 2.2928,-4.2236 0,-0.1303 -2.2265,-0.2368 -4.9479,-0.2368 h -4.9481 l -2.4286,-4.1561 c -1.3355,-2.2858 -2.5188,-4.1559 -2.6297,-4.1559 z m 0.046,4.0124 c 0.2015,0 2.2975,3.8228 2.2975,4.1903 0,0.2599 -4.5758,0.3656 -4.7227,0.1091 -0.1096,-0.1914 2.2074,-4.2994 2.4252,-4.2994 z m -18.5236,3.7589 c -0.1628,-0.016 -0.9619,1.9978 -0.9619,2.4483 0,0.2227 0.845,1.8764 1.8777,3.6751 l 1.8778,3.2704 -1.8757,3.267 -1.8758,3.2668 0.4996,1.1887 c 0.2748,0.6537 0.5642,1.1901 0.6428,1.1908 0.2103,0.01 5.1591,-8.5441 5.1591,-8.9101 0,-0.2337 -4.8773,-8.8259 -5.3298,-9.389 -0.01,-0.01 -0.01,-0.01 -0.014,-0.01 z m 37.0202,0.2121 c -0.3735,0.044 -1.0697,1.3118 -3.1899,4.9714 l -2.4406,4.213 2.6612,4.6018 2.6614,4.6018 0.4976,-0.9327 c 0.2738,-0.513 0.4985,-1.1659 0.5095,-1.4506 0.01,-0.2848 -0.8129,-1.9383 -1.8215,-3.6744 l -1.8336,-3.1565 2.012,-3.4299 2.0119,-3.4297 -0.5064,-1.326 c -0.2297,-0.6013 -0.3376,-1.0148 -0.5616,-0.9882 z m -27.1252,2.3376 c 1.045,0.01 2.0026,0.055 2.1049,0.1566 0.088,0.088 -0.3747,1.117 -1.0271,2.2869 -0.6527,1.17 -1.2608,2.1297 -1.3504,2.1334 -0.1816,0.01 -2.5591,-4.0622 -2.5591,-4.3797 0,-0.1326 1.4881,-0.2028 2.8317,-0.1972 z m 17.5147,0 c 1.1529,-0.01 2.3047,0.066 2.3905,0.2103 0.07,0.1182 -0.4056,1.1459 -1.0577,2.2836 -0.6523,1.1377 -1.2506,2.0699 -1.3292,2.0736 -0.2646,0.01 -2.5422,-4.1144 -2.3997,-4.3447 0.089,-0.1446 1.2432,-0.2198 2.3961,-0.2228 z m -12.7419,0.1387 h 3.8311 3.8306 l 1.9441,3.3388 1.9438,3.3388 -1.9099,3.3241 v 2e-4 l -1.91,3.3239 h -3.9247 -3.9245 l -1.8893,-3.3382 -1.8892,-3.3381 1.9491,-3.3257 z m 23.9902,3.4067 c -0.01,0 -0.014,0.01 -0.02,0.01 -0.1044,0.066 -0.5766,0.8399 -1.0496,1.7208 l -0.8597,1.6018 0.8497,1.5763 c 0.4673,0.8671 0.9399,1.5765 1.0503,1.5765 0.3166,0 0.6187,-4.1091 0.3981,-5.4147 -0.1028,-0.6084 -0.2634,-1.066 -0.3686,-1.0668 z m -40.4279,0.2036 c -0.045,-0.01 -0.081,0.011 -0.1081,0.053 -0.2669,0.4199 -0.3022,4.0747 -0.051,5.3284 h 2e-4 c 0.099,0.4927 0.2181,0.8958 0.2656,0.8958 0.048,0 0.492,-0.7087 0.9876,-1.575 l 0.9009,-1.575 -0.9408,-1.7112 c -0.4975,-0.9049 -0.8587,-1.3888 -1.0539,-1.4167 z m 11.4193,5.4182 c 0.096,0 0.3834,0.4191 0.6395,0.9315 0.2563,0.5123 0.8033,1.4796 1.216,2.1496 l 0.7502,1.2181 h -2.6199 c -1.4407,0 -2.5771,-0.1043 -2.5241,-0.2318 0.2864,-0.6956 2.3908,-4.0674 2.5383,-4.0674 z m 17.8014,0.059 c 0.1696,0.02 0.3082,0.3007 0.5532,0.7314 0.246,0.4324 0.8063,1.3988 1.2453,2.1476 l 0.7981,1.3615 h -2.6343 -2.6342 l 0.93,-1.6481 c 1.0906,-1.9331 1.4593,-2.6254 1.7419,-2.5924 z m -8.496,6.4805 c 0.9902,0.01 1.8729,0.058 1.885,0.1795 0.01,0.1 -0.4442,1.0091 -1.0101,2.021 -0.5659,1.012 -1.127,1.9004 -1.2468,1.9745 -0.218,0.1347 -2.3856,-3.4772 -2.3607,-3.9345 0.01,-0.1558 1.4594,-0.2431 2.7326,-0.2405 z m 5.9974,2.3459 -2.4956,4.2786 c -1.3725,2.3533 -2.4953,4.37 -2.4953,4.4816 0,0.1761 2.5862,-0.046 2.7319,-0.2345 0.029,-0.039 0.8317,-1.4246 1.7818,-3.0799 l 1.7277,-3.0096 3.6679,-0.081 c 3.8306,-0.084 4.0341,-0.1466 5.0277,-1.542 l 0.5793,-0.8137 h -5.2626 z m -20.1415,0.052 c -1.8687,0.01 -3.1847,0.064 -3.1847,0.156 0.01,0.1219 0.3899,0.6405 0.8559,1.1529 l 0.8474,0.9316 3.6584,0.01 3.6584,0.01 1.7515,3.0723 c 1.2563,2.2035 1.945,3.1265 2.4362,3.264 v 0 c 0.3766,0.1056 1.0502,0.2049 1.4964,0.2206 l 0.8116,0.029 -0.5736,-0.9314 c -0.3155,-0.5123 -1.4606,-2.4793 -2.5446,-4.3709 l -1.9709,-3.4395 -5.2176,-0.078 c -0.7174,-0.01 -1.4016,-0.015 -2.0244,-0.013 z m 4.4964,4.5339 -1.7667,0.01 -1.7668,0.01 0.7164,0.5671 c 0.3942,0.3118 1.479,0.9539 2.4104,1.4267 v -10e-5 c 0.9318,0.4728 1.8011,0.8597 1.932,0.8597 0.1311,0 -0.1586,-0.6449 -0.6435,-1.4331 z m 18.2453,0 -0.786,1.3017 c -0.4323,0.7158 -0.7863,1.3606 -0.7863,1.433 0,0.1988 0.1295,0.1681 1.2376,-0.2949 1.3827,-0.5777 3.6349,-1.955 3.6349,-2.2227 0,-0.1193 -0.7425,-0.2171 -1.6501,-0.2171 z" inkscape:export-filename="C:\work\misc work\Aaranya\drawings\export\LIGHT HOME.png" inkscape:export-xdpi="58.380001" inkscape:export-ydpi="58.380001"/>
  </g>
</svg>