<svg xmlns:dc="http://purl.org/dc/elements/1.1/" xmlns:cc="http://creativecommons.org/ns#" xmlns:rdf="http://www.w3.org/1999/02/22-rdf-syntax-ns#" xmlns:svg="http://www.w3.org/2000/svg" xmlns="http://www.w3.org/2000/svg" xmlns:sodipodi="http://sodipodi.sourceforge.net/DTD/sodipodi-0.dtd" xmlns:inkscape="http://www.inkscape.org/namespaces/inkscape" width="46.281502mm" height="48.4347mm" viewBox="0 0 46.281502 48.434699" version="1.1" id="svg2576" sodipodi:docname="multipage-export-bcydkuij.svg">
  <defs id="defs2570">
    <rect x="-182.28062" y="-155.58829" width="641.14954" height="159.89548" id="rect8740-6-6"/>
    <rect x="-1893.2883" y="-1487.8069" width="40.005932" height="32.689224" id="rect24237"/>
    <rect x="-1893.2883" y="-1487.8069" width="93.163788" height="18.132549" id="rect24239"/>
    <rect x="-1893.2883" y="-1487.8069" width="93.163788" height="18.132549" id="rect17270-0"/>
  </defs>
  <sodipodi:namedview id="base" pagecolor="#ffffff" bordercolor="#666666" borderopacity="1.0" inkscape:pageopacity="0.0" inkscape:pageshadow="2" inkscape:zoom="0.25517133" inkscape:cx="2509.7074" inkscape:cy="1276.2947" inkscape:document-units="mm" inkscape:current-layer="layer1" inkscape:document-rotation="0" showgrid="false" inkscape:window-width="1920" inkscape:window-height="1001" inkscape:window-x="-9" inkscape:window-y="-9" inkscape:window-maximized="1"/>
  <metadata id="metadata2573">
    <rdf:RDF>
      <cc:Work rdf:about="">
        <dc:format>image/svg+xml</dc:format>
        <dc:type rdf:resource="http://purl.org/dc/dcmitype/StillImage"/>
      </cc:Work>
    </rdf:RDF>
  </metadata>
  <g inkscape:label="Layer 1" inkscape:groupmode="layer" id="layer1" transform="translate(40.3241,107.3661)">
    <path id="rect51036" style="display:inline;fill:#daf1e4;fill-opacity:0.996078;stroke:none;stroke-width:7.30316;stroke-miterlimit:4;stroke-dasharray:none;stroke-opacity:1" d="m -40.3241,-107.3661 v 48.4338 h 10.221 c -1.5069,-2.7299 -2.6117,-4.9567 -2.6117,-5.3155 0,-0.9008 1.5984,-4.9253 1.9239,-4.8953 v 0 c 0.011,0 0.014,0 0.028,0.017 0.4716,0.5869 3.3383,5.5242 5.9837,10.1947 h 5.8533 c -0.1038,-0.1792 -0.203,-0.3522 -0.3085,-0.5333 l -4.8384,-8.3101 10.1497,-0.1633 10.1498,-0.1633 4.7635,-8.2894 c 2.2737,-3.9572 4.3202,-7.2817 4.9672,-8.093 v -22.8813 z m 41.862,15.2095 c 1.2603,0.017 2.4408,0.2855 2.2639,0.7322 -0.1554,0.3941 -2.6076,4.714 -5.4482,9.5994 l -5.1651,8.8827 -10.9456,0.156 c -6.0202,0.086 -10.9455,-0.02 -10.9455,-0.2325 0,-0.2133 0.6578,-1.2506 1.4619,-2.3048 l 1.4614,-1.9167 h 7.9551 7.955 l 1.0894,-1.5761 c 0.5989,-0.8667 2.4691,-4.0259 4.1563,-7.0202 1.687,-2.9943 3.3423,-5.6337 3.6778,-5.8653 0.475,-0.3272 1.5036,-0.4687 2.4836,-0.4547 z m -9.7462,2.4024 c 0.054,0 0.099,0 0.1318,0.017 0.2657,0.097 -0.5395,1.9178 -1.7896,4.0453 l -2.2727,3.8679 h -4.2705 c -2.3485,0 -4.2706,-0.1955 -4.2706,-0.4346 0,-1.0086 10.8097,-7.4531 12.4721,-7.4951 z M 5.9568,-76.37 c -1.1093,1.4297 -4.7552,7.9666 -4.56,8.3075 0.1411,0.2463 2.3287,0.3228 4.56,0.2811 z m -16.9634,12.3248 c -2.6863,-0.011 -5.6621,0.1294 -5.6621,0.3943 0,0.3225 1.2256,2.5769 2.4799,4.7186 h 5.2069 c 0.045,-0.079 0.085,-0.1465 0.1302,-0.2269 1.3045,-2.3394 2.2291,-4.3974 2.0537,-4.5728 -0.2043,-0.2036 -2.1192,-0.2992 -4.2086,-0.3132 z m 9.5431,0.2775 -2.8354,4.8354 H 5.9568 v -4.8354 z" inkscape:export-filename="C:\work\misc work\Aaranya\drawings\export\LIGHT HOME.png" inkscape:export-xdpi="58.380001" inkscape:export-ydpi="58.380001"/>
  </g>
</svg>