<?xml version="1.0" encoding="UTF-8" standalone="no"?>
<svg
   xmlns:dc="http://purl.org/dc/elements/1.1/"
   xmlns:cc="http://creativecommons.org/ns#"
   xmlns:rdf="http://www.w3.org/1999/02/22-rdf-syntax-ns#"
   xmlns:svg="http://www.w3.org/2000/svg"
   xmlns="http://www.w3.org/2000/svg"
   xmlns:xlink="http://www.w3.org/1999/xlink"
   xmlns:sodipodi="http://sodipodi.sourceforge.net/DTD/sodipodi-0.dtd"
   xmlns:inkscape="http://www.inkscape.org/namespaces/inkscape"
   width="546.80188mm"
   height="133.89835mm"
   viewBox="0 0 546.80188 133.89834"
   version="1.1"
   id="svg3304"
   sodipodi:docname="3 AARANYA HELP-1.svg"
   inkscape:version="1.0.2 (e86c870879, 2021-01-15, custom)">
  <defs
     id="defs3298">
    <linearGradient
       inkscape:collect="always"
       id="linearGradient845">
      <stop
         style="stop-color:#54a191;stop-opacity:1"
         offset="0"
         id="stop841" />
      <stop
         style="stop-color:#53a090;stop-opacity:0.49411765"
         offset="1"
         id="stop843" />
    </linearGradient>
    <linearGradient
       inkscape:collect="always"
       xlink:href="#linearGradient845"
       id="linearGradient83290"
       gradientUnits="userSpaceOnUse"
       x1="-2018.1466"
       y1="-1052.0083"
       x2="-1509.8658"
       y2="-918.10999"
       gradientTransform="translate(1932.104,1082.5736)" />
    <linearGradient
       inkscape:collect="always"
       id="linearGradient39735">
      <stop
         style="stop-color:#54a191;stop-opacity:1"
         offset="0"
         id="stop39731" />
      <stop
         style="stop-color:#54a191;stop-opacity:0;"
         offset="1"
         id="stop39733" />
    </linearGradient>
    <linearGradient
       inkscape:collect="always"
       xlink:href="#linearGradient39735"
       id="linearGradient837"
       gradientUnits="userSpaceOnUse"
       gradientTransform="translate(1932.104,903.37388)"
       x1="-2018.1466"
       y1="-1052.0083"
       x2="-1509.8658"
       y2="-918.10999" />
    <linearGradient
       inkscape:collect="always"
       xlink:href="#aaranya_gradient"
       id="linearGradient16397"
       gradientUnits="userSpaceOnUse"
       x1="-1839.6061"
       y1="-302.64188"
       x2="-1306.545"
       y2="-302.64188"
       gradientTransform="matrix(-1.3793498,0,0,1.3793498,-2034.4192,582.22279)" />
    <linearGradient
       inkscape:collect="always"
       id="aaranya_gradient">
      <stop
         style="stop-color:#ffe9b7;stop-opacity:0.88976377"
         offset="0"
         id="stop14061" />
      <stop
         style="stop-color:#c3e9d2;stop-opacity:0.64705884"
         offset="1"
         id="stop14063" />
    </linearGradient>
  </defs>
  <sodipodi:namedview
     id="base"
     pagecolor="#ffffff"
     bordercolor="#666666"
     borderopacity="1.0"
     inkscape:pageopacity="0.0"
     inkscape:pageshadow="2"
     inkscape:zoom="0.125"
     inkscape:cx="-1157.7699"
     inkscape:cy="827.20915"
     inkscape:document-units="mm"
     inkscape:current-layer="layer1"
     inkscape:document-rotation="0"
     showgrid="false"
     inkscape:window-width="1920"
     inkscape:window-height="1001"
     inkscape:window-x="-9"
     inkscape:window-y="-9"
     inkscape:window-maximized="1" />
  <metadata
     id="metadata3301">
    <rdf:RDF>
      <cc:Work
         rdf:about="">
        <dc:format>image/svg+xml</dc:format>
        <dc:type
           rdf:resource="http://purl.org/dc/dcmitype/StillImage" />
      </cc:Work>
    </rdf:RDF>
  </metadata>
  <g
     inkscape:label="Layer 1"
     inkscape:groupmode="layer"
     id="layer1"
     transform="translate(124.56373,-30.565241)">
    <g
       id="g858">
      <rect
         style="display:inline;mix-blend-mode:normal;fill:url(#linearGradient83290);fill-opacity:1;stroke-width:0"
         id="rect13922"
         width="546.80188"
         height="133.89835"
         x="-124.56373"
         y="30.565241"
         onclick="InkWeb.moveViewbox({from:this, to:'text24708'});" />
      <path
         id="path16348"
         style="display:inline;opacity:0.163934;mix-blend-mode:normal;fill:url(#linearGradient16397);fill-opacity:1;stroke-width:0.979083"
         d="m -99.081351,30.567179 c 2.6699,3.7472 3.3538,6.199 4.0312,12.6948 0.2543,2.4389 0.774,5.3168 1.1545,6.395 l 0.691405,1.96 -2.940405,1.3333 c -1.6173,0.7333 -3.0554,1.6313 -3.1951,1.9958 -0.3915,1.0201 0.875,2.4658 2.4334,2.7776 0.7713,0.1541 1.9098,0.6125 2.5296,1.0185 1.098105,0.7195 1.109005,0.7877 0.4454,2.6686 -0.3745,1.0615 -0.9068,4.1177 -1.1834,6.7918 -0.5956,5.7611 -2.0331,9.9567 -4.4266,12.9217 -0.940799,1.1652 -1.845399,2.2225 -2.010699,2.3497 -0.5752,0.4432 -0.8637,2.0867 -0.4749,2.7058 0.433,0.689 0.8281,0.7046 6.569599,0.2656 4.456005,-0.3406 7.207505,0.245 12.403905,2.6391 1.629,0.7506 4.2058,1.7106 5.7258,2.1332 l 2.7641,0.7685 -0.2795,2.9951 c -0.4327,4.6338 0.86,5.404091 4.377,2.6081 2.4059,-1.9124 2.8518,-1.9749 3.7972,-0.5322 0.3934,0.6004 2.3429,2.2977 4.3325,3.771791 6.8166,5.0502 9.1779,7.80387 10.8438,12.64577 1.197,3.47882 2.5512,4.28453 3.8153,2.26962 h 5e-4 c 0.3591,-0.57253 0.8958,-1.80699 1.1922,-2.74298 1.1586,-3.65713 3.9867,-7.16951 8.4522,-10.49861 2.3636,-1.7623 5.0147,-3.953991 5.8916,-4.870491 0.877,-0.9165 1.7924,-1.6665 2.0345,-1.6665 0.2418,0 1.3294,0.7289 2.4164,1.6195 1.0868,0.8906 2.4019,1.619 2.9228,1.619 1.4204,0 2.04,-1.5195 1.4645,-3.592 -0.8596,-3.0954 -0.6808,-3.6716 1.2496,-4.0241 0.9542,-0.1741 3.6087,-1.1102 5.8988,-2.0804 2.2903,-0.9702 5.1603,-2.1003 6.3779002,-2.511 2.4858,-0.8385 7.4025998,-0.9603 10.44489978,-0.2589 3.50460002,0.8081 4.42980002,-1.275 1.86030002,-4.1889 -3.41310002,-3.8702 -4.8773,-7.599 -5.5356,-14.0973 -0.2587,-2.552 -0.7615,-5.6312 -1.1176998,-6.8425 -0.6217,-2.1148 -0.6069,-2.2277 0.3699998,-2.8402 0.5598,-0.3507 1.7979,-0.8854 2.7523,-1.188 1.19459998,-0.3788 1.82099998,-0.8909 2.0102,-1.6443 0.3807,-1.517 0.066,-1.8568 -2.6143,-2.8205 -3.1215998,-1.1225 -3.3616998,-1.4896 -2.5264998,-3.8566 0.3801998,-1.0775 0.8941998,-4.104 1.1425998,-6.7257 0.2484,-2.6218 0.858,-5.8357 1.3544,-7.1422 0.5645,-1.4856 1.52109998,-3.2894 2.49649998,-4.824 H -4.0437458 c -0.047,0.093 -0.09,0.1814 -0.1395,0.277 -1.2279,2.3742 -2.3795,6.9715 -2.7151,10.8396 -0.3078,3.5464 -1.0024,7.091 -1.3901,7.091 -0.1062,0 -1.3485,-1.5594 -2.7580002,-3.4654 -1.4096,-1.906 -2.5631,-3.6687 -2.5631,-3.917 0,-0.9722 1.6938,-3.9824 3.1207,-5.546 1.6054002,-1.7594 1.7407002,-2.1781 1.0527002,-3.2649 -0.3432,-0.5418 -1.4612002,-0.6935 -5.0974002,-0.6935 -3.6349,0 -4.7546,-0.1525 -5.1,-0.694 -0.1003,-0.1573 -0.2196,-0.3761 -0.3477,-0.6268 h -19.9373 c 1.0599,0.3669 2.0784,0.8005 3.037,1.3063 4.7337,2.4986 8.7311,6.6245 11.3947,11.7606 3.6807,7.0971 3.804,15.8733 0.3255,23.228 -5.3287,11.2679 -18.5595,17.3885 -30.7811,14.2394 v 0 c -8.5242,-2.1962 -16.6657,-10.2544 -18.6396,-18.4484 -3.0554,-12.6839 2.3681,-25.2169 13.3118,-30.7625 1.0133,-0.5134 2.0814,-0.9532 3.1864,-1.3245 h -20.1177 c -0.5735,1.0009 -1.0117,1.2036 -1.9373,1.3772 -0.8615,0.1616 -2.9216,0.155 -4.578,-0.014 -4.7802,-0.4898 -5.4354,0.6871 -2.5286,4.5418 0.9773,1.2957 2.0334,3.008 2.3472,3.805 0.5461,1.3884 0.4666,1.5866 -1.8924,4.717 -1.3545,1.7971 -2.6999,3.2788 -2.9895,3.2928 -0.2898,0.014 -0.6501,-0.6509 -0.8004,-1.4779 v 0 c -0.1505,-0.827 -0.4929,-3.475 -0.7612,-5.8844 -0.5086,-4.5652 -1.207,-7.13 -2.781305,-10.2159 l -0.072,-0.1411 z m 238.666511,0 c -0.013,0.1975 -0.029,0.3996 -0.051,0.6113 l -0.2352,2.297 2.5182,-0.1803 c 1.6629,-0.1191 3.4804,0.034 5.3501,0.4501 1.5574,0.3465 3.1583,0.5442 3.5579,0.4397 0.5574,-0.1458 0.8874,0.1211 1.4185,1.1468 0.3806,0.7351 1.6007,2.2268 2.711,3.3145 1.2944,1.2679 2.3024,2.6758 2.8086,3.9232 0.4344,1.0701 0.8512,1.9456 0.9265,1.9456 0.076,0 0.8663,-0.5568 1.7576,-1.2371 0.9378,-0.7159 2.9323,-1.6547 4.7351,-2.2288 1.7131,-0.5455 3.3045,-1.2205 3.5367,-1.5001 0.5433,-0.6548 1.2228,-0.6469 1.7766,0.02 0.4432,0.5339 1.0916,0.7784 4.7884,1.8076 1.1195,0.3117 2.7926,1.1456 3.7186,1.8526 0.9261,0.707 1.762,1.2852 1.8578,1.2852 0.095,0 0.4639,-0.7589 0.818,-1.6862 v 0 c 0.3547,-0.9279 1.6683,-2.8919 2.9203,-4.3651 1.2522,-1.4734 2.3831,-3.0135 2.513,-3.4226 0.1938,-0.6109 0.5458,-0.7441 1.9699,-0.7441 0.9537,0 2.6259,-0.2655 3.7161,-0.5902 2.0215,-0.602 4.3989,-0.7131 6.3045,-0.2945 l 1.063,0.2336 -0.2475,-2.3203 c -0.027,-0.2558 -0.045,-0.5073 -0.058,-0.7576 h -6.5185 c -0.351,0.082 -0.6893,0.1756 -0.9751,0.2765 -2.0354,0.7181 -3.7813,0.7821 -4.5243,0.1654 -0.2154,-0.1788 -0.3338,-0.3059 -0.3401,-0.4419 h -6.2606 l 0.5003,1.0491 c 0.5968,1.2515 0.8127,1.3135 2.3626,0.6754 0.5126,-0.211 0.6387,-0.074 0.6387,0.6914 0,0.647 -0.6346,1.6457 -1.9704,3.0985 -1.0839,1.1791 -2.2484,2.5676 -2.5879,3.0856 -0.5622,0.858 -0.6875,0.8965 -1.4051,0.431 -0.4333,-0.281 -1.9323,-0.7972 -3.3316,-1.1467 v 0 c -3.6151,-0.9028 -5.6641,-3.0603 -2.9063,-3.0603 1.2784,0 1.2975,-0.022 1.186,-1.3684 l -0.1132,-1.3689 h -3.8318 -3.8323 l -0.1132,1.3689 c -0.1076,1.308 -0.063,1.3684 1.0036,1.3684 1.2671,0 1.4703,0.6621 0.4785,1.5596 -0.3512,0.3179 -1.938,1.002 -3.5259,1.5203 -1.5877,0.5183 -3.0905,1.1119 -3.3398,1.3188 -0.3329,0.2763 -0.6757,0.057 -1.2899,-0.8253 -0.4599,-0.6607 -1.4652,-1.7516 -2.2345,-2.4241 -0.7692,-0.6725 -1.6399,-1.6884 -1.9342,-2.2577 -0.6371,-1.2319 -0.3526,-2.3304 0.5106,-1.973 1.4943,0.6186 1.7226,0.5499 2.3156,-0.6935 l 0.5002,-1.0491 h -6.5794 c -0.071,0.094 -0.1745,0.2029 -0.3142,0.3426 -0.5969,0.5968 -0.7924,0.5968 -3.6861,0 -0.6276,-0.1291 -1.2537,-0.2424 -1.8428,-0.3426 z m 154.1157,0 c -0.336,0.2063 -0.6639,0.3932 -0.9762,0.5519 l -4.2421,2.1559 2.7936,3.4081 c 1.5364,1.8745 3.348,5.1706 4.0261,7.3246 0.6781,2.154 2.051,5.3482 3.0505,7.0983 1.7733,3.1039 1.7724,3.26 -0.037,6.3639 -1.0155,1.7501 -2.3409,5.0605 -2.9456,7.3562 -0.6043,2.2957 -2.427,5.6861 -4.0498,7.5344 l -2.9502,3.3605 3.2364,1.618 c 1.7802,0.8899 5.8973,4.4398 9.1488,7.8884 l 5.9129,6.2704 -0.1184,10.032991 c -0.066,5.5184 -0.4645,11.02486 -0.8868,12.23647 -0.713,2.04692 -0.4885,2.20295 3.175,2.20295 2.3481,0 6.4534,1.18797 10.1498,2.93679 3.4142,1.61502 6.7497,2.93632 7.4125,2.93677 0.6631,0 1.5017,1.21251 1.8639,2.69335 0.3627,1.48088 1.9131,4.93123 3.4458,7.66726 1.8554,3.31229 2.7864,6.37653 2.7864,9.17048 0,3.91345 0.1481,4.14774 2.203,3.47216 1.2115,-0.39841 6.5407,-1.0009 11.8427,-1.33843 l 9.6392,-0.61341 7.2497,7.09414 c 3.9877,3.90174 7.2497,7.77037 7.2497,8.59743 0,2.62625 2.8082,2.70415 5.8296,0.16174 1.6068,-1.35197 5.2482,-3.22263 8.092,-4.15687 2.8438,-0.93422 5.9999,-2.26769 7.0135,-2.96362 1.5208,-1.04466 2.2174,-1.01963 3.9936,0.14417 1.1834,0.77531 4.533,2.11685 7.4434,2.98122 2.9105,0.86431 6.5445,2.62556 8.075,3.91345 3.619,3.0454 4.2228,2.96285 6.1686,-0.84077 h 0.022 c 0.4548,-0.88926 1.5436,-2.33196 2.9202,-3.92843 v -8.80049 c -3.1656,3.35172 -7.0354,7.06615 -7.6687,7.08689 -0.3719,0.0111 -0.9156,-0.3643 -1.2072,-0.83664 l 0.046,-0.009 c -0.2922,-0.47225 -2.631,-1.38229 -5.1981,-2.0221 -5.4389,-1.35567 -9.3835,-3.6581 -8.5571,-4.99504 0.3182,-0.51486 1.4335,-0.93639 2.4789,-0.93639 1.4642,0 1.9001,-0.6826 1.9002,-2.97656 v -2.97707 l -8.0771,0.28422 c -8.0037,0.28159 -8.0803,0.30922 -8.3871,2.97706 -0.2701,2.33778 0.037,2.69235 2.2841,2.69235 1.5565,0 2.4406,0.46167 2.2102,1.15393 -0.4842,1.45124 -1.6885,2.10092 -9.5446,5.14852 -5.1264,1.98861 -6.4812,2.20599 -7.0807,1.13483 -0.4075,-0.72853 -2.9523,-3.01069 -5.655,-5.07153 -5.4319,-4.14272 -6.6036,-7.31256 -2.4065,-6.51018 2.4113,0.46093 2.8111,-0.0114 3.791,-4.48138 0.037,-0.16693 -3.2241,-1.62579 -7.2461,-3.24168 -6.8711,-2.76058 -7.3884,-2.83445 -8.5669,-1.22266 -1.7082,2.33606 -1.586,3.05308 0.7312,4.29328 3.5446,1.89701 1.0052,2.92283 -7.1836,2.90214 l -8.0196,-0.0185 -3.2014,-6.58823 c -1.761,-3.62374 -3.1934,-7.35994 -3.1822,-8.30234 0.037,-1.86436 1.4977,-2.30364 2.4676,-0.73432 0.9743,1.57662 2.8603,1.13165 4.1831,-0.987 1.101,-1.76292 0.6712,-2.5231 -4.162,-7.35616 -4.8331,-4.83309 -5.5937,-5.2634 -7.3566,-4.16253 -2.1186,1.32313 -2.5639,3.20932 -0.987,4.18372 1.3784,0.85186 1.2191,2.44668 -0.2445,2.45153 -0.6731,0 -4.4176,-1.42939 -8.3209,-3.18172 l -7.0978,-3.18635 -0.155,-6.36395 c -0.2665,-10.862891 0.3217,-12.784291 2.7895,-9.114191 1.2449,1.8511 1.7759,1.9929 3.8747,1.0367 2.6866,-1.2241 2.6788,-1.3066 -0.9204,-9.8428 -2.55,-6.0481 -2.5846,-6.08 -5.7433,-5.254 -1.595,0.4171 -1.948,1.0996 -1.5766,3.0443 0.7727,4.0426 -1.4243,3.001 -7.3758,-3.4959 -5.2321,-5.7121 -5.4359,-6.1265 -4.2085,-8.567 0.7098,-1.4105 1.6027,-3.8865 1.9838,-5.5019 1.4665,-6.2125 5.456,-9.3444 5.456,-4.283 0,1.5665 0.5464,1.9027 2.6924,1.6557 2.6868,-0.3093 2.6928,-0.3258 2.6928,-8.1426 0,-7.7617 -0.037,-7.8353 -2.6174,-8.1349 -2.0985,-0.2429 -2.68,0.1453 -2.9368,1.958 -0.5547,3.9132 -2.1748,2.2361 -5.4327,-5.6234 l -3.1533,-7.6089 2.1921,-2.0443 c 0.6477,-0.6038 1.595,-1.6284 2.5704,-2.7575 z m 28.7481,0 c -0.9862,0.7767 -2.2808,1.9372 -3.6499,3.3062 -4.499,4.4992 -4.7389,4.9818 -3.4778,6.9939 0.7453,1.1886 1.879,3.8133 2.5192,5.8327 0.6401,2.0194 1.4887,3.6716 1.8857,3.6716 0.3967,0 1.461,-1.5503 2.3642,-3.4447 0.9033,-1.8944 2.73,-3.94 4.0591,-4.5455 l 2.4164,-1.1007 -1.9192,-2.4407 c -1.0557,-1.3421 -1.9193,-3.8493 -1.9193,-5.5717 0,-1.0135 -0.087,-1.9962 -0.2191,-2.7011 z m 5.118,0 c 0.053,0.3508 0.102,0.6791 0.167,1.0898 0.9383,5.9349 0.724,5.5359 3.4127,6.3598 1.458,0.4469 2.7931,-0.1955 4.8343,-2.3259 1.5508,-1.6188 3.7065,-2.943 4.7904,-2.943 1.5327,0 1.7094,-0.2611 0.7958,-1.1751 -0.196,-0.196 -0.3807,-0.5494 -0.5436,-1.0056 z m 19.4428,0 c 0.5341,0.1498 0.9921,0.1533 1.4795,0 z m 15.3706,0 c -0.9885,0.7287 -1.4273,1.7371 -1.4273,3.2122 0,3.5799 2.3941,4.349 4.3321,1.3916 1.301,-1.9856 1.7772,-3.6095 1.5337,-4.6038 z m 15.6606,0 c -3.6123,2.6409 -6.716,6.2228 -8.9504,10.7729 -2.3332,4.7511 -2.7476,6.7977 -2.7228,13.4375 0.037,9.0894 2.4397,15.1978 8.2925,21.0504 7.4147,7.4146 20.4795,10.5799 30.3516,7.3535 7.7313,-2.5267 13.7613,-8.1311 17.2263,-15.014 v -27.0361 c -2.2612,-4.4174 -5.4111,-7.9453 -9.081,-10.5642 z m -24.0601,0.9999 c -2.288,0.1158 -4.7764,3.3404 -4.7764,6.7686 0,4.0117 3.4729,5.628 5.8746,2.7342 v 0 c 0.6705,-0.8078 1.9143,-1.4686 2.7636,-1.4686 1.2015,0 1.2835,-0.2611 0.37,-1.1747 -0.6463,-0.6462 -1.1751,-2.1729 -1.1751,-3.3925 0,-1.2196 -0.8201,-2.6565 -1.8226,-3.1931 -0.3929,-0.2103 -0.8098,-0.2953 -1.2335,-0.2739 z m -423.931206,1.0144 c 0.2408,0 -0.7026,1.3015 -2.0965,2.8918 -2.7822,3.1738 -4.9043,6.9954 -6.1733,11.1187 -0.9493,3.0844 -1.2455,2.7189 -1.7301,-2.1363 -0.1731,-1.7394 -0.7191,-4.2258 -1.2128,-5.5247 -0.4936,-1.2989 -0.8504,-2.3906 -0.7928,-2.4262 0.058,-0.035 1.3538,-0.3326 2.8805,-0.6599 1.5269,-0.3272 4.1065,-1.1954 5.7319,-1.9291 1.6256,-0.7338 3.1524,-1.3343 3.3931,-1.3343 z m 41.8765,0 c 0.2266,0 1.4454,0.499 2.7089,1.1085 2.7082,1.3065 6.8572,2.5931 8.3628,2.5931 h 1.0661 l -0.9007,2.2846 c -0.7066,1.7929 -1.8619,8.19 -1.8619,10.3105 0,0.9797 -0.4431,0.058 -1.3932,-2.8965 -1.2202,-3.7951 -3.3483,-7.4939 -6.2963,-10.9445 -1.1537,-1.3505 -1.9122,-2.4557 -1.6857,-2.4557 z m 423.689906,2.1234 c 6.4208,0.041 12.7763,3.1016 16.739,8.7276 2.6089,3.704 2.9373,4.9628 2.9373,11.2562 0,9.1002 -2.7734,13.7881 -10.4071,17.5922 -5.8716,2.926 -11.016,3.2565 -16.3044,1.0475 -7.4794,-3.1243 -12.887,-10.8946 -12.9104,-18.5508 0,-5.9864 3.9705,-13.5773 8.8207,-16.7871 3.3967,-2.2478 7.2724,-3.3103 11.1249,-3.2856 z m -54.8106,1.402 c -1.1103,-0.038 -1.8899,0.6936 -3.5713,2.7006 -2.8987,3.4598 -2.9439,6.0662 -0.1778,10.3399 2.0067,3.103 4.3228,2.7362 7.8672,-1.2464 v 0 c 1.6834,-1.8913 2.7318,-3.6421 2.3295,-3.8907 -0.4022,-0.2482 -0.999,-1.79 -1.326,-3.4256 -0.4104,-2.0528 -1.4277,-3.2906 -3.285,-3.9967 -0.757,-0.2878 -1.3299,-0.4638 -1.8346,-0.4811 z m 17.8067,7.9003 c -2.5889,0 -4.3129,2.951 -2.9688,5.0818 1.2237,1.94 2.9703,2.695 3.653,1.5787 0.2665,-0.4322 0.6354,-2.1077 0.8242,-3.7232 0.2738,-2.3491 -0.037,-2.9373 -1.5084,-2.9373 z m -29.6742,1.4774 c -2.2747,0.01 -3.1668,0.8104 -5.2328,4.7155 l -2.4907,4.7077 2.8184,4.5858 c 3.3371,5.4306 6.9428,6.3047 8.5514,2.0738 0.5251,-1.3814 0.9545,-2.8985 0.9545,-3.3714 0,-0.4729 0.8907,-1.4838 1.9797,-2.2464 1.7836,-1.2493 1.8263,-1.5136 0.433,-2.6701 -0.8507,-0.7059 -2.1595,-2.7504 -2.9088,-4.5434 -1.0854,-2.5979 -1.9187,-3.2581 -4.1047,-3.2515 z m -343.235906,2.295 1.5348,2.0479 c 0.8441,1.1264 2.569,2.8371 3.8334002,3.8013 l 2.2991,1.7534 -1.524,1.3038 c -0.8381,0.7172 -1.6732,1.3126 -1.8557002,1.3229 -0.1828,0.011 -1.2071,1.1774 -2.2763,2.5937 l -1.9441,2.575 -0.7705,-2.4898 c -0.4237,-1.3695 -1.152,-3.1362 -1.6185,-3.9259 v 0 c -0.8224,-1.3921 -0.8222,-1.4747 0,-2.7321 0.4675,-0.7132 1.1805,-2.4112 1.5849,-3.7734 z m -69.4154,0.02 0.5933,2.3419 c 0.3262,1.2881 0.9862,2.9875 1.466,3.7765 l 0.8723,1.4351 -1.3436,2.8407 c -0.7392,1.5625 -1.3445,3.3485 -1.3446,3.9687 -5e-4,0.9675 -0.4624,0.6266 -3.253,-2.4019 -1.7888,-1.9414 -3.6709,-3.6629 -4.1822,-3.8251 -0.8333,-0.2645 -0.7421,-0.431 0.8749,-1.6025 0.9925,-0.7189 2.8197,-2.4828 4.0607,-3.9202 z m 434.096506,1.5063 c -0.071,0 -0.1422,0 -0.2139,0 -1.4759,0.055 -3.1159,1.1241 -3.9,3.0169 -1.0236,2.4713 -0.962,3.3169 0.3932,5.3852 2.1714,3.314 4.6265,3.0775 6.7484,-0.6491 0.9673,-1.6995 1.3761,-3.3489 0.9075,-3.6654 -0.468,-0.3164 -1.1358,-1.3464 -1.4837,-2.2887 -0.4398,-1.1925 -1.3887,-1.7681 -2.4515,-1.7999 z m 7.5417,8.8982 c -2.2946,0 -3.5542,4.3298 -1.8552,6.3769 1.2888,1.5532 3.5104,1.9328 4.2209,0.7214 v 0 c 0.2368,-0.4038 0.2149,-2.166 -0.052,-3.9161 -0.3478,-2.2812 -1.0018,-3.1822 -2.3125,-3.1822 z m -16.5417,0.138 c -0.3803,-0.011 -0.7981,0 -1.2355,0.045 -2.8017,0.2701 -3.3422,0.8129 -4.5212,4.5388 -1.3044,4.1231 -1.2679,4.3058 1.4071,7.0982 2.63,2.7451 4.3663,3.293 7.0306,2.218 0.6732,-0.2716 1.2261,-1.0079 1.2294,-1.6361 0,-0.6283 0.6009,-2.2821 1.3281,-3.6752 1.1981,-2.2966 1.1065,-2.7402 -0.985,-4.7532 -1.2689,-1.2213 -2.3073,-2.6429 -2.3073,-3.159 0,-0.3871 -0.8052,-0.6435 -1.9462,-0.6764 z m -22.1355,0.6454 c -0.2014,0 -0.3722,0.1265 -0.522,0.3628 -0.4536,0.716 -0.8321,1.9691 -0.8403,2.7848 0,0.8157 -0.8938,3.122 -1.9673,5.1253 l -1.9523,3.6427 4.5067,4.1754 c 2.479,2.2967 4.8994,4.323 5.379,4.5026 0.4801,0.1794 0.8728,-1.4728 0.8728,-3.6716 v 0 c 0,-2.6575 0.6393,-4.6378 1.9079,-5.9061 1.8897,-1.8898 1.8897,-1.9137 0,-2.5125 -1.0476,-0.3327 -3.0705,-2.5935 -4.4948,-5.024 -1.4099,-2.4056 -2.2887,-3.4874 -2.8929,-3.4794 z m -338.079706,2.7104 c 0.081,0 0.1334,0.1079 0.1334,0.3628 0,2.1177 1.1462,8.5213 1.8402,10.2821 l 0.8785,2.2288 -2.3095,0.3064 c -1.2702,0.1685 -3.912,1.0204 -5.8704,1.8929 -1.9585,0.8726 -3.7323,1.5924 -3.9424,1.5999 -0.2101,0.01 0.7896,-1.3917 2.2221,-3.1093 2.7172,-3.258 5.6945,-8.8621 6.1283,-11.5353 0.1669,-1.0286 0.6757,-2.0246 0.9198,-2.0283 z m -60.1916,0.2367 c 0.1036,0.01 0.1997,0.3153 0.3555,0.9772 0.7859,3.3395 4.3263,10.55 5.7846,11.7807 1.1619,0.9806 3.3886,3.6918 3.0319,3.6918 -0.2431,0 -2.1061,-0.7261 -4.1393,-1.6134 -2.0329,-0.8873 -4.6851,-1.7466 -5.8937,-1.9099 -1.2088,-0.1634 -2.1976,-0.3221 -2.1973,-0.353 1e-4,-0.031 0.4089,-1.1312 0.9085,-2.4453 0.4993,-1.3141 1.0497,-3.8127 1.2232,-5.5522 0.1731,-1.7393 0.4612,-3.5669 0.6387,-4.0612 0.1223,-0.3399 0.2072,-0.5192 0.2879,-0.5147 z m -10.9074,0.6191 c 0.4274,0.042 1.4437,1.1263 2.9492,3.1517 2.533,3.4081 2.6202,3.6183 2.0784,4.9956 -0.3109,0.7907 -1.3647,2.4978 -2.342,3.7936 -1.8541,2.4587 -2.1732,3.5796 -1.1983,4.208 0.3181,0.2051 2.6353,0.3733 5.1495,0.3741 h 4.5713 l 1.7363,3.9326 c 0.9549,2.1628 1.654,4.0736 1.5529,4.2457 -0.2597,0.4426 -2.1749,-0.1689 -6.5391,-2.0877 v 0 c -4.4612,-1.9614 -8.5256,-3.083 -11.1719,-3.083 h -1.907405 l 1.1177,-2.2055 c 1.531805,-3.0228 2.062505,-5.2078 2.784905,-11.4629 0.3409,-2.9514 0.8234,-5.5692 1.0717,-5.8177 0.037,-0.037 0.086,-0.052 0.1468,-0.046 z m 81.4209002,0.1003 c 0.7244,0 0.9297,0.8196 1.5885,6.3339 0.6551,5.4813 1.8019,9.6523 3.2715998,11.8954 l 0.7881,1.2025 h -2.3486998 c -2.5163,0 -6.7122002,1.2493 -13.0209002,3.8778 -2.1605,0.9001 -4.0983,1.4663 -4.3062,1.2583 -0.2079,-0.2079 0.4671,-2.2075 1.5002,-4.4436 l 1.8784,-4.0659 4.6323,0.2553 c 4.2296,0.2331 4.6736002,0.179 5.1046002,-0.6263 0.5229,-0.977 0.033,-2.2246 -1.5141002,-3.8603 -0.9978,-1.0545 -2.6732,-4.1103 -2.6732,-4.8756 0,-0.6723 4.6063002,-6.9515 5.0994002,-6.9515 z m 360.5718058,4.4927 c -1.5286,-0.027 -2.4454,1.2996 -2.6666,3.9455 -0.233,2.807 0.1781,3.9042 1.9317,5.132 2.5137,1.7605 2.8328,1.8203 4.3321,0.8123 0.5885,-0.3957 1.3213,-2.0412 1.6283,-3.6566 0.4471,-2.3498 0.081,-3.2931 -1.8314,-4.717 -1.3394,-0.9974 -2.477,-1.5003 -3.3941,-1.5162 z m -20.5456,3.929 c -2.2236,-0.025 -3.6584,2.474 -4.0886,7.3855 -0.4411,5.0377 -0.4086,5.1075 3.7269,8.0776 4.7308,3.3972 5.2291,3.5051 7.7329,1.6743 v 0 c 1.3489,-0.9862 1.6578,-2.0686 1.2185,-4.2638 -0.3756,-1.8777 -0.055,-3.7015 0.8832,-5.0421 1.3245,-1.891 1.3118,-2.1006 -0.1297,-2.1006 -0.8796,0 -2.921,-1.3217 -4.5362,-2.9373 -1.8559,-1.8558 -3.4743,-2.7788 -4.8085,-2.7936 z m 30.9062,1.1394 c -0.1381,0.01 -0.2664,0.047 -0.3819,0.1189 -1.7777,1.0989 -1.2481,5.2967 0.8066,6.3965 2.3925,1.2802 2.5486,1.2714 3.7724,-0.2103 1.1443,-1.3853 -2.1969,-6.1743 -4.056,-6.3046 -0.048,0 -0.095,0 -0.1411,0 z m -15.673,6.7815 c -2.3497,-0.012 -3.4096,1.991 -3.4096,6.2167 0,4.4063 0.5524,5.0482 6.1893,7.1913 1.9406,0.7379 2.7832,0.5018 4.3667,-1.2232 h -0.01 c 1.5013,-1.6351 1.7576,-2.6714 1.0924,-4.4126 -0.5137,-1.3448 -0.5023,-2.9618 0.037,-3.9517 0.6762,-1.2627 0.4937,-1.6987 -0.7389,-1.7699 -0.8997,-0.052 -3.0322,-0.6699 -4.7393,-1.3736 -1.0784,-0.4446 -2.0047,-0.6728 -2.788,-0.677 z m -371.926106,2.9812 -1.156,3.0717 c -0.636,1.6894 -1.156,3.8651 -1.156,4.8348 0,0.9696 -0.1203,1.8831 -0.2672,2.0299 -0.1469,0.1467 -1.1353,-0.117 -2.1973,-0.5855 -1.0621,-0.4685 -3.3419,-1.0965 -5.0668,-1.3958 l -3.1363,-0.5441 1.8743,-2.0335 c 1.0308,-1.1182 2.0989,-2.526 2.3735,-3.129 0.4218,-0.9258 0.9417,-1.1398 3.344,-1.3762 1.5644,-0.1538 3.4165,-0.4132 4.116,-0.5762 z m -47.4617,0 c 0.3678,-0.01 1.2279,0.1459 2.2236,0.4062 1.3276,0.3444 3.2014,0.6263 4.1636,0.6263 1.1278,0 1.7498,0.2138 1.7498,0.6015 0,0.3309 1.0391,1.7675 2.3089,3.1921 l 2.3084,2.5905 -3.0293,0.5271 c -1.6661,0.2901 -4.0061,0.9129 -5.2002,1.3834 l -2.1709,0.8553 -0.321,-2.4206 c -0.1769,-1.3311 -0.7492,-3.5459 -1.2722,-4.9216 -0.5228,-1.3759 -0.9512,-2.6272 -0.9514,-2.7807 0,-0.038 0.068,-0.058 0.1907,-0.06 z m 434.448906,0.4362 c -0.7145,-0.024 -1.4499,0.2356 -2.1926,0.7787 -1.5752,1.1519 -1.6546,1.7451 -0.6444,4.8065 0.6339,1.9208 1.6693,3.4983 2.3006,3.5057 0.6313,0.01 2.029,0.2466 3.1063,0.5317 1.26,0.3334 2.3571,-0.1306 3.0773,-1.3012 0.7541,-1.2258 0.8071,-2.3771 0.1628,-3.5284 -0.5258,-0.9399 -0.6947,-2.3923 -0.3741,-3.2272 0.4185,-1.0907 0.1444,-1.3505 -0.9679,-0.923 -0.853,0.3272 -2.296,0.1964 -3.2071,-0.2914 -0.4107,-0.2199 -0.8322,-0.3368 -1.2609,-0.3514 z m 11.1657,0.9462 c -0.4594,-0.01 -0.8118,0.2564 -1.2314,0.7622 -0.8388,1.0106 -0.8531,1.8991 -0.055,3.3905 1.2267,2.2921 5.4186,2.7491 6.2136,0.6775 0.2886,-0.7541 -0.6986,-2.2404 -2.2536,-3.39 -1.3151,-0.9723 -2.083,-1.4307 -2.6738,-1.4402 z m 45.651,0.2987 c -2.0493,0 -5.6432,3.1391 -5.1289,4.4798 0.8392,2.1867 5.9514,1.7628 6.687,-0.5545 0.6731,-2.1207 -0.044,-3.9253 -1.5581,-3.9253 z m -458.577706,1.017 c 0.7897,-0.074 -0.3551,1.0797 -2.9373,2.8421 -1.5817,1.0795 -3.5889,2.8532 -4.4602,3.9419 l -1.5844,1.9798 -2.8215,-2.7859 c -1.5517,-1.532 -3.6979,-3.3956 -4.7702,-4.1414 -1.072,-0.7458 -1.8684,-1.4369 -1.7694,-1.5358 0.098,-0.099 1.4569,0.072 3.0184,0.3788 3.2136,0.6322 12.4739,0.3605 14.4627,-0.4243 0.3943,-0.1556 0.6797,-0.2381 0.8619,-0.2552 z m 367.125406,2.8049 -0.4894,6.656 -0.4899,6.655891 3.4272,1.0594 c 1.8846,0.5826 4.9227,1.8388 6.7516,2.7915 3.2134,1.6742 3.3002,1.6715 2.5957,-0.08 -1.488,-3.7008 -1.7667,-9.141091 -0.5437,-10.614791 1.0465,-1.2607 0.8051,-1.478 -1.6402,-1.478 -1.5767,0 -4.3843,-1.1227 -6.2389,-2.4949 z m 78.5492,2.2764 c -0.4636,0.014 -1.091,0.1221 -1.9358,0.3033 -4.0326,0.865 -4.6509,1.2436 -4.6509,2.8526 0,2.3789 4.6727,3.3051 6.658,1.3198 0.6461,-0.6462 1.1752,-2.0027 1.1752,-3.0148 0,-1.0748 -0.2266,-1.4929 -1.2465,-1.4609 z m -18.7709,0.2976 c -2.2133,0.04 -3.0737,1.2891 -1.8903,3.1771 1.2252,1.9546 4.1695,2.5785 6.1396,1.3012 2.0315,-1.317 0.6512,-3.6853 -2.5094,-4.3051 -0.6464,-0.1268 -1.2292,-0.1823 -1.7399,-0.1732 z m 24.2998,1.7235 c -0.2532,-0.01 -0.3664,0.236 -0.3664,0.7405 0,0.6967 -0.7002,2.0407 -1.5565,2.9869 -0.9652,1.0665 -1.3125,2.4911 -0.9136,3.7486 0.8576,2.702491 6.3704,2.792491 8.7684,0.1431 2.3009,-2.5426 1.6102,-5.3766 -1.4128,-5.7965 -1.3406,-0.1861 -2.9887,-0.7913 -3.6618,-1.3441 -0.379,-0.3114 -0.6604,-0.4716 -0.8573,-0.4785 z m -31.6725,0.2981 c -0.1801,-0.01 -0.3309,0.096 -0.4615,0.3075 -0.3627,0.5861 -1.7046,1.0661 -2.9827,1.0661 -3.1147,0 -4.2037,3.4017 -1.9028,5.9443 2.0851,2.304091 8.0522,2.586091 8.8837,0.4196 v 0 c 0.3109,-0.8077 0.2774,-2.0192 -0.07,-2.6923 -1.8071,-3.4958 -2.8242,-5.0104 -3.4674,-5.0452 z m -434.969306,0.9116 c 0.1957,0 0.3408,0.022 0.4191,0.052 0.8425,0.3233 2.8649,3.5489 3.7946,6.0534 0.6679,1.798391 1.0181,2.192091 1.9503,2.192091 0.9528,0 1.4139,-0.5607 2.8561,-3.470091 2.4333,-4.909 2.6914,-5.0649 7.2724,-4.4008 2.0562,0.298 3.8731,0.6763 4.0375,0.8408 0.4879,0.4879 -0.7552,1.6823 -4.9769,4.7816 -4.1502,3.046891 -6.5922,5.453891 -8.0678,7.951991 -0.4768,0.8073 -0.8918,1.4676 -0.9219,1.4676 -0.03,0 -0.8246,-1.1183 -1.7658,-2.4851 -1.7335,-2.5168 -4.3705,-4.9605 -8.1581,-7.559791 -1.145,-0.7859 -2.6801,-2.0604 -3.4107,-2.8318 l -1.3286,-1.4025 1.5601,-0.2569 c 0.8578,-0.1411 2.6916,-0.4463 4.0747,-0.678 1.0375,-0.1737 2.0777,-0.2684 2.665,-0.2542 z m 399.957506,0.8206 c -0.9099,-0.057 -1.4587,0.407 -2.5053,1.4537 -1.8564,1.8565 -1.8839,2.2307 -0.5224,7.125091 1.4021,5.0395 1.5553,5.1961 6.2652,6.41722 6.117,1.58594 5.6957,1.61811 7.6843,-0.57932 v 0 c 1.5853,-1.7521 1.5894,-2.0669 0.064,-5.0214 -0.8963,-1.7335 -1.4282,-4.207891 -1.1813,-5.498391 0.3552,-1.8642 0.1078,-2.2374 -1.2206,-1.8164 -0.918,0.2916 -3.3477,-0.1716 -5.3986,-1.0283 -1.549,-0.6473 -2.4751,-1.0075 -3.1828,-1.0522 z m 50.8997,0.6584 c -0.09,-0.01 -0.1384,0.2347 -0.1684,0.7204 -0.04,0.6863 -1.1788,1.6668 -2.525,2.1786 -3.3545,1.2754 -3.3279,5.159491 0.044,6.696791 2.9296,1.335 3.1883,1.3326 6.073,-0.059 v 0 c 3.0371,-1.4648 2.9519,-5.422191 -0.1406,-6.598591 -1.2901,-0.4903 -2.5773,-1.4708 -2.8603,-2.1787 -0.2004,-0.5008 -0.3333,-0.7537 -0.4237,-0.7596 z m -29.0871,0.4165 c -2.5704,0.024 -6.223,0.8848 -7.5856,2.2474 -1.9229,1.9229 -1.9225,1.9503 0.1323,5.978991 1.9342,3.7915 2.3298,4.0473 6.2549,4.0473 2.3048,0 4.7186,-0.5291 5.3651,-1.1752 v 0 c 1.5897,-1.59 1.4772,-3.3275 -0.4016,-6.194891 -0.8671,-1.3232 -1.3574,-2.9756 -1.0898,-3.6722 0.3351,-0.8732 -0.9171,-1.248 -2.6758,-1.2314 z m 55.857,2.6195 c -0.2953,0.7773 -0.7261,1.6465 -1.2102,2.3853 -1.2844,1.960391 -1.3869,2.937691 -0.5106,4.861291 0.4681,1.0271 0.9157,1.6297 1.7208,1.9756 z m -36.5481,5.318991 c -0.3013,0.015 -0.6368,0.1249 -1.0232,0.323 -0.9263,0.4751 -2.8344,1.3146 -4.2406,1.8655 -3.9773,1.558 -4.1839,4.63129 -0.5415,8.04552 3.4489,3.23287 3.6491,3.26893 8.4827,1.53324 2.7797,-0.99815 3.4839,-1.80026 3.7274,-4.24778 0.2331,-2.33638 -0.1558,-3.16148 -1.7147,-3.65668 -1.108,-0.3519 -2.4679,-1.4862 -3.022,-2.5213 -0.508,-0.9495 -1.0052,-1.3747 -1.6681,-1.3415 z m 20.2138,0.3442 c -0.8168,0.014 -1.7126,0.7493 -3.5187,2.5032 -3.9464,3.83313 -4.2369,7.03457 -0.757,8.35762 5.8744,2.2334 6.7359,2.12952 9.9001,-1.19373 2.4827,-2.60731 2.9111,-3.65267 2.2267,-5.43169 -0.4662,-1.2116 -1.6586,-2.203 -2.6499,-2.203 -0.9914,0 -2.6284,-0.6036 -3.6375,-1.3415 -0.6122,-0.4477 -1.0737,-0.6991 -1.5637,-0.6909 z m -32.6611,5.32885 c -0.1911,-0.007 -0.4536,0.14193 -0.8046,0.43307 -0.6834,0.5674 -3.2087,1.17195 -5.6115,1.34358 -3.7068,0.26496 -4.5053,0.70292 -5.2705,2.89232 -0.7679,2.19647 -0.4068,3.17696 2.4293,6.59133 1.8324,2.20602 3.5519,3.9678 3.8209,3.91501 0.2702,-0.053 1.1507,-0.23574 1.9586,-0.40669 0.8077,-0.17097 3.117,-0.57981 5.132,-0.90847 5.2306,-0.85318 6.0399,-4.37147 1.8221,-7.92044 -1.6708,-1.40596 -3.0381,-3.45249 -3.0381,-4.54752 0,-0.93639 -0.1197,-1.38046 -0.4382,-1.39219 z m 44.8453,0.0206 c -0.2911,0.003 -0.3478,0.33499 -0.3478,0.99891 0,0.81952 -1.3283,3.00281 -2.9512,4.85137 -2.5238,2.87446 -2.8109,3.72936 -1.9823,5.90818 0.8174,2.14952 1.5717,2.54764 4.8292,2.54764 1.725,0 3.5732,0.15203 4.6022,0.35862 v -12.74133 c -0.8879,-0.15076 -1.7228,-0.47059 -2.3977,-0.94311 -0.9361,-0.65566 -1.4613,-0.98284 -1.7524,-0.98028 z m -542.6516,2.53278 v 3.94859 l 2.5182,1.2609 v 4.64984 c 0.01,4.50614 -0.666,6.49594 -1.4082,4.15737 -0.2234,-0.70393 -0.597,-1.06865 -1.11,-1.09966 v 8.03259 c 0.3378,0.84206 0.5848,1.43922 0.6268,1.50066 0.079,0.11565 0.8216,0.0394 1.6501,-0.16846 1.2186,-0.30829 1.458,-0.63537 1.2407,-1.77093 -0.4146,-2.16975 1.4322,-1.76165 3.3306,0.73585 0.88989,1.17087 2.18989,2.66211 2.88919,3.31402 l 1.2712,1.18546 -1.8283,4.41161 c -1.88909,4.55703 -2.82819,5.52916 -3.14969,3.26028 -0.149,-1.05109 -0.4864,-1.27606 -1.7032,-1.13536 -1.4954,0.17383 -1.5172,0.21675 -1.5172,4.71705 0,4.53226 0,4.54178 1.5611,4.72114 1.2441,0.14317 1.5612,-0.0519 1.5612,-0.96014 0,-2.93468 2.31319,-1.11853 3.16359,2.48356 0.221,0.93668 0.7384,2.37218 1.1498,3.19 0.7117,1.41502 0.5939,1.65524 -2.4397,4.96713 -0.75669,0.82616 -1.40269,1.49127 -1.95489,2.01539 h 4.98889 c 1.595,-1.54827 3.2613,-2.92701 4.0788,-3.33571 l 1.8764,-0.93845 -1.7105,-1.94821 c -0.941,-1.07164 -1.9978,-3.03765 -2.3482,-4.36872 -0.3506,-1.33104 -1.1192,-3.25011 -1.7079,-4.26484 -1.0497,-1.79965 -1.0499,-1.89058 -0.022,-3.69023 0.5795,-1.01473 1.3752,-2.8666 1.7683,-4.11551 0.3933,-1.24889 1.444,-3.15995 2.3348,-4.24678 l 1.6195,-1.97609 -2.4598,-1.25005 c -1.3527,-0.68749 -3.1839,-2.22504 -4.07,-3.41686 -0.8859,-1.19181 -2.2325,-2.6871 -2.99209,-3.32279 -1.3318,-1.11369 -1.3711,-1.36128 -1.1167,-6.81199 0.1449,-3.11102 0.4555,-6.23144 0.6904,-6.93394 0.3932,-1.17535 0.2556,-1.27743 -1.7306,-1.27743 -1.177,0 -3.0101,-0.55666 -5.0509,-1.51929 z m 482.1106,0.49969 c -0.022,-0.003 -0.046,-0.003 -0.071,0 -0.2456,0.0257 -0.6664,0.26151 -1.311,0.66403 -1.4446,0.90217 -3.0341,0.92691 -6.6317,0.10387 -2.6025,-0.59555 -4.9024,-0.91215 -5.1108,-0.70384 -0.2072,0.20836 0.4183,1.59506 1.3922,3.08147 0.974,1.48637 2.2657,4.37949 2.8711,6.42958 0.6054,2.0501 1.4156,3.41263 1.8005,3.02774 0.3852,-0.38492 3.3376,-0.62736 6.5623,-0.53848 3.2246,0.0888 5.8627,-0.10454 5.8627,-0.42995 0,-0.32565 -1.3557,-2.13606 -3.0127,-4.02352 -2.2458,-2.55773 -2.8632,-4.03053 -2.4236,-5.7826 0.3129,-1.24598 0.4,-1.80004 0.072,-1.82936 z m 38.0137,1.83195 c -0.3373,0.0222 -0.7048,0.38081 -1.2924,1.08881 -0.7364,0.88749 -2.8366,2.23936 -4.6664,3.00395 -2.7809,1.16197 -3.2754,1.8257 -3.0148,4.04318 0.2293,1.9649 1.482,3.33843 4.8235,5.29632 l 4.5113,2.64374 4.545,-2.82876 c 5.981,-3.7228 6.3078,-7.08406 0.9074,-9.34051 -2.0009,-0.83595 -4.1166,-2.17538 -4.702,-2.97603 -0.4671,-0.63868 -0.7743,-0.95287 -1.1116,-0.9307 z m 13.5537,8.29405 -0.6475,2.03967 c -0.3554,1.12192 -2.6008,3.18456 -4.9883,4.5837 -2.3875,1.3992 -4.3414,2.69131 -4.3414,2.87115 0,0.17984 2.401,1.02489 5.3351,1.87793 2.9345,0.85302 5.604,1.98573 5.9325,2.51714 0.9828,1.59042 1.7584,1.09763 6.1117,-3.88347 2.2883,-2.61874 4.1605,-5.02203 4.1605,-5.34077 0,-0.31859 -1.7449,-0.57928 -3.8778,-0.57928 -2.6711,0 -4.471,-0.63619 -5.7821,-2.0433 z m -26.9001,0.24702 -2.4407,1.91926 c -1.3421,1.05571 -3.8493,1.91979 -5.5718,1.91979 -1.7223,0 -3.3571,0.2254 -3.6328,0.50125 -0.3745,0.37452 8.6811,10.26864 9.3984,10.26864 0.074,0 1.0004,-0.59804 2.0629,-1.32914 1.062,-0.73112 3.5833,-1.867 5.6027,-2.52386 2.0193,-0.65688 3.6717,-1.51915 3.6717,-1.91616 0,-0.39701 -1.5496,-1.46085 -3.4443,-2.36421 -1.8942,-0.90337 -3.9401,-2.73016 -4.5455,-4.05919 z m 40.0238,12.00547 c -2.0201,1.06285 -2.1302,1.70127 -1.6593,2.95177 0.337,0.89466 0.8777,1.48693 1.6593,1.80091 z m -546.8017,2.85927 v 5.74124 c 0.367,-0.98147 0.8344,-2.01165 1.1684,-2.54455 0.6417,-1.02375 0.611,-1.36593 -1.1684,-3.19669 z m 0,16.70439 v 5.71801 l 1.9544,-1.81075 -1.1322,-2.11201 c -0.3216,-0.60002 -0.6134,-1.24476 -0.8222,-1.79525 z m 1.5301,9.00255 c -0.6266,-0.024 -0.9573,0.36827 -1.5301,1.61954 v 0.35296 h 3.5311 c 0.2115,-1.11821 0.01,-1.51242 -0.9158,-1.7534 -0.4578,-0.11972 -0.8026,-0.20828 -1.0852,-0.2191 z m 404.2839,1.84796 c -0.027,0.006 -0.09,0.0565 -0.1669,0.12454 h 0.3023 c -0.056,-0.081 -0.1034,-0.13216 -0.1354,-0.12454 z m -24.2838,0.11472 c -0.01,0 -0.014,0.006 -0.021,0.01 h 0.042 c -0.01,-0.003 -0.017,-0.01 -0.022,-0.01 z"
         onclick="InkWeb.moveViewbox({from:this, to:'text24708'});" />
    </g>
  </g>
</svg>
