<svg xmlns:dc="http://purl.org/dc/elements/1.1/" xmlns:cc="http://creativecommons.org/ns#" xmlns:rdf="http://www.w3.org/1999/02/22-rdf-syntax-ns#" xmlns:svg="http://www.w3.org/2000/svg" xmlns="http://www.w3.org/2000/svg" xmlns:sodipodi="http://sodipodi.sourceforge.net/DTD/sodipodi-0.dtd" xmlns:inkscape="http://www.inkscape.org/namespaces/inkscape" width="47.376095mm" height="47.357822mm" viewBox="0 0 47.376094 47.357822" version="1.1" id="svg3318" sodipodi:docname="multipage-export-kkwx147m.svg">
  <defs id="defs3312">
    <clipPath clipPathUnits="userSpaceOnUse" id="clipPath14497">
      <ellipse style="font-variation-settings:'wght' 500;opacity:0.790164;fill:#d1ecdd;fill-opacity:0.933333;stroke:none;stroke-width:1.849" id="ellipse14499" cx="-1892.245" cy="265.40759" rx="113.25172" ry="116.97372" transform="scale(-1,1)"/>
    </clipPath>
    <clipPath clipPathUnits="userSpaceOnUse" id="clipPath30508">
      <circle style="opacity:1;fill:#fcc954;fill-opacity:1;stroke:#fcc954;stroke-width:4.295;stroke-miterlimit:4;stroke-dasharray:none;stroke-opacity:1" id="circle30510" cx="-2014.9016" cy="-410.4834" r="93.476418"/>
    </clipPath>
  </defs>
  <sodipodi:namedview id="base" pagecolor="#ffffff" bordercolor="#666666" borderopacity="1.0" inkscape:pageopacity="0.0" inkscape:pageshadow="2" inkscape:zoom="0.18043338" inkscape:cx="1202.8243" inkscape:cy="1522.9914" inkscape:document-units="mm" inkscape:current-layer="layer1" inkscape:document-rotation="0" showgrid="false" inkscape:window-width="1920" inkscape:window-height="1001" inkscape:window-x="-9" inkscape:window-y="-9" inkscape:window-maximized="1"/>
  <metadata id="metadata3315">
    <rdf:RDF>
      <cc:Work rdf:about="">
        <dc:format>image/svg+xml</dc:format>
        <dc:type rdf:resource="http://purl.org/dc/dcmitype/StillImage"/>
      </cc:Work>
    </rdf:RDF>
  </metadata>
  <g inkscape:label="Layer 1" inkscape:groupmode="layer" id="layer1" transform="translate(190.805,-633.40877)">
    <path id="rect11231-9" style="font-variation-settings:'wght' 600;display:inline;fill:#54a191;fill-opacity:1;stroke:none;stroke-width:1.257" d="m -190.8047,633.93807 c 0,15.60351 0,31.20703 0,46.81054 4.0573,0 8.1146,0 12.1719,0 0.028,-0.6412 0.052,-1.28257 0.078,-1.92382 -1.7624,0.12324 -3.6883,-0.6844 -4.4763,-2.33354 -0.6842,-1.74973 -0.3515,-3.67473 -0.4456,-5.50748 0.034,-2.65028 -0.062,-5.30384 0.049,-7.95195 0.1516,-2.02303 0.758,-4.26577 1.8407,-5.97414 1.5214,-2.62476 4.3999,-4.43341 7.4584,-4.46217 0.765,-0.006 1.3477,-0.0634 0.3875,-0.55047 -1.9587,-1.19466 -3.5003,-3.26481 -3.5456,-5.62254 -0.2991,-3.07673 1.8677,-6.02425 4.785,-6.9622 3.4779,-1.19401 7.5631,1.09241 8.5686,4.57961 0.9404,2.91487 -0.4437,6.27246 -3.0479,7.82749 -0.6464,0.39447 -1.1591,0.75529 -0.075,0.71397 3.1464,0.13321 6.033,2.14775 7.4678,4.90943 0.3726,0.52722 1.3731,0.59619 1.562,-0.11724 1.5564,-2.51925 4.2245,-4.28392 7.1488,-4.74942 1.025,-0.0439 -0.2101,-0.50551 -0.5057,-0.79349 -2.9003,-1.76081 -4.1968,-5.83498 -2.5469,-8.86329 1.6663,-3.53649 6.5057,-4.99306 9.7609,-2.72031 0.6813,0.59559 0.8187,0.25897 0.7039,-0.51016 0,-2.10937 0,-4.21875 0,-6.32812 -15.7799,0 -31.5599,0 -47.3398,0 0,0.17643 0,0.35286 0,0.5293 z m 20.2129,8.63281 c -1.8175,-0.0121 -3.3542,1.63049 -3.3247,3.42848 -0.072,1.87397 1.6403,3.57696 3.528,3.41174 2.0324,0.024 3.8071,-2.05361 3.2654,-4.06092 -0.3057,-1.38099 -1.463,-2.6075 -2.9043,-2.76172 -0.034,-0.13169 -0.4273,0.012 -0.5644,-0.0176 z m 22.959,-0.0137 c -1.7336,-0.0972 -3.405,1.23891 -3.5728,2.98988 -0.3446,1.95518 1.3356,3.95656 3.3403,3.87145 2.0124,0.0928 3.8978,-1.87607 3.4379,-3.90214 -0.2428,-1.36058 -1.296,-2.58564 -2.6644,-2.89279 0.019,-0.17656 -0.4203,-0.0213 -0.541,-0.0664 z m -23.7227,13.39648 c -2.0052,-0.0231 -4.272,-0.18174 -5.906,1.21697 -1.5772,1.31476 -2.4737,3.35508 -2.6744,5.37004 -0.2292,4.07862 -0.1132,8.1868 -0.1305,12.25479 0.2293,0.89084 1.752,0.73217 1.6289,-0.2461 0.2234,-4.39821 -0.1554,-8.85739 0.2656,-13.20507 0.5468,-1.38455 3.146,-1.10196 3.067,0.51866 0.2294,2.60508 0.065,5.22693 0.1374,7.83915 0,3.68366 -0.1218,7.36585 -0.263,11.04648 0.9622,0 1.9245,0 2.8867,0 0.1085,-1.20877 0.03,-2.50797 0.5235,-3.63086 0.8121,-1.10652 3.0994,-0.61063 2.9498,0.91233 0.08,0.90532 0.1399,1.81217 0.2064,2.71853 0.5227,-0.0717 1.3261,0.13935 1.6824,-0.1 0.072,-1.59342 -0.087,-3.19223 0.029,-4.77988 0.3465,-2.80323 2.3619,-5.21371 4.9245,-6.31909 0.3731,-0.2573 -0.6639,-0.61499 -0.862,-0.94309 -2.669,-2.43303 -2.5519,-7.23681 0.3436,-9.45365 -0.8697,-1.64272 -2.4615,-2.96924 -4.3653,-3.11469 -1.4736,-0.14719 -2.9644,-0.0779 -4.4433,-0.0845 z m 24.4941,0.0254 c -1.7325,0.13411 -3.5694,-0.30607 -5.1972,0.4916 -1.2022,0.52071 -2.1923,1.42953 -2.9688,2.47129 1.8324,1.40787 2.97,3.78088 2.5086,6.09892 -0.2434,1.68836 -1.2951,3.11578 -2.5789,4.18429 2.0252,0.7073 3.8885,2.01221 4.9313,3.92496 1.1891,2.24201 0.8948,4.76465 0.9027,7.21761 1.9329,0 3.8659,0 5.7988,0 0,-8.05078 0,-16.10156 0,-24.15234 -1.1144,-0.20133 -2.2992,-0.29086 -3.3965,-0.23633 z m -12.2421,5.07617 c -1.9823,0.2009 -3.1906,2.66526 -2.2035,4.37698 0.8814,1.94052 3.8976,2.12657 5.1078,0.41209 1.299,-1.58452 0.2809,-4.23812 -1.6485,-4.74219 -0.2178,-0.0946 -1.0719,-0.18897 -1.2558,-0.0469 z m 1.8281,11.36329 c -1.3675,0.092 -2.8505,-0.20814 -4.0704,0.59692 -1.4622,0.79667 -2.3932,2.44447 -2.2363,4.11597 -0.038,1.20535 -0.034,2.41142 -0.047,3.61718 3.664,0 7.3281,0 10.9922,0 -0.1263,-1.91105 0.3013,-3.92295 -0.4155,-5.75073 -0.7117,-1.61486 -2.4994,-2.63226 -4.2232,-2.57934 z" onclick="InkWeb.moveViewbox({from:this, to:'text24708'});"/>
  </g>
</svg>