<svg xmlns:dc="http://purl.org/dc/elements/1.1/" xmlns:cc="http://creativecommons.org/ns#" xmlns:rdf="http://www.w3.org/1999/02/22-rdf-syntax-ns#" xmlns:svg="http://www.w3.org/2000/svg" xmlns="http://www.w3.org/2000/svg" xmlns:sodipodi="http://sodipodi.sourceforge.net/DTD/sodipodi-0.dtd" xmlns:inkscape="http://www.inkscape.org/namespaces/inkscape" width="47.3419mm" height="47.339851mm" viewBox="0 0 47.341899 47.339851" version="1.1" id="svg3318" sodipodi:docname="multipage-export-kkwx147m.svg">
  <defs id="defs3312">
    <clipPath clipPathUnits="userSpaceOnUse" id="clipPath14497">
      <ellipse style="font-variation-settings:'wght' 500;opacity:0.790164;fill:#d1ecdd;fill-opacity:0.933333;stroke:none;stroke-width:1.849" id="ellipse14499" cx="-1892.245" cy="265.40759" rx="113.25172" ry="116.97372" transform="scale(-1,1)"/>
    </clipPath>
    <clipPath clipPathUnits="userSpaceOnUse" id="clipPath30508">
      <circle style="opacity:1;fill:#fcc954;fill-opacity:1;stroke:#fcc954;stroke-width:4.295;stroke-miterlimit:4;stroke-dasharray:none;stroke-opacity:1" id="circle30510" cx="-2014.9016" cy="-410.4834" r="93.476418"/>
    </clipPath>
  </defs>
  <sodipodi:namedview id="base" pagecolor="#ffffff" bordercolor="#666666" borderopacity="1.0" inkscape:pageopacity="0.0" inkscape:pageshadow="2" inkscape:zoom="0.18043338" inkscape:cx="1202.8243" inkscape:cy="1522.9914" inkscape:document-units="mm" inkscape:current-layer="layer1" inkscape:document-rotation="0" showgrid="false" inkscape:window-width="1920" inkscape:window-height="1001" inkscape:window-x="-9" inkscape:window-y="-9" inkscape:window-maximized="1"/>
  <metadata id="metadata3315">
    <rdf:RDF>
      <cc:Work rdf:about="">
        <dc:format>image/svg+xml</dc:format>
        <dc:type rdf:resource="http://purl.org/dc/dcmitype/StillImage"/>
      </cc:Work>
    </rdf:RDF>
  </metadata>
  <g inkscape:label="Layer 1" inkscape:groupmode="layer" id="layer1" transform="translate(336.5807,-559.24275)">
    <path id="rect10374" style="font-variation-settings:'wght' 600;display:inline;fill:#fcc954;fill-opacity:1;stroke:none;stroke-width:1.257" d="m -336.5807,559.77205 c 0,15.60352 0,31.20703 0,46.81055 4.7201,0 9.4401,0 14.1602,0 -1.7318,-3.09917 -3.6151,-6.12057 -5.1825,-9.30721 -0.9273,-2.00342 -1.5166,-4.50789 -0.3828,-6.54659 1.4598,-2.44963 5.0608,-3.07642 7.348,-1.45442 1.1935,0.95886 2.3873,1.91737 3.5806,2.87658 0.095,-4.75334 0.2665,-9.50793 0.3168,-14.26045 0,-2.8197 -0.1087,-5.66758 0.314,-8.46416 0.6365,-2.96529 4.2426,-4.73142 6.9922,-3.48828 1.7409,0.68542 3.0981,2.38174 3.0842,4.29686 0.2638,2.58998 0.025,5.19432 0.078,7.79103 1.1405,-0.2567 2.3609,-0.44436 3.4512,0.10547 0.9656,0.28751 1.8244,0.8152 2.46,1.60446 0.4469,0.43051 0.7567,1.00076 0.8506,1.58694 0.482,0.54147 1.2601,0.0605 1.8835,0.11567 2.0757,-0.34204 4.1072,1.16185 4.9347,2.9989 0.1041,0.62837 0.8187,0.95783 1.363,0.62178 0.6805,-0.19698 1.3926,-0.13646 2.0902,-0.1133 0,-8.56771 0,-17.13542 0,-25.70313 -15.7806,0 -31.5612,0 -47.3418,0 0,0.17644 0,0.35287 0,0.5293 z m 41.4219,3.55469 c 0.105,0.40764 0.9821,0.95797 0.457,1.27756 -1.9602,1.61467 -3.9772,3.21022 -6.2851,4.30252 -0.8969,-0.12267 -0.9953,-1.21761 -1.4904,-1.80837 -0.5202,-0.45551 0.1281,-0.82093 0.5197,-1.04124 2.08,-1.16602 4.0566,-2.5036 6.0859,-3.75391 0.2377,0.34115 0.4753,0.68229 0.7129,1.02344 z m -16.1972,5.65234 c -1.0461,-0.09 -1.7453,0.9234 -1.7676,1.88086 -0.2629,4.84223 -0.2257,9.70012 -0.3206,14.54947 -0.071,4.62051 -0.1341,9.25376 -0.3442,13.86346 -0.2937,1.20022 -2.1925,1.83511 -2.8751,0.6121 -1.0345,-1.61902 -1.783,-3.4182 -2.9381,-4.96787 -0.9023,-1.24132 -2.0369,-2.43402 -3.4885,-2.99596 -0.9421,-0.34194 -2.215,0.39567 -1.9768,1.48442 0.2022,2.53409 1.8711,4.60652 3.0229,6.7787 1.2315,2.13264 2.4611,4.26641 3.6938,6.39834 9.7031,0 19.4063,0 29.1094,0 0,-5.9961 0,-11.99219 0,-17.98828 -0.8055,-0.28715 -1.9231,-0.22638 -2.4077,0.54739 -0.5348,2.44488 -0.3189,4.96521 -0.4714,7.44668 -0.057,1.20923 0.054,2.54179 -0.5526,3.62507 -1.053,1.07812 -3.3283,0.17944 -3.087,-1.40783 -0.1664,-3.91423 0.119,-7.83406 0,-11.74744 -0.054,-0.83428 -0.1864,-1.97431 -1.1934,-2.14551 -0.7487,-0.15797 -1.6693,0.16971 -2.0533,0.8143 -0.4297,3.97134 -0.2656,7.97755 -0.4774,11.96114 -0.1597,0.92905 0.063,2.22081 -0.9634,2.71088 -1.018,0.56311 -2.5986,-0.2209 -2.4083,-1.47695 -0.076,-5.47404 0.3169,-10.95549 -0.015,-16.42398 -0.1687,-1.21354 -1.8165,-1.44963 -2.6924,-0.83311 -0.5358,0.24301 -0.3576,1.01818 -0.5179,1.51382 -0.2943,3.15437 -0.2146,6.33271 -0.298,9.49794 -0.061,2.17538 -0.056,4.32507 -0.3115,6.47551 -0.1545,1.41852 -2.2259,1.86279 -2.9928,0.69147 -0.3978,-0.91967 -0.209,-1.99495 -0.2874,-2.98094 -0.057,-8.32151 0.2838,-16.64373 0.2361,-24.96356 -0.025,-0.88537 0.096,-1.95172 -0.6619,-2.59199 0.9146,-0.6338 -0.6191,-0.21946 -0.957,-0.32813 z m 15.9082,4.35742 c -0.1745,0.83659 -0.349,1.67318 -0.5235,2.50977 -1.0086,0.19983 -1.8152,-0.6448 -2.7224,-0.93368 -1.2664,-0.59242 -2.5327,-1.18484 -3.7991,-1.77726 0.2937,-0.56315 0.5873,-1.1263 0.8809,-1.68945 2.0547,0.63021 4.1094,1.26042 6.1641,1.89062 z" onclick="InkWeb.moveViewbox({from:this, to:'text24708'});"/>
  </g>
</svg>