<svg xmlns:dc="http://purl.org/dc/elements/1.1/" xmlns:cc="http://creativecommons.org/ns#" xmlns:rdf="http://www.w3.org/1999/02/22-rdf-syntax-ns#" xmlns:svg="http://www.w3.org/2000/svg" xmlns="http://www.w3.org/2000/svg" xmlns:sodipodi="http://sodipodi.sourceforge.net/DTD/sodipodi-0.dtd" xmlns:inkscape="http://www.inkscape.org/namespaces/inkscape" width="47.360001mm" height="47.357845mm" viewBox="0 0 47.36 47.357845" version="1.1" id="svg3318" sodipodi:docname="multipage-export-kkwx147m.svg">
  <defs id="defs3312">
    <clipPath clipPathUnits="userSpaceOnUse" id="clipPath14497">
      <ellipse style="font-variation-settings:'wght' 500;opacity:0.790164;fill:#d1ecdd;fill-opacity:0.933333;stroke:none;stroke-width:1.849" id="ellipse14499" cx="-1892.245" cy="265.40759" rx="113.25172" ry="116.97372" transform="scale(-1,1)"/>
    </clipPath>
    <clipPath clipPathUnits="userSpaceOnUse" id="clipPath30508">
      <circle style="opacity:1;fill:#fcc954;fill-opacity:1;stroke:#fcc954;stroke-width:4.295;stroke-miterlimit:4;stroke-dasharray:none;stroke-opacity:1" id="circle30510" cx="-2014.9016" cy="-410.4834" r="93.476418"/>
    </clipPath>
  </defs>
  <sodipodi:namedview id="base" pagecolor="#ffffff" bordercolor="#666666" borderopacity="1.0" inkscape:pageopacity="0.0" inkscape:pageshadow="2" inkscape:zoom="0.18043338" inkscape:cx="1202.8243" inkscape:cy="1522.9914" inkscape:document-units="mm" inkscape:current-layer="layer1" inkscape:document-rotation="0" showgrid="false" inkscape:window-width="1920" inkscape:window-height="1001" inkscape:window-x="-9" inkscape:window-y="-9" inkscape:window-maximized="1"/>
  <metadata id="metadata3315">
    <rdf:RDF>
      <cc:Work rdf:about="">
        <dc:format>image/svg+xml</dc:format>
        <dc:type rdf:resource="http://purl.org/dc/dcmitype/StillImage"/>
      </cc:Work>
    </rdf:RDF>
  </metadata>
  <g inkscape:label="Layer 1" inkscape:groupmode="layer" id="layer1" transform="translate(-179.5222,166.99674)">
    <path id="rect11368-7" style="font-variation-settings:'wght' 600;display:inline;fill:#54a191;fill-opacity:1;stroke:none;stroke-width:1.25737" d="m 179.5222,-166.46736 c 0,15.60812 0,31.21624 0,46.82436 12.6326,-0.015 25.2655,0.031 37.8979,-0.023 -5.1265,-2.80983 -10.2852,-5.56345 -15.3307,-8.51812 -0.5108,-0.56126 -1.1094,0.12904 -1.4469,0.54276 -1.1967,1.29899 -3.3537,1.85606 -4.8383,0.70461 -1.3502,-0.94838 -1.9359,-2.65068 -1.8774,-4.25216 0,-1.24877 -0.9015,-2.17914 -1.7857,-2.93646 -3.4427,-3.56346 -5.0033,-8.93665 -3.6305,-13.74617 1.2313,-4.6841 4.8481,-8.72879 9.5073,-10.18422 3.0414,-1.0052 6.42,-0.89216 9.4038,0.0851 3.74,1.22495 6.4993,4.37418 8.2007,7.81561 3.762,6.80731 7.4935,13.63114 11.2478,20.44275 0.017,-12.42808 0,-24.85626 0.012,-37.28444 -15.7852,0 -31.5704,0 -47.3557,0 0,0.17646 0,0.35301 0,0.52945 z m 22.8975,11.1185 c -3.0737,0.048 -6.2324,1.18154 -8.2468,3.58315 -1.5354,1.76073 -2.5114,3.98769 -2.9069,6.27527 -0.056,0.64228 0.7593,0.85215 1.2204,1.13093 1.4565,0.53816 2.9636,1.42492 3.6755,2.92296 0.8327,1.56367 0.4285,3.39061 0.5294,5.08281 0.062,1.42962 -0.031,2.92417 0.4513,4.28916 0.3652,0.6576 1.2407,0.21808 1.2777,-0.42981 0.3576,-1.72902 0.3287,-3.50855 0.5156,-5.26087 0.1493,-1.25397 0.07,-2.59647 0.5668,-3.77151 0.992,-1.22616 2.7594,-1.15534 4.1911,-1.21366 1.2462,0.039 2.6365,-0.071 3.5174,-1.07272 1.8035,-1.63059 3.5734,-3.42452 5.0062,-5.41861 0.3097,-0.81974 -0.5157,-1.47913 -0.9229,-2.10582 -1.2719,-1.44553 -2.8802,-2.61277 -4.6205,-3.42551 -1.3456,-0.54567 -2.8192,-0.62249 -4.2543,-0.58577 z m 11.2455,10.03817 c -4.206,3.81863 -8.2256,7.85002 -12.0408,12.05436 -0.3329,0.76993 0.6011,1.27228 1.1162,1.6652 1.5331,0.82114 3.0595,2.16825 4.9169,1.92957 4.7135,-0.6495 9.4004,-1.48434 14.049,-2.50074 -2.4282,-4.57966 -4.9036,-9.1358 -7.5588,-13.58802 -0.1608,0.14654 -0.3217,0.29308 -0.4825,0.43963 z m 9.0299,16.60251 c -3.8306,0.46404 -7.6608,1.0119 -11.4271,1.86775 2.3106,1.30889 4.6229,2.61978 6.9805,3.84105 0.7835,0.40011 1.6534,0.55045 2.5116,0.31399 1.8403,-0.24218 3.6581,-0.62439 5.4654,-1.04471 -0.6735,-1.57657 -1.492,-3.10343 -2.4559,-4.51694 -0.2645,-0.3054 -0.6602,-0.52956 -1.0745,-0.46114 z" onclick="InkWeb.moveViewbox({from:this, to:'text24708'});"/>
  </g>
</svg>