<svg xmlns:dc="http://purl.org/dc/elements/1.1/" xmlns:cc="http://creativecommons.org/ns#" xmlns:rdf="http://www.w3.org/1999/02/22-rdf-syntax-ns#" xmlns:svg="http://www.w3.org/2000/svg" xmlns="http://www.w3.org/2000/svg" xmlns:sodipodi="http://sodipodi.sourceforge.net/DTD/sodipodi-0.dtd" xmlns:inkscape="http://www.inkscape.org/namespaces/inkscape" width="31.1772mm" height="32.794449mm" viewBox="0 0 31.1772 32.794449" version="1.1" id="svg3318" sodipodi:docname="multipage-export-tzgla6cx.svg">
  <defs id="defs3312"/>
  <sodipodi:namedview id="base" pagecolor="#ffffff" bordercolor="#666666" borderopacity="1.0" inkscape:pageopacity="0.0" inkscape:pageshadow="2" inkscape:zoom="0.18043338" inkscape:cx="2250.6913" inkscape:cy="446.75727" inkscape:document-units="mm" inkscape:current-layer="layer1" inkscape:document-rotation="0" showgrid="false" inkscape:window-width="1920" inkscape:window-height="1001" inkscape:window-x="-9" inkscape:window-y="-9" inkscape:window-maximized="1"/>
  <metadata id="metadata3315">
    <rdf:RDF>
      <cc:Work rdf:about="">
        <dc:format>image/svg+xml</dc:format>
        <dc:type rdf:resource="http://purl.org/dc/dcmitype/StillImage"/>
      </cc:Work>
    </rdf:RDF>
  </metadata>
  <g inkscape:label="Layer 1" inkscape:groupmode="layer" id="layer1" transform="translate(10.8801,70.5206)">
    <path style="display:inline;fill:#ffffff;fill-opacity:0.841629;stroke-width:0.0683712" d="m -5.8703,-38.72242 c -0.4222,-0.54106 -0.8321,-1.09296 -0.9108,-1.22644 -0.1865,-0.31601 -0.1542,-0.59019 0.085,-0.72395 0.1703,-0.0952 0.1995,-0.092 0.3804,0.0417 0.3274,0.24204 0.4264,0.12004 0.4264,-0.52521 v -0.54117 l -0.7007,-0.0194 -0.7007,-0.0194 -0.1865,-0.34185 c -0.1026,-0.18802 -0.1873,-0.36494 -0.1881,-0.39314 0,-0.0282 0.9522,-0.0512 2.1179,-0.0512 1.1657,0 2.1195,-0.0186 2.1195,-0.0412 0,-0.0227 -0.1127,-0.2557 -0.2504,-0.51776 -0.2757,-0.52476 -0.5699,-0.79478 -0.9297,-0.85314 -0.2177,-0.0353 -0.2415,-0.0641 -0.314,-0.378 -0.1088,-0.47133 -0.1004,-0.53444 0.071,-0.53444 0.2659,0 0.7299,0.2766 0.9375,0.55885 0.1113,0.15143 0.3508,0.60948 0.5321,1.01789 l 0.3296,0.74258 2.9355,0.0198 2.9354,0.0198 0.1872,0.30767 c 0.279,0.45873 0.2673,0.4786 -0.2807,0.4786 H 2.247 v 1.98784 1.98784 l -0.4273,-0.29799 -0.4274,-0.29797 -0.019,-1.07452 c -0.013,-0.72841 -0.043,-1.07452 -0.094,-1.07452 -0.1846,0 -0.5469,0.31009 -0.7816,0.66911 -0.1405,0.21486 -0.2636,0.4013 -0.2737,0.41433 -0.014,0.0178 -0.4423,-0.25047 -0.6972,-0.43637 -0.011,-0.008 0.048,-0.13016 0.1318,-0.27154 0.1471,-0.24943 0.1478,-0.25982 0.024,-0.35047 -0.1638,-0.11976 -0.2666,-0.11771 -0.5141,0.0103 -0.2637,0.13637 -0.408,0.42937 -0.408,0.8285 0,0.43557 0.2124,0.84973 0.6177,1.20444 0.3306,0.28941 0.3314,0.29116 0.2094,0.45292 l -0.1227,0.16239 -0.4886,-0.46089 c -0.8175,-0.77118 -1.1377,-1.64831 -0.844,-2.31216 0.3078,-0.69586 1.0856,-0.86015 1.6515,-0.34886 l 0.2631,0.23767 0.2627,-0.17995 c 0.2301,-0.15759 0.3116,-0.17567 0.6559,-0.14546 l 0.3931,0.0345 v -0.36956 -0.36955 h -2.0853 -2.0854 v 1.93718 c 0,1.06545 -0.018,1.95502 -0.04,1.97682 -0.022,0.0218 -0.2141,-0.0824 -0.4273,-0.23158 l -0.3877,-0.27123 -0.034,-0.62448 -0.034,-0.6245 -0.4101,0.0162 c -0.3539,0.014 -0.4543,-0.0118 -0.7304,-0.18782 -0.2798,-0.17834 -0.3308,-0.1911 -0.4053,-0.10131 -0.047,0.0565 -0.1859,0.15448 -0.309,0.21774 l -0.2235,0.11501 0.5435,0.66706 c 0.2989,0.36687 0.5434,0.69225 0.5434,0.72307 0,0.0571 -0.292,0.35417 -0.3462,0.35232 -0.016,-2.6e-4 -0.3752,-0.4437 -0.7974,-0.98477 z m 1.8102,-1.67884 0.2906,-0.13191 v -0.58449 -0.5845 h -0.6154 -0.6153 v 0.6787 c 0,0.58889 0.016,0.68284 0.1196,0.70997 0.261,0.0681 0.5434,0.0379 0.8205,-0.0878 z m 9.6605,2.35513 c -0.1299,-0.0583 -0.2473,-0.11711 -0.2611,-0.13083 -0.044,-0.0437 0.1368,-0.85872 0.1902,-0.85872 0.028,0 0.091,0.0959 0.1395,0.21321 0.1205,0.29081 0.4368,0.46994 0.8304,0.47024 0.4015,2.4e-4 0.6577,-0.19854 0.7144,-0.55441 0.033,-0.20714 0.01,-0.28103 -0.1561,-0.45778 -0.1075,-0.11591 -0.4109,-0.32362 -0.6741,-0.46155 -0.8494,-0.44506 -1.125,-0.85217 -1.0327,-1.52541 0.1126,-0.8218 0.9044,-1.29982 1.8336,-1.10693 0.2077,0.0431 0.433,0.11891 0.5007,0.16842 0.1115,0.0815 0.1147,0.11998 0.034,0.40724 -0.049,0.17448 -0.1046,0.31723 -0.124,0.31723 -0.019,0 -0.1349,-0.11537 -0.2567,-0.25639 -0.2032,-0.235 -0.2514,-0.25639 -0.5773,-0.25639 -0.3048,0 -0.3791,0.0274 -0.5206,0.19183 -0.3392,0.39434 -0.1113,0.79092 0.6818,1.18656 0.827,0.4125 1.0676,0.7221 1.0676,1.37386 0,0.53828 -0.2551,0.95423 -0.7273,1.18564 -0.423,0.20737 -1.2993,0.25701 -1.6626,0.0942 z m 2.595,0.002 c 0,-0.0188 0.1822,-0.46167 0.4048,-0.98434 0.2226,-0.52264 0.6294,-1.5087 0.904,-2.19123 l 0.4993,-1.24096 0.2387,0.0203 c 0.2259,0.0193 0.248,0.0445 0.4085,0.46473 0.1751,0.45865 1.4847,3.72813 1.5542,3.88007 0.03,0.0645 -0.095,0.0855 -0.5096,0.0855 h -0.5487 l -0.2163,-0.64951 -0.2164,-0.64953 H 9.9724 9.2308 l -0.134,0.35894 c -0.074,0.19743 -0.1731,0.48972 -0.2209,0.64953 -0.085,0.28391 -0.094,0.29057 -0.3836,0.29057 -0.1633,0 -0.2969,-0.0154 -0.2969,-0.034 z m 2.3247,-1.71968 c 0,-0.13986 -0.5093,-1.3869 -0.5483,-1.34238 -0.047,0.0539 -0.5457,1.29012 -0.5457,1.35311 0,0.0185 0.2462,0.0337 0.547,0.0337 0.3008,0 0.547,-0.0199 0.547,-0.0445 z m 2.222,-0.42935 v -2.18308 l 0.4958,-0.0219 0.4959,-0.0218 -10e-5,2.20498 v 2.20497 H 13.238 12.7423 Z m 1.9144,-0.005 v -2.18787 l 0.4615,-2e-5 c 0.2539,-2e-5 0.4809,0 0.5045,3e-5 0.023,3e-5 0.037,0.88168 0.03,1.95922 l -0.013,1.95917 0.722,-0.0442 0.722,-0.0442 v 0.27283 0.27282 l -1.2135,3e-5 -1.2137,2e-5 z m -21.0756,-10.27297 -4.461,-4.46138 7.7943,-7.79405 7.7943,-7.79404 7.7943,7.79404 7.7943,7.79405 -4.4611,4.46138 c -2.4535,2.45375 -4.4764,4.46138 -4.4953,4.46139 -0.019,1e-5 -0.026,-1.63834 -0.016,-3.64076 l 0.018,-3.64079 0.8189,-0.82106 0.819,-0.82107 -4.1361,-4.13564 -4.136,-4.13565 -4.1361,4.13565 -4.1361,4.13564 0.819,0.82107 0.8189,0.82106 0.018,3.64079 c 0.01,2.00242 0,3.64077 -0.016,3.64076 -0.019,-10e-6 -2.0418,-2.00764 -4.4953,-4.46139 z m 7.8284,0.51267 -3.2644,-3.265 3.2818,-3.28129 3.2818,-3.28127 3.2476,3.24709 c 1.7862,1.78591 3.2477,3.27938 3.2477,3.31883 0,0.0652 -6.4373,6.52663 -6.5022,6.52663 -0.015,0 -1.4968,-1.46924 -3.2923,-3.26499 z" id="path26954"/>
  </g>
</svg>