<svg xmlns:dc="http://purl.org/dc/elements/1.1/" xmlns:cc="http://creativecommons.org/ns#" xmlns:rdf="http://www.w3.org/1999/02/22-rdf-syntax-ns#" xmlns:svg="http://www.w3.org/2000/svg" xmlns="http://www.w3.org/2000/svg" xmlns:sodipodi="http://sodipodi.sourceforge.net/DTD/sodipodi-0.dtd" xmlns:inkscape="http://www.inkscape.org/namespaces/inkscape" width="52.863998mm" height="15.248166mm" viewBox="0 0 52.863998 15.248166" version="1.1" id="svg3318" sodipodi:docname="multipage-export-tzgla6cx.svg">
  <defs id="defs3312"/>
  <sodipodi:namedview id="base" pagecolor="#ffffff" bordercolor="#666666" borderopacity="1.0" inkscape:pageopacity="0.0" inkscape:pageshadow="2" inkscape:zoom="0.18043338" inkscape:cx="2250.6913" inkscape:cy="446.75727" inkscape:document-units="mm" inkscape:current-layer="layer1" inkscape:document-rotation="0" showgrid="false" inkscape:window-width="1920" inkscape:window-height="1001" inkscape:window-x="-9" inkscape:window-y="-9" inkscape:window-maximized="1"/>
  <metadata id="metadata3315">
    <rdf:RDF>
      <cc:Work rdf:about="">
        <dc:format>image/svg+xml</dc:format>
        <dc:type rdf:resource="http://purl.org/dc/dcmitype/StillImage"/>
      </cc:Work>
    </rdf:RDF>
  </metadata>
  <g inkscape:label="Layer 1" inkscape:groupmode="layer" id="layer1" transform="translate(-135.2382,60.48521)">
    <path id="path26990-1" style="display:inline;fill:#ffffff;fill-opacity:0.841629;stroke-width:2.15719" d="m 161.2525,-60.48521 -4.9649,5.7e-4 c -5.5729,1.5e-4 -6.2021,0.1697 -7.02,1.89286 -0.5905,1.24495 -0.3136,2.68472 0.7158,3.71394 0.7892,0.78968 0.808,0.79281 4.3784,0.79283 3.9394,5e-5 4.9677,0.30809 4.3569,1.30516 -0.2751,0.44869 -0.8239,0.5113 -5.0774,0.57923 l -4.7695,0.0763 v 1.05992 c 0,0.58259 0.085,1.14361 0.1876,1.24765 0.1037,0.10339 2.389,0.1561 5.078,0.11637 4.1341,-0.061 5.0014,-0.14819 5.6119,-0.56317 1.3415,-0.91162 1.7532,-2.82074 0.9447,-4.38415 -0.6739,-1.30357 -1.355,-1.51252 -5.4231,-1.66366 l -3.7558,-0.13912 -0.089,-0.76517 c -0.048,-0.42086 -0.048,-0.78919 0,-0.81824 0.048,-0.029 2.2661,-0.12297 4.9281,-0.20869 l 4.8409,-0.15517 0.029,-1.04432 z m -26.0143,7.9e-4 v 5.42533 5.42532 l 4.8966,5.7e-4 c 3.9556,-2e-5 5.0809,-0.0878 5.8551,-0.45527 1.2977,-0.6157 1.8893,-1.81024 1.6239,-3.2774 -0.1128,-0.6254 -0.182,-1.97562 -0.1524,-3.00139 0.06,-2.13862 -0.2167,-2.81689 -1.4599,-3.57482 -0.7897,-0.48148 -1.4253,-0.54051 -5.8244,-0.54132 z m 26.9884,0 v 5.26302 c 0,3.24618 0.1067,5.29856 0.2774,5.35576 v 0 c 0.1523,0.0514 2.938,0.0695 6.1905,0.041 l 5.9137,-0.0518 0.085,-1.12457 0.085,-1.12412 -5.0669,-0.0763 c -4.7953,-0.0718 -5.0716,-0.10535 -5.1472,-0.62294 -0.1662,-1.13434 0.303,-1.26097 4.6521,-1.26101 h 4.1399 v -1.11302 -1.11297 h -4.2966 c -2.7177,-4e-5 -4.3627,-0.10783 -4.4778,-0.29386 -0.1008,-0.16168 -0.1047,-0.59996 -0.011,-0.97386 l 0.1708,-0.68 h 5.0026 5.003 v -1.11298 -1.11254 h -6.2601 z m 15.5256,0 -0.9463,0.94532 c -0.7646,0.76463 -0.9456,1.16246 -0.9456,2.0739 0,2.76921 0.9944,3.37997 5.5068,3.37997 2.8524,3e-5 3.4282,0.0757 3.9823,0.52438 0.5554,0.44972 0.595,0.58874 0.2751,0.97386 -0.3155,0.38116 -1.086,0.4495 -5.069,0.44947 h -4.6952 v 1.23516 1.23515 l 4.6591,-0.008 c 5.243,-0.009 6.1183,-0.21924 7.0348,-1.68107 0.8022,-1.28102 0.5894,-2.81604 -0.5491,-3.95561 -0.8599,-0.8606 -0.8606,-0.86017 -4.6517,-0.99928 -3.1366,-0.11507 -3.8421,-0.2189 -4.0829,-0.60242 -0.2113,-0.33565 -0.1908,-0.58524 0.074,-0.9043 0.3072,-0.37009 1.1168,-0.44101 5.0624,-0.441 h 4.6953 v -1.11252 -1.11299 h -5.1752 z m -40.0097,2.48771 3.6866,0.0776 3.6864,0.0776 v 0.69561 0.69561 l -3.6864,0.0781 -3.6866,0.0771 v -0.85079 z m 0,4.18972 h 3.5827 c 2.8454,10e-6 3.6543,0.0859 3.9294,0.41737 0.2762,0.33295 0.2762,0.50178 0,0.83473 -0.2751,0.33149 -1.084,0.41742 -3.9294,0.41737 h -3.5827 v -0.83473 z m -2.5043,4.97273 v 1.54818 c 0,1.48738 0.028,1.54772 0.7344,1.54774 0.9948,0 1.4295,-0.67548 1.2309,-1.91115 -0.1443,-0.89521 -0.2658,-1.02009 -1.064,-1.09738 z m 8.5347,0.0352 v 5.6e-4 c -0.3913,-3e-5 -0.789,0.12565 -0.8847,0.28002 -0.2623,0.425 0.1262,1.38904 0.56,1.389 0.2103,0 0.471,0.14395 0.5792,0.31927 0.1388,0.22434 -0.021,0.26399 -0.5399,0.13377 -0.8142,-0.20436 -0.9125,-0.0728 -0.3893,0.52171 0.466,0.52949 0.7703,0.512 1.2125,-0.0705 0.4249,-0.55928 0.5083,-1.46077 0.135,-1.46079 -0.1381,-2e-5 -0.1863,-0.25047 -0.1062,-0.55648 0.1174,-0.44937 0.01,-0.5565 -0.5666,-0.5565 z m 2.9814,0 v 5.6e-4 c -0.9335,3e-5 -0.9436,0.0138 -0.9436,1.25165 0,0.94848 0.1048,1.2521 0.4333,1.25211 0.239,-4e-5 0.3626,-0.11667 0.2742,-0.25907 -0.088,-0.1425 -0.046,-0.32936 0.093,-0.41559 0.1393,-0.0862 0.3265,0.0303 0.4137,0.25907 0.088,0.22868 0.3523,0.41561 0.5876,0.41559 0.3572,-3e-5 0.3708,-0.0919 0.085,-0.5498 -0.2581,-0.41327 -0.2638,-0.62872 -0.024,-0.86863 0.5432,-0.54321 0.084,-1.08574 -0.9198,-1.08578 z m 28.4098,0 v 5.6e-4 c -0.4477,0 -0.5938,1.72025 -0.2274,2.67542 0.1158,0.3017 0.234,0.36544 0.3014,0.16231 0.061,-0.18358 0.4454,-0.35101 0.8536,-0.37188 0.6555,-0.0335 0.669,-0.0515 0.1153,-0.15829 -0.523,-0.10063 -0.626,-0.30179 -0.626,-1.21464 0,-0.7866 -0.1173,-1.09337 -0.4174,-1.09337 z m 2.0869,0 c -0.153,5e-5 -0.2781,0.12528 -0.2783,0.27824 0,0.15317 0.1253,0.27826 0.2783,0.27824 0.153,-5e-5 0.2782,-0.12533 0.2782,-0.27824 0,-0.15316 -0.1252,-0.27824 -0.2782,-0.27824 z m 10.5727,0 v 5.6e-4 c -0.1529,7e-5 -0.2778,0.18764 -0.278,0.41692 0,0.23183 -0.2516,0.41493 -0.5566,0.41737 -0.5731,1e-5 -0.7541,0.83187 -0.3879,1.78585 0.186,0.48542 0.6657,0.60203 0.6657,0.16186 0,-0.15318 0.188,-0.27842 0.4178,-0.27824 0.3089,-7e-5 0.4174,-0.32472 0.4174,-1.25211 -3e-4,-0.68869 -0.1254,-1.25213 -0.2784,-1.2521 z m -36.865,5.6e-4 c -0.2482,-4e-5 -0.3735,0.1249 -0.2787,0.2778 0.095,0.15296 0.2192,0.27824 0.2783,0.27824 0.059,1.3e-4 0.1826,-0.12553 0.2781,-0.27824 0.09,-0.15561 -0.029,-0.27789 -0.2777,-0.2778 z m 3.1988,0 c -0.153,7.9e-4 -0.2772,0.56405 -0.2776,1.25165 0,1.41874 0.3047,1.61637 0.7513,0.48693 l 0.3023,-0.76472 0.029,0.76517 c 0.042,1.09754 0.8642,1.03134 0.8642,-0.0695 0,-0.70483 -0.1087,-0.83473 -0.6957,-0.83473 -0.4331,0 -0.6956,-0.15769 -0.6956,-0.41736 0,-0.22929 -0.1249,-0.417 -0.2779,-0.41737 z m 27.6845,0 c -0.2479,-3e-5 -0.373,0.12487 -0.2783,0.2778 0.094,0.15315 0.2193,0.27864 0.2783,0.27869 0.059,5.7e-4 0.1827,-0.12553 0.2783,-0.27824 0.099,-0.15055 -0.031,-0.27821 -0.2783,-0.27825 z m -43.0932,0.0362 c -0.2479,0.006 -0.5018,0.10805 -0.6844,0.32819 -0.2578,0.31018 -0.166,0.55235 0.4415,1.16827 l 0.7669,0.77721 -0.7719,-0.18772 c -0.7203,-0.17566 -0.7487,-0.15127 -0.4206,0.37456 0.1939,0.30992 0.4459,0.5636 0.5603,0.56362 0.4633,2e-5 1.2687,-0.94275 1.1248,-1.3172 -0.085,-0.22054 -0.1673,-0.67157 -0.1839,-1.0024 -0.023,-0.44793 -0.4197,-0.71271 -0.8327,-0.70453 z m 2.7223,0.004 c -0.057,0.002 -0.1175,0.006 -0.181,0.0111 -0.7639,0.0737 -0.9192,0.21168 -0.9956,0.88645 -0.051,0.43928 -0.016,1.09628 0.075,1.46034 0.1284,0.51195 0.354,0.66215 0.9955,0.66216 0.5516,-10e-6 0.8295,-0.13971 0.8295,-0.41736 0,-0.23183 -0.2477,-0.41742 -0.5566,-0.41737 -0.3062,-3e-5 -0.5564,-0.12513 -0.5564,-0.27824 0,-0.15317 0.2502,-0.27818 0.5564,-0.27824 0.7746,0 0.7086,-0.8256 -0.07,-0.87264 l -0.6255,-0.0383 0.6255,-0.11996 c 0.8507,-0.16389 0.7774,-0.56483 0.066,-0.59706 v 0 c -0.051,-0.002 -0.1047,-0.002 -0.1618,-7.9e-4 z m 11.8681,0.0267 c -0.027,-0.002 -0.055,0.002 -0.085,0.0138 -0.191,0.0702 -0.3159,0.26847 -0.278,0.44057 0.038,0.17215 -0.182,0.31474 -0.4959,0.31302 -0.7523,-4e-5 -0.9877,0.70814 -0.5235,1.57494 0.2066,0.38652 0.4214,0.56593 0.4771,0.39863 0.056,-0.1674 0.3413,-0.30409 0.635,-0.30411 0.4479,2e-5 0.5333,-0.20399 0.5333,-1.27529 0,-0.78986 -0.078,-1.14554 -0.2623,-1.16158 z m 29.8619,0.28181 c -0.311,-0.0229 -0.6422,0.47094 -0.5217,0.87754 0.049,0.1669 0.1651,0.64802 0.2573,1.06883 0.184,0.83894 0.5635,1.00107 0.8142,0.34781 0.088,-0.22931 0.023,-0.41732 -0.1439,-0.41736 -0.1891,-2e-5 -0.2415,-0.31281 -0.1397,-0.82404 0.094,-0.46901 0.035,-0.90394 -0.1352,-1.00953 -0.042,-0.0254 -0.086,-0.0396 -0.131,-0.0432 z m -23.831,0.48336 0.01,0.002 c -0.8061,5.6e-4 -0.9111,0.0912 -0.9628,0.83474 -0.04,0.57235 0.069,0.83425 0.348,0.83428 0.2502,-1e-5 0.4178,-0.29357 0.431,-0.76785 l 0.029,-0.76516 0.3019,0.76516 c 0.3974,1.00621 0.7517,0.97349 0.7517,-0.0695 0,-0.75629 -0.085,-0.8344 -0.9043,-0.83384 z m 22.4715,0.002 v 5.7e-4 c -0.2784,-7e-5 -0.4174,0.27811 -0.4179,0.83429 0,0.55649 0.1393,0.83475 0.4173,0.83473 0.2781,2e-5 0.4177,-0.27819 0.4174,-0.83473 0,-0.5564 -0.1395,-0.83477 -0.4174,-0.83473 z M 151,-47.96386 c -0.2888,-2e-5 -0.4335,0.40277 -0.502,1.39836 -0.078,1.12581 -0.016,1.38323 0.321,1.31943 0.5897,-0.11196 0.7635,-2.71781 0.181,-2.71779 z m 10.1137,0 c -0.153,2e-5 -0.274,0.53202 -0.2738,1.18254 0,0.866 0.077,1.07081 0.2738,0.76517 0.3549,-0.54936 0.3549,-1.94771 0,-1.94771 z m 16.1378,0 c -0.307,4e-5 -0.3747,1.0956 -0.1098,1.78585 0.2733,0.71188 0.3879,0.51324 0.3879,-0.67287 0,-0.6121 -0.1251,-1.11298 -0.2781,-1.11298 z m 7.8228,0 c -1.0041,0 -1.3728,0.9732 -0.6475,1.7096 0.5938,0.60301 0.5696,0.60093 1.0717,0.099 0.371,-0.37105 0.3459,-0.42187 -0.2279,-0.45527 l -0.6461,-0.0383 0.626,-0.12039 c 0.3912,-0.0754 0.626,-0.32193 0.626,-0.65771 0,-0.4065 -0.1949,-0.53684 -0.8022,-0.53687 z m -6.3425,0.0236 c -0.6062,0.006 -0.6461,0.14423 -0.6461,0.63497 0,0.37808 0.089,0.91646 0.197,1.19681 0.1573,0.40822 0.2333,0.32706 0.3845,-0.40846 0.2439,-1.18738 0.5319,-1.46853 0.5319,-0.51948 0,0.48652 0.1492,0.74239 0.4334,0.74244 0.239,-3e-5 0.357,-0.12431 0.2637,-0.27601 -0.094,-0.1518 -0.042,-0.49615 0.1141,-0.76519 0.2411,-0.41785 0.2826,-0.37351 0.2929,0.29876 0.01,0.50446 0.1338,0.74713 0.3566,0.67288 0.1913,-0.0638 0.3475,-0.41902 0.3484,-0.78836 0,-0.61501 -0.1246,-0.6794 -1.4609,-0.75626 -0.3477,-0.02 -0.6128,-0.0334 -0.8146,-0.0317 z m -29.1858,0.006 v 5.8e-4 c -0.095,5.7e-4 -0.2042,0.003 -0.327,0.008 -0.6458,0.0235 -0.8048,0.0835 -0.4173,0.1583 0.5703,0.10982 0.91,0.63252 0.4173,0.64299 -0.1144,0.002 -0.3828,0.11429 -0.5952,0.24883 -0.3294,0.20864 -0.3294,0.30578 0,0.66349 0.2124,0.23063 0.4288,0.30687 0.4795,0.169 0.051,-0.13804 0.3324,-0.25108 0.626,-0.25104 0.4071,-2e-5 0.5329,-0.19753 0.5329,-0.83474 0,-0.68749 -0.047,-0.80902 -0.7167,-0.80486 z m 7.7899,0 v 5.8e-4 c -0.095,5.7e-4 -0.2037,0.003 -0.3263,0.008 -0.646,0.0235 -0.8049,0.0836 -0.4175,0.1583 0.5703,0.10983 0.91,0.63251 0.4175,0.64299 -0.1145,0.002 -0.383,0.1143 -0.5954,0.24883 -0.3294,0.2087 -0.3294,0.30574 0,0.66349 0.2124,0.23064 0.4277,0.30692 0.4794,0.169 0.051,-0.13804 0.3325,-0.25104 0.6261,-0.25104 0.4068,1e-5 0.5331,-0.19748 0.5329,-0.83474 0,-0.68754 -0.048,-0.80906 -0.7172,-0.80486 z m 27.706,0.24882 c 0.153,-2e-5 0.2782,0.12518 0.2781,0.27825 0,0.15316 -0.1258,0.27808 -0.2785,0.27824 -0.1535,-8e-5 -0.2784,-0.12517 -0.2784,-0.27824 -2e-4,-0.15318 0.1258,-0.27795 0.2788,-0.27825 z m 2.2255,0 c 0.1529,-2e-5 0.2783,0.25046 0.2783,0.55649 0,0.30604 -0.1251,0.55658 -0.2783,0.55649 -0.1532,2e-5 -0.2783,-0.25041 -0.2783,-0.55649 0,-0.30606 0.1251,-0.55654 0.2783,-0.55649 z m -34.5724,0.0602 c 0.051,0.0125 0.067,0.14996 0.067,0.42674 0,0.34435 -0.1207,0.62606 -0.2737,0.62605 -0.3486,0 -0.3486,-0.29528 0,-0.83473 0.085,-0.12517 0.1411,-0.19978 0.1824,-0.21583 0.01,-0.003 0.016,-0.004 0.024,-0.002 z m -16.452,0.59173 c 0.034,0.006 0.07,0.0202 0.1082,0.0437 0.1531,0.0944 0.2783,0.22681 0.2783,0.29429 0,0.0675 -0.1256,0.12287 -0.2783,0.12307 -0.153,7e-5 -0.2781,-0.1326 -0.2783,-0.29474 0,-0.12176 0.071,-0.18268 0.1701,-0.16632 z" sodipodi:nodetypes="csssssscscssssccscccccccssscssccsssscccscscccscscccccccccssscscccccssssscccccccccccccccssssccccsssscsscssssssssccsssssssscccssssscsssssssscsssssssscsscscssssssssscsssscsssssssccsssssscccsssscscsssssscsscscccccssccsscccssscsssssssssssssssccssssssssscccscssscccsssssssccccsssscsscscssssssssssscssscssss"/>
  </g>
</svg>