<svg xmlns:dc="http://purl.org/dc/elements/1.1/" xmlns:cc="http://creativecommons.org/ns#" xmlns:rdf="http://www.w3.org/1999/02/22-rdf-syntax-ns#" xmlns:svg="http://www.w3.org/2000/svg" xmlns="http://www.w3.org/2000/svg" xmlns:sodipodi="http://sodipodi.sourceforge.net/DTD/sodipodi-0.dtd" xmlns:inkscape="http://www.inkscape.org/namespaces/inkscape" width="43.310604mm" height="38.6936mm" viewBox="0 0 43.310604 38.6936" version="1.1" id="svg3318" sodipodi:docname="multipage-export-tzgla6cx.svg">
  <defs id="defs3312"/>
  <sodipodi:namedview id="base" pagecolor="#ffffff" bordercolor="#666666" borderopacity="1.0" inkscape:pageopacity="0.0" inkscape:pageshadow="2" inkscape:zoom="0.18043338" inkscape:cx="2250.6913" inkscape:cy="446.75727" inkscape:document-units="mm" inkscape:current-layer="layer1" inkscape:document-rotation="0" showgrid="false" inkscape:window-width="1920" inkscape:window-height="1001" inkscape:window-x="-9" inkscape:window-y="-9" inkscape:window-maximized="1"/>
  <metadata id="metadata3315">
    <rdf:RDF>
      <cc:Work rdf:about="">
        <dc:format>image/svg+xml</dc:format>
        <dc:type rdf:resource="http://purl.org/dc/dcmitype/StillImage"/>
      </cc:Work>
    </rdf:RDF>
  </metadata>
  <g inkscape:label="Layer 1" inkscape:groupmode="layer" id="layer1" transform="translate(113.0159,117.47767)">
    <path id="path26958" style="display:inline;fill:#ffffff;fill-opacity:0.841629;stroke-width:2.27176" d="m -90.9642,-117.4761 c -3.3918,-0.0512 -6.4675,1.15013 -9.0567,3.56188 -3.1446,2.92927 -4.3856,6.21986 -4.1406,10.97661 0.1328,2.57684 0.2502,3.01738 1.3858,5.20804 1.8256,3.52458 4.7704,5.89184 8.5645,6.88597 1.941,0.50858 5.2537,0.39211 7.213,-0.25371 9.5092,-3.13409 12.2771,-15.86824 4.9388,-22.72297 -2.1722,-2.02927 -3.1577,-2.50783 -4.2727,-2.07637 -1.6754,0.64821 -3.3388,2.9586 -3.3388,4.63709 0,0.52317 0.2376,0.76695 0.9853,1.01027 3.1388,1.0212 4.7769,3.25919 4.7653,6.5315 -0.01,4.11993 -2.9203,7.12152 -6.9389,7.15374 -2.8647,0.0226 -5.0871,-1.36537 -6.5784,-4.10835 -1.9665,-3.61658 -0.8008,-8.90021 2.691,-12.19475 1.6933,-1.59782 4.8155,-3.06093 6.9377,-3.25146 1.7617,-0.1581 1.8915,-0.50016 0.336,-0.88684 -1.1942,-0.29698 -2.3605,-0.45354 -3.4913,-0.47065 z m 3.4565,30.508 c -0.7456,-0.01 -1.7025,0.64637 -1.8135,1.38426 -0.057,0.38424 -0.2965,0.80029 -0.5303,0.92498 -0.5619,0.29877 -0.5438,1.02374 0.029,1.22906 0.347,0.12423 0.4548,0.65413 0.4548,2.233 0,1.39948 0.1228,2.11123 0.3788,2.19711 0.7038,0.23562 0.8338,-0.10652 0.8338,-2.18758 0,-1.83596 0.069,-2.09106 0.6062,-2.2221 0.7899,-0.1919 0.7872,-0.96081 0,-1.19411 -0.7333,-0.21752 -0.5169,-0.64264 0.5137,-1.00847 0.815,-0.2898 0.8152,-0.75511 0,-1.23543 -0.134,-0.0845 -0.2974,-0.11821 -0.4694,-0.12072 z m -8.8155,0.20061 -0.6913,0.0912 c -0.5323,0.0706 -0.7122,0.30329 -0.7853,1.01255 -0.084,0.81299 -0.2003,0.92049 -0.9993,0.92041 -1.4502,4e-5 -2.3918,1.16993 -2.3918,2.97326 0,1.16212 0.1528,1.62943 0.7234,2.20439 v 6.3e-4 c 0.6293,0.63458 0.9355,0.71907 2.3495,0.65265 l 1.6256,-0.0762 0.085,-3.88911 z m -8.3558,1.99381 c -0.6437,0.0278 -1.2863,0.34159 -1.8234,0.93767 -0.7109,0.78972 -0.7982,1.09091 -0.6718,2.31969 0.1109,1.08097 0.3355,1.5655 0.9584,2.06597 1.0597,0.85124 2.0289,0.82715 3.1818,-0.0794 0.8239,-0.64768 0.9334,-0.90657 0.9334,-2.22391 0,-1.1902 -0.1504,-1.64206 -0.7438,-2.24026 -0.545,-0.54914 -1.1903,-0.80768 -1.8346,-0.77973 z m 11.4148,0.0104 c -0.8239,0.0126 -1.5607,0.3472 -1.5607,0.93542 0,0.4747 0.1434,0.54406 0.8479,0.41255 0.9369,-0.17503 1.7576,0.15212 1.4708,0.58594 -0.1063,0.15048 -0.617,0.35942 -1.1469,0.45838 -0.529,0.0989 -1.1462,0.32214 -1.3704,0.49608 -0.6161,0.47753 -0.49,1.86886 0.2302,2.54161 0.4813,0.44951 0.8627,0.55443 1.5539,0.42481 0.5033,-0.0941 1.2399,-0.17112 1.6358,-0.17109 0.6982,7e-5 0.72,-0.0695 0.72,-2.26567 0,-1.88788 -0.1013,-2.35962 -0.6063,-2.83166 -0.4405,-0.41132 -1.1338,-0.59629 -1.7743,-0.58637 z m 9.156,0.0195 c -2.4748,2e-5 -3.3749,4.1169 -1.2099,5.53347 2.1992,1.43887 4.779,-1.01319 3.8455,-3.6554 -0.4386,-1.24148 -1.3321,-1.87809 -2.6356,-1.87807 z m 12.0791,0.0214 c -1.5474,-0.0459 -2.5736,1.09573 -2.5336,2.94419 0.03,1.40148 0.4707,2.24015 1.3988,2.66143 0.8936,0.40482 2.0851,0.37973 2.7267,-0.0586 0.9012,-0.61546 0.4295,-1.13213 -1.0561,-1.15643 -1.0073,-0.0165 -1.3661,-0.14176 -1.4417,-0.50243 -0.083,-0.39488 0.1856,-0.49553 1.5105,-0.56641 1.39,-0.0744 1.6231,-0.1705 1.7047,-0.70394 0.14,-0.91986 -0.7585,-2.32279 -1.6164,-2.52391 -0.2403,-0.0568 -0.4717,-0.0875 -0.6929,-0.0939 z m -5.4079,0.0612 c -0.1037,-0.003 -0.2175,-0.002 -0.3425,0.002 -0.1431,0.003 -0.3018,0.01 -0.4782,0.0186 -0.8781,0.0443 -1.7584,0.17398 -1.9575,0.28865 -0.386,0.22287 -0.5276,4.74015 -0.1594,5.08414 0.1115,0.10366 0.4528,0.18844 0.758,0.18881 0.486,-2e-5 0.5562,-0.24966 0.5565,-1.992 0,-1.80486 0.063,-2.0137 0.6815,-2.23253 1.1097,-0.39277 1.4403,0.13002 1.4406,2.277 -3e-4,1.88867 0.023,1.9476 0.7574,1.94753 0.7396,2e-5 0.758,-0.0499 0.758,-2.08595 0,-1.67132 -0.1228,-2.2316 -0.6192,-2.82075 -0.4187,-0.49721 -0.6683,-0.65846 -1.3952,-0.67488 z m -30.9285,0.0495 v 6.3e-4 c -0.4382,0.0326 -0.7939,0.57014 -1.1827,1.72467 -0.2831,0.84074 -0.6229,1.46658 -0.7555,1.39017 -0.1345,-0.0726 -0.4667,-0.7744 -0.743,-1.55129 -0.4179,-1.17628 -0.6246,-1.41287 -1.2353,-1.41287 -0.4037,0 -0.7339,0.1057 -0.7339,0.23464 0,0.20768 1.0175,2.72126 1.8324,4.52816 0.2067,0.45815 0.4988,0.62927 0.9672,0.56641 0.5417,-0.0728 0.8669,-0.57884 1.6786,-2.61422 0.7461,-1.86861 0.9125,-2.57797 0.6415,-2.73452 -0.1659,-0.10159 -0.3241,-0.14263 -0.4704,-0.13161 z m 24.3762,1.05432 v 6.2e-4 c 0.062,-8.7e-4 0.1254,0.007 0.189,0.0268 0.7289,0.22515 1.2471,1.54349 0.9339,2.37779 -0.3259,0.86962 -1.2746,1.17736 -1.8819,0.61042 -0.8119,-0.75887 -0.1676,-2.99867 0.759,-3.01545 z m 11.9016,0.0181 v 6.3e-4 c 0.1368,-2.4e-4 0.2728,0.0714 0.4547,0.21104 0.2497,0.19451 0.4552,0.46416 0.4552,0.60093 0,0.13678 -0.4092,0.24829 -0.9095,0.24824 -0.9967,1.2e-4 -1.1594,-0.30323 -0.4552,-0.84917 0.1814,-0.14061 0.3182,-0.21149 0.4548,-0.21149 z m -26.4066,0.0322 c 0.4413,0.024 0.645,0.60388 0.5765,1.70152 -0.078,1.26002 -0.18,1.46347 -0.7738,1.54222 -1.203,0.15953 -1.587,-2.1924 -0.4861,-2.97414 0.2264,-0.16059 0.4237,-0.24913 0.5918,-0.26686 0.032,-0.003 0.062,-0.004 0.091,-0.003 z m -6.1695,0.0577 c 0.855,-0.051 1.5777,1.32947 1.0003,2.51301 -0.3771,0.77354 -1.1165,0.93911 -1.7112,0.38398 -0.5182,-0.48464 -0.45,-2.08837 0.112,-2.61333 0.1972,-0.18409 0.4014,-0.27194 0.5989,-0.28366 z m 11.608,1.98926 v 0 c 0.5195,0.005 0.8222,0.48411 0.513,0.95083 -0.1121,0.16086 -0.4612,0.29682 -0.785,0.29684 -0.8061,5e-5 -0.7757,-1.02104 0.037,-1.21954 0.083,-0.0194 0.1608,-0.0292 0.235,-0.0281 z"/>
  </g>
</svg>