<svg xmlns:dc="http://purl.org/dc/elements/1.1/" xmlns:cc="http://creativecommons.org/ns#" xmlns:rdf="http://www.w3.org/1999/02/22-rdf-syntax-ns#" xmlns:svg="http://www.w3.org/2000/svg" xmlns="http://www.w3.org/2000/svg" xmlns:sodipodi="http://sodipodi.sourceforge.net/DTD/sodipodi-0.dtd" xmlns:inkscape="http://www.inkscape.org/namespaces/inkscape" width="41.122574mm" height="15.652819mm" viewBox="0 0 41.122574 15.652819" version="1.1" id="svg3318" sodipodi:docname="multipage-export-tzgla6cx.svg">
  <defs id="defs3312"/>
  <sodipodi:namedview id="base" pagecolor="#ffffff" bordercolor="#666666" borderopacity="1.0" inkscape:pageopacity="0.0" inkscape:pageshadow="2" inkscape:zoom="0.18043338" inkscape:cx="2250.6913" inkscape:cy="446.75727" inkscape:document-units="mm" inkscape:current-layer="layer1" inkscape:document-rotation="0" showgrid="false" inkscape:window-width="1920" inkscape:window-height="1001" inkscape:window-x="-9" inkscape:window-y="-9" inkscape:window-maximized="1"/>
  <metadata id="metadata3315">
    <rdf:RDF>
      <cc:Work rdf:about="">
        <dc:format>image/svg+xml</dc:format>
        <dc:type rdf:resource="http://purl.org/dc/dcmitype/StillImage"/>
      </cc:Work>
    </rdf:RDF>
  </metadata>
  <g inkscape:label="Layer 1" inkscape:groupmode="layer" id="layer1" transform="translate(-141.10902,22.04971)">
    <path id="path26998-6" style="display:inline;fill:#ffffff;fill-opacity:0.841629;stroke-width:1.08323" d="m 179.2659,-22.04971 c -3.5413,-2e-5 -3.9426,0.14462 -4.9205,1.77362 -0.5344,0.89004 -0.5418,0.88662 1.9792,0.88658 1.6466,4e-5 2.291,0.0485 2.291,0.17244 1e-4,0.0948 -0.2993,1.11817 -0.6651,2.27411 -0.3658,1.1559 -0.6652,2.15201 -0.6652,2.21325 1e-4,0.0613 0.373,0.0726 0.8288,0.0256 0.9561,-0.0987 1.8554,-0.61783 2.1896,-1.26391 0.3634,-0.70287 2.0137,-5.80265 1.9244,-5.94714 -0.045,-0.074 -1.3785,-0.13454 -2.9622,-0.13453 z m -5.6206,4.75193 c -0.1288,-7.5e-4 -0.2561,-2.7e-4 -0.3807,7.5e-4 -0.7475,0.008 -1.3948,0.0526 -1.6255,0.12009 -0.674,0.19707 -1.3798,0.77427 -1.6984,1.3892 -0.3842,0.74138 -3.1386,9.15356 -3.046,9.30324 0.1149,0.18599 1.2857,0.01 1.9131,-0.28802 0.8666,-0.41126 1.2006,-1.05122 2.3534,-4.5063 0.6034,-1.80867 1.1805,-3.34169 1.2826,-3.40657 0.1021,-0.0648 0.3856,-0.11924 0.6294,-0.12151 0.7491,-0.006 1.9361,-0.65579 2.3445,-1.28284 0.7352,-1.12848 0.7103,-1.15024 -1.3837,-1.20183 -0.1299,-0.003 -0.26,-0.005 -0.3887,-0.006 z m -23.1508,0.41901 c -2.2093,1.1e-4 -4.4976,0.053 -4.8781,0.1587 -0.3072,0.0853 -0.7895,0.35759 -1.0715,0.60542 -0.45,0.39493 -0.6134,0.76138 -1.3263,2.97168 -0.447,1.38665 -0.8129,2.57712 -0.8129,2.64528 -1e-4,0.0681 1.1807,0.12419 2.6235,0.12458 1.4429,2.7e-4 3.1767,0.0442 3.8527,0.0969 l 1.2299,0.0955 -0.096,0.38301 c -0.1871,0.74571 -0.2226,0.75416 -3.187,0.75416 -3.3124,-2e-5 -4.0963,0.1348 -4.8754,0.8385 -0.5684,0.51356 -0.9834,1.38352 -0.8008,1.67888 0.067,0.10874 1.5183,0.14444 4.6293,0.11369 4.4642,-0.0441 4.5401,-0.0501 5.146,-0.39722 0.3383,-0.19379 0.7434,-0.52636 0.9,-0.739 0.1571,-0.21245 0.636,-1.44154 1.0654,-2.73127 0.6324,-1.89857 0.7425,-2.36905 0.5782,-2.47095 -0.1108,-0.0703 -1.7785,-0.11128 -3.7047,-0.0935 -2.3374,0.0214 -3.555,-0.0206 -3.6614,-0.12649 -0.2449,-0.24378 0.2039,-1.18796 0.6176,-1.29872 0.186,-0.0499 1.654,-0.0914 3.262,-0.0926 2.1173,-10e-4 3.0556,-0.0572 3.4018,-0.2018 0.859,-0.35892 1.7974,-1.69648 1.513,-2.15664 -0.065,-0.10569 -2.1959,-0.15812 -4.4051,-0.15799 z m 13.063,0.002 c -3.9334,-2e-5 -4.8348,0.0393 -5.4514,0.23852 -0.7457,0.24076 -1.3425,0.68617 -1.7206,1.28356 -0.279,0.4413 -2.895,8.28576 -2.8952,8.68196 v 2.2e-4 c 0,0.28826 0.054,0.30675 0.6283,0.21579 0.9183,-0.14546 1.835,-0.62474 2.2158,-1.15826 0.1834,-0.25722 0.7992,-1.86433 1.3681,-3.57141 l 1.0346,-3.1036 0.7759,-0.0448 c 0.5616,-0.0323 0.7761,0.009 0.7761,0.14781 1e-4,0.1059 -0.5385,1.80733 -1.1964,3.78127 -0.658,1.97396 -1.1567,3.69234 -1.1081,3.81869 0.2082,0.54244 2.4273,-0.24695 2.9111,-1.03557 0.1551,-0.25312 0.7254,-1.83933 1.2674,-3.52498 l 0.9854,-3.06475 0.4905,-0.0921 c 0.6138,-0.11512 0.9331,0.002 0.9387,0.34202 0,0.14488 -0.5403,1.8468 -1.2038,3.78199 -0.9081,2.64934 -1.1639,3.56042 -1.0363,3.68818 0.1281,0.12743 0.3715,0.12747 0.9863,-0.002 0.9648,-0.20235 1.6068,-0.62171 1.9416,-1.26816 0.2759,-0.53288 3.0045,-8.63975 3.0043,-8.9271 2e-4,-0.14782 -1.0017,-0.18765 -4.7123,-0.18761 z" sodipodi:nodetypes="sssssssssssscsssssscsssssscsssscsssssscscssssssssssssssscssscsscscsccssss"/>
  </g>
</svg>