<svg xmlns:dc="http://purl.org/dc/elements/1.1/" xmlns:cc="http://creativecommons.org/ns#" xmlns:rdf="http://www.w3.org/1999/02/22-rdf-syntax-ns#" xmlns:svg="http://www.w3.org/2000/svg" xmlns="http://www.w3.org/2000/svg" xmlns:sodipodi="http://sodipodi.sourceforge.net/DTD/sodipodi-0.dtd" xmlns:inkscape="http://www.inkscape.org/namespaces/inkscape" width="41.649029mm" height="23.789164mm" viewBox="0 0 41.649029 23.789164" version="1.1" id="svg3318" sodipodi:docname="multipage-export-tzgla6cx.svg">
  <defs id="defs3312"/>
  <sodipodi:namedview id="base" pagecolor="#ffffff" bordercolor="#666666" borderopacity="1.0" inkscape:pageopacity="0.0" inkscape:pageshadow="2" inkscape:zoom="0.18043338" inkscape:cx="2250.6913" inkscape:cy="446.75727" inkscape:document-units="mm" inkscape:current-layer="layer1" inkscape:document-rotation="0" showgrid="false" inkscape:window-width="1920" inkscape:window-height="1001" inkscape:window-x="-9" inkscape:window-y="-9" inkscape:window-maximized="1"/>
  <metadata id="metadata3315">
    <rdf:RDF>
      <cc:Work rdf:about="">
        <dc:format>image/svg+xml</dc:format>
        <dc:type rdf:resource="http://purl.org/dc/dcmitype/StillImage"/>
      </cc:Work>
    </rdf:RDF>
  </metadata>
  <g inkscape:label="Layer 1" inkscape:groupmode="layer" id="layer1" transform="translate(-72.082371,22.859583)">
    <path id="path26960" style="display:inline;fill:#ffffff;fill-opacity:0.841629;stroke-width:1.70265" d="m 92.4397,-22.85958 c -2.7087,-6.1e-4 -5.4209,0.0893 -6.3806,0.26991 -0.7851,0.14785 -1.6743,0.29536 -1.9764,0.32809 -0.302,0.033 -0.7959,0.12024 -1.0977,0.19525 -0.3021,0.0747 -1.5373,0.34935 -2.7452,0.60928 -2.4994,0.53758 -7.2889,2.03484 -7.8706,2.46007 -0.3411,0.24951 -0.36,0.41672 -0.1514,1.37615 0.1305,0.60069 0.302,1.24062 0.3808,1.42181 0.079,0.18119 0.1717,0.47776 0.2067,0.65886 0.078,0.41273 2.5581,11.69903 3.172,14.43899 l 0.4556,2.03075 h 15.652 15.6524 l 0.5653,-2.14092 c 0.9657,-3.65745 3.9306,-17.41823 3.8169,-17.71454 -0.202,-0.52637 -8.726,-3.02333 -11.3468,-3.32381 -0.302,-0.0347 -1.1914,-0.18605 -1.9765,-0.33677 -0.9436,-0.1811 -3.6481,-0.27243 -6.3565,-0.27312 z m -0.3418,1.50593 c 5.5762,-0.009 6.8183,0.10853 10.7605,0.99042 1.0871,0.24318 2.0468,0.45084 2.1327,0.46213 0.086,0.0113 1.4198,0.43817 2.9644,0.94814 l 2.8086,0.92738 -0.061,0.77598 c -0.033,0.42723 -0.3894,2.09864 -0.7909,3.7138 -0.4015,1.61524 -1.2125,5.1851 -1.8025,7.93288 L 107.0363,-0.607 H 92.2735 77.5107 L 77.284,-1.45026 c -0.1251,-0.46378 -0.4846,-2.06982 -0.7992,-3.56882 -0.8576,-4.08702 -1.0908,-5.11503 -1.7126,-7.5566 -0.6757,-2.65116 -1.1662,-5.05679 -1.0796,-5.29189 0.049,-0.13257 1.1468,-0.56214 2.4396,-0.95447 1.2925,-0.3925 2.9727,-0.90464 3.734,-1.13818 3.3965,-1.04199 6.4308,-1.38752 12.2312,-1.39343 z m 0.1333,0.89431 c -3.0803,3.5e-4 -6.1033,0.2121 -8.4778,0.6349 -3.2964,0.58689 -8.8939,2.37646 -8.8939,2.84345 0,0.34033 1.1023,5.36377 2.0512,9.34662 0.417,1.75137 0.8785,3.77709 1.0259,4.50176 0.1473,0.72475 0.3457,1.36703 0.4413,1.42745 0.1446,0.093 27.8849,0.17086 27.8849,0.079 0,-0.1917 1.9232,-8.8838 2.5202,-11.38866 0.4316,-1.81171 0.8334,-3.51221 0.8915,-3.77917 0.07,-0.31958 -0.029,-0.55711 -0.2873,-0.69576 -0.9193,-0.49156 -6.3561,-2.01712 -8.3341,-2.33765 -2.6036,-0.4222 -5.7416,-0.63255 -8.8219,-0.63212 z m 21.5002,0.55399 c -0.2809,0.0165 -0.4101,0.0642 -0.2766,0.11824 0.115,0.0469 0.2231,0.29761 0.2766,0.60998 z m -30.6339,3.39101 c 0.414,0 0.5363,0.16391 0.2059,0.40544 -0.3352,0.24526 -0.3258,0.407 0.1292,2.11939 0.5843,2.20005 0.7786,2.62172 1.2066,2.62172 0.4538,-9e-5 0.402,0.60755 -0.062,0.73482 -0.2115,0.0582 -0.7494,0.16669 -1.1952,0.24179 l -0.8116,0.13657 0.1088,-0.72111 c 0.06,-0.39676 -0.027,-1.16596 -0.1922,-1.70944 l -0.3002,-0.98859 -0.2889,1.53728 c -0.4566,2.42907 -0.5552,2.51997 -1.5113,1.39828 -0.4431,-0.51978 -1.0239,-1.1953 -1.291,-1.50108 l -0.4852,-0.55606 0.1895,0.76868 c 0.1044,0.4228 0.2502,1.04042 0.325,1.37259 0.092,0.41004 0.2744,0.60399 0.5701,0.6039 0.2402,9e-5 0.4352,0.1475 0.435,0.32982 0,0.18128 -0.1238,0.32991 -0.2744,0.33078 v 0 c -0.1512,6.9e-4 -0.5445,0.14212 -0.8747,0.31436 -0.6521,0.34016 -1.0356,0.09 -0.6233,-0.40691 0.1773,-0.21435 0.1512,-0.69211 -0.1002,-1.80199 -0.5673,-2.50252 -0.7507,-2.938 -1.2372,-2.938 -0.6885,0 -0.3488,-0.50692 0.4843,-0.72293 0.8189,-0.21218 0.6149,-0.36906 2.4718,1.89949 0.459,0.56067 0.9142,1.01924 1.0118,1.01924 0.098,-1.8e-4 0.3055,-0.76556 0.462,-1.70172 0.3766,-2.25422 0.5271,-2.61416 1.1422,-2.7318 0.1969,-0.0373 0.3677,-0.0547 0.5057,-0.0538 z m 9.1229,0.0312 c 1.4373,0.009 2.8749,0.059 3.0415,0.16226 0.1678,0.10627 0.1421,0.25134 -0.088,0.48106 -0.1815,0.18241 -0.3299,0.57178 -0.331,0.86444 -2e-4,0.4057 0.118,0.53385 0.4941,0.53636 0.2717,0 0.7031,0.059 0.959,0.12771 0.3773,0.10149 0.4883,0.009 0.5892,-0.49694 0.094,-0.47125 0.01,-0.71416 -0.3552,-1.00162 -0.4746,-0.37557 -0.4704,-0.3793 0.4358,-0.38434 1.0227,-0.009 1.7596,0.20541 1.4323,0.41004 -0.118,0.0738 -0.2858,0.99762 -0.3733,2.05289 -0.1401,1.68678 -0.1143,1.93586 0.2112,2.06062 0.5627,0.21609 0.7361,-0.1034 1.0082,-1.85434 0.2265,-1.45932 0.2119,-1.64962 -0.1545,-2.06348 -0.3975,-0.44902 -0.3951,-0.45432 0.1451,-0.32453 0.3018,0.0729 1.216,0.20012 2.0313,0.28303 1.4502,0.1475 1.4821,0.16478 1.4821,0.77954 0,0.73821 -0.4281,0.82763 -0.8359,0.17485 -0.3874,-0.62023 -1.2258,-0.48827 -1.3244,0.20871 -0.089,0.63298 0.3418,0.95178 0.8905,0.65816 0.5861,-0.31358 0.7958,-0.0755 0.6334,0.71902 -0.1455,0.71208 -0.6815,1.14921 -0.6813,0.55607 0,-0.29622 -0.4343,-0.59062 -0.8715,-0.59053 -0.2338,0 -0.4099,1.24071 -0.2198,1.54822 0.2339,0.37818 1.7022,0.6428 1.9374,0.34909 0.11,-0.13743 0.4461,-1.06134 0.7469,-2.05289 0.4766,-1.57001 0.5081,-1.85911 0.2436,-2.23694 -0.1674,-0.23866 -0.2285,-0.47464 -0.1366,-0.52516 0.092,-0.0504 0.9338,0.16495 1.8715,0.4794 1.9872,0.66624 2.521,1.21241 2.2177,2.27003 -0.1625,0.56709 -0.3608,0.77441 -1.1473,1.19947 -0.2042,0.11026 0.4977,2.31048 0.7703,2.41501 0.2374,0.0906 0.2502,0.18952 0.057,0.42271 -0.2863,0.34475 -0.3449,0.34953 -1.008,0.0825 -0.4725,-0.19031 -0.9461,-1.34307 -0.9461,-2.31543 0,-0.4485 -0.3771,-0.97696 -0.695,-0.97705 -0.2933,9e-5 -0.6986,1.84184 -0.4253,1.93291 0.133,0.0434 0.2408,0.23163 0.2408,0.41673 0,0.24526 -0.1348,0.29761 -0.4941,0.19351 -1.394,-0.40422 -4.4002,-1.00161 -5.7157,-1.13566 -1.619,-0.16504 -1.9081,-0.34866 -1.3806,-0.87599 0.1887,-0.18909 0.3435,-0.6329 0.3435,-0.98651 0,-0.56431 -0.079,-0.64306 -0.6408,-0.64306 -0.3527,0 -0.7974,-0.0599 -0.9884,-0.13335 -0.2824,-0.10878 -0.3473,0.0373 -0.3473,0.77572 0,0.60355 0.1102,0.95135 0.328,1.03504 0.8336,0.31983 -0.1353,0.51882 -2.5242,0.51873 -2.4092,9e-5 -3.4322,-0.23093 -2.539,-0.57369 0.2737,-0.10496 0.3435,-0.50597 0.3431,-1.9751 0,-1.60969 -0.048,-1.84305 -0.3841,-1.8414 -0.5252,0 -0.8713,0.84057 -0.6976,1.68973 0.4725,2.311 -2.4707,4.07974 -4.2069,2.52839 -1.2203,-1.09025 -1.0628,-3.52367 0.2741,-4.23922 0.7727,-0.41351 2.5154,-0.34354 3.0292,0.12146 0.4371,0.39554 0.4481,0.3938 0.4481,-0.0556 0,-0.25308 0.1197,-0.53359 0.2664,-0.62405 0.1653,-0.10227 1.6026,-0.14993 3.0402,-0.14603 z m 1.0642,0.50398 c -0.1893,0 -0.1897,0.0747 0,0.30369 0.1948,0.23475 0.1738,0.33364 -0.091,0.43539 -0.1983,0.0764 -0.3955,-0.009 -0.4676,-0.19387 -0.069,-0.17919 -0.3125,-0.32556 -0.5409,-0.32556 -0.3729,0 -0.4157,0.17849 -0.4157,1.71994 0,0.94614 0.07,1.79105 0.1566,1.87726 v 6.1e-4 c 0.086,0.0859 0.4569,0.12719 0.8235,0.0912 0.6557,-0.0643 0.6699,-0.0917 0.8532,-1.66291 0.1939,-1.66473 0.1124,-2.2451 -0.3161,-2.2451 z m -6.7067,0.57829 c -0.5352,-0.009 -0.9424,0.32783 -0.9889,0.84917 -0.1058,1.19365 0.065,1.92092 0.5698,2.42568 0.6687,0.6685 1.0684,0.67883 1.6675,0.0452 0.384,-0.40692 0.4436,-0.66564 0.3368,-1.46627 -0.1476,-1.10553 -0.5714,-1.68053 -1.3482,-1.82907 -0.081,-0.0156 -0.1604,-0.0234 -0.237,-0.0243 z m 18.5023,0.54895 c -0.2204,0.0156 -0.3808,0.28311 -0.5156,0.81548 -0.1758,0.69306 -0.1508,0.88866 0.1383,1.08826 0.5398,0.37297 0.9802,0.21018 1.211,-0.44625 0.1656,-0.47089 0.1255,-0.68837 -0.1939,-1.04111 -0.2603,-0.28772 -0.4679,-0.42827 -0.6395,-0.41638 z m -12.4108,5.89935 v 6.9e-4 c 0.9899,-9e-5 1.1003,0.0452 0.9419,0.38426 -0.099,0.21131 -0.2159,1.20711 -0.2599,2.21237 l -0.079,1.82769 0.6201,-0.0712 c 0.6188,-0.0712 0.6206,-0.0755 0.6846,-1.88647 0.052,-1.47268 0,-1.83984 -0.2745,-1.94523 -0.7768,-0.29796 -0.2364,-0.52195 1.2595,-0.52195 2.3475,9e-5 3.1732,0.80471 2.2209,2.16445 -0.3369,0.47967 -0.3237,0.54417 0.2961,1.31138 0.394,0.48809 0.8807,0.83389 1.233,0.87599 0.5334,0.0634 0.5815,0 0.5815,-0.71728 0,-0.79525 -1.1708,-3.19524 -1.5586,-3.19533 -0.1093,7e-4 -0.1987,-0.0983 -0.1984,-0.21956 -1e-4,-0.12094 0.5048,-0.21956 1.1216,-0.21965 0.8812,0 1.0956,0.0677 1.001,0.31359 -0.1268,0.33147 0.2939,1.6629 0.5258,1.66299 0.3025,-9e-5 0.6638,-1.16631 0.4364,-1.39481 -0.4079,-0.40813 -0.2472,-0.58177 0.5388,-0.58177 0.5367,0 0.7686,0.0993 0.7687,0.32947 -10e-5,0.18111 -0.099,0.32904 -0.22,0.32904 -0.1209,1.8e-4 -0.2196,0.12528 -0.2204,0.27808 -2e-4,0.15306 -0.2468,0.64219 -0.5485,1.08678 -0.6834,1.0057 -0.7375,2.14067 -0.1099,2.30493 0.2416,0.0634 0.4386,0.23909 0.4389,0.39059 0,0.3484 -3.1451,0.4307 -3.9576,0.10348 -0.305,-0.12267 -0.825,-0.67058 -1.1551,-1.21735 -0.3303,-0.54669 -0.698,-0.93347 -0.8179,-0.8595 -0.3548,0.2193 -0.2515,1.38605 0.1422,1.6063 0.1968,0.11365 0.2909,0.31315 0.2065,0.44981 -0.1659,0.26965 -6.0856,0.36654 -6.3476,0.10418 -0.08,-0.0799 -0.051,-0.25742 0.064,-0.39554 0.1151,-0.13831 0.1513,-0.47368 0.08,-0.74551 -0.1085,-0.41516 -0.2564,-0.48366 -0.9225,-0.42792 -0.8777,0.0738 -1.2387,0.74194 -0.5954,1.10197 0.1943,0.11217 0.2986,0.29171 0.2291,0.4051 v 2.6e-4 c -0.171,0.2759 -1.5769,0.26392 -1.7495,-0.0148 -0.075,-0.1219 0.092,-0.54157 0.3717,-0.93329 0.4597,-0.64532 1.3493,-2.53951 1.6484,-3.51212 0.3033,-0.98565 1.0451,0.0382 2.1491,2.96482 0.6178,1.63799 0.9554,1.35956 0.9711,-0.80176 0.01,-1.43579 -0.059,-1.8724 -0.3119,-1.96955 -0.6999,-0.26853 -0.2738,-0.57786 0.796,-0.57786 z m -9.385,0.0139 c 0.3125,0 0.7338,0.0104 1.2821,0.0408 1.8476,0.1054 2.0644,0.16522 2.5253,0.70114 1.07,1.24375 0.4635,3.30888 -1.1727,3.99249 -1.2974,0.54208 -3.9108,0.25758 -2.9888,-0.32557 0.1222,-0.0773 0.2352,-0.94406 0.2525,-1.92657 0.024,-1.41695 -0.038,-1.81319 -0.303,-1.91494 -0.1841,-0.0712 -0.334,-0.24378 -0.3342,-0.38504 2e-4,-0.11607 0.2181,-0.17519 0.7388,-0.18266 z m 12.7557,0.52794 c -0.051,0 -0.098,0.009 -0.1348,0.0295 -0.2885,0.17815 -0.2145,1.35844 0.091,1.46132 0.4961,0.16686 1.0428,-0.0997 1.0428,-0.50823 0,-0.38096 -0.6391,-0.96594 -0.9992,-0.9826 z m -11.7379,0.11755 v 1.72029 c 0,0.94622 0.066,1.78627 0.1465,1.86675 0.248,0.24795 0.8304,0.16287 1.3419,-0.19568 0.3964,-0.27747 0.4882,-0.55338 0.4882,-1.46514 0,-1.31824 -0.4267,-1.92631 -1.3519,-1.92622 z m 4.8555,1.09876 c -0.014,8.7e-4 -0.019,0.0122 -0.02,0.0365 0,0.0808 -0.064,0.30309 -0.1367,0.49417 -0.088,0.2279 -0.012,0.34736 0.2195,0.34736 0.194,9e-5 0.3492,-0.0738 0.3492,-0.16469 -0.01,-0.18397 -0.3254,-0.7146 -0.4114,-0.71269 z"/>
  </g>
</svg>