<svg xmlns:dc="http://purl.org/dc/elements/1.1/" xmlns:cc="http://creativecommons.org/ns#" xmlns:rdf="http://www.w3.org/1999/02/22-rdf-syntax-ns#" xmlns:svg="http://www.w3.org/2000/svg" xmlns="http://www.w3.org/2000/svg" xmlns:sodipodi="http://sodipodi.sourceforge.net/DTD/sodipodi-0.dtd" xmlns:inkscape="http://www.inkscape.org/namespaces/inkscape" width="27.143499mm" height="32.981979mm" viewBox="0 0 27.143499 32.981979" version="1.1" id="svg3318" sodipodi:docname="multipage-export-tzgla6cx.svg">
  <defs id="defs3312"/>
  <sodipodi:namedview id="base" pagecolor="#ffffff" bordercolor="#666666" borderopacity="1.0" inkscape:pageopacity="0.0" inkscape:pageshadow="2" inkscape:zoom="0.18043338" inkscape:cx="2250.6913" inkscape:cy="446.75727" inkscape:document-units="mm" inkscape:current-layer="layer1" inkscape:document-rotation="0" showgrid="false" inkscape:window-width="1920" inkscape:window-height="1001" inkscape:window-x="-9" inkscape:window-y="-9" inkscape:window-maximized="1"/>
  <metadata id="metadata3315">
    <rdf:RDF>
      <cc:Work rdf:about="">
        <dc:format>image/svg+xml</dc:format>
        <dc:type rdf:resource="http://purl.org/dc/dcmitype/StillImage"/>
      </cc:Work>
    </rdf:RDF>
  </metadata>
  <g inkscape:label="Layer 1" inkscape:groupmode="layer" id="layer1" transform="translate(-149.4686,115.29619)">
    <path id="path27000" style="display:inline;fill:#ffffff;fill-opacity:0.841629;stroke-width:0.278296" d="m 163.0443,-115.29619 -1.4069,0.0486 0.3245,0.0182 -0.1916,0.0226 c 0,0 -0.9849,0.12545 -1.4284,0.214 -3.0287,0.60503 -5.9036,2.35094 -7.8395,4.76134 -1.6353,2.03657 -2.5825,4.27291 -2.9444,6.95323 -0.061,0.45223 -0.07,2.45798 -0.014,3.01049 0.2768,2.70402 1.4763,5.42975 3.3014,7.50374 2.3866,2.71201 5.7607,4.37448 9.3182,4.59083 0.6403,0.0391 1.848,0.0139 2.3893,-0.0486 4.6262,-0.53931 8.6211,-3.35255 10.6639,-7.50981 0.5587,-1.13706 0.8902,-2.12209 1.1449,-3.40204 0.2016,-1.01585 0.2076,-1.0893 0.2076,-2.51797 0,-1.42963 -0.024,-1.74478 -0.1945,-2.59203 -0.4745,-2.35693 -1.4461,-4.37579 -3.0041,-6.24402 -0.3331,-0.39918 -1.1722,-1.23472 -1.5864,-1.57904 -2.1422,-1.78115 -4.6181,-2.83754 -7.3126,-3.12083 -0.1904,-0.02 -0.3284,-0.0538 -0.3284,-0.0538 z m 0,0.6402 v 8.7e-4 c 0.6729,-9e-5 1.3464,0.0356 1.8352,0.10565 4.1641,0.60017 7.826,3.21938 9.7305,6.96078 0.6739,1.32371 1.1333,2.80673 1.3201,4.2585 0.078,0.60268 0.078,2.61382 0,3.21051 -0.2354,1.80668 -0.7165,3.24047 -1.6467,4.90407 -0.9528,1.70415 -2.5234,3.34769 -4.2349,4.43205 -1.861,1.17889 -3.8591,1.84869 -6.0196,2.0179 v 0 c -0.4393,0.0347 -1.4693,0.033 -1.9613,0 -1.291,-0.0944 -2.6357,-0.40579 -3.8587,-0.89396 -0.3927,-0.15671 -1.2209,-0.55911 -1.6051,-0.77937 -1.7194,-0.98555 -3.194,-2.35258 -4.3223,-4.0075 -0.5844,-0.85758 -1.2337,-2.17825 -1.5492,-3.15174 -0.3635,-1.12203 -0.5641,-2.14587 -0.6264,-3.19559 -0.041,-0.68412 -0.015,-1.9244 0.047,-2.42985 0.3189,-2.53742 1.3144,-4.84816 2.9181,-6.77386 0.2996,-0.35969 1.0628,-1.13992 1.4334,-1.46505 1.8524,-1.6254 4.2443,-2.72442 6.7091,-3.08272 0.4858,-0.0703 1.1579,-0.10557 1.8309,-0.10566 z m 0.4326,0.52151 c -0.6872,-0.009 -1.6043,0.02 -1.9549,0.0669 -1.9862,0.26931 -3.8126,0.95135 -5.3982,2.01513 -0.767,0.51474 -1.2363,0.91176 -2.001,1.69364 -0.5682,0.58089 -0.8198,0.87251 -1.1492,1.33299 -1.1593,1.62089 -1.8963,3.36436 -2.2143,5.23867 -0.2268,1.33595 -0.2153,3.00667 0.03,4.32942 0.4104,2.2129 1.4081,4.26501 2.8994,5.96464 0.3776,0.43026 1.0886,1.11421 1.5052,1.44829 2.0497,1.64346 4.2769,2.52874 6.9763,2.77209 0.2645,0.0234 1.1603,0.0182 1.6536,-0.01 1.6,-0.0915 3.1351,-0.49165 4.6199,-1.20408 2.9664,-1.42311 5.3014,-4.03902 6.3721,-7.13815 1.1927,-3.45317 0.7974,-7.3433 -1.0607,-10.43765 -1.0911,-1.81753 -2.7349,-3.4319 -4.5455,-4.46373 -1.5324,-0.87321 -3.4457,-1.46305 -5.1516,-1.58868 -0.1485,-0.0113 -0.3522,-0.0174 -0.5813,-0.02 z m -0.1591,0.26671 v 0 c 0.6643,0.009 1.271,0.0399 1.3261,0.0807 0.024,0.0182 0.207,0.0443 0.5002,0.0703 0.032,0 0.088,0.0208 0.1229,0.0408 0.035,0.02 0.068,0.0234 0.074,0.009 0.014,-0.0391 1.209,0.2582 1.3658,0.33955 0.044,0.0226 0.1317,0.0503 0.1942,0.0599 0.063,0.0104 0.1141,0.0278 0.1141,0.0399 0,0.0122 0.054,0.0304 0.1191,0.0417 0.065,0.0104 0.1252,0.0382 0.135,0.0625 0.012,0.0286 0.04,0.0382 0.085,0.0269 0.041,-0.0104 0.077,0 0.092,0.0226 0.014,0.0217 0.1047,0.0642 0.2018,0.0942 0.2528,0.0773 0.5421,0.2134 0.5616,0.26323 0.01,0.0252 0.04,0.0365 0.075,0.0278 0.035,-0.009 0.084,0.009 0.1228,0.0434 0.036,0.033 0.1143,0.0747 0.1745,0.0939 0.06,0.0191 0.1527,0.0642 0.2062,0.0999 0.053,0.0356 0.1829,0.1067 0.2882,0.15714 0.1053,0.0503 0.2508,0.13552 0.3238,0.18926 0.073,0.0538 0.196,0.12927 0.2729,0.16791 0.077,0.0382 0.1629,0.0989 0.1918,0.13387 0.029,0.0347 0.1147,0.0952 0.1905,0.13352 0.076,0.0382 0.2143,0.13787 0.3083,0.2213 0.094,0.0833 0.2275,0.1884 0.2966,0.23311 0.069,0.0451 0.2347,0.18683 0.3679,0.31593 0.1334,0.1291 0.2496,0.23536 0.2574,0.23536 0.024,0 0.2669,0.25759 0.2669,0.28424 0,0.0139 0.068,0.0755 0.1506,0.13813 0.083,0.0625 0.1559,0.13882 0.1637,0.16938 0.01,0.0304 0.027,0.0556 0.041,0.0556 0.045,0 0.2576,0.2075 0.3262,0.31854 0.036,0.059 0.1094,0.14446 0.1617,0.19039 0.052,0.046 0.1044,0.11086 0.1141,0.14386 0.01,0.033 0.069,0.10947 0.1293,0.17016 0.3143,0.31419 1.1801,1.69077 1.1801,1.8763 0,0.0382 0.014,0.0695 0.028,0.0695 0.039,0 0.19,0.2687 0.2682,0.47767 0.035,0.0937 0.076,0.17016 0.09,0.17016 0.014,0 0.026,0.0217 0.026,0.0486 0,0.0269 0.065,0.20862 0.1445,0.40474 0.1424,0.35066 0.3856,1.04824 0.3856,1.10684 0,0.0287 -2.5095,0.0304 -18.1357,0.009 -3.5362,-0.009 -5.2796,-0.0174 -5.2796,-0.0373 0,-0.0165 0.065,-0.22529 0.1436,-0.46395 0.3697,-1.11813 0.9587,-2.28392 1.6301,-3.22693 0.34,-0.47776 0.8171,-1.05831 0.8993,-1.09451 0.036,-0.0156 0.066,-0.0443 0.066,-0.0625 0,-0.0608 0.5848,-0.6303 0.6474,-0.6303 0.014,0 0.032,-0.0312 0.041,-0.0694 0.01,-0.0408 0.055,-0.0851 0.1053,-0.10644 0.048,-0.02 0.096,-0.0616 0.1057,-0.0919 0.019,-0.0625 0.7627,-0.66745 1.0991,-0.89544 0.4827,-0.32712 0.5575,-0.37401 0.7605,-0.47306 0.1162,-0.0564 0.2149,-0.11434 0.2209,-0.12789 0.013,-0.033 0.3055,-0.17928 0.359,-0.17928 0.023,0 0.084,-0.0391 0.1342,-0.086 0.051,-0.0477 0.1346,-0.0955 0.1866,-0.10687 0.052,-0.0113 0.1242,-0.0399 0.1602,-0.0634 0.036,-0.0234 0.078,-0.0347 0.096,-0.0243 0.018,0.0104 0.031,0.009 0.031,-0.0113 0,-0.0365 0.1717,-0.12632 0.3387,-0.17815 0.065,-0.02 0.1879,-0.0686 0.2737,-0.10835 0.256,-0.11824 0.81,-0.29318 1.4198,-0.44867 0.8482,-0.21626 1.3254,-0.28954 1.3254,-0.20368 0,0.02 0.016,0.013 0.037,-0.0148 0.063,-0.0851 0.3026,-0.11043 1.2265,-0.12901 0.2161,-0.009 0.4438,-0.009 0.6654,0 z m -9.8591,9.54942 c 0.034,0 0.068,0.0113 0.101,0.0252 0.3097,0.13187 0.3514,0.52316 0.074,0.69471 -0.2381,0.14716 -0.5325,0.0208 -0.5925,-0.2549 -0.054,-0.24899 0.1807,-0.48531 0.4174,-0.46499 z m 2.2897,0.0892 h 0.4716 l 0.2053,0.10296 c 0.2572,0.12901 0.5287,0.38096 0.6631,0.61502 l 0.1033,0.17971 h 2.9965 2.9969 v 0.26479 0.26515 h -0.1324 -0.1325 v 1.42841 1.42841 h -0.3535 -0.3534 v -0.78023 -0.78058 h -0.3166 c -0.1743,0 -0.3405,0.0113 -0.3698,0.0226 -0.029,0.0113 -0.083,0.0721 -0.1182,0.13509 -0.036,0.0625 -0.1125,0.15289 -0.1713,0.20029 -0.3169,0.25507 -0.7622,0.0104 -0.7622,-0.41855 0,-0.1442 0.01,-0.1653 0.1258,-0.28077 0.1682,-0.16782 0.2949,-0.19152 1.0286,-0.19152 h 0.5921 l -0.014,-0.35404 c -0.01,-0.19482 -0.021,-0.3589 -0.026,-0.36472 -0.01,-0.009 -0.4786,-0.0156 -1.0496,-0.0226 l -1.038,-0.0122 v 1.4219 1.42225 h -0.3538 -0.3533 v -0.40969 -0.40978 l -0.125,0.0634 c -0.1069,0.0538 -0.1752,0.0634 -0.464,0.0634 -0.3115,0 -0.3537,-0.009 -0.5238,-0.0851 -0.3397,-0.15688 -0.5628,-0.46395 -0.612,-0.84239 -0.021,-0.162 0.012,-0.21201 0.2084,-0.31897 0.08,-0.0434 0.1752,-0.12389 0.2121,-0.17893 0.1278,-0.19031 0.071,-0.50537 -0.1195,-0.65773 -0.051,-0.0408 -0.125,-0.0512 -0.3803,-0.0512 h -0.3167 v 0.42731 0.42697 h -0.552 c -0.6208,0 -0.7425,0.0252 -0.7757,0.15141 -0.042,0.15949 -0.012,0.17086 0.7134,0.27165 0.5354,0.0747 0.8042,0.20437 0.9114,0.4406 0.1645,0.36221 -0.064,0.82885 -0.4825,0.98547 -0.365,0.13665 -0.8618,0.13804 -1.2605,0 -0.2475,-0.0833 -0.4682,-0.19794 -0.4682,-0.243 0,-0.0295 0.16,-0.24656 0.2609,-0.35179 0.012,-0.0122 0.1192,0.013 0.2405,0.0556 0.2516,0.0882 0.6427,0.10861 0.8308,0.0434 0.1328,-0.046 0.2285,-0.15931 0.2285,-0.27088 0,-0.10157 -0.033,-0.1139 -0.6293,-0.23154 -0.5493,-0.10843 -0.7782,-0.21088 -0.8882,-0.39866 -0.1391,-0.2371 -0.085,-0.58793 0.1213,-0.79204 0.1637,-0.16192 0.2903,-0.20376 0.6673,-0.21939 l 0.3463,-0.0139 v -0.15792 -0.15801 h -0.7806 -0.7806 v 1.42841 1.42841 h -0.3535 -0.3534 v -1.42841 -1.42841 h -0.2789 -0.2791 l -0.01,0.43461 -0.01,0.43417 -0.682,0.0148 c -0.617,0.013 -0.6873,0.02 -0.7434,0.0703 -0.034,0.0313 -0.062,0.0807 -0.062,0.10983 0,0.0997 0.1615,0.14828 0.5807,0.17433 0.7511,0.0469 0.9191,0.11607 1.066,0.44034 0.08,0.17615 0.083,0.5242 0.01,0.69202 -0.067,0.14733 -0.3184,0.38417 -0.486,0.45823 -0.07,0.0312 -0.1953,0.0703 -0.2789,0.0886 -0.094,0.02 -0.1518,0.0486 -0.1518,0.0729 0,0.0226 0.057,0.11078 0.1265,0.19646 0.069,0.086 0.136,0.16991 0.1458,0.18727 0.01,0.0174 -0.07,0.12042 -0.1789,0.22859 l -0.1983,0.19647 -0.1669,-0.16938 c -0.092,-0.0932 -0.2306,-0.25464 -0.3086,-0.35865 -0.125,-0.16721 -0.1648,-0.19872 -0.3446,-0.27087 -0.3216,-0.12944 -0.4889,-0.32704 -0.4889,-0.57725 0,-0.44094 0.5948,-0.56943 0.9632,-0.20836 0.1077,0.10548 0.1399,0.12085 0.2446,0.11677 0.1332,-0.009 0.2151,-0.0399 0.3194,-0.13387 0.1072,-0.097 0.1588,-0.21505 0.1236,-0.28086 -0.033,-0.0625 -0.1223,-0.0868 -0.704,-0.19221 -0.6602,-0.12024 -0.8583,-0.2661 -0.8827,-0.65096 -0.02,-0.30881 0.1471,-0.58663 0.4124,-0.68742 0.043,-0.0165 0.2785,-0.0391 0.5227,-0.0504 l 0.444,-0.0208 v -0.14273 -0.14308 h -0.4964 c -0.2729,0 -0.578,-0.009 -0.6774,-0.0191 l -0.1809,-0.0191 v -0.25941 -0.25941 l 1.3277,-0.009 c 1.5045,-0.0104 1.3105,0.0234 1.5143,-0.26132 0.1199,-0.16765 0.4641,-0.45397 0.6621,-0.55138 0.1562,-0.0764 0.1811,-0.0799 0.6337,-0.0799 z m 10.5953,0.053 c 0.035,0 0.063,0.0243 0.093,0.0608 0.09,0.10982 0.2607,0.17016 0.4811,0.17016 0.1651,0 0.2041,-0.0113 0.2942,-0.0825 0.2365,-0.18813 0.2397,-0.18874 0.4479,-0.0373 0.078,0.0564 0.1209,0.11061 0.1209,0.15185 0,0.0906 -0.2668,0.33867 -0.4593,0.42688 -0.2937,0.13431 -0.7375,0.11139 -1.0005,-0.0512 -0.1021,-0.0634 -0.282,-0.25021 -0.3342,-0.34788 -0.028,-0.053 -0.016,-0.0729 0.1057,-0.16522 0.1203,-0.0918 0.1935,-0.13135 0.2512,-0.12475 z m -10.5799,0.39371 v 6.1e-4 c -0.041,0 -0.082,0 -0.1219,0 -0.046,0 -0.092,0.0104 -0.1357,0.0208 -0.1059,0.0252 -0.1936,0.0773 -0.3128,0.18318 -0.091,0.0807 -0.1656,0.16608 -0.1656,0.18918 0,0.0347 0.1182,0.0417 0.7226,0.0417 h 0.7225 l -0.043,-0.0816 c -0.1043,-0.20037 -0.3825,-0.33867 -0.6665,-0.35439 z m 8.589,0.43878 c 0.1758,0 0.2399,0.0156 0.4034,0.0965 0.3329,0.16392 0.5206,0.44512 0.5444,0.81652 0.018,0.2615 -0.068,0.58116 -0.184,0.68977 -0.041,0.0382 -0.074,0.0807 -0.074,0.0946 0,0.0139 0.059,0.0971 0.1311,0.18579 0.1572,0.19282 0.2027,0.3464 0.1851,0.60694 -0.024,0.34189 -0.214,0.60356 -0.5491,0.75697 -0.1295,0.059 -0.2178,0.0764 -0.4432,0.0833 -0.4192,0.013 -0.601,-0.0486 -0.8768,-0.29648 -0.1438,-0.12918 -0.3032,-0.38564 -0.3032,-0.48835 0,-0.0642 0.098,-0.15002 0.2979,-0.26167 0.1824,-0.10175 0.1971,-0.0972 0.2578,0.0825 0.069,0.20662 0.263,0.38582 0.4163,0.38573 0.083,0 0.2647,-0.096 0.3446,-0.18162 0.08,-0.086 0.156,-0.26271 0.156,-0.3636 0,-0.11616 -0.1084,-0.30255 -0.2049,-0.35256 -0.054,-0.0278 -0.1662,-0.0451 -0.2946,-0.0451 h -0.2072 v -0.18579 -0.18613 l 0.158,-0.0504 c 0.1987,-0.0625 0.3372,-0.15479 0.4231,-0.28233 0.089,-0.13292 0.084,-0.21618 -0.02,-0.32044 -0.1546,-0.15463 -0.372,-0.14047 -0.583,0.0373 -0.061,0.0512 -0.1326,0.10105 -0.1594,0.11104 -0.068,0.0252 -0.3057,-0.13196 -0.361,-0.23884 -0.044,-0.0842 -0.042,-0.0931 0.05,-0.22928 0.1985,-0.29553 0.5269,-0.46552 0.8935,-0.46552 z m 10.4105,0 v 0.27009 0.26974 h -0.2795 -0.2805 v 1.42841 1.42833 h -0.3487 -0.3486 l -0.021,-0.75688 c -0.012,-0.41638 -0.027,-0.76269 -0.033,-0.76955 -0.01,-0.009 -0.2151,0.10696 -0.4628,0.25264 -0.2477,0.14559 -0.4932,0.2865 -0.5456,0.31315 l -0.095,0.0486 -0.07,-0.11061 c -0.038,-0.0608 -0.1055,-0.17329 -0.1498,-0.24951 l -0.081,-0.13848 0.1507,-0.108 c 0.083,-0.0599 0.1459,-0.12337 0.14,-0.14151 -0.01,-0.0182 -0.056,-0.0564 -0.1117,-0.0851 -0.2956,-0.1502 -0.5872,0.0738 -0.5872,0.45058 0,0.19387 0.072,0.32357 0.335,0.60807 l 0.169,0.18241 -0.1206,0.2522 c -0.066,0.13856 -0.1357,0.25177 -0.1533,0.25177 -0.064,0 -0.3477,-0.23753 -0.4954,-0.41507 -0.1709,-0.20533 -0.2969,-0.44069 -0.3688,-0.68786 -0.07,-0.2417 -0.05,-0.65582 0.043,-0.84743 0.095,-0.19759 0.2796,-0.39571 0.4554,-0.48826 0.1375,-0.0729 0.1793,-0.079 0.4748,-0.079 0.2866,0 0.3456,0.01 0.512,0.0807 0.1035,0.0443 0.2868,0.14724 0.4071,0.22885 l 0.219,0.14846 0.1744,-0.10609 0.1746,-0.10609 v -0.29258 -0.29223 h -1.4431 -1.443 v 1.42841 1.42833 h -0.3537 -0.3532 v -0.39754 c 0,-0.21869 -0.01,-0.39754 -0.012,-0.39754 -0.01,0 -0.056,0.0191 -0.1105,0.0417 -0.4579,0.19135 -1.0146,0.0703 -1.3461,-0.29222 -0.1766,-0.19326 -0.246,-0.38035 -0.2342,-0.62145 l 0.01,-0.17016 0.1422,-0.0729 c 0.2024,-0.10375 0.294,-0.23476 0.3077,-0.44104 0.01,-0.14742 -2e-4,-0.18232 -0.08,-0.30369 -0.05,-0.0755 -0.1143,-0.14611 -0.1422,-0.15722 -0.028,-0.0113 -0.1862,-0.0278 -0.3522,-0.0365 l -0.3022,-0.0156 v 1.43257 1.43258 h -0.349 -0.3495 l -0.019,-0.15445 c -0.012,-0.0851 -0.019,-0.72136 -0.019,-1.41391 v -1.25903 h -0.129 c -0.071,0 -0.1716,-0.009 -0.2236,-0.0191 l -0.094,-0.0191 0.01,1.42537 0.01,1.42529 -0.3594,0.009 -0.3595,0.009 v -0.78136 -0.7817 h -0.2502 -0.2498 v -0.27391 c 0,-0.35543 0.016,-0.37644 0.2887,-0.39598 l 0.2113,-0.0156 v -0.30526 -0.30525 h -0.2395 -0.24 l 0.02,-0.24187 c 0.012,-0.13292 0.024,-0.24613 0.031,-0.25177 0.01,-0.009 2.1059,-0.0182 4.667,-0.0278 z m -15.7002,0.55433 c -0.3295,0 -0.3305,0 -0.3094,0.066 0.012,0.0365 0.028,0.20281 0.036,0.36967 0.019,0.38087 -0.021,0.49903 -0.2466,0.72797 -0.1523,0.15479 -0.1597,0.16912 -0.1201,0.22885 0.023,0.0347 0.099,0.094 0.169,0.13092 0.1597,0.0842 0.3416,0.0868 0.5299,0.009 0.229,-0.0985 0.2462,-0.15696 0.2598,-0.90308 l 0.012,-0.62612 z m 10.1603,0 0.022,0.12545 c 0.012,0.0686 0.022,0.25091 0.022,0.40483 0,0.32739 -0.054,0.45988 -0.2694,0.66885 -0.109,0.10583 -0.1246,0.13526 -0.099,0.18309 0.031,0.0582 0.1564,0.15671 0.2369,0.18692 0.024,0.01 0.1075,0.0174 0.185,0.0191 0.1674,0 0.3188,-0.0677 0.4585,-0.21322 l 0.099,-0.10305 -0.022,-0.61806 -0.021,-0.6184 -0.088,-0.0182 c -0.048,-0.01 -0.1864,-0.0174 -0.3061,-0.0174 z m -13.5363,4.40765 c 6.5186,0 19.0391,0.01 19.0579,0.0286 0.023,0.0226 -0.3065,0.98546 -0.4564,1.33412 -0.063,0.14733 -0.1386,0.2878 -0.1673,0.31211 -0.029,0.0243 -0.054,0.0816 -0.058,0.12823 -0.01,0.10965 -0.1399,0.38895 -0.3987,0.84387 -0.4306,0.75688 -0.9217,1.44673 -1.4887,2.09265 -0.3196,0.36386 -0.9627,0.99997 -1.0115,0.99997 -0.014,0 -0.082,0.0616 -0.151,0.13734 -0.069,0.0755 -0.2315,0.21575 -0.3609,0.31133 -0.1298,0.0956 -0.2891,0.21939 -0.354,0.27548 -0.1073,0.0928 -0.2786,0.2114 -0.5583,0.38607 -0.065,0.0408 -0.1041,0.0512 -0.1041,0.0295 0,-0.02 -0.034,0.009 -0.076,0.0608 -0.041,0.053 -0.1895,0.16279 -0.328,0.24457 -0.3299,0.19491 -1.0146,0.53731 -1.2011,0.60052 -0.081,0.0278 -0.168,0.0686 -0.193,0.0908 -0.061,0.0547 -0.4243,0.19039 -0.5116,0.19039 -0.038,0 -0.077,0.02 -0.086,0.0443 -0.01,0.0243 -0.047,0.0451 -0.085,0.0451 -0.037,0 -0.1,0.02 -0.1405,0.0434 -0.04,0.0234 -0.1164,0.0434 -0.1681,0.0434 -0.052,0 -0.1014,0.0139 -0.1112,0.0295 -0.028,0.0451 -0.4774,0.17771 -0.603,0.17771 -0.063,0 -0.1186,0.013 -0.1244,0.0295 -0.012,0.0347 -0.6184,0.17615 -0.8165,0.19083 -0.074,0.009 -0.1694,0.0226 -0.2102,0.0391 -0.041,0.0156 -0.2063,0.0391 -0.3678,0.0504 -0.1616,0.0113 -0.3095,0.033 -0.327,0.0477 -0.044,0.0356 -1.9434,0.0573 -2.2052,0.0252 -0.1135,-0.0139 -0.2856,-0.0399 -0.3827,-0.0573 -0.097,-0.0182 -0.2309,-0.0304 -0.2963,-0.0304 -0.1504,0 -0.6833,-0.0825 -0.7524,-0.11981 -0.029,-0.0156 -0.092,-0.0278 -0.1405,-0.0278 -0.049,0 -0.097,-0.0139 -0.1068,-0.0295 -0.01,-0.0165 -0.051,-0.0208 -0.091,-0.0113 -0.04,0.0104 -0.072,0.009 -0.072,-0.009 0,-0.0139 -0.051,-0.0278 -0.1141,-0.0312 -0.062,0 -0.2448,-0.0547 -0.4047,-0.1133 -0.1602,-0.059 -0.3175,-0.1073 -0.3499,-0.10531 -0.033,0 -0.1189,-0.0269 -0.1918,-0.0625 -0.073,-0.0356 -0.1461,-0.0651 -0.1618,-0.0668 -0.016,0 -0.05,-0.0104 -0.074,-0.0208 -0.024,-0.0104 -0.1195,-0.0391 -0.2117,-0.0651 -0.092,-0.026 -0.1873,-0.066 -0.2114,-0.0905 -0.024,-0.0243 -0.068,-0.0443 -0.098,-0.0443 -0.03,-8e-5 -0.093,-0.0269 -0.1416,-0.059 -0.048,-0.0321 -0.1113,-0.059 -0.1397,-0.059 -0.028,-9e-5 -0.075,-0.0234 -0.1037,-0.0512 -0.028,-0.0286 -0.08,-0.0477 -0.1156,-0.0425 -0.041,0.009 -0.079,-0.0139 -0.1033,-0.0512 -0.021,-0.033 -0.062,-0.0608 -0.091,-0.0608 -0.075,0 -0.4386,-0.18813 -0.5048,-0.26166 -0.031,-0.0339 -0.075,-0.0625 -0.099,-0.0625 -0.068,0 -0.4282,-0.1989 -0.5333,-0.29492 -0.053,-0.0486 -0.116,-0.0878 -0.14,-0.0878 -0.065,0 -0.1885,-0.0895 -0.1885,-0.13621 0,-0.0226 -0.027,-0.0408 -0.061,-0.0408 -0.034,0 -0.1094,-0.0469 -0.1668,-0.10453 -0.058,-0.0573 -0.1456,-0.12571 -0.1958,-0.15141 -0.1637,-0.0842 -0.5278,-0.37088 -0.7833,-0.61692 -0.1377,-0.13257 -0.3375,-0.31446 -0.4459,-0.4044 -0.1075,-0.0899 -0.2633,-0.24691 -0.3463,-0.34875 -0.083,-0.10183 -0.1641,-0.19855 -0.1817,-0.21478 -0.187,-0.17763 -0.2981,-0.30404 -0.329,-0.37349 -0.02,-0.046 -0.059,-0.0902 -0.085,-0.0985 -0.05,-0.0156 -0.2325,-0.25394 -0.2325,-0.30369 0,-0.0165 -0.026,-0.0382 -0.059,-0.0486 -0.033,-0.0104 -0.068,-0.0521 -0.078,-0.0927 -0.01,-0.0408 -0.073,-0.1337 -0.1396,-0.2068 -0.1452,-0.15966 -0.2834,-0.36298 -0.2834,-0.41733 0,-0.0217 -0.026,-0.0616 -0.058,-0.0886 -0.079,-0.0669 -0.3472,-0.5222 -0.3903,-0.66459 -0.02,-0.0634 -0.066,-0.14611 -0.1041,-0.18388 -0.071,-0.0703 -0.243,-0.40743 -0.243,-0.47463 0,-0.0208 -0.034,-0.0891 -0.076,-0.15219 -0.1022,-0.15445 -0.3892,-0.86592 -0.4128,-1.02401 -0.01,-0.0695 -0.029,-0.12658 -0.043,-0.12667 -0.025,9e-5 -0.093,-0.18223 -0.084,-0.22468 0,-0.0139 -0.022,-0.0851 -0.057,-0.15793 -0.1123,-0.23614 -0.1293,-0.22676 0.4435,-0.2496 0.1541,-0.009 1.6599,-0.01 3.8327,-0.0113 z m 15.0718,11.36964 c -0.2688,0.009 -0.5321,0.0503 -0.7593,0.12901 -0.576,0.19951 -1.0663,0.75036 -1.2585,1.41426 -0.061,0.20732 -0.066,0.29579 -0.066,0.77867 0,0.47272 0.01,0.57777 0.068,0.79203 0.2016,0.74316 0.6747,1.2237 1.4463,1.46922 l 0.2522,0.0807 -1.2635,0.009 c -0.6954,0 -1.2677,0 -1.2716,0 0,-0.009 -0.016,-0.58445 -0.028,-1.28915 l -0.021,-1.28117 -0.092,-0.17659 c -0.2251,-0.43166 -0.524,-0.58854 -1.086,-0.56961 -0.3619,0.0122 -0.5362,0.0807 -0.8502,0.3346 -0.11,0.0887 -0.2063,0.1613 -0.2159,0.1613 -0.01,0 -0.016,-0.0994 -0.016,-0.22086 v -0.22087 h -0.3831 -0.3823 v 1.63522 1.63477 l -1.1688,-0.009 c -0.9031,-0.009 -1.1707,-0.0165 -1.1805,-0.0443 -0.01,-0.02 0.01,-0.0365 0.03,-0.0365 0.023,0 0.1589,-0.0729 0.3008,-0.16218 0.1418,-0.0891 0.2675,-0.16174 0.2811,-0.16174 0.013,0 0.049,0.0755 0.08,0.16904 l 0.057,0.16938 0.3655,0.009 c 0.2012,0 0.3835,0 0.4051,-0.0182 0.033,-0.0208 0.032,-0.0512 -0.01,-0.16938 -0.05,-0.14412 -0.062,-0.31029 -0.1283,-1.86719 -0.03,-0.70097 -0.066,-0.83345 -0.2864,-1.02705 -0.1703,-0.15002 -0.3651,-0.20802 -0.8237,-0.24604 -0.9089,-0.0755 -1.3322,0.0943 -1.6303,0.65356 l -0.095,0.17815 0.076,0.0286 c 0.042,0.0156 0.2116,0.0564 0.3766,0.09 0.3298,0.0669 0.3053,0.0747 0.4102,-0.11521 0.083,-0.15063 0.255,-0.21557 0.5697,-0.21557 0.383,0 0.4902,0.0686 0.5756,0.36629 0.053,0.18457 -0.015,0.22199 -0.6876,0.37687 -0.7343,0.16921 -0.9321,0.24075 -1.1116,0.40214 -0.2272,0.20437 -0.2786,0.32288 -0.2786,0.64176 0,0.21444 0.014,0.29474 0.07,0.41924 0.085,0.18831 0.2801,0.37471 0.4821,0.45866 0.1381,0.0573 0.1453,0.0642 0.079,0.0825 -0.04,0.0113 -0.3736,0.0217 -0.7421,0.0235 h -0.6704 v -1.63487 -1.63477 h -0.4195 -0.4202 l 0.01,1.63477 0.01,1.63487 h -1.2681 c -0.6976,0 -1.2682,-0.009 -1.2682,-0.0113 0,-0.009 0.085,-0.053 0.191,-0.10496 0.1057,-0.0521 0.2702,-0.16652 0.3651,-0.25447 0.095,-0.0879 0.1788,-0.15983 0.1866,-0.15983 0.01,0 0.022,0.0952 0.034,0.21175 0.01,0.11642 0.023,0.21409 0.026,0.21705 0,0 0.1755,0.0148 0.3822,0.026 l 0.3759,0.0208 v -2.28756 -2.28765 l -0.3903,0.0208 c -0.2147,0.0113 -0.3956,0.026 -0.4034,0.033 -0.01,0.009 -0.022,0.35908 -0.033,0.78405 -0.012,0.42497 -0.024,0.77606 -0.024,0.78023 -0.01,0.0286 -0.077,-0.009 -0.1715,-0.0905 -0.5288,-0.4676 -1.3072,-0.41499 -1.81,0.1225 -0.2973,0.31792 -0.4059,0.64661 -0.4059,1.2269 0,0.40084 0.054,0.67215 0.1926,0.95274 0.133,0.27044 0.4024,0.55103 0.638,0.66528 0.093,0.0451 0.1623,0.0939 0.1525,0.10844 -0.01,0.0148 -0.4049,0.026 -0.8806,0.026 h -0.4016 l 8.1968,0.0217 13.5703,-0.0217 v -2.28651 -2.28643 l -0.1102,0.0191 c -0.061,0.01 -0.2534,0.0182 -0.4274,0.0182 h -0.3166 v 1.05301 c 0,0.57916 -0.01,1.59996 -0.019,2.2682 l -0.019,1.21466 h -0.4518 -0.4517 v -1.63442 -1.63478 h -0.4418 -0.4417 v 1.63478 1.63442 h -1.1855 c -0.6802,0 -1.204,-0.0122 -1.2288,-0.0278 -0.048,-0.0304 -0.059,-0.0252 0.1609,-0.0907 0.3932,-0.1179 0.8624,-0.46847 1.0951,-0.81843 0.1487,-0.2233 0.2913,-0.61224 0.335,-0.91445 0.045,-0.3115 0.021,-1.01282 -0.044,-1.25521 -0.1505,-0.56597 -0.5527,-1.07151 -1.0584,-1.32961 -0.3352,-0.17103 -0.7987,-0.25438 -1.2468,-0.24144 z m -15.9153,4.67817 -0.4622,-8.7e-4 v 8.7e-4 z m -0.4622,-8.7e-4 -0.014,-1.18419 c -0.01,-0.93138 -0.024,-1.22734 -0.06,-1.3811 -0.085,-0.36324 -0.2094,-0.52629 -0.5061,-0.6612 -0.4787,-0.21765 -1.02,-0.12676 -1.4881,0.25029 l -0.191,0.15445 -0.01,-0.22312 -0.01,-0.22321 h -0.3966 -0.3963 v 1.63478 1.62497 h 0.8226 l 0.018,-0.79551 c 0.022,-0.99763 0.053,-1.37086 0.1285,-1.51732 0.1359,-0.26358 0.4045,-0.40856 0.6757,-0.39102 v 0 c 0.09,0.009 0.181,0.0295 0.267,0.0729 0.2242,0.11356 0.2404,0.17876 0.2697,1.07663 0.014,0.41308 0.026,0.93329 0.026,1.15598 v 0.40179 z m -0.8583,0 h -1.3861 v 0.009 h 0.6929 0.6932 z m -2.2087,-0.009 h -0.913 v 0.0121 h 0.4563 0.4567 z m -0.913,0 v -2.2708 -2.28227 h -0.4563 -0.4565 l -0.01,2.27506 -0.01,2.27532 z m 8.9275,-4.26614 v 0.76765 h 0.854 v -0.76765 z m 14.5994,0.0599 v 0.7409 h 0.8854 v -0.7409 z m -2.8993,0.30594 c 0.2218,0.0104 0.3821,0.0556 0.5624,0.15072 0.2829,0.14941 0.4765,0.44503 0.5654,0.86531 0.053,0.25663 0.054,0.82052 0,1.07472 -0.1161,0.5473 -0.48,0.93554 -0.9628,1.02705 -0.6101,0.11521 -1.1785,-0.1482 -1.4194,-0.65773 -0.133,-0.28155 -0.1786,-0.50728 -0.1786,-0.90421 0,-0.73265 0.2466,-1.23732 0.717,-1.46383 0.1371,-0.066 0.2144,-0.0807 0.4711,-0.0916 0.091,0 0.1712,0 0.2449,0 z m -14.234,1.14383 v 3.4e-4 c 0.4872,0 0.7411,0.34563 0.745,1.01525 0,0.50788 -0.149,0.85889 -0.4344,1.00179 -0.1856,0.0929 -0.4764,0.0994 -0.6376,0.0139 -0.1346,-0.0712 -0.282,-0.23918 -0.3617,-0.41126 -0.054,-0.11746 -0.062,-0.18856 -0.062,-0.57568 0,-0.2878 0.014,-0.47932 0.039,-0.54982 0.1123,-0.3168 0.3692,-0.49477 0.7124,-0.49477 z m 9.6657,0.053 v 0 c 0.1934,0.01 0.3708,0.099 0.4438,0.24838 0.069,0.14143 0.107,0.73726 0.107,1.73818 v 0.72875 h -0.6846 -0.6848 l 0.01,-0.66998 c 0.014,-1.04545 0.046,-1.47451 0.1242,-1.62982 0.089,-0.17772 0.1656,-0.2556 0.3381,-0.34337 0.1092,-0.0556 0.2311,-0.0781 0.3471,-0.0721 z m -3.4854,1.06976 h 2e-4 c 0.051,0 0.065,0.0148 0.076,0.0478 0.029,0.0911 -0.037,0.53046 -0.097,0.64818 -0.072,0.1416 -0.2512,0.26879 -0.452,0.32088 -0.3282,0.0851 -0.5403,0 -0.6704,-0.26818 -0.055,-0.11442 -0.059,-0.14715 -0.03,-0.23501 0.07,-0.21366 0.2467,-0.30473 0.8843,-0.4571 0.1531,-0.0365 0.2395,-0.0556 0.29,-0.0564 z"/>
  </g>
</svg>