<svg xmlns:dc="http://purl.org/dc/elements/1.1/" xmlns:cc="http://creativecommons.org/ns#" xmlns:rdf="http://www.w3.org/1999/02/22-rdf-syntax-ns#" xmlns:svg="http://www.w3.org/2000/svg" xmlns="http://www.w3.org/2000/svg" xmlns:sodipodi="http://sodipodi.sourceforge.net/DTD/sodipodi-0.dtd" xmlns:inkscape="http://www.inkscape.org/namespaces/inkscape" width="47.6143mm" height="16.460421mm" viewBox="0 0 47.6143 16.460421" version="1.1" id="svg3318" sodipodi:docname="multipage-export-tzgla6cx.svg">
  <defs id="defs3312"/>
  <sodipodi:namedview id="base" pagecolor="#ffffff" bordercolor="#666666" borderopacity="1.0" inkscape:pageopacity="0.0" inkscape:pageshadow="2" inkscape:zoom="0.18043338" inkscape:cx="2250.6913" inkscape:cy="446.75727" inkscape:document-units="mm" inkscape:current-layer="layer1" inkscape:document-rotation="0" showgrid="false" inkscape:window-width="1920" inkscape:window-height="1001" inkscape:window-x="-9" inkscape:window-y="-9" inkscape:window-maximized="1"/>
  <metadata id="metadata3315">
    <rdf:RDF>
      <cc:Work rdf:about="">
        <dc:format>image/svg+xml</dc:format>
        <dc:type rdf:resource="http://purl.org/dc/dcmitype/StillImage"/>
      </cc:Work>
    </rdf:RDF>
  </metadata>
  <g inkscape:label="Layer 1" inkscape:groupmode="layer" id="layer1" transform="translate(115.1677,17.42075)">
    <path style="display:inline;fill:#ffffff;fill-opacity:0.841629;stroke-width:0.0464983" d="m -115.1677,-9.19054 v -8.23021 h 23.8071 23.8072 v 8.23021 8.23021 h -23.8072 -23.8071 z m 15.058,6.21915 c 0.027,-0.15984 0.1561,-0.99158 0.2874,-1.84831 0.1314,-0.85673 0.2491,-1.58908 0.2617,-1.62744 0.017,-0.053 0.045,-0.0388 0.1171,0.0589 0.1332,0.18208 0.4599,0.3957 0.7718,0.5047 0.3334,0.11651 0.9808,0.12483 1.3826,0.0178 1.2098,-0.32243 2.1755,-1.35838 2.5822,-2.77 0.1369,-0.47526 0.1727,-1.34005 0.075,-1.80141 -0.1565,-0.73562 -0.6338,-1.42315 -1.1802,-1.70006 -0.8445,-0.42791 -1.9107,-0.32048 -2.6798,0.27 l -0.2268,0.17407 0.033,-0.25992 0.033,-0.25992 h -0.8988 -0.8987 l -0.7361,4.6847 c -0.4048,2.5766 -0.7461,4.72133 -0.7583,4.76608 -0.021,0.0754 0.043,0.0813 0.8826,0.0813 h 0.9051 z m 1.5766,-4.4692 c -0.4164,-0.15543 -0.6817,-0.5124 -0.778,-1.04701 -0.147,-0.81551 0.3646,-1.81792 1.1107,-2.17636 0.4924,-0.23658 1.0765,-0.15264 1.406,0.20208 0.3402,0.36615 0.4596,1.02115 0.2962,1.62473 -0.1471,0.54371 -0.6215,1.12696 -1.0821,1.33075 -0.2734,0.12091 -0.722,0.1519 -0.9528,0.0658 z m -11.7523,1.61361 c 1.3186,-0.31905 2.2901,-1.32864 2.6773,-2.78234 0.1311,-0.49204 0.1218,-1.39882 -0.018,-1.74369 -0.2513,-0.62104 -0.6406,-0.9518 -1.7528,-1.48935 -0.8519,-0.4117 -1.0918,-0.572 -1.2011,-0.80231 -0.1009,-0.21272 -0.097,-0.52053 0.01,-0.75497 0.1123,-0.24715 0.5105,-0.59978 0.7818,-0.6922 0.2768,-0.0943 0.6816,-0.0947 0.957,-6.3e-4 0.2354,0.0802 0.5795,0.35707 0.6821,0.54888 0.036,0.067 0.082,0.12185 0.1026,0.12185 0.021,0 0.279,-0.28771 0.5744,-0.63935 l 0.537,-0.63935 -0.2702,-0.25698 c -0.689,-0.65534 -2.0027,-0.97856 -2.9402,-0.72344 -1.5075,0.41024 -2.5548,1.80906 -2.5033,3.34349 0.014,0.39515 0.037,0.51724 0.1404,0.73921 0.2544,0.54346 0.7821,0.959 1.7368,1.36779 0.87,0.37252 1.1708,0.63466 1.2546,1.09335 0.038,0.2059 -0.048,0.64831 -0.1732,0.89483 -0.1455,0.28635 -0.4799,0.61189 -0.7465,0.72655 -0.4397,0.18915 -0.9877,0.114 -1.3717,-0.18809 -0.2092,-0.16459 -0.4549,-0.53015 -0.5417,-0.80589 -0.045,-0.14426 -0.09,-0.26228 -0.099,-0.26228 -0.051,0 -1.3495,1.13755 -1.3623,1.1932 -0.025,0.10893 0.3596,0.73613 0.6178,1.007 0.7253,0.76091 1.7535,1.02427 2.9083,0.74488 z m 6.3238,-0.0457 c 0.7718,-0.15646 1.4431,-0.61662 1.8255,-1.2512 0.3113,-0.5167 0.4235,-0.96896 0.752,-3.02905 0.168,-1.05358 0.3053,-1.94854 0.3053,-1.9888 0,-0.0645 -0.1061,-0.0717 -0.8931,-0.0606 l -0.8931,0.0126 -0.2864,1.81344 c -0.1575,0.99738 -0.3122,1.90748 -0.3439,2.02241 -0.1475,0.53548 -0.4439,0.89407 -0.8323,1.007 -0.4421,0.12852 -0.8208,0.005 -0.9906,-0.32184 -0.16,-0.30851 -0.1293,-0.7503 0.1909,-2.7488 0.1552,-0.96892 0.2822,-1.76928 0.2822,-1.77857 0,-0.009 -0.408,-0.0169 -0.9067,-0.0169 -0.5301,0 -0.9068,0.0181 -0.9068,0.0434 0,0.0239 -0.1374,0.90791 -0.3055,1.96455 -0.3187,2.00401 -0.3622,2.52873 -0.2483,2.99407 0.161,0.65724 0.6428,1.13092 1.3455,1.32289 0.4985,0.13618 1.2782,0.14246 1.9053,0.0154 z m 16.9554,0.002 c 0.624,-0.12934 1.4259,-0.60405 1.8209,-1.07787 0.1656,-0.19857 0.5205,-0.72228 0.5205,-0.76796 0,-0.0102 -0.3577,-0.0774 -0.7947,-0.14923 l -0.7947,-0.13057 -0.2527,0.28366 c -0.3372,0.37849 -0.6642,0.54137 -1.0841,0.53994 -0.1919,-6.3e-4 -0.3595,-0.0295 -0.451,-0.0776 -0.3501,-0.18419 -0.5435,-0.624 -0.5193,-1.18054 l 0.014,-0.3176 2.0336,-0.0122 2.0335,-0.0122 0.024,-0.11576 c 0.013,-0.0636 0.035,-0.17073 0.05,-0.23792 0.054,-0.25616 0.022,-1.25195 -0.049,-1.52853 -0.2328,-0.90874 -0.7962,-1.47013 -1.6853,-1.6794 -0.4678,-0.1101 -1.3105,-0.0671 -1.8018,0.0919 -1.489,0.48199 -2.4939,2.04006 -2.4918,3.86331 0,0.81006 0.1903,1.35302 0.6429,1.84264 0.6131,0.66345 1.6274,0.90588 2.7857,0.66581 z m -1.2605,-4.16816 c 0.1043,-0.34969 0.4734,-0.80239 0.7785,-0.95475 0.456,-0.22774 0.9092,-0.16685 1.1969,0.16083 0.1735,0.19762 0.2294,0.33068 0.2747,0.65442 l 0.034,0.24412 h -1.1578 -1.1578 z m 16.7865,4.17134 c 0.6988,-0.15454 1.2994,-0.50202 1.7974,-1.03988 0.2679,-0.28936 0.5857,-0.77317 0.5387,-0.82015 -0.01,-0.0104 -0.3692,-0.0765 -0.7973,-0.14683 l -0.7784,-0.12787 -0.1254,0.16158 c -0.3483,0.44909 -0.725,0.66423 -1.1721,0.66951 -0.3961,0.004 -0.6252,-0.112 -0.8128,-0.41397 -0.1258,-0.20259 -0.1401,-0.26743 -0.1563,-0.70489 l -0.018,-0.48177 h 2.0457 2.0458 l 0.028,-0.12787 c 0.078,-0.35652 0.085,-1.20873 0.013,-1.58747 -0.1742,-0.91473 -0.6434,-1.48877 -1.4524,-1.77651 -0.4297,-0.15286 -1.2688,-0.17465 -1.8033,-0.0468 -1.5588,0.3728 -2.6438,1.82944 -2.7575,3.70227 -0.064,1.05216 0.2996,1.91375 1.0066,2.38587 0.6312,0.42152 1.5089,0.55139 2.3978,0.35481 z m -1.177,-4.30478 c 0.1172,-0.28182 0.4926,-0.70877 0.7295,-0.82967 0.3728,-0.1902 0.8383,-0.16134 1.112,0.0689 0.1729,0.14544 0.3192,0.45492 0.3598,0.76083 l 0.032,0.23795 h -1.1659 -1.1658 z m -20.0311,2.73734 c 0.1238,-0.79918 0.2723,-1.64325 0.3301,-1.87569 0.1843,-0.74157 0.4421,-1.13143 0.8948,-1.35291 0.3515,-0.17198 0.8615,-0.18321 1.1587,-0.0255 l 0.1957,0.10378 0.092,-0.31381 c 0.2205,-0.75349 0.377,-1.30614 0.377,-1.3308 0,-0.0146 -0.1192,-0.0613 -0.265,-0.10368 -0.6172,-0.17944 -1.3411,0.0163 -1.8574,0.50231 l -0.2618,0.24637 0.032,-0.2325 c 0.018,-0.12786 0.043,-0.26911 0.056,-0.31386 0.022,-0.0755 -0.041,-0.0814 -0.884,-0.0814 h -0.9078 l -0.026,0.15111 c -0.058,0.33047 -0.9541,6.00405 -0.9541,6.04058 0,0.0214 0.4039,0.0391 0.8975,0.0391 h 0.8975 z m 9.8834,1.43483 c 0,-0.21835 0.5915,-3.69481 0.6748,-3.96621 0.2077,-0.67625 0.5828,-1.01615 1.0798,-0.97852 0.4236,0.032 0.572,0.26235 0.5676,0.88125 0,0.23274 -0.1176,1.11179 -0.2933,2.2218 l -0.2906,1.83669 0.8813,0.0127 c 0.4847,0.007 0.8906,0.003 0.9019,-0.008 0.011,-0.0114 0.1441,-0.79759 0.2949,-1.74711 0.3534,-2.22513 0.4231,-2.49229 0.7471,-2.86128 0.3892,-0.44323 1.0224,-0.45907 1.2324,-0.0308 0.1392,0.28393 0.1,0.79629 -0.2108,2.7421 -0.1563,0.97947 -0.2843,1.81166 -0.2843,1.84932 0,0.0583 0.132,0.0666 0.8927,0.0558 l 0.8927,-0.0127 0.3145,-1.99942 c 0.173,-1.09969 0.3285,-2.1791 0.3457,-2.39869 0.073,-0.93744 -0.2198,-1.58631 -0.8393,-1.85991 -0.2893,-0.12784 -0.9283,-0.17255 -1.2863,-0.09 -0.4028,0.0929 -0.8975,0.35295 -1.1949,0.62833 l -0.2737,0.25335 -0.1478,-0.22808 c -0.4548,-0.702 -1.5344,-0.90822 -2.4455,-0.46716 -0.1147,0.0556 -0.3165,0.19797 -0.4483,0.31649 -0.1653,0.14858 -0.2316,0.18714 -0.2135,0.12416 0.014,-0.0503 0.04,-0.18027 0.057,-0.28896 l 0.031,-0.19762 h -0.9109 c -0.6197,0 -0.9108,0.016 -0.9108,0.0501 0,0.0593 -0.9183,5.86649 -0.9572,6.05283 l -0.026,0.12787 h 0.9104 c 0.5008,0 0.9105,-0.008 0.9105,-0.0182 z" id="path26978"/>
  </g>
</svg>