<svg xmlns:dc="http://purl.org/dc/elements/1.1/" xmlns:cc="http://creativecommons.org/ns#" xmlns:rdf="http://www.w3.org/1999/02/22-rdf-syntax-ns#" xmlns:svg="http://www.w3.org/2000/svg" xmlns="http://www.w3.org/2000/svg" xmlns:sodipodi="http://sodipodi.sourceforge.net/DTD/sodipodi-0.dtd" xmlns:inkscape="http://www.inkscape.org/namespaces/inkscape" width="24.513906mm" height="23.827845mm" viewBox="0 0 24.513906 23.827845" version="1.1" id="svg3318" sodipodi:docname="multipage-export-tzgla6cx.svg">
  <defs id="defs3312"/>
  <sodipodi:namedview id="base" pagecolor="#ffffff" bordercolor="#666666" borderopacity="1.0" inkscape:pageopacity="0.0" inkscape:pageshadow="2" inkscape:zoom="0.18043338" inkscape:cx="2250.6913" inkscape:cy="446.75727" inkscape:document-units="mm" inkscape:current-layer="layer1" inkscape:document-rotation="0" showgrid="false" inkscape:window-width="1920" inkscape:window-height="1001" inkscape:window-x="-9" inkscape:window-y="-9" inkscape:window-maximized="1"/>
  <metadata id="metadata3315">
    <rdf:RDF>
      <cc:Work rdf:about="">
        <dc:format>image/svg+xml</dc:format>
        <dc:type rdf:resource="http://purl.org/dc/dcmitype/StillImage"/>
      </cc:Work>
    </rdf:RDF>
  </metadata>
  <g inkscape:label="Layer 1" inkscape:groupmode="layer" id="layer1" transform="translate(-78.369346,65.418684)">
    <path id="path26972-0" style="display:inline;fill:#ffffff;fill-opacity:0.841629;stroke-width:1.00034" d="m 90.6664,-65.41863 c -3.3552,-0.006 -4.9204,0.49078 -7.4673,2.37202 -3.2343,2.3889 -4.9852,5.98981 -4.8189,9.9095 0.073,1.71866 0.3682,2.9542 1.0731,4.48953 1.5541,3.38493 4.8997,6.04188 8.5772,6.81144 2.4923,0.52154 5.3847,0.19941 7.6456,-0.85177 2.4121,-1.12138 3.9836,-2.47143 5.3554,-4.60049 2.5164,-3.90553 2.4642,-8.91891 -0.1328,-12.76125 -1.1804,-1.7462 -1.7712,-2.32782 -3.5378,-3.4827 -2.3097,-1.50991 -3.6252,-1.88051 -6.6945,-1.88628 z m 0.4612,0.80053 v 4.6e-4 c 1.0194,10e-4 1.9873,0.11081 2.2733,0.30193 0.2583,0.17277 0.2531,0.17869 -0.082,0.0995 -0.5427,-0.1279 -2.6777,0.20321 -3.2758,0.50792 -0.2913,0.14839 -0.5892,0.37989 -0.6621,0.51452 -0.2184,0.40377 -0.035,0.99 0.467,1.48875 0.5735,0.56979 1.1494,0.61054 1.7704,0.12466 0.4719,-0.36933 0.5499,-0.72594 0.2643,-1.20985 -0.1656,-0.28097 -0.1435,-0.3074 0.3543,-0.42191 0.7819,-0.17985 2.7438,0.04 3.8854,0.43533 3.6653,1.26933 6.3689,6.01376 5.9653,10.46866 -0.088,0.96741 -0.4152,2.69776 -0.5105,2.69779 -0.027,-1.3e-4 -0.016,-0.6141 0.025,-1.36466 0.1185,-2.1778 -0.2728,-3.29904 -1.295,-3.71174 -1.164,-0.46985 -2.2497,0.94207 -1.5499,2.01533 0.1847,0.28304 0.3296,0.34089 0.6965,0.27698 0.2547,-0.0443 0.5685,-0.13405 0.6972,-0.19972 0.204,-0.10427 0.2522,-0.0198 0.3772,0.6652 0.2207,1.20833 0.027,2.49602 -0.481,3.71858 l -0.5429,0.88081 c -1.9755,3.20377 -5.7123,4.9539 -9.7686,4.5753 -0.1146,-0.0107 -0.2121,-0.0237 -0.3113,-0.0364 0.8726,-0.0711 1.8852,-0.40435 2.2391,-0.76027 0.1881,-0.18886 0.3113,-0.467 0.3571,-0.76874 0.1396,-0.33484 0.1667,-0.75184 0.056,-1.12411 -0.3705,-1.24727 -2.6405,-1.26789 -2.6965,-0.0526 -0.068,0.12039 -0.1067,0.2611 -0.1068,0.42329 0,0.29297 0.108,0.5264 0.3468,0.7493 l 0.018,0.0162 -0.3206,0.0526 c -1.1272,0.18514 -3.1089,-0.0161 -4.1197,-0.41835 -1.156,-0.45989 -2.7153,-1.64877 -3.5947,-2.74052 -0.4389,-0.54486 -0.6343,-0.74839 -0.876,-0.82053 -0.8417,-1.44232 -1.3666,-3.11884 -1.452,-4.84928 -0.064,-1.29212 0.085,-2.71812 0.3679,-3.53585 0.1332,-0.38443 0.1481,-0.27707 0.1524,1.07369 0.01,2.17874 0.2632,2.92735 1.1551,3.36682 1.4008,0.69012 2.6495,-1.15594 1.5542,-2.29751 -0.5253,-0.54786 -0.7869,-0.54968 -0.9215,-0.007 -0.074,0.3019 -0.1895,0.4274 -0.39,0.4274 -0.5346,3e-5 -0.6567,-1.42033 -0.2814,-3.27257 0.8134,-4.01456 3.5909,-6.36748 8.4612,-7.16732 0.5125,-0.0842 1.1427,-0.12298 1.7544,-0.12248 z m -2.4412,3.51449 c -0.4878,-0.0139 -1.1008,0.21805 -1.7614,0.72959 -1.0114,0.78309 -1.6641,2.21777 -1.6641,3.65804 0,0.39893 -0.034,0.44604 -0.2506,0.34684 -0.5037,-0.23063 -0.7447,-0.59746 -0.8649,-1.31807 -0.1867,-1.11975 -0.2002,-1.15448 -0.4374,-1.1545 -0.2822,10e-6 -0.4532,0.48588 -0.4532,1.28792 0,1.04105 0.9182,2.1256 1.8035,2.13013 0.1032,4.6e-4 0.2952,0.23314 0.4267,0.5167 0.4537,0.97735 1.2635,1.257 2.4375,0.84191 0.2686,-0.095 0.5161,-0.13026 0.5497,-0.0784 0.1345,0.20631 -0.2005,0.44549 -1.099,0.78547 -2.3867,0.90265 -4.4528,3.3862 -4.4528,5.35281 0,0.56247 0.4926,1.43007 0.9285,1.63561 l 2e-4,2.2e-4 c 0.6112,0.28776 2.2905,0.11854 2.8847,-0.29068 1.2226,-0.84191 2.2233,-3.01604 2.458,-5.34077 l 0.1168,-1.16191 0.4559,-0.19616 c 0.2507,-0.10793 1.1752,-0.62901 2.0541,-1.15807 1.2936,-0.77855 1.6164,-0.91638 1.6938,-0.72437 0.072,0.17974 -0.044,0.31734 -0.4824,0.56794 -0.7483,0.4282 -1.7904,1.9887 -1.9624,2.93887 -0.4753,2.62519 0.4677,4.5239 2.6346,5.30624 0.9589,0.34614 2.3315,0.2373 3.0498,-0.2419 1.4817,-0.98889 2.0725,-3.15575 1.2631,-4.63147 -0.8638,-1.57463 -3.2337,-1.83437 -4.1343,-0.45315 -0.4562,0.69979 -0.5454,1.24596 -0.3317,2.03067 0.2479,0.90982 0.7485,1.30892 1.6437,1.30957 0.7909,4.6e-4 1.2373,-0.33457 1.383,-1.03806 0.1623,-0.78512 -0.5585,-1.51178 -1.2396,-1.24958 -0.2875,0.1107 -0.3539,0.54958 -0.134,0.88683 0.1043,0.15945 0.098,0.20482 -0.03,0.20494 -0.2968,-2e-5 -0.6603,-0.52028 -0.6602,-0.94574 0,-0.95266 1.3609,-1.44318 2.1945,-0.79096 0.9156,0.71657 1.0031,2.16037 0.2252,3.15504 -0.2098,0.0662 -0.4204,0.16648 -0.6017,0.29315 -0.7625,0.53298 -1.923,0.53533 -2.5811,0.004 -0.2354,-0.18977 -0.4545,-0.29616 -0.7328,-0.34685 -0.4474,-0.65521 -0.733,-1.51521 -0.733,-2.42134 0,-1.37696 0.4719,-2.45875 1.383,-3.17011 0.5114,-0.39913 0.5901,-0.41427 1.1967,-0.23122 0.6503,0.19619 1.2276,0.13448 1.7869,-0.19097 0.3971,-0.23112 0.4604,-0.55421 0.1837,-0.93834 -0.1851,-0.25714 -0.4283,-0.31982 -1.3201,-0.33863 -0.6013,-0.0129 -1.1477,-0.0748 -1.2143,-0.13808 -0.2151,-0.20396 -0.1297,-0.44861 0.2409,-0.68903 0.978,-0.63454 2.0924,-2.36085 2.0881,-3.23504 -0.01,-1.46897 -1.5559,-1.50014 -2.6278,-0.0529 -0.6049,0.81658 -0.8336,1.45873 -0.924,2.59148 l -0.069,0.85917 -1.7833,1.06518 c -0.9808,0.58567 -1.8208,1.06722 -1.8668,1.07041 -0.046,0.003 -0.083,-0.13135 -0.084,-0.2978 0,-0.1722 0.1723,-0.44479 0.3988,-0.63233 0.44,-0.36345 0.9387,-1.18388 0.9387,-1.54437 0,-0.76125 -0.884,-1.01505 -1.5004,-0.43067 -0.3676,0.34856 -0.6696,1.10396 -0.5551,1.38819 0.1045,0.2596 -0.6755,0.66742 -1.2768,0.6674 -0.3669,2e-5 -0.6153,-0.0956 -0.7383,-0.2841 -0.1725,-0.26485 -0.1442,-0.30355 0.4164,-0.5696 1.3776,-0.65384 2.5038,-2.02938 2.7677,-3.3805 0.2405,-1.23066 -0.2251,-1.93655 -1.0381,-1.95971 z m -0.3664,1.23616 2e-4,2.2e-4 c 0.6951,-1e-5 0.07,1.6391 -1.0313,2.70462 -0.2879,0.27865 -0.6413,0.56104 -0.7854,0.6274 -0.235,0.10839 -0.2533,0.0795 -0.1807,-0.2811 0.3274,-1.62595 1.2603,-3.05122 1.9972,-3.0512 z m 7.1061,0.1945 c 0.082,-0.006 0.089,0.11375 0.089,0.38248 10e-5,0.25971 -0.1748,0.65229 -0.4854,1.09176 -0.2671,0.37754 -0.5999,0.78008 -0.7397,0.89479 -0.2426,0.19913 -0.2506,0.1867 -0.1747,-0.27972 0.1078,-0.66269 0.5612,-1.54496 0.9541,-1.85642 0.1852,-0.14685 0.2937,-0.22801 0.3572,-0.23289 z m -7.3755,6.98569 c 0.2125,-10e-6 0.2122,0.0158 -0.013,0.89726 -0.3566,1.39778 -0.9438,2.75203 -1.525,3.59531 -0.1557,0.0481 -0.2913,0.12701 -0.4411,0.25013 -0.5431,0.44652 -1.1511,0.44967 -1.5174,0.008 -0.1104,-0.13352 -0.2334,-0.22078 -0.392,-0.27397 0,-0.10962 0.01,-0.23781 0.026,-0.40929 0.097,-0.79436 0.7706,-1.94892 1.5624,-2.67862 0.672,-0.61944 1.9459,-1.38848 2.2997,-1.38848 z"/>
  </g>
</svg>