<svg xmlns:dc="http://purl.org/dc/elements/1.1/" xmlns:cc="http://creativecommons.org/ns#" xmlns:rdf="http://www.w3.org/1999/02/22-rdf-syntax-ns#" xmlns:svg="http://www.w3.org/2000/svg" xmlns="http://www.w3.org/2000/svg" xmlns:sodipodi="http://sodipodi.sourceforge.net/DTD/sodipodi-0.dtd" xmlns:inkscape="http://www.inkscape.org/namespaces/inkscape" width="40.688702mm" height="40.700825mm" viewBox="0 0 40.688702 40.700824" version="1.1" id="svg2576" sodipodi:docname="multipage-export-elcw4y4r.svg">
  <defs id="defs2570">
    <rect x="-1893.2883" y="-1487.8069" width="81.741173" height="50.455036" id="rect10831"/>
  </defs>
  <sodipodi:namedview id="base" pagecolor="#ffffff" bordercolor="#666666" borderopacity="1.0" inkscape:pageopacity="0.0" inkscape:pageshadow="2" inkscape:zoom="0.36086675" inkscape:cx="1524.7728" inkscape:cy="952.87288" inkscape:document-units="mm" inkscape:current-layer="layer1" inkscape:document-rotation="0" showgrid="false" inkscape:window-width="1920" inkscape:window-height="1001" inkscape:window-x="-9" inkscape:window-y="-9" inkscape:window-maximized="1"/>
  <metadata id="metadata2573">
    <rdf:RDF>
      <cc:Work rdf:about="">
        <dc:format>image/svg+xml</dc:format>
        <dc:type rdf:resource="http://purl.org/dc/dcmitype/StillImage"/>
      </cc:Work>
    </rdf:RDF>
  </metadata>
  <g inkscape:label="Layer 1" inkscape:groupmode="layer" id="layer1" transform="translate(104.3402,22.1674)">
    <path id="rect11231" style="font-variation-settings:'wght' 600;display:inline;fill:#54a191;fill-opacity:1;stroke:none;stroke-width:1.08039" d="m -104.34,-21.7125 c 0,13.4113 0,26.8226 0,40.2338 3.4867,0 6.9734,0 10.46,0 0.023,-0.5506 0.047,-1.1012 0.069,-1.6518 -1.5458,0.1089 -3.2495,-0.6238 -3.8913,-2.1001 -0.5362,-1.5438 -0.2612,-3.2114 -0.3391,-4.8129 0.03,-2.2212 -0.053,-4.445 0.04,-6.6645 0.2007,-2.747 1.3448,-5.7233 3.6514,-7.4555 1.3718,-1.0899 3.13,-1.5228 4.8553,-1.5537 0.8405,0.045 -0.3789,-0.4823 -0.5935,-0.7304 -1.0454,-0.7064 -1.8552,-1.6919 -2.2878,-2.8189 -0.7583,-2.0034 -0.3458,-4.4047 1.1381,-5.9744 1.6816,-1.994 4.7759,-2.6042 7.0541,-1.297 2.0969,1.0692 3.4467,3.4528 3.1554,5.8075 -0.1939,1.944 -1.4535,3.6504 -3.1147,4.6263 -0.8883,0.4205 0.079,0.3784 0.5594,0.458 2.5986,0.1945 4.9043,1.9493 6.1013,4.2108 0.331,0.4263 1.1573,0.4617 1.3157,-0.1326 1.3375,-2.1674 3.6334,-3.6793 6.1456,-4.0862 0.885,-0.042 -0.1775,-0.4337 -0.4376,-0.6813 -2.5271,-1.5272 -3.6263,-5.104 -2.1372,-7.7099 1.1634,-2.2339 3.8251,-3.6438 6.3238,-3.065 0.9562,0.1735 1.7911,0.6873 2.6206,1.1642 0,-2.0737 0,-4.1475 0,-6.2213 -13.5629,0 -27.1258,0 -40.6887,0 0,0.1517 0,0.3033 0,0.4549 z m 17.373,7.42 c -1.619,-0.013 -2.9739,1.5115 -2.852,3.1092 0.02,1.5876 1.5241,2.9473 3.1126,2.7669 1.7463,-0.027 3.2223,-1.8614 2.6974,-3.5701 -0.2805,-1.1545 -1.2663,-2.1591 -2.4729,-2.2892 -0.025,-0.1171 -0.3683,0.01 -0.4851,-0.017 z m 19.4379,-0.01 c -1.5116,0.046 -2.8123,1.3738 -2.8029,2.8894 -0.1086,1.6672 1.4482,3.1915 3.1205,2.9906 1.7323,-0.03 3.2161,-1.849 2.6871,-3.552 -0.3246,-1.3296 -1.592,-2.4519 -3.0047,-2.328 z m -20.0926,11.5093 c -1.7502,-0.029 -3.7374,-0.1507 -5.1443,1.0988 -1.3105,1.1365 -2.065,2.8552 -2.2327,4.561 -0.2013,3.5064 -0.092,7.0357 -0.1151,10.5347 0.1934,0.7261 1.4317,0.66 1.4051,-0.1477 0.1798,-3.7975 -0.1241,-7.6429 0.2182,-11.4001 0.459,-1.2049 2.7151,-0.9676 2.643,0.4325 0.2017,2.2101 0.055,4.4352 0.1195,6.6517 -8e-4,3.1948 -0.1063,6.3882 -0.2276,9.5803 0.827,0 1.6541,0 2.4811,0 0.076,-1.026 0.053,-2.0438 0.3995,-3.0435 0.6417,-1.0456 2.7174,-0.641 2.5875,0.7054 0.069,0.7785 0.1184,1.5587 0.1757,2.3381 0.4498,-0.062 1.141,0.1199 1.4477,-0.086 0.067,-1.3986 -0.085,-2.8023 0.032,-4.1955 0.3343,-2.3748 2.0479,-4.4033 4.2238,-5.3446 0.298,-0.2421 -0.6533,-0.5809 -0.8236,-0.8852 -2.2087,-2.1209 -2.0762,-6.1647 0.3783,-8.0503 -0.7468,-1.4118 -2.1133,-2.5537 -3.7503,-2.6769 -1.265,-0.1266 -2.5473,-0.07 -3.8173,-0.073 z m 21.0511,0.022 c -1.4889,0.1163 -3.0685,-0.2647 -4.467,0.4225 -1.0348,0.4466 -1.8821,1.2313 -2.5551,2.1224 1.5734,1.2088 2.5559,3.2465 2.159,5.2386 -0.2069,1.454 -1.1133,2.6813 -2.2177,3.6015 1.7399,0.6072 3.3421,1.7274 4.237,3.3717 0.6201,1.146 0.7675,2.4051 0.79,3.6234 0.027,0.8605 0,1.7214 -0.013,2.582 1.6619,0 3.3239,0 4.9858,0 0,-6.9208 0,-13.8416 0,-20.7624 -0.9586,-0.1669 -1.9763,-0.2476 -2.9193,-0.1997 z M -77.0945,1.59 c -1.7023,0.1764 -2.7398,2.2908 -1.8947,3.7625 0.7596,1.668 3.3498,1.8302 4.3927,0.3554 1.2697,-1.5375 -0.04,-4.1882 -2.0212,-4.1615 -0.1194,0.042 -0.4784,-0.1179 -0.4768,0.044 z m 1.573,9.7685 c -1.1749,0.078 -2.4494,-0.1792 -3.497,0.5127 -1.2573,0.6838 -2.0616,2.1005 -1.9236,3.5381 -0.033,1.036 -0.029,2.0726 -0.044,3.1089 3.151,0 6.3019,0 9.4529,0 -0.1162,-1.6422 0.2584,-3.3723 -0.3604,-4.9427 -0.6034,-1.3928 -2.1881,-2.277 -3.6282,-2.217 z"/>
  </g>
</svg>