<svg xmlns:dc="http://purl.org/dc/elements/1.1/" xmlns:cc="http://creativecommons.org/ns#" xmlns:rdf="http://www.w3.org/1999/02/22-rdf-syntax-ns#" xmlns:svg="http://www.w3.org/2000/svg" xmlns="http://www.w3.org/2000/svg" xmlns:sodipodi="http://sodipodi.sourceforge.net/DTD/sodipodi-0.dtd" xmlns:inkscape="http://www.inkscape.org/namespaces/inkscape" width="40.687199mm" height="40.2318mm" viewBox="0 0 40.687199 40.2318" version="1.1" id="svg2576" sodipodi:docname="multipage-export-elcw4y4r.svg">
  <defs id="defs2570">
    <rect x="-1893.2883" y="-1487.8069" width="81.741173" height="50.455036" id="rect10831"/>
  </defs>
  <sodipodi:namedview id="base" pagecolor="#ffffff" bordercolor="#666666" borderopacity="1.0" inkscape:pageopacity="0.0" inkscape:pageshadow="2" inkscape:zoom="0.36086675" inkscape:cx="1524.7728" inkscape:cy="952.87288" inkscape:document-units="mm" inkscape:current-layer="layer1" inkscape:document-rotation="0" showgrid="false" inkscape:window-width="1920" inkscape:window-height="1001" inkscape:window-x="-9" inkscape:window-y="-9" inkscape:window-maximized="1"/>
  <metadata id="metadata2573">
    <rdf:RDF>
      <cc:Work rdf:about="">
        <dc:format>image/svg+xml</dc:format>
        <dc:type rdf:resource="http://purl.org/dc/dcmitype/StillImage"/>
      </cc:Work>
    </rdf:RDF>
  </metadata>
  <g inkscape:label="Layer 1" inkscape:groupmode="layer" id="layer1" transform="translate(-15.2613,-160.8549)">
    <path id="rect4619" style="font-variation-settings:'wght' 600;display:inline;fill:#54a191;fill-opacity:1;stroke:none;stroke-width:9.20001;stroke-opacity:1;paint-order:markers fill stroke;stop-color:#000000" d="m 15.2613,160.8549 v 40.2306 h 16.6956 c 0.5309,-1.6851 1.0845,-3.3628 1.6382,-5.0405 0.5544,-2.3495 0.9041,-4.7369 1.374,-7.1036 0.022,-0.1129 0.043,-0.2254 0.065,-0.3384 1.4204,1.4298 2.5127,3.1322 3.6716,4.7691 -0.8147,2.5731 -1.6351,5.1438 -2.4603,7.7134 h 5.2627 c -0.8819,-2.7471 -1.3944,-5.5983 -2.248,-8.3544 -0.4809,-0.6438 -1.0284,-1.2465 -1.5528,-1.8595 -0.8592,-0.965 -1.683,-1.9595 -2.5198,-2.9435 -0.8276,-0.9835 -1.3776,-2.2995 -1.1353,-3.5981 0.6839,-3.5594 2.4997,-6.8125 4.7749,-9.5985 0.4507,-0.4713 0.8325,-1.0023 1.2645,-1.4904 0.3567,-0.3731 0.783,-0.7599 1.3116,-0.834 0.071,0 0.1418,0 0.2118,0.011 0.6729,0.123 1.0459,0.7763 1.3674,1.3157 3.0151,4.0352 6.0687,8.0434 8.9524,12.1746 -1.0673,0.7339 -2.2094,1.3478 -3.3403,1.9759 -1.8963,-2.44 -3.7689,-4.8993 -5.6979,-7.3136 -0.557,0.6654 -1.0052,1.3843 -1.3849,2.1725 -0.4128,0.9379 -0.797,1.91 -0.9276,2.9331 2.4753,4.912 4.0683,10.1926 5.7562,15.4104 h 5.4219 c -0.6776,-3.2096 -1.2919,-6.432 -1.8981,-9.6562 -0.063,-0.6792 -0.3019,-1.3264 -0.3829,-2.0021 -0.093,-0.5913 0.102,-1.2578 0.63,-1.5886 0.5003,-0.2196 0.9733,-0.4744 1.4712,-0.7077 v 0 c 0.067,-0.033 0.135,-0.065 0.202,-0.097 0.6922,3.1956 1.3521,6.3981 2.0066,9.6014 0.224,0.9637 0.3698,1.9643 0.6109,2.9337 0.2459,0.484 0.2228,1.1404 -0.2052,1.5164 h 1.7518 v -40.2307 z m 32.3712,6.2507 c 0.3132,0.01 0.6271,0.035 0.9322,0.1019 1.5534,0.3696 2.6342,1.9106 2.7032,3.4679 0.022,0.6136 -0.091,1.2337 -0.3054,1.8076 -0.7263,1.71 -2.8591,2.5633 -4.5992,2.0148 -1.0204,-0.2571 -1.864,-1.0348 -2.2645,-2.0002 -0.6057,-1.3735 -0.4282,-3.1491 0.6821,-4.2188 0.364,-0.3188 0.7821,-0.571 1.1845,-0.8387 0.4029,-0.2593 0.8837,-0.3324 1.3544,-0.3324 v 0 c 0.1038,0 0.2082,0 0.3127,0 z m 0,1.9699 c -0.2741,0.013 -0.5584,0.043 -0.8165,0.142 -0.9199,0.3493 -1.2964,1.5166 -0.9473,2.3948 0.2471,0.7694 1.1263,1.1348 1.8826,1.0197 0.7094,-0.071 1.4178,-0.5969 1.4738,-1.3473 0.2964,-1.0128 -0.525,-2.1931 -1.5926,-2.2092 z m -6.2911,5.7713 c -1.3877,1.4692 -2.5802,3.1242 -3.5228,4.9123 -0.4633,0.8429 -0.8181,1.7362 -1.1612,2.6323 -0.4302,1.0922 -0.8636,2.3045 -0.4754,3.4753 1.2108,1.7179 2.6721,3.2316 4.021,4.8379 -0.3267,-0.9715 -0.7309,-2.2008 -1.2331,-3.7573 -0.2237,-0.1858 -0.3316,-0.4792 -0.3576,-0.7663 -0.042,-0.4818 -0.028,-0.9922 0.1163,-1.4507 0.3151,-1.3988 0.8272,-2.7588 1.5627,-3.992 0.5041,-0.7774 0.9596,-1.6481 1.7689,-2.1542 0.3989,-0.2697 0.9201,-0.339 1.3699,-0.1816 -0.01,-0.3339 -0.053,-0.6961 -0.2005,-1.008 -0.5807,-0.7684 -1.1339,-1.5579 -1.7156,-2.3244 v 0 c -0.057,-0.074 -0.1146,-0.1484 -0.1726,-0.2222 z"/>
  </g>
</svg>