<svg xmlns:dc="http://purl.org/dc/elements/1.1/" xmlns:cc="http://creativecommons.org/ns#" xmlns:rdf="http://www.w3.org/1999/02/22-rdf-syntax-ns#" xmlns:svg="http://www.w3.org/2000/svg" xmlns="http://www.w3.org/2000/svg" xmlns:sodipodi="http://sodipodi.sourceforge.net/DTD/sodipodi-0.dtd" xmlns:inkscape="http://www.inkscape.org/namespaces/inkscape" width="40.688702mm" height="40.692001mm" viewBox="0 0 40.688702 40.692001" version="1.1" id="svg2576" sodipodi:docname="multipage-export-elcw4y4r.svg">
  <defs id="defs2570">
    <rect x="-1893.2883" y="-1487.8069" width="81.741173" height="50.455036" id="rect10831"/>
  </defs>
  <sodipodi:namedview id="base" pagecolor="#ffffff" bordercolor="#666666" borderopacity="1.0" inkscape:pageopacity="0.0" inkscape:pageshadow="2" inkscape:zoom="0.36086675" inkscape:cx="1524.7728" inkscape:cy="952.87288" inkscape:document-units="mm" inkscape:current-layer="layer1" inkscape:document-rotation="0" showgrid="false" inkscape:window-width="1920" inkscape:window-height="1001" inkscape:window-x="-9" inkscape:window-y="-9" inkscape:window-maximized="1"/>
  <metadata id="metadata2573">
    <rdf:RDF>
      <cc:Work rdf:about="">
        <dc:format>image/svg+xml</dc:format>
        <dc:type rdf:resource="http://purl.org/dc/dcmitype/StillImage"/>
      </cc:Work>
    </rdf:RDF>
  </metadata>
  <g inkscape:label="Layer 1" inkscape:groupmode="layer" id="layer1" transform="translate(-15.2601,24.7679)">
    <path id="rect11637" style="font-variation-settings:'wght' 600;display:inline;fill:#54a191;fill-opacity:1;stroke:none;stroke-width:1.08039" d="m 15.2601,-24.313 c 0,13.4113 0,26.8225 0,40.2338 2.1459,0 4.2919,0 6.4378,0 -0.1803,-0.3877 -0.8936,-0.7672 -0.7268,-1.1608 1.5451,-2.3774 2.3202,-5.2049 4.1044,-7.4426 -2.6478,-2.0701 -3.7551,-5.9253 -2.4405,-9.0443 1.3148,-3.2063 4.8932,-5.342 8.3451,-4.7986 1.9198,0.3136 3.7966,1.2908 5.009,2.8312 1.2915,1.7703 1.9635,3.9471 1.5715,6.1104 -0.3548,2.1584 -1.6229,4.1493 -3.4536,5.3545 1.3829,2.5788 2.463,5.3103 3.2316,8.1502 1.7391,0 3.4782,0 5.2174,0 0.724,-2.9689 1.8372,-5.8385 3.307,-8.5178 -2.1235,-1.4352 -3.5874,-3.8863 -3.5386,-6.4848 -0.082,-2.3193 0.9639,-4.6226 2.7793,-6.0709 1.6435,-1.3701 3.7623,-2.0275 5.8693,-1.7906 1.9127,0.1677 3.5908,1.2302 4.9758,2.4979 0,-6.7742 0,-13.5483 0,-20.3225 -13.5629,0 -27.1258,0 -40.6887,0 0,0.1516 0,0.3032 0,0.4549 z m 24.7359,2.4023 c 1.1718,-0.1633 2.1914,0.544 3.135,1.1347 1.265,0.8682 2.2251,2.1828 2.7354,3.6211 0.136,1.0156 0.094,2.06 0.046,3.0841 -0.2801,2.1109 -1.989,3.811 -3.9028,4.5926 -1.5826,0.6503 -3.4595,0.6809 -4.9958,-0.087 -0.6748,-0.16 -1.1546,0.935 -1.8097,0.3946 -0.4317,-0.4258 -0.071,-1.117 -0.4255,-1.6042 -0.5413,-1.0287 -1.4746,-1.8425 -1.7358,-3.0197 -0.4238,-1.3793 -0.3706,-3.072 0.3144,-4.4394 0.6548,-1.6789 2.0994,-3.0666 3.9051,-3.3971 0.8945,-0.211 1.8165,-0.2633 2.7329,-0.2794 z m 10.3056,17.5711 c -2.1532,-0.07 -4.3507,1.2276 -5.0462,3.3188 -0.8257,2.1599 -0.07,4.8577 1.9208,6.1076 0.6606,0.5191 1.4854,0.8217 2.1369,1.3264 0.2745,0.4297 -0.3418,0.7477 -0.4594,1.1322 -1.643,2.5785 -2.8117,5.4353 -3.6185,8.3787 2.9713,0 5.9426,0 8.914,0 0.5696,-0.5706 1.125,-1.1544 1.6368,-1.7777 C 55.28,13.0969 54.8164,12.0307 54.3893,10.9501 53.67,9.4229 52.2068,8.4437 51.3222,7.0404 c -0.3781,-0.7628 0.5893,-1.2312 1.131,-1.5288 2.0637,-1.1489 3.3605,-3.7014 2.6745,-6.0253 -0.545,-1.9645 -2.3148,-3.5622 -4.3561,-3.7957 -0.032,-0.107 -0.3559,0 -0.47,-0.03 z m -20.8815,0.3794 c -2.5383,0.1167 -4.7538,2.415 -4.7152,4.9698 -0.068,1.7481 0.7062,3.5501 2.213,4.5054 0.6538,0.4658 1.3772,0.8212 2.0976,1.1712 -1.2064,1.4137 -2.5525,2.7505 -3.329,4.4688 -0.5846,1.1556 -1.0877,2.3513 -1.6769,3.5051 0.4202,0.4034 0.7711,0.9811 1.2576,1.2607 3.1218,0 6.2435,0 9.3652,0 -0.7623,-2.6832 -1.7746,-5.3138 -3.2379,-7.6953 -0.4216,-0.6808 -0.3043,-1.6614 0.4479,-2.0614 1.1139,-0.673 2.2199,-1.4974 2.729,-2.7432 1.0589,-2.1826 0.4245,-5.1075 -1.6498,-6.4595 -1.0142,-0.7381 -2.2669,-0.9868 -3.5015,-0.9216 z"/>
  </g>
</svg>