<svg xmlns:dc="http://purl.org/dc/elements/1.1/" xmlns:cc="http://creativecommons.org/ns#" xmlns:rdf="http://www.w3.org/1999/02/22-rdf-syntax-ns#" xmlns:svg="http://www.w3.org/2000/svg" xmlns="http://www.w3.org/2000/svg" xmlns:sodipodi="http://sodipodi.sourceforge.net/DTD/sodipodi-0.dtd" xmlns:inkscape="http://www.inkscape.org/namespaces/inkscape" width="40.763248mm" height="40.688995mm" viewBox="0 0 40.763248 40.688995" version="1.1" id="svg2576" sodipodi:docname="multipage-export-elcw4y4r.svg">
  <defs id="defs2570">
    <rect x="-1893.2883" y="-1487.8069" width="81.741173" height="50.455036" id="rect10831"/>
  </defs>
  <sodipodi:namedview id="base" pagecolor="#ffffff" bordercolor="#666666" borderopacity="1.0" inkscape:pageopacity="0.0" inkscape:pageshadow="2" inkscape:zoom="0.36086675" inkscape:cx="1524.7728" inkscape:cy="952.87288" inkscape:document-units="mm" inkscape:current-layer="layer1" inkscape:document-rotation="0" showgrid="false" inkscape:window-width="1920" inkscape:window-height="1001" inkscape:window-x="-9" inkscape:window-y="-9" inkscape:window-maximized="1"/>
  <metadata id="metadata2573">
    <rdf:RDF>
      <cc:Work rdf:about="">
        <dc:format>image/svg+xml</dc:format>
        <dc:type rdf:resource="http://purl.org/dc/dcmitype/StillImage"/>
      </cc:Work>
    </rdf:RDF>
  </metadata>
  <g inkscape:label="Layer 1" inkscape:groupmode="layer" id="layer1" transform="translate(-134.8618,24.7663)">
    <path id="rect11673" style="font-variation-settings:'wght' 600;display:inline;fill:#54a191;fill-opacity:1;stroke:none;stroke-width:1.08039" d="m 134.8618,-24.3113 c 0,13.4112 0,26.8225 0,40.2338 1.9327,-4e-4 3.8673,6e-4 5.7983,0 0.027,-0.4273 0.6912,-0.3532 0.9966,-0.587 2.3187,-0.981 4.4526,-2.4359 6.9135,-3.0541 0.4803,-0.042 0.9882,-0.015 0.8115,-0.6587 0.1957,-1.1392 0.9313,-2.0147 1.5265,-2.9361 1.0858,-1.6002 2.4081,-3.0449 3.3757,-4.7202 0.488,-1.0584 0.5369,-2.2428 0.7158,-3.3773 -1.7311,-0.5328 -3.4779,-1.0235 -5.1358,-1.8039 -1.4323,-0.6929 -1.8618,-2.6511 -0.9982,-3.9474 0.3843,-0.5989 1.0992,-0.9699 1.2237,-1.7307 0.1131,-0.5822 0.4423,-1.1309 0.2127,-1.7231 -0.1231,-0.5966 0.062,-1.2565 0.6096,-1.5732 0.4273,-0.4451 0.7922,-1.1168 0.6954,-1.7281 -0.2753,-0.7251 -0.1022,-1.6987 0.6653,-2.0342 0.6712,-0.6485 0.6285,-1.745 1.3536,-2.3757 0.7467,-0.8709 2.0283,-1.1564 3.0736,-0.6825 1.5693,0.5161 3.0531,1.2657 4.5634,1.9196 0.5118,0.1433 0.7842,-0.5053 0.5204,-0.8881 -0.1507,-1.7485 0.9438,-3.3919 2.2574,-4.4497 0.6299,-0.5363 1.4568,-0.765 2.2691,-0.6146 0.6616,-0.012 1.3241,0.1363 1.7653,0.6636 1.2597,0.9167 1.9138,2.4906 1.7677,4.0297 -0.019,1.4639 -0.8745,2.9834 -2.3658,3.3587 -0.3522,0.1859 -1.4479,0.085 -0.8345,0.6252 1.127,1.5864 2.1886,3.215 3.3665,4.7656 0.2124,-1.0031 0.2157,-2.0229 0.2692,-3.0394 0.026,-1.1095 1.3638,-1.7735 2.2959,-1.2329 1.0026,0.7093 0.78,2.1041 0.7974,3.1758 0.014,0.4364 -0.1004,0.9423 0.3458,1.1989 0.8142,0.8839 1.2421,2.248 0.6457,3.3445 -0.1898,0.514 -0.7256,0.8353 -0.9815,1.2555 0.013,4.8433 0.054,9.6988 0.054,14.5341 0.1807,0.8444 1.1919,0.5748 1.817,0.6467 0.5956,0.101 0.2982,-1.234 0.2982,-1.234 v -35.8158 h -40.6887 z m 29.0439,7.2847 c -0.1205,1.6849 0.6079,2.7095 2.2843,2.3181 1.0327,-0.046 1.3436,-0.4751 1.7288,-1.362 0.8502,-1.427 -0.4758,-2.5928 -1.6027,-2.6732 -0.7516,-0.3341 -2.5808,0.1605 -2.4104,1.7171 z m -8.1623,3.3868 c -1.3812,3.187 -2.8599,6.3329 -4.0877,9.5838 0.5487,1.0185 1.8135,1.4609 2.9109,1.4606 0.6555,-0.1327 0.6087,-0.9888 0.9003,-1.4677 1.1191,-2.8727 2.2349,-5.7465 3.2679,-8.6517 -0.4142,-0.1124 -0.5086,-0.5069 -0.7856,-0.7587 -0.6284,-0.3291 -1.3806,-0.3155 -2.0598,-0.5003 -0.049,0.1114 -0.097,0.2227 -0.146,0.334 z m 7.0925,1.2339 c -1.0873,-0.01 -1.988,0.8001 -2.3018,1.8072 -0.8666,2.2891 -1.6639,4.6128 -2.3137,6.9729 -0.335,1.0352 -0.073,2.1747 0.6341,2.9928 0.4359,0.6059 -0.1713,-0.3043 -0.4991,-0.1813 -0.8792,0.062 -0.7288,1.1353 -0.8843,1.7533 -0.074,0.9556 -0.324,1.9011 -0.9454,2.6539 -1.1873,1.7808 -2.6,3.423 -3.6143,5.3125 -0.5335,1.1492 0.2084,2.0904 1.3618,1.815 0.8253,-0.092 1.6986,-0.702 2.2284,-1.231 1.3632,-1.7547 2.796,-3.4721 4.006,-5.3347 0.2325,-0.7631 0.5095,-1.5887 0.3911,-2.3872 0.8,0.9981 1.8035,1.8599 2.4356,2.9784 0.3226,1.2305 0.1614,2.5346 0.2944,3.7936 0.022,0.8149 0.018,1.7941 0.8301,2.2517 0.8232,0.5857 2.0806,0.1583 2.3875,-0.8072 0.3221,-0.6424 0.066,-1.4217 0.1478,-2.1211 -0.05,-1.6481 0.1126,-3.3156 -0.1293,-4.9504 -0.3359,-1.0269 -1.2447,-1.7284 -1.8808,-2.5694 -0.717,-0.8965 -1.5891,-1.6954 -2.1951,-2.6649 0.069,-1.3431 0.6878,-2.5949 1.049,-3.8796 0.046,-0.6181 0.4165,-0.9167 0.734,-0.2455 0.5988,0.7291 1.1652,1.7592 2.2441,1.7455 1.4972,0.1374 3.0257,0.1966 4.5159,-0.019 0.9814,-0.2694 0.8952,-1.8319 -0.069,-2.0548 -1.0033,-0.1676 -2.0373,-0.11 -3.0385,-0.2837 -1.4234,-1.5483 -2.3027,-3.5491 -3.8862,-4.9522 -0.4261,-0.3254 -0.9796,-0.4087 -1.5025,-0.3945 z m 1.7106,9.2884 c -0.4321,0.2188 -0.3575,0.7995 -0.5288,1.1902 1.3238,1.6312 2.8042,3.1566 4.0749,4.7851 0.8429,1.1633 0.6007,2.6839 0.7102,4.0338 0.027,1.6072 -0.013,3.2244 0.014,4.8257 0.096,0.6524 0.8699,0.63 1.3379,0.4163 0.018,-4.8889 0.09,-9.7784 -0.01,-14.6669 -1.4796,-0.1587 -3.042,0.1741 -4.4601,-0.347 -0.3641,-0.1004 -0.7136,-0.3462 -1.0845,-0.2697 z M 160.8618,7.267 c -1.1361,1.727 -2.4561,3.3218 -3.7016,4.969 1.586,0 3.1728,0.022 4.7575,-0.058 -0.094,-1.6235 -0.025,-3.274 -0.2693,-4.8781 -0.1344,-0.6412 -0.2998,-1.0646 -0.6415,-0.2495 -0.048,0.072 -0.097,0.1448 -0.1451,0.2173 z" sodipodi:nodetypes="scccccccccccccccccccccccccccccccccccccscccccccccccccsccccccccccccccccccccccccccssccccccccccsccccss"/>
  </g>
</svg>