<?xml version="1.0" encoding="UTF-8" standalone="no"?>
<svg
   xmlns:dc="http://purl.org/dc/elements/1.1/"
   xmlns:cc="http://creativecommons.org/ns#"
   xmlns:rdf="http://www.w3.org/1999/02/22-rdf-syntax-ns#"
   xmlns:svg="http://www.w3.org/2000/svg"
   xmlns="http://www.w3.org/2000/svg"
   xmlns:sodipodi="http://sodipodi.sourceforge.net/DTD/sodipodi-0.dtd"
   xmlns:inkscape="http://www.inkscape.org/namespaces/inkscape"
   width="54.822693mm"
   height="17.83581mm"
   viewBox="0 0 54.822693 17.83581"
   version="1.1"
   id="svg1678"
   inkscape:version="1.0.2 (e86c870879, 2021-01-15, custom)">
  <defs
     id="defs1672" />
  <sodipodi:namedview
     id="base"
     pagecolor="#ffffff"
     bordercolor="#666666"
     borderopacity="1.0"
     inkscape:pageopacity="0.0"
     inkscape:pageshadow="2"
     inkscape:zoom="0.36061947"
     inkscape:cx="580.41689"
     inkscape:cy="379.34835"
     inkscape:document-units="mm"
     inkscape:current-layer="layer1"
     inkscape:document-rotation="0"
     showgrid="false"
     inkscape:window-width="1920"
     inkscape:window-height="1001"
     inkscape:window-x="-9"
     inkscape:window-y="1071"
     inkscape:window-maximized="1" />
  <metadata
     id="metadata1675">
    <rdf:RDF>
      <cc:Work
         rdf:about="">
        <dc:format>image/svg+xml</dc:format>
        <dc:type
           rdf:resource="http://purl.org/dc/dcmitype/StillImage" />
        <dc:title></dc:title>
      </cc:Work>
    </rdf:RDF>
  </metadata>
  <g
     inkscape:label="Layer 1"
     inkscape:groupmode="layer"
     id="layer1"
     transform="translate(47.735303,-47.797416)">
    <g
       id="g17613"
       transform="matrix(0.30056061,0,0,0.30056061,345.20046,541.40991)"
       style="mix-blend-mode:normal">
      <g
         id="g1123"
         transform="matrix(0.35277777,0,0,-0.35277777,-1364.861,-1508.838)">
        <g
           aria-label="a"
           transform="matrix(1,0,0,-1,160.4231,263.2683)"
           id="text1127"
           style="font-variant:normal;font-weight:normal;font-size:153.336px;font-family:'Azote SSi';-inkscape-font-specification:AzoteSSi;writing-mode:lr-tb;fill:#008136;fill-opacity:1;fill-rule:nonzero;stroke:none" />
        <g
           aria-label="a"
           transform="matrix(1,0,0,-1,232.2794,263.2683)"
           id="text1131"
           style="font-variant:normal;font-weight:normal;font-size:153.336px;font-family:'Azote SSi';-inkscape-font-specification:AzoteSSi;writing-mode:lr-tb;fill:#008136;fill-opacity:1;fill-rule:nonzero;stroke:none" />
        <g
           aria-label="r"
           transform="matrix(1,0,0,-1,301.062,263.2683)"
           id="text1135"
           style="font-variant:normal;font-weight:normal;font-size:153.336px;font-family:'Azote SSi';-inkscape-font-specification:AzoteSSi;writing-mode:lr-tb;fill:#008136;fill-opacity:1;fill-rule:nonzero;stroke:none" />
        <g
           aria-label="a"
           transform="matrix(1,0,0,-1,347.3677,263.2683)"
           id="text1139"
           style="font-variant:normal;font-weight:normal;font-size:153.336px;font-family:'Azote SSi';-inkscape-font-specification:AzoteSSi;writing-mode:lr-tb;fill:#008136;fill-opacity:1;fill-rule:nonzero;stroke:none" />
        <g
           aria-label="n"
           transform="matrix(1,0,0,-1,418.3597,263.2683)"
           id="text1149"
           style="font-variant:normal;font-weight:normal;font-size:153.336px;font-family:'Azote SSi';-inkscape-font-specification:AzoteSSi;writing-mode:lr-tb;fill:#008136;fill-opacity:1;fill-rule:nonzero;stroke:none" />
        <g
           aria-label="y"
           transform="matrix(1,0,0,-1,490.157,263.2683)"
           id="text1153"
           style="font-variant:normal;font-weight:normal;font-size:153.336px;font-family:'Azote SSi';-inkscape-font-specification:AzoteSSi;writing-mode:lr-tb;fill:#008136;fill-opacity:1;fill-rule:nonzero;stroke:none" />
        <g
           aria-label="a"
           transform="matrix(1,0,0,-1,559.209,263.2683)"
           id="text1157"
           style="font-variant:normal;font-weight:normal;font-size:153.336px;font-family:'Azote SSi';-inkscape-font-specification:AzoteSSi;writing-mode:lr-tb;fill:#008136;fill-opacity:1;fill-rule:nonzero;stroke:none" />
        <path
           id="path1159"
           style="fill:#008136;fill-opacity:1;fill-rule:evenodd;stroke:none"
           d="m 447.1061,346.3795 c 2.893,-1.6268 5.9037,-2.4406 9.0323,-2.4406 3.1363,0 8.4476,1.4111 15.9347,4.2335 7.4872,2.8225 11.27,4.2336 11.3482,4.2336 0,0 1.4114,-0.2353 4.2336,-0.7058 -2.9792,-3.0966 -7.5065,-5.8601 -13.5825,-8.271 -6.0761,-2.4108 -11.3876,-3.6062 -15.9347,-3.6062 -7.8327,0 -14.0927,1.6203 -18.7826,4.8577 z m 182.48173,-77.421 q 1.27281,-3.59381 4.79175,-5.6902 h -15.19883 q -1.27281,0 -2.02152,0.74871 -0.67384,0.74871 -1.34768,2.54562 -0.67384,1.87178 -1.34768,3.14458 -0.67384,1.34768 -2.02152,1.87178 -1.19794,0 -3.29433,-1.49742 -2.09639,-1.42255 -5.6902,-3.81843 -3.51895,-2.321 -7.86147,-3.81842 -4.26765,-1.49742 -9.73324,-1.49742 -6.2143,0 -11.67989,2.24613 -5.46559,2.17126 -8.90966,6.43891 -3.44407,4.26765 -3.44407,10.33221 0,8.61018 6.88814,14.74961 6.88814,6.13943 16.17215,9.50863 9.35889,3.44407 17.66958,4.94149 8.31069,1.49742 10.6317,1.49742 v 8.90966 q 0,3.81843 -2.32101,6.2143 -2.24613,2.47075 -5.6902,3.44407 -3.44407,1.0482 -7.48711,1.0482 -6.58865,0 -12.4286,-2.24614 -5.83995,-2.24613 -10.40708,-6.73839 -4.49227,-4.49227 -7.18763,-11.08092 l 3.96817,24.48284 q 0.37436,-0.52409 1.34768,-1.34768 1.0482,-0.74871 2.47075,-0.74871 0.89845,0 1.57229,0.44923 3.66868,1.42255 10.78144,2.77023 7.11275,1.34768 13.10244,1.34768 7.56198,0 13.62654,-1.57229 6.13943,-1.49743 10.10759,-5.69021 4.04304,-4.11791 4.04304,-11.45527 v -42.15243 q 0,-4.71688 0.89846,-7.33737 z m -16.39677,21.63775 v 13.92602 q -7.11276,0 -15.57319,-2.91997 -8.38556,-2.91997 -14.15064,-8.46043 -5.6902,-5.46559 -5.6902,-12.57835 0,-4.79175 3.8933,-8.38556 3.96817,-3.51894 8.83479,-3.51894 5.31584,0 10.55682,2.91997 5.31585,2.99485 8.68505,8.01121 3.44407,5.09123 3.44407,11.00605 z M 508.42555,228.15376 q -4.4174,0 -7.56198,1.34768 -3.14459,1.34768 -6.7384,4.49226 l 7.03788,15.64806 q 1.49742,-11.82963 10.93118,-11.82963 4.86662,0 8.53531,3.3692 3.66868,3.3692 5.54046,8.38556 1.87177,5.01636 1.87177,9.88298 0,2.69536 -0.74871,5.16611 l -23.35978,59.22303 q -1.04819,2.77023 -4.41739,6.43892 -2.69536,3.59381 -6.28918,5.24098 h 29.42434 q -2.91997,-1.34768 -4.11791,-5.24098 -0.44922,-1.57229 -0.44922,-3.21946 0,-2.09639 0.44922,-3.21946 l 18.86752,-46.3452 17.44496,46.79443 q 0.29949,0.89845 0.29949,2.17126 0,2.77023 -0.89845,4.71688 -0.82359,2.54562 -3.66869,4.34253 h 20.2152 q -2.77023,-1.64717 -5.01637,-4.64201 -2.99484,-4.11791 -3.89329,-6.58866 l -28.30128,-74.19725 q -3.44407,-9.20915 -9.88298,-15.57319 -6.36404,-6.36404 -15.2737,-6.36404 z m -33.91253,108.56308 q 5.1661,0 9.65837,-2.39587 4.56714,-2.32101 7.2625,-6.43892 2.69536,-4.11791 2.69536,-8.98453 v -47.84263 q 0,-3.29432 1.04819,-5.01636 1.0482,-1.72203 3.06972,-2.77023 h -24.1085 q 2.24614,1.0482 3.06972,2.77023 1.27281,1.94665 1.27281,5.01636 v 44.47343 q 0,5.91482 -2.8451,9.50863 -2.84511,3.66869 -9.28402,3.66869 -4.94149,0 -9.28402,-2.62049 -4.34252,-2.54562 -7.33736,-6.51379 -2.91998,-3.96817 -4.49227,-8.23582 -1.57229,-4.19278 -1.57229,-7.56198 v -32.71867 q 0,-3.29432 1.04819,-5.01636 0.82359,-1.79691 3.06972,-2.77023 H 424.0499 q 1.87178,0.97332 3.06972,2.77023 1.04819,2.09639 1.04819,5.01636 v 46.49495 q 0,8.61018 -1.34768,11.53015 -1.87177,3.74356 -4.19278,5.61533 l 17.07061,1.5723 q 0.37436,-0.82359 0.97333,-2.39588 0.67384,-1.57229 0.82358,-2.69536 0.74871,-2.02152 1.12306,-5.01636 0.37436,-2.91997 0.44923,-4.49227 0.82358,0.5241 6.06456,4.26765 5.24098,3.74356 8.31069,5.61534 3.06971,1.94664 7.78659,3.51894 4.71688,1.64716 9.28402,1.64716 z M 417.74653,268.9585 q 1.27281,-3.59381 4.79175,-5.6902 h -15.19883 q -1.27281,0 -2.02152,0.74871 -0.67384,0.74871 -1.34768,2.54562 -0.67384,1.87178 -1.34768,3.14458 -0.67384,1.34768 -2.02152,1.87178 -1.19794,0 -3.29433,-1.49742 -2.09639,-1.42255 -5.6902,-3.81843 -3.51895,-2.321 -7.86147,-3.81842 -4.26765,-1.49742 -9.73324,-1.49742 -6.2143,0 -11.67989,2.24613 -5.46559,2.17126 -8.90966,6.43891 -3.44407,4.26765 -3.44407,10.33221 0,8.61018 6.88814,14.74961 6.88814,6.13943 16.17216,9.50863 9.35888,3.44407 17.66957,4.94149 8.31069,1.49742 10.6317,1.49742 v 8.90966 q 0,3.81843 -2.32101,6.2143 -2.24613,2.47075 -5.6902,3.44407 -3.44407,1.0482 -7.48711,1.0482 -6.58865,0 -12.4286,-2.24614 -5.83995,-2.24613 -10.40708,-6.73839 -4.49227,-4.49227 -7.18763,-11.08092 l 3.96817,24.48284 q 0.37436,-0.52409 1.34768,-1.34768 1.0482,-0.74871 2.47075,-0.74871 0.89845,0 1.57229,0.44923 3.66868,1.42255 10.78144,2.77023 7.11275,1.34768 13.10244,1.34768 7.56198,0 13.62654,-1.57229 6.13943,-1.49743 10.10759,-5.69021 4.04304,-4.11791 4.04304,-11.45527 v -42.15243 q 0,-4.71688 0.89846,-7.33737 z m -16.39677,21.63775 v 13.92602 q -7.11276,0 -15.57319,-2.91997 -8.38556,-2.91997 -14.15064,-8.46043 -5.6902,-5.46559 -5.6902,-12.57835 0,-4.79175 3.8933,-8.38556 3.96817,-3.51894 8.83479,-3.51894 5.31584,0 10.55682,2.91997 5.31585,2.99485 8.68505,8.01121 3.44407,5.09123 3.44407,11.00605 z m -45.70673,44.09907 -2.47075,-14.07576 q -0.74871,1.42255 -3.29433,2.77023 -2.54562,1.34768 -5.76507,1.34768 -3.96817,0 -7.48711,-2.47075 -3.8933,-2.8451 -6.58866,-6.88814 -2.62049,-4.04304 -2.62049,-8.23582 v -37.43555 q 0,-2.91997 0.97333,-4.26765 0.74871,-1.64716 2.69536,-2.62049 h -21.11365 q 1.87178,0.97333 2.77023,2.62049 1.0482,1.57229 1.0482,4.26765 v 41.85294 q 0,1.87178 -0.37436,5.4656 -0.37435,3.66868 -1.34768,5.91481 -2.321,5.61533 -6.88814,8.83479 l 16.24703,3.59381 q 0.59897,-1.04819 1.64716,-3.21945 1.12307,-2.17127 1.57229,-3.44407 0.82359,-1.87178 1.64717,-4.9415 0.82358,-2.99484 1.12306,-4.49226 2.39588,3.44407 5.91482,6.88814 3.51894,3.44407 6.51379,5.01636 7.63685,3.81843 13.17731,3.81843 1.12306,0 1.79691,-0.14974 0.67384,-0.0749 0.82358,-0.14975 z m -52.9848,-65.73682 q 1.27281,-3.59381 4.79175,-5.6902 h -15.19883 q -1.27281,0 -2.02152,0.74871 -0.67384,0.74871 -1.34768,2.54562 -0.67384,1.87178 -1.34768,3.14458 -0.67384,1.34768 -2.02152,1.87178 -1.19794,0 -3.29433,-1.49742 -2.09639,-1.42255 -5.6902,-3.81843 -3.51895,-2.321 -7.86147,-3.81842 -4.26765,-1.49742 -9.73324,-1.49742 -6.2143,0 -11.67989,2.24613 -5.46559,2.17126 -8.90966,6.43891 -3.44407,4.26765 -3.44407,10.33221 0,8.61018 6.88814,14.74961 6.88814,6.13943 16.17216,9.50863 9.35888,3.44407 17.66957,4.94149 8.31069,1.49742 10.6317,1.49742 v 8.90966 q 0,3.81843 -2.32101,6.2143 -2.24613,2.47075 -5.6902,3.44407 -3.44407,1.0482 -7.48711,1.0482 -6.58865,0 -12.4286,-2.24614 -5.83995,-2.24613 -10.40708,-6.73839 -4.49227,-4.49227 -7.18763,-11.08092 l 3.96817,24.48284 q 0.37436,-0.52409 1.34768,-1.34768 1.0482,-0.74871 2.47075,-0.74871 0.89845,0 1.57229,0.44923 3.66868,1.42255 10.78144,2.77023 7.11275,1.34768 13.10244,1.34768 7.56198,0 13.62654,-1.57229 6.13943,-1.49743 10.10759,-5.69021 4.04304,-4.11791 4.04304,-11.45527 v -42.15243 q 0,-4.71688 0.89846,-7.33737 z m -16.39677,21.63775 v 13.92602 q -7.11276,0 -15.57319,-2.91997 -8.38556,-2.91997 -14.15064,-8.46043 -5.6902,-5.46559 -5.6902,-12.57835 0,-4.79175 3.8933,-8.38556 3.96817,-3.51894 8.83479,-3.51894 5.31584,0 10.55682,2.91997 5.31585,2.99485 8.68505,8.01121 3.44407,5.09123 3.44407,11.00605 z M 230.80193,268.9585 q 1.27281,-3.59381 4.79175,-5.6902 h -15.19883 q -1.27281,0 -2.02152,0.74871 -0.67384,0.74871 -1.34768,2.54562 -0.67384,1.87178 -1.34768,3.14458 -0.67384,1.34768 -2.02152,1.87178 -1.19794,0 -3.29433,-1.49742 -2.09639,-1.42255 -5.6902,-3.81843 -3.51894,-2.321 -7.86147,-3.81842 -4.26765,-1.49742 -9.73324,-1.49742 -6.2143,0 -11.67989,2.24613 -5.46559,2.17126 -8.90966,6.43891 -3.44407,4.26765 -3.44407,10.33221 0,8.61018 6.88814,14.74961 6.88814,6.13943 16.17215,9.50863 9.35889,3.44407 17.66958,4.94149 8.31069,1.49742 10.6317,1.49742 v 8.90966 q 0,3.81843 -2.32101,6.2143 -2.24613,2.47075 -5.6902,3.44407 -3.44407,1.0482 -7.48711,1.0482 -6.58865,0 -12.4286,-2.24614 -5.83995,-2.24613 -10.40708,-6.73839 -4.49227,-4.49227 -7.18763,-11.08092 l 3.96817,24.48284 q 0.37436,-0.52409 1.34768,-1.34768 1.0482,-0.74871 2.47075,-0.74871 0.89845,0 1.57229,0.44923 3.66868,1.42255 10.78144,2.77023 7.11275,1.34768 13.10244,1.34768 7.56198,0 13.62654,-1.57229 6.13943,-1.49743 10.10759,-5.69021 4.04304,-4.11791 4.04304,-11.45527 v -42.15243 q 0,-4.71688 0.89846,-7.33737 z m -16.39677,21.63775 v 13.92602 q -7.11276,0 -15.57319,-2.91997 -8.38556,-2.91997 -14.15064,-8.46043 -5.6902,-5.46559 -5.6902,-12.57835 0,-4.79175 3.8933,-8.38556 3.96817,-3.51894 8.83479,-3.51894 5.31584,0 10.55682,2.91997 5.31585,2.99485 8.68505,8.01121 3.44407,5.09123 3.44407,11.00605 z" />
      </g>
      <g
         id="g1161"
         transform="matrix(0.35277777,0,0,-0.35277777,-1364.861,-1508.838)">
        <path
           id="path1179"
           style="fill:#ef7c00;fill-opacity:1;fill-rule:evenodd;stroke:none"
           d="m 641.9795,337.758 c -1.8198,-2.9954 -5.7314,-6.6269 -8.475,-8.9992 -1.2291,-1.063 -0.9774,-0.3671 -1.3604,-1.2725 2.4747,0.3243 2.7836,0.005 6.1209,0.9176 2.0466,0.5601 3.6915,1.4511 5.3237,2.7765 3.3344,2.7077 5.1718,7.9277 5.6163,12.9524 -1.5236,0.4626 -5.1211,-0.0927 -6.3916,-0.383 -6.3051,-1.4408 -9.303,-4.6726 -11.3263,-10.7268 -0.5004,-1.4964 -0.4777,-2.621 -0.8932,-3.8875 l 5.4737,4.7449 c 1.2203,0.9644 4.7718,3.5584 5.9119,3.8776 M 606.7182,230.3073 c -0.7155,0.915 -1.9981,4.9331 -2.3958,6.3751 -0.3314,1.2016 -0.633,2.2402 -0.849,3.4359 -0.1718,0.9502 -0.6194,2.5957 -0.5309,3.5966 l -0.3433,0.1125 c -0.4173,-1.182 -1.0585,-2.0341 -1.5276,-3.4888 -0.4924,-1.5268 -0.7353,-2.3497 -0.938,-3.7707 -0.462,-3.2406 0.1709,-6.5489 1.8204,-9.0998 l 1.7788,-2.3927 c 1.0394,-1.1168 3.3264,-3.5836 5.0289,-4.1845 3.9064,6.4295 5.099,13.3174 0.5882,19.0508 -2.2238,2.8261 -2.5778,2.6549 -4.4683,4.4677 l 1.3267,-6.7728 c 0.1879,-1.2685 0.7806,-6.1943 0.5099,-7.3293 m -67.9637,20.5923 c -0.9097,-2.7717 -1.1345,-3.6006 -1.3975,-6.5764 1.9797,-0.6009 5.745,0.163 7.9027,0.7912 0.9606,0.2797 1.516,0.4612 2.4015,0.9122 4.1238,2.1016 5.9301,4.8925 7.4109,9.4047 0.4929,1.5024 0.4819,2.6278 0.8957,3.8892 -0.5538,-0.1809 -0.8767,-0.6494 -1.309,-1.0914 -1.6639,-1.7025 -5.0238,-4.4385 -6.9843,-5.72 -0.8529,-0.5579 -2.196,-1.5602 -3.092,-1.8111 0.7764,1.2776 3.5824,4.4218 4.6587,5.5061 l 5.1767,4.7656 c -3.5269,-0.4621 -5.226,-0.1015 -9.2189,-2.1521 -2.4828,-1.2753 -5.2268,-4.2075 -6.4445,-7.918 m 41.1454,107.4203 c 0.5924,-0.8274 1.9987,-5.3218 2.3383,-6.5475 0.3385,-1.222 0.6129,-2.1801 0.896,-3.4117 0.1673,-0.7291 0.5471,-2.918 0.485,-3.6196 l 0.3436,-0.1128 c 0.5142,1.2163 1.0352,1.9669 1.5267,3.4906 0.4958,1.5363 0.7617,2.3785 1.0041,3.8021 0.7407,4.3529 -0.9046,8.2978 -3.6607,11.4616 -0.9519,1.0927 -3.3599,3.6334 -5.0326,4.1822 -0.2052,-0.4847 -0.612,-1.1072 -0.8192,-1.4938 -4.1695,-7.7896 -3.5286,-15.1855 3.4166,-20.9554 0.5544,-0.4607 0.8348,-0.6044 1.2826,-1.069 0.1423,0.5978 -1.0913,4.6494 -1.2821,6.9384 -0.1321,1.5828 -0.8393,5.9051 -0.4983,7.3349 m 62.4665,-79.0591 c 4.4921,-1.474 5.8281,-1.6441 10.0874,-3.7729 0.9465,-0.4728 2.1132,-1.1815 3.0192,-1.4789 l -6.6047,0.8884 c -1.897,0.3526 -5.192,1.6518 -7.1779,2.3035 0.6247,-2.2315 5.2625,-6.8602 8.6062,-7.9575 3.5141,-1.1531 4.8212,-1.0207 8.2687,-0.4983 1.4491,0.2194 4.9413,1.3192 5.9485,2.107 -0.7753,2.77 -5.6548,8.1298 -9.2979,9.3254 -3.1085,1.0202 -4.4343,1.1421 -7.5062,0.6888 -1.5159,-0.2236 -4.2925,-0.7835 -5.3433,-1.6055 m -13.6658,-21.9436 c 0.1928,-0.5904 2.0888,-2.2864 2.939,-3.2374 3.1804,-3.5569 3.5064,-4.0008 6.4125,-7.7791 0.7058,-0.9176 4.3228,-6.2093 4.6159,-7.2564 -1.3104,0.5541 -7.6271,6.1803 -8.9478,7.4984 -1.3507,1.349 -2.5461,2.6399 -3.8591,4.0604 l -2.6884,3.2213 c -0.3104,0.3997 -0.4946,0.7687 -0.9742,1.0817 -0.5006,-2.0999 0.9711,-8.8044 1.8944,-11.2099 3.005,-7.8324 7.7074,-11.3341 15.8757,-14.0148 2.0965,-0.688 6.9562,-1.6432 8.4614,-1.4459 l 3e-4,2e-4 c 0.4342,4.9128 -0.8745,13.0533 -3.6338,17.4875 -0.2248,0.3615 -0.2772,0.3705 -0.5008,0.7484 -2.1408,3.6201 -6.6087,7.1544 -10.8434,8.5439 -2.5047,0.822 -3.7032,1.3107 -6.2269,1.8385 -0.8334,0.1741 -1.6668,0.1815 -2.5248,0.4632 m 37.0616,52.1019 c -1.4434,-1.1287 -12.0048,-4.3217 -13.3943,-4.6508 l -4.2684,-0.9002 c -1.1908,-0.2288 -3.9634,-0.5695 -4.4155,-0.893 2.3207,-0.7616 6.0607,-3.3428 11.6073,-3.9857 5.3382,-0.6191 10.0326,0.1323 14.2616,2.9361 4.0312,2.6725 5.8133,4.3344 8.9864,8.2706 0.3892,0.483 1.3031,1.7394 1.5478,2.3173 v 3e-4 l -4.9984,2.6252 c -1.6718,0.7662 -4.1136,1.6217 -6.1648,2.1798 -4.2621,1.1597 -8.8024,0.8748 -12.7873,-0.4733 -3.496,-1.1829 -7.1107,-3.8866 -9.7257,-6.5263 -0.7968,-0.8044 -2.8647,-2.8564 -3.314,-3.9191 l 5.3572,1.2946 c 2.7544,0.6321 14.8297,2.3156 17.3081,1.7245 M 563.0635,232.2748 c -1.6832,-5.1293 -1.5038,-8.0424 -0.7435,-12.6873 0.3756,-2.2958 2.0534,-7.7947 3.3605,-9.466 2.0798,0.5822 6.6254,3.9807 8.316,5.6344 8.8789,8.6857 9.377,17.0487 5.4419,28.2379 -0.1794,0.5108 -0.0808,0.6347 -0.6097,0.9797 -0.3215,-0.9791 -0.218,-1.2436 -0.5607,-2.2876 -2.1104,-6.4312 -3.0745,-9.5975 -6.2512,-15.6588 -0.4978,-0.9497 -1.3457,-2.2768 -1.6583,-3.2301 l 0.8087,6.9942 c 1.1084,5.6146 1.8275,7.4126 3.5555,12.6779 0.3745,1.1415 0.6591,1.4295 1.0162,2.5183 -0.7157,0.0403 -0.4144,0.0227 -0.9672,-0.3517 l -2.7473,-1.9265 c -1.222,-0.9632 -2.2547,-1.7901 -3.3843,-2.9318 -1.9352,-1.9562 -4.4626,-5.1081 -5.5766,-8.5026 m 42.9217,130.7943 c -1.7751,-5.4097 -1.3479,-10.2929 0.1054,-15.5506 0.2622,-0.9488 1.0993,-3.5853 1.5863,-4.2078 0.4297,1.3094 0.4564,1.9704 0.8986,3.3177 1.6662,5.0774 2.1194,6.7839 4.479,11.8043 l 3.4923,6.1135 c -0.362,-1.1035 -1.1656,-8.7661 -3.0178,-14.4102 l -1.6897,-5.1491 c -0.3748,-1.1418 -0.6591,-1.4295 -1.0165,-2.5183 0.9334,-0.0528 2.9874,1.7053 3.7148,2.2782 0.6539,0.5147 1.0964,0.8762 1.7178,1.4147 0.5726,0.4964 1.1205,0.9726 1.6676,1.5146 6.1177,6.0616 7.6955,12.7817 6.319,21.1921 -0.3821,2.334 -2.0302,7.7649 -3.3605,9.4663 -2.0387,-0.5706 -6.7221,-4.0448 -8.4109,-5.7297 -2.4642,-2.4588 -5.0627,-5.2001 -6.4854,-9.5357" />
      </g>
    </g>
  </g>
</svg>
