<?xml version="1.0" encoding="utf-8"?>
<!-- Generator: Adobe Illustrator 19.0.0, SVG Export Plug-In . SVG Version: 6.00 Build 0)  -->
<svg version="1.1"
	 id="svg3304" xmlns:dc="http://purl.org/dc/elements/1.1/" xmlns:cc="http://creativecommons.org/ns#" xmlns:rdf="http://www.w3.org/1999/02/22-rdf-syntax-ns#" xmlns:svg="http://www.w3.org/2000/svg" xmlns:sodipodi="http://sodipodi.sourceforge.net/DTD/sodipodi-0.dtd" xmlns:inkscape="http://www.inkscape.org/namespaces/inkscape" sodipodi:docname="3 AARANYA HELP-1.svg" inkscape:version="1.0.2 (e86c870879, 2021-01-15, custom)"
	 xmlns="http://www.w3.org/2000/svg" xmlns:xlink="http://www.w3.org/1999/xlink" x="0px" y="0px" viewBox="469 207.4 1550 379.6"
	 style="enable-background:new 469 207.4 1550 379.6;" xml:space="preserve">
<style type="text/css">
	.st0{fill:url(#rect13922_1_);}
	.st1{opacity:0.1639;fill:url(#path16348_1_);enable-background:new    ;}
</style>
<sodipodi:namedview  showgrid="false" inkscape:cy="827.20915" inkscape:cx="-1157.7699" inkscape:zoom="0.125" borderopacity="1.0" bordercolor="#666666" pagecolor="#ffffff" id="base" inkscape:window-maximized="1" inkscape:window-y="-9" inkscape:current-layer="layer1" inkscape:window-x="-9" inkscape:pageshadow="2" inkscape:document-units="mm" inkscape:window-height="1001" inkscape:pageopacity="0.0" inkscape:window-width="1920" inkscape:document-rotation="0">
	</sodipodi:namedview>
<g id="layer1" transform="translate(124.56373,-30.565241)" inkscape:label="Layer 1" inkscape:groupmode="layer">
	<g id="g858">
		<linearGradient id="rect13922_1_" gradientUnits="userSpaceOnUse" x1="344.4363" y1="427.7881" x2="1894.4258" y2="427.7881">
			<stop  offset="0" style="stop-color:#40463C"/>
			<stop  offset="1" style="stop-color:#213335"/>
		</linearGradient>
		
			<rect id="rect13922" x="344.4" y="238" onclick="InkWeb.moveViewbox({from:this, to:'text24708'});" class="st0" width="1550" height="379.6"/>
		
			<linearGradient id="path16348_1_" gradientUnits="userSpaceOnUse" x1="-906.22" y1="1123.9832" x2="-373.1589" y2="1123.9832" gradientTransform="matrix(-3.91 0 0 -3.91 -1419.8173 4822.5303)">
			<stop  offset="0" style="stop-color:#FFE9B7;stop-opacity:0.8898"/>
			<stop  offset="1" style="stop-color:#C3E9D2;stop-opacity:0.6471"/>
		</linearGradient>
		<path id="path16348" onclick="InkWeb.moveViewbox({from:this, to:'text24708'});" class="st1" d="M416.7,238
			c7.6,10.6,9.5,17.6,11.4,36c0.7,6.9,2.2,15.1,3.3,18.1l2,5.6l-8.3,3.8c-4.6,2.1-8.7,4.6-9.1,5.7c-1.1,2.9,2.5,7,6.9,7.9
			c2.2,0.4,5.4,1.7,7.2,2.9c3.1,2,3.1,2.2,1.3,7.6c-1.1,3-2.6,11.7-3.4,19.3c-1.7,16.3-5.8,28.2-12.5,36.6c-2.7,3.3-5.2,6.3-5.7,6.7
			c-1.6,1.3-2.4,5.9-1.3,7.7c1.2,2,2.3,2,18.6,0.8c12.6-1,20.4,0.7,35.2,7.5c4.6,2.1,11.9,4.8,16.2,6l7.8,2.2l-0.8,8.5
			c-1.2,13.1,2.4,15.3,12.4,7.4c6.8-5.4,8.1-5.6,10.8-1.5c1.1,1.7,6.6,6.5,12.3,10.7c19.3,14.3,26,22.1,30.7,35.8
			c3.4,9.9,7.2,12.1,10.8,6.4h0c1-1.6,2.5-5.1,3.4-7.8c3.3-10.4,11.3-20.3,24-29.8c6.7-5,14.2-11.2,16.7-13.8
			c2.5-2.6,5.1-4.7,5.8-4.7c0.7,0,3.8,2.1,6.8,4.6c3.1,2.5,6.8,4.6,8.3,4.6c4,0,5.8-4.3,4.2-10.2c-2.4-8.8-1.9-10.4,3.5-11.4
			c2.7-0.5,10.2-3.1,16.7-5.9c6.5-2.8,14.6-6,18.1-7.1c7-2.4,21-2.7,29.6-0.7c9.9,2.3,12.6-3.6,5.3-11.9c-9.7-11-13.8-21.5-15.7-40
			c-0.7-7.2-2.2-16-3.2-19.4c-1.8-6-1.7-6.3,1-8.1c1.6-1,5.1-2.5,7.8-3.4c3.4-1.1,5.2-2.5,5.7-4.7c1.1-4.3,0.2-5.3-7.4-8
			c-8.8-3.2-9.5-4.2-7.2-10.9c1.1-3.1,2.5-11.6,3.2-19.1c0.7-7.4,2.4-16.5,3.8-20.2c1.6-4.2,4.3-9.3,7.1-13.7h-13.9
			c-0.1,0.3-0.3,0.5-0.4,0.8c-3.5,6.7-6.7,19.8-7.7,30.7c-0.9,10.1-2.8,20.1-3.9,20.1c-0.3,0-3.8-4.4-7.8-9.8
			c-4-5.4-7.3-10.4-7.3-11.1c0-2.8,4.8-11.3,8.8-15.7c4.6-5,4.9-6.2,3-9.3c-1-1.5-4.1-2-14.4-2c-10.3,0-13.5-0.4-14.5-2
			c-0.3-0.4-0.6-1.1-1-1.8h-56.5c3,1,5.9,2.3,8.6,3.7c13.4,7.1,24.7,18.8,32.3,33.3c10.4,20.1,10.8,45,0.9,65.8
			c-15.1,31.9-52.6,49.3-87.3,40.4l0,0c-24.2-6.2-47.2-29.1-52.8-52.3c-8.7-36,6.7-71.5,37.7-87.2c2.9-1.5,5.9-2.7,9-3.8h-57
			c-1.6,2.8-2.9,3.4-5.5,3.9c-2.4,0.5-8.3,0.4-13,0c-13.6-1.4-15.4,1.9-7.2,12.9c2.8,3.7,5.8,8.5,6.7,10.8c1.5,3.9,1.3,4.5-5.4,13.4
			c-3.8,5.1-7.7,9.3-8.5,9.3c-0.8,0-1.8-1.8-2.3-4.2l0,0c-0.4-2.3-1.4-9.9-2.2-16.7c-1.4-12.9-3.4-20.2-7.9-29l-0.2-0.4L416.7,238z
			 M1093.2,238c0,0.6-0.1,1.1-0.1,1.7l-0.7,6.5l7.1-0.5c4.7-0.3,9.9,0.1,15.2,1.3c4.4,1,9,1.5,10.1,1.2c1.6-0.4,2.5,0.3,4,3.3
			c1.1,2.1,4.5,6.3,7.7,9.4c3.7,3.6,6.5,7.6,8,11.1c1.2,3,2.4,5.5,2.6,5.5c0.2,0,2.5-1.6,5-3.5c2.7-2,8.3-4.7,13.4-6.3
			c4.9-1.5,9.4-3.5,10-4.3c1.5-1.9,3.5-1.8,5,0.1c1.3,1.5,3.1,2.2,13.6,5.1c3.2,0.9,7.9,3.2,10.5,5.3c2.6,2,5,3.6,5.3,3.6
			c0.3,0,1.3-2.2,2.3-4.8l0,0c1-2.6,4.7-8.2,8.3-12.4c3.5-4.2,6.8-8.5,7.1-9.7c0.5-1.7,1.5-2.1,5.6-2.1c2.7,0,7.4-0.8,10.5-1.7
			c5.7-1.7,12.5-2,17.9-0.8l3,0.7l-0.7-6.6c-0.1-0.7-0.1-1.4-0.2-2.1h-18.5c-1,0.2-2,0.5-2.8,0.8c-5.8,2-10.7,2.2-12.8,0.5
			c-0.6-0.5-0.9-0.9-1-1.3H1211l1.4,3c1.7,3.5,2.3,3.7,6.7,1.9c1.5-0.6,1.8-0.2,1.8,2c0,1.8-1.8,4.7-5.6,8.8
			c-3.1,3.3-6.4,7.3-7.3,8.7c-1.6,2.4-1.9,2.5-4,1.2c-1.2-0.8-5.5-2.3-9.4-3.3l0,0c-10.2-2.6-16.1-8.7-8.2-8.7
			c3.6,0,3.7-0.1,3.4-3.9l-0.3-3.9h-10.9h-10.9l-0.3,3.9c-0.3,3.7-0.2,3.9,2.8,3.9c3.6,0,4.2,1.9,1.4,4.4c-1,0.9-5.5,2.8-10,4.3
			c-4.5,1.5-8.8,3.2-9.5,3.7c-0.9,0.8-1.9,0.2-3.7-2.3c-1.3-1.9-4.2-5-6.3-6.9c-2.2-1.9-4.6-4.8-5.5-6.4c-1.8-3.5-1-6.6,1.4-5.6
			c4.2,1.8,4.9,1.6,6.6-2l1.4-3h-18.7c-0.2,0.3-0.5,0.6-0.9,1c-1.7,1.7-2.2,1.7-10.4,0c-1.8-0.4-3.6-0.7-5.2-1L1093.2,238z
			 M1530.1,238c-1,0.6-1.9,1.1-2.8,1.6l-12,6.1l7.9,9.7c4.4,5.3,9.5,14.7,11.4,20.8c1.9,6.1,5.8,15.2,8.6,20.1c5,8.8,5,9.2-0.1,18
			c-2.9,5-6.6,14.3-8.3,20.9c-1.7,6.5-6.9,16.1-11.5,21.4l-8.4,9.5l9.2,4.6c5,2.5,16.7,12.6,25.9,22.4l16.8,17.8l-0.3,28.4
			c-0.2,15.6-1.3,31.3-2.5,34.7c-2,5.8-1.4,6.2,9,6.2c6.7,0,18.3,3.4,28.8,8.3c9.7,4.6,19.1,8.3,21,8.3c1.9,0,4.3,3.4,5.3,7.6
			c1,4.2,5.4,14,9.8,21.7c5.3,9.4,7.9,18.1,7.9,26c0,11.1,0.4,11.8,6.2,9.8c3.4-1.1,18.5-2.8,33.6-3.8l27.3-1.7l20.6,20.1
			c11.3,11.1,20.6,22,20.6,24.4c0,7.4,8,7.7,16.5,0.5c4.6-3.8,14.9-9.1,22.9-11.8c8.1-2.6,17-6.4,19.9-8.4c4.3-3,6.3-2.9,11.3,0.4
			c3.4,2.2,12.8,6,21.1,8.5c8.3,2.5,18.6,7.4,22.9,11.1c10.3,8.6,12,8.4,17.5-2.4h0.1c1.3-2.5,4.4-6.6,8.3-11.1v-24.9
			c-9,9.5-19.9,20-21.7,20.1c-1.1,0-2.6-1-3.4-2.4l0.1,0c-0.8-1.3-7.5-3.9-14.7-5.7c-15.4-3.8-26.6-10.4-24.3-14.2
			c0.9-1.5,4.1-2.7,7-2.7c4.2,0,5.4-1.9,5.4-8.4v-8.4l-22.9,0.8c-22.7,0.8-22.9,0.9-23.8,8.4c-0.8,6.6,0.1,7.6,6.5,7.6
			c4.4,0,6.9,1.3,6.3,3.3c-1.4,4.1-4.8,6-27.1,14.6c-14.5,5.6-18.4,6.3-20.1,3.2c-1.2-2.1-8.4-8.5-16-14.4
			c-15.4-11.7-18.7-20.7-6.8-18.5c6.8,1.3,8,0,10.7-12.7c0.1-0.5-9.1-4.6-20.5-9.2c-19.5-7.8-20.9-8-24.3-3.5
			c-4.8,6.6-4.5,8.7,2.1,12.2c10,5.4,2.8,8.3-20.4,8.2l-22.7-0.1l-9.1-18.7c-5-10.3-9.1-20.9-9-23.5c0.1-5.3,4.2-6.5,7-2.1
			c2.8,4.5,8.1,3.2,11.9-2.8c3.1-5,1.9-7.2-11.8-20.9c-13.7-13.7-15.9-14.9-20.9-11.8c-6,3.8-7.3,9.1-2.8,11.9
			c3.9,2.4,3.5,6.9-0.7,6.9c-1.9,0-12.5-4.1-23.6-9l-20.1-9l-0.4-18c-0.8-30.8,0.9-36.2,7.9-25.8c3.5,5.2,5,5.6,11,2.9
			c7.6-3.5,7.6-3.7-2.6-27.9c-7.2-17.1-7.3-17.2-16.3-14.9c-4.5,1.2-5.5,3.1-4.5,8.6c2.2,11.5-4,8.5-20.9-9.9
			c-14.8-16.2-15.4-17.4-11.9-24.3c2-4,4.5-11,5.6-15.6c4.2-17.6,15.5-26.5,15.5-12.1c0,4.4,1.5,5.4,7.6,4.7
			c7.6-0.9,7.6-0.9,7.6-23.1c0-22-0.1-22.2-7.4-23.1c-5.9-0.7-7.6,0.4-8.3,5.6c-1.6,11.1-6.2,6.3-15.4-15.9l-8.9-21.6l6.2-5.8
			c1.8-1.7,4.5-4.6,7.3-7.8L1530.1,238z M1611.6,238c-2.8,2.2-6.5,5.5-10.3,9.4c-12.8,12.8-13.4,14.1-9.9,19.8
			c2.1,3.4,5.3,10.8,7.1,16.5c1.8,5.7,4.2,10.4,5.3,10.4c1.1,0,4.1-4.4,6.7-9.8c2.6-5.4,7.7-11.2,11.5-12.9l6.8-3.1l-5.4-6.9
			c-3-3.8-5.4-10.9-5.4-15.8c0-2.9-0.2-5.7-0.6-7.7L1611.6,238z M1626.1,238c0.2,1,0.3,1.9,0.5,3.1c2.7,16.8,2.1,15.7,9.7,18
			c4.1,1.3,7.9-0.6,13.7-6.6c4.4-4.6,10.5-8.3,13.6-8.3c4.3,0,4.8-0.7,2.3-3.3c-0.6-0.6-1.1-1.6-1.5-2.9L1626.1,238z M1681.2,238
			c1.5,0.4,2.8,0.4,4.2,0H1681.2z M1724.8,238c-2.8,2.1-4,4.9-4,9.1c0,10.1,6.8,12.3,12.3,3.9c3.7-5.6,5-10.2,4.3-13.1H1724.8z
			 M1769.1,238c-10.2,7.5-19,17.6-25.4,30.5c-6.6,13.5-7.8,19.3-7.7,38.1c0.1,25.8,6.9,43.1,23.5,59.7c21,21,58.1,30,86,20.8
			c21.9-7.2,39-23,48.8-42.6V268c-6.4-12.5-15.3-22.5-25.7-29.9L1769.1,238z M1700.9,240.9c-6.5,0.3-13.5,9.5-13.5,19.2
			c0,11.4,9.8,16,16.7,7.8l0,0c1.9-2.3,5.4-4.2,7.8-4.2c3.4,0,3.6-0.7,1-3.3c-1.8-1.8-3.3-6.2-3.3-9.6c0-3.5-2.3-7.5-5.2-9.1
			C1703.3,241,1702.1,240.8,1700.9,240.9L1700.9,240.9z M499.2,243.7c0.7,0-2,3.7-5.9,8.2c-7.9,9-13.9,19.8-17.5,31.5
			c-2.7,8.7-3.5,7.7-4.9-6.1c-0.5-4.9-2-12-3.4-15.7c-1.4-3.7-2.4-6.8-2.2-6.9c0.2-0.1,3.8-0.9,8.2-1.9c4.3-0.9,11.6-3.4,16.2-5.5
			C494.2,245.4,498.6,243.7,499.2,243.7z M618,243.7c0.6,0,4.1,1.4,7.7,3.1c7.7,3.7,19.4,7.4,23.7,7.4h3l-2.6,6.5
			c-2,5.1-5.3,23.2-5.3,29.2c0,2.8-1.3,0.2-3.9-8.2c-3.5-10.8-9.5-21.2-17.8-31C619.5,246.9,617.3,243.7,618,243.7L618,243.7z
			 M1819,249.7c18.2,0.1,36.2,8.8,47.4,24.7c7.4,10.5,8.3,14.1,8.3,31.9c0,25.8-7.9,39.1-29.5,49.9c-16.6,8.3-31.2,9.2-46.2,3
			c-21.2-8.9-36.5-30.9-36.6-52.6c0-17,11.3-38.5,25-47.6C1797.1,252.7,1808,249.7,1819,249.7z M1663.6,253.7
			c-3.1-0.1-5.4,2-10.1,7.7c-8.2,9.8-8.3,17.2-0.5,29.3c5.7,8.8,12.3,7.8,22.3-3.5l0,0c4.8-5.4,7.7-10.3,6.6-11
			c-1.1-0.7-2.8-5.1-3.8-9.7c-1.2-5.8-4-9.3-9.3-11.3C1666.7,254.3,1665,253.8,1663.6,253.7L1663.6,253.7z M1714.1,276.1
			c-7.3,0-12.2,8.4-8.4,14.4c3.5,5.5,8.4,7.6,10.4,4.5c0.8-1.2,1.8-6,2.3-10.6C1719.1,277.8,1718.2,276.1,1714.1,276.1L1714.1,276.1
			z M1630,280.3c-6.4,0-9,2.3-14.8,13.4l-7.1,13.3l8,13c9.5,15.4,19.7,17.9,24.2,5.9c1.5-3.9,2.7-8.2,2.7-9.6c0-1.3,2.5-4.2,5.6-6.4
			c5.1-3.5,5.2-4.3,1.2-7.6c-2.4-2-6.1-7.8-8.2-12.9C1638.5,282.2,1636.1,280.3,1630,280.3z M657,286.8l4.4,5.8
			c2.4,3.2,7.3,8,10.9,10.8l6.5,5l-4.3,3.7c-2.4,2-4.7,3.7-5.3,3.7c-0.5,0-3.4,3.3-6.5,7.4l-5.5,7.3l-2.2-7.1
			c-1.2-3.9-3.3-8.9-4.6-11.1l0,0c-2.3-3.9-2.3-4.2,0-7.7c1.3-2,3.3-6.8,4.5-10.7L657,286.8z M460.2,286.9l1.7,6.6
			c0.9,3.7,2.8,8.5,4.2,10.7l2.5,4.1l-3.8,8.1c-2.1,4.4-3.8,9.5-3.8,11.2c0,2.7-1.3,1.8-9.2-6.8c-5.1-5.5-10.4-10.4-11.9-10.8
			c-2.4-0.7-2.1-1.2,2.5-4.5c2.8-2,8-7,11.5-11.1L460.2,286.9z M1690.7,291.1c-0.2,0-0.4,0-0.6,0c-4.2,0.2-8.8,3.2-11.1,8.6
			c-2.9,7-2.7,9.4,1.1,15.3c6.2,9.4,13.1,8.7,19.1-1.8c2.7-4.8,3.9-9.5,2.6-10.4c-1.3-0.9-3.2-3.8-4.2-6.5
			C1696.4,292.9,1693.8,291.2,1690.7,291.1L1690.7,291.1z M1712.1,316.4c-6.5,0-10.1,12.3-5.3,18.1c3.7,4.4,10,5.5,12,2l0,0
			c0.7-1.1,0.6-6.1-0.1-11.1C1717.7,318.9,1715.8,316.4,1712.1,316.4L1712.1,316.4z M1665.2,316.7c-1.1,0-2.3,0-3.5,0.1
			c-7.9,0.8-9.5,2.3-12.8,12.9c-3.7,11.7-3.6,12.2,4,20.1c7.5,7.8,12.4,9.3,19.9,6.3c1.9-0.8,3.5-2.9,3.5-4.6
			c0-1.8,1.7-6.5,3.8-10.4c3.4-6.5,3.1-7.8-2.8-13.5c-3.6-3.5-6.5-7.5-6.5-9C1670.7,317.6,1668.5,316.8,1665.2,316.7L1665.2,316.7z
			 M1602.5,318.6c-0.6,0-1.1,0.4-1.5,1c-1.3,2-2.4,5.6-2.4,7.9c0,2.3-2.5,8.8-5.6,14.5l-5.5,10.3l12.8,11.8
			c7,6.5,13.9,12.3,15.2,12.8c1.4,0.5,2.5-4.2,2.5-10.4l0,0c0-7.5,1.8-13.1,5.4-16.7c5.4-5.4,5.4-5.4,0-7.1
			c-3-0.9-8.7-7.4-12.7-14.2C1606.7,321.6,1604.2,318.6,1602.5,318.6L1602.5,318.6z M644.1,326.3c0.2,0,0.4,0.3,0.4,1
			c0,6,3.2,24.2,5.2,29.1l2.5,6.3l-6.5,0.9c-3.6,0.5-11.1,2.9-16.6,5.4c-5.6,2.5-10.6,4.5-11.2,4.5c-0.6,0,2.2-3.9,6.3-8.8
			c7.7-9.2,16.1-25.1,17.4-32.7C642,329.1,643.5,326.3,644.1,326.3L644.1,326.3z M473.5,326.9c0.3,0,0.6,0.9,1,2.8
			c2.2,9.5,12.3,29.9,16.4,33.4c3.3,2.8,9.6,10.5,8.6,10.5c-0.7,0-6-2.1-11.7-4.6c-5.8-2.5-13.3-5-16.7-5.4c-3.4-0.5-6.2-0.9-6.2-1
			c0-0.1,1.2-3.2,2.6-6.9c1.4-3.7,3-10.8,3.5-15.7c0.5-4.9,1.3-10.1,1.8-11.5C473.1,327.4,473.3,326.9,473.5,326.9L473.5,326.9z
			 M442.6,328.7c1.2,0.1,4.1,3.2,8.4,8.9c7.2,9.7,7.4,10.3,5.9,14.2c-0.9,2.2-3.9,7.1-6.6,10.8c-5.3,7-6.2,10.1-3.4,11.9
			c0.9,0.6,7.5,1.1,14.6,1.1h13l4.9,11.1c2.7,6.1,4.7,11.5,4.4,12c-0.7,1.3-6.2-0.5-18.5-5.9l0,0c-12.6-5.6-24.2-8.7-31.7-8.7h-5.4
			l3.2-6.3c4.3-8.6,5.8-14.8,7.9-32.5c1-8.4,2.3-15.8,3-16.5C442.3,328.7,442.4,328.7,442.6,328.7L442.6,328.7z M673.4,329
			c2.1,0,2.6,2.3,4.5,18c1.9,15.5,5.1,27.4,9.3,33.7l2.2,3.4h-6.7c-7.1,0-19,3.5-36.9,11c-6.1,2.6-11.6,4.2-12.2,3.6
			c-0.6-0.6,1.3-6.3,4.3-12.6l5.3-11.5l13.1,0.7c12,0.7,13.2,0.5,14.5-1.8c1.5-2.8,0.1-6.3-4.3-10.9c-2.8-3-7.6-11.7-7.6-13.8
			C659,346.8,672,329,673.4,329z M1695.5,341.7c-4.3-0.1-6.9,3.7-7.6,11.2c-0.7,8,0.5,11.1,5.5,14.5c7.1,5,8,5.2,12.3,2.3
			c1.7-1.1,3.7-5.8,4.6-10.4c1.3-6.7,0.2-9.3-5.2-13.4C1701.3,343.2,1698.1,341.8,1695.5,341.7L1695.5,341.7z M1637.3,352.8
			c-6.3-0.1-10.4,7-11.6,20.9c-1.3,14.3-1.2,14.5,10.6,22.9c13.4,9.6,14.8,9.9,21.9,4.7l0,0c3.8-2.8,4.7-5.9,3.5-12.1
			c-1.1-5.3-0.2-10.5,2.5-14.3c3.8-5.4,3.7-6-0.4-6c-2.5,0-8.3-3.7-12.9-8.3C1645.6,355.5,1641,352.9,1637.3,352.8L1637.3,352.8z
			 M1724.9,356.1c-0.4,0-0.8,0.1-1.1,0.3c-5,3.1-3.5,15,2.3,18.1c6.8,3.6,7.2,3.6,10.7-0.6c3.2-3.9-6.2-17.5-11.5-17.9
			C1725.1,356.1,1725,356.1,1724.9,356.1L1724.9,356.1z M1680.4,375.3c-6.7,0-9.7,5.6-9.7,17.6c0,12.5,1.6,14.3,17.5,20.4
			c5.5,2.1,7.9,1.4,12.4-3.5h0c4.3-4.6,5-7.6,3.1-12.5c-1.5-3.8-1.4-8.4,0.1-11.2c1.9-3.6,1.4-4.8-2.1-5c-2.6-0.1-8.6-1.9-13.4-3.9
			C1685.3,376,1682.7,375.3,1680.4,375.3L1680.4,375.3z M626.2,383.7l-3.3,8.7c-1.8,4.8-3.3,11-3.3,13.7c0,2.7-0.3,5.3-0.8,5.8
			c-0.4,0.4-3.2-0.3-6.2-1.7c-3-1.3-9.5-3.1-14.4-4l-8.9-1.5l5.3-5.8c2.9-3.2,5.9-7.2,6.7-8.9c1.2-2.6,2.7-3.2,9.5-3.9
			c4.4-0.4,9.7-1.2,11.7-1.6L626.2,383.7z M491.6,383.7c1,0,3.5,0.4,6.3,1.2c3.8,1,9.1,1.8,11.8,1.8c3.2,0,5,0.6,5,1.7
			c0,0.9,2.9,5,6.5,9l6.5,7.3l-8.6,1.5c-4.7,0.8-11.4,2.6-14.7,3.9l-6.2,2.4l-0.9-6.9c-0.5-3.8-2.1-10.1-3.6-14
			c-1.5-3.9-2.7-7.4-2.7-7.9C491.1,383.8,491.3,383.8,491.6,383.7L491.6,383.7z M1723.1,385c-2-0.1-4.1,0.7-6.2,2.2
			c-4.5,3.3-4.7,4.9-1.8,13.6c1.8,5.4,4.7,9.9,6.5,9.9c1.8,0,5.8,0.7,8.8,1.5c3.6,0.9,6.7-0.4,8.7-3.7c2.1-3.5,2.3-6.7,0.5-10
			c-1.5-2.7-2-6.8-1.1-9.1c1.2-3.1,0.4-3.8-2.7-2.6c-2.4,0.9-6.5,0.6-9.1-0.8C1725.5,385.4,1724.3,385,1723.1,385L1723.1,385z
			 M1754.8,387.7c-1.3,0-2.3,0.7-3.5,2.2c-2.4,2.9-2.4,5.4-0.2,9.6c3.5,6.5,15.4,7.8,17.6,1.9c0.8-2.1-2-6.4-6.4-9.6
			C1758.6,389,1756.5,387.7,1754.8,387.7L1754.8,387.7z M1884.2,388.5c-5.8,0-16,8.9-14.5,12.7c2.4,6.2,16.9,5,19-1.6
			C1890.5,393.6,1888.5,388.5,1884.2,388.5z M584.3,391.4c2.2-0.2-1,3.1-8.3,8.1c-4.5,3.1-10.2,8.1-12.6,11.2l-4.5,5.6l-8-7.9
			c-4.4-4.3-10.5-9.6-13.5-11.7c-3-2.1-5.3-4.1-5-4.4c0.3-0.3,4.1,0.2,8.6,1.1c9.1,1.8,35.4,1,41-1.2
			C583,391.7,583.8,391.4,584.3,391.4L584.3,391.4z M1625,399.3l-1.4,18.9l-1.4,18.9l9.7,3c5.3,1.7,14,5.2,19.1,7.9
			c9.1,4.7,9.4,4.7,7.4-0.2c-4.2-10.5-5-25.9-1.5-30.1c3-3.6,2.3-4.2-4.6-4.2c-4.5,0-12.4-3.2-17.7-7.1L1625,399.3z M1847.6,405.8
			c-1.3,0-3.1,0.3-5.5,0.9c-11.4,2.5-13.2,3.5-13.2,8.1c0,6.7,13.2,9.4,18.9,3.7c1.8-1.8,3.3-5.7,3.3-8.5
			C1851.1,406.9,1850.5,405.7,1847.6,405.8z M1794.4,406.6c-6.3,0.1-8.7,3.7-5.4,9c3.5,5.5,11.8,7.3,17.4,3.7
			c5.8-3.7,1.8-10.4-7.1-12.2C1797.5,406.8,1795.9,406.6,1794.4,406.6z M1863.3,411.5c-0.7,0-1,0.7-1,2.1c0,2-2,5.8-4.4,8.5
			c-2.7,3-3.7,7.1-2.6,10.6c2.4,7.7,18.1,7.9,24.9,0.4c6.5-7.2,4.6-15.2-4-16.4c-3.8-0.5-8.5-2.2-10.4-3.8
			C1864.6,412,1863.8,411.5,1863.3,411.5L1863.3,411.5z M1773.5,412.4c-0.5,0-0.9,0.3-1.3,0.9c-1,1.7-4.8,3-8.5,3
			c-8.8,0-11.9,9.6-5.4,16.8c5.9,6.5,22.8,7.3,25.2,1.2l0,0c0.9-2.3,0.8-5.7-0.2-7.6C1778.2,416.8,1775.3,412.5,1773.5,412.4
			L1773.5,412.4z M540.5,415c0.6,0,1,0.1,1.2,0.1c2.4,0.9,8.1,10.1,10.8,17.2c1.9,5.1,2.9,6.2,5.5,6.2c2.7,0,4-1.6,8.1-9.8
			c6.9-13.9,7.6-14.4,20.6-12.5c5.8,0.8,11,1.9,11.4,2.4c1.4,1.4-2.1,4.8-14.1,13.6c-11.8,8.6-18.7,15.5-22.9,22.5
			c-1.4,2.3-2.5,4.2-2.6,4.2c-0.1,0-2.3-3.2-5-7c-4.9-7.1-12.4-14.1-23.1-21.4c-3.2-2.2-7.6-5.8-9.7-8l-3.8-4l4.4-0.7
			c2.4-0.4,7.6-1.3,11.6-1.9C535.9,415.2,538.9,414.9,540.5,415L540.5,415z M1674.3,417.3c-2.6-0.2-4.1,1.2-7.1,4.1
			c-5.3,5.3-5.3,6.3-1.5,20.2c4,14.3,4.4,14.7,17.8,18.2c17.3,4.5,16.1,4.6,21.8-1.6l0,0c4.5-5,4.5-5.9,0.2-14.2
			c-2.5-4.9-4-11.9-3.3-15.6c1-5.3,0.3-6.3-3.5-5.1c-2.6,0.8-9.5-0.5-15.3-2.9C1678.9,418.4,1676.3,417.4,1674.3,417.3L1674.3,417.3
			z M1818.5,419.1c-0.3,0-0.4,0.7-0.5,2c-0.1,1.9-3.3,4.7-7.2,6.2c-9.5,3.6-9.4,14.6,0.1,19c8.3,3.8,9,3.8,17.2-0.2l0,0
			c8.6-4.2,8.4-15.4-0.4-18.7c-3.7-1.4-7.3-4.2-8.1-6.2C1819.2,419.9,1818.8,419.2,1818.5,419.1L1818.5,419.1z M1736.1,420.3
			c-7.3,0.1-17.6,2.5-21.5,6.4c-5.5,5.5-5.4,5.5,0.4,16.9c5.5,10.7,6.6,11.5,17.7,11.5c6.5,0,13.4-1.5,15.2-3.3l0,0
			c4.5-4.5,4.2-9.4-1.1-17.6c-2.5-3.8-3.8-8.4-3.1-10.4C1744.6,421.3,1741.1,420.3,1736.1,420.3L1736.1,420.3z M1894.4,427.8
			c-0.8,2.2-2.1,4.7-3.4,6.8c-3.6,5.6-3.9,8.3-1.4,13.8c1.3,2.9,2.6,4.6,4.9,5.6V427.8z M1790.8,442.8c-0.9,0-1.8,0.4-2.9,0.9
			c-2.6,1.3-8,3.7-12,5.3c-11.3,4.4-11.9,13.1-1.5,22.8c9.8,9.2,10.3,9.3,24,4.3c7.9-2.8,9.9-5.1,10.6-12c0.7-6.6-0.4-9-4.9-10.4
			c-3.1-1-7-4.2-8.6-7.1C1794.1,443.9,1792.7,442.7,1790.8,442.8z M1848.1,443.8c-2.3,0-4.9,2.1-10,7.1c-11.2,10.9-12,19.9-2.1,23.7
			c16.7,6.3,19.1,6,28.1-3.4c7-7.4,8.3-10.4,6.3-15.4c-1.3-3.4-4.7-6.2-7.5-6.2c-2.8,0-7.5-1.7-10.3-3.8
			C1850.8,444.5,1849.5,443.8,1848.1,443.8L1848.1,443.8z M1755.5,458.9c-0.5,0-1.3,0.4-2.3,1.2c-1.9,1.6-9.1,3.3-15.9,3.8
			c-10.5,0.8-12.8,2-14.9,8.2c-2.2,6.2-1.2,9,6.9,18.7c5.2,6.3,10.1,11.2,10.8,11.1c0.8-0.2,3.3-0.7,5.6-1.2
			c2.3-0.5,8.8-1.6,14.5-2.6c14.8-2.4,17.1-12.4,5.2-22.5c-4.7-4-8.6-9.8-8.6-12.9C1756.8,460.2,1756.4,458.9,1755.5,458.9
			L1755.5,458.9z M1882.7,459c-0.8,0-1,0.9-1,2.8c0,2.3-3.8,8.5-8.4,13.8c-7.2,8.1-8,10.6-5.6,16.7c2.3,6.1,4.5,7.2,13.7,7.2
			c4.9,0,10.1,0.4,13,1v-36.1c-2.5-0.4-4.9-1.3-6.8-2.7C1885,459.9,1883.5,459,1882.7,459L1882.7,459z M344.4,466.2v11.2l7.1,3.6
			v13.2c0,12.8-1.9,18.4-4,11.8c-0.6-2-1.7-3-3.1-3.1v22.8c1,2.4,1.7,4.1,1.8,4.3c0.2,0.3,2.3,0.1,4.7-0.5c3.5-0.9,4.1-1.8,3.5-5
			c-1.2-6.2,4.1-5,9.4,2.1c2.5,3.3,6.2,7.5,8.2,9.4l3.6,3.4l-5.2,12.5c-5.4,12.9-8,15.7-8.9,9.2c-0.4-3-1.4-3.6-4.8-3.2
			c-4.2,0.5-4.3,0.6-4.3,13.4c0,12.8,0,12.9,4.4,13.4c3.5,0.4,4.4-0.1,4.4-2.7c0-8.3,6.6-3.2,9,7c0.6,2.7,2.1,6.7,3.3,9
			c2,4,1.7,4.7-6.9,14.1c-2.1,2.3-4,4.2-5.5,5.7h14.1c4.5-4.4,9.2-8.3,11.6-9.5l5.3-2.7l-4.8-5.5c-2.7-3-5.7-8.6-6.7-12.4
			c-1-3.8-3.2-9.2-4.8-12.1c-3-5.1-3-5.4-0.1-10.5c1.6-2.9,3.9-8.1,5-11.7c1.1-3.5,4.1-9,6.6-12l4.6-5.6l-7-3.5
			c-3.8-1.9-9-6.3-11.5-9.7c-2.5-3.4-6.3-7.6-8.5-9.4c-3.8-3.2-3.9-3.9-3.2-19.3c0.4-8.8,1.3-17.7,2-19.7c1.1-3.3,0.7-3.6-4.9-3.6
			C355.4,470.5,350.2,468.9,344.4,466.2L344.4,466.2z M1711,467.6c-0.1,0-0.1,0-0.2,0c-0.7,0.1-1.9,0.7-3.7,1.9
			c-4.1,2.6-8.6,2.6-18.8,0.3c-7.4-1.7-13.9-2.6-14.5-2c-0.6,0.6,1.2,4.5,3.9,8.7c2.8,4.2,6.4,12.4,8.1,18.2c1.7,5.8,4,9.7,5.1,8.6
			c1.1-1.1,9.5-1.8,18.6-1.5c9.1,0.3,16.6-0.3,16.6-1.2c0-0.9-3.8-6.1-8.5-11.4c-6.4-7.3-8.1-11.4-6.9-16.4
			C1711.7,469.2,1712,467.6,1711,467.6L1711,467.6z M1818.8,472.8c-1,0.1-2,1.1-3.7,3.1c-2.1,2.5-8,6.3-13.2,8.5
			c-7.9,3.3-9.3,5.2-8.5,11.5c0.7,5.6,4.2,9.5,13.7,15l12.8,7.5l12.9-8c17-10.6,17.9-20.1,2.6-26.5c-5.7-2.4-11.7-6.2-13.3-8.4
			C1820.6,473.6,1819.8,472.7,1818.8,472.8L1818.8,472.8z M1857.2,496.3l-1.8,5.8c-1,3.2-7.4,9-14.1,13c-6.8,4-12.3,7.6-12.3,8.1
			c0,0.5,6.8,2.9,15.1,5.3c8.3,2.4,15.9,5.6,16.8,7.1c2.8,4.5,5,3.1,17.3-11c6.5-7.4,11.8-14.2,11.8-15.1c0-0.9-4.9-1.6-11-1.6
			c-7.6,0-12.7-1.8-16.4-5.8L1857.2,496.3z M1781,497l-6.9,5.4c-3.8,3-10.9,5.4-15.8,5.4c-4.9,0-9.5,0.6-10.3,1.4
			c-1.1,1.1,24.6,29.1,26.6,29.1c0.2,0,2.8-1.7,5.8-3.8c3-2.1,10.2-5.3,15.9-7.2c5.7-1.9,10.4-4.3,10.4-5.4s-4.4-4.1-9.8-6.7
			c-5.4-2.6-11.2-7.7-12.9-11.5L1781,497z M1894.4,531c-5.7,3-6,4.8-4.7,8.4c1,2.5,2.5,4.2,4.7,5.1V531z M344.4,539.1v16.3
			c1-2.8,2.4-5.7,3.3-7.2C349.6,545.3,349.5,544.3,344.4,539.1z M344.4,586.5v16.2l5.5-5.1l-3.2-6C345.9,589.8,345,588,344.4,586.5z
			 M348.8,612c-1.8-0.1-2.7,1-4.3,4.6v1h10c0.6-3.2,0-4.3-2.6-5C350.6,612.3,349.6,612,348.8,612z M1494.8,617.2
			c-0.1,0-0.3,0.2-0.5,0.4h0.9C1495,617.3,1494.9,617.2,1494.8,617.2z M1425.9,617.5C1425.9,617.5,1425.9,617.6,1425.9,617.5
			L1425.9,617.5C1426,617.6,1426,617.5,1425.9,617.5L1425.9,617.5z"/>
	</g>
</g>
</svg>
