<svg xmlns="http://www.w3.org/2000/svg" width="588.003" height="312.667" viewBox="0 0 588.003 312.667">
  <g id="g16948" transform="translate(-105.9 -5823.486)">
    <path id="path16952" d="M117.723,6133.412c0-7.267,5.693-21.532,13.264-33.236l4.54-7.018L134,6086.44c-3.119-13.714-1.724-24.078,5.156-38.286,2.488-5.137,4.484-9.893,4.437-10.569a1.122,1.122,0,0,1,1.116-1.23c.661,0,2.82-2.349,4.8-5.221,3.317-4.816,16.033-17.756,24.339-24.767,5.208-4.4,18.273-13.274,19.536-13.274.606,0,2.078,1.655,3.272,3.679l2.171,3.679.63-2.942c.566-2.646.641-2.525.745,1.21a29.143,29.143,0,0,0,2.538,9.341c3.411,7.307,7.175,21,8.351,30.384,1.051,8.38.842,9.71-1.524,9.71-2.8,0-6.5,3.343-9.422,8.514a18.95,18.95,0,0,1-6.784,7.378c-2.109,1.186-3.634,2.359-3.386,2.606s1.608-.309,3.024-1.236,2.809-1.453,3.1-1.166c.731.73-10.114,20.805-11.151,20.643-1.142-.178-4.464-11.267-3.852-12.86a.865.865,0,0,0-.855-1.264,2.434,2.434,0,0,1-1.95-1.6c-.453-1.181-1.373-1.443-3.547-1.008-3.409.682-3.447.524-1.349-5.633.872-2.559,1.381-4.858,1.131-5.107s-1.432,2.839-2.627,6.863c-2.982,10.047-4.344,10.944-6.548,4.311-2.1-6.33-9.218-22.351-9.25-20.828a47.909,47.909,0,0,0,3.058,7.866c5.044,11.083,7.631,19.493,6.577,21.376a67.361,67.361,0,0,0-2.824,7.169l-1.9,5.509,2.557,8.483c2.08,6.9,2.651,11.191,3.06,22.985l.5,14.5-10.692-.03c-9.725-.03-10.514-.165-8.725-1.506,5.535-4.151,13.261-10.842,13.267-11.491,0-1.567-1.709-.507-8.351,5.14-7.366,6.263-10.953,8.57-11.883,7.64-.32-.318-.064-3.158.565-6.311,2.552-12.782,2.231-12.27,11.3-18.07,4.6-2.944,8.372-5.918,8.372-6.608s-3.34,1.02-7.421,3.8-7.656,4.822-7.943,4.534.278-3.071,1.262-6.186c1.5-4.747,2.543-6.207,6.468-9.028,2.576-1.85,4.684-3.765,4.684-4.255,0-1.438-1-1.05-4.161,1.607-1.633,1.374-3.116,2.351-3.3,2.171s.3-2.963,1.072-6.185c1.579-6.616,1.891-13.233.623-13.233-.465,0-1.109,2.323-1.43,5.162a65.061,65.061,0,0,1-1.751,9.1l-1.167,3.933-.979-2.95c-1.206-3.632-1.33-3.782-2.521-3.046-.6.368-.364,2.446.61,5.493,1.466,4.585,1.449,5.269-.256,10.569l-1.824,5.666-3.03-6.634c-1.666-3.649-3.362-6.636-3.768-6.637-1.508,0-.641,3.195,2.694,9.943l3.431,6.942-1.52,6.551c-3.166,13.641-2.592,13.241-5.76,4.019-4.531-13.195-4.491-13.108-5.518-12.082-.608.608.285,4.612,2.495,11.169,1.893,5.622,3.442,10.356,3.442,10.52,0,.785-3.667.172-4.608-.77-.771-.77-1.254-.77-1.73,0-1.1,1.783-4.215,1.2-4.762-.9-.282-1.081-1.05-1.966-1.7-1.966-.706,0-.981.8-.676,1.966.41,1.564.038,1.967-1.851,1.967-1.811,0-2.367-.529-2.367-2.252ZM136.9,6116a2.109,2.109,0,0,0-1.533-.983.958.958,0,0,0-.926.983c0,.541.69.983,1.534.983S137.23,6116.539,136.9,6116Zm2.458-2.95a.983.983,0,1,0-.983.984A.986.986,0,0,0,139.354,6113.048Zm-2.95-1.966a.984.984,0,1,0-.983.983A.985.985,0,0,0,136.4,6111.082Zm11.8-24.581a.984.984,0,1,0-.983.983A.985.985,0,0,0,148.2,6086.5Zm.44-4.017a1.1,1.1,0,1,0-.357,1.507A1.1,1.1,0,0,0,148.643,6082.484Zm.435-11.606c-.606-1.737-1.274-2.987-1.484-2.777s.115,1.8.719,3.542,1.273,2.987,1.483,2.777S149.685,6072.616,149.078,6070.878Zm39.438-3.6c0-.27-1.327.2-2.949,1.034s-2.95,1.746-2.95,2.017,1.327-.2,2.95-1.034,2.949-1.746,2.949-2.017Zm-1.454-23.515c5.132-2.686,10.546-5.942,12.03-7.235,2.427-2.115,2.451-2.193.241-.781-5.24,3.349-20.211,11.4-21.229,11.41-.591.007-1.586,1.726-2.213,3.816-1.58,5.276-1.285,6.38.429,1.607,1.276-3.552,2.318-4.407,10.744-8.817Zm-6.907-3.228c.887-3.109,2.116-7.385,2.732-9.5.863-2.963,2.884-5.339,8.78-10.324,4.212-3.562,7.66-6.845,7.662-7.3s-2.874,1.7-6.389,4.79c-7.03,6.172-8.836,6.2-9.649.134-.231-1.716-.249-.773-.041,2.1.264,3.649-.384,7.786-2.158,13.765-3.72,12.538-3.345,11.687-4.414,10-.768-1.215-.917-1.171-.93.273a1.582,1.582,0,0,0,1.39,1.721c.868,0,2.021-2.16,3.016-5.654Zm-4.967-2.649c-.372-1.973-.87-3.391-1.11-3.151s-.134,2.051.234,4.025.87,3.391,1.11,3.15S175.555,6039.858,175.188,6037.885Zm-1.753-7.675c-.271-.676-.5-.123-.5,1.229s.223,1.905.5,1.229a3.817,3.817,0,0,0,0-2.458Zm-1.241-6.539c-.361-2.253-.861-3.89-1.113-3.638s-.149,2.287.23,4.524.879,3.873,1.113,3.638.134-2.27-.226-4.524Zm18.2-15.338c-.082-1.489-4.729,10.594-4.729,12.29,0,.812,1.076-1.4,2.391-4.916A47.118,47.118,0,0,0,190.4,6008.333Zm-8.07-1.721c-.234-1.216-.426-.221-.426,2.213s.193,3.429.426,2.212a14.035,14.035,0,0,0,0-4.425Zm10.493-6.443c.783-3.356,1.077-5.889.655-5.628s-1.047,2.144-1.389,4.184-.906,4.815-1.257,6.167-.368,2.215-.037,1.919,1.242-3.285,2.025-6.642Zm4.791,134.294c-4.221-2.035-2.436-4.315,2.949-3.768.947.1,1.722-.295,1.722-.87,0-.68,4.139-1.045,11.854-1.045,13.732,0,19.884-1.247,22.49-4.559,3.822-4.86.928-7.96-11.244-12.043-13.522-4.536-12.711-5.891,7.38-12.337a127.474,127.474,0,0,0,16.418-6.4l5.112-2.767.371,4.057c.346,3.775.383,3.7.543-1.048.093-2.807.614-5.377,1.155-5.711,1.811-1.12,1.008-5.479-1.425-7.734-2.375-2.2-2.384-2.273-.649-5.115,2.421-3.965,9.472-10.163,13.458-11.828a21.337,21.337,0,0,1,13.761-.368c1.462.556,2.808.86,2.991.677s1.43-4.117,2.77-8.742c3.968-13.694,8.447-24.278,18.135-42.849l4.233-8.115,3.106,2.209c9.244,6.575,23.21,21.84,32.954,36.019l4.983,7.25.323-9.708.324-9.707.2,10.6c.2,10.3.331,10.864,4.51,19.665a150.809,150.809,0,0,1,6.029,14.468,33.516,33.516,0,0,0,2.7,6.637c.535.676.734,1.229.441,1.229s-.1,1.566.427,3.479c.855,3.092.665,3.828-1.707,6.637-4.075,4.827-7.257,12.442-7.275,17.415a14.122,14.122,0,0,1-1.96,7.374c-1.818,2.759-2.348,2.951-8.178,2.969-4.331.015-7.061.562-8.947,1.8-3,1.967-5.5,7.008-5.5,11.1,0,4.841-1.459,1.292-2.479-6.027l-1-7.211,6.185-8.688c10.875-15.275,11.688-16.469,14.443-21.224,1.489-2.568,2.486-4.67,2.215-4.67s-1.614,1.915-2.986,4.255c-1.951,3.329-17.257,25.232-18.957,27.127-.864.963-1.756-1.316-2.949-7.537l-1.274-6.638.533,5.9c.293,3.245,1.17,6.9,1.95,8.112,2.821,4.4-.6,2.075-5.7-3.878-4.764-5.558-19.013-21.087-23.733-25.865-1.8-1.822-1.794-1.75.089.983a57.375,57.375,0,0,0,6.144,6.883c2.261,2.163,7.483,7.915,11.6,12.782s8.37,9.566,9.441,10.442c1.419,1.16,2.241,3.7,3.023,9.341l1.074,7.747-5.43.3-5.43.3-8.622-8.763c-4.742-4.819-8.622-8.486-8.622-8.147s3.532,4.268,7.849,8.733l7.849,8.118-14.425-.272-14.425-.272-.961-3.442q-.963-3.444-1.363-1.72c-.591,2.54-1.34,2.193-6.438-2.984l-4.634-4.7v-8.078c0-4.73-.407-8.078-.983-8.078-.558,0-.984,2.847-.984,6.575v6.575l-2.95-2.826c-2.321-2.224-2.952-3.677-2.965-6.821a13.326,13.326,0,0,0-.968-5.47c-1.062-1.643-1.278-.9-1.008,3.442l.182,2.949-4.783-4.67c-5.1-4.977-6.607-5.6-7.561-3.115-.892,2.325-.692,3.067.375,1.394.777-1.218,1.664-.754,5.09,2.662,3.23,3.219,3.671,4.011,1.993,3.572-1.513-.4-2.155-.123-2.155.917,0,.9,1.29,1.722,3.294,2.1a12.342,12.342,0,0,1,6.042,3.7l2.749,3.085-5.612-.579c-4.025-.416-5.5-.258-5.232.558.481,1.443,4.032,2.442,9.12,2.568,3.4.084,4.66.8,8.762,4.964,5.22,5.3,5.314,5.253-4.813,2.4-2.847-.8-5.226-1.008-5.739-.5-1.227,1.227.1,1.866,8.352,4.029l7.166,1.877-8.521.054c-5.94.038-8.672-.318-9.018-1.174-.4-.984-.511-.984-.573,0-.053.847-2.039,1.229-6.4,1.229-5.775,0-6.359-.192-6.748-2.213l-.427-2.212-.134,2.212c-.111,1.855-.7,2.213-3.633,2.213-2.083,0-3.253-.4-2.891-.984.334-.54.137-.983-.434-.983a1,1,0,0,0-1.041.953c0,.568-5.267.95-13.021.946-12.964-.008-13.031-.019-15.205-2.674-1.2-1.466-2.2-2.139-2.22-1.5a2.191,2.191,0,0,0,.949,1.779,2.11,2.11,0,0,1,.983,1.532c0,1.273-13.737,1.044-16.469-.274Zm74.315-8.474c-.685-.9-1.306-1.754-1.382-1.9-.346-.675-3.369,1.08-3.369,1.954,0,.541.627.743,1.393.449a1.543,1.543,0,0,1,1.96.94c.312.811,1.033,1.186,1.6.833.707-.436.641-1.162-.208-2.274Zm-24.415-.533c0-.8-7.041-5.694-7.516-5.22-.275.277,1.182,1.649,3.243,3.049,3.826,2.6,4.273,2.827,4.273,2.171Zm23.176-14.374c0-1.082-.349-1.967-.773-1.967s-.772.885-.772,1.967.349,1.966.772,1.966S270.687,6112.164,270.687,6111.082Zm-33.029-5.228c.66-2.064.967-3.986.681-4.271s-.944.961-1.466,2.77-1.283,4.172-1.691,5.254c-.505,1.337-.42,1.652.268.983a16.01,16.01,0,0,0,2.209-4.736Zm20.668,2.7a5.719,5.719,0,0,0-1.522-2.084c-1.894-1.894-3.147-.9-1.447,1.147,1.227,1.479,2.969,2.028,2.969.937Zm-9.771-5.414c-4.4-3.693-5.171-2.915-.893.908,1.809,1.616,3.51,2.711,3.781,2.432S250.414,6104.7,248.555,6103.14Zm75.2-13.411-1.606-9.422,2.81-3.54c5.87-7.393,15.923-23.7,14.613-23.7-.26,0-1.912,2.544-3.674,5.653-3.824,6.752-13.359,19.911-14.427,19.911-.416,0-.665-1.88-.552-4.179.2-4.02.179-4.047-.476-.737l-.682,3.441-7.743-11.8c-12.2-18.587-13.845-20.979-14.2-20.636-.182.178,5.044,8.414,11.614,18.3l11.945,17.981,1.659,10.751c.913,5.913,1.808,9.995,1.991,9.071s-.392-5.921-1.275-11.1Zm-59.014,1.1c-1.419-4.715-3.261-7.639-2.108-3.345.365,1.352.927,3.675,1.252,5.162s.957,2.7,1.4,2.7.2-2.035-.548-4.522Zm12.118-2.509c1.411-6.109.736-7.636-.82-1.857-.607,2.252-1.347,4.73-1.645,5.507s-.13,1.414.377,1.414,1.446-2.279,2.088-5.064Zm-4.5-12.344a17.646,17.646,0,0,0-4.916-.015c-1.495.226-.506.417,2.2.424s3.927-.177,2.718-.411Zm8.589-5.7c-2.292-2.441-3.933-3.151-3.933-1.7,0,.675,4.782,4.069,5.826,4.134.23.015-.622-1.08-1.893-2.432Zm38.8-6.845c-.381-3.044-.9-5.331-1.145-5.082s-.142,2.945.237,5.99.9,5.331,1.146,5.081S320.12,6066.477,319.741,6063.432Zm1.8-22.556c1.482-3.192,2.531-5.967,2.33-6.168s-1.753,2.743-3.451,6.541c-2.926,6.544-4.983,9.335-3.548,4.815.432-1.362.3-1.865-.382-1.443-1.254.774-2.674-1.329-7.9-11.708-2.18-4.326-3.982-7.49-4.005-7.031-.055,1.156,8.622,18.244,10.89,21.44a13.928,13.928,0,0,1,2,6.391c.119,3.14.249,2.864.761-1.627a44.091,44.091,0,0,1,3.311-11.211Zm-5.487-2.789c-.234-1.223-.437-.454-.448,1.709s.182,3.164.428,2.224a11.107,11.107,0,0,0,.037-3.933Zm-2.117-16.738c-.866-5.472-1.846-10.2-2.178-10.5s-.346.777-.037,2.4,1.149,7.375,1.855,12.783,1.428,8.805,1.606,7.55-.385-6.76-1.253-12.232Zm12.222,7.713c.037-2.515-.543-1.73-1.351,1.885-.483,2.154-.391,2.552.338,1.475a7.157,7.157,0,0,0,1.012-3.36Zm-15.045-21.406c-.312-.784-.547-.551-.594.6-.045,1.036.189,1.617.516,1.29a1.979,1.979,0,0,0,.078-1.885ZM388.15,6133.3c-1.961-5.157-2.047-7.876-.1-3.1,1.09,2.672,1.784,5.056,1.542,5.3s-.891-.747-1.443-2.2Zm12.845-1.174c-.694-1.92-1.045-3.708-.778-3.974s1.014,1.124,1.663,3.089c1.537,4.656.76,5.433-.885.885Zm9.488,1.51c1.217-1.387,2.213-3.126,2.213-3.864,0-1.67-5.2-12.788-5.976-12.788-.312,0-1.606,2.211-2.872,4.913s-2.472,4.743-2.681,4.534.774-2.752,2.185-5.651l2.566-5.271-5.3-4.971c-5.573-5.226-12.5-9.842-12.5-8.328a2.083,2.083,0,0,0,.983,1.5,2.832,2.832,0,0,1,.944,2.27c-.037,1.12-.522.773-1.518-1.065-3.716-6.85,2.8-4.08,13.129,5.58,6.142,5.744,12.026,15.077,12.026,19.071,0,1-1.216,2.9-2.7,4.207l-2.7,2.384Zm14.207.555a17.691,17.691,0,0,1,.788-4.425c.623-1.946.787-2.048.787-.491a17.729,17.729,0,0,1-.787,4.424c-.624,1.947-.788,2.049-.788.492Zm66.394-.439c-.4-1.523.833-2.71,6.031-5.815,6.169-3.687,6.639-3.814,8.5-2.292,1.082.886,1.414.981.738.212a4.938,4.938,0,0,1-1.23-2.1c0-.384,3.208-3.131,7.129-6.1,13.942-10.568,18.939-17.429,15.981-21.943-.837-1.279-2.066-2.374-2.73-2.434a15.524,15.524,0,0,0-9.179,2.039l-3.056,1.772,2.362-4.555c2.908-5.607,7.469-9.963,10.431-9.963,2.728,0,5.567,1.87,12.189,8.033,2.806,2.612,5.461,4.747,5.9,4.745s1.6-1.969,2.593-4.372a39.628,39.628,0,0,1,5.861-8.987c10.257-11.652,23.281-10.8,29.646,1.941,2.618,5.239,2.9,6.74,2.95,15.894l.059,10.109,7.374-.141c13.643-.259,19.665,5.62,19.665,19.2v6.675H592.7c-17.833,0-19.633-.155-20.042-1.721-.42-1.607-.457-1.609-.564-.022-.1,1.568-2.295,1.7-28.295,1.709-19.232.008-28.6-.336-29.5-1.082-.967-.8-1.317-.8-1.317.011,0,.748-3.444,1.1-10.7,1.1-9.775,0-10.744-.166-11.2-1.914Zm11.824-.731a8.08,8.08,0,0,0-3.441,0c-.947.248-.171.45,1.72.45S503.854,6133.266,502.908,6133.018Zm55.925-6.9c-.5-.5-3.569,4.939-3.563,6.3,0,.433.911-.7,2.02-2.52s1.8-3.519,1.543-3.778Zm26.746.693c0-.9-.3-.713-.816.492a11.5,11.5,0,0,0-.816,3.933c.037,1.581.182,1.484.816-.492A17.822,17.822,0,0,0,585.579,6126.813Zm-55.1-.245c.632-1.487.79-2.7.353-2.7s-1.294,1.616-1.9,3.592c-1.208,3.936-.275,3.4,1.548-.888Zm72.451.294c2.126-4.111,1.848-5.019-.467-1.523a14.331,14.331,0,0,0-1.959,3.687c0,1.524.975.642,2.426-2.164Zm-82.617,1a9.876,9.876,0,0,0-3.883-1.484c-2.761-.533-2.729-.479.491.839,4.232,1.733,4.57,1.8,3.393.645Zm20.428-1.056c-4.174-2.545-5.541-2.542-1.7,0a12.727,12.727,0,0,0,3.933,1.957c.541,0-.465-.881-2.236-1.96Zm31.316-4.577,2.384-2.614-3.2,2.308c-3.324,2.4-3.748,2.92-2.383,2.92C569.306,6124.847,570.744,6123.671,572.055,6122.233ZM554.115,6116c0-.9-.3-.713-.816.491a11.509,11.509,0,0,0-.816,3.933c.037,1.581.182,1.485.816-.491A17.788,17.788,0,0,0,554.115,6116Zm37.531,1.966c-2.38-1.861-3.933-2.456-3.933-1.506,0,.475,5.024,3.381,5.9,3.412.272.011-.614-.848-1.966-1.906Zm-68.827-.983c-3.362-1.077-5.947-1.077-3.442,0a11.509,11.509,0,0,0,3.933.816C524.891,6117.775,524.795,6117.614,522.819,6116.981Zm77.365-1.168c-.312-.784-.547-.551-.6.594-.04,1.037.19,1.618.517,1.291a1.982,1.982,0,0,0,.078-1.885Zm-65.228-3.011c.841-2.028,1.156-3.687.7-3.687s-1.094,1.065-1.421,2.367-.887,3.182-1.246,4.179c-1.148,3.188.381.964,1.966-2.859Zm28.705.492a10.119,10.119,0,0,0-1.564-3.621c-.5-.513-.471.569.07,2.451.532,1.853.967,3.483.967,3.621s.267.253.6.253S564.029,6114.781,563.661,6113.294Zm-18.709-3.186c-1.549-1.616-3.053-2.7-3.341-2.414-.468.468,4.661,5.231,5.728,5.318.237.019-.838-1.287-2.387-2.9Zm35.879-1.364c0-.5-.885-.116-1.967.863a6.21,6.21,0,0,0-1.966,2.6c0,.451.885.063,1.966-.863A5.648,5.648,0,0,0,580.831,6108.744Zm-29.56-7.249c-.056-3.2-.179-3.4-.953-1.474-.79,1.967-.4,5.161.628,5.161.212,0,.357-1.659.324-3.687Zm-16.363-.983c.719-3.743.145-3.9-1.109-.3-.575,1.649-.677,3-.227,3s1.052-1.216,1.337-2.7Zm23.32-3.655c-1.545-4.064-2.11-2.535-.728,1.968.652,2.127,1.32,3.175,1.483,2.331A10.315,10.315,0,0,0,558.228,6096.857Zm11.355-1.063c1.177-4.639.932-5.869-.432-2.165-1.421,3.857-2.276,8.137-1.463,7.325a18.426,18.426,0,0,0,1.9-5.161Zm9.557.39c2.559-4.481,1.472-4.419-1.477.085-1.388,2.12-2.018,3.659-1.4,3.419s1.913-1.816,2.876-3.5Zm-52.88-6.734c-.368-1.163-.892-1.893-1.162-1.623s-.19,1.443.178,2.606.892,1.894,1.163,1.623S526.628,6090.613,526.26,6089.45Zm39.821-2.95a9.387,9.387,0,0,0-4.424-.852l-2.95.1,2.95.75a33.655,33.655,0,0,0,4.424.852C567.392,6087.442,567.392,6087.349,566.081,6086.5Zm8.361-3.927a8.091,8.091,0,0,0-2.762-2.022c-2.044-.99-2.035-.938.164.978,2.505,2.182,3.564,2.608,2.6,1.044Zm-141.1,51.368c0-1.462,3.74-10.077,4.374-10.077.5,0-3.166,9.933-3.966,10.733-.227.226-.409-.069-.409-.656Zm9.3-.982a37.624,37.624,0,0,0,1.228-6.42c.309-2.585.989-4.963,1.511-5.285.585-.362.688.684.271,2.732-1.3,6.357-2.562,10.693-3.117,10.693-.309,0-.26-.774.108-1.72Zm-14.144-1.8c.048-1.145.278-1.378.594-.594a1.983,1.983,0,0,1-.078,1.885c-.327.326-.559-.255-.517-1.291Zm-36.369-5.948c-4.16-1.9-5.49-2.151-6.1-1.161-.526.851-.731.58-.625-.825s.633-1.91,1.6-1.539c3.429,1.316,10.94,5.177,10.94,5.624C397.947,6127.909,398.47,6128.1,392.136,6125.208Zm35.422.968c-.1-1.84,9.925-16.078,11.321-16.078.278,0-.4,1.154-1.51,2.564-1.513,1.923-1.776,3.011-1.055,4.359a7.691,7.691,0,0,1,.918,3.091c-.037.711-.583.033-1.24-1.5l-1.2-2.8-3.066,4.274a27.84,27.84,0,0,0-3.563,6.24c-.468,1.856-.5,1.848-.609-.146Zm56.949-2.248c-1.352-2.526-1.294-3.683.115-2.274,1.844,1.844,4.992-.377,4.27-3.012-.556-2.03-.508-2.051.845-.368,1.239,1.54,1.725,1.608,3.535.492a2.9,2.9,0,0,0,1.642-3.071c-.36-1.4-.174-1.543.875-.671,1.864,1.546,6.467-1.48,5.736-3.771-.406-1.274-.308-1.345.427-.314.788,1.1,1.407,1.035,3.584-.391,1.549-1.015,2.411-2.3,2.1-3.118-.386-1.006,0-1.229,1.339-.8,2.472.785,7.77-2.464,7.173-4.4-.368-1.189-.2-1.237.845-.248s1.832.718,4.056-1.413c1.516-1.452,2.756-2.125,2.756-1.495s-1.118,1.876-2.484,2.771c-1.787,1.172-2.333,2.211-1.947,3.71.475,1.842.4,1.893-.656.442-1.1-1.515-1.479-1.477-4.936.492-2.175,1.239-3.542,2.668-3.263,3.412s.037,1-.585.622c-1.8-1.111-5.976,1.725-5.457,3.705.5,1.915-.914,2.5-1.535.633-.256-.774-1.226-.578-3.049.616-2.1,1.376-2.431,2.039-1.55,3.1.723.87.757,1.35.1,1.35a1.659,1.659,0,0,1-1.4-1.134c-.26-.778-1.191-.6-2.972.566-1.676,1.1-2.408,2.283-2.069,3.346.433,1.357.349,1.4-.48.228s-1.482-1.2-3.59-.242c-1.421.648-2.312,1.618-1.979,2.157s.373.979.09.979-.974-.856-1.533-1.9Zm-88.376-3.165c-2.823-5.29-2.163-5.951.756-.757,1.233,2.193,2.055,4.174,1.826,4.4S397.323,6123,396.131,6120.763Zm63.4,1.871c-.986-3.679-.7-5.411.994-6.062,1.341-.515,1.407-.369.389.857-.914,1.1-.962,2.233-.19,4.447.57,1.634.668,2.971.219,2.971s-1.084-1-1.41-2.213Zm-20.2-.112a24.187,24.187,0,0,1,2.868-1.529c2.317-1.1,2.349-1.084.549.358-1.566,1.255-4.766,2.352-3.417,1.171Zm-85.624-1.181c0-1.2,2.081-4.36,2.869-4.36.459,0,1.046,1.106,1.3,2.458.393,2.061.093,2.458-1.852,2.458-1.278,0-2.322-.25-2.322-.556Zm112.627-2.482c.864-1.672,1.341-3.64,1.059-4.375-.331-.863,0-1.142.912-.789.783.3,1.424.141,1.424-.354a7.005,7.005,0,0,1,1.523-2.809c1.382-1.733,1.387-1.628.056,1.131s-1.309,3.219.2,4.91c.915,1.027,1.023,1.319.237.647-2.081-1.784-2.625-1.548-3.982,1.727-.672,1.623-1.622,2.95-2.111,2.95s-.182-1.367.682-3.038Zm-81.9-2.37c0-2.163.212-2.932.447-1.709a10.346,10.346,0,0,1-.037,3.933c-.245.94-.438-.06-.428-2.223Zm54.9.492a8.21,8.21,0,0,1,.9-3.933c.787-1.217.944-1.131.9.492a13.085,13.085,0,0,1-.9,3.933C439.452,6119.273,439.376,6119.232,439.327,6116.981Zm4.979-.123c-.082-1.42-.368-4.074-.635-5.9l-.489-3.319,1.035,3.3a15.859,15.859,0,0,1,.636,5.9l-.4,2.6Zm-55.483-3.234c-1.924-1.306-3.756-2.117-4.07-1.8s-.49-2.267-.39-5.737c.178-6.193.19-6.215.542-1.179.309,4.378.793,5.44,3.316,7.236,3.344,2.381,4.493,2.023,2.922-.91-1.409-2.635-1.315-4.129.108-1.678,1.008,1.736,1.986,6.445,1.34,6.445a36.173,36.173,0,0,1-3.767-2.374Zm89.369-.756a.967.967,0,0,1,1.32-.339c1.19.736,3.485-2.421,3.485-4.794,0-1.531.632-2.073,2.459-2.106,1.631-.03,2.348-.525,2.13-1.475-.178-.786,0-1.094.419-.683s1.885-.242,3.277-1.45-.481.926-4.162,4.743-7.313,6.94-8.069,6.94-1.142-.376-.858-.835Zm7.127-5.064c.813-.979.761-1.311-.208-1.311a1.308,1.308,0,0,0-1.3,1.311c0,.721.093,1.311.208,1.311A6.147,6.147,0,0,0,485.319,6107.8Zm-12.387-.039c-1.751-1.15-3.189-2.477-3.2-2.949s.651-.307,1.462.366c1.178.977,1.777.973,2.972-.019,1.262-1.046,1.394-.972.84.471a2.049,2.049,0,0,0,.687,2.544c.739.456,1.135,1.021.881,1.254s-1.9-.517-3.646-1.667Zm-32.706-.037a5.446,5.446,0,0,1,1.474-1.564c.851-.706,1.475-.8,1.475-.226,0,.549-.663,1.253-1.475,1.564S440.226,6107.915,440.226,6107.728Zm14.863-.827c-.063-.946-.48-1.721-.928-1.721s-.617-1.327-.379-2.949c.375-2.556.122-2.959-1.891-3.013l-2.324-.062,2.212-.889c2.8-1.125,3.164-6.459.492-7.158-1.639-.428-1.639-.455,0-.563,1.245-.083,1.721-.959,1.721-3.169,0-2.312-.361-2.917-1.475-2.489-.811.311-1.475.137-1.475-.387s.663-.952,1.475-.952c2.2,0,1.972-5.625-.245-6.2-1.639-.428-1.639-.455,0-.564,1.23-.081,1.72-.953,1.72-3.063,0-2.148-.467-2.954-1.72-2.965-1.377-.011-1.447-.189-.35-.884.942-.6,1.191-1.9.793-4.164-.568-3.225.267-2.023,1.68,2.421.312.981,1.012,1.508,1.556,1.171s.991-.143.991.43a1.017,1.017,0,0,1-.984,1.041c-.541,0-.983,1.353-.983,3.008,0,1.755.409,2.755.983,2.4.541-.334.984-.139.984.433a1.017,1.017,0,0,1-.984,1.042c-1.43,0-1.207,5.645.246,6.231.983.4.983.512,0,.574-1.966.124-1.525,5.756.491,6.283,1.639.428,1.639.455,0,.563-1.22.081-1.72.95-1.72,2.992,0,1.914.576,3.028,1.72,3.327,1.585.414,1.58.459-.066.564-1.348.086-1.71.777-1.475,2.818.175,1.521.849,2.6,1.54,2.458.676-.135,1.229.2,1.229.737a.953.953,0,0,1-.911.984c-.5,0-1.114.774-1.361,1.72-.429,1.639-.455,1.639-.564,0Zm8.981.508c-.75-.26-1.177-2.023-1.1-4.523.089-2.674.29-3.257.587-1.677a6.406,6.406,0,0,0,1.814,3.441c1.572,1.18.524,3.393-1.306,2.759Zm-47.522-1.6c1.309-1.612,5-4.05,5-3.3a17.5,17.5,0,0,1-3.2,2.68c-1.977,1.448-2.664,1.685-1.8.623Zm59.97-4.184c.551-1.145.723-2.362.382-2.7s-.142-.621.445-.621,2.032-1.561,3.212-3.469c1.832-2.964,1.95-3.707.817-5.1-1.153-1.418-1.1-1.547.393-.987,2.292.86,5.535-3.739,3.835-5.439-1.635-1.635-1.391-3.16.286-1.77,2.029,1.684,5.208-4.285,3.425-6.434-.96-1.158-.894-1.315.353-.836,1.791.687,4.1-2.879,3.271-5.047-.305-.8.056-1.4.841-1.4.758,0,1.67-.918,2.026-2.041s.864-1.823,1.13-1.559-.038,1.441-.66,2.613c-.945,1.766-.832,2.362.658,3.477,1.684,1.259,1.659,1.31-.386.795-2.859-.72-5.507,4.069-3.167,5.727,1.152.817,1.1.9-.294.455-2.4-.773-5.337,4.778-3.617,6.85.961,1.158.893,1.315-.365.832-2.188-.839-5.031,4.631-3.35,6.447.936,1.013.839,1.155-.478.694-2.492-.874-6.341,5.949-4.773,8.461,1,1.6.92,1.7-.6.854-1.291-.723-2.082-.553-3.064.655-1.167,1.435-1.2,1.381-.323-.455Zm-11.711-.866c0-.811.443-1.475.984-1.475s.983.664.983,1.475-.442,1.475-.983,1.475S464.807,6101.567,464.807,6100.756Zm3.505-.78c.368-.97.919-1.515,1.222-1.213s0,1.1-.671,1.763c-.971.964-1.084.851-.55-.55Zm-83.147-.7c-.886-.573-1.008-.959-.305-.968a2.289,2.289,0,0,1,1.779.968c.755,1.221.414,1.221-1.475,0Zm45.045-.672a1.976,1.976,0,0,1,1.884.078c.327.327-.252.559-1.29.516C429.658,6099.156,429.425,6098.923,430.21,6098.609Zm10.815,0a1.978,1.978,0,0,1,1.885.078c.327.327-.253.559-1.29.516C440.474,6099.156,440.241,6098.923,441.025,6098.609Zm5.329-2.278c0-1.893.2-2.667.45-1.72a8.018,8.018,0,0,1,0,3.441C446.558,6099,446.354,6098.224,446.354,6096.331Zm-10.245,1.295a1.977,1.977,0,0,1,1.885.078c.327.326-.253.559-1.291.516C435.558,6098.173,435.325,6097.94,436.109,6097.626Zm30.174-1.295c-.368-1.163-.45-2.336-.179-2.606s.794.46,1.163,1.623.45,2.336.178,2.606S466.651,6097.494,466.283,6096.331Zm-63.494-3.687-2.384-2.7,2.7,2.384c2.527,2.228,3.155,3.024,2.383,3.024A17.176,17.176,0,0,1,402.789,6092.644Zm97.143-.287c2.6-2.956,5.547-3.407,7.335-1.121,1.163,1.485,1.119,1.516-.426.305-1.38-1.083-2.013-1.108-3.2-.126-.811.673-1.475.88-1.475.459s-1,.076-2.212,1.1l-2.213,1.866Zm-32.5-.614a2.707,2.707,0,0,1-.656-1.671c0-.616.458-.558,1.164.147.64.64.935,1.392.655,1.672A.845.845,0,0,1,467.43,6091.743Zm-5.3-6.227c0-2.434.193-3.429.426-2.213a14.032,14.032,0,0,1,0,4.425c-.234,1.217-.426.221-.426-2.212Zm-66.145,2.011a7.147,7.147,0,0,1,3.36-1.013c2.515-.019,1.73.543-1.885,1.351-2.154.482-2.552.391-1.474-.338Zm72.432.283a2.711,2.711,0,0,1-.655-1.671c0-.616.458-.558,1.163.147.641.64.935,1.392.655,1.672A.845.845,0,0,1,468.413,6087.81Zm35.061.008c.356-.356.1-1.352-.574-2.213-1.078-1.382-1.021-1.409.489-.225,1.539,1.206,1.559,3.084.037,3.084-.327,0-.3-.291.049-.646Zm-112.409-1.32c-1.194-.771-1.052-.956.737-.969,1.216-.007,2.212.428,2.212.969C394.014,6087.73,392.971,6087.73,391.065,6086.5Zm114.964.245c-.041-.405-.23-1.552-.418-2.548s-.071-1.538.264-1.2c.77.771,1.362,4.49.714,4.49-.267,0-.519-.332-.56-.738Zm4.172-.124c-1.058-.67-1.014-.945.23-1.422a1.578,1.578,0,0,0,.963-2.1c-.32-.828-.982-1.257-1.475-.953a1.174,1.174,0,0,0-.237,1.622c.389.63.2.785-.456.378-1.208-.747.536-4.531,2.089-4.531.443,0,.531.442.2.983s-.067.983.6.983.914.291.557.647-.133,1.266.495,2.022.734,1.3.238,1.2c-2.05-.39-2.775.153-1.4,1.044.811.524,1.033.953.492.953a5.411,5.411,0,0,1-2.295-.831Zm-138.8-7.943c0-4.618.409-7.91.983-7.91.557,0,.99,2.877,1,6.637v6.636l4.845-8.849c4.84-8.838,4.845-8.857,4.266-15.977-.679-8.361,1.2-10.165,2.266-2.169l.658,4.959,4.25-7.457c3.766-6.608,4.282-8.262,4.538-14.546.174-4.311.673-6.9,1.271-6.6.541.271.841,2.594.667,5.163s-.127,4.67.1,4.67,2.584-3.208,5.232-7.128c3.666-5.428,4.932-8.284,5.306-11.969.531-5.222,2.606-7.238,3.125-3.036.283,2.276.915,1.675,5.646-5.35s6.961-9.344,6.961-7.244c0,.368-2.139,3.8-4.754,7.62-6.928,10.13-6.8,9.807-3.654,9.018,4.26-1.069,2.565,1.649-1.79,2.871-3.024.848-4.56,2.366-8.953,8.84-2.917,4.3-5.147,7.972-4.957,8.163s2.443-.581,5.005-1.714,4.892-1.827,5.179-1.541c.87.87-1.074,2.108-6.232,3.968a36.546,36.546,0,0,0-6.115,2.683c-1.1.834-9.125,14.1-9.125,15.082,0,.234,1.752-.469,3.894-1.561a20.338,20.338,0,0,1,4.974-1.987c2.188,0-.312,2.087-5.851,4.883-5.274,2.662-5.991,3.451-9.811,10.794-2.266,4.357-3.839,7.921-3.494,7.921a56.3,56.3,0,0,0,6.933-3.526c3.468-1.939,6.305-3.066,6.305-2.5,0,1.537-10.89,7.608-15.043,8.388l-3.639.682Zm98,5.2a2.708,2.708,0,0,1-.655-1.671c0-.616.458-.558,1.163.147.641.64.935,1.393.656,1.672A.847.847,0,0,1,469.4,6083.875Zm.883-3.972c-.533-1.4-.42-1.514.551-.551.672.668.974,1.461.671,1.764s-.853-.244-1.222-1.213Zm-104.531-2.746c0-2.164.212-2.933.448-1.709a10.342,10.342,0,0,1-.038,3.933c-.245.94-.438-.061-.427-2.224ZM397.7,6077a3.792,3.792,0,0,1,2.458,0c.676.273.122.5-1.229.5S397.026,6077.27,397.7,6077Zm-6.3-2.832c-.319-.835-.364-1.737-.093-2.006s.725.414,1.013,1.517c.613,2.343-.067,2.705-.919.488Zm54.878-1.433c0-1.352.223-1.9.5-1.229a3.817,3.817,0,0,1,0,2.458c-.271.676-.5.123-.5-1.229Zm79.135.268c1.005-.735,1.717-1.538,1.581-1.785-.824-1.507.056-2.51,1.967-2.238a2.79,2.79,0,0,1,2.526,2.526c.338,2.383.335,2.386-4.6,2.654-3.008.163-3.139.06-1.475-1.157Zm4.777-1.251a1.935,1.935,0,0,0-1.229-1.721c-.731-.244-1.229.454-1.229,1.721s.5,1.964,1.229,1.721A1.937,1.937,0,0,0,530.194,6071.749Zm-69.164,0c0-1.352.224-1.9.5-1.229a3.817,3.817,0,0,1,0,2.458c-.271.676-.5.123-.5-1.229Zm-217.943-2.95a27.43,27.43,0,0,1,4.331-3.933c.272,0-1.236,1.77-3.348,3.933a27.339,27.339,0,0,1-4.333,3.933C239.466,6072.732,240.974,6070.962,243.087,6068.8Zm158.056.257a109.189,109.189,0,0,1,11.308,0c3.109.195.565.355-5.654.355s-8.763-.16-5.654-.355Zm18.436-.628a6.194,6.194,0,0,1,1.721-1.721c1.56-1.223,1.594-1.188.371.372-1.284,1.638-2.091,2.158-2.091,1.349Zm85.734-3.07c.037-1.623.241-2.167.49-1.211a5.612,5.612,0,0,1-.037,2.95c-.268.666-.474-.117-.453-1.739Zm-287.018-2.95c0-2.7.2-3.693.425-2.2a18.119,18.119,0,0,1,0,4.917c-.234,1.209-.418-.015-.411-2.718Zm270.111,2.15a24.6,24.6,0,0,1,3.2-3.2l3.2-2.888-2.888,3.195c-2.692,2.979-3.5,3.648-3.5,2.888Zm-113.073-1.331a6.521,6.521,0,0,0,2.287-1.7c.523-.695.669-.555.41.393a2.8,2.8,0,0,1-2.287,1.7C374.418,6063.78,374.3,6063.663,375.333,6063.227Zm-4.058-2.048c-1.224-1.559-1.189-1.594.371-.371,1.638,1.284,2.159,2.092,1.35,2.092a6.181,6.181,0,0,1-1.721-1.721Zm-144.412.366a6.177,6.177,0,0,1,1.721-1.72c1.559-1.223,1.594-1.189.371.371-1.284,1.638-2.091,2.158-2.091,1.349Zm193.574-1.349c-1.223-1.56-1.188-1.594.371-.371,1.638,1.284,2.159,2.091,1.35,2.091a6.169,6.169,0,0,1-1.721-1.72Zm-59.775-1.8c.048-1.145.278-1.378.594-.594a1.973,1.973,0,0,1-.078,1.885c-.328.327-.559-.254-.517-1.291Zm-129.866.2a6.2,6.2,0,0,1,1.72-1.72c1.56-1.223,1.595-1.189.372.371-1.284,1.638-2.092,2.159-2.092,1.349Zm176.716-.338a36.756,36.756,0,0,1,6.882-.008c2.04.213.612.391-3.173.4s-5.455-.17-3.709-.387Zm90.48-.925a3.794,3.794,0,0,1,2.459,0c.676.273.122.5-1.23.5S497.316,6057.6,497.992,6057.332Zm-138.314-2.872c.048-1.146.279-1.379.594-.594a1.97,1.97,0,0,1-.078,1.884c-.327.327-.559-.254-.517-1.29Zm17.777-.41c0-1.352.223-1.9.5-1.229a3.8,3.8,0,0,1,0,2.458c-.271.676-.5.123-.5-1.229Zm-141.743.612a6.182,6.182,0,0,1,1.721-1.72c1.559-1.224,1.594-1.189.371.371-1.284,1.638-2.092,2.158-2.092,1.349Zm16.667-3.29c-.271-2.284-.115-3.779.342-3.321s.679,2.327.49,4.154C252.877,6055.443,252.858,6055.423,252.379,6051.372Zm146.551,2.736a2.094,2.094,0,0,1,.972-1.526c.558-.344.722.05.387.925-.654,1.7-1.359,2.015-1.359.6Zm81.317-.713c.275-.721.63-1.311.784-1.311s.508.59.785,1.311-.075,1.311-.785,1.311S479.97,6054.116,480.247,6053.4Zm-69.272-4.984a72.015,72.015,0,0,1,9.341,0c2.568.2.467.369-4.67.369S408.407,6048.614,410.975,6048.411Zm67.676-.8a5.4,5.4,0,0,0-1.191-3.13c-1.594-1.593-.294-4.195,2.1-4.195,2.643,0,3.584,2.569,1.722,4.707a12.749,12.749,0,0,0-2.008,3.159c-.381,1.037-.565.876-.62-.541Zm1.889-4.375c0-1.093-.656-1.967-1.475-1.967-1.6,0-1.6,2.009,0,3.181C480.468,6045.479,480.54,6045.419,480.54,6043.235Zm9.073,3.488a7.364,7.364,0,0,0,2.046-2.824c1-2.655,4.121-1.658,4.121,1.315,0,2.171-.422,2.45-3.771,2.493-2.84.037-3.431-.207-2.4-.984Zm4.9-2.685c-1.5-1.5-2.61-.394-1.777,1.777.492,1.281.918,1.408,1.793.534s.871-1.425,0-2.312Zm-67.074,2.758a6.177,6.177,0,0,1,1.721-1.72c1.559-1.223,1.594-1.189.372.371-1.285,1.638-2.092,2.159-2.092,1.349Zm-52.034-2.169c.048-1.145.279-1.378.594-.594a1.98,1.98,0,0,1-.078,1.885c-.327.327-.559-.254-.516-1.291Zm-146.581-.819a1.562,1.562,0,0,1,1.557-1.557c1.736,0,1.434,2.117-.39,2.725-.642.214-1.167-.312-1.167-1.168ZM374.5,6039.3c0-1.352.223-1.906.5-1.23a3.8,3.8,0,0,1,0,2.458c-.271.676-.5.123-.5-1.229Zm6.8.409c.048-1.145.279-1.378.594-.594a1.98,1.98,0,0,1-.078,1.885c-.327.326-.559-.254-.516-1.291Zm-137.732-.9a1.475,1.475,0,1,1,1.475,1.475A1.48,1.48,0,0,1,243.577,6038.81Zm145.712-1.967c.037-1.622.241-2.167.49-1.21a5.612,5.612,0,0,1-.037,2.95c-.268.665-.473-.117-.453-1.74Zm-40.237-2.458c0-2.433.193-3.429.426-2.212a14.029,14.029,0,0,1,0,4.424c-.234,1.217-.426.222-.426-2.212Zm-125.589,1.051c-.727-1.176,1.123-2.342,2.432-1.533,1.1.68.378,2.449-1,2.449a1.968,1.968,0,0,1-1.433-.915Zm185.3.544a6.2,6.2,0,0,1,1.721-1.72c1.559-1.223,1.594-1.188.371.371-1.284,1.638-2.091,2.159-2.091,1.35ZM214.08,6034c0-.213.687-.65,1.526-.972.875-.336,1.269-.171.926.386-.578.935-2.451,1.382-2.451.586Zm22.615-3.956a1.561,1.561,0,0,1,1.557-1.557c.856,0,1.382.525,1.167,1.167C238.812,6031.477,236.7,6031.779,236.7,6030.043Zm20.648-.082c0-.9.476-1.48,1.057-1.286a1.311,1.311,0,0,1,0,2.572C257.819,6031.441,257.343,6030.862,257.343,6029.961Zm117.989-.207a4.326,4.326,0,0,1,1.721-2.377c1.592-1.248,1.613-1.2.279.617-.794,1.082-1.568,2.151-1.721,2.377s-.279-.053-.279-.618Zm46.028.026a1.982,1.982,0,0,1,1.885.077c.327.327-.253.559-1.291.517C420.809,6030.327,420.576,6030.094,421.36,6029.78Zm-32.923-7.686c0-3.786.182-5.214.395-3.174a37.642,37.642,0,0,1,0,6.883c-.219,1.745-.392.076-.387-3.71Zm-8.68,4.424c-.335-.54-.138-.983.433-.983a1.017,1.017,0,0,1,1.041.983c0,.541-.2.984-.433.984S380.091,6027.059,379.757,6026.518Zm-27.831-2.458c.037-1.622.241-2.167.49-1.21a5.6,5.6,0,0,1-.038,2.95c-.267.665-.473-.117-.453-1.74Zm82.4,2.087a6.183,6.183,0,0,1,1.721-1.72c1.559-1.223,1.594-1.189.372.371-1.285,1.638-2.092,2.158-2.092,1.349Zm-214.347-.983a6.18,6.18,0,0,1,1.721-1.721c1.559-1.223,1.594-1.188.371.372-1.284,1.637-2.091,2.158-2.091,1.349Zm28.514-2.087a1.475,1.475,0,1,1,1.475,1.475A1.48,1.48,0,0,1,248.493,6023.077Zm168.134-.4c0-.49.886-.66,1.967-.377s1.966.684,1.966.892-.885.376-1.966.376S416.627,6023.167,416.627,6022.677Zm-12.7-1.649c.048-1.145.278-1.378.594-.594a1.98,1.98,0,0,1-.078,1.885C404.112,6022.646,403.88,6022.065,403.923,6021.028Zm31.261-.164c-1.223-1.559-1.189-1.594.371-.371a6.174,6.174,0,0,1,1.721,1.721c0,.809-.807.288-2.092-1.35Zm-167.354.082c-1.131-1.131-.716-2.294.82-2.294a1.478,1.478,0,0,1,1.474,1.475c0,1.535-1.162,1.95-2.294.819Zm17.535-4.261a41.257,41.257,0,0,1,5.334-4.916c.271,0-1.688,2.212-4.351,4.916a41.378,41.378,0,0,1-5.334,4.917C280.743,6021.6,282.7,6019.389,285.365,6016.685Zm145.827,2.278a1.976,1.976,0,0,1,1.884.078c.327.327-.252.559-1.29.516C430.64,6019.51,430.408,6019.277,431.192,6018.963Zm-80.287-2.278c0-1.352.224-1.905.5-1.229a3.817,3.817,0,0,1,0,2.458c-.272.676-.5.123-.5-1.229Zm1.889.41c.048-1.146.279-1.379.6-.594a1.981,1.981,0,0,1-.078,1.884c-.328.327-.56-.254-.517-1.29Zm-144.127-.417c-.338-.544.1-1.263.968-1.6,1.883-.723,2.932.073,2.027,1.538a1.635,1.635,0,0,1-2.995.058Zm13.77-1.959a1.826,1.826,0,0,1,.271-2.138q.984-.984,1.7.171a1.826,1.826,0,0,1-.271,2.138Q223.15,6015.872,222.437,6014.719Zm36.38,0a1.826,1.826,0,0,1,.271-2.138q.984-.984,1.7.171a1.826,1.826,0,0,1-.271,2.138Q259.53,6015.872,258.817,6014.719Zm86.034-.984c-.579-1.081-.831-1.966-.561-1.966s.965.885,1.544,1.966.832,1.967.561,1.967S345.43,6014.817,344.851,6013.735Zm58.089-.573c.048-1.146.279-1.379.594-.594a1.979,1.979,0,0,1-.078,1.884c-.327.327-.559-.254-.516-1.29Zm6.8,1.17c0-.212.687-.65,1.526-.972.875-.336,1.27-.171.925.387-.577.934-2.451,1.382-2.451.585Zm-130.279-1.58c-.8-1.3.373-3.138,1.542-2.416,1.194.738,1.187,3.4,0,3.4a2.105,2.105,0,0,1-1.532-.983Zm72.345-1.557c.048-1.145.279-1.378.6-.594a1.983,1.983,0,0,1-.078,1.885c-.328.327-.56-.254-.517-1.291Zm-14.165-5.378c-4.647-7.054-6.565-13.205-6.547-21,0-7.138.815-10.625,2.324-10.137.608.2,2.6,3.265,4.417,6.818,2.913,5.68,3.36,7.572,3.705,15.661.451,10.6-.3,9.746-3.588-4.08-2.093-8.809-3.922-13.271-3.922-9.569,0,3.155,4.019,18.827,5.944,23.179a19.676,19.676,0,0,1,1.689,4.619c-.142.121-1.952-2.351-4.022-5.493Zm17.115,1.445c.048-1.145.278-1.378.594-.594a1.984,1.984,0,0,1-.078,1.885c-.327.326-.559-.254-.517-1.291Zm47.273-1.393c0-1.351.224-1.905.5-1.229a3.8,3.8,0,0,1,0,2.458c-.271.676-.5.123-.5-1.229Zm-129.943-.491a1.475,1.475,0,1,1,1.475,1.475A1.48,1.48,0,0,1,272.091,6005.378Zm135.765-1.065c.048-1.146.279-1.379.594-.594a1.971,1.971,0,0,1-.078,1.884c-.327.327-.559-.254-.516-1.29Zm-52.112-.984c.048-1.145.279-1.378.594-.594a1.981,1.981,0,0,1-.078,1.885c-.327.326-.559-.254-.516-1.291Zm-70.871-.983c0-1.736,2.117-1.434,2.725.389.215.642-.313,1.168-1.168,1.168A1.562,1.562,0,0,1,284.873,6002.346Zm-68.827-2.786A1.562,1.562,0,0,1,217.6,5998c1.736,0,1.433,2.117-.39,2.725-.642.214-1.168-.312-1.168-1.168Zm189.766.41c-.886-.573-1.008-.959-.305-.968a2.289,2.289,0,0,1,1.779.968c.754,1.221.414,1.221-1.475,0Zm-229.886-3.441c.037-1.623.241-2.168.49-1.211a5.612,5.612,0,0,1-.037,2.95c-.268.666-.474-.117-.453-1.739Zm254.624.491c0-1.352.223-1.9.5-1.229a3.817,3.817,0,0,1,0,2.458c-.271.676-.5.123-.5-1.229Zm-271.656-.737c-1.223-1.56-1.188-1.6.372-.372,1.638,1.285,2.159,2.092,1.349,2.092a6.187,6.187,0,0,1-1.72-1.72Zm72.394.737c-.8-1.3.374-3.138,1.542-2.416,1.195.738,1.187,3.4,0,3.4a2.1,2.1,0,0,1-1.532-.983Zm128.578.3a5.607,5.607,0,0,1,2.949.037c.666.269-.119.473-1.739.453s-2.167-.24-1.21-.49Zm63.154-1.285a7.769,7.769,0,0,1,2.271-1.967c.272,0-.308.885-1.287,1.967a7.756,7.756,0,0,1-2.272,1.966C421.461,5998,422.041,5997.118,423.02,5996.037Zm-51.588.018c-.721-.446.037-1.2,2.023-2.023a92.582,92.582,0,0,0,10.636-6.288c9.874-6.58,9.472-6.254,8.69-7.035-.377-.377-3.9,1.532-7.837,4.241-8.259,5.688-15.443,9.514-16.285,8.673-.319-.321,1.6-2.814,4.275-5.541,4.844-4.945,14.738-10.5,22.309-12.532,3.123-.836,3.687-.75,3.687.567,0,4.6-8.239,13.57-16.342,17.784C379.4,5995.561,372.719,5996.85,371.432,5996.055Zm-11.567-.7a5.621,5.621,0,0,1,2.95.037c.666.269-.119.473-1.74.453s-2.167-.24-1.21-.489Zm-74.745-.98a8.085,8.085,0,0,1,3.442,0c.946.248.171.45-1.722.45S284.174,5994.622,285.12,5994.374Zm142.14-.977a1.977,1.977,0,0,1,1.885.078c.327.326-.253.559-1.291.516C426.709,5993.944,426.476,5993.711,427.26,5993.4Zm-234.152-2.688a1.458,1.458,0,0,1,.782-1.9c1.705-.654,2.5.173,1.827,1.914-.68,1.772-1.926,1.765-2.609-.015Zm-10.492-4.916a1.562,1.562,0,0,1,1.557-1.557c.856,0,1.382.526,1.168,1.168C184.733,5987.227,182.616,5987.529,182.616,5985.793Zm16.037-5c0-3.245.189-4.454.408-2.686a26.772,26.772,0,0,1,0,5.9c-.223,1.478-.4.03-.4-3.213Zm167.187-3.1c2.412-4.782,5.557-10.406,6.987-12.5s2.32-4.083,1.974-4.425c-1.018-1.008-4.751,4.318-9.781,13.961l-4.7,9.015.529-6.121a23.648,23.648,0,0,1,2.791-9.832c3-4.923,13.7-16.1,14.777-15.429,1.437.888.943,9.964-.783,14.4a43.5,43.5,0,0,1-12.1,16.343l-4.079,3.278Zm-147.827,5.62a2.1,2.1,0,0,1,.972-1.526c.557-.344.723.05.386.925-.653,1.7-1.358,2.016-1.358.6Zm21.631-.549a1.475,1.475,0,1,1,1.475,1.475A1.48,1.48,0,0,1,239.644,5982.762Zm-12.29-1.475a1.826,1.826,0,0,1,.271-2.138q.984-.982,1.7.171a1.826,1.826,0,0,1-.271,2.138Q228.068,5982.442,227.354,5981.287Zm-35.233-4.589c-1.131-1.131-.716-2.294.819-2.294a1.48,1.48,0,0,1,1.475,1.475c0,1.535-1.163,1.951-2.295.819Zm55.588-3.528c-.917-1.106-.967-1.732-.179-2.218,1.456-.9,2.2-.046,1.79,2.054-.3,1.536-.459,1.552-1.609.164Zm-65.092-3.109a1.561,1.561,0,0,1,1.557-1.556c1.736,0,1.434,2.116-.39,2.724-.642.214-1.167-.311-1.167-1.168Zm-6.728-1.556c0-1.352.224-1.9.5-1.23a3.82,3.82,0,0,1,0,2.459c-.271.675-.5.122-.5-1.23Zm59.065-.185c.608-1.823,2.725-2.125,2.725-.389a1.562,1.562,0,0,1-1.557,1.557c-.856,0-1.382-.526-1.167-1.168Zm-37.433-2.765c0-1.352.223-1.905.5-1.229a3.817,3.817,0,0,1,0,2.458c-.271.676-.5.123-.5-1.229Zm-45.229-.983c0-1.352.223-1.9.495-1.23a3.8,3.8,0,0,1,0,2.458c-.271.676-.495.123-.495-1.229Zm-25.565-1.967c0-1.352.223-1.9.5-1.229a3.817,3.817,0,0,1,0,2.458c-.272.676-.5.123-.5-1.229Zm61.789-.41a1.561,1.561,0,0,1,1.557-1.556c1.737,0,1.434,2.116-.389,2.724-.642.214-1.168-.312-1.168-1.168Zm-11.643-1.556c0-1.353.223-1.906.5-1.23a3.817,3.817,0,0,1,0,2.458c-.272.676-.5.123-.5-1.229Zm19.587-1.557c.048-1.146.279-1.379.594-.594a1.983,1.983,0,0,1-.078,1.884c-.327.327-.559-.254-.516-1.29Zm46.668-.342c-.727-1.177,1.123-2.343,2.432-1.533,1.1.68.378,2.448-1,2.448a1.969,1.969,0,0,1-1.433-.915Zm17.243-1.625c.048-1.145.278-1.378.594-.594a1.969,1.969,0,0,1-.079,1.885c-.327.326-.558-.255-.516-1.291Zm-6.735-2.561c.607-1.823,2.724-2.126,2.724-.389a1.562,1.562,0,0,1-1.557,1.557C253.947,5955.722,253.421,5955.2,253.636,5954.554Zm-127.969-1.373c.048-1.145.278-1.378.594-.594a1.984,1.984,0,0,1-.078,1.885C125.856,5954.8,125.624,5954.218,125.667,5953.181Zm110.045,1.186a6.2,6.2,0,0,1,1.721-1.721c1.56-1.223,1.594-1.188.372.371-1.285,1.638-2.092,2.159-2.092,1.35Zm-79.087-6.8c.368-.969.919-1.515,1.221-1.212s0,1.1-.671,1.763c-.971.963-1.084.85-.55-.551Zm-31.942-1.268c.048-1.146.279-1.379.594-.594a1.979,1.979,0,0,1-.078,1.884C124.873,5947.916,124.641,5947.335,124.683,5946.3Zm60.583.928c-.786-.786.1-2.321,1.342-2.321.509,0,.925.663.925,1.474,0,1.521-1.16,1.954-2.267.847Zm-3.632-3.246a2.094,2.094,0,0,1,.972-1.527c.557-.344.722.051.386.926-.653,1.7-1.358,2.015-1.358.6Zm-20.618-.55a5.908,5.908,0,0,1,.953-2.458c.524-.811.953-1.033.953-.492a5.908,5.908,0,0,1-.953,2.458C161.445,5943.751,161.016,5943.972,161.016,5943.431ZM183.6,5940.6a6.18,6.18,0,0,1,1.721-1.721c1.559-1.223,1.594-1.188.371.371-1.284,1.638-2.091,2.159-2.091,1.35Zm-25.166-3.808-1.873-2.212,2.213,1.873c2.079,1.76,2.659,2.551,1.873,2.551a10.93,10.93,0,0,1-2.213-2.212Zm.984-1.967c-1.872-2.21-1.871-2.21.174-.489,1.126.948,2.413,1.39,2.862.983s.5-.186.108.49c-.925,1.608-.957,1.6-3.142-.984Zm6.744,1.507a17.48,17.48,0,0,1,4.916.015c1.209.234,0,.418-2.718.411s-3.693-.2-2.2-.424Zm-1.243-2.047c0-.432,1.549-.6,3.441-.384s3.442.575,3.442.786-1.549.384-3.442.384-3.441-.353-3.441-.785Zm20.062-2.57c7.255-3.782,15.574-10.211,14.81-11.446-.278-.449-3.472,1.43-7.1,4.175-6.146,4.652-11,7.274-16.957,9.151-1.915.6-1.253-.413,3-4.6,5.188-5.111,14.469-10.06,22.744-12.127,2.318-.579,2.571-.412,2.1,1.386-1.039,3.974-8.473,11.14-14.529,14.005-8.718,4.124-12.144,3.665-4.067-.545Zm193.794,1.39c-.8-1.3.373-3.139,1.542-2.416,1.194.738,1.187,3.4,0,3.4a2.107,2.107,0,0,1-1.533-.983Zm-263.635-5.654c.349-3.109,1.127-9.094,1.726-13.3l1.091-7.646,10.32-8.086c5.676-4.447,11.011-8.634,11.856-9.3s1.261-1.494.925-1.831-5.392,3.152-11.236,7.752-10.782,8.215-10.975,8.034-.045-3.342.335-7.025l.684-6.695,5.075-3.138c6.863-4.244,17.4-13.216,16.753-14.265-.29-.466-3.034,1.321-6.1,3.971-5.874,5.077-12.732,9.991-13.944,9.991-.688,0-.193-3.529,2-14.269.978-4.795,1.242-5.085,9.833-10.815,7.951-5.3,10.24-7.383,8.091-7.352-.4.007-3.581,2-7.057,4.424-8.528,5.956-9.26,5.8-6.811-1.449,1.664-4.928,2.752-6.418,6.818-9.339,2.661-1.912,4.838-3.919,4.838-4.461,0-1.62-1.21-1.135-4.114,1.647-1.511,1.448-3.023,2.357-3.361,2.02s-.122-2.739.478-5.336c1.461-6.333,1.807-13.034.661-12.788-.511.109-1.067,1.747-1.237,3.64-.528,5.9-2.414,12.8-3.34,12.23a3.253,3.253,0,0,1-.886-2.456,1.739,1.739,0,0,0-1.474-1.908c-1.868,0-1.853.982.093,5.845,1.47,3.675,1.447,4.274-.376,9.607l-1.944,5.687-3.192-6.707q-3.2-6.719-4.176-5.723c-.658.657.23,3.571,2.667,8.768l3.653,7.783-1.936,9.247c-2.188,10.448-1.821,10.644-6.607-3.515-1.277-3.775-2.789-7.019-3.363-7.211-1.782-.594-1.183,2.239,2.977,14.086,3.575,10.178,3.949,12.076,3.366,17.09-1.053,9.072-1.744,9.031-6.764-.4l-4.555-8.562v-14.2c0-8.014.38-13.969.872-13.665s.812-.231.738-1.171.447-1.59,1.167-1.44,1.017-.192.668-.755c-.883-1.429,3.367-8.033,4.656-7.235.578.357.777.2.44-.339-.7-1.132,3.6-7.4,4.581-6.677.353.263.435.2.179-.148-.724-.981,3.455-6.346,4.459-5.725.494.3.672-.03.4-.745-.725-1.892,9.072-11.293,10.394-9.972,1.922,1.921,8.71,18.813,10.878,27.067,2.926,11.136,3.605,28.328,1.519,38.416-3.5,16.912-9.682,27.88-21.3,37.774-9.42,8.023-11.288,8.127-10.438.583Zm16.84-25.81c.335-.541.138-.983-.433-.983a1.017,1.017,0,0,0-1.042.983c0,.541.2.983.434.983S131.646,5902.184,131.98,5901.643ZM113.545,5887.3c-.938-.937-2.816.581-2.117,1.711.415.671.964.654,1.671-.052.579-.579.779-1.326.447-1.659Zm-1.721-2.376a.983.983,0,1,0-.983.983A.986.986,0,0,0,111.824,5884.928Zm18.682-12.233c0-.238-.443-.707-.983-1.041s-.984-.139-.984.434a1.016,1.016,0,0,0,.984,1.041C130.063,5873.129,130.506,5872.934,130.506,5872.695Zm2.458-5.465c.335-.541.141-.984-.434-.984a1.017,1.017,0,0,0-1.041.984c0,.54.2.983.433.983S132.629,5867.77,132.964,5867.23Zm-15.24-.926a2.108,2.108,0,0,0-.984-1.532c-.541-.335-.983.082-.983.925s.442,1.533.983,1.533A.959.959,0,0,0,117.724,5866.3Zm1.966-3.007a.983.983,0,1,0-.983.983A.986.986,0,0,0,119.69,5863.3Zm-2.876-2.237c-.122-1.176-1.47-.948-1.893.319-.216.649.138,1,.787.787s1.146-.714,1.106-1.106Zm16.642-7.6a.983.983,0,1,0-.983.983A.985.985,0,0,0,133.456,5853.464Zm4.424-15.732c.335-.54.138-.983-.433-.983a1.017,1.017,0,0,0-1.042.983c0,.541.2.984.434.984S137.546,5838.273,137.88,5837.732Zm-8.891-.915a1.132,1.132,0,0,0-.434-1.533c-.549-.339-1,.072-1,.915C127.557,5837.926,128.146,5838.181,128.989,5836.817Zm.534-4a.983.983,0,1,0-.984.983A.986.986,0,0,0,129.523,5832.816Zm2.092-6.637c1.223-1.559,1.188-1.594-.372-.371-1.638,1.284-2.159,2.092-1.349,2.092a6.182,6.182,0,0,0,1.72-1.721Zm-22.507,101.863c-3.021-3.932-3.183-4.57-3.183-12.615,0-4.792.465-8.939,1.069-9.543.77-.77.77-1.254,0-1.73-.588-.363-1.069-3.178-1.069-6.256v-5.6l4.744,7.4,4.743,7.4-1.561,12.538-1.56,12.537Zm-.234-18.533a.984.984,0,1,0-.984.984A.987.987,0,0,0,108.874,5909.509Zm45.395,13.765c-.6-2.974-1.376-8.615-1.735-12.536s-1.037-7.128-1.508-7.128-.852.553-.848,1.229c0,2.348,1.836,17.114,2.465,19.979l.632,2.881-2-2.458c-3.1-3.8-3.971-10.127-2.7-19.583l1.116-8.276,2.684,4.054a30.571,30.571,0,0,1,3.656,8.276c1.152,4.991,1.208,14.223.1,17-.614,1.546-1.013.809-1.864-3.441Zm19.5,1.58c0-.212.686-.649,1.526-.971.875-.336,1.269-.171.925.386-.577.934-2.451,1.382-2.451.586Zm-4.916-1.549c0-.523.663-.7,1.474-.386s1.475.74,1.475.952-.663.387-1.475.387S168.852,5923.829,168.852,5923.305Zm4.015-.389a24.11,24.11,0,0,1,2.868-1.529c2.317-1.1,2.349-1.083.549.358-1.566,1.255-4.766,2.352-3.417,1.171Zm7.9-7.325c1.6-3.869,4.087-6.994,9.575-12.05,4.074-3.755,7.733-6.492,8.13-6.083s.308,2.938-.2,5.619c-1.458,7.717-7.22,14.773-13.686,16.763-2.094.643-1.768.014,2.2-4.237,4.51-4.838,10.586-13.525,10.586-15.136,0-1.988-1.746-.335-4.825,4.57a71.594,71.594,0,0,1-8.646,10.557l-5.3,5.222Zm-13.429.734a1.447,1.447,0,0,1-.059-1.639c.323-.325.59-.048.59.615s.443.932.983.6.984-.139.984.434c0,1.35-1.663,1.345-2.5-.007Zm4.543-2.475c.048-1.146.279-1.378.594-.594a1.973,1.973,0,0,1-.078,1.885c-.327.326-.559-.255-.516-1.291Zm-10.089-2.622c-1.866-2.616-2.337-4.712-2.6-11.553-.175-4.6.1-9.463.6-10.815.912-2.421.969-2.386,4,2.386,3.747,5.908,4.533,9.69,3.542,17.045l-.759,5.641L165.33,5910a36.389,36.389,0,0,1-1.319-8.6c-.041-2.568-.518-4.67-1.059-4.67-1.436,0-1.2,7.814.4,13.117.758,2.52,1.23,4.581,1.05,4.581a17.5,17.5,0,0,1-2.608-3.195Zm11.073-2.294c.048-1.146.278-1.379.593-.594a1.977,1.977,0,0,1-.078,1.884c-.327.327-.558-.254-.516-1.29Zm1.06-5.326c0-1.352.223-1.9.5-1.229a3.817,3.817,0,0,1,0,2.458c-.272.676-.5.123-.5-1.23Zm-1.966-.984c0-1.351.223-1.9.5-1.229a3.817,3.817,0,0,1,0,2.458c-.271.676-.5.123-.5-1.229Zm2.872-4.506c.048-1.145.279-1.378.594-.594a1.979,1.979,0,0,1-.078,1.885c-.327.326-.559-.255-.516-1.291Zm10.655-4.009c6.28-5.923,5.5-7.126-1.007-1.548-7.614,6.528-8.2,6.725-4.27,1.433,4.724-6.36,16.176-12.746,16.176-9.019,0,4.156-8.891,13.211-13.659,13.911C180.213,5899.254,180.436,5898.871,185.484,5894.109Zm-12.544,2.616c0-1.352.223-1.905.5-1.229a3.817,3.817,0,0,1,0,2.458c-.272.676-.5.123-.5-1.229Zm3.142-4.38c1.382-3.644,1.962-16.924.771-17.66-.769-.475-1.121.633-1.127,3.546,0,2.33-.308,6.67-.675,9.645-.541,4.393-.8,4.946-1.368,2.949-1.4-4.886-.924-13.827.975-18.5,1.03-2.534,2.17-5.492,2.534-6.573.622-1.851.741-1.816,2.015.591,2.012,3.8,3.381,13.86,2.449,17.992-.78,3.457-1.825,5.267-4.883,8.452-1.254,1.306-1.335,1.254-.691-.443Z" fill="rgba(212,238,223,0.99)"/>
    <path id="path16950" d="M105.937,6029.777l-.037-105.886,3.19,4.15,3.19,4.15,1.559-12.525,1.558-12.525-4.816-7.567c-3.471-5.453-4.726-8.348-4.5-10.365.282-2.473.819-1.841,4.612,5.435,4.754,9.119,5.48,9.121,6.536.018.581-5.014.207-6.912-3.366-17.089-4.16-11.847-4.759-14.68-2.978-14.086.573.191,2.087,3.435,3.363,7.21,4.787,14.159,4.42,13.964,6.607,3.515l1.936-9.246-3.653-7.784c-2.438-5.2-3.325-8.11-2.667-8.768s2.045,1.244,4.176,5.723l3.192,6.708,1.944-5.688c1.823-5.332,1.846-5.932.376-9.606-1.946-4.863-1.962-5.846-.093-5.846a1.74,1.74,0,0,1,1.475,1.909,3.256,3.256,0,0,0,.885,2.455c.956.592,2.811-6.365,3.39-12.721.2-2.164.754-3.8,1.237-3.64,1.092.364.736,7.009-.711,13.279-.6,2.6-.814,5-.477,5.337s1.849-.572,3.36-2.02c2.9-2.782,4.115-3.267,4.115-1.647,0,.541-2.177,2.549-4.839,4.46-4.065,2.921-5.154,4.412-6.818,9.34-2.448,7.249-1.716,7.4,6.811,1.449,3.476-2.428,6.652-4.419,7.058-4.425,2.148-.029-.142,2.049-8.091,7.353-8.59,5.729-8.854,6.02-9.833,10.815-2.191,10.739-2.686,14.269-2,14.269,1.211,0,8.07-4.914,13.944-9.991,3.067-2.65,5.812-4.438,6.1-3.971.648,1.048-9.889,10.021-16.753,14.265l-5.075,3.138-.684,6.7c-.377,3.683-.526,6.844-.335,7.025s5.132-3.435,10.975-8.034,10.9-8.088,11.236-7.752-.078,1.16-.925,1.831-6.18,4.857-11.856,9.3l-10.32,8.086-1.091,7.646c-2.4,16.808-2.488,18.953-.812,18.953a2.774,2.774,0,0,0,2.161-.983c1.308-2.117,3.412-.811,4.355,2.7,1.059,3.942,3.512,19.695,4.519,29.02l.612,5.667,5.337-4.756c7.208-6.425,13.646-9.606,17.028-8.414,2.477.873,2.7.616,6.741-7.7a82.15,82.15,0,0,0,4.179-9.46c0-.472-.932-1.7-2.071-2.731-4.452-4.026-6.893-11.763-8.269-26.208-.364-3.814-.249-6.637.268-6.637.494,0,1.407,4.658,2.029,10.35,1.168,10.694,3.785,18.641,7.142,21.679,2.052,1.856,1.89,2.1,6.677-10.085l1.707-4.346-2.865-5.78c-3.1-6.251-4.952-18.7-2.784-18.7.669,0,1.142,1.873,1.178,4.671.071,5.406,2.881,15.155,4.529,15.705.669.223,1.577-1.73,2.238-4.816,2.214-10.321,4.971-28.937,4.971-33.562,0-2.9.38-4.494.984-4.121,1.417.876,1.21,7.983-.491,16.875-.812,4.238-1.475,7.832-1.475,7.987,0,.764,4.271-2.181,8.929-6.158,2.866-2.446,5.661-4.447,6.211-4.447,1.814,0-7.484,8.687-11.681,10.914-3.985,2.114-4.149,2.4-5.316,9.153A85.3,85.3,0,0,1,170.3,5919.8c-.756,2.142-1.2,4.067-.994,4.277s1.992-.15,3.96-.8c4.666-1.54,14.809-11.1,19.168-18.07,3.2-5.118,4.916-6.741,4.916-4.655,0,1.862-8.079,12.841-12.339,16.767-4.13,3.808-13.15,8.877-15.833,8.9-.623,0-1.573,1.226-2.112,2.714s-1.32,3.548-1.736,4.581c-.7,1.737-.4,1.834,4.078,1.3,7.448-.893,15.219-4.317,22.886-10.084,8.009-6.026,10.6-5.645,2.96.435-8.022,6.388-16.475,10.1-24.267,10.657l-6.716.481-5.58,11.925c-3.07,6.559-5.994,14.15-6.5,16.869-1.041,5.6-3.108,9.481-11,20.662-3.038,4.3-6.257,9.263-7.154,11.02-1.541,3.018-1.534,3.2.115,3.184a86.309,86.309,0,0,0,10.588-2.458c10.648-2.946,12.464-3.013,14.7-.541,3.761,4.156-.918,15.517-13.022,31.621-3.893,5.18-7.079,9.726-7.079,10.1s.923.192,2.051-.412,2.194-.951,2.37-.772-1.787,4.608-4.359,9.843c-7.034,14.309-8.555,25.291-5.417,39.092l1.528,6.718-4.54,7.018c-7.571,11.7-13.264,25.969-13.264,33.236,0,2.095-.408,2.251-5.88,2.251h-5.879ZM122,6134.146a2.372,2.372,0,0,1-.037-2.065c.861-.861,2.645.6,2.645,2.165,0,1.887-1.875,1.815-2.61-.1Zm7.045.518a1.131,1.131,0,0,1,1.533-.434c1.364.843,1.11,1.433-.618,1.433-.842,0-1.254-.45-.915-1Zm3.031-9.526c-2.248-6.714-3.183-10.866-2.581-11.467,1.02-1.02.986-1.094,5.513,12.086,3.168,9.223,2.594,9.623,5.76-4.019l1.52-6.551-3.431-6.941c-3.335-6.749-4.2-9.949-2.694-9.944.406,0,2.1,2.988,3.768,6.637l3.031,6.634,1.823-5.666c1.706-5.3,1.723-5.984.257-10.568-.975-3.048-1.206-5.126-.61-5.494,1.191-.735,1.315-.586,2.52,3.047l.98,2.95,1.166-3.933a64.8,64.8,0,0,0,1.751-9.1c.32-2.84.965-5.163,1.43-5.163,1.269,0,.957,6.617-.623,13.233-.769,3.222-1.251,6.006-1.071,6.186s1.663-.8,3.3-2.172c3.158-2.657,4.16-3.044,4.16-1.607,0,.49-2.108,2.4-4.683,4.256-3.926,2.82-4.972,4.281-6.469,9.028-.981,3.114-1.549,5.9-1.262,6.186s3.862-1.753,7.943-4.534,7.421-4.492,7.421-3.8-3.767,3.664-8.372,6.608c-9.117,5.829-8.857,5.4-11.358,18.484-1.031,5.4-1.447,6.146-3.417,6.146s-2.663-1.253-5.768-10.525Zm13.541,8.363c1.549-1.154,5.311-4.234,8.358-6.843,5.169-4.425,7.626-5.846,6.852-3.963-.961,2.338-14.655,12.982-16.644,12.937C143.416,6135.613,144.059,6134.659,145.612,6133.5Zm21.014-12.341c-.409-11.794-.981-16.087-3.061-22.985l-2.557-8.482,1.9-5.51a67.461,67.461,0,0,1,2.823-7.168c1.054-1.883-1.533-10.294-6.576-21.376-1.7-3.725-3.072-7.265-3.059-7.866.037-1.523,7.148,14.5,9.251,20.827,2.2,6.633,3.565,5.737,6.548-4.31,1.195-4.025,2.377-7.114,2.627-6.864s-.26,2.548-1.132,5.107c-2.1,6.158-2.06,6.316,1.35,5.634,2.174-.435,3.093-.174,3.546,1.007a2.437,2.437,0,0,0,1.951,1.6.864.864,0,0,1,.854,1.264c-.682,1.777,2.883,13.048,4.028,12.74,1.226-.329,11.659-19.839,10.975-20.523-.286-.286-1.679.238-3.094,1.166s-2.777,1.484-3.024,1.236,1.276-1.42,3.386-2.606a18.95,18.95,0,0,0,6.784-7.378c2.918-5.171,6.617-8.514,9.421-8.514a2.552,2.552,0,0,0,1.991-.873c.949-1.535-1.316-16.034-3.975-25.446L205,6012.722l2.191-5.144c3.787-8.893,16.246-33.363,20.639-40.541,9.458-15.45,17.714-23.5,24.1-23.5,3.933,0,6.238,1.753,8.071,6.137,3.824,9.147-7.233,31.747-31.574,64.537-10.294,13.867-14.611,20.178-13.8,20.178a19.751,19.751,0,0,0,4.226-2.8c11.355-8.862,31.38-20.736,53.106-31.488,11.556-5.72,17.289-6.569,20.778-3.08,4.354,4.354,1.487,11.115-9,21.22-15.5,14.937-38.211,29.389-58.6,37.29l-7.128,2.762v4.27c0,2.644.445,4.269,1.17,4.269.643,0,6.081-3.745,12.084-8.322,11.052-8.426,17.324-11.893,19.8-10.944,1.848.709,1.764,7.765-.134,11.438-.822,1.59-4.362,6.074-7.866,9.964s-6.371,7.575-6.371,8.186c0,.741,1.877.982,5.653.723,7.622-.522,13.182,1.4,14.441,4.98.685,1.949.62,3.308-.223,4.657-.655,1.048-1.267,4.014-1.362,6.59l-.171,4.683-.372-4.057-.371-4.056-5.112,2.767a127.619,127.619,0,0,1-16.418,6.4c-20.091,6.446-20.9,7.8-7.38,12.336,12.172,4.084,15.066,7.184,11.244,12.044-2.606,3.312-8.758,4.559-22.49,4.559-7.715,0-11.854.365-11.854,1.045,0,.575-.775.966-1.722.87-5.385-.548-7.17,1.732-2.949,3.768,1.691.815-1.641,1.082-14.135,1.133l-16.348.067Zm64.927-77.737c.216-.643-.312-1.168-1.167-1.168a1.562,1.562,0,0,0-1.557,1.557C228.829,6045.548,230.946,6045.246,231.553,6043.423Zm14.974-4.609a1.474,1.474,0,1,0-1.474,1.474A1.479,1.479,0,0,0,246.527,6038.814Zm-20.2-3.374c.727-1.176-1.122-2.342-2.432-1.533-1.1.68-.378,2.449,1,2.449a1.967,1.967,0,0,0,1.433-.916Zm13.09-5.783c.216-.642-.312-1.167-1.167-1.167a1.561,1.561,0,0,0-1.557,1.556C236.7,6031.783,238.812,6031.48,239.419,6029.657Zm20.038.308a1.536,1.536,0,0,0-1.057-1.287c-.581-.193-1.057.385-1.057,1.287s.476,1.48,1.057,1.286A1.536,1.536,0,0,0,259.457,6029.965Zm-8.013-6.883a1.475,1.475,0,1,0-1.475,1.475A1.48,1.48,0,0,0,251.444,6023.082Zm18.681-2.95a1.479,1.479,0,0,0-1.475-1.475c-1.535,0-1.95,1.163-.819,2.295s2.294.716,2.294-.82Zm-58.462-3.507c.9-1.464-.145-2.26-2.027-1.537-.869.333-1.3,1.051-.968,1.6a1.636,1.636,0,0,0,2.995-.058Zm12.742-3.867q-.714-1.155-1.7-.171a1.827,1.827,0,0,0-.271,2.137q.713,1.155,1.7.172A1.829,1.829,0,0,0,224.4,6012.758Zm36.379,0q-.713-1.155-1.7-.171a1.827,1.827,0,0,0-.271,2.137q.713,1.155,1.7.172A1.829,1.829,0,0,0,260.784,6012.758Zm21.14-.434a2.542,2.542,0,0,0-.916-1.982c-1.168-.723-2.344,1.118-1.542,2.416.9,1.463,2.458,1.188,2.458-.434Zm-6.883-6.94a1.474,1.474,0,1,0-1.474,1.474A1.478,1.478,0,0,0,275.041,6005.384Zm12.557-2.643c-.607-1.823-2.724-2.125-2.724-.389a1.562,1.562,0,0,0,1.557,1.557C287.287,6003.909,287.813,6003.383,287.6,6002.741Zm-68.827-3.564c.216-.642-.312-1.168-1.167-1.168a1.562,1.562,0,0,0-1.557,1.557c0,1.736,2.117,1.434,2.725-.389Zm14.974-2.585a2.544,2.544,0,0,0-.915-1.982c-1.169-.723-2.344,1.119-1.542,2.416.9,1.463,2.457,1.189,2.457-.434Zm8.85-13.823a1.475,1.475,0,1,0-1.475,1.475A1.48,1.48,0,0,0,242.6,5982.769Zm-13.274-3.441q-.714-1.155-1.7-.172a1.831,1.831,0,0,0-.271,2.138q.714,1.155,1.7.171A1.827,1.827,0,0,0,229.321,5979.328Zm19.817-8.533c-.282-.282-1.006-.208-1.609.164-.787.487-.737,1.113.178,2.219,1.15,1.387,1.31,1.371,1.609-.165A3.189,3.189,0,0,0,249.138,5970.795Zm-11.46-2.857c0-1.736-2.116-1.433-2.724.39-.216.642.312,1.167,1.167,1.167a1.561,1.561,0,0,0,1.557-1.557Zm8.316-9.19c.727-1.177-1.123-2.343-2.432-1.533-1.1.679-.378,2.448,1,2.448a1.97,1.97,0,0,0,1.433-.915Zm10.366-4.575c0-.856-.525-1.382-1.168-1.168-1.823.608-2.125,2.725-.389,2.725a1.562,1.562,0,0,0,1.557-1.557ZM213.333,6133.71a9.042,9.042,0,0,1-1.219-2.516c0-1.042,1.947.629,2.979,2.558,1.346,2.515-.186,2.478-1.76-.041Zm29.261.97a1.017,1.017,0,0,1,1.042-.983c.572,0,.767.442.433.983s-.8.983-1.041.983S242.594,6135.221,242.594,6134.68Zm8.022-.983c0-1.352.223-1.9.5-1.229a3.817,3.817,0,0,1,0,2.458c-.271.676-.5.123-.5-1.229Zm24.468-.062c-4.034-1.056-7.722-2.309-8.2-2.784-1.694-1.694,1.084-2.021,5.822-.686,10.046,2.831,9.957,2.876,4.742-2.418-4.1-4.165-5.365-4.88-8.763-4.964-5.088-.126-8.638-1.126-9.119-2.568-.272-.816,1.207-.974,5.232-.558l5.612.579-2.749-3.086a12.359,12.359,0,0,0-6.043-3.7c-2-.375-3.293-1.2-3.293-2.1,0-1.039.642-1.312,2.155-.916,1.678.438,1.236-.353-1.993-3.573-3.488-3.477-4.316-3.9-5.2-2.661-.869,1.222-.949,1.167-.464-.326a14.209,14.209,0,0,0,.584-2.213c0-1.556,3.107.289,7.174,4.26l4.783,4.67-.181-2.95c-.272-4.346-.053-5.084,1.007-3.441a13.472,13.472,0,0,1,.969,5.47c0,3.144.643,4.6,2.965,6.821l2.95,2.826v-6.575c0-3.728.425-6.575.983-6.575.577,0,.983,3.371.983,8.148v8.149l4.7,4.633c5.093,5.017,6.112,5.516,6.112,2.995,0-2.3.883-1.157,1.928,2.489.861,3,.8,3.081-2.243,3.029a63.328,63.328,0,0,1-10.459-1.974Zm34.329-6.063c-4.3-4.45-7.823-8.506-7.823-9.013s.111-.724.245-.483,4,4.3,8.582,9.013,7.995,8.574,7.578,8.574-4.278-3.641-8.582-8.091Zm20.378,7.354a50.143,50.143,0,0,1-1.134-7.512c-.559-5.366-1.222-7.291-3.189-9.258-1.366-1.366-5.706-6.282-9.645-10.924s-9.01-10.21-11.271-12.373a57.274,57.274,0,0,1-6.144-6.883c-1.885-2.733-1.891-2.805-.09-.983,4.72,4.778,18.97,20.307,23.733,25.865,5.1,5.953,8.519,8.278,5.7,3.878-.78-1.217-1.658-4.867-1.951-8.112l-.532-5.9,1.274,6.638c1.193,6.221,2.085,8.5,2.949,7.537,1.7-1.9,17.006-23.8,18.957-27.127,1.372-2.34,2.715-4.255,2.986-4.255s-.727,2.1-2.215,4.67c-2.758,4.759-3.539,5.907-14.524,21.34-3.446,4.842-6.1,9.487-5.9,10.324.6,2.533,1.993,13.811,1.7,13.811-.149,0-.464-.331-.7-.737Zm2.279-1.752c0-3.94,2.543-9,5.5-10.935,1.886-1.235,4.615-1.784,8.947-1.8,5.829-.018,6.36-.21,8.178-2.969a14.226,14.226,0,0,0,1.96-7.374c0-4.967,3.2-12.587,7.261-17.4,2.272-2.691,2.531-3.608,1.808-6.392a10.439,10.439,0,0,1,.167-5.934c.72-1.912.666-3.892-.189-6.882-6.6-23.082-7-26.481-3.485-29.4,2.212-1.836,4.774,2.034,6.8,10.263,1.188,4.836,2.291,7.116,3.976,8.22,5.735,3.758,6.613-1.094,3.234-17.884-2.018-10.026-2.024-10.322-.246-13.96,3-6.15,4.688-4.908,5.257,3.88.4,6.161.909,8.012,2.7,9.8,2.09,2.087,2.3,2.114,3.9.51,1.481-1.481,1.662-3.585,1.433-16.684-.289-16.655.5-19.82,4.266-17.071,1.568,1.144,2.052,2.931,2.447,9.027.376,5.81.9,7.855,2.212,8.68,2.434,1.527,4.965-.308,5.755-4.17.35-1.709.186-6.809-.36-11.335-1.14-9.4-.5-13.685,1.974-13.208,1.578.3,1.988,1.533,3.628,10.875.357,2.028,1.026,3.688,1.487,3.688s3.144-3.651,5.959-8.112c6.4-10.147,8.588-12.536,11.474-12.536,1.767,0,2.287.543,2.287,2.394,0,3.7-1.5,6.876-8.005,16.915-3.307,5.1-5.711,9.583-5.341,9.952s3.412-.312,6.762-1.513c7.407-2.656,9.718-2.729,11.847-.377,1.527,1.687,1.52,1.91-.093,3.353-1.677,1.5-6.7,3.265-16.139,5.674-6.808,1.738-10.662,4.392-10.662,7.342,0,2.9,1.847,3.146,9.776,1.316,4.269-.986,5.516-.915,8.432.476,4,1.909,4.282,3.463,1.147,6.408-2,1.876-3.386,2.138-11.338,2.138-9.178,0-14.246,1.264-16.638,4.148-3.182,3.837,2.145,6.668,12.548,6.668,5.129,0,6.943.4,8.211,1.8,2.115,2.337,2.06,4.388-.171,6.407-1.45,1.312-3.973,1.63-13.028,1.642-11.734.015-15.855,1.068-16.459,4.207-.374,1.942,4.942,4.627,9.162,4.627,4.449,0,9.216,2.6,9.922,5.415,1.105,4.4-.485,4.951-10.618,3.672-4.978-.628-9.224-.969-9.436-.758s1.4.92,3.59,1.575c6.425,1.925,10.768,6.267,14.535,14.531,1.861,4.084,3.538,7.58,3.726,7.768s1.832-1.024,3.653-2.695c7.6-6.971,19.343-10.313,26.942-7.667l3.966,1.381-.037-15.3c-.037-12.085.342-16.537,1.764-21.2,3.036-9.963,6.112-12.87,8.633-8.157,2.642,4.936,3.958,13.116,5.029,31.263.636,10.769,1.577,19.472,2.147,19.856.609.41,3.812-5.1,8-13.765,11.666-24.142,20.294-35.588,26.825-35.588s7.816,7.1,3.232,17.844c-2.627,6.157-13.281,22.883-21.49,33.738-2.03,2.683-3.137,4.538-2.461,4.121,1.96-1.208,1.425.492-.983,3.128-2.5,2.734-2.069,2.511,7.928-4.1,3.955-2.616,13.3-8,20.769-11.957,16.163-8.571,19.4-9.307,22.189-5.048,2.958,4.514-2.039,11.374-15.981,21.942-3.921,2.972-7.129,5.719-7.129,6.1a4.93,4.93,0,0,0,1.23,2.1c.676.77.345.672-.738-.218-1.859-1.53-2.313-1.409-8.357,2.237-4.921,2.968-6.32,4.311-6.081,5.838.3,1.953-.145,1.981-30.168,1.924-22.816-.044-30.6-.356-30.959-1.244s-.5-.885-.559.044c-.044.675-1,1.229-2.13,1.229-1.842,0-2-.43-1.53-4.179l.523-4.179-1.068,4.18-1.068,4.18-7.3-.11-7.3-.109,2.036-2.167a7.349,7.349,0,0,0,2.036-3.853c0-3.868-5.972-13.27-12.026-18.933-10.326-9.66-16.845-12.43-13.129-5.579,1,1.837,1.492,2.184,1.518,1.064a2.783,2.783,0,0,0-.944-2.27,2.084,2.084,0,0,1-.984-1.5c0-1.514,6.93,3.1,12.5,8.328l5.3,4.971-2.566,5.271c-1.411,2.9-2.395,5.442-2.186,5.651s1.416-1.831,2.681-4.534,2.559-4.913,2.873-4.913c.817,0,5.976,11.157,5.976,12.926,0,2.273-4.258,5.756-7.037,5.756-2.067,0-2.7-.7-3.762-4.179-.7-2.3-1.464-3.65-1.694-3a4.867,4.867,0,0,0,.63,3.131c1.879,3.512,1.243,4.052-4.784,4.052h-5.831l-1.984-5.162c-2.274-5.916-2.812-5.008-.655,1.1l1.431,4.057H332.07Zm104.127-4.148c1.119-2.839,1.8-5.161,1.522-5.161-.635,0-4.375,8.615-4.375,10.077C433.344,6135.691,434.05,6134.475,436.2,6129.026Zm7.844,1.967c1.907-7.478,2.3-10.328,1.347-9.738-.521.322-1.2,2.7-1.51,5.285a37.8,37.8,0,0,1-1.229,6.42c-.367.946-.415,1.72-.108,1.72S443.524,6133.021,444.041,6130.993Zm-14.942-.43c-.312-.785-.547-.552-.594.594-.044,1.036.19,1.617.517,1.29a1.981,1.981,0,0,0,.078-1.884Zm-31.152-3.255c0-.447-7.511-4.309-10.94-5.625-.965-.37-1.492.138-1.6,1.54s.1,1.676.626.825c.612-.99,1.942-.737,6.1,1.161C398.47,6128.1,397.947,6127.911,397.947,6127.308Zm33.783-7.226,3.067-4.273,1.2,2.8c.658,1.54,1.216,2.217,1.241,1.5a7.484,7.484,0,0,0-.918-3.09c-.721-1.348-.458-2.437,1.055-4.36,1.108-1.409,1.788-2.563,1.509-2.563-1.395,0-11.42,14.238-11.321,16.078.108,1.993.141,2,.61.146a27.735,27.735,0,0,1,3.562-6.24Zm54.22,4.77c-.334-.539.558-1.509,1.979-2.157,2.107-.96,2.769-.915,3.589.242s.914,1.128.481-.228c-.338-1.063.394-2.248,2.069-3.346,1.781-1.167,2.713-1.344,2.972-.566a1.659,1.659,0,0,0,1.4,1.134c.659,0,.624-.48-.1-1.35-.881-1.061-.549-1.725,1.55-3.1,1.822-1.194,2.791-1.39,3.049-.616.622,1.864,2.035,1.281,1.534-.633-.518-1.98,3.66-4.817,5.458-3.705.616.381.863.118.585-.622s1.088-2.174,3.262-3.412c3.457-1.97,3.834-2.007,4.936-.492,1.056,1.451,1.132,1.4.657-.442-.386-1.5.16-2.539,1.947-3.71,1.366-.9,2.484-2.142,2.484-2.772s-1.24.044-2.756,1.5c-2.224,2.13-3.006,2.4-4.056,1.413s-1.212-.941-.845.248c.6,1.935-4.7,5.183-7.173,4.4-1.353-.43-1.725-.208-1.339.8.316.82-.548,2.1-2.1,3.118-2.177,1.426-2.8,1.494-3.584.391-.737-1.031-.833-.96-.427.314.731,2.291-3.873,5.317-5.736,3.771-1.05-.872-1.235-.73-.875.672a2.9,2.9,0,0,1-1.642,3.07c-1.81,1.116-2.3,1.048-3.535-.492-1.353-1.683-1.4-1.662-.845.368.722,2.635-2.427,4.856-4.27,3.013-.624-.624-1.134-.795-1.134-.382,0,1.087,1.943,4.557,2.551,4.557.282,0,.241-.44-.089-.979Zm-89.062-4.845c-1.232-2.193-2.394-3.833-2.582-3.645s.634,2.168,1.826,4.4,2.354,3.873,2.582,3.645S398.12,6122.2,396.888,6120.007Zm63.832,1.87c-.772-2.214-.723-3.346.19-4.447,1.018-1.227.952-1.372-.389-.857a2.6,2.6,0,0,0-1.6,2.234c.037,2.676,1.146,6.04,2.017,6.04.449,0,.353-1.336-.219-2.97Zm-17.978-.525c1.8-1.442,1.769-1.462-.549-.359-3.01,1.434-3.568,1.888-2.318,1.888a6.914,6.914,0,0,0,2.867-1.529Zm-84.867-1.912c-.563-2.943-1.765-3.155-3.156-.557-1.444,2.7-1.307,3.015,1.3,3.015C357.969,6121.9,358.268,6121.5,357.875,6119.44Zm109.882-.492c1.357-3.275,1.9-3.512,3.982-1.728.785.672.677.381-.237-.647-1.506-1.69-1.525-2.16-.2-4.909s1.327-2.864-.056-1.132a7,7,0,0,0-1.522,2.81c0,.5-.641.654-1.425.353-.921-.353-1.244-.074-.912.79.283.735-.193,2.7-1.059,4.374s-1.171,3.039-.682,3.039,1.439-1.328,2.112-2.95Zm-82.88-4.168c-.234-1.223-.437-.453-.447,1.71s.182,3.163.427,2.223a11.082,11.082,0,0,0,.038-3.933Zm56.249-1.24c.044-1.623-.112-1.709-.9-.492a8.307,8.307,0,0,0-.9,3.933c.049,2.252.127,2.293.9.492A12.864,12.864,0,0,0,441.126,6113.54Zm3.092-2.6-1.035-3.3.489,3.319c.267,1.825.554,4.48.635,5.9l.149,2.581.4-2.6a15.9,15.9,0,0,0-.636-5.9Zm-51.609,2.791a12.709,12.709,0,0,0-1.358-4.179c-1.422-2.45-1.517-.957-.108,1.678,1.571,2.934.422,3.292-2.922.91-2.523-1.8-3.009-2.857-3.316-7.236-.353-5.035-.365-5.014-.542,1.179-.1,3.47.074,6.052.389,5.737s2.146.5,4.071,1.8c4.255,2.888,4.09,2.883,3.785.108Zm83.089-5.554a2.051,2.051,0,0,1-.687-2.544c.554-1.443.421-1.517-.84-.47-1.195.992-1.794,1-2.972.018-.811-.673-1.469-.838-1.462-.366,0,1.045,6.191,5.212,6.841,4.617.257-.234-.141-.8-.881-1.255Zm-32.521-2.238c0-.575-.625-.48-1.475.226a5.456,5.456,0,0,0-1.475,1.564c0,.187.664.086,1.475-.226S443.177,6106.489,443.177,6105.94Zm13.837-.758a.952.952,0,0,0,.911-.983c0-.541-.553-.872-1.229-.737-.691.138-1.365-.938-1.54-2.458-.234-2.041.127-2.732,1.475-2.818,1.644-.106,1.649-.15.067-.564-1.144-.3-1.721-1.413-1.721-3.327,0-2.042.5-2.911,1.721-2.992,1.639-.108,1.639-.136,0-.564-2.017-.526-2.458-6.158-.492-6.282.983-.062.983-.177,0-.574-1.453-.586-1.676-6.231-.245-6.231a1.017,1.017,0,0,0,.983-1.042c0-.572-.443-.767-.983-.433-.574.354-.984-.645-.984-2.4,0-1.655.442-3.008.984-3.008a1.017,1.017,0,0,0,.983-1.041c0-.573-.446-.766-.99-.43s-1.245-.19-1.557-1.171c-1.413-4.444-2.247-5.646-1.68-2.421.4,2.263.149,3.568-.792,4.164-1.1.695-1.028.872.349.884,1.253.011,1.72.817,1.72,2.965,0,2.11-.489,2.982-1.72,3.063-1.639.109-1.639.136,0,.564,2.218.58,2.441,6.2.245,6.2-.811,0-1.475.429-1.475.952s.664.7,1.475.387c1.116-.428,1.475.177,1.475,2.489,0,2.21-.476,3.086-1.721,3.169-1.639.108-1.639.135,0,.563,2.673.7,2.306,6.033-.491,7.158l-2.213.889,2.324.062c2.013.054,2.266.457,1.891,3.013-.238,1.622-.067,2.949.38,2.949s.864.775.927,1.721c.108,1.639.134,1.639.564,0,.245-.946.859-1.721,1.361-1.721Zm22.889-3.758c1.518.849,1.594.741.6-.854-1.569-2.511,2.28-9.335,4.773-8.461,1.317.462,1.414.319.477-.694-1.68-1.816,1.163-7.286,3.351-6.446,1.257.482,1.325.326.364-.833-1.719-2.072,1.213-7.622,3.618-6.849,1.39.446,1.446.361.293-.455-2.34-1.659.309-6.448,3.168-5.728,2.045.515,2.069.465.386-.795-1.49-1.115-1.6-1.711-.658-3.477.627-1.172.924-2.348.659-2.612s-.773.436-1.129,1.559-1.268,2.04-2.026,2.04c-.787,0-1.148.6-.841,1.4.831,2.167-1.48,5.734-3.271,5.046-1.249-.479-1.316-.321-.353.837,1.783,2.148-1.4,8.118-3.426,6.433-1.674-1.389-1.919.135-.286,1.77,1.7,1.7-1.542,6.3-3.835,5.439-1.495-.56-1.545-.431-.392.988,1.133,1.393,1.014,2.136-.818,5.1-1.179,1.908-2.624,3.469-3.211,3.469s-.788.279-.446.621.171,1.558-.382,2.7c-.884,1.836-.845,1.89.324.454.982-1.208,1.773-1.377,3.063-.655Zm-93.263-2.141a2.287,2.287,0,0,0-1.779-.968c-.7.007-.582.4.3.968,1.889,1.221,2.229,1.221,1.475,0Zm-2.261-17.4c7.8-4.572,7.254-6.252-.6-1.858a56.56,56.56,0,0,1-6.932,3.526c-.346,0,1.227-3.565,3.494-7.922,3.82-7.343,4.537-8.131,9.81-10.793,5.538-2.8,8.039-4.883,5.852-4.883a20.339,20.339,0,0,0-4.975,1.987c-2.142,1.092-3.894,1.795-3.894,1.561,0-.983,8.027-14.249,9.125-15.082a36.584,36.584,0,0,1,6.115-2.683c5.159-1.861,7.1-3.1,6.232-3.968-.286-.287-2.616.407-5.178,1.54s-4.815,1.9-5,1.714,2.04-3.864,4.956-8.162c4.393-6.475,5.93-7.992,8.953-8.84,4.355-1.222,6.05-3.94,1.791-2.872-3.144.789-3.275,1.112,3.654-9.017,2.615-3.823,4.753-7.252,4.753-7.621,0-2.1-2.238.231-6.961,7.245s-5.364,7.626-5.646,5.35c-.519-4.2-2.594-2.186-3.124,3.036-.374,3.685-1.641,6.541-5.306,11.968-2.649,3.921-5,7.129-5.233,7.129s-.275-2.1-.1-4.671-.126-4.891-.667-5.162c-.6-.3-1.1,2.287-1.271,6.6-.256,6.283-.772,7.938-4.538,14.546l-4.25,7.457-.658-4.96c-1.06-8-2.945-6.191-2.265,2.169.578,7.12.573,7.139-4.266,15.978l-4.846,8.849V6077.4c0-3.759-.44-6.637-1-6.637-.575,0-.984,3.293-.984,7.911v7.91l3.639-.682a38.239,38.239,0,0,0,9.341-4.025Zm128.608,52.739c0-.573.443-.768.983-.434s.984.8.984,1.041-.443.434-.984.434A1.017,1.017,0,0,1,512.987,6134.622Zm59.072-.516c.048-1.145.279-1.378.594-.594a1.983,1.983,0,0,1-.078,1.885c-.327.326-.559-.255-.517-1.291Zm-72.592-1.087a8.049,8.049,0,0,1,3.441,0c.947.247.171.449-1.72.449S498.521,6133.266,499.467,6133.019Zm55.8-.6c0-1.36,3.067-6.794,3.563-6.3.26.259-.435,1.96-1.544,3.778s-2.017,2.953-2.02,2.521Zm28.678-1.181a11.925,11.925,0,0,1,.816-3.933c1.076-2.505,1.076.08,0,3.442-.633,1.976-.793,2.072-.816.491Zm-55.019-3.782c.607-1.975,1.461-3.592,1.9-3.592s.278,1.217-.353,2.7c-1.822,4.288-2.756,4.824-1.548.888Zm71.573,1.57a14.363,14.363,0,0,1,1.959-3.687c2.315-3.495,2.593-2.588.467,1.524-1.451,2.805-2.44,3.687-2.427,2.163Zm-329.974-1.6a1.542,1.542,0,0,0-1.96-.94c-.766.293-1.393.092-1.393-.449,0-.874,3.024-2.628,3.369-1.954.074.148.7,1,1.382,1.9.848,1.112.913,1.838.208,2.274-.571.353-1.293-.022-1.6-.833Zm246.391-.208c-3.22-1.319-3.252-1.373-.492-.839a9.867,9.867,0,0,1,3.884,1.484c1.177,1.152.839,1.087-3.392-.645Zm22.123-.408c-3.844-2.546-2.477-2.549,1.7,0,1.771,1.08,2.777,1.962,2.236,1.96a12.719,12.719,0,0,1-3.933-1.956Zm-295.8-3.529c-2.061-1.4-3.52-2.772-3.243-3.049.474-.474,7.516,4.416,7.516,5.219,0,.657-.447.43-4.273-2.17Zm324.81,1.255a18.78,18.78,0,0,1,3.2-2.613l3.2-2.308-2.384,2.614C570.02,6124.466,568.048,6125.6,568.048,6124.54Zm-15.564-4.117a11.934,11.934,0,0,1,.816-3.933c1.076-2.506,1.076.079,0,3.441-.633,1.976-.793,2.072-.816.491Zm37.933-2.038c-1.487-.807-2.7-1.674-2.7-1.927,0-.949,1.554-.354,3.933,1.507C594.569,6120.25,594.131,6120.4,590.417,6118.385Zm-71.039-1.4c-2.505-1.076.078-1.076,3.441,0,1.977.633,2.073.793.492.816A11.533,11.533,0,0,1,519.378,6116.981Zm80.212-.573c.048-1.146.278-1.379.594-.594a1.98,1.98,0,0,1-.078,1.884c-.327.327-.559-.254-.517-1.29ZM134.438,6116a.958.958,0,0,1,.926-.983,2.109,2.109,0,0,1,1.533.983c.335.541-.082.983-.925.983S134.438,6116.539,134.438,6116Zm398.553-.337c.361-1,.92-2.877,1.247-4.179s.966-2.367,1.42-2.367.138,1.66-.7,3.688c-1.585,3.822-3.114,6.047-1.966,2.858Zm30.142.085c0-.139-.435-1.768-.966-3.621-.54-1.883-.571-2.964-.071-2.452,1.112,1.137,2.452,6.325,1.633,6.325-.327,0-.6-.113-.6-.252Zm-425.745-2.7a.983.983,0,1,1,.983.984A.986.986,0,0,1,137.388,6113.048Zm131.754-1.966c0-1.082.35-1.967.773-1.967s.772.885.772,1.967-.349,1.966-.772,1.966S269.142,6112.164,269.142,6111.082Zm222.585-10.221c11.279-11.03,12.514-12.561,11.307-14.021-1.238-1.5-1.169-1.522.813-.288,2.683,1.67,4,.6,2.152-1.748-1.252-1.6-1.219-1.626.393-.36,1.225.962,2.075,1.071,2.789.356s.7-1.228-.041-1.687a2.381,2.381,0,0,1-1.068-1.774c0-.612.587-.31,1.3.67,1.231,1.684,1.576,1.591,6.145-1.643,5.414-3.832,11.615-7.581,9.135-5.522-.883.733-3.676,2.781-6.205,4.55-3.768,2.636-4.491,3.613-4,5.408.524,1.917.462,1.974-.492.449-.6-.957-1.513-1.48-2.029-1.161a1.088,1.088,0,0,0-.381,1.485c.309.5-.126.64-.967.318-1.837-.705-1.995.672-.3,2.576,1.041,1.168.973,1.185-.449.112-2.309-1.743-4.235-.463-2.549,1.695,1.144,1.462,1.1,1.491-.45.278s-3.035-.149-14.749,10.667l-13.021,12.023ZM544,6110.6c-1.6-1.309-2.676-2.616-2.387-2.905s1.792.8,3.341,2.415c3.386,3.535,3.008,3.729-.955.49Zm32.9,1.609a6.225,6.225,0,0,1,1.966-2.6c1.082-.979,1.967-1.367,1.967-.862a5.657,5.657,0,0,1-1.967,2.6C577.782,6112.272,576.9,6112.66,576.9,6112.208Zm114.548-.143a2.009,2.009,0,0,1,1.532-2.949c.509,0,.925.884.925,1.966C693.9,6113.156,692.473,6113.728,691.446,6112.065Zm-557.009-.983a.984.984,0,1,1,.984.983A.986.986,0,0,1,134.437,6111.082Zm100.745-1.475c.408-1.081,1.17-3.446,1.691-5.254s1.181-3.054,1.466-2.77c.678.678-1.589,7.739-2.891,9.008-.686.669-.771.354-.267-.984Zm443.55.6c-.669-1.083,1.836-3.287,2.725-2.4a3.188,3.188,0,0,1,.647,1.958C682.1,6111.236,679.57,6111.566,678.732,6110.211Zm-423.375-2.594c-1.7-2.047-.446-3.04,1.448-1.147a5.732,5.732,0,0,1,1.522,2.084c0,1.092-1.742.542-2.969-.937Zm-7.695-3.568c-4.278-3.823-3.512-4.6.893-.908,1.859,1.558,3.158,3.061,2.888,3.34S249.471,6105.665,247.662,6104.049Zm302.333-.34a6.087,6.087,0,0,1,.323-3.687c.772-1.922.9-1.727.952,1.474.067,3.91-.349,4.629-1.276,2.213Zm-16.2-3.493c.575-1.649,1.177-2.866,1.337-2.7.609.619-.786,5.7-1.565,5.7-.449,0-.346-1.35.227-3Zm-210.763-8.454-1.66-10.752-11.945-17.981c-6.57-9.89-11.8-18.126-11.614-18.3.353-.343,2,2.049,14.2,20.637l7.744,11.8.682-3.442c.656-3.31.674-3.282.476.738-.112,2.3.134,4.178.551,4.178,1.068,0,10.6-13.159,14.428-19.911,1.761-3.109,3.414-5.653,3.673-5.653,1.31,0-8.743,16.3-14.612,23.7l-2.811,3.54,1.606,9.422c.883,5.182,1.457,10.178,1.275,11.1s-1.078-3.158-1.99-9.071Zm234.464,7.064c-.653-2.127-.992-4.062-.754-4.3.678-.678,2.566,4.918,2.237,6.63-.163.845-.83-.2-1.483-2.331Zm10.121-.038c.913-3.761,2.24-7.372,2.709-7.372.608,0-1.8,8.7-2.642,9.537-.43.431-.461-.543-.066-2.165Zm10.043-2.52c1.388-2.121,2.683-3.7,2.876-3.5.575.575-3.054,6.45-4.276,6.923C575.646,6099.927,576.264,6098.389,577.664,6096.268Zm107.39,2.522c0-1.012.644-1.5,1.721-1.287,2.073.4,1.941,2.144-.193,2.589a1.2,1.2,0,0,1-1.527-1.3Zm-219.186-1.065c.049-1.145.279-1.378.594-.594a1.973,1.973,0,0,1-.078,1.885c-.327.326-.559-.254-.516-1.291Zm-201.987-5.08c-.327-1.487-.888-3.81-1.252-5.162-1.153-4.294.69-1.37,2.108,3.345.749,2.487.995,4.521.548,4.521s-1.079-1.216-1.4-2.7Zm203.048.738c0-1.352.224-1.9.5-1.23a3.8,3.8,0,0,1,0,2.458c-.271.676-.5.123-.5-1.229Zm-192.539-1.414c.3-.777,1.039-3.255,1.645-5.507s1.3-3.894,1.546-3.65c.764.765-1.846,10.571-2.813,10.571-.506,0-.676-.636-.377-1.414Zm250.887-1.536c-.368-1.163-.45-2.336-.178-2.606s.793.46,1.163,1.623.45,2.336.178,2.606S525.646,6091.6,525.277,6090.433Zm-57.442-1.557c.048-1.145.279-1.378.594-.594a1.98,1.98,0,0,1-.078,1.885c-.327.326-.559-.255-.516-1.291Zm-321.6-2.376a.983.983,0,1,1,.983.983A.986.986,0,0,1,146.237,6086.5Zm415.421,0-2.95-.751,2.95-.1a9.375,9.375,0,0,1,4.424.852c1.311.847,1.311.942,0,.852A33.622,33.622,0,0,1,561.658,6086.5Zm-92.84-1.557c.049-1.145.279-1.378.6-.594a1.983,1.983,0,0,1-.078,1.885C469.008,6086.56,468.776,6085.979,468.818,6084.943Zm-322.037-1.309a1.095,1.095,0,1,1,1.507.356A1.1,1.1,0,0,1,146.781,6083.634Zm425.064-2.106c-2.2-1.916-2.208-1.967-.163-.978a8.112,8.112,0,0,1,2.761,2.022c.967,1.564-.093,1.138-2.6-1.044Zm-102.072.36c-.089-2.1,5.007-15.422,7.823-20.461,2.168-3.878,2.691-5.954,2.48-9.832-.148-2.7-.085-3.589.138-1.966.747,5.461,1.165,5.732,3.874,2.513a20.912,20.912,0,0,1,4.6-4.136c1.116-.6,0,.978-2.493,3.5-5.8,5.886-9.124,11.616-13.138,22.667-1.775,4.887-3.25,8.358-3.277,7.714Zm-202.337-5.926a17.5,17.5,0,0,1,4.916.015c1.209.234,0,.418-2.718.411s-3.693-.2-2.2-.424Zm-119.123-4.32c-.606-1.737-.93-3.331-.719-3.542s.878,1.04,1.484,2.777.929,3.332.718,3.542S148.918,6073.38,148.313,6071.642Zm131.4-.636c-1.487-.922-2.7-2.016-2.7-2.432,0-1.448,1.64-.738,3.933,1.7,2.7,2.875,2.462,3.017-1.229.729Zm-97.1-.679c0-.27,1.328-1.178,2.95-2.017s2.95-1.3,2.95-1.034-1.328,1.178-2.95,2.017-2.95,1.3-2.95,1.034Zm136.218-5.988c-.381-3.044-.488-5.74-.238-5.989s.765,2.037,1.145,5.082.488,5.74.238,5.989S319.215,6067.384,318.835,6064.339Zm-1.369-10.626a13.9,13.9,0,0,0-2-6.391c-2.267-3.2-10.946-20.284-10.889-21.44.037-.459,1.824,2.705,4,7.032,5.229,10.378,6.649,12.481,7.9,11.707.681-.421.815.081.382,1.443-1.434,4.52.622,1.729,3.548-4.815,1.7-3.8,3.251-6.741,3.452-6.541s-.849,2.976-2.331,6.168a44.174,44.174,0,0,0-3.311,11.211c-.512,4.491-.64,4.767-.761,1.627Zm-142.637,1.929c-.182-2.052,2.293-8.473,3.274-8.487,1.019-.015,15.989-8.06,21.229-11.409,2.211-1.413,2.187-1.334-.241.78-1.484,1.294-6.9,4.55-12.029,7.236-8.427,4.41-9.468,5.265-10.744,8.816-.777,2.164-1.448,3.542-1.491,3.064Zm174.683-7.843c-.411-1.006-.457-6.609-.1-12.45l.645-10.621-3.888-6.231c-5.177-8.3-7.766-14.637-10.149-24.857-2.154-9.238-2.42-11.752-1.163-10.975.45.278,1.367,3.069,2.038,6.2,2.439,11.377,6.005,21.551,9.513,27.138,1.971,3.139,3.726,5.565,3.9,5.391s1.241-4.852,2.371-10.4c3.518-17.259,12.729-40.023,19.651-48.561,3.156-3.894,3.266-1.295.141,3.335-3.576,5.3-12.539,23.74-13.469,27.711l-.668,2.852,4.323-.686c5.917-.94,13.291-4.455,22.064-10.521,4.058-2.8,7.688-4.793,8.064-4.416s.238.992-.308,1.368-3.631,2.5-6.854,4.727c-8.9,6.139-15.9,9.344-21.722,9.945-2.9.3-5.75,1.126-6.34,1.837-1.981,2.388-5.936,25.2-6.62,38.182-.394,7.477-.99,12.089-1.426,11.024Zm-173.762-3.332c0-1.444.163-1.488.93-.274,1.069,1.691.694,2.542,4.414-10,1.774-5.98,2.423-10.117,2.158-13.765-.208-2.869-.19-3.813.041-2.1.813,6.063,2.619,6.038,9.649-.134,3.515-3.086,6.39-5.242,6.389-4.791s-3.45,3.735-7.662,7.3c-5.9,4.985-7.918,7.362-8.78,10.324-.616,2.117-1.845,6.393-2.732,9.5-1,3.493-2.148,5.653-3.016,5.653a1.574,1.574,0,0,1-1.39-1.72ZM315.6,6039.8c0-2.163.212-2.932.447-1.709a10.366,10.366,0,0,1-.037,3.933c-.246.94-.439-.06-.427-2.224Zm-141.289-1.038c-.372-1.973-.477-3.784-.234-4.024s.74,1.177,1.11,3.15.476,3.785.234,4.025S174.685,6040.732,174.315,6038.758Zm139.266-12.727c-.7-5.408-1.541-11.16-1.855-12.782s-.3-2.7.037-2.4c.9.819,3.806,20.089,3.432,22.732-.179,1.255-.9-2.142-1.607-7.55Zm-140.641,5.408c0-1.352.223-1.9.5-1.229a3.817,3.817,0,0,1,0,2.458c-.272.675-.5.122-.5-1.23Zm151.865-.492c.809-3.615,1.371-4.4,1.351-1.885a7.057,7.057,0,0,1-1.013,3.36c-.728,1.077-.82.679-.338-1.475Zm-153.495-6.391c-.378-2.236-.48-4.272-.23-4.524s.753,1.386,1.113,3.639.464,4.289.227,4.524-.736-1.4-1.113-3.639Zm14.359-3.933c0-1.7,4.649-13.779,4.729-12.291a46.073,46.073,0,0,1-2.338,7.375C186.746,6019.222,185.67,6021.434,185.669,6020.623Zm-3.767-11.8c0-2.433.194-3.429.426-2.212a14.03,14.03,0,0,1,0,4.424c-.234,1.217-.426.221-.426-2.212Zm128.615-.573c.048-1.146.279-1.379.594-.6a1.981,1.981,0,0,1-.078,1.885c-.327.327-.559-.254-.516-1.29Zm-119.686-3.36c.349-1.352.916-4.127,1.257-6.167s.966-3.922,1.389-4.184c.868-.536-1.748,11.436-2.682,12.271-.33.3-.315-.568.038-1.92Zm-14.455-8.6c-2.106-22.3,1.611-47.189,8.32-55.718,1.1-1.4,2.391-2.54,2.871-2.54,3.424,0,7.844,11.653,9.7,25.565,1.147,8.613,2.5,36.38,1.776,36.38-.271,0-1.411-1.549-2.527-3.442s-2.526-3.441-3.132-3.441-4.3,2.212-8.213,4.916a75.739,75.739,0,0,1-7.638,4.917c-.29,0-.81-2.987-1.154-6.637Zm19.343-5.558c.668-1.74-.123-2.568-1.828-1.913a1.457,1.457,0,0,0-.782,1.9c.684,1.781,1.929,1.788,2.609.015Zm-10.377-5.319c.216-.643-.312-1.168-1.167-1.168a1.562,1.562,0,0,0-1.557,1.557C182.618,5987.536,184.734,5987.234,185.342,5985.411Zm9.075-9.526a1.479,1.479,0,0,0-1.475-1.474c-1.535,0-1.951,1.162-.819,2.294s2.294.716,2.294-.819Zm-9.075-6.206c.216-.642-.312-1.168-1.167-1.168a1.562,1.562,0,0,0-1.557,1.557C182.618,5971.8,184.734,5971.5,185.342,5969.679Zm5.9-7.866c.215-.643-.312-1.168-1.168-1.168a1.562,1.562,0,0,0-1.557,1.557C188.517,5963.938,190.634,5963.636,191.242,5961.813Zm-3.708-15.425c0-.811-.416-1.475-.925-1.475-1.24,0-2.128,1.536-1.343,2.321,1.108,1.108,2.268.675,2.268-.846Zm-80.625-36.872a.984.984,0,1,1,.983.984A.986.986,0,0,1,106.909,5909.516Zm-.984-4.482c0-.843.45-1.255,1-.916a1.132,1.132,0,0,1,.434,1.533C106.515,5907.015,105.925,5906.761,105.925,5905.034Zm24.581-3.384a1.017,1.017,0,0,1,1.042-.983c.572,0,.767.443.433.983s-.8.984-1.041.984S130.506,5902.191,130.506,5901.65Zm-19.078-12.628a1.216,1.216,0,0,1,.446-1.659c1.512-.934,2.487.346,1.225,1.607-.707.706-1.256.724-1.671.052Zm-1.571-4.087a.983.983,0,1,1,.984.984A.987.987,0,0,1,109.857,5884.935Zm18.682-12.84c0-.573.443-.768.984-.434s.983.8.983,1.042-.443.433-.983.433A1.017,1.017,0,0,1,128.539,5872.1Zm2.95-4.858a1.016,1.016,0,0,1,1.041-.983c.573,0,.768.442.434.983s-.8.983-1.042.983S131.489,5867.778,131.489,5867.237Zm-15.732-1.533c0-.843.442-1.259.983-.925a2.109,2.109,0,0,1,.984,1.533.959.959,0,0,1-.984.925C116.2,5867.237,115.757,5866.547,115.757,5865.7Zm1.967-2.4a.983.983,0,1,1,.983.983A.986.986,0,0,1,117.724,5863.3Zm-2.8-1.917c.423-1.268,1.771-1.5,1.893-.32.041.392-.457.89-1.106,1.106s-1-.138-.786-.786Zm16.568-7.915a.983.983,0,1,1,.983.983A.987.987,0,0,1,131.489,5853.472Zm4.916-15.732a1.017,1.017,0,0,1,1.042-.983c.572,0,.767.442.433.983s-.8.983-1.041.983S136.4,5838.281,136.4,5837.74Zm-8.849-1.533c0-.843.45-1.255,1-.915a1.132,1.132,0,0,1,.433,1.533C128.145,5838.188,127.556,5837.934,127.556,5836.207Zm0-3.383a.983.983,0,1,1,.983.983A.987.987,0,0,1,127.556,5832.824Zm1.967-5.288a6.188,6.188,0,0,1,1.72-1.72c1.559-1.223,1.594-1.189.372.371C130.33,5827.825,129.523,5828.346,129.523,5827.536Z" fill="rgba(227,208,106,0.99)"/>
  </g>
</svg>
