<?xml version="1.0" encoding="UTF-8" standalone="no"?>
<svg
   xmlns:dc="http://purl.org/dc/elements/1.1/"
   xmlns:cc="http://creativecommons.org/ns#"
   xmlns:rdf="http://www.w3.org/1999/02/22-rdf-syntax-ns#"
   xmlns:svg="http://www.w3.org/2000/svg"
   xmlns="http://www.w3.org/2000/svg"
   xmlns:sodipodi="http://sodipodi.sourceforge.net/DTD/sodipodi-0.dtd"
   xmlns:inkscape="http://www.inkscape.org/namespaces/inkscape"
   width="8.3655005mm"
   height="8.3620996mm"
   viewBox="0 0 8.3655005 8.3620996"
   version="1.1"
   id="svg1678"
   inkscape:version="1.0.2 (e86c870879, 2021-01-15, custom)">
  <defs
     id="defs1672" />
  <sodipodi:namedview
     id="base"
     pagecolor="#ffffff"
     bordercolor="#666666"
     borderopacity="1.0"
     inkscape:pageopacity="0.0"
     inkscape:pageshadow="2"
     inkscape:zoom="0.36061947"
     inkscape:cx="510.09102"
     inkscape:cy="284.63675"
     inkscape:document-units="mm"
     inkscape:current-layer="layer1"
     inkscape:document-rotation="0"
     showgrid="false"
     inkscape:window-width="1920"
     inkscape:window-height="1001"
     inkscape:window-x="-9"
     inkscape:window-y="1071"
     inkscape:window-maximized="1" />
  <metadata
     id="metadata1675">
    <rdf:RDF>
      <cc:Work
         rdf:about="">
        <dc:format>image/svg+xml</dc:format>
        <dc:type
           rdf:resource="http://purl.org/dc/dcmitype/StillImage" />
        <dc:title></dc:title>
      </cc:Work>
    </rdf:RDF>
  </metadata>
  <g
     inkscape:label="Layer 1"
     inkscape:groupmode="layer"
     id="layer1"
     transform="translate(29.12825,-72.856527)">
    <path
       style="display:inline;fill:#447167;fill-opacity:1;stroke-width:0.0383702"
       d="m -26.15395,81.083427 c -0.1689,-0.074 -0.4823,-0.2043 -0.6966,-0.2894 -0.2143,-0.085 -0.4155,-0.1751 -0.4472,-0.2 -0.05,-0.04 -0.04,-0.118 0.086,-0.6378 l 0.1441,-0.5926 -0.1097,-0.092 -0.1096,-0.092 -0.4505,0.1019 c -0.2478,0.056 -0.5158,0.1164 -0.5955,0.1342 -0.1675,0.037 -0.1008,0.1477 -0.5309,-0.878 -0.1453,-0.3464 -0.2642,-0.6498 -0.2642,-0.6739 0,-0.024 0.069,-0.083 0.1539,-0.1306 0.085,-0.047 0.3135,-0.1868 0.5085,-0.3093 0.3442,-0.2164 0.3548,-0.2272 0.3661,-0.3785 0.01,-0.1301 0,-0.1634 -0.077,-0.202 -0.2399,-0.1257 -0.9517,-0.5866 -0.9517,-0.6162 0,-0.019 0.067,-0.1934 0.1483,-0.3884 0.082,-0.1951 0.2228,-0.5325 0.314,-0.75 0.091,-0.2174 0.1774,-0.4026 0.1918,-0.4115 0.027,-0.016 0.3547,0.047 0.8957,0.173 l 0.3112,0.073 0.1,-0.095 0.1,-0.095 -0.085,-0.3533 c -0.047,-0.1942 -0.1114,-0.4686 -0.1434,-0.6097 l -0.058,-0.2566 0.2546,-0.1049 c 0.14,-0.057 0.4925,-0.2055 0.7832,-0.3286 0.2907,-0.123 0.5364,-0.2237 0.546,-0.2237 0.01,0 0.098,0.1252 0.1961,0.2782 0.549,0.8543 0.5065,0.8018 0.639,0.7889 0.1105,-0.011 0.1511,-0.058 0.438,-0.5107 0.174,-0.2744 0.322,-0.5138 0.3288,-0.5321 0.01,-0.019 0.1845,0.038 0.3947,0.1263 0.2102,0.088 0.5608,0.231 0.7792,0.3182 0.2184,0.087 0.4058,0.1812 0.4164,0.209 0.011,0.028 -0.042,0.3052 -0.1163,0.6168 l -0.1356,0.5664 0.1035,0.1054 c 0.094,0.095 0.1165,0.1017 0.2373,0.067 0.2985,-0.086 1.0528,-0.2272 1.0745,-0.2007 0.037,0.046 0.6515,1.5002 0.6515,1.5426 0,0.015 -0.233,0.1711 -0.5179,0.3469 l -0.5181,0.3197 v 0.1567 0.1568 l 0.4477,0.2686 c 0.2461,0.1477 0.4807,0.2954 0.5213,0.3282 0.082,0.066 0.114,-0.028 -0.3945,1.1682 l -0.1794,0.4221 -0.1699,-0.01 c -0.093,-0.01 -0.3735,-0.055 -0.6225,-0.1124 l -0.4526,-0.1049 -0.096,0.096 -0.096,0.096 0.1364,0.5418 c 0.075,0.2979 0.1364,0.5746 0.1364,0.6147 0,0.053 -0.065,0.1 -0.2398,0.1719 -0.1319,0.054 -0.4699,0.1951 -0.7511,0.3127 -0.2812,0.1175 -0.5345,0.2138 -0.5628,0.2138 -0.028,0 -0.1949,-0.2331 -0.3705,-0.5181 -0.3142,-0.5103 -0.321,-0.5179 -0.4574,-0.5179 -0.1362,0 -0.1433,0.01 -0.4592,0.5179 -0.1913,0.3088 -0.3449,0.5177 -0.3803,0.5171 -0.033,0 -0.1976,-0.061 -0.3665,-0.1357 z m 0.3731,-0.7362 c 0.092,-0.1424 0.2277,-0.3517 0.3007,-0.465 l 0.1327,-0.2061 h 0.4015 0.4015 l 0.1161,0.1769 c 0.064,0.097 0.1938,0.306 0.2888,0.4639 0.095,0.1579 0.1867,0.2876 0.2039,0.2882 0.078,0 0.7939,-0.3201 0.7945,-0.3586 0,-0.024 -0.054,-0.2681 -0.1212,-0.5431 l -0.1219,-0.5 0.2861,-0.2918 0.286,-0.2917 0.5483,0.1243 c 0.4882,0.1108 0.5507,0.1177 0.5706,0.063 0.013,-0.034 0.089,-0.2157 0.1693,-0.404 0.081,-0.1884 0.1471,-0.3461 0.1471,-0.3507 0,-0.01 -0.2164,-0.1423 -0.4809,-0.3061 l -0.4808,-0.2979 0.011,-0.4021 0.011,-0.4022 0.4413,-0.2827 c 0.2426,-0.1555 0.4545,-0.2871 0.4707,-0.2925 0.016,-0.01 -0.044,-0.1911 -0.1334,-0.4125 -0.09,-0.2215 -0.1646,-0.4067 -0.1665,-0.4117 0,-0.01 -0.2501,0.044 -0.5517,0.1083 l -0.5482,0.1174 -0.2789,-0.2618 c -0.1535,-0.144 -0.2811,-0.293 -0.2837,-0.3312 0,-0.038 0.047,-0.2746 0.1104,-0.5254 0.063,-0.2507 0.1151,-0.4748 0.1151,-0.4979 0,-0.042 -0.1534,-0.1176 -0.5837,-0.2899 l -0.2191,-0.088 -0.1862,0.2939 c -0.1024,0.1617 -0.2354,0.3736 -0.2957,0.4709 l -0.1095,0.1768 h -0.4153 -0.4154 l -0.2886,-0.4703 -0.2885,-0.4704 -0.1819,0.069 c -0.4156,0.158 -0.623,0.2662 -0.623,0.325 0,0.033 0.054,0.2777 0.1208,0.5429 l 0.1208,0.4823 -0.2895,0.2894 -0.2894,0.2894 -0.5483,-0.1196 c -0.3016,-0.066 -0.5518,-0.1157 -0.5561,-0.1108 -0.027,0.03 -0.3285,0.8028 -0.3176,0.8129 0.013,0.011 0.3848,0.2441 0.7744,0.4838 l 0.16,0.099 0.01,0.4101 0.01,0.4102 -0.1456,0.086 c -0.3462,0.2049 -0.8026,0.4956 -0.8026,0.5112 0,0.01 0.069,0.1786 0.1534,0.3762 0.084,0.1976 0.1535,0.3761 0.1535,0.3968 0,0.021 0.2497,-0.017 0.5547,-0.084 l 0.5548,-0.1219 0.2914,0.2859 0.2915,0.2858 -0.1171,0.4928 c -0.065,0.271 -0.1172,0.5172 -0.1172,0.5471 0,0.05 0.633,0.3507 0.774,0.3672 0.014,0 0.1014,-0.1134 0.1938,-0.2559 z m 0.3548,-1.806 c -0.4341,-0.162 -0.7369,-0.434 -0.9257,-0.8314 -0.2916,-0.614 -0.1741,-1.2869 0.3075,-1.7628 0.4861,-0.4803 1.1915,-0.5925 1.7984,-0.2861 0.4342,0.2192 0.6935,0.5636 0.8248,1.0954 0.1605,0.6503 -0.2359,1.4085 -0.9008,1.7234 -0.2972,0.1408 -0.8146,0.1696 -1.1042,0.061 z m 0.9589,-0.5475 c 0.4846,-0.2277 0.7232,-0.9072 0.4839,-1.378 -0.1939,-0.3813 -0.4806,-0.5759 -0.8919,-0.6054 -0.4618,-0.033 -0.8328,0.1802 -1.0332,0.5941 -0.2136,0.4412 -0.074,0.9908 0.3286,1.2983 0.2865,0.2186 0.759,0.2572 1.1126,0.091 z"
       id="path117918" />
  </g>
</svg>
