<svg xmlns="http://www.w3.org/2000/svg" xmlns:xlink="http://www.w3.org/1999/xlink" width="586.251" height="429.045" viewBox="0 0 586.251 429.045">
  <defs>
    <linearGradient id="linear-gradient" y1="0.5" x2="1" y2="0.5" gradientUnits="objectBoundingBox">
      <stop offset="0" stop-color="#fddd94"/>
      <stop offset="1" stop-color="#fddd94" stop-opacity="0"/>
    </linearGradient>
  </defs>
  <g id="g13972" transform="translate(0)">
    <path id="path9773-1-1" d="M-123.447-226.552C36.3-166.134,55.485-128.379,64.7-72.057-29.291,27.729-327.6,127.574-433.769,10c-47.3-38.414-56.277-90.371-73.351-148.863-24.577-70.658,100.654-97.658,122.159-119.162,9.163-9.163,1.572-69.065,59.838-78.852,78.472-13.181,84.565-1.647,103.371,13.045,32.769,25.6,98.307,97.282,98.307,97.282Z" transform="translate(510.301 342.655)" fill="url(#linear-gradient)"/>
    <g id="A-Human_Standing" data-name="A-Human/Standing" transform="translate(113.807 103.647)">
      <g id="Head_Front_Airy" data-name="Head/Front/Airy">
        <g id="Head-22" transform="translate(57.872 17.879)">
          <path id="path13573" d="M3.887,16.228A12.746,12.746,0,0,1,.5,7.07C1.2-3,15.22-.784,17.946,4.3s2.4,17.973-1.121,18.881c-1.405.362-4.4-.525-7.446-2.362l1.912,13.53H0Z" transform="translate(0 0)" fill="#b28b67" fill-rule="evenodd"/>
        </g>
        <path id="hair-7" d="M58.1,15.175c-1.488-.244-5.5-.412-6.234-.412-.472,0-.984.108-1.264-.326-.229-.355-.145-.956-.213-1.368-.079-.479-.192-.951-.306-1.423a14.466,14.466,0,0,0-1.5-3.815A11.727,11.727,0,0,0,43.024,2.8a17.849,17.849,0,0,0-8.439-1.161,37.049,37.049,0,0,0-8.63,2.186,18.087,18.087,0,0,1-8.43.812c-2.872-.441-5.041-2-7.464-3.475A13.9,13.9,0,0,0,1.817-1.112,15.878,15.878,0,0,0-5.7,1.74a12.27,12.27,0,0,0-4.85,5.5,7.533,7.533,0,0,0,.685,7.669c2.529,3.3,7.223,4.147,11.129,4.062a21.264,21.264,0,0,0,6.611-1.211c2.844-1,5.3-2.7,7.964-4.072a20.723,20.723,0,0,1,3.893-1.558,4.342,4.342,0,0,1,3.8.252,17.922,17.922,0,0,0,3.823,2.189,12.33,12.33,0,0,0,4.313.774c2.861-.022,5.681-.914,8.46-1.511a17.364,17.364,0,0,1,7-.5c.964.2,2.372.6,2.72,1.6-5.86,1.062-8.161,8.309-6.509,13.629.892,2.871,6.251,6.228,8.335,4.718,1.32-.956.519-2.212,0-3.041-.993-1.587-1.333-3.626.5-4.731,1.585-.953,3.252,1.31,3.284,1.308a20.374,20.374,0,0,0,6.8-5.271c2.559.152,2.947-1.536,2.336-2.916s-4.425-3.117-6.482-3.454Z" transform="translate(11.279 1.144)" fill="#191847" fill-rule="evenodd"/>
      </g>
      <g id="Bottom_Standing_Sprint-0" data-name="Bottom/Standing/Sprint-0" transform="translate(5.646 78.204)">
        <path id="Leg-20" d="M48.956,0c-9,7.336-5.575,71.659-6.176,72.468q-.4.54-42.78,9.188l1.22,4.978q49.574-2.46,52.463-6.14,4.137-5.268,10.225-58.927Z" transform="matrix(0.574, -0.819, 0.819, 0.574, 15.039, 53.176)" fill="#b28b67" fill-rule="evenodd"/>
        <path id="Pant-3" d="M0,79.7,2.148,87.72c24.636,2.829,40.876-.673,46.593-6.11q5.716-5.438,10.252-58.766L43,0c-21.42,16.16-8.652,69.06-9.2,70.271S20.258,72.438,0,79.7Z" transform="matrix(0.574, -0.819, 0.819, 0.574, 17.898, 48.323)" fill="#2f3676" fill-rule="evenodd"/>
        <g id="Accessories_Shoe_Flat-Sneaker-0" data-name="Accessories/Shoe/Flat-Sneaker-0" transform="translate(80.405 96.146) rotate(20)">
          <path id="shoe-05" d="M.79,2.856A10.1,10.1,0,0,0,0,6.01,23.608,23.608,0,0,0,.424,9.724H26.961Q28,6.3,25.767,6.032t-3.7-.492L9.73.041a.47.47,0,0,0-.621.238L9.1.291,8.311,2.215a8.462,8.462,0,0,1-3.353.963,7.593,7.593,0,0,1-2.895-.847h0a.941.941,0,0,0-1.248.463Q.8,2.824.79,2.856Z" transform="translate(0 0)" fill="#e4e4e4" fill-rule="evenodd"/>
        </g>
        <path id="polygon13582" d="M52.754,0,28.407,58.449,4.478,107.862h5.646L71.891,0Z" transform="translate(-3.351 13.073)" fill="#997659" fill-rule="evenodd"/>
        <g id="g13586" transform="translate(0 115.799)">
          <path id="path13584" d="M.953,6.016A10.1,10.1,0,0,0,.163,9.17a23.608,23.608,0,0,0,.424,3.714H27.125q1.034-3.42-1.194-3.692t-3.7-.492L9.893,3.2a.47.47,0,0,0-.621.238l-.005.012L8.474,5.375a8.462,8.462,0,0,1-3.353.963,7.593,7.593,0,0,1-2.895-.847h0a.941.941,0,0,0-1.248.463q-.014.031-.026.062Z" transform="translate(-0.163 -3.16)" fill="#e4e4e4" fill-rule="evenodd"/>
        </g>
        <path id="path13588" d="M5.229,97.6,17.774,99.95C27.473,85.69,68.066,27.219,72.516,0H44.589C29.727,19.677,14.475,83.1,5.229,97.6Z" transform="translate(-1.941 13.073)" fill="#5c63ab" fill-rule="evenodd"/>
      </g>
      <g id="Body_Jacket-2-6" data-name="Body/Jacket-2-6" transform="translate(5.175 41.875)">
        <path id="Skin-94" d="M92.545,22.088,109.594,14.6a40.4,40.4,0,0,1,8.652-6.786c.832-.265,2.253-.345.737,1.869s-3.011,4.611-2.405,5.387,2.36-.08,3.054,1.181q.693,1.262-8.873,3.019L97.989,29.062ZM23.621,24.151l9.641,1.913q-14.544,27.1-15.6,28.731c-1.583,2.439-.106,6.91.44,9.265-3.423.8-2.073-4.355-6.4-3.279-3.954.982-7.306,3.5-10.992.1-.453-.418-.785-1.724.76-2.393C5.315,56.821,11,53.7,11.926,52.483Q13.813,50,23.621,24.151Z" transform="translate(-0.327 14.43)" fill="#b28b67" fill-rule="evenodd"/>
        <path id="Coat-Back-73" d="M0,1.05,3.992,0c9.577,7.791,14.979,28.049,21.1,30.258,5.787,2.088,13.454-1.093,22.532-5.277l3.431,6.162c-7.71,9.958-25.17,19.329-32.913,15.529C5.765,40.6.831,15.458,0,1.05Z" transform="translate(59.231 1.463) rotate(5)" fill="#00652f" fill-rule="evenodd"/>
        <path id="Shirt-55" d="M14.712,53.637h36c1.645,0,1.335-2.375,1.1-3.574C49.064,36.23,38.351,21.319,38.351,1.628L27.967,0C19.379,13.813,16.408,30.82,14.712,53.637Z" transform="translate(26.692)" fill="#dde3e9" fill-rule="evenodd"/>
        <path id="Coat-Front-96" d="M30.465,39.632Q19.457,59.488,11.959,68.223L4.414,66.745Q11.7,21.529,46.64,0h4.111q13.983,47.664,7.71,63.518h-32.4a118.3,118.3,0,0,1,4.408-23.886Z" transform="translate(7.349)" fill="#00843e" fill-rule="evenodd"/>
      </g>
    </g>
    <g id="humaaan-8-0" transform="translate(401.959 260.71) rotate(180)">
      <g id="Head_Front_Short-Beard-3" data-name="Head/Front/Short-Beard-3" transform="matrix(0.967, -0.255, 0.255, 0.967, 72.297, 158.253)">
        <g id="Head-58" transform="translate(0.055 0)">
          <path id="path13798" d="M4.054,18.9A13.293,13.293,0,0,0,.519,28.447c.737,10.5,15.354,8.191,18.2,2.891s2.506-18.744-1.169-19.691c-1.466-.378-4.588.548-7.765,2.463L11.776,0H0Z" transform="translate(0 0)" fill="#57331f" fill-rule="evenodd"/>
        </g>
        <path id="Hair-3" d="M10.425,16.11Q11.1,6.691,14,6.691c2.9,0,5.363,1.842,6.636,1.842.928,0,.721-1.161.106-2.022-.507-.71-2.979-1.4-2.979-2.5s1.953-.249,1.953-.9c0-1.08.343-3.112-1.532-3.112-1.9,0-7.339.692-8.271,3.508q-.9,2.727-1.167,11.3a2.975,2.975,0,0,1-.351.021,2.944,2.944,0,0,1-2.057-5.05c-.681-.962-1.445-1.966-2.32-3C.733,8.748-1.706,14.52,1.507,20.065a7.271,7.271,0,0,0,5.273,4.841,8.541,8.541,0,0,0,5.606.413,18.239,18.239,0,0,0,7.091-1.889c0-3.128-.606-4.056-5.783-3.975a9.55,9.55,0,0,1-3.269-3.345Z" transform="translate(0 11.177)" fill="#191847" fill-rule="evenodd"/>
      </g>
      <g id="Bottom_Standing_Baggy-Pants-4" data-name="Bottom/Standing/Baggy-Pants-4" transform="translate(0 0)">
        <path id="Leg-75" d="M24.084,51.533,40.236,0h6.379L21.921,112.489H0Z" transform="translate(57.304 4.784)" fill="#3d2216" fill-rule="evenodd"/>
        <path id="path13804" d="M45.85,90.256c-.256-21.42-4-50.259-4.594-51.595Q40.658,37.326,0,4.7L4.393,0Q52.366,27.972,54.586,31.7c2.22,3.731,9.447,38.061,15.25,58.553Z" transform="translate(6.604 27.018)" fill="#57331f" fill-rule="evenodd"/>
        <g id="Accessories_Shoe_Flat-Sneaker-10" data-name="Accessories/Shoe/Flat-Sneaker-10" transform="matrix(0.643, -0.766, 0.766, 0.643, 0, 29.315)">
          <path id="shoe-74" d="M.823,7.163A10.536,10.536,0,0,1,0,3.874,24.621,24.621,0,0,1,.442,0H28.118Q29.2,3.566,26.872,3.851t-3.862.514L10.147,10.1A.491.491,0,0,1,9.5,9.85l-.005-.013L8.667,7.832a8.825,8.825,0,0,0-3.5-1,7.919,7.919,0,0,0-3.019.883h0a.981.981,0,0,1-1.3-.483Q.836,7.2.823,7.163Z" transform="translate(0 0)" fill="#e4e4e4" fill-rule="evenodd"/>
        </g>
        <g id="g13810" transform="translate(94.105 0)">
          <path id="path13808" d="M.823,7.163A10.536,10.536,0,0,1,0,3.874,24.621,24.621,0,0,1,.442,0H28.118Q29.2,3.566,26.872,3.851t-3.862.514L10.147,10.1A.491.491,0,0,1,9.5,9.85l-.005-.013L8.667,7.832a8.825,8.825,0,0,0-3.5-1,7.919,7.919,0,0,0-3.019.883h0a.981.981,0,0,1-1.3-.483Q.836,7.2.823,7.163Z" fill="#e4e4e4" fill-rule="evenodd"/>
        </g>
        <path id="Pant-6" d="M19.312,0,49.638,3.292,27.163,107.182H0Z" transform="translate(54.185 10.092)" fill="#69a1ac" fill-rule="evenodd"/>
        <path id="path13813" d="M0,23.546,19.892,0Q51.321,34.325,56.538,44.794t9.38,56.721H35.338q-2.274-40.69-3.066-42.584T0,23.546Z" transform="translate(12.877 15.758)" fill="rgba(209,234,219,0.93)" fill-rule="evenodd"/>
      </g>
      <g id="Body_Turtle-Neck-1" data-name="Body/Turtle-Neck-1" transform="matrix(0.967, -0.255, 0.255, 0.967, 9.768, 97.592)">
        <path id="Skin-1" d="M19.042,52.359l10.745-.04Q17.511,12.549,16.754,10.673c-1.135-2.814,1.267-7.1,2.295-9.4-3.346-1.5-2.99,4.048-7.211,2.084C7.985,1.562,5.053-1.686.6,1.061.054,1.4-.545,2.67.9,3.664,4.514,6.14,9.717,10.472,10.42,11.9q1.438,2.917,8.622,40.461Z" transform="translate(0 0)" fill="#57331f" fill-rule="evenodd"/>
        <path id="path13871" d="M25.194.563c.022.322-.18.719-.7,1.386-.85,1.079-.871,1.388-.132,1.97.669.527,1.6.845,4.258,1.459,2.379.549,2.908.884,2.354,1.493-.674.741-5.528,1.575-9.892,1.7l-2.1.059L10.095,12c-4.885,1.857-8.923,3.344-8.971,3.305S.8,13.267.517,10.856L0,6.473l8.3-1,8.3-1,2.255-1.475A22.046,22.046,0,0,1,24.4.044c.684-.1.751-.059.79.519Z" transform="translate(97.767 37.948)" fill="#57331f" fill-rule="evenodd"/>
        <path id="Clothes-Back-3" d="M0,38.814l3.6,2.357C19.142,22.16,57.057,21.062,62.508,13.8c2-2.663.513-5.094,2.01-5.519l-3.451-5.9c-1.291.628-2.325-1.994-6.7-2.373S11.14,13.151,0,38.814Z" transform="translate(47.706 40.685)" fill="#191847" fill-rule="evenodd"/>
        <path id="Clothes-Front-9" d="M50.069,67.376c-.489-31.281,17.594-39.26,13.566-51.809C60.309,5.2,28.473-5.935,22.964,4.223a31.739,31.739,0,0,0-3.357,14.491Q17.5,12.483,16.266,7.986C14.853,2.814,9.375,1.992,9.375,0L2.157,1.992c.49,2.707-2.913,4.025-2,10.072q6.132,40.642,32.95,58.919l.185,2.645a1.963,1.963,0,0,0,2.095,1.821L48.6,74.525a1.963,1.963,0,0,0,1.821-2.095Z" transform="translate(8.851 12.323)" fill="#2f3676" fill-rule="evenodd"/>
      </g>
    </g>
    <path id="path13868" d="M47.754,192.064c54.028-13.507,10.051-3.237,33.948-3.237s55.586-6.234,61.82-5.714,46.235-2.078,46.235-2.078,73.762-7.8,75.847-9.351c6.491-4.826,10.86,1.389,24.416-12.987,37.2-39.445,14.064-107.742,22.792-113.646,5.967-4.037,46.812-8.945,80.629,13.413,23.99,15.861,42.208,61.095,51.91,60.232,23.377-2.078,64.558-14.418,85.338-17.535,0,0-39.636-57.535-61.2-63.25C464.08,36.476,376.777-8.062,325.346,1.289S183,26.744,151.834,39.212,82.222,74.019,52.091,99.474-2.068,142.444.141,156.1C8.534,207.991,47.756,192.07,47.754,192.064Z" transform="translate(586.251 429.045) rotate(180)" fill="#3b4a42" fill-rule="evenodd"/>
    <g id="A-Human_Standing-8" data-name="A-Human/Standing-8" transform="translate(476.095 258.12) rotate(180)">
      <g id="Head_Front_Chongo-4" data-name="Head/Front/Chongo-4" transform="translate(41.001 167.297)">
        <g id="Head-4" transform="translate(7.058 0)">
          <path id="path13726" d="M3.887,18.119A12.746,12.746,0,0,0,.5,27.277C1.2,37.346,15.22,35.131,17.946,30.049s2.4-17.973-1.121-18.881c-1.405-.362-4.4.525-7.446,2.362L11.292,0H0Z" fill="#915b3c" fill-rule="evenodd"/>
        </g>
        <path id="hair-27" d="M20.544,19.822a14.737,14.737,0,0,1-4.725.522,8.127,8.127,0,0,1,.575,4.108,12.519,12.519,0,0,1-1.333,3.714,5.08,5.08,0,0,1-.986,1.536,3.367,3.367,0,0,1-1.595.857,4.267,4.267,0,0,1-1.837,0c-.267-.056-.507-.178-.769-.246s-.4.1-.593.267a3.359,3.359,0,0,1-1.751.679,4.515,4.515,0,0,1-1.992-.239A3.9,3.9,0,0,1,3.88,29.958a2.783,2.783,0,0,1-.5-.762c-.048-.116-.056-.184-.172-.227s-.232-.04-.342-.078A4.3,4.3,0,0,1,.4,26.649a7.109,7.109,0,0,1-.389-2.921,12.7,12.7,0,0,1,2.165-5.554A6.908,6.908,0,0,1,5.74,16.159a10.211,10.211,0,0,1-1.865-3.478,17.019,17.019,0,0,1-.854-4.224,13.788,13.788,0,0,1,.212-4.165A4.513,4.513,0,0,1,5.252,1.354,9.639,9.639,0,0,1,6.805.624a10.226,10.226,0,0,1,1.6-.513,3.211,3.211,0,0,1,3.04.65A5.707,5.707,0,0,1,12.263,1.8c.076.131.121.217.029.345a2.468,2.468,0,0,1-.43.391A4.055,4.055,0,0,0,10.428,5.22c-.128,1.1.168,2.525,1.24,3.006,1.323.594,2.779-.088,3.955-.723a6.466,6.466,0,0,0,3.134,4.16c1.779.895,3.821,1,5.65,1.767a3.37,3.37,0,0,1,1.313.835,1.7,1.7,0,0,1,.377.617,1,1,0,0,1-.261.775,14.421,14.421,0,0,1-5.29,4.166Z" transform="translate(0 15.762)" fill="#191847" fill-rule="evenodd"/>
      </g>
      <g id="Bottom_Standing_Jogging-6" data-name="Bottom/Standing/Jogging-6" transform="translate(0 0)">
        <path id="Leg-1" d="M22.9,107.862H0L34.961,49.413,61.172,0h5.646Z" transform="matrix(0.876, -0.483, 0.483, 0.876, 0, 39.204)" fill="#784931" fill-rule="evenodd"/>
        <g id="Accessories_Shoe_Flat-Sneaker-50" data-name="Accessories/Shoe/Flat-Sneaker-50" transform="translate(52.576)">
          <path id="shoe-47" d="M.79,6.868A10.1,10.1,0,0,1,0,3.714,23.608,23.608,0,0,1,.424,0H26.961Q28,3.42,25.767,3.692t-3.7.492L9.73,9.683a.47.47,0,0,1-.621-.238L9.1,9.433,8.311,7.51a8.462,8.462,0,0,0-3.353-.963,7.593,7.593,0,0,0-2.895.847h0A.941.941,0,0,1,.815,6.93Q.8,6.9.79,6.868Z" fill="#e4e4e4" fill-rule="evenodd"/>
        </g>
        <path id="Pant-0" d="M7.431,2.19,18.593,0q3.7,22.25,6.556,49.809t3.518,54.251L1.5,118.464A483.568,483.568,0,0,1,.6,56.78,371.715,371.715,0,0,1,7.431,2.191Z" transform="translate(43.557 19.176)" fill="#db2721" fill-rule="evenodd"/>
        <path id="path13735" d="M33.307,83.378c10.9-17.72-10.056-40.2-9.983-41.208Q23.4,41.164,0,2.978L4.172,0Q37.929,38.733,37.363,43.587C36.8,48.44,59.545,80.035,50.739,98.381Z" transform="translate(7.029 22.368)" fill="#915b3c" fill-rule="evenodd"/>
        <path id="path13737" d="M0,6.916,6.189,0C29.119,16.38,31.56,30.766,37.454,34.836,43.947,39.319,47.482,63.9,54.8,99.117H25.473C20.84,70.283,18.832,54.749,17.7,54.05,16.509,53.313,7.86,23.271,0,6.916Z" transform="translate(12.93 29.128)" fill="#ff4133" fill-rule="evenodd"/>
        <g id="g13741" transform="matrix(0.869, -0.495, 0.495, 0.869, 2.673, 20.639)">
          <path id="path13739" d="M.79,6.868A10.1,10.1,0,0,1,0,3.714,23.608,23.608,0,0,1,.424,0H26.961Q28,3.42,25.767,3.692t-3.7.492L9.73,9.683a.47.47,0,0,1-.621-.238L9.1,9.433,8.311,7.51a8.462,8.462,0,0,0-3.353-.963,7.593,7.593,0,0,0-2.895.847h0A.941.941,0,0,1,.815,6.93Q.8,6.9.79,6.868Z" transform="translate(0 0)" fill="#e4e4e4" fill-rule="evenodd"/>
        </g>
      </g>
      <g id="Body_Pointing-Forward-49" data-name="Body/Pointing-Forward-49" transform="translate(30.756 109.504)">
        <path id="Skin-65" d="M0,6.473l16.331,8.944a40.4,40.4,0,0,0,8.027,7.514c.805.336,2.214.54.9-1.8s-2.6-4.856-1.926-5.576,2.344.286,3.145-.911q.8-1.2-8.576-3.781L6.031,0Z" transform="translate(38.306 41.581)" fill="#915b3c" fill-rule="evenodd"/>
        <path id="Sleeve-46" d="M2.59,11.461a40.127,40.127,0,0,1,22.229,2.994l2.042-7.54C20.445,2.291,11.932-1,5.145.275A6.236,6.236,0,0,0,2.59,11.461Z" transform="translate(29.587 38.32) rotate(9)" fill="#f3aa04" fill-rule="evenodd"/>
        <path id="path13866" d="M1.266,4.911A33.091,33.091,0,0,0,9.348,2.359C15.268-.537,19.7-.76,23.409,1.652c1.288.839,1.746,1.814,1.122,2.392a20.679,20.679,0,0,1-3.883,1.3,20.06,20.06,0,0,0-3.905,1.317c-.554.513-.2,1.32,1.076,2.456,1.078.96,1.083,1.2.026,1.474-.726.19-2.658-.433-4.322-1.394l-1.357-.784-4,1.012-4,1.012L3.113,9.06C2.536,8.305,1.567,7.151.961,6.5S-.073,5.248.01,5.18a5.158,5.158,0,0,1,1.255-.269Z" transform="translate(64.833 12.551)" fill="#915b3c" fill-rule="evenodd"/>
        <path id="Clothes-6" d="M38.054,38.615c3.988.949,11.25-5.767,33.489-10.07,3.546-7.335.042-11.1-.226-14.219-12.262-6.405-20.568,4.7-29.227,4.509A29.8,29.8,0,0,0,39.64,4.341C35.321-4.842,10.032,3.663,1.529,1.989-3.8,19.282,6.5,26.31,6.508,37.375c.009,12.117,9.739,30.769,11.17,30.769H30.733c.72-9.254,4.346-19.453,7.321-29.529Z" transform="translate(0 0)" fill="#fcc954" fill-rule="evenodd"/>
      </g>
    </g>
  </g>
</svg>
