<svg id="g14311" xmlns="http://www.w3.org/2000/svg" xmlns:xlink="http://www.w3.org/1999/xlink" width="457.233" height="380.248" viewBox="0 0 457.233 380.248">
  <defs>
    <radialGradient id="radial-gradient" cx="0.5" cy="0.5" r="0.845" gradientTransform="matrix(0.938, 0, 0, -0.961, -1.616, -33.765)" gradientUnits="objectBoundingBox">
      <stop offset="0" stop-color="#fdfae3"/>
      <stop offset="1" stop-color="#fdfae3"/>
    </radialGradient>
  </defs>
  <g id="humaaan-4">
    <g id="Head_Front_Curly-1" data-name="Head/Front/Curly-1" transform="translate(143.498)">
      <g id="Head-80" transform="translate(6.207 10.606)">
        <path id="path32617" d="M1304.8,10556.608c-1.738-4.2-2.329-8.847-.547-13.264,5.133-12.726,22.332-3.988,23.728,3.727s-4.424,24.251-9.362,23.948c-1.969-.12-5.469-2.521-8.64-6.174l-3.2,18.3-14.6-4.732Z" transform="translate(-1292.181 -10536.895)" fill="#b28b67" fill-rule="evenodd"/>
      </g>
      <path id="hair-6" d="M1336.073,10537.781a3.325,3.325,0,0,0-1.485-2.961,3.083,3.083,0,0,0-.788-.344c-.1-.028-.136-.008-.16-.092a.949.949,0,0,1,.028-.251,4.43,4.43,0,0,0-.547-2.557,5.715,5.715,0,0,0-2.763-2.6,5,5,0,0,0-2.048-.368,8.072,8.072,0,0,0-1.084.1c-.108.017-.483.146-.572.1s-.221-.373-.285-.465a6.06,6.06,0,0,0-3.247-2.264,6.925,6.925,0,0,0-4.385-.349,8.416,8.416,0,0,0-.933.372c-.16.073-.317.154-.47.24-.092.052-.184.106-.272.164-.152.1-.149.146-.271,0a3.18,3.18,0,0,0-1.8-1.066,4.574,4.574,0,0,0-1.28-.048,2.644,2.644,0,0,1-.646.092c-.136-.041-.361-.337-.483-.432a4.856,4.856,0,0,0-2.273-.978,6.358,6.358,0,0,0-2.591.159,3.237,3.237,0,0,0-1.1.5,5.35,5.35,0,0,1-.438.315c-.091.053-.247.087-.314.171a5.2,5.2,0,0,0-.835-.746,2.523,2.523,0,0,0-1.387-.393,5.746,5.746,0,0,0-2.659.836,6.386,6.386,0,0,0-1.149.815c-.169.149-.33.308-.484.472a2.182,2.182,0,0,1-.227.253c-.11.085-.161.071-.312.074a4.422,4.422,0,0,0-2.185.621,4.341,4.341,0,0,0-1.569,1.67c-.021.04-.083.215-.116.229s-.179-.038-.233-.048a4.882,4.882,0,0,0-.571-.08,4.628,4.628,0,0,0-1.059.034,5.205,5.205,0,0,0-3.371,2.114,6.189,6.189,0,0,0-1.214,4.061,4.07,4.07,0,0,0,.108.688c.034.138.057.146-.029.251s-.232.218-.336.33a5.915,5.915,0,0,0-.866,1.208,6.638,6.638,0,0,0-.829,2.306,3.53,3.53,0,0,0,.029,1.139,3.047,3.047,0,0,0,.167.559,3,3,0,0,0,.128.275,1.329,1.329,0,0,1,.087.156c.048.132.092.05,0,.191-.129.2-.331.365-.481.549s-.3.383-.443.581a10.2,10.2,0,0,0-.778,1.259,4.518,4.518,0,0,0-.557,2.756,2.8,2.8,0,0,0,.462,1.138,2.99,2.99,0,0,0,.4.46c.076.07.184.127.2.227s-.111.271-.16.37a6.685,6.685,0,0,0-.814,2.768,3.981,3.981,0,0,0,.849,2.5,4.913,4.913,0,0,0,4.63,1.646,5.176,5.176,0,0,0,1.276-.379c.451,1.337,2.109,1.837,3.378,1.908a5.46,5.46,0,0,0,4.184-1.658,2.311,2.311,0,0,0,3.643.673,3.067,3.067,0,0,0,.6-.861c.08-.168.122-.349.2-.516a2.883,2.883,0,0,1,.466-.567,3.74,3.74,0,0,0,.691-1.2,7.038,7.038,0,0,0,.175-.71,2.514,2.514,0,0,1,.268-.588,2.918,2.918,0,0,1-1.134-.53,2.458,2.458,0,0,1-.7-.937,5.6,5.6,0,0,1-.453-2.52c.032-1.869.906-3.841,2.919-4.221a9.269,9.269,0,0,1,4.2,1.122c.925.549,1.343,3.118,1.332,3.342-.008.14-.076.293.014.416.2.271.73.085.972-.015a3.648,3.648,0,0,0,1.1-.772,13.3,13.3,0,0,0,1.89-2.24c.417-.626.771-1.295,1.243-1.883a3.328,3.328,0,0,1,1.8-1.229,11.856,11.856,0,0,1,2.475-.177,5.724,5.724,0,0,0,2.385-.456,2.962,2.962,0,0,0,.473-.274c.116-.085.263-.272.407-.3.224-.049.407.325.536.481a7.627,7.627,0,0,1,1.367,2.651,13.038,13.038,0,0,1,.566,2.815,7.255,7.255,0,0,0,.256,2.276,3.991,3.991,0,0,0,2.208.9,3,3,0,0,0,1.581-.668,1.75,1.75,0,0,0,.493-1.044c.027-.232,0-.466.026-.7a2.09,2.09,0,0,0,0-.572,1.34,1.34,0,0,0-.591-.893,3.94,3.94,0,0,0,1.239-.888,5.3,5.3,0,0,0,.938-1.376,1.937,1.937,0,0,0,.137-1.265,3.273,3.273,0,0,0-.739-1.166,6.907,6.907,0,0,0,1.9-1.077A5.031,5.031,0,0,0,1336.073,10537.781Z" transform="translate(-1284.643 -10524.014)" fill="#191847" fill-rule="evenodd"/>
    </g>
    <g id="Bottom_Standing_Skinny-Jeans-Walk" data-name="Bottom/Standing/Skinny-Jeans-Walk" transform="translate(0 89.135)">
      <path id="Leg-4" d="M1214.275,10789.867l60-131.376-28.152-20.746-23.519,83.757-18.229,61.073Z" transform="translate(-1126.969 -10633.235)" fill="#1f28cf" fill-rule="evenodd"/>
      <path id="path32623" d="M1226.02,10632.269c-16.834,22.281-38.941,52.688-40.6,53.627-1.106.626-18.369-8.173-58.954-6.676l-1.29,12.431c44.813,2.8,65.376,13.321,68.852,11.856,5.215-2.2,43.466-29.6,65.4-46.617Z" transform="translate(-1112.98 -10632.269)" fill="#2b44ff" fill-rule="evenodd"/>
      <g id="Accessories_Shoe_Flat-Pointy" data-name="Accessories/Shoe/Flat-Pointy" transform="translate(0 46.546)">
        <path id="Shoe-3" d="M1110.364,10689.007l13.446-.208.847,13.405q-6.1,9.958-9.28,25.582l-2.554.16-1.531-24.258.753-8.379-1.277.081Z" transform="translate(-1110.364 -10688.799)" fill="#191847" fill-rule="evenodd"/>
      </g>
      <g id="g32629" transform="translate(69.663 147.498)">
        <path id="path32627" d="M1194.97,10821.84l8.483-10.434,10.813,7.967q3.708,11.074,13.631,23.553l-1.517,2.061-19.567-14.42-5.935-5.963-.759,1.029Z" transform="translate(-1194.97 -10811.406)" fill="#191847" fill-rule="evenodd"/>
      </g>
    </g>
    <g id="Body_Long-Sleeve" data-name="Body/Long-Sleeve" transform="translate(60.818 39.489)">
      <path id="Skin-50" d="M1312.041,10633.959l25.087,4.508a55.056,55.056,0,0,1,15.023-1.132c1.146.335,2.82,1.333-.6,2.705s-6.955,2.97-6.863,4.323,2.739,1.718,2.557,3.694q-.183,1.978-12.384-3.35l-22,1.412Zm-77.273-18.892,13.308,4.367q-37.9,42.217-39.587,44.239c-2.539,3.034-1.281,9.313-.932,12.582-4.752.512-2.082-6.222-8.105-5.482-5.5.675-10.439,3.524-14.855-1.67-.543-.639-.776-2.457,1.42-3.106,5.472-1.619,13.665-4.9,15.109-6.388Q1204.081,10656.57,1234.768,10615.067Z" transform="translate(-1184.228 -10579.584)" fill="#997659" fill-rule="evenodd"/>
      <path id="Clothes-Back-9" d="M1305.233,10578.1l10.208,4.076c-4.963,24.078,4.275,43.295,37.219,48.477l-5.535,31.283c-30.513-5.705-52.4-25.752-47.376-59.2C1301.049,10594.078,1302.744,10585.178,1305.233,10578.1Z" transform="translate(-1204.504 -10573.056)" fill="#afb9c5" fill-rule="evenodd"/>
      <path id="Clothes-2" d="M1281.949,10572.322l14.634,8.74c-8.809,27.188-5.769,47.339-7.8,68.767l-57.976-20.314c-2.839,6.712-5.508,13.691-8.063,20.92l-31.964-10.356c19.73-36.191,59.965-54.571,90.133-68.105l1.035.336Z" transform="translate(-1185.385 -10571.973)" fill="#c5cfd6" fill-rule="evenodd"/>
      <path id="Shade-66" d="M1266.546,10603.762q-15.526,21.806-19.709,35.748l-7.757-4.8A219.649,219.649,0,0,1,1266.546,10603.762Z" transform="translate(-1193.916 -10577.587)" fill="rgba(0,0,0,0.1)" fill-rule="evenodd"/>
    </g>
  </g>
  <g id="humaaan-11" transform="translate(283.199 126.713)">
    <g id="Head_Front_Wavy-6" data-name="Head/Front/Wavy-6" transform="translate(67.3)">
      <g id="Head-27" transform="translate(0 4.201)">
        <path id="path32685" d="M1556.533,10705.332c3.4-2.752,6.04-6.411,6.566-10.967,1.513-13.124-17.052-13.646-21.783-7.764s-7.415,22.544-3.1,24.561c1.721.8,5.786.383,10.147-1.247l-5.715,16.946,14.528,2.718Z" transform="translate(-1536.045 -10683.009)" fill="#915b3c" fill-rule="evenodd"/>
      </g>
      <path id="hair-2" d="M1540.085,10688.378a17.06,17.06,0,0,1,1.264-2.444,12.307,12.307,0,0,1,2.061-2.558,21.849,21.849,0,0,1,4.863-3.63,13.442,13.442,0,0,1,10.37-1.316,10.229,10.229,0,0,1,4.533,2.914c1.121,1.251,2.1,2.968,3.779,3.392,1.823.46,3.819-.852,5.486-1.58a13.694,13.694,0,0,1,5.819-1.272,9.125,9.125,0,0,1,7.979,4.852c1.862,3.3,2.821,7.808.541,11.29a4.922,4.922,0,0,1-1.542,1.561c-.579.356-1.424.694-1.76,1.376-.356.725.1,1.83.215,2.566a7.315,7.315,0,0,1-.039,3.2,8.137,8.137,0,0,1-3.31,4.149,8.293,8.293,0,0,1-4.628,1.378,12.119,12.119,0,0,1-3.223-.349,10.211,10.211,0,0,1-1.448-.583,1.376,1.376,0,0,0-1.251.067,9.992,9.992,0,0,1-6.621.384,10.339,10.339,0,0,1-5.305-2.989c-1.458-1.776-1.049-3.771-.241-5.836-.472.133-1.689.042-.817-.677a3.929,3.929,0,0,1,1.3-.452,4.421,4.421,0,0,0,1.347-.686c1.607-1.275.851-4.621-.717-5.442-2.328-1.22-3.534,2.169-5.466,2.743-1.111.331-2.039-.579-2.663-1.445a11.533,11.533,0,0,1-1.642-4c-.292-1.171-.546-2.35-.848-3.517-.141-.545-.689-2.114-.175-2.6a7.739,7.739,0,0,0-5.515.362,3.653,3.653,0,0,0-1.734,1.271c-.1.138-.341.556-.541.537-.373-.035-.152-.456-.077-.663" transform="translate(-1536.735 -10677.906)" fill="#191847" fill-rule="evenodd"/>
    </g>
    <g id="Bottom_Standing_Skirt-1" data-name="Bottom/Standing/Skirt-1" transform="translate(14.847 98.116)">
      <path id="Skirt-Shadow-4" d="M1576.329,10869.471q-21.619,7.884-37.648,9.118a51.435,51.435,0,0,1-30.512-7.221q21.132-8.01,35.123-9.088t33.037,7.19Z" transform="translate(-1478.669 -10808.564)" fill="#1f28cf" fill-rule="evenodd"/>
      <path id="Leg-76" d="M1525.095,10874.39a3.381,3.381,0,0,0,.3-.725c1.568-5.358,28.775-63.959,31.125-74.47l-35.505,2.735c-1.787,7.992-8.761,57.82-9.521,67.712-3.586,15.789-9.566,66.488-10.554,70.045-1.039,3.741,6.68,6.961,8.315,2.333,2.6-7.362,8.585-27.641,11-39.927C1522.52,10890.575,1524.289,10880.234,1525.095,10874.39Z" transform="translate(-1477.376 -10797.444)" fill="#784931" fill-rule="evenodd"/>
      <path id="path32692" d="M1560.292,10878.978c14.7,2.532,67.943,5.055,71.642,5.81,3.8.776,6.478-7.149,1.748-8.457-7.526-2.081-28.173-6.636-40.6-8.187-9.994-1.247-19.1-2.193-25.2-2.687-.795-16.972-1.592-57.785-3.8-66.443l-31.415,2.421c2.115,8.3,19.252,68.753,22.031,74.722.9,2.139,3.158,2.94,5.59,2.822Z" transform="translate(-1482.997 -10797.412)" fill="#915b3c" fill-rule="evenodd"/>
      <g id="Accessories_Shoe_Flat-Sneaker-73" data-name="Accessories/Shoe/Flat-Sneaker-73" transform="translate(145.354 76.255)">
        <path id="shoe-5" d="M1653.714,10890.326a13.173,13.173,0,0,1,4.209-.625,30.739,30.739,0,0,1,4.784,1.025l-3.385,34.568q-4.586.91-4.657-2.027t-.17-4.886l-5.589-16.769a.616.616,0,0,1,.389-.779l.016,0,2.607-.788a11.064,11.064,0,0,0,1.681-4.243,9.937,9.937,0,0,0-.734-3.879h0a1.233,1.233,0,0,1,.763-1.566C1653.657,10890.344,1653.685,10890.334,1653.714,10890.326Z" transform="translate(-1648.874 -10889.681)" fill="#b2bbc1" fill-rule="evenodd"/>
      </g>
      <g id="g32698" transform="translate(0 140.975)">
        <path id="path32696" d="M1506.432,10971.131a13.216,13.216,0,0,1,1.347,4.037,30.891,30.891,0,0,1-.179,4.891l-34.631,2.668q-1.693-4.359,1.187-4.937t4.782-1.016l15.543-8.416a.614.614,0,0,1,.835.248l.008.016,1.228,2.43a11.089,11.089,0,0,0,4.473.92,9.99,9.99,0,0,0,3.692-1.4h0a1.232,1.232,0,0,1,1.675.479C1506.406,10971.078,1506.419,10971.105,1506.432,10971.131Z" transform="translate(-1472.342 -10968.282)" fill="#b2bbc1" fill-rule="evenodd"/>
      </g>
      <path id="Skirt-4" d="M1559.663,10798.678q-21.223-4.342-39.3,3.027c-2.787,19.941-12.631,28.529-12.15,58.736,21.676,8.764,46.094-11,68.363-2.535C1581.631,10843.283,1570.408,10809.871,1559.663,10798.678Z" transform="translate(-1478.675 -10797.068)" fill="#2b44ff" fill-rule="evenodd"/>
    </g>
    <g id="Body_Pointing-Forward-40" data-name="Body/Pointing-Forward-40" transform="translate(0 36.595)">
      <path id="Skin-72" d="M1514.284,10747.614l-20.133-13.734a52.862,52.862,0,0,0-9.5-10.812c-1.006-.541-2.815-.986-1.4,2.229s2.764,6.656,1.8,7.508-3.018-.67-4.213.786q-1.2,1.458,10.689,6.02l14.072,15.666Zm-34.281,6.568-8.842-6.05q-1.234-7.676-3.964-7.99c-1.337-.789.485,5.755-2.117,4.948s-8.611-6.263-9.824-5.394c-1.793,1.287-.756,5.877.763,8.258,2.839,4.452,5.387,6.129,11.844,8.63a36.681,36.681,0,0,1,10.689,6.923Z" transform="translate(-1454.31 -10722.41)" fill="#915b3c" fill-rule="evenodd"/>
      <path id="Sleeve-33" d="M1533.124,10748.655a52.515,52.515,0,0,1-27.168-11.123l-5.073,8.878c6.6,7.974,16.3,14.943,25.317,15.571A8.162,8.162,0,0,0,1533.124,10748.655Z" transform="translate(-1462.535 -10725.032)" fill="#2026a2" fill-rule="evenodd"/>
      <path id="Clothes-06" d="M1515.891,10759.883q-12.156,1.8-39.112-10.877-8.331,13.655-8.406,19.809c15.156,9.908,28.482,14.969,39.737,16.318-1.014,6.658-.823,13.105,1.344,19.193,4.454,12.514,38.482,4.66,49.344,7.926,9.142-21.848-3.373-32.316-1.972-46.73,1.533-15.785-8.762-41.322-10.627-41.506l-17.005-1.664C1527.076,10734.314,1521.052,10747.137,1515.891,10759.883Z" transform="translate(-1456.793 -10722.352)" fill="#1f28cf" fill-rule="evenodd"/>
    </g>
  </g>
  <g id="g14563" transform="translate(160.798 50.631)">
    <ellipse id="path14242" cx="97.045" cy="91.004" rx="97.045" ry="91.004" opacity="0.521" fill="url(#radial-gradient)" style="isolation: isolate"/>
    <path id="path36923" d="M1392.048,10748.185a33.173,33.173,0,0,0-4.725-7.062,32.878,32.878,0,0,1-4.066-5.538c-.314-.988-.883-1.2-3.187-1.2a25.515,25.515,0,0,1-6.012-.955,21.485,21.485,0,0,0-10.2-.476l-1.72.377.4-3.754a21.727,21.727,0,0,0-.506-7.592,36.155,36.155,0,0,1-.915-6.579c0-2.422-.179-2.783-1.472-3.108-.8-.2-3.163-1.957-5.241-3.9a33.532,33.532,0,0,0-7.11-5.061l-3.332-1.525,1.7-2.166c2.245-2.864,2.865-4.107,4.239-8.507a31.239,31.239,0,0,1,2.235-5.456c1.06-1.727,1.056-1.8-.219-3.673a24.031,24.031,0,0,1-2.325-6.1,17.078,17.078,0,0,0-3.33-7.105l-2.3-2.914,3.319-1.467a30.15,30.15,0,0,0,6.631-4.5,30.124,30.124,0,0,1,5.207-3.932c1.677-.8,1.859-1.119,1.588-2.789a21.694,21.694,0,0,1,.971-6.539,19.409,19.409,0,0,0,.88-8.346l-.4-3.693,3.787.354a25.179,25.179,0,0,0,8.007-.606,38.361,38.361,0,0,1,6.279-.96c1.6,0,2.149-.289,2.467-1.291.226-.71,2.179-3.168,4.342-5.462a25.336,25.336,0,0,0,4.994-6.976,9.071,9.071,0,0,1,1.376-2.8,20.411,20.411,0,0,1,3.052,1.985,29.579,29.579,0,0,0,6.87,3.32,37.761,37.761,0,0,1,6.03,2.478c1.881,1.133,1.91,1.132,3.543-.05a24.449,24.449,0,0,1,5.955-2.365,23.631,23.631,0,0,0,7.165-3.273,23.5,23.5,0,0,1,3.147-2.1,11.15,11.15,0,0,1,1.554,2.934,33.724,33.724,0,0,0,4.82,6.938c1.957,2.2,3.7,4.576,3.879,5.273.273,1.078.737,1.265,3.076,1.239a26.261,26.261,0,0,1,6.3,1.012,18.968,18.968,0,0,0,7.732.7l4.189-.348-.523,3.335a17.551,17.551,0,0,0,.387,7.335,37.913,37.913,0,0,1,.91,6.7c0,2.407.177,2.77,1.624,3.311a23.817,23.817,0,0,1,5.167,4.093,25.841,25.841,0,0,0,6.963,4.991l3.419,1.5-2.056,2.693a26.737,26.737,0,0,0-3.338,6.639,40.871,40.871,0,0,1-2.458,6l-1.176,2.056,1.229,2.373a45.038,45.038,0,0,1,2.441,6.63,21.7,21.7,0,0,0,2.536,5.905c3.169,3.942,3.2,3.539-.406,5.135a37.872,37.872,0,0,0-7.389,4.982,31.107,31.107,0,0,1-5.207,3.877c-.868.275-1.061.79-.879,2.344a24.161,24.161,0,0,1-1.016,6.541,19.678,19.678,0,0,0-.868,8.268l.381,3.716-4.075-.291a30.233,30.233,0,0,0-8.656.728,21.368,21.368,0,0,1-5.757.712c-.9-.235-1.436.2-2.3,1.855a28.523,28.523,0,0,1-4.385,5.362,20.044,20.044,0,0,0-4.544,6.348,15.676,15.676,0,0,1-1.5,3.148,24.793,24.793,0,0,1-2.844-2,29.56,29.56,0,0,0-7.662-3.605c-2.771-.884-5.346-1.977-5.722-2.428a1.69,1.69,0,0,0-2.875.032c-.717.863-1.765,1.259-7.746,2.924a21.305,21.305,0,0,0-6.017,3,21.946,21.946,0,0,1-3.006,2.08,9.5,9.5,0,0,1-1.324-2.729Zm10.082-7.08c5.85-1.462,9.167-4.952,4.7-4.952-2.068,0-2.1-.036-1.919-2.214l.183-2.215h12.4l.183,2.215c.174,2.116.1,2.214-1.624,2.214-2.049,0-2.378,1.071-.773,2.523a24.632,24.632,0,0,0,5.7,2.46,31.683,31.683,0,0,1,5.4,2.133c.539.447,1.093.093,2.087-1.335a26.719,26.719,0,0,1,3.615-3.921,16.161,16.161,0,0,0,3.129-3.654c1.031-1.993.571-3.771-.826-3.192-2.417,1-2.786.891-3.746-1.121l-.976-2.047,1.789-.741a46.219,46.219,0,0,0,5.319-3.022l3.531-2.281,1.119,1.342c1.47,1.761,1.437,2.558-.148,3.669-1.241.869-1.256.972-.29,1.937s1.281.966,5.963,0a51.98,51.98,0,0,1,6.491-1.017c1.214,0,1.546-.289,1.546-1.341a34.216,34.216,0,0,1,1.182-5.6c1.4-5.047,1.447-6.048.366-7.526-.783-1.071-.868-1.054-2.214.487l-1.4,1.6-1.672-1.351-1.672-1.352,2.706-4.39a26.009,26.009,0,0,0,2.706-5.153c0-1,.851-.967,2.967.128,1.566.81,1.663,1.03,1.049,2.378-.478,1.052-.492,1.669-.047,2.114.839.839,2.561-.088,6.579-3.547,1.741-1.5,3.7-3.147,4.351-3.666,1.014-.8,1.082-1.135.469-2.279a40.309,40.309,0,0,1-1.884-5.554c-1.188-4.29-2.4-6.282-3.832-6.282-.437,0-.794.51-.794,1.132,0,2.25-.551,2.769-2.674,2.521l-2.049-.239v-12.137l1.919-.292c2.469-.375,2.8-.142,2.8,1.964,0,3.9,2.548,1.006,4.835-5.484.946-2.687,1.774-5.149,1.839-5.474s-1.928-2.517-4.428-4.872c-3.3-3.109-4.977-4.281-6.122-4.281-1.611,0-1.681.375-.571,3.061.3.727-.072,1.242-1.38,1.919a11.455,11.455,0,0,1-2.1.925,10.782,10.782,0,0,1-1.745-2.8,56.629,56.629,0,0,0-3.027-5.142l-1.6-2.336,1.574-1.354c1.586-1.364,2.673-1.729,2.708-.911a4.783,4.783,0,0,0,.909,1.621c.764,1.01.97,1.053,1.448.295.818-1.293.7-3.7-.457-9.549-1-5.046-1.084-5.21-2.665-5.21a32.1,32.1,0,0,1-5.792-1.153c-5.829-1.614-9.012-.334-5.745,2.311,1.253,1.016,1.263,1.105.282,2.6-1.209,1.846-1.775,1.911-3.852.448a47.1,47.1,0,0,0-4.667-2.668c-3.345-1.685-3.457-1.884-2.4-4.211.689-1.514,1.14-1.587,3.578-.583.82.338,1.033.124,1.033-1.034,0-1.568-1.167-3.315-5.042-7.551a19.627,19.627,0,0,1-2.723-3.485c-.219-.655-.532-.631-1.714.138a25.516,25.516,0,0,1-5.564,1.967c-5.929,1.479-9,4.951-4.374,4.951,1.686,0,1.763.106,1.589,2.213l-.183,2.212-5.905.02c-3.365,0-6.091-.245-6.338-.589a5.006,5.006,0,0,1-.443-2.229c0-1.4.224-1.624,1.728-1.624,4.14,0,1.724-2.973-3.8-4.68a43.941,43.941,0,0,1-5.44-2.025c-1.579-.827-1.664-.776-5.464,3.308a52.08,52.08,0,0,0-4.518,5.34c-.908,1.64-.351,3.556.884,3.044,2.536-1.049,3.006-.972,3.6.6.914,2.4.828,2.551-2.5,4.227a47.118,47.118,0,0,0-4.667,2.667c-2.077,1.464-2.642,1.4-3.853-.449-1-1.527-.989-1.579.687-2.915l1.705-1.36-1.595-.727c-1.3-.594-2.436-.546-6.176.258a45.242,45.242,0,0,1-6.191.983c-1.362,0-1.611.252-1.616,1.625a27.045,27.045,0,0,1-1.177,5.462c-1.395,4.569-1.457,5.893-.346,7.412.811,1.107.874,1.094,2.114-.483,1.262-1.6,1.3-1.612,3-.607.948.56,1.724,1.186,1.724,1.389,0,.349-5.653,9.949-6.151,10.448a4.226,4.226,0,0,1-2.04-.7c-1.783-.922-1.933-1.867-.579-3.636.62-.811.038-1.423-1.353-1.423-1,0-10.844,7.99-10.835,8.791a24.32,24.32,0,0,0,1.013,3.02c.555,1.461,1.3,3.8,1.651,5.2.613,2.423,2.344,4.84,3.467,4.84.289,0,.7-.952.922-2.117.294-1.566.63-2.026,1.3-1.771a6.814,6.814,0,0,0,2.03.345c1.045,0,1.133.482,1.133,6.2v6.2h-2.081c-1.84,0-2.123-.205-2.436-1.771-.193-.976-.567-1.772-.828-1.772-1,0-2.983,3.28-3.892,6.44a36.342,36.342,0,0,1-1.839,5.049c-.847,1.659-.821,1.79.516,2.656a45.777,45.777,0,0,1,4.78,4.308c2.216,2.229,3.854,3.4,4.774,3.4,1.993,0,2.259-.509,1.272-2.42-.839-1.622-.81-1.707.879-2.581,2.406-1.244,2.737-1.162,3.587.887a52.75,52.75,0,0,0,2.771,5.16l2.03,3.371-1.635,1.406-1.634,1.406-1.368-1.7c-1.145-1.421-1.462-1.553-1.942-.811-.825,1.275-.709,4.526.295,8.268a25.916,25.916,0,0,1,.879,4.871c0,1.49.194,1.623,2.295,1.623a17.716,17.716,0,0,1,4.864.909c3.293,1.162,6.118,1.265,7.321.268.85-.705.786-.912-.643-2.052-1.325-1.057-1.48-1.456-.938-2.409,1.6-2.819,1.531-2.814,5.274-.4a46.9,46.9,0,0,0,5.364,3.053l1.788.74-.976,2.047c-.966,2.024-1.315,2.124-3.822,1.092-.83-.341-1.034-.121-1.034,1.119,0,1.047,1.028,2.662,3.189,5.013a58.193,58.193,0,0,1,4.187,4.992c.91,1.388,1.112,1.451,2.273.7a25.909,25.909,0,0,1,5.392-1.854Zm1.558-15.5c-1.012-.284-2.432-2.187-5.019-6.726l-3.609-6.329h-15.074l-1.746-1.919a9.379,9.379,0,0,1-1.763-2.376c0-.251,4.82-.384,10.732-.295l10.748.16,4.061,7.086c2.233,3.9,4.592,7.949,5.242,9l1.182,1.918-1.672-.058a15.944,15.944,0,0,1-3.083-.453Zm10.563.256c0-.23,2.313-4.385,5.141-9.233l5.141-8.814h21.685l-1.194,1.676c-2.047,2.874-2.466,3-10.358,3.177l-7.556.165-3.56,6.2c-1.957,3.409-3.61,6.265-3.671,6.346-.3.388-5.629.845-5.629.483Zm-22.787-4.467a38.919,38.919,0,0,1-4.967-2.939l-1.475-1.168,3.639-.02,3.64-.019,1.817,2.953c1,1.623,1.6,2.952,1.326,2.952a25.855,25.855,0,0,1-3.98-1.771Zm35.187,1.5a23.2,23.2,0,0,1,1.62-2.951l1.62-2.682h3.4c1.87,0,3.4.2,3.4.446,0,.552-4.64,3.39-7.489,4.579-2.283.954-2.55,1.018-2.55.607Zm-20.283-10.5c-2.5-4.3-4.767-8.179-5.039-8.613-.386-.613-2.8-.772-10.911-.716-5.729.039-10.416-.075-10.416-.256a14.21,14.21,0,0,1,1.391-2.532c2.938-4.655,8.647-15.019,8.638-15.681a89.411,89.411,0,0,0-5-9.256l-4.986-8.562,10.458-.167,10.459-.168,4.908-8.54c2.7-4.7,5.094-8.542,5.322-8.542s2.666,3.853,5.418,8.562l5,8.562h10.193c5.607,0,10.194.22,10.194.488s-2.125,4.184-4.724,8.7-4.724,8.586-4.724,9.041,2.125,4.54,4.724,9.076,4.724,8.477,4.724,8.756-4.584.489-10.186.464l-10.185-.042-5.019,8.61a93.615,93.615,0,0,1-5.36,8.626,74.014,74.014,0,0,1-4.885-7.81Zm7.612-4.876a28.47,28.47,0,0,0,2.081-4.165c-.058-.568-9.483-.444-9.513.127-.051.942,4.413,8.383,4.863,8.105a26.973,26.973,0,0,0,2.569-4.067Zm-17.151-11.658c-.85-1.381-1.977-3.373-2.5-4.429s-1.121-1.919-1.317-1.919c-.3,0-4.64,6.946-5.229,8.379-.109.264,2.231.479,5.2.479h5.4Zm26.375-4.343,3.935-6.848-4-6.879-4.005-6.879h-15.784l-4.016,6.853-4.016,6.851,3.892,6.878,3.892,6.877h16.171l3.935-6.848Zm10.181,4.047c-.9-1.542-2.058-3.534-2.566-4.425-1.345-2.365-1.133-2.538-4.729,3.835l-1.915,3.4h10.854Zm-37.653-19.908c1.345-2.41,2.3-4.53,2.116-4.711-.481-.481-10.17-.4-10.17.083,0,.654,4.9,9.037,5.272,9.023A24.974,24.974,0,0,0,1395.732,10675.647Zm36.609.107c1.344-2.344,2.324-4.462,2.18-4.7-.353-.595-9.493-.571-9.862.026-.293.475,4.4,8.97,4.944,8.951a26.907,26.907,0,0,0,2.739-4.273Zm-16.319-9.506c0-.757-4.318-8.633-4.733-8.633-.449,0-5.223,8.463-5,8.858.3.528,9.729.311,9.729-.226Zm27.256,27.95-5.483-9.48,5.028-8.679c6.988-12.063,6.467-11.511,7.728-8.207l1.043,2.731-4.145,7.066-4.145,7.065,3.778,6.5c2.078,3.576,3.766,6.982,3.753,7.569a9.32,9.32,0,0,1-1.05,2.988l-1.025,1.922Zm-71.1,6.424-1.029-2.448,3.864-6.731,3.865-6.73-3.869-6.737c-2.128-3.705-3.868-7.112-3.868-7.571,0-.959,1.755-5.347,2.01-5.027.932,1.16,10.981,18.861,10.981,19.343,0,.755-10.2,18.362-10.629,18.356a7.887,7.887,0,0,1-1.324-2.453Zm-3.031-11.193c-.516-2.583-.444-10.114.106-10.979.3-.467,1.133.514,2.394,2.808l1.938,3.525-1.857,3.245a25.027,25.027,0,0,1-2.035,3.245,5.628,5.628,0,0,1-.548-1.846Zm81.393-1.4-1.751-3.248,1.771-3.3a22.659,22.659,0,0,1,2.162-3.545c.214-.136.576.848.8,2.185.455,2.69-.167,11.155-.82,11.155a11.72,11.72,0,0,1-2.164-3.247Zm-75.266-26.651a10.184,10.184,0,0,1,1.506-2.374l1.506-1.976h16.394l1.122-1.623c.618-.894,2.544-4.148,4.283-7.233a45.5,45.5,0,0,1,3.789-6.044c1.119-.771,5.215-.531,4.892.286-.161.406-2.687,4.857-5.614,9.892l-5.322,9.151-11.278.16c-6.2.089-11.278-.021-11.278-.239Zm43.531-9.516-5.75-9.891,2.133-.187a9.314,9.314,0,0,1,2.888.1c.414.158,2.665,3.632,5,7.715l4.249,7.427h16.9l1.546,2.027a11.866,11.866,0,0,1,1.546,2.362c0,.185-5.121.335-11.38.335h-11.38Zm-35.264,0c0-1.073,11.867-8.115,12.986-7.706.274.1-.556,1.976-1.844,4.168l-2.342,3.986h-4.4c-2.42,0-4.4-.2-4.4-.448Zm44.072-3.444c-1.231-2.14-2.087-4.041-1.9-4.226.556-.557,8.743,3.813,11.271,6.016l2.361,2.058-4.746.022-4.745.022-2.238-3.892Z" transform="translate(-1312.418 -10591.045)" fill="#ee7e19"/>
  </g>
</svg>
