<svg id="g17475-4-1" xmlns="http://www.w3.org/2000/svg" width="145" height="168" viewBox="0 0 145 168">
  <path id="path30777-4-7-2" d="M-326.2-184.672a14.509,14.509,0,0,1-3.664-14.845,29.4,29.4,0,0,1,2.237-5.034,22.27,22.27,0,0,1,3.745,3.3,24.972,24.972,0,0,1,3.247,4.815,10.493,10.493,0,0,1,.911,5.456c-.051,2.121-.1,2.452-.436,3a2.532,2.532,0,0,0-.379.883,8.188,8.188,0,0,1-.853,2.474,8.648,8.648,0,0,1-.581-1.984c-1.744-7.7-2.4-9.33-3.781-9.33-.786,0-1.015.245-1.015,1.089,0,.921,1.037,8.345,1.445,10.351.149.732-.061.692-.878-.169Zm34.614.169c.44-1.416.967-2.989,1.171-3.495a58.98,58.98,0,0,0,2.437-12.2c.024-2.2-.315-2.321-1.708-.59a29.71,29.71,0,0,0-3.3,5.088c-.128.377-.327.99-.442,1.361s-.607,1.587-1.094,2.7a32.522,32.522,0,0,0-2.215,6.367,11.894,11.894,0,0,1-.506,1.823c-.4,0-1.434-3.957-1.824-6.974a19.481,19.481,0,0,1,1.974-12.53,29.8,29.8,0,0,1,11.138-11.439c1.848-1.116,2.01-1.09,2.705.421a41.284,41.284,0,0,1,2.312,6.947,31.706,31.706,0,0,1,.078,9.56,21.885,21.885,0,0,1-6.51,11.484c-1.742,1.748-4.515,4.052-4.875,4.052a13,13,0,0,1,.661-2.575Zm22.375,18.322c.186-.255,1.48-1.593,2.874-2.973,4.436-4.389,5.906-6.866,3.676-6.2-2.027.609-6.171,3.275-8.509,5.476-.487.458-.936.784-1,.722a5.211,5.211,0,0,1,.444-1.588c1.687-4.487,3.59-6.888,6.633-8.37,3.09-1.5,8.243-2.576,9.4-1.955.31.166.335.287.236,1.136-.289,2.467-2.52,7.606-4.013,9.245a15.929,15.929,0,0,1-4.579,3.207,38.386,38.386,0,0,1-5.333,1.761c-.093,0-.017-.209.169-.464Zm22.742,29.789c-.05-.053-1.376-.4-2.946-.765s-3.587-.9-4.481-1.192c-2.036-.656-4.187-1.635-3.845-1.75.139-.047,1.608-.287,3.264-.533a33.033,33.033,0,0,0,4.461-.93,22.718,22.718,0,0,1,2.544-.68,43.215,43.215,0,0,0,9.285-3.334c.676-.446.884-.906.588-1.3-.615-.809-2.664-.794-9.495.069-6.514.823-8.421,1.129-9.614,1.541-.991.342-1.707.41-1.707.162a13.227,13.227,0,0,1,2.529-2.829,27.448,27.448,0,0,1,6.745-4.515,17.567,17.567,0,0,1,8.909-1.953c4.028,0,6.9.361,8,1.011.278.165,1.641.77,3.03,1.345,2.836,1.175,4.638,2.078,5.044,2.528.254.282.231.358-.346,1.126a49.144,49.144,0,0,1-7.65,7.4,22.685,22.685,0,0,1-9.464,4.158,18.83,18.83,0,0,1-4.847.438Zm-3.965,30.552a19.49,19.49,0,0,1-6.8-3.4,15.143,15.143,0,0,1-2.981-3.054,15.881,15.881,0,0,1,2.534.605,35.881,35.881,0,0,0,7.56,1.477l1.642.1v-.519c0-.4-.162-.658-.716-1.134a33.432,33.432,0,0,0-7.281-3.542c-1.2-.427-2.335-.837-2.514-.91-.524-.215,3.786-.771,5.8-.748a13.022,13.022,0,0,1,9.053,3.662,28.877,28.877,0,0,1,3.845,4.59c.44.753.447.8.155,1.015a21.409,21.409,0,0,1-4.719,1.5,13.208,13.208,0,0,1-5.571.352Zm-4.109,40.672c-.417-.133-2.046-.537-3.621-.9A30.589,30.589,0,0,1-261.612-67c-.912-.437-2.528-1.254-5.449-2.754a12.387,12.387,0,0,1-2.343-1.711,23.708,23.708,0,0,1-4-4.7c-.1-.307-.252-.558-.335-.558-.2,0-.711-1.034-1.086-2.2a20.425,20.425,0,0,0-.778-1.952,24.213,24.213,0,0,1-1.167-4.533c-.379-1.931-.655-3.544-.614-3.585a31.075,31.075,0,0,1,2.515,2.591,82.4,82.4,0,0,0,10.289,9.7c1.628,1.231,2.522,1.7,3.109,1.631.4-.047.445-.114.4-.643-.135-1.669-3.57-6.759-8.331-12.345-2.474-2.9-3.49-4.18-3.49-4.388,0-.274.638-.163,1.4.243a18.829,18.829,0,0,0,2.97.952,9.317,9.317,0,0,1,2.674.929,4.8,4.8,0,0,0,1.292.652,14.859,14.859,0,0,1,4.877,3.507c2.887,2.789,4.849,5.413,5.382,7.2.16.535.465,1.429.677,1.986a47.691,47.691,0,0,1,1.7,10.343l.118,1.731-.992-.012a7.272,7.272,0,0,1-1.75-.254Zm-43.768,5.88a27.438,27.438,0,0,1-4.392-5.275,9.965,9.965,0,0,1-1.626-5.237c-.155-3.2.794-7.092,1.73-7.092.288,0,.526.745,1.005,3.145.55,2.758,1.859,6.2,2.734,7.2a.861.861,0,0,0,1.184.093c.584-.586-.165-8.473-.98-10.321a3.323,3.323,0,0,1-.3-1.428l.052-.629,1.06,1.272a36.039,36.039,0,0,1,3.768,5.378c.536,1.055.549,1.132.613,3.715.091,3.64-.16,5-1.4,7.579-.986,2.056-1.47,2.743-1.934,2.743a6.046,6.046,0,0,1-1.517-1.14Zm-42.054,11.652a44.489,44.489,0,0,1-2.363-5.953c-.942-3.9-1.033-10.169-.188-12.929a24.58,24.58,0,0,1,6.482-9.995,21.5,21.5,0,0,1,2.62-2.408,3.092,3.092,0,0,0,.971-.593,3.124,3.124,0,0,1,.8-.537,41.979,41.979,0,0,1-1.373,5.045,52.353,52.353,0,0,0-2.552,12.162c-.088,1.524-.06,1.874.178,2.237.367.562.641.544,1.267-.085,1.257-1.261,5.2-9.726,6.167-13.256a14.185,14.185,0,0,1,.757-2.111,16.883,16.883,0,0,0,.751-1.848l.369-1.1.121.644c.067.354.42,1.708.787,3.009a19.583,19.583,0,0,1,.846,4.961,19.51,19.51,0,0,1-.519,7.09,34.848,34.848,0,0,1-5.145,8.962c-1.181,1.521-2.829,3.112-3.224,3.112a2.326,2.326,0,0,0-.9.66c-1.026,1.06-4.641,3.393-5.259,3.393A1.029,1.029,0,0,1-340.362-47.637ZM-368.911-81.9a18.926,18.926,0,0,1,.678-2.336c.322-.929.7-2.145.836-2.7a8.954,8.954,0,0,1,1.557-3.124,14.153,14.153,0,0,1,5.826-4.91,10.4,10.4,0,0,1,4.529-1.338h.838l-2.953,3c-2.906,2.95-4.25,4.557-4.677,5.591-.4.977.017,1.239,1.38.859.794-.221,2.215-1.188,5.428-3.7,1.389-1.084,2.784-2.151,3.1-2.372l.574-.4-.107.664a8.867,8.867,0,0,1-.684,1.846c-.317.65-.809,1.7-1.093,2.332a13.379,13.379,0,0,1-5.933,5.514c-1.872.879-4.031,1.318-7.928,1.613l-1.465.111Z" transform="translate(369.005 215.172)" fill="#ee7e19"/>
  <path id="path30759-5-8-8" d="M-323.1-205.506c-8.377.468-16.332,3.528-24.67,4.3-1.528-.42-3.613-1.638-5.044-.18-1.991,2.173-1.325,5.343-2.025,7.985-.642,4.663-1.951,9.334-1.784,14.076.523,1.8,3.252,1.836,4.066.231a35.139,35.139,0,0,1,3.654-5.08,31.687,31.687,0,0,1,24.52-10.787c3.811.081,7.977.618,11.268,2.791a6.21,6.21,0,0,1,2.341,5.395c.172,2.709-.081,5.525-.054,8.28a85.173,85.173,0,0,0-40.468,13.23c-5.839,3.925-11.108,9.69-12.133,16.9a18.916,18.916,0,0,0,8.083,18.144c8.817,6.42,20.918,7.109,30.916,3.208,5.139-1.9,9.662-5.075,14.241-8.018,1.139-.208,1.3,1.351,1.839,2.024,1.163,2.326,2.5,5.316,5.406,5.719a79.481,79.481,0,0,0,12,.465c1.342-.137,2.855-.017,4.043-.694,1.278-1.157.644-3.3-.7-4.106-2.771-3.168-3.149-7.609-3.038-11.588-.35-15.435.349-30.908-.742-46.316-.867-6.012-5.715-10.692-11.157-12.913-6.437-2.844-13.632-3.131-20.563-3.066Zm12.416,41.106c-.071,4.44.057,8.937-.439,13.319-2.719,6.15-7.625,11.581-14.093,13.8-4.7,1.83-10.5,1.65-14.467-1.742a8.967,8.967,0,0,1-3.665-7.832c-.2-5.142,3.284-9.471,7.163-12.484,4.781-3.72,10.435-6.051,16.183-7.866a44.451,44.451,0,0,1,9.382-1.413q-.031,2.108-.064,4.217Z" transform="translate(385.432 244.257)" fill="#00843e" stroke="#00843e" stroke-width="0.486"/>
</svg>
