<svg xmlns="http://www.w3.org/2000/svg" width="100" height="100" viewBox="0 0 100 100">
  <path id="path13354" d="M-1037.831,1291.848c-1.795-.555-.912,1.555-1.117,2.582v96.862h36.644a128.218,128.218,0,0,0,13.936-7.623c-7.262-.473-14.577-.157-21.813-.821-2.32-.5-2.913-3.614-1.287-5.175,1.576-1.716,4.006-2.585,5.086-4.786,2.084-3.512,1.711-7.782,1.744-11.7-.114-6.561-1.511-12.995-2.7-19.418a44.593,44.593,0,0,1,1.744-18.606,31.906,31.906,0,0,1,20.225-20.232c7.434-2.637,15.52-2.879,23.295-2a37.41,37.41,0,0,1,22.5,11.313c1.057,1.224.313-1.787.532-2.532v-17.863h-98.789Zm63.65,15.772c-1.664.145-1.434,2.228-.355,3.008a51.563,51.563,0,0,1,4.819,15.587c.387.974-.51,2.762.853,2.975,7.475,2.751,15.93,2.377,22.987,6.329a20.108,20.108,0,0,1,2.948,2.349c3.156-5.209,1.9-11.758-.466-17.011-2.391-5.9-8.478-9.152-14.344-10.741-5.346-1.552-10.936-1.976-16.442-2.5Zm-8.24,1.609a28.612,28.612,0,0,0-8.139,4.173,23.747,23.747,0,0,0-8.255,17.533,46.1,46.1,0,0,0,.665,7.322q6.293-4.425,12.584-8.854c1.238-6.34,2.239-12.789,4.46-18.878a1.2,1.2,0,0,0-1.315-1.3Zm4.011,9.823c-.886,5.231-1.9,10.44-2.869,15.657l-11.417,5.277c.173,8.542,3.071,17.184,9.007,23.483,2.481,2.851,5.343,5.631,9.126,6.6a16.764,16.764,0,0,0,16.1-3.519,37.32,37.32,0,0,0,9.215-12.9,42.817,42.817,0,0,0,2.865-14.164c-3.149-.181-6.182-1.288-9.283-1.845l-15.526-3.48c-1.551-5.191-2.766-10.548-5.132-15.448-.514-.547-1.432-3.6-1.64-2.251q-.222,1.292-.445,2.583Zm-18.812,41.711c-.118,4.363.511,8.913-1.295,13.041-.3,1.066-1.781,2.918.3,2.388,3.512.051,7.022-.115,10.535-.092.135-2.292.842-5.089-1.189-6.807a75.509,75.509,0,0,1-8.337-12.719c0,1.4-.021,2.792-.021,4.189Zm52.966-.333a45.044,45.044,0,0,1-6.925,9.605c-1.177,1.794-.712,4.036-.561,6.031,3.994.086,7.988.193,11.982.12a33.939,33.939,0,0,1-2.429-12.3c-.031-2.108.051-4.215.019-6.324l-2.086,2.872Zm-35.663,17.241c-.078,3.541-.756,7.471-3.2,10.356-.9,1.143-1.93,2.172-2.879,3.27h32.2a20.11,20.11,0,0,1-5.079-10.013,46.452,46.452,0,0,1-.6-5.037,24.407,24.407,0,0,1-18.961.439c-1.587-.57-1.443-.823-1.48.985Zm36.31,5.564c-1.638.143-3.385-.255-4.941.255-1.358,1.144.3,2.57,1.231,3.349,2.3,2.311,5.3,3.693,8.276,4.918v-8.5c-1.517,0-3.077-.048-4.567-.021Z" transform="translate(1038.989 -1291.756)" fill="#54a191"/>
</svg>
