<svg xmlns="http://www.w3.org/2000/svg" width="168" height="168" viewBox="0 0 168 168">
  <path id="path51041" d="M-1917.011,2459.373c-2-.041-4.095.259-5.064.932-.685.474-4.06,5.881-7.5,12.015s-7.255,12.607-8.477,14.382l-2.222,3.228h-32.445l-2.981,3.927c-1.64,2.16-2.981,4.285-2.981,4.721s10.044.652,22.321.477l22.322-.32,10.534-18.2c5.793-10.009,10.795-18.858,11.111-19.666.359-.914-2.048-1.466-4.617-1.5Zm19.943.14c-.836,0-1.742.04-2.613.106l-4.224.373,11.38,19.665,11.379,19.664h22.523c12.388,0,22.523-.3,22.523-.665a23.523,23.523,0,0,0-3.061-4.7l-3.06-4.031h-33.439l-8.409-14.766c-4.623-8.121-9.078-15.024-9.9-15.34a11.1,11.1,0,0,0-3.1-.315Zm-39.817,4.782c-3.39.086-25.433,13.289-25.433,15.355,0,.49,3.919.89,8.709.89h8.709l4.635-7.925c2.55-4.359,4.192-8.086,3.65-8.286a.515.515,0,0,0-.269-.042Zm58.4.041a.592.592,0,0,0-.376.1c-.363.365,1.332,4.147,3.768,8.4h0l4.428,7.736,9.393-.041,9.393-.045-4.675-4.092c-4.69-4.1-19.224-11.995-21.93-12.054ZM-1907.6,2474.7c-.451,0-5.19,7.642-10.534,16.982l-9.713,16.983-20.7.336-20.7.336,9.868,17.023c5.428,9.363,9.889,17.645,9.889,18.4.041,1.317-11.282,21.922-17.1,31.176a28.447,28.447,0,0,0-2.753,5.034c0,.36,9.277.589,20.615.51,16.044-.111,20.831.206,21.6,1.424.538.862,5.026,8.568,9.973,17.123s9.3,15.546,9.668,15.528c.371-.041,5.145-7.732,10.609-17.149l9.934-17.12,20.16.091c11.088.049,20.159-.369,20.159-.925s-4.207-8.39-9.349-17.409-9.35-17.138-9.35-18.044,4.207-8.995,9.35-17.977,9.349-16.767,9.349-17.3-9.078-.97-20.175-.97h-20.176l-9.9-17.023c-5.445-9.364-10.271-17.023-10.723-17.023Zm.188,16.436c.822,0,9.368,15.658,9.368,17.163,0,1.066-18.657,1.5-19.256.448C-1917.743,2507.96-1908.3,2491.134-1907.407,2491.134Zm-75.531,15.4c-.664-.066-3.922,8.183-3.922,10.028,0,.912,3.446,7.686,7.656,15.053l7.657,13.4-7.649,13.381-7.649,13.382,2.037,4.869c1.121,2.678,2.3,4.875,2.621,4.878.857.041,21.037-35,21.037-36.5,0-.957-19.887-36.152-21.733-38.457-.04-.042-.04-.042-.057-.042Zm150.951.869c-1.523.179-4.362,5.372-13.008,20.363l-9.951,17.256,10.852,18.85,10.852,18.849,2.029-3.82a18.529,18.529,0,0,0,2.078-5.942c.04-1.167-3.315-7.939-7.428-15.051l-7.477-12.929,8.2-14.049,8.2-14.049-2.065-5.431c-.937-2.463-1.377-4.157-2.291-4.047Zm-110.6,9.575c4.261.041,8.165.225,8.582.641.359.36-1.528,4.575-4.188,9.367s-5.14,8.723-5.506,8.739c-.741.04-10.435-16.639-10.435-17.94,0-.543,6.068-.831,11.546-.808Zm71.417,0c4.7-.042,9.4.27,9.747.861.285.484-1.654,4.694-4.313,9.354s-5.1,8.478-5.42,8.493c-1.079.041-10.366-16.853-9.785-17.8.363-.592,5.069-.9,9.771-.913Zm-51.956.568h31.24l7.927,13.676,7.926,13.677-7.788,13.616h0l-7.788,13.615h-32.006l-7.7-13.673-7.7-13.673,7.947-13.622Zm97.821,13.954c-.041,0-.057.042-.082.042-.426.27-2.352,3.44-4.279,7.048l-3.506,6.561,3.465,6.458c1.906,3.552,3.833,6.458,4.283,6.458,1.291,0,2.523-16.832,1.623-22.181-.419-2.492-1.074-4.365-1.5-4.37Zm-164.846.835a.4.4,0,0,0-.441.217c-1.088,1.72-1.232,16.69-.208,21.825h0c.4,2.018.89,3.669,1.083,3.669a49.319,49.319,0,0,0,4.027-6.452l3.673-6.451-3.836-7.009c-2.029-3.706-3.5-5.689-4.3-5.8Zm46.562,22.193c.391,0,1.564,1.717,2.607,3.815s3.276,6.06,4.959,8.805l3.059,4.99h-10.683c-5.874,0-10.508-.427-10.292-.95,1.167-2.849,9.749-16.66,10.35-16.66Zm72.585.242c.692.081,1.257,1.232,2.256,3s3.287,5.728,5.078,8.8l3.254,5.578H-1881.9l3.792-6.751c4.447-7.918,5.951-10.755,7.1-10.619Zm-34.642,26.545c4.037.041,7.637.238,7.685.735.041.409-1.811,4.133-4.118,8.278s-4.6,7.784-5.084,8.088c-.889.552-9.727-14.243-9.626-16.116.041-.638,5.951-1,11.142-.985Zm24.454,9.609-10.176,17.525c-5.6,9.639-10.175,17.9-10.175,18.357,0,.721,10.545-.188,11.14-.961.118-.16,3.391-5.836,7.265-12.616l7.045-12.326,14.956-.333c15.619-.344,16.448-.6,20.5-6.316l2.362-3.333h-21.458Zm-82.127.213c-7.619.041-12.986.262-12.986.639.041.5,1.59,2.624,3.49,4.722l3.455,3.816,14.918.041,14.917.041,7.142,12.585c5.123,9.026,7.93,12.806,9.933,13.369h0a31.287,31.287,0,0,0,6.1.9l3.31.119-2.339-3.815c-1.287-2.1-5.955-10.155-10.375-17.9l-8.037-14.089-21.275-.319c-2.925-.04-5.715-.061-8.254-.052Zm18.335,18.571-7.2.042-7.2.041,2.921,2.323a77.517,77.517,0,0,0,9.829,5.844h0c3.8,1.937,7.344,3.521,7.877,3.521s-.647-2.642-2.624-5.87Zm74.4,0-3.2,5.333a45.908,45.908,0,0,0-3.206,5.87c0,.814.528.689,5.046-1.208,5.638-2.366,14.821-8.008,14.821-9.1,0-.489-3.027-.889-6.728-.889Z" transform="translate(1991.498 -2459.369)" fill="#ee7e19"/>
</svg>
