<svg xmlns="http://www.w3.org/2000/svg" width="130" height="130" viewBox="0 0 130 130">
  <path id="path22442" d="M335.423,5237.873v130h28.71c-4.233-7.328-7.336-13.3-7.336-14.267,0-2.417,4.49-13.219,5.4-13.139h0c.031,0,.039,0,.078.045,1.325,1.576,9.377,14.828,16.807,27.363h16.441c-.291-.481-.57-.945-.866-1.431l-13.59-22.305,28.51-.437,28.51-.439,13.38-22.25c6.386-10.621,12.135-19.544,13.952-21.722v-61.414ZM453.009,5278.7c3.541.046,6.856.766,6.36,1.965-.437,1.058-7.325,12.653-15.3,25.765l-14.508,23.841-30.745.418c-16.91.231-30.745-.053-30.745-.625s1.848-3.356,4.106-6.186l4.105-5.145h44.689l3.06-4.23c1.683-2.326,6.935-10.806,11.675-18.843s9.388-15.12,10.33-15.743c1.335-.877,4.223-1.257,6.976-1.22Zm-27.376,6.448a.88.88,0,0,1,.371.046c.746.26-1.515,5.147-5.027,10.857l-6.383,10.381h-12c-6.6,0-12-.524-12-1.167,0-2.707,30.364-20,35.033-20.117Zm39.789,35.923c-3.116,3.838-13.358,21.382-12.81,22.3.4.661,6.542.867,12.81.755Zm-47.649,33.08c-7.545-.029-15.9.348-15.9,1.059,0,.865,3.442,6.917,6.966,12.665h14.626c.126-.212.238-.394.366-.61,3.663-6.278,6.262-11.8,5.768-12.273-.574-.547-5.952-.8-11.822-.841Zm26.806.746-7.965,12.979h28.808v-12.979Z" transform="translate(-335.423 -5237.873)" fill="#fcc954"/>
</svg>
