<svg xmlns="http://www.w3.org/2000/svg" width="100" height="100" viewBox="0 0 100 100">
  <path id="rect11231" d="M-788.69,1301.027v98.848h25.707q.086-2.029.169-4.058c-3.8.268-7.986-1.532-9.563-5.16-1.318-3.793-.642-7.89-.833-11.825.073-5.457-.129-10.92.1-16.374.493-6.749,3.305-14.061,8.974-18.317a19.589,19.589,0,0,1,11.933-3.817c2.066.11-.931-1.185-1.459-1.795a14.91,14.91,0,0,1-5.623-6.925,14.312,14.312,0,0,1,2.8-14.678,14.112,14.112,0,0,1,17.337-3.187,14.439,14.439,0,0,1,7.755,14.268,15.3,15.3,0,0,1-7.655,11.366c-2.183,1.033.2.93,1.375,1.125,6.387.478,12.053,4.789,15,10.345.814,1.048,2.845,1.135,3.234-.326a22.058,22.058,0,0,1,15.1-10.039c2.175-.1-.436-1.066-1.075-1.674-6.211-3.752-8.912-12.54-5.252-18.942,2.859-5.488,9.4-8.952,15.542-7.53a20.643,20.643,0,0,1,6.441,2.86v-15.285h-100v1.118Zm42.7,18.229A7.241,7.241,0,0,0-753,1326.9a7.1,7.1,0,0,0,7.65,6.8c4.292-.066,7.919-4.573,6.629-8.771a7.372,7.372,0,0,0-6.078-5.624c-.061-.288-.905.023-1.192-.042Zm47.772-.021a7.249,7.249,0,0,0-6.889,7.1,7.118,7.118,0,0,0,7.669,7.347c4.258-.074,7.9-4.543,6.6-8.727-.8-3.267-3.913-6.024-7.385-5.719Zm-49.381,28.277c-4.3-.072-9.185-.371-12.643,2.7a17.126,17.126,0,0,0-5.487,11.206c-.495,8.615-.227,17.286-.283,25.882.475,1.784,3.519,1.621,3.453-.363.442-9.33-.3-18.777.536-28.008,1.128-2.96,6.673-2.377,6.5,1.063.5,5.43.136,10.9.294,16.342,0,7.849-.262,15.7-.559,23.537h6.1c.187-2.521.131-5.021.982-7.477,1.577-2.569,6.678-1.575,6.359,1.732.17,1.913.291,3.83.432,5.745,1.105-.152,2.8.295,3.558-.211.164-3.436-.209-6.885.078-10.308a17.361,17.361,0,0,1,10.381-13.131c.732-.595-1.606-1.427-2.024-2.175-5.428-5.211-5.1-15.146.93-19.778-1.836-3.469-5.194-6.274-9.217-6.577-3.109-.311-6.26-.171-9.382-.179Zm51.737.053c-3.659.286-7.541-.65-10.978,1.038a16.034,16.034,0,0,0-6.28,5.215c3.867,2.97,6.282,7.976,5.306,12.871a14.51,14.51,0,0,1-5.45,8.848,18.571,18.571,0,0,1,10.414,8.284,19.065,19.065,0,0,1,1.942,8.9c.065,2.114-.011,4.229-.031,6.344h12.254v-51.01a33,33,0,0,0-7.175-.491Zm-25.864,10.715c-4.184.433-6.734,5.628-4.657,9.243,1.867,4.1,8.233,4.5,10.8.873,3.121-3.778-.1-10.29-4.967-10.224C-720.851,1358.276-721.733,1357.882-721.729,1358.28Zm3.866,24c-2.887.192-6.02-.44-8.595,1.26a9.105,9.105,0,0,0-4.728,8.693c-.081,2.545-.072,5.092-.107,7.638h23.232c-.285-4.035.635-8.285-.886-12.144a9.609,9.609,0,0,0-8.917-5.447Z" transform="translate(788.69 -1299.908)" fill="#54a191"/>
</svg>
