<svg xmlns="http://www.w3.org/2000/svg" width="100" height="100" viewBox="0 0 100 100">
  <path id="rect11637" d="M-948.364,1685.162v98.874h15.822c-.443-.953-2.2-1.885-1.786-2.853,3.8-5.842,5.7-12.791,10.087-18.29-6.507-5.087-9.229-14.562-6-22.226,3.231-7.879,12.026-13.128,20.51-11.792a19.8,19.8,0,0,1,12.311,6.958,19.661,19.661,0,0,1,3.862,15.016,19.74,19.74,0,0,1-8.488,13.159,94.67,94.67,0,0,1,7.942,20.029h12.823a85.834,85.834,0,0,1,8.128-20.933,19.277,19.277,0,0,1-8.7-15.937,18.455,18.455,0,0,1,6.831-14.919,19.217,19.217,0,0,1,14.425-4.4c4.7.412,8.825,3.023,12.229,6.139v-49.942h-100v1.118Zm60.793,5.9c2.88-.4,5.385,1.337,7.7,2.789a18.27,18.27,0,0,1,6.723,8.9,42.607,42.607,0,0,1,.114,7.58c-.688,5.187-4.888,9.365-9.592,11.286a15.068,15.068,0,0,1-12.278-.215c-1.658-.393-2.837,2.3-4.448.97-1.061-1.046-.173-2.745-1.046-3.942-1.33-2.528-3.624-4.528-4.266-7.421a15.166,15.166,0,0,1,.773-10.91,13.2,13.2,0,0,1,9.6-8.348,31.65,31.65,0,0,1,6.717-.687Zm25.328,43.181c-5.292-.173-10.693,3.017-12.4,8.156-2.029,5.308-.171,11.938,4.72,15.009,1.624,1.275,3.651,2.02,5.252,3.26.675,1.056-.84,1.837-1.129,2.782a75.216,75.216,0,0,0-8.893,20.591h21.908c1.4-1.4,2.765-2.837,4.023-4.369q-1.865-3.868-3.433-7.854c-1.768-3.753-5.364-6.16-7.538-9.608-.929-1.874,1.448-3.025,2.78-3.757,5.072-2.823,8.259-9.1,6.573-14.807a13.008,13.008,0,0,0-10.706-9.328c-.078-.263-.875,0-1.155-.074Zm-51.32.932a12.472,12.472,0,0,0-11.588,12.213,12.52,12.52,0,0,0,5.439,11.072,35.446,35.446,0,0,0,5.155,2.878c-2.965,3.474-6.273,6.759-8.181,10.982-1.437,2.84-2.673,5.778-4.121,8.614,1.033.991,1.9,2.411,3.091,3.1h23.017a75.169,75.169,0,0,0-7.958-18.911,3.576,3.576,0,0,1,1.1-5.065c2.738-1.654,5.456-3.68,6.707-6.742,2.6-5.364,1.043-12.552-4.055-15.874a13.278,13.278,0,0,0-8.605-2.265Z" transform="translate(948.364 -1684.045)" fill="#54a191"/>
</svg>
