<svg xmlns="http://www.w3.org/2000/svg" width="130" height="130" viewBox="0 0 130 130">
  <path id="rect11637" d="M-948.364,1685.5v128.536h20.569c-.576-1.239-2.855-2.451-2.322-3.708,4.936-7.595,7.413-16.628,13.113-23.777-8.459-6.613-12-18.93-7.8-28.894,4.2-10.243,15.634-17.067,26.662-15.33a25.745,25.745,0,0,1,16,9.045c4.126,5.655,6.274,12.61,5.021,19.521A25.661,25.661,0,0,1-888.148,1788a123.069,123.069,0,0,1,10.325,26.038h16.67a111.58,111.58,0,0,1,10.566-27.212c-6.784-4.585-11.462-12.415-11.306-20.718a23.992,23.992,0,0,1,8.88-19.395,24.982,24.982,0,0,1,18.752-5.72c6.111.536,11.472,3.93,15.9,7.98v-64.925h-130v1.454Zm79.031,7.674c3.744-.521,7,1.739,10.016,3.626a23.752,23.752,0,0,1,8.739,11.568,55.382,55.382,0,0,1,.148,9.854c-.9,6.743-6.355,12.175-12.469,14.672a19.589,19.589,0,0,1-15.962-.279c-2.156-.511-3.689,2.987-5.782,1.261-1.38-1.36-.225-3.569-1.36-5.125-1.729-3.286-4.711-5.886-5.546-9.647a19.715,19.715,0,0,1,1-14.182c2.092-5.363,6.708-9.8,12.477-10.853a41.145,41.145,0,0,1,8.732-.893Zm32.927,56.135c-6.88-.225-13.9,3.922-16.123,10.6-2.638,6.9-.223,15.519,6.137,19.512,2.111,1.658,4.746,2.625,6.828,4.238.877,1.372-1.092,2.389-1.468,3.617a97.777,97.777,0,0,0-11.561,26.768h28.48c1.82-1.823,3.595-3.688,5.23-5.68q-2.425-5.028-4.462-10.211c-2.3-4.879-6.973-8.008-9.8-12.491-1.208-2.436,1.883-3.932,3.613-4.884,6.594-3.67,10.737-11.824,8.545-19.249a16.91,16.91,0,0,0-13.917-12.126c-.1-.342-1.137,0-1.5-.1Zm-66.716,1.212c-8.11.373-15.188,7.716-15.065,15.877-.217,5.585,2.257,11.342,7.071,14.393a46.073,46.073,0,0,0,6.7,3.742c-3.854,4.516-8.155,8.787-10.636,14.277-1.868,3.692-3.475,7.512-5.358,11.2,1.343,1.289,2.464,3.134,4.018,4.028h29.922a97.716,97.716,0,0,0-10.345-24.584c-1.347-2.176-.972-5.307,1.431-6.585,3.559-2.151,7.093-4.784,8.719-8.764,3.383-6.973,1.356-16.317-5.271-20.636a17.262,17.262,0,0,0-11.187-2.944Z" transform="translate(948.364 -1684.044)" fill="#54a191"/>
</svg>
