<svg xmlns="http://www.w3.org/2000/svg" width="131" height="137" viewBox="0 0 131 137">
  <path id="rect51036" d="M1049.326,5680.524v137h28.931c-4.266-7.722-7.392-14.021-7.392-15.036,0-2.548,4.523-13.931,5.445-13.846h0c.031,0,.04,0,.08.048,1.334,1.661,9.448,15.625,16.936,28.836h16.568c-.294-.507-.574-1-.873-1.508l-13.7-23.506,28.729-.462,28.729-.462,13.483-23.447c6.436-11.193,12.228-20.6,14.06-22.892v-64.721Zm118.491,43.021c3.567.048,6.909.807,6.408,2.07-.439,1.115-7.38,13.334-15.421,27.152l-14.62,25.125-30.981.442c-17.04.243-30.982-.057-30.982-.657s1.861-3.539,4.138-6.52l4.136-5.421h45.034l3.084-4.458c1.694-2.451,6.989-11.388,11.764-19.856s9.46-15.936,10.411-16.591c1.344-.926,4.256-1.326,7.03-1.286Zm-27.587,6.8a.854.854,0,0,1,.372.048c.753.274-1.527,5.424-5.065,11.442l-6.434,10.94h-12.087c-6.647,0-12.088-.552-12.088-1.229,0-2.853,30.6-21.082,35.3-21.2Zm40.095,37.857c-3.14,4.044-13.46,22.535-12.907,23.5.4.7,6.591.913,12.907.795Zm-48.015,34.862c-7.6-.032-16.027.365-16.027,1.115,0,.912,3.469,7.289,7.019,13.347h14.739c.128-.224.241-.414.368-.642,3.693-6.618,6.31-12.438,5.814-12.935C1143.644,5803.369,1138.224,5803.1,1132.31,5803.06Zm27.012.784-8.025,13.678h29.029v-13.678Z" transform="translate(-1049.326 -5680.524)" fill="rgba(218,241,228,1)"/>
</svg>
