<svg xmlns="http://www.w3.org/2000/svg" width="100" height="100" viewBox="0 0 100 100">
  <path id="rect11551" d="M-891.456,1495.695v98.882h23.04c-1.128-2.242-1.735-4.943-.489-7.279,1.282-2.765,4.121-4.265,6.178-6.323,3.512-5.479,6.446-11.306,9.681-16.949,2.072-3.43,1.991-7.582,2.661-11.422.512-4.032.894-8.476,3.884-11.548,2.532-2.9,6.454-3.9,10.105-4.409a2.061,2.061,0,0,0,.581-3.511c-4.746-6.519-3.889-16.853,2.727-21.814a11.067,11.067,0,0,1,12.869-.791c6.271,3.793,8.345,12.327,5.773,18.961-.537,1.785-1.745,3.217-2.633,4.8a1.905,1.905,0,0,0,2.139,2.55c5.535.4,11.032,4.345,11.989,10.03,1.181,4.961,1.125,10.183,2.524,15.075,2.844,5.4,5.9,10.679,8.869,16.007v-83.377h-99.9v1.118Zm64.474,20.158c-2.641.693-4.552,3.229-5.371,5.764a7.2,7.2,0,0,0,3.066,8.449c1.949,1.431,4.906,1.966,6.764.082,3.763-3.113,4.13-9.7.177-12.831a5.529,5.529,0,0,0-4.637-1.465Zm2.5,22.333a30.076,30.076,0,0,1-4.3,0c-.87,3.585-4.636,5.4-8.066,5.475-2.6.252-5.5,1.875-5.723,4.751-1.093,5.2-1.721,10.758.225,15.848.753,2.755,2.525,5.292,2.494,8.21-.146,2.07-1.869,4.325-4.144,3.939-3.017.021-6.364-.51-8.992,1.321-2.274.859-4.781,3.088-3.894,5.773a7.521,7.521,0,0,0,1.923,2.788c-1.752.821-4.427-.475-5.494,1.58a2.353,2.353,0,0,0,2.44,3.23c10.012-.078,19.786-2.561,29.568-4.415,4.321-.659,8.517.983,12.733,1.658,7.328,1.474,14.769,2.832,22.271,2.712,1.509.255,2.275-.207,1.885-1.782.247-1.456-1.691-1.784-2.479-2.74-1-.45-.95-1.315-.588-2.208.718-2.828-.818-6.209-3.814-6.854-4.3-1.409-8.961-.974-13.241-2.144-1.2-3.1.369-6.37.946-9.448,1.272-5.32,2.534-10.992,1.152-16.412-.67-2.146-1.494-4.762-3.973-5.347-2.834-.763-6.227-.531-8.344-2.941a9.2,9.2,0,0,1-1.8-3.07l-.783.065Z" transform="translate(891.456 -1494.577)" fill="#54a191"/>
</svg>
