<svg xmlns:dc="http://purl.org/dc/elements/1.1/" xmlns:cc="http://creativecommons.org/ns#" xmlns:rdf="http://www.w3.org/1999/02/22-rdf-syntax-ns#" xmlns:svg="http://www.w3.org/2000/svg" xmlns="http://www.w3.org/2000/svg" xmlns:sodipodi="http://sodipodi.sourceforge.net/DTD/sodipodi-0.dtd" xmlns:inkscape="http://www.inkscape.org/namespaces/inkscape" width="81.980766mm" height="103.65111mm" viewBox="0 0 81.980766 103.65111" version="1.1" id="svg17178" inkscape:version="1.0.2 (e86c870879, 2021-01-15, custom)" sodipodi:docname="multipage-export-h_wkhlm1.svg">
  <defs id="defs17172">
    <clipPath clipPathUnits="userSpaceOnUse" id="clipPath21386">
      <rect style="opacity:1;fill:#d1ebdc;fill-opacity:0.933333;stroke-width:0" id="rect21388" width="396.42004" height="97.073524" x="1384.6058" y="-399.93881" transform="scale(-1,1)"/>
    </clipPath>
  </defs>
  <sodipodi:namedview id="base" pagecolor="#ffffff" bordercolor="#666666" borderopacity="1.0" inkscape:pageopacity="0.0" inkscape:pageshadow="2" inkscape:zoom="0.24812419" inkscape:cx="913.96537" inkscape:cy="-239.884" inkscape:document-units="mm" inkscape:current-layer="layer1" inkscape:document-rotation="0" showgrid="false" inkscape:window-width="1113" inkscape:window-height="1001" inkscape:window-x="-9" inkscape:window-y="-9" inkscape:window-maximized="0"/>
  <metadata id="metadata17175">
    <rdf:RDF>
      <cc:Work rdf:about="">
        <dc:format>image/svg+xml</dc:format>
        <dc:type rdf:resource="http://purl.org/dc/dcmitype/StillImage"/>
        <dc:title/>
      </cc:Work>
    </rdf:RDF>
  </metadata>
  <g inkscape:label="Layer 1" inkscape:groupmode="layer" id="layer1" transform="translate(-360.39465,116.89423)">
    <g id="box 2" transform="translate(236.37465,122.34197)" inkscape:export-filename="C:\work\misc work\Aaranya\website\drawings\website exports for dev\other pages update\assets other pages\book a demo\book a demo.png" inkscape:export-xdpi="58.939999" inkscape:export-ydpi="58.939999">
      <rect style="display:inline;fill:#42a082;fill-opacity:1;stroke-width:0.696189;paint-order:markers fill stroke" id="rect2442-7" width="81.980766" height="103.65093" x="-206.00076" y="-239.23602" transform="scale(-1,1)"/>
      <path id="rect2485" style="display:inline;fill:#55bd9c;fill-opacity:1;stroke-width:2.63127;paint-order:markers fill stroke" d="m 1639.5625,1444.1016 a 98.604889,97.159077 0 0 0 -11.1387,44.8535 98.604889,97.159077 0 0 0 24.8828,64.5234 c 12.7353,-15.4411 31.4499,-26.2212 51.6661,-28.8711 5.1633,-0.6769 10.458,-0.7572 15.7382,-0.1914 15.8408,1.6973 31.5576,9.2162 43.2579,23.9102 l -17.7305,14.1211 c -10.7869,-13.547 -24.0937,-17.2251 -38.3125,-15.3614 -14.149,1.8546 -28.6578,10.2563 -37.5918,21.3633 a 98.604889,97.159077 0 0 0 56.6933,17.666 98.604889,97.159077 0 0 0 41.1192,-8.8515 v -133.1621 h -17.541 l 9.5097,18.0703 c -13.1903,6.9423 -20.9823,11.8233 -25.289,14.8008 -4.3067,2.9774 -4.334,3.2187 -4.334,3.2187 l -16.6602,-15.3691 c 0,0 2.8141,-2.8433 8.0977,-6.4961 4.7852,-3.3084 12.2886,-7.9788 23.9082,-14.2246 h -86.8672 c 11.6197,6.2458 19.123,10.9162 23.9082,14.2246 5.2836,3.6528 8.0977,6.4961 8.0977,6.4961 l -16.6602,15.3691 c 0,0 -0.027,-0.2413 -4.334,-3.2187 -4.3066,-2.9775 -12.0987,-7.8585 -25.289,-14.8008 l 9.5097,-18.0703 z m 24.2324,119.4043 a 98.604889,97.159077 0 0 0 2.4903,1.9843 z" transform="matrix(0.26458333,0,0,0.26458333,-261.82146,-621.32141)"/>
    </g>
  </g>
</svg>