<svg xmlns:dc="http://purl.org/dc/elements/1.1/" xmlns:cc="http://creativecommons.org/ns#" xmlns:rdf="http://www.w3.org/1999/02/22-rdf-syntax-ns#" xmlns:svg="http://www.w3.org/2000/svg" xmlns="http://www.w3.org/2000/svg" xmlns:sodipodi="http://sodipodi.sourceforge.net/DTD/sodipodi-0.dtd" xmlns:inkscape="http://www.inkscape.org/namespaces/inkscape" width="82.197762mm" height="102.09587mm" viewBox="0 0 82.197762 102.09587" version="1.1" id="svg17178" inkscape:version="1.0.2 (e86c870879, 2021-01-15, custom)" sodipodi:docname="multipage-export-h_wkhlm1.svg">
  <defs id="defs17172">
    <clipPath clipPathUnits="userSpaceOnUse" id="clipPath21386">
      <rect style="opacity:1;fill:#d1ebdc;fill-opacity:0.933333;stroke-width:0" id="rect21388" width="396.42004" height="97.073524" x="1384.6058" y="-399.93881" transform="scale(-1,1)"/>
    </clipPath>
  </defs>
  <sodipodi:namedview id="base" pagecolor="#ffffff" bordercolor="#666666" borderopacity="1.0" inkscape:pageopacity="0.0" inkscape:pageshadow="2" inkscape:zoom="0.24812419" inkscape:cx="913.96537" inkscape:cy="-239.884" inkscape:document-units="mm" inkscape:current-layer="layer1" inkscape:document-rotation="0" showgrid="false" inkscape:window-width="1113" inkscape:window-height="1001" inkscape:window-x="-9" inkscape:window-y="-9" inkscape:window-maximized="0"/>
  <metadata id="metadata17175">
    <rdf:RDF>
      <cc:Work rdf:about="">
        <dc:format>image/svg+xml</dc:format>
        <dc:type rdf:resource="http://purl.org/dc/dcmitype/StillImage"/>
        <dc:title/>
      </cc:Work>
    </rdf:RDF>
  </metadata>
  <g inkscape:label="Layer 1" inkscape:groupmode="layer" id="layer1" transform="translate(-360.06901,-1.4925231)">
    <g id="box 4" transform="translate(133.12356,118.84177)" inkscape:export-filename="C:\work\misc work\Aaranya\website\drawings\website exports for dev\other pages update\assets other pages\book a demo\book a demo.png" inkscape:export-xdpi="58.939999" inkscape:export-ydpi="58.939999">
      <g id="g1323" transform="translate(102.31161,122.02521)">
        <rect style="display:inline;fill:#42a082;fill-opacity:1;stroke-width:0.691861;paint-order:markers fill stroke" id="rect1315-4" width="82.197762" height="102.09586" x="-206.8316" y="-239.37445" transform="scale(-1,1)"/>
        <path id="rect2529" style="display:inline;fill:#55bd9c;fill-opacity:1;stroke-width:2.48541;paint-order:markers fill stroke" d="m 1780.2246,1870.8867 c -15.314,7.238 -21.005,10.5346 -34.8652,12.4766 -2.8272,0.3961 -20.1721,-0.8976 -23.5528,-0.5586 -39.0731,3.9179 -48.7758,6.9848 -51.8359,11.3945 -1.0963,1.5798 0.5259,6.2745 3.0391,11.6309 l -22.2852,5.0351 c -19.9422,6.885 -11.8259,8.9373 -19.4316,11.7383 -24.4142,9.9249 -160.2191,44.529 -160.2191,44.529 l 0.2041,45.5896 c 0,0 133.5322,-52.7667 162.474,-56.8217 2.827,-0.3961 20.174,0.8975 23.5546,0.5586 39.0733,-3.9179 48.7739,-6.9848 51.834,-11.3945 1.0963,-1.5799 -0.5258,-6.2745 -3.039,-11.6309 l 22.289,-5.0352 c 19.9422,-6.8849 11.8239,-8.9353 19.4297,-11.7363 7.1313,-2.899 18.8068,-7.1053 32.4043,-11.8769 z m -80.6094,37.3496 18.1387,4.4219 -14.791,14.5371 c -4.1551,-7.7946 -8.7578,-15.1074 -8.7578,-15.1074 -8.748,-5.0653 -4.9346,4.6188 -4.1641,4.3476 l 3.2988,14.0938 -13.8398,0.498 -18.1387,-4.4218 14.7891,-14.5371 c 4.1552,7.7946 8.7559,15.1074 8.7558,15.1074 8.748,5.0653 4.9364,-4.6189 4.1661,-4.3477 l -3.3008,-14.0937 z" transform="matrix(0.26458333,0,0,0.26458333,-264.18615,-734.37989)" sodipodi:nodetypes="cssscccccscscccccccccccccccccc"/>
      </g>
    </g>
  </g>
</svg>