<svg xmlns:dc="http://purl.org/dc/elements/1.1/" xmlns:cc="http://creativecommons.org/ns#" xmlns:rdf="http://www.w3.org/1999/02/22-rdf-syntax-ns#" xmlns:svg="http://www.w3.org/2000/svg" xmlns="http://www.w3.org/2000/svg" xmlns:sodipodi="http://sodipodi.sourceforge.net/DTD/sodipodi-0.dtd" xmlns:inkscape="http://www.inkscape.org/namespaces/inkscape" width="547.55042mm" height="73.476761mm" viewBox="0 0 547.55042 73.476761" version="1.1" id="svg17178" inkscape:version="1.0.2 (e86c870879, 2021-01-15, custom)" sodipodi:docname="multipage-export-h_wkhlm1.svg">
  <defs id="defs17172">
    <clipPath clipPathUnits="userSpaceOnUse" id="clipPath21386">
      <rect style="opacity:1;fill:#d1ebdc;fill-opacity:0.933333;stroke-width:0" id="rect21388" width="396.42004" height="97.073524" x="1384.6058" y="-399.93881" transform="scale(-1,1)"/>
    </clipPath>
  </defs>
  <sodipodi:namedview id="base" pagecolor="#ffffff" bordercolor="#666666" borderopacity="1.0" inkscape:pageopacity="0.0" inkscape:pageshadow="2" inkscape:zoom="0.24812419" inkscape:cx="913.96537" inkscape:cy="-239.884" inkscape:document-units="mm" inkscape:current-layer="layer1" inkscape:document-rotation="0" showgrid="false" inkscape:window-width="1113" inkscape:window-height="1001" inkscape:window-x="-9" inkscape:window-y="-9" inkscape:window-maximized="0"/>
  <metadata id="metadata17175">
    <rdf:RDF>
      <cc:Work rdf:about="">
        <dc:format>image/svg+xml</dc:format>
        <dc:type rdf:resource="http://purl.org/dc/dcmitype/StillImage"/>
        <dc:title/>
      </cc:Work>
    </rdf:RDF>
  </metadata>
  <g inkscape:label="Layer 1" inkscape:groupmode="layer" id="layer1" transform="translate(25.559364,224.08817)">
    <g id="imggraphicsbanner" transform="matrix(0.99731853,0,0,0.99731853,-2815.0565,-952.88776)" inkscape:export-filename="C:\work\misc work\Aaranya\website\drawings\website exports for dev\other pages update\assets other pages\book a demo\book a demo.png" inkscape:export-xdpi="58.939999" inkscape:export-ydpi="58.939999">
      <path style="fill:#aadabe;fill-opacity:0.933333;stroke-width:0.373803" d="m 3235.6053,791.30901 c -1.7486,-0.11556 -3.3711,-0.38826 -3.6054,-0.60721 -0.3099,-0.28941 2.3543,-1.26629 0.9511,-2.07624 -1.2176,-0.70267 -1.9932,-2.63961 -3.1403,-2.9554 -3.15,-0.86761 -5.073,-2.06909 -5.5586,-2.30172 -0.8758,-0.41929 -0.8992,-1.24331 -0.084,-2.96847 0.4052,-0.85755 0.9674,-2.12699 1.2493,-2.82112 0.2819,-0.69414 0.7673,-1.54051 1.0786,-1.88105 0.3113,-0.34053 0.4745,-0.94485 0.3626,-1.34279 -0.248,-0.88217 -0.015,-0.72755 8.5296,5.67013 5.3319,3.99196 6.0022,4.39053 6.7878,4.03592 0.8419,-0.37997 1.3867,0.1834 0.489,0.91019 -0.8403,0.68032 -1.4158,0.24381 -0.8449,0.64112 0.8819,0.61362 4.1343,4.98593 4.1343,5.55772 0,0.50433 -3.9887,0.55784 -10.3489,0.13892 z m -318.615,-2.21755 c -0.5808,-0.21643 -0.8323,-0.53436 -0.6919,-0.87477 0.228,-0.55282 0,-0.6356 -3.039,-1.09433 -3.0355,-0.45861 -3.1397,-0.67416 -1.4178,-2.93242 1.6691,-2.18904 1.6658,-1.99359 0.099,-5.84561 -0.9439,-2.32006 -0.85,-2.2212 -2.447,-2.57304 -1.0759,-0.23716 -1.1252,-0.2874 -0.3103,-0.31705 1.1464,-0.0415 1.8429,0.36227 6.7766,3.92739 5.9668,4.31152 5.2536,4.17987 7.8553,1.45032 1.2243,-1.28463 2.7246,-2.82602 3.334,-3.42532 l 1.1081,-1.08981 -1.1664,1.44241 c -0.6415,0.79311 -1.6305,1.84499 -2.1979,2.33726 -1.3169,1.14282 -2.6514,3.14244 -2.3749,3.55872 0.1172,0.17624 0.7566,0.42168 1.4211,0.54528 0.6645,0.12436 2.1069,0.97388 3.2053,1.88921 2.4212,2.01796 2.8565,2.6415 2.139,3.06431 -0.7119,0.41967 -11.1416,0.36654 -12.293,-0.0628 z m 62.4462,0.0502 c -2.7899,-0.14458 -4.1219,-0.36503 -4.5075,-0.74601 -0.301,-0.29745 -1.1899,-1.91998 -1.9753,-3.60557 -0.7853,-1.68559 -2.3056,-4.87087 -3.3783,-7.07825 -1.6185,-3.33048 -1.8776,-4.14005 -1.5225,-4.75718 0.3636,-0.63221 0.1561,-1.11217 -1.3825,-3.19771 -0.9956,-1.34958 -1.9487,-2.60143 -2.1179,-2.78169 -0.1763,-0.18791 -1.0144,0.11934 -1.963,0.72102 -2.375,1.50521 -2.6388,1.64828 -2.6388,1.43122 0,-0.10677 0.9852,-0.80304 2.1893,-1.54691 l 2.1893,-1.35247 0.8906,1.07838 c 0.4897,0.59302 2.3384,2.78445 4.1081,4.86986 1.7697,2.08542 4.264,5.06984 5.5429,6.63208 3.0653,3.74462 3.1331,3.81823 3.5097,3.81823 0.1781,0 1.8818,-0.74852 3.7859,-1.66348 6.7538,-2.68509 -0.011,-0.61714 -0.1245,0.90704 8e-4,0.31705 1.396,1.78495 3.1003,3.26215 1.7043,1.47733 3.0988,2.95779 3.0988,3.29004 0,0.66386 -1.5982,1.09923 -3.6332,0.98969 -0.6661,-0.0352 -2.9932,-0.15751 -5.1713,-0.27044 z m -26.4304,-0.53084 c -0.2482,-0.27823 -0.6063,-0.96784 -0.7958,-1.53234 -0.1896,-0.56463 -0.8885,-2.32445 -1.5532,-3.91094 -1.3342,-3.18401 -2.8902,-7.84586 -3.7306,-11.17722 -0.3002,-1.1898 -0.806,-2.91521 -1.124,-3.83419 -0.3181,-0.91897 -0.5783,-2.18439 -0.5783,-2.8122 0,-1.18867 -0.804,-2.95302 -1.8875,-4.14206 -0.3473,-0.38111 -0.4571,-0.59754 -0.244,-0.4811 0.2132,0.11682 2.4803,2.81346 5.038,5.99296 2.5578,3.17937 4.8776,5.86835 5.1552,5.97537 0.2776,0.10803 0.9752,-0.0666 1.5502,-0.38437 0.886,-0.49077 0.8528,-0.42143 -0.2176,0.45471 -0.6946,0.56853 -1.2614,1.15689 -1.2595,1.30738 0,0.15061 1.0935,1.62441 2.4256,3.27521 1.3322,1.65079 3.2069,4.01054 4.1661,5.24393 0.9591,1.23326 2.3251,2.97173 3.0354,3.86308 1.9317,2.42419 1.5131,2.66762 -4.5856,2.66762 -3.7693,0 -5.0502,-0.11933 -5.3944,-0.50584 z m 58.0997,0.0741 c -1.1723,-0.19633 -2.2735,-0.48197 -2.4472,-0.63484 -0.1736,-0.15299 0.3932,-1.03994 1.2595,-1.97123 0.8664,-0.93129 1.5752,-1.76033 1.5752,-1.84223 0,-0.35749 -2.698,-1.39266 -5.7746,-2.21555 -4.4239,-1.18326 -5.2252,-1.67717 -4.9324,-3.03906 0.1246,-0.5797 0.6663,-1.91885 1.2038,-2.97588 0.5376,-1.05715 0.9774,-2.17309 0.9774,-2.47971 0,-0.30674 0.2616,-0.65092 0.5813,-0.7651 0.7045,-0.2516 0.769,-1.19005 0.097,-1.411 -5.0452,2.73533 2.6358,-2.39543 0.5858,-0.16129 0.4771,0.29594 4.141,3.23389 8.1419,6.52869 4.001,3.29494 7.4888,5.98492 7.7508,5.97789 0.262,-0.0138 0.9123,-0.24469 1.4452,-0.52808 0.5328,-0.2835 1.1432,-0.51953 1.3564,-0.52468 0.2131,0 -0.3973,0.42018 -1.3564,0.94498 -0.9592,0.52481 -1.8166,1.01018 -1.9054,1.07826 -0.089,0.0678 0.4853,0.72566 1.2758,1.46112 0.9015,0.83871 1.3951,1.61173 1.3241,2.07323 -0.1059,0.68848 -0.4003,0.73935 -4.5699,0.78859 -2.4512,0.0289 -5.4159,-0.10802 -6.5882,-0.30411 z m 188.8476,-1.07486 c 1.9422,-0.65909 1.4816,-1.02411 -3.9741,-3.14985 -2.2511,-0.87702 -3.7663,-1.68484 -3.9294,-2.09496 -0.1459,-0.36704 -0.01,-2.04044 0.3063,-3.7185 0.6871,-3.66674 0.4425,-4.95452 -2.1197,-11.1634 -0.9411,-2.28062 -2.2911,-5.74777 -3,-7.70506 -0.7088,-1.95741 -1.4815,-3.73809 -1.717,-3.95703 -2.8166,5.99936 -2.167,-0.76774 0.4355,-0.1118 1.5105,1.4306 13.7669,13.82488 21.2224,21.46122 2.812,2.88029 3.4101,3.32571 4.2614,3.17435 l 0.9902,-0.17611 -0.8814,0.66399 -0.8814,0.66398 1.8936,1.64803 c 1.0415,0.9063 2.4852,2.01872 3.2082,2.47205 3.0268,1.89775 1.156,2.32358 -10.3115,2.34744 -4.9188,0.0138 -6.3133,-0.0804 -5.5031,-0.35435 z m -135.0483,-0.206 c -1.6429,-0.21065 -2.141,-1.02814 -1.2145,-1.99359 1.372,-1.42985 3.2673,-4.9637 3.032,-5.65343 -0.1236,-0.36214 -0.7855,-0.86421 -1.4712,-1.11594 -0.6856,-0.25185 -1.6452,-0.78972 -2.1324,-1.19545 -0.4871,-0.40573 -1.696,-1.15011 -2.6864,-1.65431 -0.9903,-0.50409 -1.862,-1.09534 -1.937,-1.31391 -0.075,-0.21856 0.8722,-1.10187 2.105,-1.96269 2.7471,-1.91822 4.7097,-3.57417 5.1726,-4.36377 0.419,-0.71523 -0.4144,-3.06996 -2.7248,-7.69839 -0.8909,-1.7847 -1.8482,-4.05627 -2.1275,-5.04785 -5.961,-10.07234 -1.5833,-4.91897 3.859,1.83946 3.5348,4.39329 6.5301,7.92199 7.0636,8.32156 0.3128,0.23414 0.857,0.34267 1.2093,0.24092 0.5383,-0.15538 0.5287,-0.0992 -0.061,0.35059 -0.6354,0.48524 -0.6586,0.74978 -0.247,2.82376 1.043,5.25624 1.0587,5.27621 9.6155,12.20348 7.0207,5.6837 6.7585,5.44265 6.3427,5.82941 -0.3348,0.31151 -21.6819,0.66147 -23.7982,0.39015 z m 46.0181,-0.41126 c -0.1173,-0.17661 0.2212,-0.58598 0.7522,-0.90968 0.531,-0.3237 0.9655,-0.73873 0.9655,-0.9225 0,-0.18352 -1.0027,-0.60557 -2.2283,-0.93782 -1.2256,-0.33224 -4.4083,-1.2222 -7.0726,-1.97776 -2.6643,-0.75556 -5.629,-1.55282 -6.5882,-1.77151 -2.192,-0.49994 -4.6504,-1.47381 -4.6504,-1.84198 0,-0.50069 1.2959,-1.50169 2.6005,-2.00891 0.7012,-0.27258 1.2749,-0.70117 1.2749,-0.95227 0,-0.25135 -2.4851,-2.89034 -5.5225,-5.86471 -3.0373,-2.97437 -5.6968,-5.69802 -5.9099,-6.05249 -0.2132,-0.35461 -0.8652,-0.91371 -1.449,-1.24256 -1.0303,-0.58033 -1.1465,-0.55847 -3.9722,0.74237 -1.601,0.73696 -2.9109,1.26228 -2.9109,1.16719 0,-0.28652 5.3612,-2.70569 5.9966,-2.70569 0.5891,0 2.7308,1.09031 16.7164,8.51035 8.0187,4.25436 10.6169,5.7916 6.9337,4.10275 -1.2789,-0.58636 -2.5534,-1.06821 -2.8323,-1.07085 -0.4987,0 3.2346,4.46677 3.9986,4.78909 0.2152,0.0917 1.2916,0.0842 2.3921,-0.0138 2.3115,-0.20664 2.3893,-0.72303 0.252,-1.67127 -0.7631,-0.33853 -1.3029,-0.69414 -1.1998,-0.78998 0.1032,-0.0955 1.6507,0.61161 3.439,1.57229 7.1647,3.84938 8.9984,4.76258 9.5649,4.76258 0.6436,0 3.1263,-1.67127 8.148,-5.48473 1.7726,-1.34618 3.4294,-2.44165 3.6816,-2.43461 0.2523,0.0138 0.9819,0.4306 1.6213,0.94096 0.6394,0.51049 0.901,0.80442 0.5813,0.65331 -0.3197,-0.15099 -0.8962,-0.52669 -1.2812,-0.83482 -0.8792,-0.70355 -0.9453,-0.66725 -6.9662,3.83532 -5.1808,3.87413 -5.7994,4.5871 -4.4601,5.13992 0.4882,0.20148 1.4627,0.75694 2.1657,1.23427 0.7029,0.47732 1.4754,0.92915 1.7167,1.00402 0.2413,0.0754 0.3256,0.41012 0.1874,0.74538 -0.2244,0.5439 -1.0821,0.60922 -7.9914,0.60922 -4.2571,0 -7.8361,-0.14446 -7.9534,-0.32107 z m 177.7349,0.0779 c -1.3498,-0.26165 -0.8143,-0.94247 1.314,-1.67089 2.3721,-0.81171 3.7191,-1.924 2.9014,-2.39605 -0.3047,-0.17599 -2.4587,-0.68698 -4.7866,-1.13579 -2.3279,-0.44856 -4.3161,-1.01834 -4.4183,-1.26592 -0.1021,-0.24758 0.2046,-0.94121 0.6816,-1.54151 0.6481,-0.81548 0.7604,-1.21103 0.4445,-1.56525 -0.2325,-0.26052 -2.8159,-1.60596 -5.741,-2.9897 -2.9707,-1.40522 -5.3923,-2.77817 -5.4862,-3.11028 -0.1501,-0.53122 -4.9851,-2.47657 -6.1436,-2.4718 -5.0465,2.61173 -7.0375,3.81384 -0.092,-0.48235 l 18.1776,4.21492 18.1775,4.21491 c 4.244,-1.7847 2.3423,-0.70242 -0.5231,1.00176 l 1.3324,0.57154 c 1.2896,0.55319 3.3277,1.84373 9.1441,5.79072 4.3009,2.91822 4.4119,2.88832 -10.9945,2.95364 -7.2016,0.0302 -13.4963,-0.0226 -13.9881,-0.11807 z m -147.3393,-7.6273 c -2.0775,-1.29644 -5.038,-3.38524 -5.038,-3.55444 0,-0.19696 4.8976,2.94786 5.7992,3.72364 0.7525,0.64728 0.4336,0.57656 -0.7612,-0.1692 z m 2.3575,0.55534 c 0.089,-0.0553 0.5103,-0.34016 0.9366,-0.63095 0.7169,-0.48926 0.7352,-0.48173 0.2432,0.10174 -0.2926,0.34707 -0.714,0.63095 -0.9366,0.63095 -0.2225,0 -0.332,-0.0465 -0.2432,-0.10174 z m 184.9931,-3.17372 c -0.2043,-0.30763 -0.1043,-0.37797 0.3213,-0.22585 0.3591,0.12812 1.2376,-0.18905 2.0981,-0.75782 5.7844,-4.02989 2.1522,-0.28037 -1.5731,1.23364 -0.3024,0.10802 -0.6832,0 -0.8463,-0.24997 z m -1.3815,-0.95491 c -0.482,-0.57191 -0.4683,-0.58459 0.1463,-0.13628 0.6456,0.47092 0.8509,0.76711 0.5319,0.76711 -0.08,0 -0.3856,-0.28388 -0.6782,-0.63095 z m -397.9528,-0.99195 c 0.7231,-0.69401 1.4019,-1.26203 1.5084,-1.26203 0.1067,0 -0.3978,0.56802 -1.1209,1.26203 -0.723,0.69413 -1.4018,1.2619 -1.5084,1.2619 -0.1066,0 0.3979,-0.56777 1.1209,-1.2619 z m 393.1964,-2.1638 c -2.0995,-1.48725 -3.7038,-2.70418 -3.5651,-2.70418 0.293,0 7.5959,5.06858 7.5959,5.27194 0,0.26869 -0.2636,0.10049 -4.0308,-2.56776 z m -98.0628,1.45358 c 0.4137,-0.29104 0.9163,-0.53448 1.1169,-0.54076 0.2007,0 0.026,0.22686 -0.3875,0.5179 -0.4138,0.29117 -0.9164,0.53461 -1.117,0.54089 -0.2006,0 -0.026,-0.22686 0.3876,-0.51803 z m -288.7514,-6.16843 c 2.7366,-2.95943 5.4124,-5.78633 5.9463,-6.28212 l 0.9707,-0.90139 -0.9334,1.12812 c -1.6043,1.93895 -10.0311,10.90251 -10.5067,11.17584 -0.2489,0.14332 1.7865,-2.16116 4.5231,-5.12045 z m 382.5483,1.74312 c 0.075,0.0691 -1.0794,0.73784 -2.5654,1.48461 -6.7272,3.29556 1.9167,-1.5939 2.5654,-1.48461 z m -362.1903,1.93417 c 0,-0.0754 0.3052,-0.35887 0.6782,-0.63095 0.6146,-0.44856 0.6283,-0.43575 0.1463,0.13629 -0.5063,0.60055 -0.8245,0.79161 -0.8245,0.49479 z m 118.3703,-6.51387 c 0.4137,-0.30838 0.9223,-0.56061 1.1303,-0.56061 0.4923,0 0.2725,0.16644 -0.9138,0.69213 -0.9135,0.40472 -0.9259,0.39718 -0.2165,-0.13089 z m -79.2643,-17.30278 c -2.6604,-1.22044 -3.375,-4.15613 -1.5529,-6.37871 0.577,-0.70393 1.405,-1.38487 1.84,-1.51325 0.4382,-0.12938 1.0633,-0.86697 1.4017,-1.65368 0.8694,-2.02161 2.1607,-2.84876 4.4473,-2.84876 1.6091,0 2.1035,0.18427 3.3856,1.2619 0.9725,0.81736 1.8944,1.26479 2.617,1.26994 1.7877,0.0138 4.3179,1.27647 5.1754,2.5851 1.6873,2.57492 0.5642,5.89435 -2.4207,7.15499 -1.3906,0.58737 -2.5496,0.69213 -7.6459,0.69187 -4.6895,-1.2e-4 -6.2789,-0.12561 -7.2475,-0.5694 z m 135.9278,0.0729 c -2.8807,-0.97877 -4.5168,-3.07825 -4.5168,-5.79575 0,-2.56123 1.5913,-4.70782 4.5018,-6.07259 0.7827,-0.36717 1.2842,-0.92087 1.4252,-1.57355 0.1197,-0.55395 0.6291,-1.57505 1.1321,-2.26918 l 0.9147,-1.2619 4.691,-0.10049 4.691,-0.10049 1.2369,1.45296 c 1.1655,1.36913 1.3554,1.45308 3.2885,1.45308 3.7972,0 6.6113,1.81472 7.7469,4.99559 1.1762,3.29456 -0.4678,7.15337 -3.7399,8.77866 -1.5858,0.78784 -2.1105,0.83244 -10.7742,0.91459 -7.04,0.0666 -10.5972,0.79645 -10.5972,-0.42005 z m 55.1642,-1.88519 c 0,-1.43804 -2.3253,-1.71548 -2.3253,-2.88569 0,-1.17158 0.1388,-1.35699 3.7609,-5.02687 1.1528,-1.16794 3.1589,-1.17096 4.3346,0 0.4957,0.49102 1.5325,0.95804 2.4195,1.08994 3.2894,0.48938 4.4837,3.43938 2.3091,5.70367 l -1.1273,1.17384 -4.3951,0.0842 c -2.4174,0.0465 -4.6567,-0.0138 -4.9764,-0.13214 z" id="path13517" sodipodi:nodetypes="sssssssssssssssssssssscssscssscsssssssssssssscssssccsscsssssssscsccscsssssscsssssssccscscsssscsscsscssccsscccssccssssssssssccssssssssscssssssssssssssscccscssscssssssssssscsssssssscccccsscccssssscssscscccssssssssssssssssscssccssscscscsssccscccssssscssscscssscccssssssscsscsscsccs"/>
      <path style="display:inline;fill:#1f5249;fill-opacity:1;stroke:none;stroke-width:1.85899;stroke-miterlimit:4;stroke-dasharray:none;stroke-opacity:1" d="m 2796.9973,791.59462 v -12.8386 l 9.8041,-4.1989 c 5.3922,-2.3095 11.0952,-4.7539 12.6736,-5.4323 1.5783,-0.6785 3.1723,-1.2336 3.5421,-1.2336 0.3699,0 1.1752,0.5576 1.7897,1.2387 1.2227,1.3556 10.2845,10.5534 13.815,14.0225 1.8996,1.8667 2.3573,2.1418 3.2204,1.9359 0.5534,-0.1325 2.2651,-0.3958 3.804,-0.5859 1.5387,-0.1904 8.1269,-1.0215 14.6402,-1.8471 16.3277,-2.0697 15.3192,-1.9429 30.4796,-3.8291 7.4744,-0.9301 14.5612,-1.8607 15.7487,-2.0681 3.7351,-0.6526 3.9508,-0.5573 5.0614,2.2332 1.5784,3.9656 1.5815,3.7611 -0.092,6.0031 -1.7252,2.3119 -1.6207,2.5327 1.4205,3.002 3.039,0.4691 3.273,0.5549 3.0459,1.1175 -0.3794,0.9397 1.5893,1.2935 7.1646,1.2877 5.5042,0 6.6256,-0.2292 6.0381,-1.2016 -0.722,-1.1952 -4.401,-3.9765 -5.5486,-4.1947 -0.6658,-0.127 -1.3093,-0.3822 -1.43,-0.5678 -0.2904,-0.4469 0.6951,-1.8499 3.1962,-4.55 2.2994,-2.4826 6.4304,-7.007 12.7495,-13.9643 2.3408,-2.5769 4.4375,-4.6289 4.6593,-4.5597 0.742,0.2312 2.1379,3.0066 2.1443,4.2635 0,0.6834 0.2671,2.0121 0.5858,2.953 0.3186,0.9408 0.8254,2.7072 1.1261,3.9252 0.8421,3.4104 2.4009,8.1829 3.7377,11.4424 0.666,1.6242 1.3662,3.4259 1.5561,4.0038 0.6636,2.0195 0.8632,2.0867 6.202,2.0867 6.1104,0 6.5298,-0.2494 4.5943,-2.7311 -0.7116,-0.9126 -2.0801,-2.6922 -3.0411,-3.9548 -0.9611,-1.2626 -2.8393,-3.6783 -4.174,-5.3683 -1.3347,-1.69 -2.4267,-3.2246 -2.4267,-3.4103 0,-0.7809 10.7602,-7.6939 11.2111,-7.2027 0.1696,0.1847 1.1245,1.4663 2.1221,2.8479 1.5416,2.135 1.7494,2.6263 1.3851,3.2735 -0.3557,0.6318 -0.096,1.4607 1.5254,4.8702 1.0747,2.2597 2.5943,5.5206 3.3767,7.2462 0.7825,1.7257 1.7403,3.4018 2.1284,3.7251 0.5366,0.4468 1.9462,0.6393 5.8831,0.8037 8.5749,0.3577 8.9309,0 4.2083,-4.1784 -1.7076,-1.5122 -3.1042,-2.9989 -3.1035,-3.3032 7e-4,-0.3112 1.2335,-1.1705 2.8135,-1.9614 11.2608,-5.6362 18.4153,-9.0005 18.8286,-8.8538 0.6729,0.239 0.609,1.1962 -0.097,1.4538 -0.3202,0.1172 -0.5823,0.4693 -0.5823,0.7833 0,0.3139 -0.4406,1.4564 -0.9792,2.5386 -0.5385,1.082 -1.0813,2.453 -1.2061,3.0465 -0.2934,1.3941 0.5095,1.8998 4.9417,3.1112 3.0825,0.8424 5.7857,1.9021 5.7857,2.2681 0,0.083 -0.7011,0.9224 -1.5581,1.8637 -0.8568,0.9411 -1.4693,1.8475 -1.361,2.0141 0.3501,0.5385 6.5099,1.1826 10.1022,1.0563 3.1719,-0.1116 3.505,-0.1924 3.6079,-0.8762 0.071,-0.4725 -0.4235,-1.2638 -1.3266,-2.1225 -0.7921,-0.7529 -1.3248,-1.4784 -1.1839,-1.6124 0.1408,-0.1339 4.3196,-2.1687 9.2862,-4.5215 l 9.0302,-4.2783 1.8082,-2.5836 c 9.4855,-13.5541 17.3804,-24.3802 17.8411,-24.4651 0.6668,-0.1227 2.5249,3.286 3.2755,6.0094 0.2797,1.015 1.2389,3.3405 2.1315,5.1676 2.3148,4.7382 3.1498,7.1489 2.7299,7.881 -0.4637,0.8084 -2.4301,2.5036 -5.1824,4.4675 -1.2352,0.8812 -2.1842,1.7854 -2.109,2.0091 0.075,0.2238 0.9485,0.8292 1.9407,1.3452 0.9922,0.5162 2.2034,1.2782 2.6915,1.6935 0.4881,0.4154 1.4496,0.966 2.1365,1.2238 0.687,0.2577 1.3502,0.7718 1.4739,1.1424 0.2373,0.7108 -1.667,4.329 -3.056,5.8061 -0.7471,0.7945 -0.7531,0.8712 -0.1156,1.4763 0.6109,0.5804 1.7683,0.633 12.7375,0.5788 7.3571,-0.037 12.2156,-0.2024 12.45,-0.4252 0.2536,-0.241 -0.046,-0.7229 -0.8796,-1.4167 -0.6952,-0.5782 -3.1154,-2.6123 -5.3783,-4.5199 -2.2628,-1.9075 -4.7876,-3.9838 -5.6106,-4.6139 -1.9499,-1.4926 -3.2993,-3.7257 -3.7363,-6.1835 -0.1933,-1.0863 -0.4669,-2.4954 -0.608,-3.1318 l -0.2567,-1.1566 4.882,-2.3494 c 4.8301,-2.3242 4.8937,-2.3426 5.9608,-1.7287 0.5933,0.3415 1.2533,0.9178 1.4669,1.2808 0.2136,0.3631 2.8782,3.1513 5.9212,6.1962 3.0431,3.0449 5.533,5.7466 5.533,6.0038 0,0.2572 -0.5748,0.6959 -1.2773,0.9749 -1.3071,0.5193 -2.6055,1.5441 -2.6055,2.0566 0,0.377 2.4632,1.3739 4.6593,1.8858 0.9611,0.2239 3.9313,1.0399 6.6007,1.8136 2.6694,0.7734 5.8582,1.6845 7.0861,2.0247 1.2279,0.34 2.2325,0.7721 2.2325,0.96 0,0.1881 -0.4353,0.613 -0.9673,0.9443 -0.532,0.3316 -0.8712,0.7506 -0.7536,0.9314 0.1175,0.1808 3.7034,0.3286 7.9684,0.3286 6.9226,0 7.7819,-0.067 8.0067,-0.6237 0.1386,-0.3432 0.054,-0.6865 -0.1877,-0.7631 -0.2417,-0.077 -1.0157,-0.5392 -1.7201,-1.0278 -0.7042,-0.4886 -1.6807,-1.0573 -2.1697,-1.2636 -1.3419,-0.5658 -0.7221,-1.2957 4.4687,-5.2619 6.5886,-5.0345 5.6499,-4.7955 9.2583,-2.3564 4.8818,3.2999 5.9314,3.9143 6.6863,3.9143 0.3895,0 2.6532,-1.2043 5.0305,-2.6761 2.3774,-1.4718 5.3382,-3.2803 6.5799,-4.019 1.2415,-0.7385 4.5287,-2.7439 7.3049,-4.4561 15.4638,-9.5379 22.7664,-13.9483 23.0946,-13.9483 0.5268,0 0.9562,0.8766 2.2659,4.6258 0.636,1.8205 1.9293,5.2201 2.8741,7.5547 2.5696,6.35 2.8158,7.6725 2.1271,11.4285 -0.315,1.7179 -0.4531,3.4309 -0.3068,3.8066 0.1633,0.4199 1.6814,1.2468 3.9369,2.1448 5.466,2.1761 5.9276,2.5498 3.9816,3.2245 -0.8117,0.2812 0.5854,0.3733 5.5135,0.3629 11.4894,-0.023 13.3636,-0.4604 10.3313,-2.4032 -0.7245,-0.4641 -2.1764,-1.6078 -3.2266,-2.5416 -2.2402,-1.992 -2.2918,-1.9026 2.4081,-4.1668 1.6017,-0.7717 4.8044,-2.3444 7.1173,-3.4952 2.3129,-1.1507 4.3659,-1.9978 4.5622,-1.8825 0.5189,0.3049 0.437,1.3099 -0.1616,1.9826 -0.2851,0.3206 -0.7495,1.164 -1.0319,1.8747 -0.2825,0.7105 -0.8458,2.0101 -1.2518,2.8881 -0.8166,1.766 -0.7932,2.6096 0.084,3.0388 0.4866,0.2382 6.0542,1.8965 9.2216,2.7469 1.1699,0.3141 1.1109,0.6211 -0.5061,2.6351 -1.0056,1.2523 -1.2636,1.8286 -0.9516,2.1255 0.4568,0.4346 5.5154,0.8693 10.7763,0.9263 2.3941,0.026 3.2033,-0.087 3.2033,-0.447 0,-0.5988 -3.2683,-5.0685 -4.1795,-5.7155 -0.4225,-0.3001 -0.5222,-0.5729 -0.2697,-0.7384 4.0599,-2.6589 25.3245,-16.0808 25.6866,-16.2129 0.8176,-0.2983 6.2413,1.746 6.4285,2.4231 0.094,0.34 2.5203,1.7455 5.4966,3.1841 2.9306,1.4166 5.519,2.794 5.7519,3.0606 0.3165,0.3626 0.204,0.7676 -0.4453,1.6024 -0.4779,0.6145 -0.7852,1.3247 -0.6829,1.5781 0.1024,0.2536 2.0943,0.8369 4.4266,1.2961 2.3324,0.4593 4.4905,0.9826 4.7958,1.1626 0.8192,0.4832 -0.5303,1.622 -2.9069,2.453 -1.05,0.3672 -1.9778,0.8634 -2.0617,1.1027 -0.268,0.7643 2.8683,0.9247 15.5655,0.7964 14.5347,-0.1471 14.4805,-0.1312 10.2098,-3.0917 -5.8011,-4.0222 -7.8671,-5.3606 -9.1305,-5.9158 -0.7171,-0.315 -1.2413,-0.6264 -1.1648,-0.692 0.984,-0.8442 14.4532,-7.9579 15.0677,-7.9579 0.1761,0 1.8773,1.1212 3.7805,2.4915 1.9033,1.3703 4.2993,3.0536 5.3246,3.7405 l 1.864,1.249 4.7177,-3.0871 c 2.5947,-1.698 6.1492,-4.004 7.899,-5.1247 1.7497,-1.1206 3.2582,-2.2868 3.3524,-2.5912 0.094,-0.3045 0.1913,7.9589 0.2161,18.3633 l 0.045,18.917 h -274.5113 -274.5113 z m 310.0362,-12.9021 c -1.1006,-0.7933 -4.467,-4.8951 -4.0158,-4.893 0.2881,0 1.6594,0.5805 3.0475,1.287 1.3881,0.7066 3.0839,1.5634 3.7687,1.9038 1.7748,0.8828 1.951,1.6041 0.3931,1.6104 -0.6873,0 -1.5991,0.088 -2.0263,0.1892 -0.4271,0.1022 -0.9523,0.058 -1.1672,-0.098 z" id="path9264" sodipodi:nodetypes="ccssssscsssssssscsssssscsssssssssssssssscscsssssssssssssscsssssssssssssssssssscssssssssssssssssssssssssssssssscsssssssssssscsscssssssssssscscssscssssccccsssscsss"/>
    </g>
  </g>
</svg>